<svg id="Layer_1" data-name="Layer 1" xmlns="http://www.w3.org/2000/svg" viewBox="0 0 289.84 81"><defs><style>.cls-1{fill:#e40520;fill-rule:evenodd;}.cls-2{fill:#00813d;}.cls-3{fill:#007d37;}.cls-4{fill:#007f39;}.cls-5{fill:#007b36;}.cls-6{fill:#057f3b;}.cls-7{fill:#007d38;}.cls-8{fill:#007c37;}</style></defs><title>BonoLoto_Lines</title><path class="cls-1" d="M7.85,66.79h18.2c6.52,0,12.9-1,12.9-10.9,0-3.93-2.7-8.2-7.06-8.93V46.84c4.18-1.35,6.47-4.21,6.47-9.61,0-7.47-5.35-9.66-10.79-9.66H7.85V66.79h0ZM19.18,50.66h3.24c2.25,0,4.5.62,4.5,4,0,3-2.38,4-4.59,4H19.18v-8h0Zm0-15.68h3.28c2.16,0,4.14.9,4.14,3.82s-2.29,3.76-4.41,3.76h-3V35h0Z" transform="translate(-7.85 13.54)"/><path class="cls-1" d="M40.92,51.62c0,10.11,5,15.84,14.52,15.84S70,61.73,70,51.62c0-9.83-5.12-14.78-14.56-14.78S40.92,41.78,40.92,51.62h0Zm12,0c0-3.48.27-6.35,2.47-6.35S58,48.13,58,51.62c0,4.27-.32,7.42-2.52,7.42S53,55.89,53,51.62h0Z" transform="translate(-7.85 13.54)"/><path class="cls-1" d="M72.94,66.79H84.26V49.93c0-1.69,0-4,2-4s2,2.3,2,4V66.79H99.59V46.45c0-5.68-2.2-9.61-8.23-9.61a7.72,7.72,0,0,0-7.64,5.73H83.64V37.51H72.94V66.79h0Z" transform="translate(-7.85 13.54)"/><path class="cls-1" d="M102.53,51.62c0,10.11,5,15.84,14.52,15.84s14.56-5.73,14.56-15.84c0-9.83-5.12-14.78-14.56-14.78s-14.52,4.94-14.52,14.78h0Zm12,0c0-3.48.27-6.35,2.47-6.35s2.52,2.87,2.52,6.35c0,4.27-.31,7.42-2.52,7.42s-2.47-3.15-2.47-7.42h0Z" transform="translate(-7.85 13.54)"/><polygon class="cls-1" points="126.7 80.33 153.53 80.33 153.53 68.76 138.74 68.76 138.74 41.11 126.7 41.11 126.7 80.33 126.7 80.33"/><path class="cls-1" d="M162.36,51.62c0,10.11,5,15.84,14.52,15.84s14.56-5.73,14.56-15.84c0-9.83-5.12-14.78-14.56-14.78s-14.52,4.94-14.52,14.78h0Zm12,0c0-3.48.27-6.35,2.47-6.35s2.52,2.87,2.52,6.35c0,4.27-.32,7.42-2.52,7.42s-2.47-3.15-2.47-7.42h0Z" transform="translate(-7.85 13.54)"/><path class="cls-1" d="M193.41,37.51v8.43h4V56.06c0,7.75,2.83,11.41,8.68,11.41a22.37,22.37,0,0,0,7.78-1.52V57.52a6.57,6.57,0,0,1-2.65.51c-1.48,0-2.47-1.35-2.47-3.82V45.94h5.12V37.51h-5.12V26.44l-11.33,4.33v6.74h-4Z" transform="translate(-7.85 13.54)"/><path class="cls-1" d="M216.79,51.62c0,10.11,5,15.84,14.52,15.84s14.56-5.73,14.56-15.84c0-9.83-5.12-14.78-14.56-14.78s-14.52,4.94-14.52,14.78h0Zm12,0c0-3.48.27-6.35,2.47-6.35s2.52,2.87,2.52,6.35c0,4.27-.31,7.42-2.52,7.42s-2.47-3.15-2.47-7.42h0Z" transform="translate(-7.85 13.54)"/><path class="cls-2" d="M291.86,23.5a21.45,21.45,0,0,1,2.53,5.62,13.5,13.5,0,0,0,1.85,3.42,6.88,6.88,0,0,1,1.25,5.73c-0.65,2.47-1.93,3.11-5,3.72a8.42,8.42,0,0,1-1.41,0,1.5,1.5,0,0,0-1.24-.1c-2.61,0-5.07-.89-7.61-1.31-0.16,0-.32-0.1-0.48-0.12-0.43,0-1-.24-1.21.21-0.23.61,0.52,0.6,0.84,0.87,1.07,0.92,2.48,1,3.7,1.49,1.68,0.73,3.51,1.13,5,2.23,2.07,1.48,3.35,5.34,2.66,7.81-0.74,2.69-2.69,3.89-5.14,4.61a2,2,0,0,0-1.11,1c-3,3.13-5,4.36-8.61,3.21-0.46-.37-1.09-0.32-1.57-0.65-1.38-.44-3-2.75-3.06-4.53a29.6,29.6,0,0,1,.76-7.16,1.85,1.85,0,0,0,.12-1.49,6.52,6.52,0,0,0-.08-0.88,1,1,0,0,0-.85-1c-0.41,0-.33.65-0.46,1-1.19,3.23-1.33,6.83-3.47,9.71-1.55,2.09-3.25,3.94-6,4.36-0.54.08-1.22,0.46-1.58-.24s0.18-1.19.75-1.56a3.22,3.22,0,0,0,1.76-.81,14.54,14.54,0,0,0,3.47-4.07c1.3-2.56,2.62-5.12,2.8-8.29a8.19,8.19,0,0,0-2.2,2.87A11.19,11.19,0,0,1,260,55.52c-2.86.53-4.81-.69-6.06-4.09a34.21,34.21,0,0,1-1-4.17,6.94,6.94,0,0,0-1.36-2.87c-0.86-1.07-.66-2.36-0.54-3.6,0.41-4.19,3.06-6.33,6.92-6.08a12.36,12.36,0,0,1,3.72.87c2.2,0.87,4.56,1.31,6.84,2,0.24,0.07.4,0.11,0.5-.1,0.18-.37-0.11-0.55-0.37-0.67a36.1,36.1,0,0,0-3.48-1.57,13.82,13.82,0,0,1-7.66-6.43c-2-3.46.32-8.55,4.2-9.34a10.57,10.57,0,0,0,4.87-2.26,8.44,8.44,0,0,1,4-2c0.57,0.24,1.2-.09,1.76.2,1.95,0.24,4.81,3.07,5.53,5,0.86,2.31.33,4.43-.27,6.63-0.42,1.55-.64,3.16-1,4.72-0.08.33-.14,0.63,0.11,0.75a0.57,0.57,0,0,0,.74-0.44c0.67-1.5,1.28-3,2-4.49,1-2,1.58-4.4,3.78-5.66a6,6,0,0,1,4.28-1.06c1.29,0.31,2.83.45,3.61,1.87A1.3,1.3,0,0,0,291.86,23.5Z" transform="translate(-7.85 13.54)"/><path class="cls-3" d="M167.35,32.62a1.55,1.55,0,0,1,1.57.65C168.4,33,167.69,33.27,167.35,32.62Z" transform="translate(-7.85 13.54)"/><path class="cls-4" d="M155.25,30a1.58,1.58,0,0,1-1.76.81A5.07,5.07,0,0,1,155.25,30Z" transform="translate(-7.85 13.54)"/><path class="cls-5" d="M163.35-13.23c-0.58-.08-1.21.2-1.76-0.2C162.19-13.45,162.82-13.78,163.35-13.23Z" transform="translate(-7.85 13.54)"/><path class="cls-6" d="M165.17,19.44a1.07,1.07,0,0,1-.12,1.49A3.55,3.55,0,0,1,165.17,19.44Z" transform="translate(-7.85 13.54)"/><path class="cls-7" d="M177.53,30.06a1,1,0,0,1,1.11-1Z" transform="translate(-7.85 13.54)"/><path class="cls-8" d="M182.86-5.15c-0.65.12-.69-0.33-0.75-0.78A1.43,1.43,0,0,1,182.86-5.15Z" transform="translate(-7.85 13.54)"/><path class="cls-5" d="M180.84,13.29a0.86,0.86,0,0,1,1.24.1Z" transform="translate(-7.85 13.54)"/></svg>