<svg id="Layer_1" data-name="Layer 1" xmlns="http://www.w3.org/2000/svg" viewBox="0 0 218.84 55.64"><defs><style>.cls-1{fill:#b91918;}.cls-2{fill:#12100b;}</style></defs><title>ElGordo_Lines</title><path class="cls-1" d="M50.23,26.78a21.61,21.61,0,0,0-5.13-1V69.06a21.61,21.61,0,0,0,5.13-1V26.78Z" transform="translate(-14.99 -19.6)"/><path class="cls-1" d="M42,25.79a21.61,21.61,0,0,0-5.13,1v41.3a21.61,21.61,0,0,0,5.13,1V25.79Z" transform="translate(-14.99 -19.6)"/><path class="cls-1" d="M33.81,28a21.74,21.74,0,0,0-5.13,3.6V63.21a21.74,21.74,0,0,0,5.13,3.6V28Z" transform="translate(-14.99 -19.6)"/><path class="cls-1" d="M61.52,59.6a21.7,21.7,0,0,0,0-24.35V59.6Z" transform="translate(-14.99 -19.6)"/><path class="cls-1" d="M58.45,31.64A21.74,21.74,0,0,0,53.31,28V66.81a21.74,21.74,0,0,0,5.13-3.6V31.64Z" transform="translate(-14.99 -19.6)"/><path class="cls-1" d="M25.6,35.25a21.7,21.7,0,0,0,0,24.35V35.25Z" transform="translate(-14.99 -19.6)"/><path class="cls-2" d="M15,19.6V75.25h56V19.6H15ZM65.18,69.32h-44v-44h44v44Z" transform="translate(-14.99 -19.6)"/><path class="cls-1" d="M95.71,62.06h-16V34.2h16V39H85.57v6.12H95V50H85.57v7.19H95.71v4.88Z" transform="translate(-14.99 -19.6)"/><path class="cls-1" d="M106.88,62.06h-5.81V32.4h5.81V62.06Z" transform="translate(-14.99 -19.6)"/><path class="cls-1" d="M134.16,46.41h11.06V60.86q-1.11.36-2.23,0.66t-2.34.5q-1.21.2-2.53,0.31t-2.81.11a15.4,15.4,0,0,1-5.54-.92,10.41,10.41,0,0,1-4.06-2.74,12.09,12.09,0,0,1-2.51-4.5,20.29,20.29,0,0,1-.86-6.19,17.41,17.41,0,0,1,1-5.93,12,12,0,0,1,2.81-4.51,12.44,12.44,0,0,1,4.57-2.86,17.94,17.94,0,0,1,6.22-1,20,20,0,0,1,4.37.48,22.1,22.1,0,0,1,3.91,1.24l-2,4.73a15.65,15.65,0,0,0-2.93-1.09,13.13,13.13,0,0,0-3.42-.44,8.68,8.68,0,0,0-3.5.68,7.56,7.56,0,0,0-2.66,1.92,8.51,8.51,0,0,0-1.7,3,12.18,12.18,0,0,0-.59,3.91,16.1,16.1,0,0,0,.41,3.76,8.46,8.46,0,0,0,1.29,2.95,6,6,0,0,0,2.26,1.92,7.36,7.36,0,0,0,3.31.69,16.59,16.59,0,0,0,2.13-.11q0.87-.11,1.63-0.27V51.33h-5.28V46.41Z" transform="translate(-14.99 -19.6)"/><path class="cls-1" d="M169.76,51.37a15.13,15.13,0,0,1-.68,4.73,9.6,9.6,0,0,1-1.94,3.47,8.22,8.22,0,0,1-3.09,2.14,10.85,10.85,0,0,1-4.09.73,10.07,10.07,0,0,1-3.89-.73A8.48,8.48,0,0,1,153,59.57a10,10,0,0,1-2-3.47,14.2,14.2,0,0,1-.72-4.73,15.05,15.05,0,0,1,.68-4.71,9.49,9.49,0,0,1,1.94-3.46A8.18,8.18,0,0,1,156,41.08a11,11,0,0,1,4.1-.72,10.19,10.19,0,0,1,3.89.72A8.43,8.43,0,0,1,167,43.2a9.9,9.9,0,0,1,2,3.46A14.15,14.15,0,0,1,169.76,51.37Zm-13.53,0a10.12,10.12,0,0,0,.9,4.79,3.42,3.42,0,0,0,5.81,0,10.13,10.13,0,0,0,.9-4.78,9.88,9.88,0,0,0-.9-4.76A3.12,3.12,0,0,0,160,45a3.06,3.06,0,0,0-2.89,1.57A10,10,0,0,0,156.23,51.37Z" transform="translate(-14.99 -19.6)"/><path class="cls-1" d="M185.89,40.35h0.51l0.53,0,0.48,0.06a1.85,1.85,0,0,1,.33.07V46l-0.42-.08-0.56-.07-0.58,0H185.7a7.1,7.1,0,0,0-2.07.29A4,4,0,0,0,182,47a4.2,4.2,0,0,0-1,1.68,7.6,7.6,0,0,0-.37,2.54V62.06h-5.81V40.75h4.4L180,44h0.29a10.78,10.78,0,0,1,1-1.49,5.91,5.91,0,0,1,1.19-1.13,5.21,5.21,0,0,1,1.49-.72A6.39,6.39,0,0,1,185.89,40.35Z" transform="translate(-14.99 -19.6)"/><path class="cls-1" d="M198,62.44a6.38,6.38,0,0,1-3-.71,6.52,6.52,0,0,1-2.33-2.09,10.67,10.67,0,0,1-1.52-3.44,18.75,18.75,0,0,1-.54-4.76,19,19,0,0,1,.54-4.81,10.52,10.52,0,0,1,1.54-3.47,6.6,6.6,0,0,1,2.39-2.11,6.69,6.69,0,0,1,3.07-.71,7,7,0,0,1,1.89.24,5.86,5.86,0,0,1,1.54.67,6.48,6.48,0,0,1,1.23,1,7.54,7.54,0,0,1,1,1.23H204q-0.11-.74-0.21-1.51t-0.16-1.38q-0.07-.73-0.07-1.36V32.4h5.81V62.06h-4.44l-1.12-2.76h-0.25a9,9,0,0,1-.91,1.23,5.32,5.32,0,0,1-1.19,1,6.15,6.15,0,0,1-1.52.67A6.85,6.85,0,0,1,198,62.44Zm2.12-4.63a4,4,0,0,0,1.75-.35A2.82,2.82,0,0,0,203,56.39a5.39,5.39,0,0,0,.67-1.78,13.46,13.46,0,0,0,.24-2.5V51.48a17.66,17.66,0,0,0-.19-2.74,6.3,6.3,0,0,0-.63-2,3,3,0,0,0-1.18-1.23,3.77,3.77,0,0,0-1.87-.42,2.84,2.84,0,0,0-2.69,1.65,10.65,10.65,0,0,0-.86,4.79,10,10,0,0,0,.87,4.72A2.89,2.89,0,0,0,200.11,57.81Z" transform="translate(-14.99 -19.6)"/><path class="cls-1" d="M233.82,51.37a15.13,15.13,0,0,1-.68,4.73,9.6,9.6,0,0,1-1.94,3.47,8.22,8.22,0,0,1-3.09,2.14,10.85,10.85,0,0,1-4.09.73,10.07,10.07,0,0,1-3.89-.73,8.48,8.48,0,0,1-3.06-2.14,10,10,0,0,1-2-3.47,14.2,14.2,0,0,1-.72-4.73,15.05,15.05,0,0,1,.68-4.71A9.49,9.49,0,0,1,217,43.2,8.18,8.18,0,0,1,220,41.08a11,11,0,0,1,4.1-.72,10.19,10.19,0,0,1,3.89.72,8.43,8.43,0,0,1,3.06,2.13,9.9,9.9,0,0,1,2,3.46A14.15,14.15,0,0,1,233.82,51.37Zm-13.53,0a10.12,10.12,0,0,0,.9,4.79,3.42,3.42,0,0,0,5.81,0,10.13,10.13,0,0,0,.9-4.78,9.88,9.88,0,0,0-.9-4.76A3.12,3.12,0,0,0,224.07,45a3.06,3.06,0,0,0-2.89,1.57A10,10,0,0,0,220.29,51.37Z" transform="translate(-14.99 -19.6)"/></svg>