<svg id="Layer_1" data-name="Layer 1" xmlns="http://www.w3.org/2000/svg" viewBox="0 0 488.25 78.05"><defs><style>.cls-1{fill:#fdd600;}.cls-2{fill:#795d26;}.cls-3{fill:#f8eb6c;}.cls-4{fill:#795c25;}</style></defs><title>EuroJackpot_Lines</title><path class="cls-1" d="M218.63,80.22l2.65-7a11.94,11.94,0,0,0,3.83.79q3.77,0,3.77-4.67V41.94H241V69.35q0,6.47-3.38,10.16t-9.29,3.69A17.21,17.21,0,0,1,218.63,80.22Z" transform="translate(-8.92 -8.72)"/><path class="cls-2" d="M241,41.94V69.35q0,6.47-3.38,10.16t-9.29,3.69a17.21,17.21,0,0,1-9.68-3l2.65-7a11.94,11.94,0,0,0,3.83.79q3.77,0,3.77-4.67V41.94H241m2.56-2.56H226.31v30a3.14,3.14,0,0,1-.37,1.89c-.14.18-.53.21-.83.21a9.36,9.36,0,0,1-3-.64L219.76,70l-.89,2.34-2.65,7-.73,1.91,1.71,1.13a19.8,19.8,0,0,0,11.1,3.41c4.67,0,8.43-1.52,11.18-4.52s4.05-6.93,4.05-11.89v-30Z" transform="translate(-8.92 -8.72)"/><path class="cls-1" d="M252.8,41.94h17.11l11.2,38.73H267.88l-1.46-7.43h-10l-1.63,7.43H242.1Zm12.27,24.37-3.66-16.94-3.83,16.94Z" transform="translate(-8.92 -8.72)"/><path class="cls-2" d="M269.91,41.94l11.2,38.73H267.88l-1.46-7.43h-10l-1.63,7.43H242.1l10.7-38.73h17.11M257.58,66.31h7.49l-3.66-16.94-3.83,16.94m14.25-26.94h-21l-.52,1.88L239.63,80l-.9,3.25h18.09l.44-2,1.19-5.42h5.85l1.06,5.36.41,2.07h18.75L283.57,80l-11.2-38.73-.54-1.85Zm-11,24.37.56-2.5.54,2.5Z" transform="translate(-8.92 -8.72)"/><path class="cls-1" d="M290,78.9a19.68,19.68,0,0,1-7.26-7.32A20.22,20.22,0,0,1,280.1,61.3a20.8,20.8,0,0,1,2.59-10.36,18.9,18.9,0,0,1,7.09-7.23,19.79,19.79,0,0,1,10.13-2.62,24.54,24.54,0,0,1,6,.73,16.52,16.52,0,0,1,5,2.08l-1.52,8.73a21.1,21.1,0,0,0-7.32-1.52,9,9,0,0,0-6.92,2.62q-2.42,2.62-2.42,7.52t2.56,7.46a9.39,9.39,0,0,0,7.12,2.67,15,15,0,0,0,3.27-.34,23.67,23.67,0,0,0,3.72-1.24l1.58,8.89a20.77,20.77,0,0,1-10.7,2.87A19.92,19.92,0,0,1,290,78.9Z" transform="translate(-8.92 -8.72)"/><path class="cls-2" d="M299.91,41.1a24.54,24.54,0,0,1,6,.73,16.52,16.52,0,0,1,5,2.08l-1.52,8.73a21.1,21.1,0,0,0-7.32-1.52,9,9,0,0,0-6.92,2.62q-2.42,2.62-2.42,7.52t2.56,7.46a9.39,9.39,0,0,0,7.12,2.67,15,15,0,0,0,3.27-.34,23.67,23.67,0,0,0,3.72-1.24l1.58,8.89a20.77,20.77,0,0,1-10.7,2.87A19.92,19.92,0,0,1,290,78.9a19.68,19.68,0,0,1-7.26-7.32A20.22,20.22,0,0,1,280.1,61.3a20.8,20.8,0,0,1,2.59-10.36,18.9,18.9,0,0,1,7.09-7.23,19.79,19.79,0,0,1,10.13-2.62m0-2.56a22.41,22.41,0,0,0-11.42,3,21.51,21.51,0,0,0-8,8.2,23.43,23.43,0,0,0-2.92,11.61,22.84,22.84,0,0,0,3,11.55,22.3,22.3,0,0,0,8.19,8.25,22.54,22.54,0,0,0,11.51,3,23.4,23.4,0,0,0,12-3.22l1.54-.9-.31-1.76-1.58-8.89-.55-3.13-2.94,1.21a21.32,21.32,0,0,1-3.3,1.11,12.54,12.54,0,0,1-2.71.28,6.9,6.9,0,0,1-5.27-1.88c-1.24-1.3-1.85-3.16-1.85-5.69s.59-4.53,1.74-5.77a6.49,6.49,0,0,1,5-1.79A18.69,18.69,0,0,1,308.47,55l2.89,1.09.53-3,1.52-8.73.29-1.67-1.42-.92a19.14,19.14,0,0,0-5.78-2.42,27.23,27.23,0,0,0-6.59-.81Z" transform="translate(-8.92 -8.72)"/><path class="cls-1" d="M315.45,41.94h13.06V57.76h4.05L340,41.94h13v2.53l-8.89,16.66,10.19,17v2.53H340.67L332.34,65.3h-3.83V80.67H315.45Z" transform="translate(-8.92 -8.72)"/><path class="cls-2" d="M353.05,41.94v2.53l-8.89,16.66,10.19,17v2.53H340.67L332.34,65.3h-3.83V80.67H315.45V41.94h13.06V57.76h4.05L340,41.94h13m2.56-2.56H338.43l-.69,1.47-6.66,14.07V39.38H312.89V83.23h18.19V68.35l7.34,13.55.73,1.34h17.77V77.43l-.36-.61L347.1,61.06l8.21-15.38.3-.57V39.38Z" transform="translate(-8.92 -8.72)"/><path class="cls-1" d="M358.06,41.94h14q8.67,0,13.43,3.38a10.94,10.94,0,0,1,4.76,9.46,10.3,10.3,0,0,1-2.34,6.7,14.87,14.87,0,0,1-6.36,4.42,24.66,24.66,0,0,1-8.92,1.55h-2.36V80.67H358.06Zm19.2,16.44a4.25,4.25,0,0,0,1.63-3.6,4.12,4.12,0,0,0-1.6-3.55A7.75,7.75,0,0,0,372.64,50h-2.42V59.5a24.21,24.21,0,0,0,2.42.11A7.5,7.5,0,0,0,377.26,58.38Z" transform="translate(-8.92 -8.72)"/><path class="cls-2" d="M372,41.94q8.67,0,13.43,3.38a10.94,10.94,0,0,1,4.76,9.46,10.3,10.3,0,0,1-2.34,6.7,14.87,14.87,0,0,1-6.36,4.42,24.66,24.66,0,0,1-8.92,1.55h-2.36V80.67H358.06V41.94h14m.62,17.68a7.5,7.5,0,0,0,4.62-1.24,4.25,4.25,0,0,0,1.63-3.6,4.12,4.12,0,0,0-1.6-3.55A7.75,7.75,0,0,0,372.64,50h-2.42V59.5a24.21,24.21,0,0,0,2.42.11M372,39.38H355.5V83.23h17.29V70a27.23,27.23,0,0,0,9.64-1.72,17.45,17.45,0,0,0,7.43-5.19,12.85,12.85,0,0,0,2.91-8.32,14.45,14.45,0,0,0-1.46-6.56,13.63,13.63,0,0,0-4.37-5c-3.6-2.56-8.62-3.85-14.91-3.85Zm.76,17.68V52.61a5.12,5.12,0,0,1,3,.68c.18.13.56.41.56,1.48a1.71,1.71,0,0,1-.62,1.56,5.08,5.08,0,0,1-2.92.72Z" transform="translate(-8.92 -8.72)"/><path class="cls-1" d="M403.18,79a18.56,18.56,0,0,1-7.32-7.18,20.69,20.69,0,0,1-2.62-10.44,21,21,0,0,1,2.62-10.53,18.33,18.33,0,0,1,7.32-7.18,24,24,0,0,1,21.56,0,18.39,18.39,0,0,1,7.32,7.15,20.92,20.92,0,0,1,2.62,10.55,20.69,20.69,0,0,1-2.62,10.44A18.51,18.51,0,0,1,424.71,79a23.68,23.68,0,0,1-21.53,0Zm16.61-10.41a11,11,0,0,0,2.28-7.26A13,13,0,0,0,421,56a8.75,8.75,0,0,0-2.9-3.66A7.1,7.1,0,0,0,413.9,51a7,7,0,0,0-4.17,1.32A8.54,8.54,0,0,0,406.87,56a13.25,13.25,0,0,0-1,5.32,11.12,11.12,0,0,0,2.25,7.26,7.56,7.56,0,0,0,11.68,0Z" transform="translate(-8.92 -8.72)"/><path class="cls-2" d="M414,41.1a22.17,22.17,0,0,1,10.78,2.56,18.39,18.39,0,0,1,7.32,7.15,20.92,20.92,0,0,1,2.62,10.55,20.69,20.69,0,0,1-2.62,10.44A18.51,18.51,0,0,1,424.71,79a23.68,23.68,0,0,1-21.53,0,18.56,18.56,0,0,1-7.32-7.18,20.69,20.69,0,0,1-2.62-10.44,21,21,0,0,1,2.62-10.53,18.33,18.33,0,0,1,7.32-7.18A22.17,22.17,0,0,1,414,41.1m0,30.23a7.22,7.22,0,0,0,5.83-2.76,11,11,0,0,0,2.28-7.26A13,13,0,0,0,421,56a8.75,8.75,0,0,0-2.9-3.66A7.1,7.1,0,0,0,413.9,51a7,7,0,0,0-4.17,1.32A8.54,8.54,0,0,0,406.87,56a13.25,13.25,0,0,0-1,5.32,11.12,11.12,0,0,0,2.25,7.26A7.2,7.2,0,0,0,414,71.32m0-32.79a24.79,24.79,0,0,0-12,2.87,20.94,20.94,0,0,0-8.32,8.16,23.59,23.59,0,0,0-3,11.79,23.31,23.31,0,0,0,3,11.71,21.17,21.17,0,0,0,8.31,8.15,26.23,26.23,0,0,0,24,0,21.12,21.12,0,0,0,8.34-8.16,23.31,23.31,0,0,0,3-11.71,23.55,23.55,0,0,0-3-11.82A21,21,0,0,0,426,41.41a24.8,24.8,0,0,0-12-2.87Zm0,30.23a4.66,4.66,0,0,1-3.87-1.82,8.59,8.59,0,0,1-1.67-5.64,10.78,10.78,0,0,1,.8-4.3,6,6,0,0,1,2-2.59,4.47,4.47,0,0,1,2.68-.85,4.56,4.56,0,0,1,2.74.85,6.18,6.18,0,0,1,2,2.62,10.47,10.47,0,0,1,.82,4.28,8.5,8.5,0,0,1-1.69,5.63A4.68,4.68,0,0,1,414,68.76Z" transform="translate(-8.92 -8.72)"/><path class="cls-1" d="M444.42,50.5h-8.05V41.94h29.22V50.5h-8V80.67H444.42Z" transform="translate(-8.92 -8.72)"/><path class="cls-2" d="M465.58,41.94V50.5h-8V80.67H444.42V50.5h-8.05V41.94h29.22m2.56-2.56H433.8V53.06h8.05V83.23h18.24V53.06h8V39.38Z" transform="translate(-8.92 -8.72)"/><path class="cls-3" d="M71.25,72.11c-10.33,2.27-18.7-.74-23.92-7.8L71.61,59l-1.77-8-26.4,5.8a35.6,35.6,0,0,1-1-3.77c-.14-.64-.26-1.27-.36-1.9l26.55-5.83-1.77-8L41.71,42.7C42.82,32.23,50,25.29,60.56,23a33.54,33.54,0,0,1,13.78-.3l.55-10.4c-2.79-.75-9-1.18-17.07.6-17.11,3.76-28.59,16-29.21,32.71L11.82,49.27l1.77,8,15.56-3.42c.14.83.29,1.66.47,2.51.24,1.09.52,2.15.82,3.19L14.84,63l1.77,8,17-3.73c7.06,13.14,20.72,19.2,37.9,15.42,8.1-1.78,14.18-4.69,16.75-6.83l-4.13-9.27C81.24,68.87,76.25,71,71.25,72.11Z" transform="translate(-8.92 -8.72)"/><path class="cls-4" d="M68.65,11.62a25.25,25.25,0,0,1,6.23.65l-.55,10.4a30.69,30.69,0,0,0-6-.57,36.28,36.28,0,0,0-7.79.87C50,25.29,42.82,32.23,41.71,42.7l25.11-5.52,1.77,8L42,51.06c.11.63.22,1.26.36,1.9a35.6,35.6,0,0,0,1,3.77l26.4-5.8,1.77,8L47.33,64.31a20.82,20.82,0,0,0,17.39,8.54,30.47,30.47,0,0,0,6.53-.74c5-1.1,10-3.24,12.86-5.45l4.13,9.27c-2.57,2.14-8.65,5-16.75,6.83a45.42,45.42,0,0,1-9.74,1.11c-12.58,0-22.5-6-28.16-16.53l-17,3.73-1.77-8,15.61-3.43c-.3-1-.58-2.1-.82-3.19-.19-.84-.34-1.68-.47-2.51L13.59,57.31l-1.77-8,16.78-3.69c.62-16.74,12.1-29,29.21-32.71a51,51,0,0,1,10.83-1.25m0-2.9h0A53.67,53.67,0,0,0,57.19,10C39.24,14,27.41,26.59,25.85,43.21L11.2,46.43A2.9,2.9,0,0,0,9,49.89l1.77,8a2.9,2.9,0,0,0,3.46,2.21l12.65-2.78v0L14.22,60.18A2.9,2.9,0,0,0,12,63.64l1.77,8a2.9,2.9,0,0,0,3.46,2.21l14.9-3.27A33.21,33.21,0,0,0,43.6,82.05a35.14,35.14,0,0,0,18.15,4.71,48.48,48.48,0,0,0,10.36-1.17c7.47-1.64,14.53-4.56,18-7.43a2.9,2.9,0,0,0,.8-3.41l-4.13-9.27a2.9,2.9,0,0,0-4.42-1.12c-2.6,2-7.19,3.92-11.71,4.91a27.67,27.67,0,0,1-5.91.68A18.38,18.38,0,0,1,53,66l19.26-4.23a2.9,2.9,0,0,0,2.21-3.46l-1.77-8a2.9,2.9,0,0,0-3.46-2.21L45.46,53.32v0l23.75-5.22a2.9,2.9,0,0,0,2.21-3.46l-1.77-8a2.9,2.9,0,0,0-3.46-2.21L45.43,38.91C47.54,32.19,53,27.6,61.18,25.8A33.52,33.52,0,0,1,68.35,25a27.86,27.86,0,0,1,5.42.52,2.9,2.9,0,0,0,3.46-2.69l.55-10.4a2.9,2.9,0,0,0-2.14-3,28.33,28.33,0,0,0-7-.75Z" transform="translate(-8.92 -8.72)"/><path class="cls-3" d="M97.33,79.24a15.62,15.62,0,0,1-9-14.51V42.49h12.47V64.73a6.89,6.89,0,0,0,1.6,5,7.42,7.42,0,0,0,9.38,0,6.91,6.91,0,0,0,1.6-4.94V42.49h12.47V64.73a15.62,15.62,0,0,1-9,14.51,23.67,23.67,0,0,1-19.48,0Z" transform="translate(-8.92 -8.72)"/><path class="cls-2" d="M125.83,42.49V64.73a15.62,15.62,0,0,1-9,14.51,23.67,23.67,0,0,1-19.48,0,15.62,15.62,0,0,1-9-14.51V42.49h12.47V64.73a6.89,6.89,0,0,0,1.6,5,7.42,7.42,0,0,0,9.38,0,6.91,6.91,0,0,0,1.6-4.94V42.49h12.47m2.9-2.9H110.46V64.73a4.5,4.5,0,0,1-.8,2.94,3.5,3.5,0,0,1-2.59.78,3.56,3.56,0,0,1-2.6-.77,4.53,4.53,0,0,1-.78-2.95V39.58H85.41V64.73A18.52,18.52,0,0,0,96.05,81.85a26.56,26.56,0,0,0,22,0,18.52,18.52,0,0,0,10.65-17.12V39.58Z" transform="translate(-8.92 -8.72)"/><path class="cls-3" d="M146,71.73l-1.38-5.68H142v14.4H129.92v-38h16.72A23,23,0,0,1,155,43.89a12.81,12.81,0,0,1,5.6,3.95,9.23,9.23,0,0,1,2,5.85,10.41,10.41,0,0,1-1.79,6.21A12.72,12.72,0,0,1,155.25,64a38.93,38.93,0,0,0,.88,3.81A5.49,5.49,0,0,0,158,70.74a5.75,5.75,0,0,0,3.37.83,20.49,20.49,0,0,0,2.43-.22v9a14.14,14.14,0,0,1-5.08,1Q148.29,81.34,146,71.73ZM144.1,58.32q4.08,0,5.77-.91a3.25,3.25,0,0,0,1.68-3.12,3,3,0,0,0-1.38-2.73,8.54,8.54,0,0,0-4.36-.86H142v7.62Z" transform="translate(-8.92 -8.72)"/><path class="cls-2" d="M146.64,42.49A23,23,0,0,1,155,43.89a12.81,12.81,0,0,1,5.6,3.95,9.23,9.23,0,0,1,2,5.85,10.41,10.41,0,0,1-1.79,6.21A12.72,12.72,0,0,1,155.25,64a38.93,38.93,0,0,0,.88,3.81A5.49,5.49,0,0,0,158,70.74a5.75,5.75,0,0,0,3.37.83,20.49,20.49,0,0,0,2.43-.22v9a14.14,14.14,0,0,1-5.08,1q-10.38,0-12.69-9.6l-1.38-5.68H142v14.4H129.92v-38h16.72M142,58.32h2.1q4.08,0,5.77-.91a3.25,3.25,0,0,0,1.68-3.12,3,3,0,0,0-1.38-2.73,8.54,8.54,0,0,0-4.36-.86H142v7.62m4.64-18.74H127V83.36H144.9V77a13.49,13.49,0,0,0,3.65,4.24,16.37,16.37,0,0,0,10.11,3,17.09,17.09,0,0,0,6.11-1.19l1.86-.71V68l-3.29.44a17.33,17.33,0,0,1-2,.2,3.13,3.13,0,0,1-1.68-.29,2.87,2.87,0,0,1-.73-1.41q-.19-.65-.36-1.36a14.23,14.23,0,0,0,4.61-4,13.29,13.29,0,0,0,2.33-7.9,12.11,12.11,0,0,0-2.6-7.64,15.72,15.72,0,0,0-6.83-4.86,25.93,25.93,0,0,0-9.41-1.61Zm-1.73,14h.9a6.15,6.15,0,0,1,2.81.41,1.28,1.28,0,0,1,0,.27,1.19,1.19,0,0,1-.07.51h0l-.09.06a8.79,8.79,0,0,1-3.58.55v-1.8Z" transform="translate(-8.92 -8.72)"/><path class="cls-3" d="M177,78.8a18.19,18.19,0,0,1-7.17-7,20.29,20.29,0,0,1-2.57-10.24,20.55,20.55,0,0,1,2.57-10.32,18,18,0,0,1,7.17-7,23.49,23.49,0,0,1,21.14,0,18,18,0,0,1,7.17,7,20.51,20.51,0,0,1,2.57,10.35,20.29,20.29,0,0,1-2.57,10.24,18.15,18.15,0,0,1-7.2,7,23.21,23.21,0,0,1-21.11,0Zm16.28-10.21a10.81,10.81,0,0,0,2.24-7.12,12.69,12.69,0,0,0-1-5.21,8.58,8.58,0,0,0-2.84-3.59,7,7,0,0,0-4.14-1.3,6.88,6.88,0,0,0-4.08,1.3,8.38,8.38,0,0,0-2.81,3.59,13,13,0,0,0-1,5.21,10.9,10.9,0,0,0,2.21,7.12,7.41,7.41,0,0,0,11.45,0Z" transform="translate(-8.92 -8.72)"/><path class="cls-2" d="M187.56,41.66a21.73,21.73,0,0,1,10.57,2.51,18,18,0,0,1,7.17,7,20.51,20.51,0,0,1,2.57,10.35,20.29,20.29,0,0,1-2.57,10.24,18.15,18.15,0,0,1-7.2,7,23.21,23.21,0,0,1-21.11,0,18.19,18.19,0,0,1-7.17-7,20.29,20.29,0,0,1-2.57-10.24,20.55,20.55,0,0,1,2.57-10.32,18,18,0,0,1,7.17-7,21.73,21.73,0,0,1,10.57-2.51m0,29.63a7.08,7.08,0,0,0,5.71-2.7,10.81,10.81,0,0,0,2.24-7.12,12.69,12.69,0,0,0-1-5.21,8.58,8.58,0,0,0-2.84-3.59,7,7,0,0,0-4.14-1.3,6.88,6.88,0,0,0-4.08,1.3,8.38,8.38,0,0,0-2.81,3.59,13,13,0,0,0-1,5.21,10.9,10.9,0,0,0,2.21,7.12,7.06,7.06,0,0,0,5.74,2.7m0-32.54a24.69,24.69,0,0,0-12,2.86,20.91,20.91,0,0,0-8.31,8.15,23.51,23.51,0,0,0-2.94,11.75A23.24,23.24,0,0,0,167.3,73.2a21.14,21.14,0,0,0,8.3,8.14,26.1,26.1,0,0,0,23.9,0,21.09,21.09,0,0,0,8.33-8.14,23.24,23.24,0,0,0,2.95-11.68,23.47,23.47,0,0,0-2.95-11.79,21,21,0,0,0-8.31-8.12,24.7,24.7,0,0,0-12-2.87Zm0,29.63a4.15,4.15,0,0,1-3.49-1.64,8.06,8.06,0,0,1-1.55-5.28,10.18,10.18,0,0,1,.75-4.06A5.48,5.48,0,0,1,185.11,55a4,4,0,0,1,2.4-.76A4.09,4.09,0,0,1,190,55a5.68,5.68,0,0,1,1.87,2.4,9.88,9.88,0,0,1,.77,4A8,8,0,0,1,191,66.74a4.17,4.17,0,0,1-3.47,1.65Z" transform="translate(-8.92 -8.72)"/><path class="cls-3" d="M482.79,12.56c-4,14.84-6.65,16.49-21.23,14.85,14.13,4,15.94,6.46,14.11,21.73,4-14.84,6.65-16.49,21.23-14.85C482.78,30.34,481,27.83,482.79,12.56Z" transform="translate(-8.92 -8.72)"/><path class="cls-2" d="M476.64,49.41l-2-.38c1.76-14.67.38-16.79-13.39-20.65l.38-2c14.21,1.6,16.28.14,20.15-14.12l2,.38c-1.76,14.67-.38,16.79,13.39,20.65l-.38,2C482.58,33.69,480.51,35.15,476.64,49.41Zm-7.4-20.5c5.91,2.5,8,5.57,8,12.06,2.49-6,5.55-8.07,12-8.17-5.91-2.5-8-5.57-8-12.06C478.71,26.73,475.65,28.81,469.24,28.91Z" transform="translate(-8.92 -8.72)"/></svg>