<svg id="Layer_1" data-name="Layer 1" xmlns="http://www.w3.org/2000/svg" xmlns:xlink="http://www.w3.org/1999/xlink" viewBox="0 0 475.23 94.62"><defs><style>.cls-1{fill:url(#linear-gradient);}.cls-2{fill:url(#linear-gradient-2);}.cls-3{fill:url(#linear-gradient-3);}.cls-4{fill:url(#linear-gradient-4);}.cls-5{fill:url(#radial-gradient);}.cls-6{fill:url(#linear-gradient-5);}.cls-7{fill:url(#linear-gradient-6);}.cls-8{fill:url(#linear-gradient-7);}.cls-9{fill:url(#linear-gradient-8);}.cls-10{fill:url(#radial-gradient-2);}.cls-11{fill:url(#linear-gradient-9);}.cls-12{fill:url(#linear-gradient-10);}.cls-13{fill:url(#linear-gradient-11);}.cls-14{fill:url(#linear-gradient-12);}.cls-15{fill:url(#radial-gradient-3);}.cls-16{fill:url(#linear-gradient-13);}.cls-17{fill:url(#linear-gradient-14);}.cls-18{fill:url(#linear-gradient-15);}.cls-19{fill:url(#linear-gradient-16);}.cls-20{fill:url(#radial-gradient-4);}.cls-21{fill:none;}.cls-22{fill:url(#radial-gradient-5);}.cls-23{fill:url(#radial-gradient-9);}.cls-24{fill:url(#radial-gradient-17);}.cls-25{fill:url(#radial-gradient-25);}.cls-26{fill:url(#radial-gradient-28);}.cls-27{fill:url(#radial-gradient-31);}.cls-28{fill:url(#radial-gradient-35);}.cls-29{fill:url(#radial-gradient-41);}.cls-30{fill:url(#radial-gradient-47);}.cls-31{fill:url(#radial-gradient-50);}.cls-32{fill:url(#radial-gradient-53);}.cls-33{fill:url(#radial-gradient-59);}.cls-34{fill:url(#radial-gradient-66);}.cls-35{fill:url(#radial-gradient-67);}.cls-36{fill:url(#radial-gradient-68);}.cls-37{fill:url(#radial-gradient-71);}.cls-38{fill:url(#radial-gradient-73);}.cls-39{fill:url(#radial-gradient-74);}.cls-40{fill:url(#radial-gradient-75);}.cls-41{fill:#e4e4e4;stroke:#fcfcfc;stroke-miterlimit:10;}</style><linearGradient id="linear-gradient" x1="418.29" y1="416.48" x2="418.29" y2="370.12" gradientTransform="translate(402.97 -537.63) rotate(45.73)" gradientUnits="userSpaceOnUse"><stop offset="0" stop-color="#3212c9"/><stop offset="0.91" stop-color="#386eed"/><stop offset="1" stop-color="#3977f1"/></linearGradient><linearGradient id="linear-gradient-2" x1="167.98" y1="58.84" x2="223.79" y2="58.84" gradientTransform="translate(260.66 -33.38) rotate(8.87)" xlink:href="#linear-gradient"/><linearGradient id="linear-gradient-3" x1="148.36" y1="56.68" x2="188.74" y2="56.68" gradientTransform="translate(260.66 -33.38) rotate(8.87)" gradientUnits="userSpaceOnUse"><stop offset="0.45" stop-color="#3244c9"/><stop offset="0.55" stop-color="#3349cd"/><stop offset="0.66" stop-color="#3456d7"/><stop offset="0.77" stop-color="#376ce8"/><stop offset="0.82" stop-color="#3977f1"/></linearGradient><linearGradient id="linear-gradient-4" x1="463.41" y1="360.15" x2="440.67" y2="399.85" gradientTransform="translate(402.97 -537.63) rotate(45.73)" gradientUnits="userSpaceOnUse"><stop offset="0" stop-color="#3244c9"/><stop offset="0.28" stop-color="#3348cc"/><stop offset="0.56" stop-color="#3454d5"/><stop offset="0.83" stop-color="#3767e5"/><stop offset="1" stop-color="#3977f1"/></linearGradient><radialGradient id="radial-gradient" cx="436.29" cy="361.21" r="32.63" gradientTransform="translate(402.97 -537.63) rotate(45.73)" gradientUnits="userSpaceOnUse"><stop offset="0" stop-color="#50adf7"/><stop offset="0.19" stop-color="#489af5"/><stop offset="0.45" stop-color="#4087f3"/><stop offset="0.72" stop-color="#3b7cf2"/><stop offset="1" stop-color="#3978f2"/></radialGradient><linearGradient id="linear-gradient-5" x1="267.44" y1="-527.05" x2="267.44" y2="-558.19" gradientTransform="matrix(0.26, -0.96, -0.96, -0.26, -165.93, 193.84)" gradientUnits="userSpaceOnUse"><stop offset="0" stop-color="#7dc0fe"/><stop offset="1" stop-color="#6cb2fe"/></linearGradient><linearGradient id="linear-gradient-6" x1="299.27" y1="-544.31" x2="284.83" y2="-552.65" xlink:href="#linear-gradient-5"/><linearGradient id="linear-gradient-7" x1="280.63" y1="-538.93" x2="262.25" y2="-538.93" gradientTransform="matrix(0.26, -0.96, -0.96, -0.26, -165.93, 193.84)" gradientUnits="userSpaceOnUse"><stop offset="0" stop-color="#79e0ff"/><stop offset="0.01" stop-color="#78ddff"/><stop offset="0.12" stop-color="#73caff"/><stop offset="0.24" stop-color="#6fbcfe"/><stop offset="0.39" stop-color="#6db4fe"/><stop offset="0.67" stop-color="#6cb2fe"/></linearGradient><linearGradient id="linear-gradient-8" x1="297.75" y1="-564.89" x2="282.48" y2="-538.22" gradientTransform="matrix(0.26, -0.96, -0.96, -0.26, -165.93, 193.84)" gradientUnits="userSpaceOnUse"><stop offset="0.02" stop-color="#6cb2fe"/><stop offset="1" stop-color="#7dc0fe"/></linearGradient><radialGradient id="radial-gradient-2" cx="279.54" cy="-564.17" r="21.92" gradientTransform="matrix(0.26, -0.96, -0.96, -0.26, -165.93, 193.84)" gradientUnits="userSpaceOnUse"><stop offset="0.08" stop-color="#9bdefe"/><stop offset="0.42" stop-color="#92d5fe"/><stop offset="0.8" stop-color="#82c4fe"/></radialGradient><linearGradient id="linear-gradient-9" x1="461.81" y1="372.52" x2="461.81" y2="326.17" gradientTransform="matrix(-0.7, 0.72, 0.72, 0.7, 134.11, -537.63)" xlink:href="#linear-gradient"/><linearGradient id="linear-gradient-10" x1="229.16" y1="49.77" x2="284.98" y2="49.77" gradientTransform="matrix(-0.99, 0.15, 0.15, 0.99, 276.42, -33.38)" xlink:href="#linear-gradient"/><linearGradient id="linear-gradient-11" x1="209.55" y1="47.61" x2="249.93" y2="47.61" gradientTransform="matrix(-0.99, 0.15, 0.15, 0.99, 276.42, -33.38)" xlink:href="#linear-gradient-3"/><linearGradient id="linear-gradient-12" x1="506.93" y1="316.19" x2="484.19" y2="355.9" gradientTransform="matrix(-0.7, 0.72, 0.72, 0.7, 134.11, -537.63)" xlink:href="#linear-gradient-4"/><radialGradient id="radial-gradient-3" cx="479.81" cy="317.26" r="32.63" gradientTransform="matrix(-0.7, 0.72, 0.72, 0.7, 134.11, -537.63)" xlink:href="#radial-gradient"/><linearGradient id="linear-gradient-13" x1="280.81" y1="-581.15" x2="280.81" y2="-612.29" gradientTransform="translate(703.01 193.84) rotate(-105.24)" xlink:href="#linear-gradient-5"/><linearGradient id="linear-gradient-14" x1="312.63" y1="-598.42" x2="298.19" y2="-606.75" gradientTransform="translate(703.01 193.84) rotate(-105.24)" xlink:href="#linear-gradient-5"/><linearGradient id="linear-gradient-15" x1="293.99" y1="-593.03" x2="275.61" y2="-593.03" gradientTransform="translate(703.01 193.84) rotate(-105.24)" xlink:href="#linear-gradient-7"/><linearGradient id="linear-gradient-16" x1="311.11" y1="-618.99" x2="295.84" y2="-592.32" gradientTransform="translate(703.01 193.84) rotate(-105.24)" xlink:href="#linear-gradient-8"/><radialGradient id="radial-gradient-4" cx="292.9" cy="-618.27" r="21.92" gradientTransform="translate(703.01 193.84) rotate(-105.24)" xlink:href="#radial-gradient-2"/><radialGradient id="radial-gradient-5" cx="97.54" cy="55.62" r="22.48" gradientUnits="userSpaceOnUse"><stop offset="0" stop-color="#0f54eb"/><stop offset="0.94" stop-color="#0f40cd"/></radialGradient><radialGradient id="radial-gradient-9" cx="108.58" cy="55.97" r="23.52" xlink:href="#radial-gradient-5"/><radialGradient id="radial-gradient-17" cx="160.96" cy="55.42" r="24.5" xlink:href="#radial-gradient-5"/><radialGradient id="radial-gradient-25" cx="189.61" cy="55.57" r="25.19" xlink:href="#radial-gradient-5"/><radialGradient id="radial-gradient-28" cx="189.6" cy="55.57" r="25.19" xlink:href="#radial-gradient-5"/><radialGradient id="radial-gradient-31" cx="235.36" cy="55.62" r="26.13" xlink:href="#radial-gradient-5"/><radialGradient id="radial-gradient-35" cx="262.51" cy="55.62" r="19.36" xlink:href="#radial-gradient-5"/><radialGradient id="radial-gradient-41" cx="265.38" cy="55.62" r="22.18" xlink:href="#radial-gradient-5"/><radialGradient id="radial-gradient-47" cx="291.38" cy="55.62" r="22.18" xlink:href="#radial-gradient-5"/><radialGradient id="radial-gradient-50" cx="291.38" cy="55.62" r="22.18" xlink:href="#radial-gradient-5"/><radialGradient id="radial-gradient-53" cx="309.76" cy="55.62" r="19.36" xlink:href="#radial-gradient-5"/><radialGradient id="radial-gradient-59" cx="351.77" cy="55.57" r="25.19" xlink:href="#radial-gradient-5"/><radialGradient id="radial-gradient-66" cx="327.26" cy="55.61" r="19.37" xlink:href="#radial-gradient-5"/><radialGradient id="radial-gradient-67" cx="351.77" cy="55.61" r="25.15" xlink:href="#radial-gradient-5"/><radialGradient id="radial-gradient-68" cx="387.22" cy="55.62" r="23.67" xlink:href="#radial-gradient-5"/><radialGradient id="radial-gradient-71" cx="387.22" cy="55.63" r="23.67" xlink:href="#radial-gradient-5"/><radialGradient id="radial-gradient-73" cx="351.77" cy="55.61" r="25.17" xlink:href="#radial-gradient-5"/><radialGradient id="radial-gradient-74" cx="387.22" cy="55.61" r="23.68" xlink:href="#radial-gradient-5"/><radialGradient id="radial-gradient-75" cx="416.66" cy="55.57" r="23.45" xlink:href="#radial-gradient-5"/></defs><title>EuroMillions_AT_Lines_new</title><polygon class="cls-1" points="438.14 20.69 406.44 59.87 404.72 48.48 433.61 0 438.14 20.69"/><polygon class="cls-2" points="475.23 43.09 426.1 70.65 414.77 68.5 454.64 37.79 475.23 43.09"/><polygon class="cls-3" points="441.12 34.3 407.55 67.13 395.49 64.84 417.81 28.29 441.12 34.3"/><polygon class="cls-4" points="446.25 57.78 409.38 79.26 407.55 67.13 441.12 34.3 446.25 57.78"/><polygon class="cls-5" points="465.99 10.41 459.11 26.83 475.01 43.3 454.43 37.99 446.04 57.99 440.91 34.51 417.59 28.5 437.93 20.9 433.4 0.21 449.29 16.66 465.99 10.41"/><polygon class="cls-6" points="447.6 79.65 416.21 66.98 418.92 74.23 451.69 93.28 447.6 79.65"/><polygon class="cls-7" points="462.08 54.41 424.24 54.24 418.29 59.19 451.72 64.24 462.08 54.41"/><polygon class="cls-8" points="445.21 70.36 414.6 61.97 408.15 67.63 433.18 81.82 445.21 70.36"/><polygon class="cls-9" points="440.27 55.23 411.61 54.63 414.49 62.35 444.91 70.69 440.27 55.23"/><polygon class="cls-10" points="467.31 76.61 457.92 69.21 461.89 54.36 451.53 64.18 440.08 55.17 444.72 70.64 432.99 81.77 447.41 79.6 451.49 93.23 455.46 78.39 467.31 76.61"/><polygon class="cls-11" points="37.09 21.17 68.78 60.35 70.5 48.96 41.61 0.48 37.09 21.17"/><polygon class="cls-12" points="0 43.57 49.13 71.13 60.46 68.98 20.59 38.27 0 43.57"/><polygon class="cls-13" points="34.11 34.78 67.68 67.61 79.74 65.32 57.42 28.77 34.11 34.78"/><polygon class="cls-14" points="28.98 58.26 65.85 79.74 67.68 67.61 34.11 34.78 28.98 58.26"/><polygon class="cls-15" points="9.23 10.89 16.11 27.31 0.21 43.78 20.8 38.47 29.19 58.47 34.32 34.99 57.63 28.98 37.3 21.38 41.82 0.69 25.94 17.14 9.23 10.89"/><polygon class="cls-16" points="33.77 80.99 65.16 68.31 62.45 75.56 29.68 94.62 33.77 80.99"/><polygon class="cls-17" points="19.29 55.74 57.13 55.57 63.08 60.53 29.65 65.57 19.29 55.74"/><polygon class="cls-18" points="36.16 71.69 66.77 63.3 73.21 68.96 48.19 83.15 36.16 71.69"/><polygon class="cls-19" points="41.09 56.56 69.75 55.96 66.88 63.69 36.46 72.03 41.09 56.56"/><polygon class="cls-20" points="14.06 77.95 23.45 70.55 19.48 55.69 29.84 65.52 41.29 56.51 36.65 71.97 48.38 83.1 33.96 80.94 29.88 94.57 25.91 79.73 14.06 77.95"/><path class="cls-21" d="M132.42,59.18q0,4.18-1.77,5.92a6.27,6.27,0,0,1-4.6,1.74,7.89,7.89,0,0,1-2.56-.4,4.62,4.62,0,0,1-2-1.32,6.55,6.55,0,0,1-1.29-2.39,11.67,11.67,0,0,1-.47-3.56V38.39h-3.52V52.53h-1.74v6.19h2.88V71.36a13,13,0,0,0,2.32,1.17,17.36,17.36,0,0,0,6.27,1,18.33,18.33,0,0,0,6.37-1,11.58,11.58,0,0,0,4.43-2.81c.1-.11.19-.22.29-.33v-31h-4.61Z" transform="translate(-17.5)"/><path class="cls-21" d="M358.43,38.74a19.29,19.29,0,0,0-6.66-1.14,18.79,18.79,0,0,0-6.54,1.14,15.46,15.46,0,0,0-5.47,3.43c-.35.34-.69.71-1,1.09V68c.28.33.57.66.88,1a15.3,15.3,0,0,0,5.47,3.41,19.28,19.28,0,0,0,6.66,1.14,19.8,19.8,0,0,0,6.79-1.14A14.8,14.8,0,0,0,364,69c.28-.27.53-.57.78-.87v-25c-.28-.33-.57-.66-.88-1A15.18,15.18,0,0,0,358.43,38.74Zm1.86,21.43a10.45,10.45,0,0,1-1.79,3.5,7.86,7.86,0,0,1-2.88,2.26,9.8,9.8,0,0,1-7.73,0A7.9,7.9,0,0,1,345,63.68a10.43,10.43,0,0,1-1.79-3.5,17,17,0,0,1,0-9.12A10.44,10.44,0,0,1,345,47.52a8.16,8.16,0,0,1,2.86-2.29,8.77,8.77,0,0,1,3.88-.82,9.07,9.07,0,0,1,3.85.8,7.88,7.88,0,0,1,2.88,2.26A10.44,10.44,0,0,1,360.3,51a15.94,15.94,0,0,1,.62,4.6A15.7,15.7,0,0,1,360.3,60.17Z" transform="translate(-17.5)"/><path class="cls-21" d="M154.75,38q-2.14,0-4.85.2c-.71.05-1.41.13-2.1.22V59.82a25.19,25.19,0,0,1-1.24,8,19.59,19.59,0,0,1-1.91,4.08v1h7.76V60.27h3.83q1,1.19,2,2.66t2,3.11q1,1.64,2,3.38l1.92,3.43h6.5a24.12,24.12,0,0,1-4-6.64,26.3,26.3,0,0,1-1.59-6.34c-.28-.38-.56-.75-.84-1.09.23-.1.43-.21.65-.31q-.12-1.4-.12-2.87a27.83,27.83,0,0,1,2-10.7,26.16,26.16,0,0,1,1.39-2.81,9.23,9.23,0,0,0-1.56-1.33Q162.5,38,154.75,38Zm6.12,15q-1.89,1.1-6.27,1.09h-2.19V44.76l1.27-.1q.67,0,1.52,0a11.83,11.83,0,0,1,5.64,1.07,3.79,3.79,0,0,1,1.91,3.6A4,4,0,0,1,160.86,53Z" transform="translate(-17.5)"/><path class="cls-21" d="M411.54,56.77q1.69.77,3.38,1.37a22.81,22.81,0,0,1,5.47,2.41A3.34,3.34,0,0,1,422,63.35a4,4,0,0,1-.25,1.44,2.5,2.5,0,0,1-.9,1.12,5,5,0,0,1-1.72.75,11.17,11.17,0,0,1-2.71.27,19.72,19.72,0,0,1-5.54-.67c-.42-.13-.82-.26-1.21-.39v6.88c.79.2,1.65.37,2.62.52a28.31,28.31,0,0,0,4.13.27q6.81,0,10.19-2.66A9,9,0,0,0,430,63.4a12.2,12.2,0,0,0-.65-4.23,8.21,8.21,0,0,0-2-3,12.5,12.5,0,0,0-3.31-2.26q-2-1-4.67-2Q418.1,51.47,417,51a11.13,11.13,0,0,1-1.89-.95,4.33,4.33,0,0,1-1.27-1.17,2.72,2.72,0,0,1-.45-1.59A2.6,2.6,0,0,1,414.65,45a7.8,7.8,0,0,1,4-.77,13.91,13.91,0,0,1,4.25.57,21.35,21.35,0,0,1,3.21,1.32L428.35,40a21.07,21.07,0,0,0-10.19-2.39,17.86,17.86,0,0,0-5.27.72,12.13,12.13,0,0,0-3.22,1.51V55.69A12.73,12.73,0,0,0,411.54,56.77Z" transform="translate(-17.5)"/><path class="cls-21" d="M394.33,58.73q-1.79-2.69-3.83-5.59t-4.1-5.62q-2.06-2.71-4.05-5.1t-3.63-4h-6.32v2.24A25.22,25.22,0,0,1,374.66,45a28.49,28.49,0,0,1,1.89,10.61,28.86,28.86,0,0,1-1.84,10.57,25.17,25.17,0,0,1-2.29,4.5v2.19h7.66V50.28a118.78,118.78,0,0,1,8.25,10.89q3.88,5.77,7.21,11.69h.58l1.59-4.49,2.19-6.17,1.41-4a17.28,17.28,0,0,1-1.77-2.79,16.43,16.43,0,0,1-1.67-7.5,17.64,17.64,0,0,1,1.61-7.53,17,17,0,0,1,1.14-2h-6.27Z" transform="translate(-17.5)"/><path class="cls-21" d="M85.33,72.85h22.8a19.23,19.23,0,0,1-2.57-5.12c-.15-.46-.27-.93-.39-1.4H93.09V58h11.28V51.67H93.09V44.91h11.28V38.39h-19Z" transform="translate(-17.5)"/><path class="cls-21" d="M175.23,59.74q-.25.34-.51.66l.51.82c.83,1.35,1.64,2.76,2.4,4.2s1.45,2.81,2.1,4.17l.8,1.68a15.83,15.83,0,0,0,2.41,1.14,19.29,19.29,0,0,0,6.66,1.14,19.79,19.79,0,0,0,6.79-1.14A14.8,14.8,0,0,0,201.84,69a16,16,0,0,0,3.61-5.62,21.23,21.23,0,0,0,1.32-7.78,20.86,20.86,0,0,0-1.34-7.78,16.19,16.19,0,0,0-3.68-5.64,15.18,15.18,0,0,0-5.47-3.43,19.28,19.28,0,0,0-6.66-1.14,18.79,18.79,0,0,0-6.54,1.14,15.45,15.45,0,0,0-5.47,3.43c-.12.12-.22.25-.34.37a19.84,19.84,0,0,1,1.12,6.8A17.15,17.15,0,0,1,175.23,59.74ZM181.08,51a10.43,10.43,0,0,1,1.79-3.53,8.17,8.17,0,0,1,2.86-2.29,8.77,8.77,0,0,1,3.88-.82,9.07,9.07,0,0,1,3.85.8,7.88,7.88,0,0,1,2.88,2.26A10.45,10.45,0,0,1,198.13,51a15.92,15.92,0,0,1,.62,4.6,15.68,15.68,0,0,1-.62,4.58,10.46,10.46,0,0,1-1.79,3.5,7.86,7.86,0,0,1-2.88,2.26,9.8,9.8,0,0,1-7.73,0,7.91,7.91,0,0,1-2.86-2.26,10.42,10.42,0,0,1-1.79-3.5,17,17,0,0,1,0-9.12Z" transform="translate(-17.5)"/><polygon class="cls-21" points="261.62 38.39 256.51 38.39 256.51 72.85 272.25 72.85 272.25 66.19 261.62 66.19 261.62 38.39"/><path class="cls-21" d="M328,63.58v9.27h3.12V70.56a25,25,0,0,1-2.25-4.35A24.41,24.41,0,0,1,328,63.58Z" transform="translate(-17.5)"/><path class="cls-21" d="M260.47,45.32c.29,2.9.54,5.95.76,9.07s.42,6.19.6,9.31.34,6,.48,8.78l0,.37h1.41V38.39h-4.08C260,40.51,260.23,42.83,260.47,45.32Z" transform="translate(-17.5)"/><polygon class="cls-21" points="287.63 38.39 279.87 38.39 279.87 58.57 284.51 58.57 284.51 66.19 284.51 72.85 298.26 72.85 298.26 66.19 287.63 66.19 287.63 38.39"/><path class="cls-21" d="M242.84,42.44q-1.17,2.41-2.44,5.22t-2.52,5.74l-2.34,5.52-2.34-5.52q-1.25-2.93-2.52-5.74t-2.44-5.22q-1.17-2.41-2.07-4.05h-7.41q-.5,3.43-.92,7.68t-.75,8.85q-.32,4.6-.6,9.22t-.47,8.7h7.56q.15-5,.4-10.94T224.72,50l2,4.62q1.1,2.54,2.17,5.07T231,64.52l1.7,4h5.42q.7-1.64,1.7-4t2.07-4.85q1.07-2.54,2.17-5.07L246,50q.5,6,.75,11.93t.4,10.94H251V38.39h-6.1Q244,40,242.84,42.44Z" transform="translate(-17.5)"/><path class="cls-21" d="M323.38,38.39V58.57h3.75c-.09-1-.13-2-.13-3a27.8,27.8,0,0,1,2-10.7,25.64,25.64,0,0,1,2.17-4.11V38.39Z" transform="translate(-17.5)"/><path class="cls-22" d="M93.09,66.34h12.08a26.08,26.08,0,0,1-.81-6.51V58H93.09Z" transform="translate(-17.5)"/><path class="cls-22" d="M117.37,58.72h-2.88V52.53h1.74V38.39H112V59.82a17.78,17.78,0,0,0,.82,5.54,11.32,11.32,0,0,0,2.54,4.33,10.74,10.74,0,0,0,2,1.66V58.72Z" transform="translate(-17.5)"/><path class="cls-22" d="M109.8,74.93a18.51,18.51,0,0,1-1.67-2.08H85.33V38.39h19V30.77H77.71v49.7h39.65v-.7l-.42-.14A19.27,19.27,0,0,1,109.8,74.93Z" transform="translate(-17.5)"/><rect class="cls-22" x="75.59" y="44.91" width="11.28" height="6.76"/><rect class="cls-23" x="86.86" y="38.39" width="4.24" height="6.51"/><rect class="cls-23" x="86.86" y="51.67" width="2.5" height="6.37"/><path class="cls-23" d="M119.74,38.39V59.18a11.67,11.67,0,0,0,.47,3.56,6.55,6.55,0,0,0,1.29,2.39,4.62,4.62,0,0,0,2,1.32,7.89,7.89,0,0,0,2.56.4,6.27,6.27,0,0,0,4.6-1.74q1.77-1.74,1.77-5.92V38.39H137V32.61l6.16-1.2c1.43-.28,2.92-.48,4.42-.64H116.22v7.62Z" transform="translate(-17.5)"/><path class="cls-23" d="M137,69.41c-.1.11-.18.23-.29.33a11.58,11.58,0,0,1-4.43,2.81,18.33,18.33,0,0,1-6.37,1,17.36,17.36,0,0,1-6.27-1,13,13,0,0,1-2.32-1.17v8.42A25.22,25.22,0,0,0,126,81.17a25.94,25.94,0,0,0,9-1.47,21.32,21.32,0,0,0,2.06-.89v-9.4Z" transform="translate(-17.5)"/><path class="cls-23" d="M147.8,59.82V38.41c-1.07.13-2.12.28-3.14.48v33a19.59,19.59,0,0,0,1.91-4.08A25.19,25.19,0,0,0,147.8,59.82Z" transform="translate(-17.5)"/><path class="cls-23" d="M108.13,72.85h1.61V66.34h-4.58c.12.47.24.94.39,1.4A19.23,19.23,0,0,0,108.13,72.85Z" transform="translate(-17.5)"/><path class="cls-22" d="M117.37,71.36a10.74,10.74,0,0,1-2-1.66,11.32,11.32,0,0,1-2.54-4.33,17.78,17.78,0,0,1-.82-5.54V38.39h4.24V30.77H104.36v7.62h4.24v6.51h-4.24v6.76h2.5V58h-2.5v1.79a26.08,26.08,0,0,0,.81,6.51h4.58v6.51h-1.61a18.51,18.51,0,0,0,1.67,2.08,19.27,19.27,0,0,0,7.14,4.71l.42.14V71.36Z" transform="translate(-17.5)"/><path class="cls-23" d="M117.37,71.36a10.74,10.74,0,0,1-2-1.66,11.32,11.32,0,0,1-2.54-4.33,17.78,17.78,0,0,1-.82-5.54V38.39h4.24V30.77H104.36v7.62h4.24v6.51h-4.24v6.76h2.5V58h-2.5v1.79a26.08,26.08,0,0,0,.81,6.51h4.58v6.51h-1.61a18.51,18.51,0,0,0,1.67,2.08,19.27,19.27,0,0,0,7.14,4.71l.42.14V71.36Z" transform="translate(-17.5)"/><path class="cls-24" d="M165.13,59.86c-.06-.47-.14-.92-.18-1.4-.22.1-.42.22-.65.31C164.57,59.12,164.85,59.49,165.13,59.86Z" transform="translate(-17.5)"/><path class="cls-24" d="M147.8,38.39v0c.69-.08,1.39-.16,2.1-.22q2.71-.2,4.85-.2,7.76,0,11.88,2.76a9.23,9.23,0,0,1,1.56,1.33,23.49,23.49,0,0,1,4.1-5.39c.22-.21.46-.4.69-.6a17.41,17.41,0,0,0-2.12-1.67c-4.07-2.72-9.34-4-16.12-4-1.6,0-3.42.07-5.41.22-.58,0-1.16.12-1.73.18h.19Z" transform="translate(-17.5)"/><path class="cls-24" d="M172.17,74.47a22,22,0,0,1-1.5-1.62h-6.5l-1.92-3.43q-1-1.74-2-3.38t-2-3.11q-1-1.47-2-2.66h-3.83V72.85h-7.76v-1A18.19,18.19,0,0,1,137,78.81v1.66h46.48a26.07,26.07,0,0,1-3.18-.91A23,23,0,0,1,172.17,74.47Z" transform="translate(-17.5)"/><path class="cls-24" d="M137,69.41a11.45,11.45,0,0,0,2.3-4,17.52,17.52,0,0,0,.85-5.57V38.39H137v31Z" transform="translate(-17.5)"/><path class="cls-24" d="M160.84,45.68a11.83,11.83,0,0,0-5.64-1.07q-.85,0-1.52,0l-1.27.1v9.35h2.19q4.37,0,6.27-1.09a4,4,0,0,0,1.89-3.73A3.79,3.79,0,0,0,160.84,45.68Z" transform="translate(-17.5)"/><path class="cls-24" d="M172.45,55.6a20.85,20.85,0,0,0,1.34,7.78A15.92,15.92,0,0,0,177.47,69a15.13,15.13,0,0,0,3.06,2.27l-.8-1.68c-.64-1.36-1.35-2.76-2.1-4.17s-1.57-2.85-2.4-4.2l-.51-.82q.26-.32.51-.66a17.15,17.15,0,0,0,3.15-10.41,19.84,19.84,0,0,0-1.12-6.8,16.71,16.71,0,0,0-3.42,5.28A20.2,20.2,0,0,0,172.45,55.6Z" transform="translate(-17.5)"/><path class="cls-23" d="M144.65,71.88v-33c1-.2,2.08-.35,3.14-.48V30.77h-.19c-1.5.16-3,.36-4.42.64L137,32.61v5.78h3.14V59.82a17.52,17.52,0,0,1-.85,5.57,11.45,11.45,0,0,1-2.3,4v9.4a18.19,18.19,0,0,0,7.62-6.92Z" transform="translate(-17.5)"/><path class="cls-24" d="M144.65,71.88v-33c1-.2,2.08-.35,3.14-.48V30.77h-.19c-1.5.16-3,.36-4.42.64L137,32.61v5.78h3.14V59.82a17.52,17.52,0,0,1-.85,5.57,11.45,11.45,0,0,1-2.3,4v9.4a18.19,18.19,0,0,0,7.62-6.92Z" transform="translate(-17.5)"/><path class="cls-25" d="M164.83,55.6q0,1.47.12,2.87a10.65,10.65,0,0,0,4.14-3.24,9.7,9.7,0,0,0,1.67-5.89,10.08,10.08,0,0,0-2.57-7.25,26.16,26.16,0,0,0-1.39,2.81A27.83,27.83,0,0,0,164.83,55.6Z" transform="translate(-17.5)"/><path class="cls-25" d="M208.89,63.7c.18-3.11.39-6.25.6-9.31s.48-6.17.76-9.07q.2-2.05.43-3.94a22.38,22.38,0,0,0-11.8-9.8A27,27,0,0,0,189.61,30a26.46,26.46,0,0,0-9.17,1.61,23.08,23.08,0,0,0-7.45,4.5,16.13,16.13,0,0,1,4.27,6.44c.12-.12.22-.25.34-.37a15.45,15.45,0,0,1,5.47-3.43,18.79,18.79,0,0,1,6.54-1.14,19.28,19.28,0,0,1,6.66,1.14,15.18,15.18,0,0,1,5.47,3.43,16.19,16.19,0,0,1,3.68,5.64,20.86,20.86,0,0,1,1.34,7.78,21.23,21.23,0,0,1-1.32,7.78A16,16,0,0,1,201.84,69a14.8,14.8,0,0,1-5.45,3.41,19.79,19.79,0,0,1-6.79,1.14,19.29,19.29,0,0,1-6.66-1.14,15.83,15.83,0,0,1-2.41-1.14l4.36,9.2h-1.38a27.8,27.8,0,0,0,15.48-.9,22.44,22.44,0,0,0,8.21-5.15c.42-.41.8-.86,1.18-1.31l0-.63C208.54,69.78,208.7,66.83,208.89,63.7Z" transform="translate(-17.5)"/><path class="cls-25" d="M170.67,72.85h2.17Q172,71,170.91,69t-2.16-3.78q-1.12-1.81-2.26-3.48c-.46-.68-.91-1.29-1.35-1.87a26.3,26.3,0,0,0,1.59,6.34A24.12,24.12,0,0,0,170.67,72.85Z" transform="translate(-17.5)"/><path class="cls-26" d="M182.87,63.68a7.91,7.91,0,0,0,2.86,2.26,9.8,9.8,0,0,0,7.73,0,7.86,7.86,0,0,0,2.88-2.26,10.46,10.46,0,0,0,1.79-3.5,15.68,15.68,0,0,0,.62-4.58,15.92,15.92,0,0,0-.62-4.6,10.45,10.45,0,0,0-1.79-3.53,7.88,7.88,0,0,0-2.88-2.26,9.07,9.07,0,0,0-3.85-.8,8.77,8.77,0,0,0-3.88.82,8.17,8.17,0,0,0-2.86,2.29A10.43,10.43,0,0,0,181.08,51a17,17,0,0,0,0,9.12A10.42,10.42,0,0,0,182.87,63.68Zm7-13.8c2.38,0,4.32,2.66,4.32,5.94s-1.93,5.94-4.32,5.94-4.32-2.66-4.32-5.94S187.44,49.88,189.83,49.88Z" transform="translate(-17.5)"/><path class="cls-24" d="M180.53,71.27A15.13,15.13,0,0,1,177.47,69a15.92,15.92,0,0,1-3.68-5.62,20.85,20.85,0,0,1-1.34-7.78,20.2,20.2,0,0,1,1.39-7.78,16.71,16.71,0,0,1,3.42-5.28A16.13,16.13,0,0,0,173,36.09c-.23.2-.47.39-.69.6a23.49,23.49,0,0,0-4.1,5.39,10.08,10.08,0,0,1,2.57,7.25,9.7,9.7,0,0,1-1.67,5.89,10.65,10.65,0,0,1-4.14,3.24c0,.48.12.93.18,1.4.44.58.89,1.2,1.35,1.87q1.14,1.67,2.26,3.48T170.91,69q1,2,1.94,3.85h-2.17a22,22,0,0,0,1.5,1.62,23,23,0,0,0,8.16,5.09,26.07,26.07,0,0,0,3.18.91h1.38Z" transform="translate(-17.5)"/><path class="cls-25" d="M180.53,71.27A15.13,15.13,0,0,1,177.47,69a15.92,15.92,0,0,1-3.68-5.62,20.85,20.85,0,0,1-1.34-7.78,20.2,20.2,0,0,1,1.39-7.78,16.71,16.71,0,0,1,3.42-5.28A16.13,16.13,0,0,0,173,36.09c-.23.2-.47.39-.69.6a23.49,23.49,0,0,0-4.1,5.39,10.08,10.08,0,0,1,2.57,7.25,9.7,9.7,0,0,1-1.67,5.89,10.65,10.65,0,0,1-4.14,3.24c0,.48.12.93.18,1.4.44.58.89,1.2,1.35,1.87q1.14,1.67,2.26,3.48T170.91,69q1,2,1.94,3.85h-2.17a22,22,0,0,0,1.5,1.62,23,23,0,0,0,8.16,5.09,26.07,26.07,0,0,0,3.18.91h1.38Z" transform="translate(-17.5)"/><path class="cls-27" d="M247.15,72.85q-.15-5-.4-10.94T246,50l-2,4.62q-1.1,2.54-2.17,5.07t-2.07,4.85q-1,2.31-1.7,4h-5.42l-1.7-4q-1-2.31-2.07-4.85t-2.17-5.07l-2-4.62q-.5,6-.75,11.93t-.4,10.94H216q.2-4.08.47-8.7t.6-9.22q.32-4.6.75-8.85t.92-7.68h7.41q.9,1.64,2.07,4.05t2.44,5.22q1.27,2.81,2.52,5.74l2.34,5.52,2.34-5.52q1.25-2.93,2.52-5.74t2.44-5.22Q244,40,244.91,38.39H251V30.77H240.39l-2.17,4c-.65,1.2-1.41,2.67-2.24,4.38l-.45.93-.45-.93c-.85-1.76-1.59-3.19-2.24-4.38l-2.17-4H212.16l-.95,6.53c-.19,1.28-.36,2.64-.53,4.08A25.4,25.4,0,0,1,212.49,45a28.49,28.49,0,0,1,1.89,10.61,28.87,28.87,0,0,1-1.85,10.57,24.1,24.1,0,0,1-4.16,6.94L208,80.47h23l.13-4.38h8.52l.13,4.38H251V72.85Z" transform="translate(-17.5)"/><path class="cls-27" d="M261.84,63.7c-.18-3.12-.39-6.25-.6-9.31s-.48-6.17-.76-9.07c-.25-2.5-.52-4.81-.81-6.93h-1V72.85h3.7l0-.37C262.18,69.75,262,66.79,261.84,63.7Z" transform="translate(-17.5)"/><path class="cls-25" d="M214.38,55.6A28.49,28.49,0,0,0,212.49,45a25.4,25.4,0,0,0-1.81-3.61q-.22,1.89-.43,3.94c-.29,2.9-.55,5.95-.76,9.07s-.42,6.2-.6,9.31-.35,6.08-.48,8.78l0,.63a24.1,24.1,0,0,0,4.16-6.94A28.87,28.87,0,0,0,214.38,55.6Z" transform="translate(-17.5)"/><path class="cls-27" d="M214.38,55.6A28.49,28.49,0,0,0,212.49,45a25.4,25.4,0,0,0-1.81-3.61q-.22,1.89-.43,3.94c-.29,2.9-.55,5.95-.76,9.07s-.42,6.2-.6,9.31-.35,6.08-.48,8.78l0,.63a24.1,24.1,0,0,0,4.16-6.94A28.87,28.87,0,0,0,214.38,55.6Z" transform="translate(-17.5)"/><path class="cls-28" d="M259.66,38.39h4.08V30.77h-5.18l.94,6.53C259.56,37.65,259.61,38,259.66,38.39Z" transform="translate(-17.5)"/><rect class="cls-28" x="253.86" y="38.39" width="2.65" height="34.46"/><path class="cls-28" d="M254.71,72.85q-.2-4.08-.47-8.7t-.6-9.22q-.32-4.6-.75-8.85T252,38.39h-1V72.85Z" transform="translate(-17.5)"/><polygon class="cls-28" points="244.84 72.85 245.21 80.47 246.25 80.47 246.25 72.85 244.84 72.85"/><path class="cls-27" d="M258.63,72.85V38.39h1c0-.37-.1-.74-.15-1.09l-.94-6.53H251v7.62h1q.5,3.43.92,7.68t.75,8.85q.32,4.6.6,9.22t.47,8.7H251v7.62h11.69l-.37-7.62Z" transform="translate(-17.5)"/><path class="cls-28" d="M258.63,72.85V38.39h1c0-.37-.1-.74-.15-1.09l-.94-6.53H251v7.62h1q.5,3.43.92,7.68t.75,8.85q.32,4.6.6,9.22t.47,8.7H251v7.62h11.69l-.37-7.62Z" transform="translate(-17.5)"/><rect class="cls-29" x="246.25" y="38.39" width="2.65" height="34.46"/><rect class="cls-29" x="256.51" y="72.85" width="15.74" height="7.62"/><polygon class="cls-29" points="261.62 38.39 261.62 66.19 272.25 66.19 272.25 58.57 269.24 58.57 269.24 38.39 269.24 30.77 261.62 30.77 256.51 30.77 256.51 38.39 261.62 38.39"/><polygon class="cls-29" points="284.51 58.57 279.87 58.57 279.87 72.85 284.51 72.85 284.51 66.19 284.51 58.57"/><polygon class="cls-28" points="253.87 72.85 253.87 38.39 256.51 38.39 256.51 30.77 253.87 30.77 248.89 30.77 246.25 30.77 246.25 38.39 248.89 38.39 248.89 72.85 246.25 72.85 246.25 80.47 248.89 80.47 253.87 80.47 256.51 80.47 256.51 72.85 253.87 72.85"/><polygon class="cls-29" points="253.87 72.85 253.87 38.39 256.51 38.39 256.51 30.77 253.87 30.77 248.89 30.77 246.25 30.77 246.25 38.39 248.89 38.39 248.89 72.85 246.25 72.85 246.25 80.47 248.89 80.47 253.87 80.47 256.51 80.47 256.51 72.85 253.87 72.85"/><rect class="cls-30" x="272.25" y="66.19" width="4.64" height="6.66"/><polygon class="cls-30" points="279.87 58.57 279.87 38.39 287.63 38.39 287.63 66.19 298.26 66.19 298.26 58.57 295.25 58.57 295.25 38.39 295.25 30.77 287.63 30.77 279.87 30.77 272.25 30.77 272.25 38.39 272.25 58.57 276.89 58.57 279.87 58.57"/><path class="cls-30" d="M328,63.58a28.46,28.46,0,0,1-.89-5h-3.75V72.85H328V63.58Z" transform="translate(-17.5)"/><rect class="cls-31" x="284.51" y="72.85" width="13.75" height="7.62"/><polygon class="cls-29" points="279.87 72.85 279.87 58.57 276.89 58.57 272.25 58.57 272.25 66.19 276.89 66.19 276.89 72.85 272.25 72.85 272.25 80.47 276.89 80.47 279.87 80.47 284.51 80.47 284.51 72.85 279.87 72.85"/><polygon class="cls-30" points="279.87 72.85 279.87 58.57 276.89 58.57 272.25 58.57 272.25 66.19 276.89 66.19 276.89 72.85 272.25 72.85 272.25 80.47 276.89 80.47 279.87 80.47 284.51 80.47 284.51 72.85 279.87 72.85"/><rect class="cls-32" x="298.26" y="66.19" width="4.64" height="6.66"/><path class="cls-32" d="M336,47.81a20.18,20.18,0,0,0-1.39,7.78A20.85,20.85,0,0,0,336,63.38a16.38,16.38,0,0,0,2.8,4.66V43.26A17.1,17.1,0,0,0,336,47.81Z" transform="translate(-17.5)"/><path class="cls-32" d="M323.38,58.57V38.39h7.76v2.39a22.33,22.33,0,0,1,7.62-7.35V30.77h-23v27.8h7.62Z" transform="translate(-17.5)"/><path class="cls-32" d="M331.13,70.56v2.29H328v7.62h10.74V77.78a22.72,22.72,0,0,1-4.41-3.31A22.42,22.42,0,0,1,331.13,70.56Z" transform="translate(-17.5)"/><polygon class="cls-30" points="305.88 72.85 305.88 58.57 302.89 58.57 298.26 58.57 298.26 66.19 302.89 66.19 302.89 72.85 298.26 72.85 298.26 80.47 302.89 80.47 305.88 80.47 310.51 80.47 310.51 72.85 305.88 72.85"/><polygon class="cls-32" points="305.88 72.85 305.88 58.57 302.89 58.57 298.26 58.57 298.26 66.19 302.89 66.19 302.89 72.85 298.26 72.85 298.26 80.47 302.89 80.47 305.88 80.47 310.51 80.47 310.51 72.85 305.88 72.85"/><path class="cls-33" d="M358.51,47.47a7.88,7.88,0,0,0-2.88-2.26,9.07,9.07,0,0,0-3.85-.8,8.77,8.77,0,0,0-3.88.82A8.16,8.16,0,0,0,345,47.52,10.44,10.44,0,0,0,343.24,51a17,17,0,0,0,0,9.12,10.43,10.43,0,0,0,1.79,3.5,7.9,7.9,0,0,0,2.86,2.26,9.8,9.8,0,0,0,7.73,0,7.86,7.86,0,0,0,2.88-2.26,10.45,10.45,0,0,0,1.79-3.5,15.7,15.7,0,0,0,.62-4.58,15.94,15.94,0,0,0-.62-4.6A10.44,10.44,0,0,0,358.51,47.47Zm-6.95,13.71c-2.3,0-4.17-2.57-4.17-5.73s1.87-5.73,4.17-5.73,4.17,2.57,4.17,5.73S353.86,61.18,351.56,61.18Z" transform="translate(-17.5)"/><path class="cls-33" d="M376.55,55.6A28.49,28.49,0,0,0,374.66,45a25.22,25.22,0,0,0-2.25-4.36v30a25.17,25.17,0,0,0,2.29-4.5A28.86,28.86,0,0,0,376.55,55.6Z" transform="translate(-17.5)"/><path class="cls-33" d="M364.79,68.13c-.25.3-.51.6-.78.87a14.8,14.8,0,0,1-5.44,3.41,19.8,19.8,0,0,1-6.79,1.14,19.28,19.28,0,0,1-6.66-1.14A15.3,15.3,0,0,1,339.64,69c-.31-.3-.6-.63-.88-1v9.74a23.4,23.4,0,0,0,3.74,1.78,27,27,0,0,0,9.27,1.61,27.48,27.48,0,0,0,9.38-1.6,23.14,23.14,0,0,0,3.63-1.71V68.13Z" transform="translate(-17.5)"/><path class="cls-33" d="M338.75,43.26c.32-.38.65-.75,1-1.09a15.46,15.46,0,0,1,5.47-3.43,18.79,18.79,0,0,1,6.54-1.14,19.29,19.29,0,0,1,6.66,1.14,15.18,15.18,0,0,1,5.47,3.43c.31.3.6.63.88,1V33.37A23.19,23.19,0,0,0,361,31.58,27,27,0,0,0,351.77,30a26.47,26.47,0,0,0-9.17,1.61,23.35,23.35,0,0,0-3.85,1.85v9.82Z" transform="translate(-17.5)"/><path class="cls-33" d="M327,55.6c0,1,0,2,.13,3H328v5a24.41,24.41,0,0,0,.87,2.63,25,25,0,0,0,2.25,4.35V40.79A25.64,25.64,0,0,0,329,44.9,27.8,27.8,0,0,0,327,55.6Z" transform="translate(-17.5)"/><path class="cls-30" d="M328,58.57h-.89a28.46,28.46,0,0,0,.89,5Z" transform="translate(-17.5)"/><path class="cls-33" d="M328,58.57h-.89a28.46,28.46,0,0,0,.89,5Z" transform="translate(-17.5)"/><path class="cls-34" d="M338.75,68a16.38,16.38,0,0,1-2.8-4.66,20.85,20.85,0,0,1-1.34-7.78A20.18,20.18,0,0,1,336,47.81a17.1,17.1,0,0,1,2.75-4.56V33.44a22.33,22.33,0,0,0-7.62,7.35V70.56a22.42,22.42,0,0,0,3.21,3.92,22.72,22.72,0,0,0,4.41,3.31V68Z" transform="translate(-17.5)"/><path class="cls-35" d="M338.75,68a16.38,16.38,0,0,1-2.8-4.66,20.85,20.85,0,0,1-1.34-7.78A20.18,20.18,0,0,1,336,47.81a17.1,17.1,0,0,1,2.75-4.56V33.44a22.33,22.33,0,0,0-7.62,7.35V70.56a22.42,22.42,0,0,0,3.21,3.92,22.72,22.72,0,0,0,4.41,3.31V68Z" transform="translate(-17.5)"/><path class="cls-36" d="M406.37,43.64a10,10,0,0,0-.9,4.3,8.88,8.88,0,0,0,.85,4.05,9.26,9.26,0,0,0,2.19,2.83,12.1,12.1,0,0,0,1.16.86V39.83c-.26.18-.52.36-.76.55A9.19,9.19,0,0,0,406.37,43.64Z" transform="translate(-17.5)"/><path class="cls-36" d="M407.06,64.75l-2.19,6.17A18.15,18.15,0,0,0,409,72.6l.63.15V65.87A17.18,17.18,0,0,1,407.06,64.75Z" transform="translate(-17.5)"/><path class="cls-36" d="M403.53,78.73a25.55,25.55,0,0,1-2.44-1.21l-5.52-3.16.53-1.51h-.58q-3.33-5.92-7.21-11.69a118.78,118.78,0,0,0-8.25-10.89V72.85h-7.66V70.66a22.4,22.4,0,0,1-3,3.76,22.09,22.09,0,0,1-4.57,3.44v2.62h22.9v-6q.61,1.05,1.21,2.1l2.19,3.88h18.17c-.8-.16-1.57-.33-2.27-.53A25.73,25.73,0,0,1,403.53,78.73Z" transform="translate(-17.5)"/><path class="cls-37" d="M367.61,63.38a21.21,21.21,0,0,0,1.32-7.78,20.86,20.86,0,0,0-1.34-7.78,16.63,16.63,0,0,0-2.8-4.68v25A16.44,16.44,0,0,0,367.61,63.38Z" transform="translate(-17.5)"/><path class="cls-36" d="M372.41,40.63V38.39h6.32q1.64,1.64,3.63,4t4.05,5.1q2.06,2.71,4.1,5.62t3.83,5.59V38.39h6.27a16.79,16.79,0,0,1,3.48-3.91,18.9,18.9,0,0,1,5.58-3.1v-.61H386.72v5c-.91-1-1.78-2-2.61-2.79l-2.23-2.23H364.79v2.59a22,22,0,0,1,7.62,7.26Z" transform="translate(-17.5)"/><path class="cls-38" d="M372.41,70.66v-30a22,22,0,0,0-7.62-7.26v9.77a16.63,16.63,0,0,1,2.8,4.68,20.86,20.86,0,0,1,1.34,7.78,21.21,21.21,0,0,1-1.32,7.78,16.44,16.44,0,0,1-2.82,4.75v9.73a22.09,22.09,0,0,0,4.57-3.44A22.4,22.4,0,0,0,372.41,70.66Z" transform="translate(-17.5)"/><path class="cls-39" d="M372.41,70.66v-30a22,22,0,0,0-7.62-7.26v9.77a16.63,16.63,0,0,1,2.8,4.68,20.86,20.86,0,0,1,1.34,7.78,21.21,21.21,0,0,1-1.32,7.78,16.44,16.44,0,0,1-2.82,4.75v9.73a22.09,22.09,0,0,0,4.57-3.44A22.4,22.4,0,0,0,372.41,70.66Z" transform="translate(-17.5)"/><path class="cls-40" d="M432.72,50.71l-.13-.13.68-1.86,2.24-6.12,2.25-6.16L432,33.3A28.67,28.67,0,0,0,426.32,31,29.09,29.09,0,0,0,418.15,30,25.53,25.53,0,0,0,410.64,31c-.33.1-.65.23-1,.35v8.44a12.13,12.13,0,0,1,3.22-1.51,17.86,17.86,0,0,1,5.27-.72A21.07,21.07,0,0,1,428.35,40l-2.24,6.12a21.35,21.35,0,0,0-3.21-1.32,13.91,13.91,0,0,0-4.25-.57,7.8,7.8,0,0,0-4,.77,2.6,2.6,0,0,0-1.22,2.36,2.72,2.72,0,0,0,.45,1.59,4.33,4.33,0,0,0,1.27,1.17A11.13,11.13,0,0,0,417,51q1.07.42,2.36.87,2.69,1,4.67,2a12.5,12.5,0,0,1,3.31,2.26,8.21,8.21,0,0,1,2,3A12.2,12.2,0,0,1,430,63.4a9,9,0,0,1-3.38,7.48q-3.38,2.66-10.19,2.66a28.31,28.31,0,0,1-4.13-.27c-1-.14-1.83-.32-2.62-.52v7.72h-.42c.62.12,1.25.24,1.92.34a36,36,0,0,0,5.25.36c6.36,0,11.24-1.4,14.91-4.29a16.5,16.5,0,0,0,6.29-13.47,19.77,19.77,0,0,0-1.12-6.88A15.82,15.82,0,0,0,432.72,50.71Z" transform="translate(-17.5)"/><path class="cls-40" d="M397.85,47.94a16.43,16.43,0,0,0,1.67,7.5,17.28,17.28,0,0,0,1.77,2.79l-1.41,4-2.19,6.17-1.59,4.49H402V38.39H400.6a17,17,0,0,0-1.14,2A17.64,17.64,0,0,0,397.85,47.94Z" transform="translate(-17.5)"/><path class="cls-40" d="M416.41,66.93a11.17,11.17,0,0,0,2.71-.27,5,5,0,0,0,1.72-.75,2.5,2.5,0,0,0,.9-1.12,4,4,0,0,0,.25-1.44,3.34,3.34,0,0,0-1.59-2.81,22.81,22.81,0,0,0-5.47-2.41q-1.69-.6-3.38-1.37a12.73,12.73,0,0,1-1.88-1.07V65.87c.38.13.78.27,1.21.39A19.72,19.72,0,0,0,416.41,66.93Z" transform="translate(-17.5)"/><path class="cls-36" d="M409.66,72.85v-.1L409,72.6a18.15,18.15,0,0,1-4.15-1.69l2.19-6.17a17.18,17.18,0,0,0,2.6,1.13V55.69a12.1,12.1,0,0,1-1.16-.86A9.26,9.26,0,0,1,406.32,52a8.88,8.88,0,0,1-.85-4.05,10,10,0,0,1,.9-4.3,9.19,9.19,0,0,1,2.54-3.26c.24-.2.5-.38.76-.55V31.38a18.9,18.9,0,0,0-5.58,3.1,16.79,16.79,0,0,0-3.48,3.91H402V72.85H396.1l-.53,1.51,5.52,3.16A25.75,25.75,0,0,0,407,79.94c.7.2,1.47.37,2.27.53h.42Z" transform="translate(-17.5)"/><path class="cls-40" d="M409.66,72.85v-.1L409,72.6a18.15,18.15,0,0,1-4.15-1.69l2.19-6.17a17.18,17.18,0,0,0,2.6,1.13V55.69a12.1,12.1,0,0,1-1.16-.86A9.26,9.26,0,0,1,406.32,52a8.88,8.88,0,0,1-.85-4.05,10,10,0,0,1,.9-4.3,9.19,9.19,0,0,1,2.54-3.26c.24-.2.5-.38.76-.55V31.38a18.9,18.9,0,0,0-5.58,3.1,16.79,16.79,0,0,0-3.48,3.91H402V72.85H396.1l-.53,1.51,5.52,3.16A25.75,25.75,0,0,0,407,79.94c.7.2,1.47.37,2.27.53h.42Z" transform="translate(-17.5)"/><path class="cls-41" d="M85.33,72.85V38.39H108.6v6.51H93.09v6.76h13.77V58H93.09v8.3h16.66v6.51Z" transform="translate(-17.5)"/><path class="cls-41" d="M126,73.55a17.36,17.36,0,0,1-6.27-1,11.67,11.67,0,0,1-4.35-2.83,11.32,11.32,0,0,1-2.54-4.33,17.78,17.78,0,0,1-.82-5.54V38.39h7.76V59.18a11.67,11.67,0,0,0,.47,3.56,6.55,6.55,0,0,0,1.29,2.39,4.62,4.62,0,0,0,2,1.32,7.89,7.89,0,0,0,2.56.4,6.27,6.27,0,0,0,4.6-1.74q1.77-1.74,1.77-5.92V38.39h7.76V59.82a17.52,17.52,0,0,1-.85,5.57,11.39,11.39,0,0,1-2.59,4.35,11.58,11.58,0,0,1-4.43,2.81A18.33,18.33,0,0,1,126,73.55Z" transform="translate(-17.5)"/><path class="cls-41" d="M154.75,38q7.76,0,11.88,2.76t4.13,8.58a9.7,9.7,0,0,1-1.67,5.89,11,11,0,0,1-4.8,3.56q1,1.29,2.19,3t2.26,3.48Q169.86,67,170.91,69t1.94,3.85h-8.67l-1.92-3.43q-1-1.74-2-3.38t-2-3.11q-1-1.47-2-2.66h-3.83V72.85h-7.76v-34a44.19,44.19,0,0,1,5.25-.7Q152.61,38,154.75,38Zm.45,6.61q-.85,0-1.52,0l-1.27.1v9.35h2.19q4.37,0,6.27-1.09a4,4,0,0,0,1.89-3.73,3.79,3.79,0,0,0-1.91-3.6A11.83,11.83,0,0,0,155.19,44.61Z" transform="translate(-17.5)"/><path class="cls-41" d="M206.76,55.6a21.23,21.23,0,0,1-1.32,7.78A16,16,0,0,1,201.84,69a14.8,14.8,0,0,1-5.45,3.41,19.79,19.79,0,0,1-6.79,1.14,19.29,19.29,0,0,1-6.66-1.14A15.31,15.31,0,0,1,177.47,69a15.92,15.92,0,0,1-3.68-5.62,20.85,20.85,0,0,1-1.34-7.78,20.2,20.2,0,0,1,1.39-7.78,16.58,16.58,0,0,1,3.75-5.64,15.45,15.45,0,0,1,5.47-3.43,18.79,18.79,0,0,1,6.54-1.14,19.28,19.28,0,0,1,6.66,1.14,15.18,15.18,0,0,1,5.47,3.43,16.19,16.19,0,0,1,3.68,5.64A20.86,20.86,0,0,1,206.76,55.6Zm-26.31,0a15.64,15.64,0,0,0,.62,4.58,10.42,10.42,0,0,0,1.79,3.5,7.91,7.91,0,0,0,2.86,2.26,9.8,9.8,0,0,0,7.73,0,7.86,7.86,0,0,0,2.88-2.26,10.46,10.46,0,0,0,1.79-3.5,15.68,15.68,0,0,0,.62-4.58,15.92,15.92,0,0,0-.62-4.6,10.45,10.45,0,0,0-1.79-3.53,7.88,7.88,0,0,0-2.88-2.26,9.07,9.07,0,0,0-3.85-.8,8.77,8.77,0,0,0-3.88.82,8.17,8.17,0,0,0-2.86,2.29A10.43,10.43,0,0,0,181.08,51,15.7,15.7,0,0,0,180.46,55.6Z" transform="translate(-17.5)"/><path class="cls-41" d="M226.16,38.39q.9,1.64,2.07,4.05t2.44,5.22q1.27,2.81,2.52,5.74l2.34,5.52,2.34-5.52q1.25-2.93,2.52-5.74t2.44-5.22Q244,40,244.91,38.39H252q.5,3.43.92,7.68t.75,8.85q.32,4.6.6,9.22t.47,8.7h-7.56q-.15-5-.4-10.94T246,50l-2,4.62q-1.1,2.54-2.17,5.07t-2.07,4.85q-1,2.31-1.7,4h-5.42l-1.7-4q-1-2.31-2.07-4.85t-2.17-5.07l-2-4.62q-.5,6-.75,11.93t-.4,10.94H216q.2-4.08.47-8.7t.6-9.22q.32-4.6.75-8.85t.92-7.68Z" transform="translate(-17.5)"/><path class="cls-41" d="M258.63,38.39h7.76V72.85h-7.76Z" transform="translate(-17.5)"/><path class="cls-41" d="M294.39,66.19v6.66h-23V38.39h7.76v27.8Z" transform="translate(-17.5)"/><path class="cls-41" d="M320.39,66.19v6.66h-23V38.39h7.76v27.8Z" transform="translate(-17.5)"/><path class="cls-41" d="M323.38,38.39h7.76V72.85h-7.76Z" transform="translate(-17.5)"/><path class="cls-41" d="M368.93,55.6a21.21,21.21,0,0,1-1.32,7.78A16,16,0,0,1,364,69a14.8,14.8,0,0,1-5.44,3.41,19.8,19.8,0,0,1-6.79,1.14,19.28,19.28,0,0,1-6.66-1.14A15.3,15.3,0,0,1,339.64,69,15.91,15.91,0,0,1,336,63.38a20.85,20.85,0,0,1-1.34-7.78A20.18,20.18,0,0,1,336,47.81a16.57,16.57,0,0,1,3.75-5.64,15.46,15.46,0,0,1,5.47-3.43,18.79,18.79,0,0,1,6.54-1.14,19.29,19.29,0,0,1,6.66,1.14,15.18,15.18,0,0,1,5.47,3.43,16.18,16.18,0,0,1,3.68,5.64A20.86,20.86,0,0,1,368.93,55.6Zm-26.31,0a15.66,15.66,0,0,0,.62,4.58,10.43,10.43,0,0,0,1.79,3.5,7.9,7.9,0,0,0,2.86,2.26,9.8,9.8,0,0,0,7.73,0,7.86,7.86,0,0,0,2.88-2.26,10.45,10.45,0,0,0,1.79-3.5,15.7,15.7,0,0,0,.62-4.58,15.94,15.94,0,0,0-.62-4.6,10.44,10.44,0,0,0-1.79-3.53,7.88,7.88,0,0,0-2.88-2.26,9.07,9.07,0,0,0-3.85-.8,8.77,8.77,0,0,0-3.88.82A8.16,8.16,0,0,0,345,47.52,10.44,10.44,0,0,0,343.24,51,15.72,15.72,0,0,0,342.62,55.6Z" transform="translate(-17.5)"/><path class="cls-41" d="M395.53,72.85q-3.33-5.92-7.21-11.69a118.78,118.78,0,0,0-8.25-10.89V72.85h-7.66V38.39h6.32q1.64,1.64,3.63,4t4.05,5.1q2.06,2.71,4.1,5.62t3.83,5.59V38.39H402V72.85Z" transform="translate(-17.5)"/><path class="cls-41" d="M416.41,66.93a11.17,11.17,0,0,0,2.71-.27,5,5,0,0,0,1.72-.75,2.5,2.5,0,0,0,.9-1.12,4,4,0,0,0,.25-1.44,3.34,3.34,0,0,0-1.59-2.81,22.81,22.81,0,0,0-5.47-2.41q-1.69-.6-3.38-1.37a12.45,12.45,0,0,1-3-1.94A9.26,9.26,0,0,1,406.32,52a8.88,8.88,0,0,1-.85-4.05,10,10,0,0,1,.9-4.3,9.19,9.19,0,0,1,2.54-3.26,11.6,11.6,0,0,1,4-2.06,17.86,17.86,0,0,1,5.27-.72A21.07,21.07,0,0,1,428.35,40l-2.24,6.12a21.35,21.35,0,0,0-3.21-1.32,13.91,13.91,0,0,0-4.25-.57,7.8,7.8,0,0,0-4,.77,2.6,2.6,0,0,0-1.22,2.36,2.72,2.72,0,0,0,.45,1.59,4.33,4.33,0,0,0,1.27,1.17A11.13,11.13,0,0,0,417,51q1.07.42,2.36.87,2.69,1,4.67,2a12.5,12.5,0,0,1,3.31,2.26,8.21,8.21,0,0,1,2,3A12.2,12.2,0,0,1,430,63.4a9,9,0,0,1-3.38,7.48q-3.38,2.66-10.19,2.66a28.31,28.31,0,0,1-4.13-.27A26.83,26.83,0,0,1,409,72.6a18.15,18.15,0,0,1-4.15-1.69l2.19-6.17a19.41,19.41,0,0,0,3.8,1.52A19.72,19.72,0,0,0,416.41,66.93Z" transform="translate(-17.5)"/></svg>