<svg id="Layer_1" data-name="Layer 1" xmlns="http://www.w3.org/2000/svg" viewBox="0 0 284.24 55.53"><defs><style>.cls-1{fill:#2f9637;}.cls-2{fill:#12100b;}</style></defs><title>LaPrimitiva_Lines</title><path class="cls-1" d="M49.72,24.7a21.56,21.56,0,0,0-5.12-1V66.9a21.56,21.56,0,0,0,5.12-1V24.7Z" transform="translate(-14.97 -17.54)"/><path class="cls-1" d="M41.52,23.71a21.56,21.56,0,0,0-5.12,1V65.91a21.56,21.56,0,0,0,5.12,1V23.71Z" transform="translate(-14.97 -17.54)"/><path class="cls-1" d="M33.33,26a21.7,21.7,0,0,0-5.12,3.59v31.5a21.7,21.7,0,0,0,5.12,3.59V26Z" transform="translate(-14.97 -17.54)"/><path class="cls-1" d="M61,57.45a21.66,21.66,0,0,0,0-24.3v24.3Z" transform="translate(-14.97 -17.54)"/><path class="cls-1" d="M57.91,29.56A21.7,21.7,0,0,0,52.79,26V64.65a21.7,21.7,0,0,0,5.12-3.59V29.56Z" transform="translate(-14.97 -17.54)"/><path class="cls-1" d="M25.13,33.16a21.66,21.66,0,0,0,0,24.3V33.16Z" transform="translate(-14.97 -17.54)"/><path class="cls-2" d="M15,17.54V73.07H70.81V17.54H15ZM65.06,67.16H21.19V23.29H65.06V67.16Z" transform="translate(-14.97 -17.54)"/><path class="cls-1" d="M80,59.85V32h5.9V55H96.07v4.87H80Z" transform="translate(-14.97 -17.54)"/><path class="cls-1" d="M112.81,59.85L111.68,57h-0.17a12.16,12.16,0,0,1-1.26,1.48,6,6,0,0,1-1.37,1,6.09,6.09,0,0,1-1.67.59,10.72,10.72,0,0,1-2.14.19,6.85,6.85,0,0,1-2.4-.41,5.13,5.13,0,0,1-1.91-1.24,5.73,5.73,0,0,1-1.27-2.09,8.84,8.84,0,0,1-.46-3,5.81,5.81,0,0,1,2.17-5q2.17-1.61,6.49-1.78l3.39-.11V45a2.37,2.37,0,0,0-.76-1.94,3.26,3.26,0,0,0-2.13-.63,9.08,9.08,0,0,0-2.67.4,16.45,16.45,0,0,0-2.62,1.07L101,40a15.17,15.17,0,0,1,3.54-1.41,15.86,15.86,0,0,1,4.07-.51,9,9,0,0,1,6.1,1.87q2.12,1.87,2.12,5.67V59.85h-4.06ZM111.09,50l-1.92.08a7,7,0,0,0-2,.3,3.51,3.51,0,0,0-1.29.71,2.62,2.62,0,0,0-.7,1.07,4.12,4.12,0,0,0-.22,1.38,2.4,2.4,0,0,0,.65,1.89,2.49,2.49,0,0,0,1.69.56,3.93,3.93,0,0,0,1.48-.28,3.27,3.27,0,0,0,1.19-.82,3.86,3.86,0,0,0,.79-1.33,5.33,5.33,0,0,0,.29-1.82V50Z" transform="translate(-14.97 -17.54)"/><path class="cls-1" d="M151.49,40.69a11.13,11.13,0,0,1-.55,3.5,7.45,7.45,0,0,1-1.82,3,9,9,0,0,1-3.33,2,14.89,14.89,0,0,1-5.11.76h-1.35v9.9h-5.9V32h7.73a15.88,15.88,0,0,1,4.64.6A8.65,8.65,0,0,1,149,34.33,6.75,6.75,0,0,1,150.88,37,10.24,10.24,0,0,1,151.49,40.69Zm-12.17,4.42h1.16a6,6,0,0,0,3.76-1,3.84,3.84,0,0,0,1.27-3.22,3.86,3.86,0,0,0-1.13-3.06,5.31,5.31,0,0,0-3.55-1h-1.5v8.26Z" transform="translate(-14.97 -17.54)"/><path class="cls-1" d="M167.39,38.16h0.5l0.53,0,0.48,0.06a1.9,1.9,0,0,1,.33.07v5.44l-0.42-.08-0.56-.07-0.58,0H167.2a7.1,7.1,0,0,0-2.07.29,4,4,0,0,0-1.62.92,4.2,4.2,0,0,0-1,1.68A7.59,7.59,0,0,0,162.1,49V59.85h-5.81V38.56h4.4l0.86,3.2h0.29a10.78,10.78,0,0,1,1-1.49A5.91,5.91,0,0,1,164,39.14a5.22,5.22,0,0,1,1.49-.72A6.39,6.39,0,0,1,167.39,38.16Z" transform="translate(-14.97 -17.54)"/><path class="cls-1" d="M173,33.06a3.28,3.28,0,0,1,.25-1.36,2.29,2.29,0,0,1,.68-0.88,2.55,2.55,0,0,1,1-.47,5.49,5.49,0,0,1,1.23-.13,5.36,5.36,0,0,1,1.22.13,2.55,2.55,0,0,1,1,.47,2.37,2.37,0,0,1,.69.88,3.71,3.71,0,0,1,0,2.71,2.35,2.35,0,0,1-.69.89,2.65,2.65,0,0,1-1,.48,5,5,0,0,1-1.22.14,5.12,5.12,0,0,1-1.23-.14,2.65,2.65,0,0,1-1-.48,2.27,2.27,0,0,1-.68-0.89A3.3,3.3,0,0,1,173,33.06ZM179,59.85h-5.81V38.56H179V59.85Z" transform="translate(-14.97 -17.54)"/><path class="cls-1" d="M203.39,59.85h-5.81V47.42A6.9,6.9,0,0,0,196.9,44a2.32,2.32,0,0,0-2.15-1.15,3.41,3.41,0,0,0-1.84.46,3.19,3.19,0,0,0-1.17,1.35,7.46,7.46,0,0,0-.63,2.21,21.13,21.13,0,0,0-.19,3v10h-5.81V38.56h4.44l0.78,2.72h0.32a5.65,5.65,0,0,1,1.09-1.41,6,6,0,0,1,1.4-1,6.7,6.7,0,0,1,1.62-.56,9.18,9.18,0,0,1,5.45.57,5.13,5.13,0,0,1,2.35,2.37H203a5.55,5.55,0,0,1,1.1-1.41,6,6,0,0,1,1.43-1,7,7,0,0,1,1.65-.56,8.51,8.51,0,0,1,1.74-.18A6.76,6.76,0,0,1,214.14,40q1.74,1.86,1.74,5.95V59.85h-5.83V47.42a6.9,6.9,0,0,0-.69-3.46,2.32,2.32,0,0,0-2.15-1.15,3.07,3.07,0,0,0-3,1.65,10.23,10.23,0,0,0-.88,4.71V59.85Z" transform="translate(-14.97 -17.54)"/><path class="cls-1" d="M221.59,33.06a3.28,3.28,0,0,1,.25-1.36,2.29,2.29,0,0,1,.68-0.88,2.55,2.55,0,0,1,1-.47,5.49,5.49,0,0,1,1.23-.13,5.36,5.36,0,0,1,1.22.13,2.55,2.55,0,0,1,1,.47,2.37,2.37,0,0,1,.69.88,3.71,3.71,0,0,1,0,2.71,2.35,2.35,0,0,1-.69.89,2.65,2.65,0,0,1-1,.48,5,5,0,0,1-1.22.14,5.12,5.12,0,0,1-1.23-.14,2.65,2.65,0,0,1-1-.48,2.27,2.27,0,0,1-.68-0.89A3.3,3.3,0,0,1,221.59,33.06Zm6.05,26.79h-5.81V38.56h5.81V59.85Z" transform="translate(-14.97 -17.54)"/><path class="cls-1" d="M242.38,55.6a6.76,6.76,0,0,0,1.63-.19,16.23,16.23,0,0,0,1.57-.48v4.32a8.75,8.75,0,0,1-2,.7,11.86,11.86,0,0,1-2.64.28,9.92,9.92,0,0,1-2.59-.32,4.88,4.88,0,0,1-2.08-1.13,5.49,5.49,0,0,1-1.38-2.17,9.93,9.93,0,0,1-.5-3.42V42.92h-2.78V40.47l3.2-1.94L236.46,34h3.71v4.53h5.18v4.36h-5.18V53.18a2.44,2.44,0,0,0,.61,1.83A2.2,2.2,0,0,0,242.38,55.6Z" transform="translate(-14.97 -17.54)"/><path class="cls-1" d="M249.63,33.06a3.28,3.28,0,0,1,.25-1.36,2.29,2.29,0,0,1,.68-0.88,2.55,2.55,0,0,1,1-.47,5.49,5.49,0,0,1,1.23-.13,5.36,5.36,0,0,1,1.22.13,2.55,2.55,0,0,1,1,.47,2.37,2.37,0,0,1,.69.88,3.71,3.71,0,0,1,0,2.71,2.35,2.35,0,0,1-.69.89,2.65,2.65,0,0,1-1,.48,5,5,0,0,1-1.22.14,5.12,5.12,0,0,1-1.23-.14,2.65,2.65,0,0,1-1-.48,2.27,2.27,0,0,1-.68-0.89A3.3,3.3,0,0,1,249.63,33.06Zm6.05,26.79h-5.81V38.56h5.81V59.85Z" transform="translate(-14.97 -17.54)"/><path class="cls-1" d="M266.25,59.85l-7.52-21.28h6.07l3.52,12.13q0.32,1.08.56,2.26a15.44,15.44,0,0,1,.3,2.1h0.11a14.38,14.38,0,0,1,.29-2.14q0.24-1.13.56-2.22l3.5-12.13h6.09l-7.52,21.28h-6Z" transform="translate(-14.97 -17.54)"/><path class="cls-1" d="M295.15,59.85L294,57h-0.17a12.16,12.16,0,0,1-1.26,1.48,6,6,0,0,1-1.37,1,6.09,6.09,0,0,1-1.67.59,10.72,10.72,0,0,1-2.14.19,6.85,6.85,0,0,1-2.4-.41,5.13,5.13,0,0,1-1.91-1.24,5.73,5.73,0,0,1-1.27-2.09,8.84,8.84,0,0,1-.46-3,5.81,5.81,0,0,1,2.17-5q2.17-1.61,6.49-1.78l3.39-.11V45a2.37,2.37,0,0,0-.76-1.94,3.26,3.26,0,0,0-2.13-.63,9.08,9.08,0,0,0-2.67.4,16.45,16.45,0,0,0-2.62,1.07L283.37,40a15.17,15.17,0,0,1,3.54-1.41,15.86,15.86,0,0,1,4.07-.51,9,9,0,0,1,6.1,1.87q2.12,1.87,2.12,5.67V59.85h-4.06ZM293.44,50l-1.92.08a7,7,0,0,0-2,.3,3.51,3.51,0,0,0-1.29.71,2.62,2.62,0,0,0-.7,1.07,4.12,4.12,0,0,0-.22,1.38,2.4,2.4,0,0,0,.65,1.89,2.49,2.49,0,0,0,1.69.56,3.93,3.93,0,0,0,1.48-.28,3.27,3.27,0,0,0,1.19-.82,3.86,3.86,0,0,0,.79-1.33,5.33,5.33,0,0,0,.29-1.82V50Z" transform="translate(-14.97 -17.54)"/></svg>