<svg id="Layer_1" data-name="Layer 1" xmlns="http://www.w3.org/2000/svg" viewBox="0 0 379.59 78.04"><defs><style>.cls-1{fill:#84bd42;}.cls-2,.cls-3{fill:#4c5955;}.cls-3{fill-rule:evenodd;}</style></defs><title>NationalLottery_Lines</title><path class="cls-1" d="M381.91,27.74s-27.48,3.74-35,2.64c0,0-11.43-15.61-20.66-20.88,0,0-2.2,19.57-6.6,24.62l-32.1,8.13s19.79,11,21.1,11.87-6.82,13.41-9,15.94l-2.2,2.53s27.68,1.76,37-4c0,0,19.46,11.43,26.28,18.91,0,0,6.16-13.41,1.32-31.88C369.6,47.53,378.84,39.16,381.91,27.74ZM307.66,38.87c-2.06.49-7.75,3.38-9.4,4.12s-4.54-.44-3-1.07C302.3,39.12,309.72,38.38,307.66,38.87Zm21.13-7.34A1.24,1.24,0,1,1,330,30.3,1.21,1.21,0,0,1,328.78,31.53ZM330,25.6c-1.3,0-2.35-1.61-2.35-3.59s1.05-3.59,2.35-3.59S332.31,20,332.31,22,331.25,25.6,330,25.6ZM358,32.44c0.91-.74,10.47-2.06,15.66-1.81,1.94,0.09,1.15,2.8-4,2.23S357.12,33.18,358,32.44Z" transform="translate(-2.32 -9.5)"/><path class="cls-1" d="M297.66,13.47A28.67,28.67,0,0,1,294.34,16a11.25,11.25,0,0,0-3.41-.75,8.56,8.56,0,0,1,.94,2.88L289.19,21s2.68-.18,2.87-0.18A5.86,5.86,0,0,1,292.2,23l-0.06.39s2.87-1.62,3.44-2.79a18.9,18.9,0,0,1,3.84.18,6.06,6.06,0,0,0-1.93-3.26A8.56,8.56,0,0,0,297.66,13.47Z" transform="translate(-2.32 -9.5)"/><path class="cls-1" d="M319.11,22a44,44,0,0,1-6.35-.66,17.24,17.24,0,0,0-3-4.42s-1,3.44-2,4.2l-6,.41s3.19,2.62,3.4,2.82-1.66,2.18-2.14,2.56l-0.48.38s4.91,1.22,6.77.5a29,29,0,0,1,4.1,4.25,9.29,9.29,0,0,0,1.27-5.67C316.26,25.18,318.19,24,319.11,22Z" transform="translate(-2.32 -9.5)"/><path class="cls-1" d="M282.7,15.59a14.15,14.15,0,0,1,.18,2,5.55,5.55,0,0,0-1.21,1.23,4.22,4.22,0,0,1,1.45.37l0.5,1.88s0.63-1.17.68-1.25a2.89,2.89,0,0,1,.94.52l0.15,0.13a5.61,5.61,0,0,0-.26-2.17,9.33,9.33,0,0,1,1.09-1.56,3,3,0,0,0-1.87-.05A4.22,4.22,0,0,0,282.7,15.59Z" transform="translate(-2.32 -9.5)"/><path class="cls-1" d="M291.77,30a14.15,14.15,0,0,1,.18,2,5.55,5.55,0,0,0-1.21,1.23,4.22,4.22,0,0,1,1.45.37l0.5,1.88s0.63-1.17.68-1.25a2.89,2.89,0,0,1,.94.52l0.15,0.13a5.61,5.61,0,0,0-.26-2.17,9.33,9.33,0,0,1,1.09-1.56,3,3,0,0,0-1.87-.05A4.22,4.22,0,0,0,291.77,30Z" transform="translate(-2.32 -9.5)"/><path class="cls-1" d="M271.69,19.29a9.3,9.3,0,0,1,.12,1.35,3.65,3.65,0,0,0-.79.81,2.78,2.78,0,0,1,1,.24l0.33,1.23,0.45-.82a1.9,1.9,0,0,1,.62.34l0.1,0.08a3.69,3.69,0,0,0-.17-1.43,6.14,6.14,0,0,1,.71-1,2,2,0,0,0-1.23,0A2.78,2.78,0,0,0,271.69,19.29Z" transform="translate(-2.32 -9.5)"/><path class="cls-2" d="M119.53,30.3q1.36,0.24,2.41.33l1.75,0.14q0.84,0,1.45,0c0.4,0,1,0,1.73-.09l2.46-.23q1.52-.14,3.77-0.47a2.21,2.21,0,0,0-1.19,1.05,13.8,13.8,0,0,0-1,1.85,17.6,17.6,0,0,0-.89,2.57q-0.33,1.26-.82,3.46t-0.94,4.77q-0.44,2.57-.68,5.22a29.74,29.74,0,0,0-.07,4.84,9.88,9.88,0,0,0,.86,3.63,2.47,2.47,0,0,0,2.15,1.52,19.2,19.2,0,0,0,3.67,0,11.17,11.17,0,0,0,2.41-.49,4.18,4.18,0,0,0,2.24-1.64,19.45,19.45,0,0,0,1.54-2.76q0.79-1.68,1.43-3.23t1.05-2.62q0.42-1.07.42-1t0,1.05q0,1,0,2.29t0,2.78q0,1.45-.07,2.48c0,0.56-.06,1.19-0.09,1.87S143,59,143,59.77s-0.05,1.7-.12,2.67q-2-.14-3.74-0.19t-3.13,0q-1.59,0-2.95,0l-3.37.14-4.07.21q-2.43.12-5.62,0.3,0.37-.65.63-1.22t0.4-.94a3.63,3.63,0,0,0,.23-0.8,38,38,0,0,0,.47-3.81q0.19-2.32.3-4.94t0.14-5.36q0-2.74,0-5.08T122,36.71a13.52,13.52,0,0,0-.3-2.39,14.65,14.65,0,0,0-.56-1.5,11.84,11.84,0,0,0-.68-1.33A5.88,5.88,0,0,0,119.53,30.3Z" transform="translate(-2.32 -9.5)"/><path class="cls-2" d="M158.5,43.26a7.87,7.87,0,0,1,2.53.44,15.4,15.4,0,0,1,2.53,1.12,18.32,18.32,0,0,1,2.22,1.45,13.75,13.75,0,0,1,1.66,1.47,7,7,0,0,1,1.61,3.39,13.12,13.12,0,0,1,.16,4.35,12.29,12.29,0,0,1-1.31,4.19,6.59,6.59,0,0,1-2.85,2.9,15.65,15.65,0,0,1-2.57,1,19.21,19.21,0,0,1-2.43.56,14,14,0,0,1-2.2.19q-1,0-1.78,0a6.72,6.72,0,0,1-2.92-1,14.51,14.51,0,0,1-2.85-2.2A14.28,14.28,0,0,1,148,58.25a7.88,7.88,0,0,1-1.12-3,17.15,17.15,0,0,1-.09-4,8.15,8.15,0,0,1,1.38-3.88,8.8,8.8,0,0,1,3.65-2.95A15.73,15.73,0,0,1,158.5,43.26ZM157,61.41a2.72,2.72,0,0,0,1.4-.26A5.71,5.71,0,0,0,160.12,60a7.84,7.84,0,0,0,1.54-2,7.43,7.43,0,0,0,.82-3,19.87,19.87,0,0,0,0-3.18,12.55,12.55,0,0,0-.44-2.55,8,8,0,0,0-.75-1.8,2.78,2.78,0,0,0-.89-1,7.83,7.83,0,0,0-1.92-.68,2.91,2.91,0,0,0-1.92.12,3.69,3.69,0,0,0-.94.79,9.94,9.94,0,0,0-1.12,1.52,12.32,12.32,0,0,0-1,2.08,11.59,11.59,0,0,0-.63,2.43,11.89,11.89,0,0,0-.07,2.71,10.35,10.35,0,0,0,.59,2.74,6.23,6.23,0,0,0,1.33,2.2A3.43,3.43,0,0,0,157,61.41Z" transform="translate(-2.32 -9.5)"/><path class="cls-2" d="M170.9,34.74L173.26,35l1.57,0.14c0.47,0,.84,0,1.12,0a6.56,6.56,0,0,0,1.12,0l1.59-.12q1-.07,2.48-0.26a8.1,8.1,0,0,0-.51.82l-0.33.63L180,36.8l-0.19.56a3.44,3.44,0,0,0-.16.56c0,0.22-.09.45-0.12,0.7h7.21l-0.66,3.79-6.6-.37q-0.23,2.39-.33,3.7T179,47.65l-0.09.84q-0.14,1.78-.28,3.86t-0.09,3.86a14.87,14.87,0,0,0,.33,3q0.28,1.19,1,1.19a2.45,2.45,0,0,0,1.31-.37,4.48,4.48,0,0,0,1.05-.89,4.18,4.18,0,0,0,.68-1.05,2.29,2.29,0,0,0,.23-0.82,1.91,1.91,0,0,0-.14-0.66,10.81,10.81,0,0,0-.84-1.78q1.36,0.33,2.39.66c0.34,0.12.66,0.25,0.94,0.37l1.08,0.42,1.31,0.56,1.87,0.8a3,3,0,0,0-1.5.61,1.36,1.36,0,0,0-.42.42A14.3,14.3,0,0,0,187,60a6.43,6.43,0,0,1-1.26,1.71,7.73,7.73,0,0,1-2.27,1.5,10.22,10.22,0,0,1-3.81.75,6,6,0,0,1-3.77-.84A5.72,5.72,0,0,1,174.06,61a7,7,0,0,1-.68-2.46q-0.09-1.22-.14-1.64t0-2.11q0-1.68.14-3.72t0.19-3.93q0.09-1.9.09-2.78c0-.31,0-0.64,0-1s0-.59,0-0.91,0-.65,0-1l-6.78,0-0.28-2.67L173.52,39q-0.09-.52-0.21-1t-0.21-.73a4.79,4.79,0,0,0-.28-0.56l-0.42-.51-0.61-.61Q171.42,35.21,170.9,34.74Z" transform="translate(-2.32 -9.5)"/><path class="cls-2" d="M187.23,34.74L189.59,35l1.57,0.14c0.47,0,.84,0,1.12,0a6.56,6.56,0,0,0,1.12,0L195,35q1-.07,2.48-0.26a8.1,8.1,0,0,0-.51.82l-0.33.63-0.28.56-0.19.56a3.44,3.44,0,0,0-.16.56c0,0.22-.09.45-0.12,0.7h7.21l-0.66,3.79-6.6-.37q-0.23,2.39-.33,3.7t-0.19,1.92l-0.09.84q-0.14,1.78-.28,3.86t-0.09,3.86a14.87,14.87,0,0,0,.33,3q0.28,1.19,1,1.19a2.45,2.45,0,0,0,1.31-.37,4.48,4.48,0,0,0,1.05-.89,4.18,4.18,0,0,0,.68-1.05,2.29,2.29,0,0,0,.23-0.82,1.91,1.91,0,0,0-.14-0.66,10.81,10.81,0,0,0-.84-1.78q1.36,0.33,2.39.66c0.34,0.12.66,0.25,0.94,0.37l1.08,0.42,1.31,0.56,1.87,0.8a3,3,0,0,0-1.5.61,1.36,1.36,0,0,0-.42.42,14.3,14.3,0,0,0-.75,1.38,6.43,6.43,0,0,1-1.26,1.71,7.73,7.73,0,0,1-2.27,1.5A10.22,10.22,0,0,1,196,64a6,6,0,0,1-3.77-.84A5.72,5.72,0,0,1,190.39,61a7,7,0,0,1-.68-2.46q-0.09-1.22-.14-1.64t0-2.11q0-1.68.14-3.72t0.19-3.93q0.09-1.9.09-2.78c0-.31,0-0.64,0-1s0-.59,0-0.91,0-.65,0-1l-6.78,0L183,38.76,189.85,39q-0.09-.52-0.21-1t-0.21-.73a4.79,4.79,0,0,0-.28-0.56l-0.42-.51-0.61-.61Q187.74,35.21,187.23,34.74Z" transform="translate(-2.32 -9.5)"/><path class="cls-2" d="M216.28,56.68a10.05,10.05,0,0,0,2.43-.28,6.3,6.3,0,0,0,1.8-.77A2.58,2.58,0,0,0,221.66,54l1.59,0.3,1.12,0.21a6.41,6.41,0,0,0,.89.19q0.37,0.09.89,0.19l1.15,0.21,1.61,0.3a3.24,3.24,0,0,0-1.43.14q-0.73.24-1.38,0.51a7.78,7.78,0,0,0-1.4.8,6,6,0,0,0-1,.84,5.84,5.84,0,0,1-1.52,1.08,10.43,10.43,0,0,1-2.6.87,17,17,0,0,1-4.14.26,12.45,12.45,0,0,1-5.1-1.1,10.17,10.17,0,0,1-3.32-2.48,9.31,9.31,0,0,1-1.82-3.2,11.64,11.64,0,0,1-.61-3.23,5.93,5.93,0,0,1,.89-3.13,10.52,10.52,0,0,1,2.64-3,14.28,14.28,0,0,1,4.14-2.22,15.79,15.79,0,0,1,5.33-.87,11.62,11.62,0,0,1,3.11.4,12.37,12.37,0,0,1,2.62,1.05,10.58,10.58,0,0,1,2.08,1.47,11.16,11.16,0,0,1,1.5,1.66,10.94,10.94,0,0,1,1,1.87,9.9,9.9,0,0,1,.61,1.92,7.41,7.41,0,0,1,.14,2.2L223,51.4q-2.18,0-3.39,0h-3.7q-0.84,0-2.2,0l-3.32.14a4.93,4.93,0,0,0,1.19,2.88,7,7,0,0,0,2,1.52A7.45,7.45,0,0,0,216.28,56.68Zm-4.21-8.42,2.5,0.14,1.66,0.09q0.7,0,1.12,0h1.17q1.17,0,4.35-.14a6.42,6.42,0,0,0-.87-3.13,5.55,5.55,0,0,0-1.52-1.59,4.73,4.73,0,0,0-2.06-.66,7.18,7.18,0,0,0-4.51,1.26A6,6,0,0,0,212.07,48.26Z" transform="translate(-2.32 -9.5)"/><path class="cls-2" d="M230.13,41.81c0.59,0,1.13,0,1.61,0s0.9,0,1.24-.07l1.08-.09q0.7-.09,1.45-0.23c0.44-.06.9-0.15,1.38-0.26a14.55,14.55,0,0,0,1.43-.4q-0.28.7-.47,1.22a9.08,9.08,0,0,0-.28.89,2.34,2.34,0,0,0-.14.7,5.69,5.69,0,0,0,0,.8q0,0.79,0,2.57,2.43-2.11,4.09-3.28t2.64-1.83a10.1,10.1,0,0,1,1.83-1,3.66,3.66,0,0,1,3,.8,5.77,5.77,0,0,1,1.08,1.24,7.59,7.59,0,0,1,.89,2,17.19,17.19,0,0,1,.56,3,26.08,26.08,0,0,1,0,4.19l-1.75.19-1.29.14a7.33,7.33,0,0,1-1.12.09l-1.26.14q-0.66.09-1.61,0.16t-2.32.21a9.37,9.37,0,0,0,2.55-2.78,3.73,3.73,0,0,0,.49-2,2.34,2.34,0,0,0-.84-1.54,2.94,2.94,0,0,0-1.92-.37,5.21,5.21,0,0,0-2.06.79,8.79,8.79,0,0,0-2.48,2.62q0.09,3,.21,5t0.21,3.18q0.14,1.4.23,2.2a5.59,5.59,0,0,0,.56,1.5,9.23,9.23,0,0,0,.94,1.45,9.47,9.47,0,0,0,1.59,1.59,29.57,29.57,0,0,0-3.37,0l-1.4.09-1.4.19-1.52.21-1.89.26a4.59,4.59,0,0,0,.61-1.19,13,13,0,0,0,.37-1.29,10.86,10.86,0,0,0,.28-1.45q0-.65.07-2t0-3q-0.07-1.66-.16-3.46T233,49.71q-0.14-1.59-.3-2.78a8,8,0,0,0-.35-1.66,9.46,9.46,0,0,0-.56-1.12,10.62,10.62,0,0,0-.7-1.1Q230.65,42.46,230.13,41.81Z" transform="translate(-2.32 -9.5)"/><path class="cls-2" d="M251.14,40.31c0.62,0.09,1.18.16,1.66,0.21l1.29,0.12c0.4,0,.79,0,1.17,0s0.78,0,1.31,0l1.71-.12q1.05-.07,2.5-0.21a10.31,10.31,0,0,0-.37,1.15q-0.28,1-.56,2.34t-0.49,3a23.35,23.35,0,0,0-.19,3.28,12.7,12.7,0,0,0,.4,3,5.22,5.22,0,0,0,1.22,2.32,7.63,7.63,0,0,0,3.16,2.2,3.49,3.49,0,0,0,2.41-.09,4.09,4.09,0,0,0,1.68-1.4,7.36,7.36,0,0,0,.94-1.73,18,18,0,0,0,.84-4.54,22,22,0,0,0-.33-4.58,14.57,14.57,0,0,0-2-5.15l2.11,0.14,1.54,0.09,1.31,0.09a7.76,7.76,0,0,0,1.22,0q0.61,0,1.47-.07l1.94-.16q0.19,4.59.33,8.16t0.21,6.32q0.07,2.74.07,4.73v3.35a25.76,25.76,0,0,1-.28,4.26,9.67,9.67,0,0,1-1.33,2.9,11.16,11.16,0,0,1-2.41,2.6,10.91,10.91,0,0,1-3.35,1.78,10.29,10.29,0,0,1-4.14.44,17.33,17.33,0,0,1-3.49-.58,7.21,7.21,0,0,1-2-.91,3.3,3.3,0,0,1-1-1.08,4.67,4.67,0,0,1-.44-1.15c-0.09-.39-0.19-0.76-0.28-1.1a1.8,1.8,0,0,0-.56-0.89c-0.34-.28-0.7-0.56-1.08-0.84s-0.71-.5-1.1-0.75a7.38,7.38,0,0,0-1.15-.61l10-.56a4.59,4.59,0,0,0-.61,1,3.5,3.5,0,0,0-.23.8,1.66,1.66,0,0,0,0,.7,4.69,4.69,0,0,0,.68,1.24,3.46,3.46,0,0,0,1.29,1.08,3.24,3.24,0,0,0,1.89.26,5.66,5.66,0,0,0,2.5-1.17,6.61,6.61,0,0,0,2-2.85,20.59,20.59,0,0,0,1-4.73,37.11,37.11,0,0,0-.14-8,10.81,10.81,0,0,1-2.29,4.45,10.15,10.15,0,0,1-2.9,2.24,8.23,8.23,0,0,1-3.51.89,16.2,16.2,0,0,1-4.16-.63,8.19,8.19,0,0,1-2.85-1.47,6.7,6.7,0,0,1-1.75-2.22A10.66,10.66,0,0,1,255,55a18.36,18.36,0,0,1-.28-3.2q0-1.61,0-3t0-2.55a6,6,0,0,0-.23-1.85,7.68,7.68,0,0,0-.75-1.4,8.78,8.78,0,0,0-1.05-1.33A10.27,10.27,0,0,0,251.14,40.31Z" transform="translate(-2.32 -9.5)"/><path class="cls-3" d="M73.69,40.05c0.3-.44-2.75,8.43-3,9.49-0.5-.6-0.62-6.51-6.52-6.52s-5,4.63-3.56,5.34,13.06,2.49,12.45,8.3S66.58,62,66.58,62a16.27,16.27,0,0,1-7.11-2.37c-1.45.19-3.62,2.31-4.15,3,0.2-1.39,2.17-7.61,1.78-10.08,0.58,0.63,2.27,6.14,7.71,6.52,3.35-.05,3.44-5.2,1.78-5.93s-11-3.27-10.67-7.71,5.45-5.91,14.23-3A9.91,9.91,0,0,0,73.69,40.05Z" transform="translate(-2.32 -9.5)"/><path class="cls-2" d="M2.32,29.56s8.11,0.88,13.42-.34c-2,2.71-2.6,3.15-3.1,6.54S12.3,53.64,12.3,53.64a11.21,11.21,0,0,0,4.47,8.6c-10.38,0-14.1.34-14.1,0.34s3.77-5.74,3.78-9.29S6.11,38.16,6.11,38.16,6.09,32.44,2.32,29.56Z" transform="translate(-2.32 -9.5)"/><path class="cls-3" d="M82.71,61.69c0.21,0.32-6.09-.31-7,0a18.39,18.39,0,0,0,2-5c0.31-2.75,0-27,0-27s-1-3.94-2-4c2.48,0.1,10,0,10,0s-2.9,1.44-3,4c-1.4,3.89-1,14-1,14s5.34-5.06,12-2c2.41,2,4.82,3.91,5,4s1.15,5,0,8a16.55,16.55,0,0,0-1,6s1.35,1.82,2,2h-10a10.85,10.85,0,0,0,3-4c1-2.43,1.63-10.1,0-12s-6.8-4.49-11,2C80.83,51.23,81.8,56.38,82.71,61.69Z" transform="translate(-2.32 -9.5)"/><path class="cls-3" d="M41.65,49.58c-0.07-6.14-2.1-11.06-5-11-3.32.78-8.1,5.07-9,6,0-2.24-1.15-4.37,0-6-4.19,0-8,0-8,0a6.71,6.71,0,0,1,3,5c0.26,3.38.09,17.6-1,19a32.59,32.59,0,0,1,10,0s-3.26-2.45-4-12c-0.06-3,.89-6.68,4-7s3.85,3.52,2,6C35.47,49.5,38.79,49.46,41.65,49.58Z" transform="translate(-2.32 -9.5)"/><path class="cls-2" d="M43.28,42.19l8.61,0.09q-0.75,2.85-1.1,4.86a33.58,33.58,0,0,0-.44,3.37,13,13,0,0,0-.09,2.62,15.2,15.2,0,0,0,.47,2.11,16.6,16.6,0,0,0,.84,2.15,12.78,12.78,0,0,0,1.5,2.43,7,7,0,0,0-1.22-.28q-0.66-.09-1.22-0.14a9.39,9.39,0,0,0-1.31,0q-0.66,0-1.45.14l-1.59.23q-0.94.14-2,.38Q45,58,45.41,56.5T46,53.93q0.19-1.22.23-2V47.52q0-1.12,0-2a3,3,0,0,0-.19-1.1L45.52,44l-0.82-.68Q44.17,42.84,43.28,42.19ZM46.6,35a2.81,2.81,0,0,1,2-.28,2.85,2.85,0,0,1,1.57.89,1.77,1.77,0,0,1,.4,1.54A2.91,2.91,0,0,1,49,38.86a3.32,3.32,0,0,1-2.39.56,2.09,2.09,0,0,1-1.45-1,2.24,2.24,0,0,1-.14-1.75A2.94,2.94,0,0,1,46.6,35Z" transform="translate(-2.32 -9.5)"/></svg>