<svg id="Layer_1" data-name="Layer 1" xmlns="http://www.w3.org/2000/svg" xmlns:xlink="http://www.w3.org/1999/xlink" viewBox="0 0 337.38 47.23"><defs><style>.cls-1{fill:#cb1518;}.cls-2{fill:#264e7c;}.cls-3,.cls-4{fill:#fff;}.cls-4{stroke:#264e7c;stroke-miterlimit:10;stroke-width:2px;}</style><symbol id="Instant_Loto" data-name="Instant Loto" viewBox="0 0 434.63 60.84"><circle class="cls-1" cx="114.04" cy="30.38" r="26.81"/><path class="cls-2" d="M159.75,7.21a26.75,26.75,0,0,0-20.84,10,28.06,28.06,0,0,1-2.41,30.17A26.81,26.81,0,1,0,159.75,7.21Z"/><path class="cls-2" d="M85.65,30.38a28.23,28.23,0,0,1,5.78-17.12A26.79,26.79,0,1,0,89,43.84,28.26,28.26,0,0,1,85.65,30.38Z"/><path class="cls-1" d="M39.09,26.81a29.27,29.27,0,0,1,3.7-14.28,26.79,26.79,0,1,0,6.32,36.39A29.34,29.34,0,0,1,39.09,26.81Z"/><path class="cls-3" d="M24.27,12.12V34.48h9l-0.83,4.14H19.11V12.53Z"/><path class="cls-3" d="M66,34.58A7.17,7.17,0,0,1,63,34a6.45,6.45,0,0,1-2.18-1.59A8.53,8.53,0,0,1,59.35,30a16.6,16.6,0,0,1-.93-3,26.27,26.27,0,0,1-.48-3.44q-0.14-1.81-.14-3.67a26.5,26.5,0,0,1,.47-5.18,12.91,12.91,0,0,1,1.48-4.07A7.31,7.31,0,0,1,62.29,8,7.08,7.08,0,0,1,66,7.09,7.18,7.18,0,0,1,69.71,8a7.33,7.33,0,0,1,2.57,2.61,12.78,12.78,0,0,1,1.48,4.07,26.55,26.55,0,0,1,.47,5.18q0,1.86-.14,3.67A25.38,25.38,0,0,1,73.61,27a16.61,16.61,0,0,1-.95,3,8.68,8.68,0,0,1-1.51,2.41A6.43,6.43,0,0,1,69,34,7.22,7.22,0,0,1,66,34.58Zm0-4.4a2.06,2.06,0,0,0,1.65-.72,4.88,4.88,0,0,0,.93-2.05A17.69,17.69,0,0,0,69,24.17q0.09-1.91.09-4.29,0-.83,0-1.73T68.9,16.26a17.74,17.74,0,0,0-.3-1.89,7,7,0,0,0-.54-1.61,3.38,3.38,0,0,0-.85-1.12A1.85,1.85,0,0,0,66,11.22a1.81,1.81,0,0,0-1.21.42,3.33,3.33,0,0,0-.84,1.12,7.24,7.24,0,0,0-.53,1.61,17.57,17.57,0,0,0-.3,1.89q-0.1,1-.13,1.88t0,1.73q0,2.38.09,4.29a18.24,18.24,0,0,0,.4,3.24,4.87,4.87,0,0,0,.91,2.05A2,2,0,0,0,66,30.18Z"/><path class="cls-3" d="M159.87,42.89a7.17,7.17,0,0,1-3-.57,6.45,6.45,0,0,1-2.18-1.59,8.53,8.53,0,0,1-1.5-2.41,16.6,16.6,0,0,1-.93-3,26.27,26.27,0,0,1-.48-3.44q-0.14-1.81-.14-3.67a26.5,26.5,0,0,1,.47-5.18,12.91,12.91,0,0,1,1.48-4.07,7.31,7.31,0,0,1,2.55-2.61,7.08,7.08,0,0,1,3.7-.92,7.18,7.18,0,0,1,3.72.92,7.33,7.33,0,0,1,2.57,2.61A12.77,12.77,0,0,1,167.64,23a26.45,26.45,0,0,1,.48,5.18q0,1.86-.14,3.67a25.49,25.49,0,0,1-.49,3.44,16.56,16.56,0,0,1-.95,3A8.65,8.65,0,0,1,165,40.74a6.43,6.43,0,0,1-2.19,1.59A7.22,7.22,0,0,1,159.87,42.89Zm0-4.4a2.06,2.06,0,0,0,1.65-.72,4.88,4.88,0,0,0,.93-2.05,17.69,17.69,0,0,0,.41-3.24q0.09-1.91.09-4.29,0-.83,0-1.73t-0.13-1.88a17.73,17.73,0,0,0-.3-1.89,7,7,0,0,0-.54-1.61,3.38,3.38,0,0,0-.85-1.12,1.85,1.85,0,0,0-1.22-.42,1.81,1.81,0,0,0-1.21.42,3.33,3.33,0,0,0-.84,1.12,7.24,7.24,0,0,0-.53,1.61,17.57,17.57,0,0,0-.3,1.89q-0.1,1-.13,1.88t0,1.73q0,2.38.09,4.29a18.24,18.24,0,0,0,.4,3.24,4.87,4.87,0,0,0,.91,2.05A2,2,0,0,0,159.87,38.49Z"/><path class="cls-3" d="M104.12,17.45l0.41-4.14h15.53l-0.41,4.14h-5V39.61l-5.18.41V17.45h-5.4Z"/><path class="cls-4" d="M195.89,13.32H226v7.42H204.67v9.72h18.72V37.8H204.67V55.52h-8.77V13.32Z"/><path class="cls-4" d="M258.84,14.36a10.42,10.42,0,0,1,4,3,13.15,13.15,0,0,1,2.12,3.55,11.84,11.84,0,0,1,.78,4.44,12.66,12.66,0,0,1-1.52,5.92,8.49,8.49,0,0,1-5,4.11,7.89,7.89,0,0,1,4.14,3.34q1.22,2.16,1.22,6.61v2.84a21.32,21.32,0,0,0,.23,3.93,3.52,3.52,0,0,0,1.63,2.41v1.06h-9.75q-0.4-1.4-.57-2.26a20.81,20.81,0,0,1-.37-3.64l-0.06-3.93q-0.05-4-1.4-5.39t-5-1.35h-8.62V55.52H232V13.27h20.21A18.4,18.4,0,0,1,258.84,14.36ZM240.59,20.6V32h9.5a10.12,10.12,0,0,0,4.25-.69q2.51-1.2,2.51-4.76,0-3.84-2.42-5.16a8.75,8.75,0,0,0-4.08-.75h-9.75Z"/><path class="cls-4" d="M286.24,13.27h10l14.95,42.26h-9.57l-2.79-8.69H283.26l-2.86,8.69h-9.24Zm-0.58,26.29h10.82l-5.34-16.63Z"/><path class="cls-4" d="M316.41,13.27h9.26l16.77,29.46V13.27h8.23V55.52h-8.83l-17.2-30v30h-8.23V13.27Z"/><path class="cls-4" d="M363,17.68a17.4,17.4,0,0,1,13-5.22q10.55,0,15.43,7a15.24,15.24,0,0,1,2.89,7.88h-8.83a12,12,0,0,0-2.16-4.59q-2.36-2.75-7-2.75a8.62,8.62,0,0,0-7.44,3.88q-2.72,3.88-2.72,11T369,45.53a9,9,0,0,0,7.3,3.54,8.27,8.27,0,0,0,6.93-3,13.33,13.33,0,0,0,2.19-4.9h8.77a19,19,0,0,1-5.8,11.24,16.88,16.88,0,0,1-12,4.33q-9,0-14.18-5.85t-5.16-16.11Q357.12,23.67,363,17.68Z"/><path class="cls-4" d="M432.6,20.75H410.24v9h20.53v7.34H410.24V47.92h23.39v7.6h-32V13.27h31v7.48Z"/></symbol></defs><title>Lotto_FR_Lines</title><use id="Instant_Loto-3" data-name="Instant Loto" width="434.63" height="60.84" transform="translate(0 0) scale(0.78)" xlink:href="#Instant_Loto"/></svg>