<svg id="Layer_1" data-name="Layer 1" xmlns="http://www.w3.org/2000/svg" xmlns:xlink="http://www.w3.org/1999/xlink" viewBox="0 0 346.11 88.83"><defs><style>.cls-1,.cls-4{fill:#fff;}.cls-1{stroke:#36a9e1;stroke-miterlimit:10;stroke-width:6px;}.cls-2{fill:#ef7a1c;}.cls-3{fill:#ffcf08;}</style><symbol id="Lotto_PL" data-name="Lotto PL" viewBox="0 0 448.77 115.18"><path class="cls-1" d="M34,76V43.35h6V72.23H61.16V76H34Z"/><path class="cls-1" d="M64.85,59.66q0-7.81,4.61-12.45t12.4-4.64q7.79,0,12.4,4.64t4.61,12.45q0,7.84-4.61,12.48t-12.4,4.64q-7.79,0-12.4-4.64T64.85,59.66Zm6.43,0q0,6.41,2.74,9.88A9.39,9.39,0,0,0,81.85,73a9.43,9.43,0,0,0,7.84-3.47q2.76-3.47,2.76-9.88T89.69,49.8a9.43,9.43,0,0,0-7.84-3.47A9.38,9.38,0,0,0,74,49.8Q71.29,53.27,71.29,59.66Z"/><path class="cls-1" d="M116.61,76V47.12h-15.1V43.35h36.26v3.77H122.65V76h-6Z"/><path class="cls-1" d="M157.41,76V47.12h-15.1V43.35h36.26v3.77H163.44V76h-6Z"/><path class="cls-1" d="M180.24,59.66q0-7.81,4.61-12.45t12.4-4.64q7.79,0,12.4,4.64t4.61,12.45q0,7.84-4.61,12.48t-12.4,4.64q-7.79,0-12.4-4.64T180.24,59.66Zm6.43,0q0,6.41,2.74,9.88a10.57,10.57,0,0,0,15.67,0q2.76-3.47,2.76-9.88t-2.76-9.86a10.57,10.57,0,0,0-15.67,0Q186.67,53.27,186.67,59.66Z"/><polygon class="cls-2" points="38.65 0 48.31 10.04 60.82 4.15 55.99 16.09 63.72 26.52 50.99 26 43.34 36.2 40.64 23.5 27.84 19.81 40.2 14.16 38.65 0"/><polygon class="cls-3" points="222.85 76.18 226.14 91.04 241.16 92.67 229.87 101.05 231.13 115.18 219.56 107.45 206.63 112.6 211.33 99.22 201.51 88.5 216.24 90.27 222.85 76.18"/><path class="cls-3" d="M86.5,16.79S256-4.71,231,85.29C231,85.29,292.5-27.21,86.5,16.79Z"/><path class="cls-2" d="M36,26.79s-17.5,8-19.5,37,50,48,169,40c0,0-58.25,12.5-119.25,4.75S0.09,86.92,0,72.79,6.75,41.29,36,26.79Z"/><path class="cls-4" d="M34,76V43.35h6V72.23H61.16V76H34Z"/><path class="cls-4" d="M64.85,59.66q0-7.81,4.61-12.45t12.4-4.64q7.79,0,12.4,4.64t4.61,12.45q0,7.84-4.61,12.48t-12.4,4.64q-7.79,0-12.4-4.64T64.85,59.66Zm6.43,0q0,6.41,2.74,9.88A9.39,9.39,0,0,0,81.85,73a9.43,9.43,0,0,0,7.84-3.47q2.76-3.47,2.76-9.88T89.69,49.8a9.43,9.43,0,0,0-7.84-3.47A9.38,9.38,0,0,0,74,49.8Q71.29,53.27,71.29,59.66Z"/><path class="cls-4" d="M116.61,76V47.12h-15.1V43.35h36.26v3.77H122.65V76h-6Z"/><path class="cls-4" d="M157.41,76V47.12h-15.1V43.35h36.26v3.77H163.44V76h-6Z"/><path class="cls-4" d="M180.24,59.66q0-7.81,4.61-12.45t12.4-4.64q7.79,0,12.4,4.64t4.61,12.45q0,7.84-4.61,12.48t-12.4,4.64q-7.79,0-12.4-4.64T180.24,59.66Zm6.43,0q0,6.41,2.74,9.88a10.57,10.57,0,0,0,15.67,0q2.76-3.47,2.76-9.88t-2.76-9.86a10.57,10.57,0,0,0-15.67,0Q186.67,53.27,186.67,59.66Z"/><path class="cls-2" d="M274.2,41.25a13.77,13.77,0,0,1,5.27.9A9.88,9.88,0,0,1,283,44.53a9.17,9.17,0,0,1,2,3.38,12.64,12.64,0,0,1,0,7.84,9.14,9.14,0,0,1-2,3.4,9.9,9.9,0,0,1-3.54,2.38,13.77,13.77,0,0,1-5.27.9h-7.63V74.28h-7.26v-33H274.2Zm-2,15.54a15.19,15.19,0,0,0,2.4-.19,5.62,5.62,0,0,0,2-.72,3.92,3.92,0,0,0,1.41-1.5,6.35,6.35,0,0,0,0-5.09,3.92,3.92,0,0,0-1.41-1.5,5.62,5.62,0,0,0-2-.72,15.19,15.19,0,0,0-2.4-.19h-5.64v9.9h5.64Z"/><path class="cls-2" d="M289.84,51A16.52,16.52,0,0,1,293,45.5a14.6,14.6,0,0,1,5.11-3.7,18.08,18.08,0,0,1,13.67,0,14.66,14.66,0,0,1,5.09,3.7A16.55,16.55,0,0,1,320.09,51a20.66,20.66,0,0,1,1.11,6.87,20,20,0,0,1-1.11,6.73,16.09,16.09,0,0,1-3.19,5.43,14.67,14.67,0,0,1-5.09,3.63,18.37,18.37,0,0,1-13.67,0A14.61,14.61,0,0,1,293,70.07a16.06,16.06,0,0,1-3.19-5.43,19.93,19.93,0,0,1-1.11-6.73A20.62,20.62,0,0,1,289.84,51Zm6.64,10.92A10.92,10.92,0,0,0,298,65.49,7.91,7.91,0,0,0,300.8,68a9.61,9.61,0,0,0,8.33,0,7.93,7.93,0,0,0,2.78-2.52,10.92,10.92,0,0,0,1.55-3.54,16.81,16.81,0,0,0,.49-4,18.07,18.07,0,0,0-.49-4.21,11.16,11.16,0,0,0-1.55-3.63,7.88,7.88,0,0,0-2.78-2.54,9.62,9.62,0,0,0-8.33,0A7.87,7.87,0,0,0,298,50.06a11.16,11.16,0,0,0-1.55,3.63A18.07,18.07,0,0,0,296,57.9,16.81,16.81,0,0,0,296.48,61.95Z"/><path class="cls-2" d="M333.41,41.25V68.17h16.1v6.11H326.15v-33h7.26Z"/><path class="cls-2" d="M370,41.25l12.35,33h-7.54l-2.5-7.35H360l-2.59,7.35h-7.31l12.49-33H370Zm0.42,20.26L366.3,49.39H366.2l-4.3,12.12h8.56Z"/><path class="cls-2" d="M392.48,41.25l13.78,22.16h0.09V41.25h6.8v33h-7.26L392.15,52.17h-0.09V74.28h-6.8v-33h7.22Z"/><path class="cls-2" d="M433.78,41.25a17,17,0,0,1,5.94,1,12.9,12.9,0,0,1,4.76,3.05,14.11,14.11,0,0,1,3.15,5.09,20.58,20.58,0,0,1,1.13,7.17,22.86,22.86,0,0,1-.93,6.66,14.68,14.68,0,0,1-2.8,5.27A13.12,13.12,0,0,1,440.37,73a15.79,15.79,0,0,1-6.59,1.27H419.54v-33h14.25Zm-0.51,26.92a9.3,9.3,0,0,0,3.05-.51A6.72,6.72,0,0,0,439,66a8.47,8.47,0,0,0,1.85-3.08,13.54,13.54,0,0,0,.69-4.63,19.26,19.26,0,0,0-.49-4.51,9,9,0,0,0-1.6-3.45,7.08,7.08,0,0,0-2.94-2.2,11.73,11.73,0,0,0-4.51-.76H426.8V68.17h6.48Z"/></symbol></defs><title>Lotto_Poland_Lines</title><use id="Lotto_PL-3" data-name="Lotto PL" width="448.77" height="115.18" transform="translate(0 0) scale(0.77)" xlink:href="#Lotto_PL"/></svg>