<svg id="Layer_1" data-name="Layer 1" xmlns="http://www.w3.org/2000/svg" viewBox="0 0 287.08 55.98"><defs><style>.cls-1,.cls-3{fill:#df0a14;}.cls-1{stroke:#df0a14;stroke-miterlimit:10;stroke-width:0.5px;}.cls-2{fill:#b3b2b2;}</style></defs><title>Lotto6AUS49_Lines</title><path class="cls-1" d="M78.27,30.24H84V53.91H94.12V58.6H78.27V30.24Z" transform="translate(-20.42 -18.68)"/><path class="cls-1" d="M96.36,38.48a13.19,13.19,0,0,1,1.31-4.67,7.35,7.35,0,0,1,2.92-3,12.58,12.58,0,0,1,10.25,0,7.36,7.36,0,0,1,2.92,3,13.16,13.16,0,0,1,1.31,4.67,54.63,54.63,0,0,1,.3,5.94,54.47,54.47,0,0,1-.3,6A13.1,13.1,0,0,1,113.76,55a7,7,0,0,1-2.92,3,13.21,13.21,0,0,1-10.25,0,7,7,0,0,1-2.92-3,13.12,13.12,0,0,1-1.31-4.65,54.82,54.82,0,0,1-.3-6A55,55,0,0,1,96.36,38.48Zm5.56,10.81a13.51,13.51,0,0,0,.56,3.26,3.61,3.61,0,0,0,1.19,1.83,3.92,3.92,0,0,0,4.09,0A3.62,3.62,0,0,0,109,52.54a13.51,13.51,0,0,0,.56-3.26q0.14-2,.14-4.87t-0.14-4.85a13.78,13.78,0,0,0-.56-3.26,3.62,3.62,0,0,0-1.19-1.85,3.92,3.92,0,0,0-4.09,0,3.61,3.61,0,0,0-1.19,1.85,13.78,13.78,0,0,0-.56,3.26q-0.14,2-.14,4.85T101.92,49.28Z" transform="translate(-20.42 -18.68)"/><path class="cls-1" d="M135.35,34.92h-6.2V58.6h-5.72V34.92h-6.2V30.24h18.12v4.69Z" transform="translate(-20.42 -18.68)"/><path class="cls-1" d="M154.42,34.92h-6.2V58.6H142.5V34.92h-6.2V30.24h18.11v4.69Z" transform="translate(-20.42 -18.68)"/><path class="cls-1" d="M156.59,38.48a13.19,13.19,0,0,1,1.31-4.67,7.35,7.35,0,0,1,2.92-3,12.58,12.58,0,0,1,10.25,0,7.36,7.36,0,0,1,2.92,3,13.16,13.16,0,0,1,1.31,4.67,54.63,54.63,0,0,1,.3,5.94,54.47,54.47,0,0,1-.3,6A13.1,13.1,0,0,1,174,55a7,7,0,0,1-2.92,3,13.21,13.21,0,0,1-10.25,0,7,7,0,0,1-2.92-3,13.12,13.12,0,0,1-1.31-4.65,54.82,54.82,0,0,1-.3-6A55,55,0,0,1,156.59,38.48Zm5.56,10.81a13.51,13.51,0,0,0,.56,3.26,3.61,3.61,0,0,0,1.19,1.83,3.92,3.92,0,0,0,4.09,0,3.62,3.62,0,0,0,1.19-1.83,13.51,13.51,0,0,0,.56-3.26q0.14-2,.14-4.87t-0.14-4.85a13.78,13.78,0,0,0-.56-3.26A3.62,3.62,0,0,0,168,34.47a3.92,3.92,0,0,0-4.09,0,3.61,3.61,0,0,0-1.19,1.85,13.78,13.78,0,0,0-.56,3.26q-0.14,2-.14,4.85T162.15,49.28Z" transform="translate(-20.42 -18.68)"/><path class="cls-1" d="M198.3,35.08a2.22,2.22,0,0,0-2-.87,2.88,2.88,0,0,0-1.81.54,3.41,3.41,0,0,0-1.07,1.49,8.15,8.15,0,0,0-.5,2.27c-0.08.87-.12,1.83-0.12,2.86v1.39h0.08a5,5,0,0,1,2-1.77,7.27,7.27,0,0,1,3.24-.66,7,7,0,0,1,3.18.66,5.58,5.58,0,0,1,2.13,1.83,8.05,8.05,0,0,1,1.19,2.78,15.37,15.37,0,0,1,.38,3.52q0,4.88-2.16,7.41T195.93,59a9.16,9.16,0,0,1-4.69-1,6.92,6.92,0,0,1-2.68-2.84A12.1,12.1,0,0,1,187.35,51a42.71,42.71,0,0,1-.28-5q0-3,.18-5.78a15.55,15.55,0,0,1,1.07-5,7.68,7.68,0,0,1,2.8-3.48,9.47,9.47,0,0,1,5.4-1.31,11.86,11.86,0,0,1,2.92.36A6.65,6.65,0,0,1,201.93,32a6,6,0,0,1,1.73,2.2,8.25,8.25,0,0,1,.7,3.4h-5.48A4.63,4.63,0,0,0,198.3,35.08Zm-5.1,17a5.81,5.81,0,0,0,.46,1.77,2.74,2.74,0,0,0,1,1.15,2.83,2.83,0,0,0,1.61.42,2.9,2.9,0,0,0,1.65-.42,2.6,2.6,0,0,0,.93-1.17,6.13,6.13,0,0,0,.42-1.77q0.1-1,.1-2.2a8.63,8.63,0,0,0-.72-4.09,2.54,2.54,0,0,0-2.38-1.23,2.57,2.57,0,0,0-2.42,1.23,8.62,8.62,0,0,0-.72,4.09A19.29,19.29,0,0,0,193.19,52.09Z" transform="translate(-20.42 -18.68)"/><path class="cls-1" d="M220.17,30.24l7.51,28.36h-6l-1.31-6h-7.55l-1.31,6h-6l7.51-28.36h7.07Zm-0.75,17.68-2.74-12.75h-0.08l-2.74,12.75h5.56Z" transform="translate(-20.42 -18.68)"/><path class="cls-1" d="M235,50a12.77,12.77,0,0,0,.14,2,4.41,4.41,0,0,0,.52,1.55,2.76,2.76,0,0,0,1,1,3.83,3.83,0,0,0,3.32,0,2.81,2.81,0,0,0,1-1,4.46,4.46,0,0,0,.52-1.55,13,13,0,0,0,.14-2V30.24h5.72V50a11.45,11.45,0,0,1-.76,4.47,7.12,7.12,0,0,1-2,2.8,6.87,6.87,0,0,1-2.9,1.39,15.57,15.57,0,0,1-3.38.36,17.56,17.56,0,0,1-3.38-.32,6.86,6.86,0,0,1-2.9-1.29,6.62,6.62,0,0,1-2-2.76,12.09,12.09,0,0,1-.75-4.65V30.24H235V50Z" transform="translate(-20.42 -18.68)"/><path class="cls-1" d="M255.64,50.58a9.46,9.46,0,0,0,.16,1.81,3.14,3.14,0,0,0,.6,1.37,2.94,2.94,0,0,0,1.17.87,4.67,4.67,0,0,0,1.85.32,3.65,3.65,0,0,0,2.36-.86,3.2,3.2,0,0,0,1.05-2.64,4.73,4.73,0,0,0-.26-1.65,3.24,3.24,0,0,0-.85-1.25,6,6,0,0,0-1.57-1,22.38,22.38,0,0,0-2.4-.93,20.47,20.47,0,0,1-3.3-1.39,8.85,8.85,0,0,1-2.32-1.77,6.31,6.31,0,0,1-1.37-2.34,9.85,9.85,0,0,1-.44-3.08q0-4.21,2.34-6.28a9.4,9.4,0,0,1,6.44-2.06,13.94,13.94,0,0,1,3.52.42,7.37,7.37,0,0,1,2.78,1.35,6.33,6.33,0,0,1,1.83,2.38,8.4,8.4,0,0,1,.66,3.48V38.1H262.4a5.7,5.7,0,0,0-.72-3.12,2.64,2.64,0,0,0-2.38-1.09,4,4,0,0,0-1.59.28,2.69,2.69,0,0,0-1,.74,2.51,2.51,0,0,0-.52,1.05,5.36,5.36,0,0,0-.14,1.23,4.09,4.09,0,0,0,.56,2.2A5,5,0,0,0,259,41l4.41,1.91a13.47,13.47,0,0,1,2.66,1.49,7.33,7.33,0,0,1,1.65,1.67,5.57,5.57,0,0,1,.85,2,11,11,0,0,1,.24,2.38q0,4.49-2.6,6.54a11.46,11.46,0,0,1-7.25,2q-4.85,0-6.93-2.11a8.22,8.22,0,0,1-2.08-6V49.74h5.72v0.84Z" transform="translate(-20.42 -18.68)"/><path class="cls-1" d="M279.56,30.47h5.92V48.31h2.7v4.45h-2.7V58.6h-5.24V52.76h-10V48.07Zm0.59,7.15-5.48,10.69h5.56V37.63h-0.08Z" transform="translate(-20.42 -18.68)"/><path class="cls-1" d="M296,54.53a2.2,2.2,0,0,0,2,.89,2.86,2.86,0,0,0,1.83-.54,3.51,3.51,0,0,0,1.05-1.49,8.15,8.15,0,0,0,.5-2.27c0.08-.87.12-1.83,0.12-2.86V46.92h-0.08a5.1,5.1,0,0,1-2,1.73,7.27,7.27,0,0,1-3.24.66,7,7,0,0,1-3.18-.66,5.58,5.58,0,0,1-2.13-1.83A8,8,0,0,1,289.67,44a15.35,15.35,0,0,1-.38-3.51q0-4.89,2.16-7.47t6.93-2.58a8.79,8.79,0,0,1,4.69,1.09,7.34,7.34,0,0,1,2.68,2.9A12.13,12.13,0,0,1,307,38.66a43,43,0,0,1,.28,5q0,3-.18,5.82A15.39,15.39,0,0,1,306,54.39a7.31,7.31,0,0,1-2.82,3.4A9.85,9.85,0,0,1,297.79,59a14.23,14.23,0,0,1-2.92-.3,6.16,6.16,0,0,1-2.48-1.11,5.83,5.83,0,0,1-1.73-2.18A8.22,8.22,0,0,1,290,52h5.48A4.56,4.56,0,0,0,296,54.53Zm-0.3-10.67a2.53,2.53,0,0,0,2.38,1.23,2.57,2.57,0,0,0,2.42-1.23,8.62,8.62,0,0,0,.72-4.09,19.27,19.27,0,0,0-.12-2.22,5.85,5.85,0,0,0-.46-1.77,2.75,2.75,0,0,0-1-1.15,2.81,2.81,0,0,0-1.61-.42,2.88,2.88,0,0,0-1.65.42,2.6,2.6,0,0,0-.93,1.17,6.09,6.09,0,0,0-.42,1.77q-0.1,1-.1,2.2A8.62,8.62,0,0,0,295.73,43.86Z" transform="translate(-20.42 -18.68)"/><path class="cls-2" d="M46,46.36S61.21,63.1,54.34,72.15s-18.2-9-16.49-11.89C37.36,59.06,39.26,53.29,46,46.36Z" transform="translate(-20.42 -18.68)"/><path class="cls-2" d="M47.75,45.08s14.15,13.15,16.13,11,0.77-11.72-3.54-15.28S47.75,45.08,47.75,45.08Z" transform="translate(-20.42 -18.68)"/><path class="cls-2" d="M45.77,42.88c0.53,0.39,6.71-10.75.77-15s-10.8-5.21-10.66-1.51S41.5,39.68,45.77,42.88Z" transform="translate(-20.42 -18.68)"/><path class="cls-2" d="M44.19,44.25s-18.84-19-22.45-15.51,1.05,17.84,3,19.78S32.19,56.47,44.19,44.25Z" transform="translate(-20.42 -18.68)"/><path class="cls-3" d="M47.49,41s15.18,16.74,8.31,25.78-18.2-9-16.49-11.89C38.83,53.73,40.73,48,47.49,41Z" transform="translate(-20.42 -18.68)"/><path class="cls-3" d="M49.21,39.75s14.15,13.15,16.13,11S66.11,39,61.8,35.45,49.21,39.75,49.21,39.75Z" transform="translate(-20.42 -18.68)"/><path class="cls-3" d="M47.23,37.55c0.53,0.39,6.71-10.75.77-15S37.21,17.3,37.34,21,43,34.35,47.23,37.55Z" transform="translate(-20.42 -18.68)"/><path class="cls-3" d="M45.66,38.92s-18.84-19-22.45-15.51,1.05,17.84,3,19.78S33.65,51.14,45.66,38.92Z" transform="translate(-20.42 -18.68)"/></svg>