<svg id="Layer_1" data-name="Layer 1" xmlns="http://www.w3.org/2000/svg" viewBox="0 0 438.19 67.58"><defs><style>.cls-1{fill:#4096ff;}.cls-2{fill:#fff;}.cls-3{fill:#0758a8;}</style></defs><title>UK_National_Lottery</title><path class="cls-1" d="M52.6,14.85a4,4,0,0,0-2-.41,6.57,6.57,0,0,0-3.69,1.63,15.18,15.18,0,0,0-1.69,1.63l-0.58-.37,0,0A5,5,0,0,0,41,16.68a5.57,5.57,0,0,0-2,.71c-1.8,1.32-2.07,3.76-.78,7.32q0.36,1,.92,2.44v0c0.1,0.31.24,0.64,0.37,1a0.12,0.12,0,0,0,0,.07s0,0,0,.07,0.1,0.27.17,0.41v0.07h0a0.86,0.86,0,0,1,.07.24c0.07,0.2.17,0.37,0.24,0.58s0,0.14.07,0.2a92.15,92.15,0,0,1,4.47,17.89l0.17,0.1a31.58,31.58,0,0,0,8.74,3.69L54,51.59a1.41,1.41,0,0,1,.2.07,8.55,8.55,0,0,1,1.12.44Q54.2,37.4,51.55,28.95a0.7,0.7,0,0,0-.07-0.2l0-.07c3.32-6.27,4-10.57,2.2-12.88a2.87,2.87,0,0,0-1.12-.95h0ZM41.28,44.91a8.7,8.7,0,0,0-1.12-1.12,3.54,3.54,0,0,0-2.78-1,4.63,4.63,0,0,0-1.86.61,4.31,4.31,0,0,0-1.9,2.14,5.9,5.9,0,0,0-.2,3.63,12.08,12.08,0,0,0,1.32,3.15,9.86,9.86,0,0,0,2.54,3.05c0.2,0.17.44,0.34,0.68,0.51a1.47,1.47,0,0,1,.24.14,17.74,17.74,0,0,0,6.44,2.34,17.44,17.44,0,0,1,2.64-1.86,15.89,15.89,0,0,0-2.64,1.86q-4.68,4.07-4,10.88a20.88,20.88,0,0,0,.58,3.05,21.76,21.76,0,0,1-.58-3.05c-0.51-4.54.81-8.17,3.93-10.91A17.74,17.74,0,0,1,38.17,56a1.47,1.47,0,0,0-.24-0.14,4,4,0,0,1-1,1.42,4.28,4.28,0,0,1-2.2.88,2.5,2.5,0,0,1-.71,0,3.74,3.74,0,0,1-3.32-2.64,6,6,0,0,1-.51,1.66,4.34,4.34,0,0,1-.37.68,3.1,3.1,0,0,1-4,1.32,0.71,0.71,0,0,1-.2-0.14c-2.27-1.22-3.73-4.68-4.41-10.44C21.9,54.3,23.36,57.79,25.63,59a0.71,0.71,0,0,0,.2.14,3.1,3.1,0,0,0,4-1.32,4.34,4.34,0,0,0,.37-0.68,6,6,0,0,0,.51-1.66,16.31,16.31,0,0,0-.41-5.8c-1.08-4.61-2.41-7.73-3.93-9.32a5.11,5.11,0,0,0-.78-0.71c-0.07-.07-0.17-0.1-0.24-0.17-1.9-.92-3.66-0.14-5.25,2.34C18.75,44,18,47,17.83,50.88c0,1,0,2,0,3.15A35.8,35.8,0,0,0,20,64.8Q26.61,82.6,41.49,81,51.6,79.82,56.3,69.18a23.39,23.39,0,0,0,1.63-5.52q1.47-9.35-2.54-11.59a5.49,5.49,0,0,0-1.12-.44,0.48,0.48,0,0,1-.2-0.07l-0.41-.1a32.64,32.64,0,0,1-8.74-3.69l-0.17-.1a5.52,5.52,0,0,1-.58-0.37,20.28,20.28,0,0,1-2.88-2.37h0Zm-4.74-4.74a5,5,0,0,0-.34-0.75A3.15,3.15,0,0,1,36,39.08c-0.17-.31-0.34-0.61-0.54-0.92-1.32-2-3-2.88-4.91-2.54-2.24.37-3.63,2-4.2,4.74,1.53,1.59,2.81,4.71,3.93,9.32a16.31,16.31,0,0,1,.41,5.8A3.71,3.71,0,0,0,34,58.13a2.5,2.5,0,0,0,.71,0,4.28,4.28,0,0,0,2.2-.88,4,4,0,0,0,1-1.42l-0.68-.51a9.15,9.15,0,0,1-2.54-3.05,13.37,13.37,0,0,1-1.32-3.15,5.66,5.66,0,0,1,.2-3.63,4.62,4.62,0,0,1,3.76-2.75,16.44,16.44,0,0,0-.81-2.58h0ZM40.2,29.73a0.48,0.48,0,0,0-.07-0.2c-0.07-.17-0.17-0.37-0.24-0.58a0.63,0.63,0,0,1-.07-0.24,83.44,83.44,0,0,0-3.32,11.42,16.4,16.4,0,0,1,.85,2.58,3.66,3.66,0,0,1,2.78,1,8.7,8.7,0,0,1,1.12,1.12,17.92,17.92,0,0,0,2.85,2.37,3.36,3.36,0,0,0,.58.37A91.21,91.21,0,0,0,40.2,29.73Z" transform="translate(-17.44 -14.06)"/><path class="cls-2" d="M55.76,51.86c-0.75-9.69-2-17.45-3.76-23v0c3.36-6.44,4.07-10.78,2.1-13.22a3.79,3.79,0,0,0-1.32-1.08,4.36,4.36,0,0,0-2.2-.44,6.91,6.91,0,0,0-3.9,1.69,14.63,14.63,0,0,0-1.49,1.42A1.37,1.37,0,0,0,44.88,17a0.12,0.12,0,0,0-.07,0A5.3,5.3,0,0,0,41,16.31a5,5,0,0,0-2.14.81c-2,1.42-2.27,4-.92,7.76,0.24,0.61.54,1.42,0.88,2.41v0.07c0.14,0.34.24,0.64,0.37,1l0,0.07s0,0.07,0,.07,0.1,0.24.14,0.34a90.08,90.08,0,0,0-3,10.13C36.2,38.61,36,38.3,35.83,38c-1.42-2.17-3.22-3.08-5.32-2.71s-3.66,1.86-4.34,4.37a1.22,1.22,0,0,0-.34-0.24,2.38,2.38,0,0,0-.31-0.2c-2.1-1-4.07-.2-5.76,2.47-1.39,2.17-2.17,5.29-2.3,9.25,0,1,0,2.07,0,3.19A34.7,34.7,0,0,0,19.66,65c4.1,11,10.68,16.61,19.49,16.61a18.92,18.92,0,0,0,2.37-.14c6.88-.81,12-4.91,15.12-12.1a21.28,21.28,0,0,0,1.63-5.63C59.31,57.45,58.43,53.48,55.76,51.86ZM47.18,16.37a6.22,6.22,0,0,1,3.46-1.53,3.57,3.57,0,0,1,1.8.37,3.3,3.3,0,0,1,1.05.85c1.66,2.07,1,6-1.83,11.66-1.76-4.95-3.73-8.34-5.83-10.07A12,12,0,0,1,47.18,16.37Zm-8.51,8.2c-1.22-3.36-1-5.66.64-6.85a5,5,0,0,1,1.83-.68,4.43,4.43,0,0,1,3.25.58l0,0a4.42,4.42,0,0,1,.51.34l0,0c2.2,1.63,4.3,5.29,6.17,10.81v0.07l0,0.14c1.69,5.42,2.95,12.95,3.69,22.37l-0.54-.2c-0.07,0-.17,0-0.24-0.07L53.69,51A33.25,33.25,0,0,1,45,47.38h0a93.7,93.7,0,0,0-4.47-17.86l-0.31-.71a0.48,0.48,0,0,1-.07-0.2,0.12,0.12,0,0,0,0-.07h0A2.57,2.57,0,0,1,40,28.17a0.12,0.12,0,0,0,0-.1l0-.1c-0.14-.31-0.24-0.61-0.34-0.92a0.07,0.07,0,0,0,0-.07C39.22,26,38.91,25.22,38.68,24.58Zm1.19,5.32a91.59,91.59,0,0,1,4.3,16.91,18,18,0,0,1-2.54-2.14,7.83,7.83,0,0,0-1.19-1.19,4.07,4.07,0,0,0-2.71-1.12,15.2,15.2,0,0,0-.75-2.2A74.13,74.13,0,0,1,39.86,29.9ZM37,55.59a5,5,0,0,0,.44.34,3.26,3.26,0,0,1-.75,1,3.82,3.82,0,0,1-2,.81,2.05,2.05,0,0,1-.64,0,3.28,3.28,0,0,1-2.95-2.27,16.64,16.64,0,0,0-.41-5.86C29.63,45,28.34,42,26.85,40.27c0.54-2.51,1.8-3.9,3.8-4.24,1.8-.31,3.29.47,4.51,2.37,0.17,0.27.34,0.58,0.51,0.88,0.07,0.1.1,0.2,0.17,0.31s0.24,0.47.34,0.71a15.23,15.23,0,0,1,.71,2.1,4.79,4.79,0,0,0-1.53.61,4.87,4.87,0,0,0-2.1,2.34,6.15,6.15,0,0,0-.2,3.86,13.21,13.21,0,0,0,1.32,3.22M57.52,63.58A21.1,21.1,0,0,1,55.93,69C52.88,76,48,79.85,41.45,80.67c-9.66,1-16.74-4.34-21-16A33.93,33.93,0,0,1,18.31,54c0-1.08-.07-2.14,0-3.12,0.14-3.83.88-6.81,2.17-8.85,1.08-1.69,2.24-2.54,3.42-2.54a2.74,2.74,0,0,1,1.32.34,1.47,1.47,0,0,0,.24.14,4.08,4.08,0,0,1,.71.64h0c1.46,1.53,2.75,4.61,3.83,9.15a14.72,14.72,0,0,1,.37,5.66h0A5.26,5.26,0,0,1,29.86,57a3.67,3.67,0,0,1-.37.61A2.71,2.71,0,0,1,26,58.81l-0.2-.1c-2.14-1.15-3.56-4.58-4.2-10.13a0.39,0.39,0,1,0-.78.1c0.71,5.93,2.2,9.46,4.61,10.74a0.84,0.84,0,0,0,.31.14,3.47,3.47,0,0,0,4.44-1.46,3.19,3.19,0,0,0,.41-0.75,4,4,0,0,0,.27-0.68A3.89,3.89,0,0,0,34,58.53a3,3,0,0,0,.78,0,4.51,4.51,0,0,0,2.44-1,4.33,4.33,0,0,0,.88-1.15,17.61,17.61,0,0,0,5.66,2.14,12.42,12.42,0,0,0-3.49,10.71,22.63,22.63,0,0,0,.58,3.12,0.39,0.39,0,0,0,.75-0.2,21,21,0,0,1-.54-3c-0.47-4.37.81-7.93,3.83-10.54h0a15.35,15.35,0,0,1,2.61-1.8,0.4,0.4,0,0,0-.41-0.68,19,19,0,0,0-2.58,1.76,17.19,17.19,0,0,1-6.07-2.24,0.85,0.85,0,0,0-.24-0.14C38,55.35,37.76,55.21,37.56,55a9.58,9.58,0,0,1-2.44-2.91,12.37,12.37,0,0,1-1.25-3.05A5.06,5.06,0,0,1,34,45.72a3.85,3.85,0,0,1,1.76-2,4.43,4.43,0,0,1,1.66-.58h0a3.2,3.2,0,0,1,2.47.95A8.68,8.68,0,0,1,41,45.25a16.69,16.69,0,0,0,2.88,2.41,5.51,5.51,0,0,0,.58.37l0.17,0.1a33.66,33.66,0,0,0,8.88,3.76L54,52c0.07,0,.14,0,0.2,0a4.55,4.55,0,0,1,1,.41h0C57.69,53.82,58.47,57.55,57.52,63.58Z" transform="translate(-17.44 -14.06)"/><path class="cls-3" d="M81.79,66.7H73.08V42.18h-4.8V34.46h18.5v7.73h-5V66.7Z" transform="translate(-17.44 -14.06)"/><path class="cls-3" d="M108.58,66.7h-8.37V54.76a5.31,5.31,0,0,0-.3-2.15A1.08,1.08,0,0,0,98.85,52q-1.75,0-1.75,3.32V66.7H88.72V31.43h8.38V44q0,1,0,1.71t0,1q0,0.36-.06.75t-0.08.88q2-4.78,5.93-4.78a5,5,0,0,1,4.22,2,9.2,9.2,0,0,1,1.52,5.64V66.7Z" transform="translate(-17.44 -14.06)"/><path class="cls-3" d="M124,59.06l8.19,0.17a10,10,0,0,1-3.42,5.94,10.42,10.42,0,0,1-6.63,2,9.8,9.8,0,0,1-7.6-3q-2.74-3-2.74-8.33a12.85,12.85,0,0,1,2.94-8.75,9.59,9.59,0,0,1,7.6-3.4,9.17,9.17,0,0,1,7.39,3.28,13.21,13.21,0,0,1,2.76,8.75l0,1.48H120.17q0.15,3.47,2,3.47A1.85,1.85,0,0,0,124,59.06Zm0.19-6.39a4.26,4.26,0,0,0-.15-1.15,3,3,0,0,0-.41-0.9A2.09,2.09,0,0,0,123,50a1.44,1.44,0,0,0-.77-0.22,1.65,1.65,0,0,0-1.42.8,3.6,3.6,0,0,0-.54,2.06h3.91Z" transform="translate(-17.44 -14.06)"/><path class="cls-3" d="M148.91,66.7V34.46h8.31l4.37,11.32,0.8,2.3q0.45,1.3,1,3l0.9,2.84q-0.48-4.2-.73-7.18t-0.25-5V34.46h8.31V66.7H163.3l-4.39-11.86q-0.69-1.9-1.24-3.56t-1-3.16q0.27,3.4.4,5.93t0.13,4.43V66.7h-8.31Z" transform="translate(-17.44 -14.06)"/><path class="cls-3" d="M196.57,66.7h-8.4q0.1-1.13.17-2.15t0.13-1.65q-2.17,4.26-5.83,4.26a5.64,5.64,0,0,1-5-3.17q-1.84-3.15-1.84-8.73,0-5.39,1.9-8.48a5.81,5.81,0,0,1,5.18-3.13q3.36,0,5.43,4.05,0-.42-0.06-0.73t0-.52l-0.08-1.32-0.06-1h8.54V66.7Zm-8.48-11.57A20.35,20.35,0,0,0,188,53a5.93,5.93,0,0,0-.3-1.43,1.67,1.67,0,0,0-.54-0.79,1.36,1.36,0,0,0-.81-0.24q-2.13,0-2.13,5.66,0,4.05,1.9,4.05T188.09,55.13Z" transform="translate(-17.44 -14.06)"/><path class="cls-3" d="M210,66.7h-8.4V50.87h-2.38V44.13h2.38V37.49H210v6.64h2.78v6.75H210V66.7Z" transform="translate(-17.44 -14.06)"/><path class="cls-3" d="M224.08,37.13a4.68,4.68,0,0,1-1.44,3.42A4.83,4.83,0,0,1,219.19,42a4.72,4.72,0,0,1-3.47-1.44,4.85,4.85,0,0,1-1.42-3.47,4.69,4.69,0,0,1,1.42-3.45,4.83,4.83,0,0,1,3.45-1.42A4.88,4.88,0,0,1,224.08,37.13ZM223.37,66.7H215V44.13h8.4V66.7Z" transform="translate(-17.44 -14.06)"/><path class="cls-3" d="M247.59,55.76a11.7,11.7,0,0,1-2.88,8.31A10.06,10.06,0,0,1,237,67.16,9.66,9.66,0,0,1,229.4,64a12.42,12.42,0,0,1-2.8-8.52,12.49,12.49,0,0,1,2.86-8.58A9.51,9.51,0,0,1,237,43.65a9.76,9.76,0,0,1,7.77,3.24Q247.59,50.12,247.59,55.76Zm-8.12-.27a14,14,0,0,0-.17-2.27,7.4,7.4,0,0,0-.48-1.73,3.21,3.21,0,0,0-.75-1.12,1.43,1.43,0,0,0-1-.4,2,2,0,0,0-1.71,1.5,9.3,9.3,0,0,0-.65,3.95,9.46,9.46,0,0,0,.65,3.95,1.73,1.73,0,0,0,3.43,0A10.38,10.38,0,0,0,239.47,55.49Z" transform="translate(-17.44 -14.06)"/><path class="cls-3" d="M270.69,66.7h-8.37V54.76a5.29,5.29,0,0,0-.3-2.15A1.08,1.08,0,0,0,261,52q-1.75,0-1.75,3.32V66.7h-8.37V44.13h8.37q0,0.84,0,1.55T259.1,47L259,48.43q2-4.78,5.93-4.78a5,5,0,0,1,4.22,2,9.2,9.2,0,0,1,1.52,5.64V66.7Z" transform="translate(-17.44 -14.06)"/><path class="cls-3" d="M294.71,66.7h-8.4q0.1-1.13.17-2.15t0.12-1.65q-2.17,4.26-5.83,4.26a5.64,5.64,0,0,1-5-3.17q-1.84-3.15-1.84-8.73,0-5.39,1.9-8.48A5.82,5.82,0,0,1,281,43.65q3.36,0,5.43,4.05,0-.42-0.06-0.73t0-.52l-0.08-1.32-0.06-1h8.54V66.7Zm-8.48-11.57a20.62,20.62,0,0,0-.09-2.13,6,6,0,0,0-.3-1.43,1.68,1.68,0,0,0-.54-0.79,1.36,1.36,0,0,0-.81-0.24q-2.13,0-2.13,5.66,0,4.05,1.9,4.05T286.23,55.13Z" transform="translate(-17.44 -14.06)"/><path class="cls-3" d="M306.95,66.7h-8.37V31.43h8.37V66.7Z" transform="translate(-17.44 -14.06)"/><path class="cls-3" d="M339.26,66.7H324V34.46h8.71V59h6.54V66.7Z" transform="translate(-17.44 -14.06)"/><path class="cls-3" d="M361.88,55.76A11.7,11.7,0,0,1,359,64.07a10.06,10.06,0,0,1-7.73,3.09A9.66,9.66,0,0,1,343.69,64a12.42,12.42,0,0,1-2.8-8.52,12.49,12.49,0,0,1,2.86-8.58,9.51,9.51,0,0,1,7.54-3.26,9.77,9.77,0,0,1,7.77,3.24Q361.88,50.12,361.88,55.76Zm-8.12-.27a14,14,0,0,0-.17-2.27,7.4,7.4,0,0,0-.48-1.73,3.21,3.21,0,0,0-.75-1.12,1.43,1.43,0,0,0-1-.4,2,2,0,0,0-1.71,1.5,9.28,9.28,0,0,0-.65,3.95,9.45,9.45,0,0,0,.65,3.95,1.73,1.73,0,0,0,3.42,0A10.38,10.38,0,0,0,353.75,55.49Z" transform="translate(-17.44 -14.06)"/><path class="cls-3" d="M374.68,66.7h-8.4V50.87H363.9V44.13h2.38V37.49h8.4v6.64h2.78v6.75h-2.78V66.7Z" transform="translate(-17.44 -14.06)"/><path class="cls-3" d="M389.24,66.7h-8.4V50.87h-2.38V44.13h2.38V37.49h8.4v6.64H392v6.75h-2.78V66.7Z" transform="translate(-17.44 -14.06)"/><path class="cls-3" d="M406.07,59.06l8.19,0.17a10,10,0,0,1-3.42,5.94,10.42,10.42,0,0,1-6.63,2,9.8,9.8,0,0,1-7.6-3q-2.74-3-2.74-8.33a12.85,12.85,0,0,1,2.94-8.75,9.59,9.59,0,0,1,7.6-3.4,9.17,9.17,0,0,1,7.39,3.28,13.21,13.21,0,0,1,2.76,8.75l0,1.48H402.25q0.15,3.47,2,3.47A1.85,1.85,0,0,0,406.07,59.06Zm0.19-6.39a4.26,4.26,0,0,0-.15-1.15,3,3,0,0,0-.41-0.9,2.08,2.08,0,0,0-.62-0.6,1.44,1.44,0,0,0-.77-0.22,1.65,1.65,0,0,0-1.42.8,3.6,3.6,0,0,0-.54,2.06h3.91Z" transform="translate(-17.44 -14.06)"/><path class="cls-3" d="M426.18,66.7h-8.37V44.13h8.37l-0.44,4.41q1.9-4.95,6.29-4.95V53a5.12,5.12,0,0,0-2.34-.75,3,3,0,0,0-2.6,1.22,5.91,5.91,0,0,0-.91,3.56V66.7Z" transform="translate(-17.44 -14.06)"/><path class="cls-3" d="M445.25,76.17h-8.63l3.66-10.4-6.7-21.64H442l1.61,6.47q0.33,1.34.6,2.91t0.45,3.42l0.29-2.07Q445.52,50.92,446,49l1.25-4.89h8.37Z" transform="translate(-17.44 -14.06)"/></svg>