<svg id="Layer_1" data-name="Layer 1" xmlns="http://www.w3.org/2000/svg" viewBox="0 0 272.71 48.67"><defs><style>.cls-1{fill:#1e6e30;}.cls-2{fill:#56914e;}.cls-3{fill:#14622d;}</style></defs><title>MegaSena_Lines</title><path class="cls-1" d="M17.29,30.11a6.26,6.26,0,0,0,1.14,8.13A6.26,6.26,0,1,0,17.12,50l0.45-.12,14.23-3L28.74,32.61A6.26,6.26,0,0,0,17.29,30.11Z" transform="translate(-9.54 -24.29)"/><path class="cls-2" d="M39.54,25.3a6.26,6.26,0,0,1,2.28,7.88,6.26,6.26,0,1,1,6,10.24l-0.46.08-14.23,3L30.12,32.27A6.26,6.26,0,0,1,39.54,25.3Z" transform="translate(-9.54 -24.29)"/><path class="cls-1" d="M48,64.7a6.26,6.26,0,0,0-1.14-8.13,6.26,6.26,0,1,0,1.31-11.81l-0.45.12-14.23,3L36.52,62.2A6.26,6.26,0,0,0,48,64.7Z" transform="translate(-9.54 -24.29)"/><path class="cls-2" d="M25.73,69.51a6.26,6.26,0,0,1-2.28-7.88,6.26,6.26,0,1,1-6-10.24l0.46-.08,14.23-3,3.06,14.27A6.26,6.26,0,0,1,25.73,69.51Z" transform="translate(-9.54 -24.29)"/><path class="cls-3" d="M96.46,29.37V67.56H87.77V41.77L84.31,67.56H78.15L74.5,42.36V67.56H65.81V29.37H78.66q0.57,3.45,1.18,8.12l1.41,9.71,2.28-17.83H96.46Z" transform="translate(-9.54 -24.29)"/><path class="cls-3" d="M121.75,52.46H109.41v6.77a7.52,7.52,0,0,0,.31,2.74,1.19,1.19,0,0,0,1.18.61,1.43,1.43,0,0,0,1.45-.81,8.91,8.91,0,0,0,.37-3.15V54.49h9V56.8a20.71,20.71,0,0,1-.37,4.46,9.08,9.08,0,0,1-1.71,3.33,8.33,8.33,0,0,1-3.41,2.65,13.19,13.19,0,0,1-5.18.88,15,15,0,0,1-5.33-.87,8.53,8.53,0,0,1-3.6-2.39,8.65,8.65,0,0,1-1.78-3.35,21.63,21.63,0,0,1-.5-5.32V47.06A15.54,15.54,0,0,1,101,40.58a7.61,7.61,0,0,1,3.63-3.63,12.82,12.82,0,0,1,5.8-1.26A13,13,0,0,1,117,37.21a8.37,8.37,0,0,1,3.66,4,18.91,18.91,0,0,1,1,7.07v4.15Zm-9.55-5.1V45.08a11.54,11.54,0,0,0-.26-3.14,1,1,0,0,0-1.06-.71,1.16,1.16,0,0,0-1.23.6,12.54,12.54,0,0,0-.24,3.24v2.29h2.78Z" transform="translate(-9.54 -24.29)"/><path class="cls-3" d="M146.52,36.25V60.36a53.27,53.27,0,0,1-.22,6.31,6.3,6.3,0,0,1-1.59,3,8.54,8.54,0,0,1-3.81,2.43,19.2,19.2,0,0,1-6.15.84,14.94,14.94,0,0,1-7.31-1.55q-2.76-1.55-2.85-6.07h9.25q0,2.08,1.51,2.08a1.5,1.5,0,0,0,1.44-.64,6.44,6.44,0,0,0,.35-2.67V61.75a9.07,9.07,0,0,1-2.58,1.68,7.29,7.29,0,0,1-2.84.57,7.88,7.88,0,0,1-4.23-1,5.31,5.31,0,0,1-2.28-2.73,14.65,14.65,0,0,1-.61-4.8V44.06q0-4.46,1.6-6.42a5.94,5.94,0,0,1,4.88-2,7.24,7.24,0,0,1,3.27.73,7.77,7.77,0,0,1,2.63,2.2l0.68-2.37h8.87ZM137,44.56a9,9,0,0,0-.25-2.74,1.06,1.06,0,0,0-1.1-.59,1.2,1.2,0,0,0-1.17.67,6.75,6.75,0,0,0-.34,2.65V55.08a8.8,8.8,0,0,0,.26,2.72,1.05,1.05,0,0,0,1.09.63,1.17,1.17,0,0,0,1.23-.75,12.46,12.46,0,0,0,.28-3.42v-9.7Z" transform="translate(-9.54 -24.29)"/><path class="cls-3" d="M158.43,48.38h-8.94v-2.1a14.81,14.81,0,0,1,.84-5.6,7.77,7.77,0,0,1,3.36-3.48,12.65,12.65,0,0,1,6.56-1.51q4.84,0,7.29,1.71a6.67,6.67,0,0,1,2.95,4.2,65.84,65.84,0,0,1,.5,10.25V67.56h-9.27V64.77a5.82,5.82,0,0,1-5.54,3.36,8.05,8.05,0,0,1-4.59-1.4q-2.09-1.4-2.09-6.15V58q0-3.51,1.11-4.79t5.5-3q4.69-1.84,5-2.48a6.59,6.59,0,0,0,.33-2.59,8.75,8.75,0,0,0-.37-3.2,1.26,1.26,0,0,0-1.21-.74,1.13,1.13,0,0,0-1.2.63,12.71,12.71,0,0,0-.24,3.24v3.28Zm3,4.29a7.07,7.07,0,0,0-2.65,2.81,11.14,11.14,0,0,0-.37,3.26,9.48,9.48,0,0,0,.32,3.14,1.24,1.24,0,0,0,1.26.71,1.17,1.17,0,0,0,1.17-.55,9,9,0,0,0,.27-2.91V52.67Z" transform="translate(-9.54 -24.29)"/><path class="cls-3" d="M185.94,48.62V55.2H173.41V48.62h12.53Z" transform="translate(-9.54 -24.29)"/><path class="cls-3" d="M207.95,46.26H199.5v-1.7a9.05,9.05,0,0,0-.25-2.75,1.2,1.2,0,0,0-1.24-.58,1.41,1.41,0,0,0-1.2.53,2.62,2.62,0,0,0-.4,1.59,8,8,0,0,0,.2,2.11,3.33,3.33,0,0,0,1.2,1.47,26.11,26.11,0,0,0,4.12,2.34q4.15,2,5.45,3.82a8.83,8.83,0,0,1,1.3,5.21,13.13,13.13,0,0,1-1,5.77,6.59,6.59,0,0,1-3.31,3,13.56,13.56,0,0,1-5.6,1A15.42,15.42,0,0,1,192.55,67,6.79,6.79,0,0,1,189,63.93a13.6,13.6,0,0,1-1-5.85V56.57h8.45v2a10.44,10.44,0,0,0,.32,3.28,1.24,1.24,0,0,0,1.26.75,1.71,1.71,0,0,0,1.42-.51,3.79,3.79,0,0,0,.4-2.13,4.75,4.75,0,0,0-.52-2.81,44,44,0,0,0-5.54-3.35q-4.2-2.36-5.12-4.28a10.49,10.49,0,0,1-.92-4.56,11.83,11.83,0,0,1,1-5.53,6.44,6.44,0,0,1,3.36-2.75,14.5,14.5,0,0,1,5.51-1,15.63,15.63,0,0,1,5.3.79,8.14,8.14,0,0,1,3.35,2.09A5.61,5.61,0,0,1,207.7,41a17.43,17.43,0,0,1,.25,3.47v1.82Z" transform="translate(-9.54 -24.29)"/><path class="cls-3" d="M232.81,52.46H220.47v6.77a7.52,7.52,0,0,0,.31,2.74,1.19,1.19,0,0,0,1.18.61,1.43,1.43,0,0,0,1.45-.81,8.91,8.91,0,0,0,.37-3.15V54.49h9V56.8a20.71,20.71,0,0,1-.37,4.46,9.08,9.08,0,0,1-1.71,3.33,8.33,8.33,0,0,1-3.41,2.65,13.19,13.19,0,0,1-5.18.88,15,15,0,0,1-5.33-.87,8.53,8.53,0,0,1-3.6-2.39,8.65,8.65,0,0,1-1.78-3.35,21.63,21.63,0,0,1-.5-5.32V47.06a15.54,15.54,0,0,1,1.11-6.48,7.61,7.61,0,0,1,3.63-3.63,12.82,12.82,0,0,1,5.8-1.26,13,13,0,0,1,6.62,1.52,8.37,8.37,0,0,1,3.66,4,18.91,18.91,0,0,1,1,7.07v4.15Zm-9.55-5.1V45.08a11.54,11.54,0,0,0-.26-3.14,1,1,0,0,0-1.06-.71,1.16,1.16,0,0,0-1.23.6,12.54,12.54,0,0,0-.24,3.24v2.29h2.78Z" transform="translate(-9.54 -24.29)"/><path class="cls-3" d="M245.62,36.25l-0.17,2.88A7.14,7.14,0,0,1,248,36.55a6.8,6.8,0,0,1,3.46-.86,6.55,6.55,0,0,1,4,1.16,5.14,5.14,0,0,1,2,2.91,26.64,26.64,0,0,1,.45,5.86V67.56h-9.53V45.88a20.17,20.17,0,0,0-.21-3.94,1.07,1.07,0,0,0-1.18-.71,1.18,1.18,0,0,0-1.27.81,20.45,20.45,0,0,0-.26,4.35V67.56h-9.53V36.25h9.7Z" transform="translate(-9.54 -24.29)"/><path class="cls-3" d="M269.71,48.38h-8.94v-2.1a14.81,14.81,0,0,1,.84-5.6A7.77,7.77,0,0,1,265,37.2a12.65,12.65,0,0,1,6.56-1.51q4.84,0,7.29,1.71a6.67,6.67,0,0,1,2.95,4.2,65.84,65.84,0,0,1,.5,10.25V67.56H273V64.77a5.82,5.82,0,0,1-5.54,3.36,8.05,8.05,0,0,1-4.59-1.4q-2.09-1.4-2.09-6.15V58q0-3.51,1.11-4.79t5.5-3q4.69-1.84,5-2.48a6.59,6.59,0,0,0,.33-2.59,8.75,8.75,0,0,0-.37-3.2,1.26,1.26,0,0,0-1.21-.74,1.13,1.13,0,0,0-1.2.63,12.71,12.71,0,0,0-.24,3.24v3.28Zm3,4.29a7.07,7.07,0,0,0-2.65,2.81,11.14,11.14,0,0,0-.37,3.26,9.48,9.48,0,0,0,.32,3.14,1.24,1.24,0,0,0,1.26.71,1.17,1.17,0,0,0,1.17-.55,9,9,0,0,0,.27-2.91V52.67Z" transform="translate(-9.54 -24.29)"/></svg>