<svg id="Layer_1" data-name="Layer 1" xmlns="http://www.w3.org/2000/svg" viewBox="0 0 226.81 41.6"><defs><style>.cls-1{fill:#0d8837;}.cls-2{fill:#0c5126;}.cls-3{fill:#feea10;}</style></defs><title>OzLOtto_Lines</title><path class="cls-1" d="M102.44,30.6c0,1.07,0,10.2.09,15.81l0.16,8.15c1.07,0,6.08-.12,9.51-0.37l0.16,8.29c-1.07,0-15.89-.14-19.33-0.07,0.08-2.36-.1-11.89-0.12-13L92.8,43.53c0-.71-0.32-11.89-0.42-12.74Z" transform="translate(-15.5 -26.33)"/><path class="cls-2" d="M91.9,63.53l0-1.16c0.06-1.72,0-7.79-.12-12.9L91.7,43.55c0-1.31-.33-11.88-0.41-12.63l-0.14-1.2,12.37-.24,0,1.1c0,0.33,0,1.41,0,2.93,0,3.41,0,9,.08,12.89l0.14,7c3.44-.08,6.37-0.2,8.35-0.34l1.15-.09,0.2,10.55-1.1,0-5.33,0c-5,0-11.81-.09-14,0Zm1.64-31.67c0.14,3.23.36,11.54,0.36,11.64L94,49.43c0,2.17.17,8.74,0.15,11.87,2.89,0,8.59,0,12.91.05l4.18,0-0.12-6c-2.17.13-5.09,0.23-8.4,0.29l-1.1,0-0.19-9.24c-0.08-3.91-.08-9.51-0.09-12.93,0-.7,0-1.31,0-1.79Z" transform="translate(-15.5 -26.33)"/><path class="cls-1" d="M158.11,62c0-1.08,0-7.06-.13-11.56l-0.21-10.58c-1.75,0-7.89.35-9.21,0.43l-0.15-7.73c1.95,0.16,12.15.11,12.63,0.1l3.77-.07c0.8,0,10.21-.35,12.28-0.58l0.15,7.72c-0.8,0-8.75-.07-9.14-0.06l0.22,11.2c0.08,4.33.2,10.07,0.35,10.91L158.08,62h0Z" transform="translate(-15.5 -26.33)"/><path class="cls-2" d="M156.77,50.51l-0.19-9.35c-2.46.1-6.86,0.32-8,.38l-1.25.07-0.2-10.33,1.34,0.11c1.86,0.16,11.85.11,12.5,0.09l3.77-.07c0.87,0,10.22-.36,12.17-0.57l1.32-.15L178.47,41l-1.21,0c-0.47,0-3.39,0-5.82,0l-2.11,0,0.19,10c0.06,3,.18,9.92.33,10.71l0.26,1.4-13.38.27S156.82,53.52,156.77,50.51ZM159,38.67l0.23,11.79c0.06,3,.09,6.7.1,9.13v1.19l8.06-.16c-0.09-1.8-.16-5.09-0.25-9.7l-0.24-12.41,1.21,0,3.38,0,4.54,0-0.1-5.2c-3.39.22-10.52,0.47-11.07,0.48l-3.77.07c-0.33,0-8,.05-11.42,0l0.1,5.19c2.3-.12,6.58-0.33,8-0.36Z" transform="translate(-15.5 -26.33)"/><path class="cls-1" d="M186.56,61.5c0-1.08,0-7.06-.13-11.56l-0.21-10.58c-1.75,0-7.89.35-9.21,0.43l-0.15-7.73c1.95,0.16,12.15.11,12.63,0.1l3.73-.07c0.8,0,10.21-.35,12.28-0.58l0.15,7.72c-0.8,0-8.75-.08-9.17-0.07l0.22,11.2c0.08,4.33.2,10.07,0.35,10.91l-10.5.2h0v0Z" transform="translate(-15.5 -26.33)"/><path class="cls-2" d="M185.39,62.7l-0.06-2.43c0-.46,0-1,0-1.62,0-2.41,0-5.85-.1-8.69L185,40.61c-2.45.1-6.86,0.33-8,.39l-1.25.07-0.2-10.33L177,30.84c1.87,0.16,12,.1,12.52.1l3.73-.07c1,0,10.2-.35,12.17-0.57l1.32-.15,0.2,10.26-1.21,0c-0.47,0-3.41,0-5.85,0l-2.11,0,0.19,10c0.06,3,.19,9.92.33,10.71l0.26,1.4Zm2-24.58,0.23,11.79c0.06,2.85.08,6.3,0.1,8.72,0,0.6,0,1.14,0,1.59l8-.15c-0.09-1.8-.16-5.09-0.25-9.7L195.26,38l1.21,0,3.38,0,4.58,0-0.1-5.19c-3.37.22-10.46,0.47-11.07,0.48l-3.73.07c-0.09,0-7.89.06-11.42,0l0.1,5.19c2.3-.12,6.58-0.33,8-0.36Z" transform="translate(-15.5 -26.33)"/><path class="cls-1" d="M222.69,61.54c14.46-.28,18.53-10.39,18.41-16.69-0.18-9.19-6.62-14.58-16.93-14.38-12.72.25-18.55,9-18.4,17.07C205.91,54.28,211.16,61.76,222.69,61.54Zm7.4-16.19h0c0.12,6.17-2.66,9.32-7.06,9.33-3.31.06-6.15-2.53-6.25-8-0.1-5,2.33-9.33,7-9.42,3.92-.08,6.25,2.81,6.35,8.12h0Z" transform="translate(-15.5 -26.33)"/><path class="cls-2" d="M219.23,62.58A17.23,17.23,0,0,1,209.12,58a15,15,0,0,1-4.55-10.45,17.63,17.63,0,0,1,4.69-12.32c3.56-3.8,8.71-5.87,14.89-6,11-.21,18,5.75,18.16,15.56,0.12,6.06-3.83,17.61-19.59,17.92l0-1.21,0,1.21A24.66,24.66,0,0,1,219.23,62.58Zm8.4-30.73a24.22,24.22,0,0,0-3.43-.16c-5.51.11-10.06,1.91-13.17,5.22a15.22,15.22,0,0,0-4,10.62,12.63,12.63,0,0,0,3.81,8.75c2.83,2.74,6.93,4.15,11.87,4,13.82-.27,17.32-9.84,17.22-15.45C239.74,37.48,235.22,32.78,227.62,31.85Zm-5.56,24c-3.11-.38-6.38-2.92-6.5-9.18a12.52,12.52,0,0,1,1.92-7.27A7.47,7.47,0,0,1,223.71,36a6.62,6.62,0,0,1,5.58,2.5,11.1,11.1,0,0,1,2,6.8h0c0.07,3.69-.81,6.49-2.61,8.34A7.72,7.72,0,0,1,223,55.89,6.89,6.89,0,0,1,222.06,55.84Zm2.52-17.37a5.88,5.88,0,0,0-.83,0,5.06,5.06,0,0,0-4.28,2.34,10.12,10.12,0,0,0-1.5,5.85c0.09,4.28,2,6.91,5,6.85A5.31,5.31,0,0,0,227,52c1.32-1.35,2-3.63,1.93-6.6h0A9.29,9.29,0,0,0,227.39,40,4.07,4.07,0,0,0,224.59,38.47Z" transform="translate(-15.5 -26.33)"/><path class="cls-1" d="M137.53,28.93s9.42,12.62,8.39,24.15-11,13.5-11,13.5a11.47,11.47,0,0,0-6.6-10.33C121.48,52.72,118,57.81,118,57.81s-3.11-5.57-2.77-11,5.62-11.52,12.35-14.44c0,0-2.75,3.72.19,5.33s6.42,0.94,7.92-2.89A31.74,31.74,0,0,0,137.53,28.93Z" transform="translate(-15.5 -26.33)"/><path class="cls-2" d="M133.86,67.92V66.59a10.42,10.42,0,0,0-6-9.34c-5.92-3-8.83,1-9,1.18l-1,1.44-0.86-1.53c-0.13-.24-3.26-5.92-2.91-11.65s5.82-12.26,13-15.38l3.71-1.61L128.49,33a4.48,4.48,0,0,0-.92,2.83,1.31,1.31,0,0,0,.75.89,4.59,4.59,0,0,0,3.8.45,4.53,4.53,0,0,0,2.57-2.78,30.81,30.81,0,0,0,1.77-5.65l0.5-2.38,1.46,2c0.39,0.53,9.66,13.09,8.61,24.91a15.8,15.8,0,0,1-11.85,14.48Zm-9-13.95a12,12,0,0,1,4,1.3,12.61,12.61,0,0,1,7.1,9.87c2.53-.92,8.13-3.86,8.87-12.16s-4.32-17.46-6.83-21.4a33.64,33.64,0,0,1-1.28,3.6,6.63,6.63,0,0,1-3.85,4,6.79,6.79,0,0,1-5.61-.59,3.51,3.51,0,0,1-1.84-2.35,4.15,4.15,0,0,1,0-1.59c-5.13,3-8.79,7.84-9,12.14a20.86,20.86,0,0,0,2,9.09A8.32,8.32,0,0,1,124.85,54Z" transform="translate(-15.5 -26.33)"/><path class="cls-1" d="M34.68,65.18H34.6C22.28,65.41,15.67,57,15.5,48.67,15.32,39.1,22.26,29.28,35.9,29c8.82-.17,15.3,3.76,17.88,10.41l0-11.26,3.17,0.36c1.11,0.12,11,.28,16.86.38,4.5,0.07,7.08.12,7.78,0.15l1.79,0.08,1.4,3.29-0.62,1.19c-0.73,1.4-6.7,11.57-10.3,17.65,3.21-.11,6.59-0.26,7.22-0.35l3.25-.45,0,3.27,0,10.29-2.81,0H75.3c-6.9,0-18.46,0-19.68,0l-1.82,0L52.14,60.7,53,59.36c1.34-2.14,7.23-12.1,10.66-17.91l-1.46,0c-2.33,0-5-.08-5.49-0.07l-2.26,0A19.92,19.92,0,0,1,55,45.93a19,19,0,0,1-5.19,13.32C46.2,63,41,65.06,34.68,65.18ZM36,34.7C25.65,34.9,21.07,42,21.19,48.56c0.15,7.68,7,11.05,13.3,10.94h0.07c4.81-.09,8.56-1.5,11.15-4.19A13.34,13.34,0,0,0,49.32,46C49.17,38.68,44.32,34.54,36,34.7Zm24.2,23.68,15.09,0h3.34V56.77c-3.64.17-8.92,0.32-9.84,0.34l-5.33.1,2.87-4.48c0.46-.73,7.13-12,10.65-18.08l-3.31-.06c-6.14-.1-11.15-0.19-14.23-0.28V35.7l2.79,0c2.62,0,5.59.09,6.27,0.07l5.09-.1L71,40.1C70.95,40.25,64.12,51.82,60.21,58.39Zm-25.32.42c-4.4.09-9.21-3.31-9.36-11-0.14-7.11,4-12.36,9.93-12.48a8.57,8.57,0,0,1,6.28,2.37c2,2,3.12,5,3.16,8.68,0.11,9-5.09,12.28-10,12.38h0Zm0.68-17.74c-3.08.06-4.41,3.5-4.35,6.68,0.07,3.36,1.43,5.42,3.56,5.37h0c2.06,0,4.49-1.22,4.43-6.62,0-2.13-.53-3.79-1.43-4.66A2.93,2.93,0,0,0,35.57,41.07Z" transform="translate(-15.5 -26.33)"/><path class="cls-3" d="M34.7,62.34C48.44,62.1,52.43,52.18,52.31,46c-0.18-9-6.42-14.32-16.21-14.13-12.16.24-17.76,8.84-17.61,16.75C18.62,55.18,23.66,62.54,34.7,62.34ZM35,56c-3.38.07-6.35-2.67-6.46-8.16-0.1-5,2.45-9.49,7.14-9.58,4-.08,6.48,2.95,6.54,8.24C42.28,52.58,39.42,55.88,35,56ZM56.77,38.52c1.19,0,10.56.17,12,.14-0.88,1.49-11.36,19.26-13.2,22.21l0.19,0.38c1.81,0,24.86,0,25.9-.05l0-7.47c-1.15.18-10.32,0.49-12.75,0.53,0.48-.75,11.88-20.05,12.87-22l-0.18-.41c-1.93-.09-23-0.34-24.83-0.55Z" transform="translate(-15.5 -26.33)"/></svg>