<svg id="Layer_1" data-name="Layer 1" xmlns="http://www.w3.org/2000/svg" xmlns:xlink="http://www.w3.org/1999/xlink" viewBox="0 0 263.3 43.54"><defs><style>.cls-1{fill:url(#linear-gradient);}.cls-2{fill:#13110c;}.cls-3{fill:#e31019;}.cls-4{fill:#fff;}</style><linearGradient id="linear-gradient" x1="241.96" y1="795.42" x2="285.5" y2="795.42" gradientTransform="matrix(1, 0, 0, -1, -22.21, 817.19)" gradientUnits="userSpaceOnUse"><stop offset="0" stop-color="#8c1914"/><stop offset="0.04" stop-color="#941914"/><stop offset="0.2" stop-color="#af1918"/><stop offset="0.36" stop-color="#c61718"/><stop offset="0.52" stop-color="#d51116"/><stop offset="0.69" stop-color="#de1118"/><stop offset="0.85" stop-color="#e31019"/></linearGradient></defs><title>PowerBall_Lines</title><circle class="cls-1" cx="241.53" cy="21.77" r="21.77"/><path class="cls-2" d="M29.34,61.83H22.21V37.36H29a50.13,50.13,0,0,1,6.18.27A8.88,8.88,0,0,1,40.6,40q1.75,1.87,1.75,5.65a9.74,9.74,0,0,1-1.48,5.49,7,7,0,0,1-4.56,2.92,21.75,21.75,0,0,1-5,.53H29.36v7.24h0Zm0-12.59h1.35a8.22,8.22,0,0,0,2.89-.37A2.63,2.63,0,0,0,35,46.16a2.37,2.37,0,0,0-1.88-2.6,10.34,10.34,0,0,0-2.36-.21H29.34v5.88Z" transform="translate(-22.21 -24.92)"/><path class="cls-2" d="M68.56,48.94c0,4.43-1.09,7.79-3.23,10s-5.27,3.37-9.38,3.37q-5.49,0-8.59-3.1c-2-2.07-3.07-5.12-3.07-9.14q0-13.24,12.59-13.25C64.69,36.86,68.56,40.89,68.56,48.94Zm-7.37.93c0-2.76-.32-4.69-1-5.78a3.81,3.81,0,0,0-3.58-1.67A4.51,4.51,0,0,0,52.79,44c-0.8,1.06-1.19,2.81-1.19,5.22a18.17,18.17,0,0,0,.29,3.45,7.35,7.35,0,0,0,.72,2.2,3,3,0,0,0,1.11,1.19A4.21,4.21,0,0,0,55,56.6a7.22,7.22,0,0,0,1.4.11,5.82,5.82,0,0,0,1.91-.27,3.75,3.75,0,0,0,1.48-.93,4.32,4.32,0,0,0,1.06-2.09A16.23,16.23,0,0,0,61.19,49.87Z" transform="translate(-22.21 -24.92)"/><path class="cls-2" d="M84.12,61.83H75.77L70.26,37.36h7.79c1.22,6.84,2.07,12.17,2.6,15.93q0.76-4.89,3-15.93H91.7q2.39,11.93,3,15.9,0.72-5.57,2.6-15.9h7.5L99.28,61.83H90.83c-1.78-8.48-2.89-14-3.29-16.51C87.12,48.07,85.95,53.58,84.12,61.83Z" transform="translate(-22.21 -24.92)"/><path class="cls-2" d="M125.57,61.83H107.26V37.36h17.36v6.07H114.39v2.81h8.8v6h-8.8v3.5h11.18v6Z" transform="translate(-22.21 -24.92)"/><path class="cls-2" d="M141.42,61.83l-3.95-8.59h-2v8.59h-7.1V37.36H138a21.23,21.23,0,0,1,6,.72,5.91,5.91,0,0,1,3.21,2.31,7.53,7.53,0,0,1,1.17,4.43,9.53,9.53,0,0,1-.9,4.32A6.48,6.48,0,0,1,144,52l5.22,9.78h-7.85Zm-5.91-14h1.09a8.74,8.74,0,0,0,3.47-.42,2.09,2.09,0,0,0,1-2,2.28,2.28,0,0,0-.93-2.09,6.18,6.18,0,0,0-2.65-.4h-2v4.93h0Z" transform="translate(-22.21 -24.92)"/><path class="cls-3" d="M151,61.8V37.34h6.57a47.07,47.07,0,0,1,6.92.37c3.66,0.61,5.51,2.44,5.51,5.54A5.59,5.59,0,0,1,169,46.88a6.59,6.59,0,0,1-3.55,2Q171,49.32,171,54.56a6.35,6.35,0,0,1-1.7,4.66,7.94,7.94,0,0,1-4.74,2.17,48.1,48.1,0,0,1-6.73.4H151Zm7.05-15.11h1.35a8.72,8.72,0,0,0,2.25-.21,1.67,1.67,0,0,0,1.17-1.8,1.44,1.44,0,0,0-.87-1.48,7.56,7.56,0,0,0-2.36-.27h-1.51v3.76h0Zm0,5.22V56.1h1.67a10.37,10.37,0,0,0,2.49-.21A1.78,1.78,0,0,0,163.58,54q0-1.79-2.07-2a17.52,17.52,0,0,0-2-.08h-1.48Z" transform="translate(-22.21 -24.92)"/><path class="cls-3" d="M179.29,61.8h-7.16l8.51-24.46h8.3l8.22,24.46h-7.79L188,57.11h-7.1ZM183,51.3h3.68c-0.27-1.09-.53-2.15-0.82-3.15s-0.48-1.78-.61-2.25-0.24-1-.32-1.4C184.51,46,183.85,48.26,183,51.3Z" transform="translate(-22.21 -24.92)"/><path class="cls-3" d="M217.49,61.8h-18V37.34h7.13V55.78h10.87v6Z" transform="translate(-22.21 -24.92)"/><path class="cls-3" d="M238.21,61.8h-18V37.34h7.13V55.78h10.87v6Z" transform="translate(-22.21 -24.92)"/><polygon class="cls-4" points="246.03 2.17 249.67 9.57 257.83 10.75 251.93 16.5 253.33 24.62 246.03 20.78 238.74 24.62 240.12 16.5 234.22 10.75 242.38 9.57 246.03 2.17"/></svg>