<svg id="Layer_1" data-name="Layer 1" xmlns="http://www.w3.org/2000/svg" xmlns:xlink="http://www.w3.org/1999/xlink" viewBox="0 0 454.07 49.24"><defs><style>.cls-1,.cls-2,.cls-3,.cls-4,.cls-5,.cls-6,.cls-7,.cls-8,.cls-9{stroke:#28316f;stroke-miterlimit:10;}.cls-1{fill:url(#linear-gradient);}.cls-2{fill:url(#linear-gradient-2);}.cls-3{fill:url(#linear-gradient-3);}.cls-4{fill:url(#linear-gradient-4);}.cls-5{fill:url(#linear-gradient-5);}.cls-6{fill:url(#linear-gradient-6);}.cls-7{fill:url(#linear-gradient-7);}.cls-8{fill:url(#linear-gradient-8);}.cls-9{fill:none;}.cls-10{fill:url(#radial-gradient);}.cls-11{fill:#26326d;}</style><linearGradient id="linear-gradient" x1="25.84" y1="29.15" x2="25.84" y2="70.23" gradientUnits="userSpaceOnUse"><stop offset="0" stop-color="#4ec2f1"/><stop offset="1" stop-color="#25447a"/></linearGradient><linearGradient id="linear-gradient-2" x1="115.13" y1="29.15" x2="115.13" y2="70.23" xlink:href="#linear-gradient"/><linearGradient id="linear-gradient-3" x1="147.67" y1="29.15" x2="147.67" y2="70.23" xlink:href="#linear-gradient"/><linearGradient id="linear-gradient-4" x1="171.93" y1="29.15" x2="171.93" y2="70.23" xlink:href="#linear-gradient"/><linearGradient id="linear-gradient-5" x1="200.42" y1="29.15" x2="200.42" y2="70.23" xlink:href="#linear-gradient"/><linearGradient id="linear-gradient-6" x1="227.76" y1="29.15" x2="227.76" y2="70.23" xlink:href="#linear-gradient"/><linearGradient id="linear-gradient-7" x1="251.66" y1="29.15" x2="251.66" y2="70.23" xlink:href="#linear-gradient"/><linearGradient id="linear-gradient-8" x1="271.43" y1="29.15" x2="271.43" y2="70.23" xlink:href="#linear-gradient"/><radialGradient id="radial-gradient" cx="61.9" cy="42.85" r="31.26" xlink:href="#linear-gradient"/></defs><title>Powerball_Australia_Lines</title><path class="cls-1" d="M14.33,29.15H25.09a25.26,25.26,0,0,1,6.71.69,7.5,7.5,0,0,1,3.53,2A6.79,6.79,0,0,1,36.93,35a28,28,0,0,1,.42,5.7v3.58A14.9,14.9,0,0,1,36.53,50a5.56,5.56,0,0,1-3,2.77,14.1,14.1,0,0,1-5.67,1H25V70.23H14.33V29.15Zm10.68,7V46.63l0.79,0a2.47,2.47,0,0,0,2-.72,5.32,5.32,0,0,0,.57-3V39.56a4,4,0,0,0-.66-2.74A4.14,4.14,0,0,0,25,36.18Z" transform="translate(-13.83 -25.07)"/><path class="cls-2" d="M136.3,29.15l-4.76,41.08H118.21q-1.83-9.47-3.23-21.54-0.64,5.18-3,21.54H98.74L94,29.15h10.38l1.13,14.33,1.09,13.86q0.59-10.76,3-28.19H120.6q0.22,1.8,1.17,13.55l1.18,15.63q0.91-14.92,3-29.18H136.3Z" transform="translate(-13.83 -25.07)"/><path class="cls-3" d="M138.41,29.15h17.81v8.22h-7.13v7.79h6.67V53h-6.67v9h7.84v8.22H138.41V29.15Z" transform="translate(-13.83 -25.07)"/><path class="cls-4" d="M160,29.15h7.56a57.85,57.85,0,0,1,10.24.58,7.05,7.05,0,0,1,4.36,3q1.69,2.4,1.69,7.65,0,4.8-1.19,6.44t-4.69,2q3.17,0.79,4.26,2.11a6.3,6.3,0,0,1,1.36,2.42,38.3,38.3,0,0,1,.27,6.08V70.23h-9.92V56.58q0-3.3-.52-4.09t-2.73-.79V70.23H160V29.15Zm10.68,7v9.13a4.7,4.7,0,0,0,2.52-.49q0.72-.5.72-3.21V39.35a3.43,3.43,0,0,0-.7-2.56A4,4,0,0,0,170.68,36.18Z" transform="translate(-13.83 -25.07)"/><path class="cls-5" d="M188,29.15h10.66a28.11,28.11,0,0,1,7.65.79,7.59,7.59,0,0,1,4.2,3.18q1.6,2.4,1.6,7.72,0,3.6-1.13,5T206.51,48q3.7,0.84,5,2.78t1.32,6v3.81a15.12,15.12,0,0,1-1,6.17,5.13,5.13,0,0,1-3,2.74q-2.08.74-8.53,0.74H188V29.15Zm10.68,7v9.13l1.07,0a2.12,2.12,0,0,0,2-.77q0.43-.77.43-4.43a7.16,7.16,0,0,0-.36-2.7,1.71,1.71,0,0,0-.93-1A8.25,8.25,0,0,0,198.67,36.18Zm0,15.53V63.2q2.26-.08,2.88-0.71t0.62-3.12V55.54q0-2.64-.56-3.2T198.67,51.71Z" transform="translate(-13.83 -25.07)"/><path class="cls-6" d="M235.15,29.15l6.11,41.08H230.34l-0.57-7.38h-3.82l-0.64,7.38h-11l5.45-41.08h15.44Zm-5.66,26.41q-0.81-7-1.63-17.25-1.63,11.8-2,17.25h3.68Z" transform="translate(-13.83 -25.07)"/><path class="cls-7" d="M253.76,29.15V62h6.5v8.22H243.07V29.15h10.68Z" transform="translate(-13.83 -25.07)"/><path class="cls-8" d="M273.52,29.15V62H280v8.22H262.84V29.15h10.68Z" transform="translate(-13.83 -25.07)"/><circle class="cls-9" cx="52.64" cy="24.62" r="24.12"/><path class="cls-10" d="M51.23,50q-3.17,3.42-6.57,7.32a23.09,23.09,0,0,1,.71-17,85,85,0,0,0,6,8.36A1.8,1.8,0,0,0,51.23,50Zm2.14-2.28c4.19-4.43,8-8.22,11.45-11.42A1.58,1.58,0,0,1,65,34.34a34.05,34.05,0,0,0-10.7-4.29,23,23,0,0,0-7.16,7,23.31,23.31,0,0,0-1.36,2.38L46,39.79a86.26,86.26,0,0,0,6,8.08A1.81,1.81,0,0,1,53.36,47.7ZM67.9,35.4a25.87,25.87,0,0,1,3.23,2.43c3.63,3.28,5.88,5.75,7.68,8.91a1.69,1.69,0,0,1,.6.15,30.77,30.77,0,0,0,.14-10.73,1.39,1.39,0,0,1-.65-2.68,15.85,15.85,0,0,0-2.07-4.42c-0.53-.27-1.06-0.52-1.61-0.74-2.57,2-5.09,4.18-7.5,6.36A1.69,1.69,0,0,1,67.9,35.4ZM65.49,34a1.66,1.66,0,0,1,1.66.08l0,0c2.68-2.43,5.05-4.47,7.07-6.13a23.15,23.15,0,0,0-19.63,1.9,35.39,35.39,0,0,1,5.89,1.75A42.71,42.71,0,0,1,65.49,34Zm-2,29.52a2,2,0,0,1-.66-2.65,125,125,0,0,1-9.37-9.66,1.73,1.73,0,0,1-1.7-.39c-3,3.27-5.24,6-6.64,7.68A23.09,23.09,0,0,0,74.82,71.23c-3.09-2.53-6.16-5.1-9.13-7.75A2,2,0,0,1,63.46,63.48ZM79.24,33.4A1.38,1.38,0,0,1,80,36a25.36,25.36,0,0,1,0,11.39,1.66,1.66,0,0,1,.08,1.9A118,118,0,0,1,85,63.53c0.29-.38.57-0.78,0.83-1.18a23.07,23.07,0,0,0-8.68-33.15A21.26,21.26,0,0,1,79.24,33.4ZM77.8,49.78a1.66,1.66,0,0,1-.48-2.3A1.64,1.64,0,0,1,77.88,47a30.27,30.27,0,0,0-4.52-6,45.91,45.91,0,0,0-5.62-4.8,1.65,1.65,0,0,1-2.38.68c-4.16,3.89-8,7.8-11.21,11.28a1.8,1.8,0,0,1,.29,2.31l-0.1.12c2.48,2.84,5.53,6.09,9.14,9.53a2,2,0,0,1,2.86,2.65c2.9,2.62,6.11,5.31,9.64,8a23,23,0,0,0,8.56-6.67,72.26,72.26,0,0,0-5.09-14.2A1.65,1.65,0,0,1,77.8,49.78Z" transform="translate(-13.83 -25.07)"/><path class="cls-11" d="M298.81,42h6.33l9.48,26.79h-6.07l-1.77-5.51h-9.86l-1.82,5.51h-5.85ZM298.44,58.7h6.86l-3.38-10.54Z" transform="translate(-13.83 -25.07)"/><path class="cls-11" d="M322.77,49V60.95a6.27,6.27,0,0,0,.4,2.54A2.75,2.75,0,0,0,325.93,65a3.61,3.61,0,0,0,3.62-2.14,7.79,7.79,0,0,0,.51-3.07V49h5.25V68.82h-5V66c0,0.06-.17.24-0.36,0.54a3.65,3.65,0,0,1-.69.8,7.2,7.2,0,0,1-2.35,1.49,8,8,0,0,1-2.65.4q-4.38,0-5.91-3.16a12.13,12.13,0,0,1-.85-5.14V49h5.31Z" transform="translate(-13.83 -25.07)"/><path class="cls-11" d="M344.36,62.49a3.45,3.45,0,0,0,.71,2q1,1,3.58,1a5.47,5.47,0,0,0,2.44-.45,1.45,1.45,0,0,0,.9-1.36,1.47,1.47,0,0,0-.73-1.33,29.71,29.71,0,0,0-5.42-1.56,11.27,11.27,0,0,1-4.76-2.09,4.53,4.53,0,0,1-1.38-3.56,6.17,6.17,0,0,1,2.16-4.72,8.68,8.68,0,0,1,6.07-2A11.16,11.16,0,0,1,354,49.93q2.34,1.48,2.69,5.12H351.5a3.06,3.06,0,0,0-.56-1.58A3.56,3.56,0,0,0,348,52.41a4.2,4.2,0,0,0-2.42.53,1.52,1.52,0,0,0-.72,1.24,1.35,1.35,0,0,0,.76,1.29,33.21,33.21,0,0,0,5.41,1.44,9.93,9.93,0,0,1,4.64,2.2,5,5,0,0,1,1.53,3.73A6,6,0,0,1,355,67.63q-2.19,1.86-6.78,1.86t-6.91-2a6.41,6.41,0,0,1-2.23-5h5.25Z" transform="translate(-13.83 -25.07)"/><path class="cls-11" d="M359,52.88V49.19h2.76V43.67h5.12v5.52h3.22v3.69h-3.22V63.35a2.35,2.35,0,0,0,.31,1.52,3.4,3.4,0,0,0,1.89.3h0.5l0.52,0V69l-2.45.09q-3.67.13-5-1.27a3.78,3.78,0,0,1-.87-2.74V52.88H359Z" transform="translate(-13.83 -25.07)"/><path class="cls-11" d="M384.44,48.55l0.44,0v5.31L384,53.81l-0.62,0q-3.12,0-4.2,2a7.92,7.92,0,0,0-.6,3.53v9.47h-5.22V49h4.94v3.45a10.93,10.93,0,0,1,2.09-2.71,5.69,5.69,0,0,1,3.78-1.22h0.25Z" transform="translate(-13.83 -25.07)"/><path class="cls-11" d="M395.76,56.77a8.22,8.22,0,0,0,2.07-.45,1.56,1.56,0,0,0,1.12-1.47,1.74,1.74,0,0,0-.86-1.68,5.41,5.41,0,0,0-2.51-.46,3.3,3.3,0,0,0-2.63.91,3.74,3.74,0,0,0-.74,1.82h-5a7.57,7.57,0,0,1,1.46-4.27q2.06-2.62,7.08-2.62a12.63,12.63,0,0,1,5.8,1.29q2.54,1.29,2.54,4.87v9.09q0,0.94,0,2.29a2.88,2.88,0,0,0,.31,1.38,1.86,1.86,0,0,0,.76.6v0.76h-5.63a5.72,5.72,0,0,1-.33-1.13c-0.06-.35-0.11-0.75-0.15-1.2a10.68,10.68,0,0,1-2.49,2,7.51,7.51,0,0,1-3.8,1,6.56,6.56,0,0,1-4.47-1.53,5.46,5.46,0,0,1-1.76-4.35,5.64,5.64,0,0,1,2.84-5.29A12.65,12.65,0,0,1,394,57Zm3.17,2.42a5.77,5.77,0,0,1-1,.5,8.54,8.54,0,0,1-1.39.35l-1.18.22A7.73,7.73,0,0,0,393,61a2.37,2.37,0,0,0-1.22,2.2,2.3,2.3,0,0,0,.75,1.92,2.84,2.84,0,0,0,1.82.59,5.41,5.41,0,0,0,3.13-1q1.43-1,1.49-3.58V59.19Z" transform="translate(-13.83 -25.07)"/><path class="cls-11" d="M413.9,68.82h-5.18V42h5.18V68.82Z" transform="translate(-13.83 -25.07)"/><path class="cls-11" d="M424.28,46.65H419V41.87h5.25v4.78ZM419,49h5.25V68.82H419V49Z" transform="translate(-13.83 -25.07)"/><path class="cls-11" d="M437.14,56.77a8.22,8.22,0,0,0,2.07-.45,1.56,1.56,0,0,0,1.12-1.47,1.74,1.74,0,0,0-.86-1.68A5.41,5.41,0,0,0,437,52.7a3.3,3.3,0,0,0-2.63.91,3.74,3.74,0,0,0-.74,1.82h-5A7.57,7.57,0,0,1,430,51.15q2.06-2.62,7.08-2.62a12.63,12.63,0,0,1,5.8,1.29q2.54,1.29,2.54,4.87v9.09q0,0.94,0,2.29a2.88,2.88,0,0,0,.31,1.38,1.86,1.86,0,0,0,.76.6v0.76h-5.63a5.72,5.72,0,0,1-.33-1.13c-0.06-.35-0.11-0.75-0.15-1.2a10.68,10.68,0,0,1-2.49,2,7.51,7.51,0,0,1-3.8,1,6.56,6.56,0,0,1-4.47-1.53,5.46,5.46,0,0,1-1.76-4.35,5.64,5.64,0,0,1,2.84-5.29A12.65,12.65,0,0,1,435.36,57Zm3.17,2.42a5.77,5.77,0,0,1-1,.5,8.54,8.54,0,0,1-1.39.35l-1.18.22a7.73,7.73,0,0,0-2.38.71,2.37,2.37,0,0,0-1.22,2.2,2.3,2.3,0,0,0,.75,1.92,2.84,2.84,0,0,0,1.82.59,5.41,5.41,0,0,0,3.13-1q1.43-1,1.49-3.58V59.19Z" transform="translate(-13.83 -25.07)"/><path class="cls-11" d="M466,50.15q1.95,1.61,1.95,5.33V68.82H462.6v-12a5.51,5.51,0,0,0-.42-2.4,2.91,2.91,0,0,0-2.89-1.53,3.58,3.58,0,0,0-3.59,2.24,7.74,7.74,0,0,0-.5,3V68.82H450V49h5v2.89a8.79,8.79,0,0,1,1.88-2.2,6.52,6.52,0,0,1,4-1.2A7.59,7.59,0,0,1,466,50.15Z" transform="translate(-13.83 -25.07)"/></svg>