<svg id="Layer_1" data-name="Layer 1" xmlns="http://www.w3.org/2000/svg" viewBox="0 0 305.21 49.56"><defs><style>.cls-1{fill:#3bac52;}</style></defs><title>SuperEnalotto_Lines</title><path class="cls-1" d="M9.41,43.35a0.81,0.81,0,0,0,.21-0.23c0.15-.44.25-0.9,0.41-1.34a6.15,6.15,0,0,1,.41-0.87A11.75,11.75,0,0,1,12.86,38c0.28-.26.56-0.51,0.85-0.75A0.82,0.82,0,0,0,14,36.52a4.45,4.45,0,0,1,.21-1.83c0.16-.42.25-0.86,0.41-1.29a5.6,5.6,0,0,1,.41-0.81c0.21-.36.41-0.73,0.65-1.07s0.69-.93,1.05-1.37a17.48,17.48,0,0,1,2.84-2.56c0.46-.36,1-0.65,1.45-1s0.75-.5,1.13-0.74,0.83-.47,1.24-0.7l1.33-.73c0.19-.1.38-0.19,0.58-0.27l1-.41,1.08-.41a1.84,1.84,0,0,1,.21-0.08c0.51-.13,1-0.28,1.53-0.36a11.21,11.21,0,0,1,2-.22A6.73,6.73,0,0,1,33,23a4.43,4.43,0,0,1,1.69.82,0.44,0.44,0,0,1,.13.14c0.12,0.34.24,0.68,0.35,1,0.16,0.51.3,1,.45,1.54,0,0,0,.06,0,0.09,0.13,0.66.26,1.32,0.4,2,0.05,0.25.13,0.49,0.2,0.74s0.1,0.45.16,0.67,0,0.16.07,0.24h0.07A0.66,0.66,0,0,0,36.64,30c0-.31,0-0.63,0-0.94-0.07-1.65-.14-3.3-0.23-5a2.33,2.33,0,0,1,.44-1.31A5.53,5.53,0,0,1,38.54,21a14.47,14.47,0,0,1,1.39-.71c0.45-.24,1-0.19,1.41-0.4a3.6,3.6,0,0,1,1.66-.2c1.4,0,2.79,0,4.19,0a1.41,1.41,0,0,1,.36.11,3.67,3.67,0,0,0,.57.16,5.9,5.9,0,0,1,1.4.27c0.43,0.17.91,0.22,1.36,0.37a9.41,9.41,0,0,1,1,.43,4.77,4.77,0,0,1,.91.47c0.46,0.35.89,0.76,1.32,1.14a0.74,0.74,0,0,1,.09.12,0.89,0.89,0,0,0,.82.4,6.26,6.26,0,0,1,2.11.24c0.48,0.15,1,.23,1.46.37a9.85,9.85,0,0,1,1,.44,8.44,8.44,0,0,1,1,.45c0.45,0.27.88,0.57,1.31,0.88a10.44,10.44,0,0,1,1.85,1.78,3,3,0,0,1,.68,1.81,3.16,3.16,0,0,1-.21,1.36,0.5,0.5,0,0,1-.46.35c-0.87.1-1.73,0.21-2.6,0.33-0.56.08-1.13,0.17-1.68,0.29s-1.24.3-1.87,0.45-1.13.24-1.68,0.38-1.06.31-1.58,0.46-0.95.26-1.42,0.41-0.83.29-1.25,0.44l-0.9.32c-0.4.13-.8,0.24-1.2,0.39s-0.71.29-1.07,0.44l-0.91.37-1.22.51a5.65,5.65,0,0,0-1,.39,4.14,4.14,0,0,0-1,.53,1,1,0,0,1-.3.09,1,1,0,0,0-.19.16l0.22,0.12h0l1.16-.37c0.05,0,.09-0.07.15-0.09l1-.32,1.63-.53,1.28-.38,1.19-.39,1.38-.46L53.27,34l0.14-.06,1.42-.38,1.57-.43A3.25,3.25,0,0,1,56.74,33L59,32.66a21.72,21.72,0,0,1,4.37-.22,10.22,10.22,0,0,1,1.62.2,2.07,2.07,0,0,1,.8.42,7.7,7.7,0,0,1,1.09,1,5,5,0,0,1,.9,1.68A5.35,5.35,0,0,1,68,37.92a10.77,10.77,0,0,1-.27,1.51c-0.11.5-.24,1-0.4,1.47a9.71,9.71,0,0,1-.43,1c-0.1.22-.23,0.43-0.33,0.66a5.14,5.14,0,0,1-1.14,1.65c-0.29.28-.6,0.53-0.92,0.78a0.66,0.66,0,0,0-.31.58,8,8,0,0,1-.35,2.34,13.19,13.19,0,0,1-.73,2,7.54,7.54,0,0,1-3.41,3.7,12.68,12.68,0,0,1-1.64.76,6.38,6.38,0,0,1-2.11.38c-0.68,0-1.38,0-2.05-.07a5.94,5.94,0,0,1-1.61-.45,7.64,7.64,0,0,1-1.84-1.35c-0.54-.45-1.07-0.92-1.6-1.39l-1.06-.94a0.18,0.18,0,0,0-.18,0,3.13,3.13,0,0,0,.29.42c0.6,0.63,1.22,1.25,1.82,1.89,0.44,0.47.85,1,1.28,1.45s0.86,1,1.26,1.46,0.71,1,1.05,1.46,0.5,0.79.74,1.19a4.31,4.31,0,0,1,.31.64c0.23,0.6.47,1.21,0.66,1.82s0.32,1.12.46,1.68a6.41,6.41,0,0,1,.09.66c0.16,1.14.33,2.29,0.49,3.43a10.83,10.83,0,0,1,.07,1.11c0,0.32-.06.39-0.39,0.41-0.65,0-1.31,0-2,.12-0.9.12-1.79,0.28-2.68,0.45-0.56.1-1.11,0.24-1.67,0.36-0.13,0-.26.1-0.39,0.14a0.29,0.29,0,0,1-.22,0,0.25,0.25,0,0,1,0-.22c0.09-.19.2-0.38,0.3-0.56,0.25-.48.52-0.95,0.74-1.44s0.23-.77.38-1.14a9.37,9.37,0,0,0,.4-2.88,18,18,0,0,0-.07-2.3,4.32,4.32,0,0,0-.1-0.86c-0.13-.51-0.29-1-0.46-1.5a8.13,8.13,0,0,0-.41-1A10.79,10.79,0,0,0,49,56.15c-0.31-.47-0.65-0.93-1-1.38-0.21-.28-0.44-0.56-0.67-0.83a0.17,0.17,0,0,0-.3.11,0.7,0.7,0,0,0,0,.36,3.35,3.35,0,0,1,.26,1.43,16.21,16.21,0,0,1,0,3.29,3.05,3.05,0,0,1-.13.5A2.49,2.49,0,0,0,47,60a3.72,3.72,0,0,1-.5,1.19,3.55,3.55,0,0,1-1,1.15c-0.35.28-.73,0.53-1.11,0.78s-0.47.3-.71,0.44a6.36,6.36,0,0,1-.61.32c-0.3.13-.61,0.25-0.91,0.37l-1.09.45-0.24.07c-0.52.14-1,.28-1.58,0.4s-0.83.15-1.24,0.23a8.12,8.12,0,0,1-1,.19c-0.76,0-1.52.06-2.28,0.06a10.67,10.67,0,0,1-1.58-.06c-0.74-.11-1.47-0.28-2.2-0.45-0.49-.11-1-0.22-1.46-0.37a9.14,9.14,0,0,1-1-.43c-0.22-.1-0.43-0.23-0.65-0.34a1.81,1.81,0,0,1-.93-1,0.17,0.17,0,0,0-.28-0.09,6.31,6.31,0,0,1-1.14.5,8.59,8.59,0,0,1-3.15.33,11.35,11.35,0,0,1-2.4-.44,8.65,8.65,0,0,1-1-.43c-0.31-.13-0.62-0.24-0.93-0.37a3.75,3.75,0,0,1-.68-0.34A5.14,5.14,0,0,1,16,61a5.27,5.27,0,0,1-.54-1,3.3,3.3,0,0,1-.16-1.87,12.74,12.74,0,0,1,.44-1.61c0.11-.38.25-0.76,0.39-1.13,0.08-.21.19-0.41,0.28-0.62a8.06,8.06,0,0,1,1-1.84c0.41-.51.77-1.07,1.2-1.57a19.49,19.49,0,0,1,1.63-1.73c0.83-.76,1.7-1.48,2.59-2.18,0.73-.56,1.51-1.06,2.27-1.58,0.37-.26.74-0.52,1.12-0.75s0.8-.46,1.2-0.69a5,5,0,0,0,.53-0.37,0.19,0.19,0,0,0,0-.16,0.32,0.32,0,0,0-.21,0,4.54,4.54,0,0,0-.51.23l-0.76.43-0.56.3-0.77.38-0.84.46-0.8.43-0.65.35c-0.48.27-1,.54-1.42,0.83s-1.05.66-1.58,1c-0.37.23-.74,0.46-1.1,0.7s-0.86.59-1.25,0.92a20.57,20.57,0,0,0-1.87,1.69c-0.7.75-1.31,1.59-2,2.39-0.23.29-.44,0.6-0.67,0.89a0.52,0.52,0,0,1-.86.05,4.15,4.15,0,0,1-1.26-1.59,7,7,0,0,1-.56-1.7c-0.08-.51-0.19-1-0.29-1.53-0.13-.75-0.25-1.49-0.39-2.24a0.86,0.86,0,0,0-.19-0.27Q9.41,45.48,9.41,43.35ZM30.2,24.47c-0.42.05-.85,0.09-1.27,0.16s-0.58.14-.86,0.21l-0.26.08-1.12.45c-0.32.13-.64,0.25-0.94,0.41s-0.86.47-1.28,0.73c-0.66.41-1.33,0.82-2,1.28a19.72,19.72,0,0,0-1.88,1.56A20.1,20.1,0,0,0,19.19,31a0.42,0.42,0,0,0-.09.54,0.46,0.46,0,0,0,.52.09,3.25,3.25,0,0,0,1-.34c0.3-.15.62-0.25,0.93-0.39,0.49-.24,1-0.52,1.47-0.74s1.11-.45,1.66-0.68A6.8,6.8,0,0,1,26.79,29c0.59,0,1.19,0,1.78,0a7.77,7.77,0,0,0,2.92-.55,3.11,3.11,0,0,0,1.36-.93A0.93,0.93,0,0,0,33,27.15a1.79,1.79,0,0,0-.34-1.61,3,3,0,0,0-.75-0.7A3.22,3.22,0,0,0,30.2,24.47ZM12.73,40.88a1.31,1.31,0,0,0,.18.37,0.31,0.31,0,0,0,.29,0c0.58-.42,1.15-0.85,1.72-1.28a3.81,3.81,0,0,1,1.1-.73c0.25-.08.49-0.18,0.73-0.27,0.51-.18,1-0.35,1.52-0.55a9.41,9.41,0,0,0,1-.48,0.86,0.86,0,0,0,.21-0.29,1,1,0,0,0-.35-0.15,13.12,13.12,0,0,0-3,.25,6.07,6.07,0,0,0-1.66.71,3.46,3.46,0,0,0-1.22,1.27A2.68,2.68,0,0,0,12.73,40.88ZM43,20.87a4.63,4.63,0,0,0-2,.58,13.33,13.33,0,0,0-1.27,1.05,0.49,0.49,0,0,0-.19.55,0.45,0.45,0,0,0,.5.24,4.31,4.31,0,0,0,1.88-.52c0.25-.12.48-0.28,0.73-0.41s0.43-.2.64-0.3c0.42-.19.85-0.38,1.27-0.58a0.65,0.65,0,0,0,.16-0.24,0.91,0.91,0,0,0-.26-0.15C44.07,21,43.7,21,43.32,20.9Z" transform="translate(-9.41 -19.7)"/><path class="cls-1" d="M314.61,54.47c0,0.21-.05.41-0.07,0.62a12.11,12.11,0,0,1-.46,3.36,7.11,7.11,0,0,1-5.21,4.77,15.15,15.15,0,0,1-4.83.39,14.24,14.24,0,0,1-3.61-.62,6,6,0,0,1-4.24-5,23.37,23.37,0,0,1-.31-3.72c0-2.77,0-5.54,0-8.31a12.73,12.73,0,0,1,.61-3.89,6.76,6.76,0,0,1,4.68-4.36,13.54,13.54,0,0,1,5.27-.46,10.34,10.34,0,0,1,4.48,1.3,6.81,6.81,0,0,1,3.55,5.58c0,0.43.09,0.86,0.13,1.29v9Zm-10.59-4c0,2.08,0,4.16,0,6.24a9.9,9.9,0,0,0,.18,1.72,0.93,0.93,0,0,0,1.05.76,0.89,0.89,0,0,0,1-.8,13.67,13.67,0,0,0,.16-2q0-5.8,0-11.59a18.3,18.3,0,0,0-.16-2.24,0.87,0.87,0,0,0-1-.82,0.93,0.93,0,0,0-1.11.8,10.52,10.52,0,0,0-.16,1.69C304,46.29,304,48.36,304,50.43Z" transform="translate(-9.41 -19.7)"/><path class="cls-1" d="M119.49,38h8.27l-0.12,2.18,0.24-.26a6.47,6.47,0,0,1,4-2.33A5.71,5.71,0,0,1,137,39.12a4.09,4.09,0,0,1,1.11,2.75c0.07,1.07.13,2.15,0.13,3.22,0,3.92,0,7.83,0,11.75a21.76,21.76,0,0,1-.28,3.2,4.28,4.28,0,0,1-3.64,3.67,6.26,6.26,0,0,1-6.3-2l-0.39-.43V67h-8.15V38Zm10.62,12.77c0-2.06,0-4.12,0-6.18a15.8,15.8,0,0,0-.11-1.73,1.06,1.06,0,0,0-.27-0.62,1.21,1.21,0,0,0-1.93.61,13.94,13.94,0,0,0-.17,2.18q0,5.64,0,11.29a16.89,16.89,0,0,0,.18,2.27,1,1,0,0,0,1.22.83,0.89,0.89,0,0,0,1-.93c0.05-.54.1-1.09,0.1-1.64C130.12,54.79,130.11,52.76,130.11,50.73Z" transform="translate(-9.41 -19.7)"/><path class="cls-1" d="M84.07,52.33c0,0.12,0,.23,0,0.35,0,1.41,0,2.82,0,4.23A4.64,4.64,0,0,0,84.28,58a1.07,1.07,0,0,0,.35.51,1.58,1.58,0,0,0,2.27-.47A3.2,3.2,0,0,0,87.23,57a8.71,8.71,0,0,0-.29-3.43,2,2,0,0,0-.74-1.09C85,51.61,83.85,50.79,82.66,50S80.2,48.37,79,47.53a7.14,7.14,0,0,1-3-5.29,17.09,17.09,0,0,1,.17-5.14,5.75,5.75,0,0,1,3.4-4.34,11.15,11.15,0,0,1,4.16-1,16.8,16.8,0,0,1,5.58.44,10.38,10.38,0,0,1,2.86,1.25,4.75,4.75,0,0,1,2.2,3.38,27.14,27.14,0,0,1,.26,4.7c0,0.23-.13.23-0.29,0.23H86.74c0-.17,0-0.3,0-0.43,0-1.06,0-2.13-.08-3.19a1.05,1.05,0,0,0-1-1.16,1.35,1.35,0,0,0-1.55.8,4.36,4.36,0,0,0-.27,2.15c0,0.26.05,0.52,0.09,0.78a2.47,2.47,0,0,0,1,1.74Q86.16,43.22,87.4,44a46.3,46.3,0,0,1,5,3.33,7.5,7.5,0,0,1,2.79,5.24,24.19,24.19,0,0,1,.06,5.31,5.57,5.57,0,0,1-3.15,4.83,14.48,14.48,0,0,1-1.61.71,14,14,0,0,1-5.39.69A11.94,11.94,0,0,1,80.38,63a11.7,11.7,0,0,1-1.71-1,5.78,5.78,0,0,1-2.23-4,32.74,32.74,0,0,1-.26-5.46,0.19,0.19,0,0,1,.22-0.24h7.52Z" transform="translate(-9.41 -19.7)"/><path class="cls-1" d="M97.69,38h8.15v0.43q0,8.63,0,17.26c0,0.89.06,1.78,0.1,2.67a0.92,0.92,0,0,0,.52,1,1.48,1.48,0,0,0,1.45-.11,0.82,0.82,0,0,0,.29-0.54c0.07-.75.13-1.5,0.13-2.24q0-9,0-18V38h8.16V63.41h-8.29l0.13-2c-0.34.37-.62,0.73-1,1a5.36,5.36,0,0,1-3.34,1.43,7.9,7.9,0,0,1-2.62-.19,4.41,4.41,0,0,1-3.54-3.87,18.62,18.62,0,0,1-.19-3c0-6.16,0-12.32,0-18.47V38Z" transform="translate(-9.41 -19.7)"/><path class="cls-1" d="M195.75,37.7H204L203.89,40c0.09-.1.13-0.14,0.16-0.18a5.76,5.76,0,0,1,5.36-2.55,5.51,5.51,0,0,1,3.36,1.16,4.12,4.12,0,0,1,1.55,2.86,33.36,33.36,0,0,1,.23,3.33c0,6.06,0,12.11,0,18.17v0.4H206.4v-0.4q0-9,0-18c0-.75-0.05-1.5-0.13-2.24a0.84,0.84,0,0,0-.88-0.82,1,1,0,0,0-1.27.68,6.38,6.38,0,0,0-.18,1.35q-0.06,2.16-.06,4.32,0,7.32,0,14.64v0.42h-8.12V37.7Z" transform="translate(-9.41 -19.7)"/><path class="cls-1" d="M268.14,49.9c0,1.24,0,2.48,0,3.71a30.42,30.42,0,0,1-.28,3.81A6.84,6.84,0,0,1,263.16,63a11,11,0,0,1-3.36.64,17.22,17.22,0,0,1-5.45-.52,6.07,6.07,0,0,1-4.65-5.37,31.73,31.73,0,0,1-.27-4.15c0-2.5,0-5,0-7.52a14.75,14.75,0,0,1,.44-3.4,6.67,6.67,0,0,1,4.34-4.76,12,12,0,0,1,4.66-.69,11.71,11.71,0,0,1,5.07,1.08,6.8,6.8,0,0,1,4.08,6c0.12,1.86.11,3.73,0.16,5.59h0Zm-8.18.57h0c0-2,0-4,0-6a16.58,16.58,0,0,0-.14-2,0.86,0.86,0,0,0-.94-0.81,0.93,0.93,0,0,0-1.14.75,10.23,10.23,0,0,0-.17,1.75q0,6.22,0,12.45a9.58,9.58,0,0,0,.18,1.69,1.08,1.08,0,0,0,2.08,0,6.64,6.64,0,0,0,.12-1.18C260,54.93,260,52.7,260,50.47Z" transform="translate(-9.41 -19.7)"/><path class="cls-1" d="M235.45,63.16h-7.92V61.07l-0.07,0-0.11.15a4.91,4.91,0,0,1-4.12,2.43,7.39,7.39,0,0,1-4.09-.93,3.53,3.53,0,0,1-1.78-2.46,12.85,12.85,0,0,1-.3-2.37c0-1.26,0-2.51.05-3.77a7.1,7.1,0,0,1,.27-1.46,2.89,2.89,0,0,1,1.36-1.76,24.57,24.57,0,0,1,4-1.84c1.15-.45,2.28-0.95,3.42-1.42a1.55,1.55,0,0,0,1.06-1.45,13.3,13.3,0,0,0-.11-3.39,1.19,1.19,0,0,0-1.44-1.07,0.86,0.86,0,0,0-.88.83c-0.06.54-.11,1.09-0.12,1.64,0,1,0,2,0,3v0.35h-7.61a0.18,0.18,0,0,1,0-.06,26.8,26.8,0,0,1,.21-4.55A5.85,5.85,0,0,1,220,38.84a9.5,9.5,0,0,1,4.35-1.51,17.47,17.47,0,0,1,5.77.29,7.2,7.2,0,0,1,3.6,2,5,5,0,0,1,1.44,3.17c0.11,1.49.24,3,.26,4.49,0,5.21,0,10.43.05,15.64C235.46,63,235.45,63.06,235.45,63.16Zm-8.16-12-0.1-.06c-0.49.42-1,.83-1.47,1.26a2.77,2.77,0,0,0-.91,1.77,14.26,14.26,0,0,0,0,3.85,1.21,1.21,0,0,0,1.64,1.15,0.77,0.77,0,0,0,.69-0.67,17.92,17.92,0,0,0,.16-1.9c0-1.69,0-3.39,0-5.08C227.31,51.35,227.3,51.24,227.29,51.14Z" transform="translate(-9.41 -19.7)"/><path class="cls-1" d="M151.75,52.81h7.71a0.25,0.25,0,0,1,0,.07,21.22,21.22,0,0,1-.26,5.12,7.21,7.21,0,0,1-4.33,5.12,10.14,10.14,0,0,1-3.7.75,14.09,14.09,0,0,1-5.56-.74,6.72,6.72,0,0,1-4.56-5.07,13.74,13.74,0,0,1-.29-2.74c0-3,0-6,0-9.07a13.72,13.72,0,0,1,.43-3.4,6.53,6.53,0,0,1,4.35-4.66,12.61,12.61,0,0,1,5.2-.69,11.74,11.74,0,0,1,3.79.77,7.08,7.08,0,0,1,4.68,5.85c0.17,1.18.24,2.38,0.29,3.57,0,1,0,2.07,0,3.1,0,0.11,0,.22,0,0.36H148.92c0,0.13,0,.23,0,0.33,0,2,0,3.92,0,5.87a6.63,6.63,0,0,0,.07.94,1.18,1.18,0,0,0,1.6,1.08,1.06,1.06,0,0,0,.9-0.84,12,12,0,0,0,.23-1.86C151.77,55.38,151.75,54.12,151.75,52.81Zm-2.88-7.67h0c0,0.53,0,1.05,0,1.58a0.22,0.22,0,0,0,.25.27q0.94,0,1.88,0a0.23,0.23,0,0,0,.27-0.28c0-.75,0-1.5,0-2.25a13.26,13.26,0,0,0-.18-1.78,1.09,1.09,0,0,0-2.08.07C149,43.55,148.92,44.35,148.86,45.14Z" transform="translate(-9.41 -19.7)"/><path class="cls-1" d="M178.77,32.09h14.14c0,0.11,0,.21,0,0.31,0,1.85,0,3.69,0,5.54a0.29,0.29,0,0,1-.36.35h-5.31v5.91h5.27v5.92h-5.26V57h6.21v6.19H178.77V32.09Z" transform="translate(-9.41 -19.7)"/><path class="cls-1" d="M246.69,32.09V63.15h-8.38V32.09h8.38Z" transform="translate(-9.41 -19.7)"/><path class="cls-1" d="M292.08,38.3c0.64,0,1.24,0,1.83,0,0.28,0,.39.06,0.38,0.36,0,1.12,0,2.23,0,3.35,0,0.25-.06.34-0.32,0.33-0.62,0-1.23,0-1.89,0v0.36q0,7,0,13.94a16.54,16.54,0,0,0,.12,1.7,0.59,0.59,0,0,0,.65.65c0.57,0.07,1.15.1,1.75,0.15v4l-0.33,0c-1.61,0-3.23,0-4.84,0a11.18,11.18,0,0,1-2.52-.31,3.58,3.58,0,0,1-2.75-2.61,9,9,0,0,1-.21-2.14c0-5.1,0-10.2-.06-15.31,0-.14,0-0.28,0-0.45-0.51,0-1,0-1.46,0a0.25,0.25,0,0,1-.31-0.31q0-1.72,0-3.44a0.24,0.24,0,0,1,.3-0.29c0.47,0,.95,0,1.47,0V37.92c0-1.12,0-2.23,0-3.35,0-.19,0-0.3.26-0.3h7.7l0.23,0v4Z" transform="translate(-9.41 -19.7)"/><path class="cls-1" d="M282,59.12c0,0.1,0,.17,0,0.24,0,1.18,0,2.35,0,3.53,0,0.19,0,.3-0.26.29-2,0-4,0-6-.1a4.7,4.7,0,0,1-3.12-1.16,3.35,3.35,0,0,1-1.18-2.39c-0.06-1.19-.12-2.39-0.13-3.58,0-4.39,0-8.78,0-13.18V42.34h-1.75v-4h1.73v-4l0.35,0h7.52c0.27,0,.34.08,0.34,0.35,0,1.11,0,2.21,0,3.32,0,0.11,0,.22,0,0.36h2.17v4h-2.19v0.39q0,7,0,13.91a15.45,15.45,0,0,0,.12,1.76,0.54,0.54,0,0,0,.6.59c0.53,0.06,1.07.09,1.6,0.13Z" transform="translate(-9.41 -19.7)"/><path class="cls-1" d="M175.16,37.47v8.94c-0.48,0-1,0-1.43.1a7.25,7.25,0,0,0-1.28.26,2.62,2.62,0,0,0-2,2.52c-0.06,1-.12,2-0.13,3.07,0,3.55,0,7.1,0,10.65V63.4h-8.12V38h8.11L170,41.09C171.18,39.07,172.71,37.65,175.16,37.47Z" transform="translate(-9.41 -19.7)"/></svg>