<svg id="Layer_1" data-name="Layer 1" xmlns="http://www.w3.org/2000/svg" viewBox="0 0 297.44 84.98"><defs><style>.cls-1{fill:#1d1d1b;stroke:#1d1d1b;}.cls-1,.cls-3{stroke-linejoin:round;stroke-width:6px;}.cls-2{fill:#fff;}.cls-3{fill:#000100;stroke:#000100;stroke-linecap:round;}.cls-4{fill:#fccf13;}</style></defs><title>ThunderBall_Lines</title><path class="cls-1" d="M45.84,32.62l-2.94,8H36.7L24.93,72.81H14.48L26.24,40.66H20.06l2.94-8H45.84Z" transform="translate(-11.48 -8.05)"/><path class="cls-1" d="M72.26,32.62L57.55,72.81H47.1l6.18-16.88H50.15L44,72.81H33.52L48.23,32.62H58.68L53.42,47h3.13l5.26-14.37H72.26Z" transform="translate(-11.48 -8.05)"/><path class="cls-1" d="M100.21,32.62L90.39,59.48a59,59,0,0,1-2.65,6.42,14.14,14.14,0,0,1-3.15,3.8,15.08,15.08,0,0,1-4.94,3,17.48,17.48,0,0,1-6,1,12.92,12.92,0,0,1-5.92-1.19,5.66,5.66,0,0,1-3-3.1,6.92,6.92,0,0,1-.14-4q0.53-2.12,3-8.93l8.7-23.78H86.76l-11,30.14a13,13,0,0,0-.95,3.36,0.73,0.73,0,0,0,.89.73A1.84,1.84,0,0,0,77.25,66a19.6,19.6,0,0,0,1.68-3.81L89.76,32.62h10.45Z" transform="translate(-11.48 -8.05)"/><path class="cls-1" d="M127.6,32.62L112.89,72.81h-9.16L105,54.54,98.29,72.81H89.55l14.71-40.19H113l-0.76,18.1,6.62-18.1h8.74Z" transform="translate(-11.48 -8.05)"/><path class="cls-1" d="M131.79,32.62h7.82q7.57,0,10,.69a4.87,4.87,0,0,1,3.22,2.29,5.4,5.4,0,0,1,.44,3.54,61.33,61.33,0,0,1-2.45,7.66l-5.15,14.08a42.5,42.5,0,0,1-3.16,7.24A9.16,9.16,0,0,1,139.68,71,10.9,10.9,0,0,1,136,72.4a30.72,30.72,0,0,1-5.76.41H117.09Zm7.94,6.88-9.67,26.44a4.2,4.2,0,0,0,3.11-.91,17.86,17.86,0,0,0,2.32-4.93l5.71-15.62a23.8,23.8,0,0,0,1.11-3.5,1.1,1.1,0,0,0-.38-1.13A4.3,4.3,0,0,0,139.73,39.5Z" transform="translate(-11.48 -8.05)"/><path class="cls-1" d="M159.9,32.62h17.43l-2.94,8h-7l-2.79,7.62h6.53l-2.8,7.65h-6.53l-3.23,8.84h7.67l-2.94,8H145.19Z" transform="translate(-11.48 -8.05)"/><path class="cls-1" d="M181,32.62h7.4a52.67,52.67,0,0,1,9.81.57,4.21,4.21,0,0,1,3.2,2.92q0.79,2.35-1.09,7.49-1.72,4.69-3.47,6.31a8.85,8.85,0,0,1-5.3,1.94q2.82,0.77,3.42,2.06a4.38,4.38,0,0,1,.46,2.37,43,43,0,0,1-1.92,5.95l-3.88,10.6h-9.71l4.89-13.36q1.18-3.23,1-4t-2.39-.77l-6.63,18.12H166.32ZM189,39.5l-3.27,8.94a5.68,5.68,0,0,0,2.65-.48q0.88-.48,1.86-3.14L191,42.6q0.7-1.91.23-2.51A3,3,0,0,0,189,39.5Z" transform="translate(-11.48 -8.05)"/><path class="cls-1" d="M222.23,31.91h10.43a24.36,24.36,0,0,1,7.2.77,4.46,4.46,0,0,1,3,3.11q0.71,2.34-1.2,7.55a11.86,11.86,0,0,1-2.9,4.91,11.6,11.6,0,0,1-5.14,2.13q3.32,0.82,3.92,2.72t-0.84,5.83l-1.36,3.72a20.55,20.55,0,0,1-3.14,6,8.37,8.37,0,0,1-3.95,2.68q-2.3.72-8.6,0.72H207.53ZM224.61,54l-4.12,11.25a5.77,5.77,0,0,0,3.07-.7,7,7,0,0,0,1.73-3.05l1.37-3.75q0.94-2.58.6-3.13T224.61,54Zm5.56-15.19-3.27,8.94,1.05,0a2.91,2.91,0,0,0,2.24-.76,16.55,16.55,0,0,0,2-4.33,7.28,7.28,0,0,0,.62-2.64,1,1,0,0,0-.56-1A7.15,7.15,0,0,0,230.17,38.79Z" transform="translate(-11.48 -8.05)"/><path class="cls-1" d="M268.38,31.91l-8.73,40.19H249L251,64.88h-3.74L244,72.11H233.23l20-40.19h15.11Zm-15,25.84q1.71-6.83,4.59-16.88-5.82,11.55-8.18,16.88h3.6Z" transform="translate(-11.48 -8.05)"/><path class="cls-1" d="M286.58,31.91L274.82,64.06h6.36l-2.94,8H261.42l14.71-40.19h10.45Z" transform="translate(-11.48 -8.05)"/><path class="cls-1" d="M305.92,31.91L294.16,64.06h6.36l-2.94,8H280.76l14.71-40.19h10.45Z" transform="translate(-11.48 -8.05)"/><path class="cls-2" d="M47.26,31.21l-2.94,8H38.11L26.34,71.4H15.89L27.65,39.25H21.47l2.94-8H47.26Z" transform="translate(-11.48 -8.05)"/><path class="cls-2" d="M73.67,31.21L59,71.4H48.51l6.18-16.88H51.56L45.38,71.4H34.93L49.64,31.21H60.09L54.83,45.58H58l5.26-14.37H73.67Z" transform="translate(-11.48 -8.05)"/><path class="cls-2" d="M101.63,31.21L91.8,58.07a58.82,58.82,0,0,1-2.65,6.42A14.11,14.11,0,0,1,86,68.28a15,15,0,0,1-4.94,3,17.46,17.46,0,0,1-6,1,12.93,12.93,0,0,1-5.92-1.19,5.66,5.66,0,0,1-3-3.1,6.91,6.91,0,0,1-.14-4q0.53-2.12,3-8.93l8.7-23.78H88.17l-11,30.14a13,13,0,0,0-.95,3.36,0.73,0.73,0,0,0,.89.73,1.84,1.84,0,0,0,1.57-.81,19.64,19.64,0,0,0,1.68-3.81L91.17,31.21h10.45Z" transform="translate(-11.48 -8.05)"/><path class="cls-2" d="M129,31.21L114.3,71.4h-9.16l1.25-18.27L99.7,71.4H91l14.71-40.19h8.74l-0.76,18.1,6.62-18.1H129Z" transform="translate(-11.48 -8.05)"/><path class="cls-2" d="M133.2,31.21H141q7.57,0,10,.7a4.88,4.88,0,0,1,3.22,2.28,5.41,5.41,0,0,1,.44,3.54,61.42,61.42,0,0,1-2.45,7.66l-5.15,14.08a42.45,42.45,0,0,1-3.16,7.24,9.15,9.15,0,0,1-2.82,2.85A10.88,10.88,0,0,1,137.44,71a30.71,30.71,0,0,1-5.76.41H118.5Zm7.94,6.88-9.67,26.44a4.2,4.2,0,0,0,3.11-.91,17.81,17.81,0,0,0,2.32-4.93l5.71-15.62a23.83,23.83,0,0,0,1.11-3.5,1.1,1.1,0,0,0-.38-1.13A4.29,4.29,0,0,0,141.14,38.08Z" transform="translate(-11.48 -8.05)"/><path class="cls-2" d="M161.31,31.21h17.43l-2.94,8h-7L166,46.87h6.53l-2.8,7.65h-6.53L160,63.36h7.67l-2.94,8H146.6Z" transform="translate(-11.48 -8.05)"/><path class="cls-2" d="M182.43,31.21h7.4a52.76,52.76,0,0,1,9.81.57,4.21,4.21,0,0,1,3.2,2.92q0.79,2.35-1.09,7.49-1.72,4.69-3.47,6.31a8.85,8.85,0,0,1-5.3,1.94q2.82,0.77,3.42,2.06a4.38,4.38,0,0,1,.46,2.37,42.88,42.88,0,0,1-1.91,5.95l-3.88,10.6h-9.71L186.24,58q1.18-3.23,1-4t-2.39-.77L178.18,71.4H167.73Zm7.94,6.88L187.1,47a5.67,5.67,0,0,0,2.65-.48q0.88-.48,1.86-3.14l0.81-2.21q0.7-1.91.23-2.51A3,3,0,0,0,190.37,38.08Z" transform="translate(-11.48 -8.05)"/><path class="cls-2" d="M223.64,30.5h10.43a24.36,24.36,0,0,1,7.2.77,4.46,4.46,0,0,1,3,3.11q0.71,2.35-1.2,7.55a11.86,11.86,0,0,1-2.9,4.91A11.6,11.6,0,0,1,235,49q3.32,0.82,3.92,2.72t-0.84,5.83l-1.36,3.72a20.55,20.55,0,0,1-3.14,6A8.35,8.35,0,0,1,229.63,70q-2.3.72-8.61,0.72H208.94ZM226,52.57l-4.11,11.25a5.78,5.78,0,0,0,3.07-.7,7,7,0,0,0,1.73-3.05l1.37-3.75q0.94-2.58.6-3.13T226,52.57Zm5.56-15.19-3.27,8.94,1.05,0a2.92,2.92,0,0,0,2.24-.76,16.57,16.57,0,0,0,2-4.33,7.28,7.28,0,0,0,.62-2.64,1,1,0,0,0-.56-1A7.11,7.11,0,0,0,231.58,37.38Z" transform="translate(-11.48 -8.05)"/><path class="cls-2" d="M269.79,30.5l-8.73,40.19H250.38l2.08-7.22h-3.74l-3.27,7.22H234.65l20-40.19h15.11Zm-15,25.84q1.7-6.83,4.58-16.88Q253.56,51,251.2,56.35h3.6Z" transform="translate(-11.48 -8.05)"/><path class="cls-2" d="M288,30.5L276.23,62.65h6.36l-2.94,8H262.83L277.54,30.5H288Z" transform="translate(-11.48 -8.05)"/><path class="cls-2" d="M307.33,30.5L295.57,62.65h6.36l-2.94,8H282.17L296.88,30.5h10.45Z" transform="translate(-11.48 -8.05)"/><polygon class="cls-3" points="204.41 5.81 223.08 3 198.98 35.52 208.48 31.44 191.17 54.35 199.56 51.27 176.7 81.98 188.49 59.51 181.45 62.46 196.08 40.45 187.15 44.03 204.41 5.81"/><polygon class="cls-4" points="205.31 4.91 223.98 2.1 199.88 34.61 209.39 30.54 192.07 53.45 200.47 50.36 177.61 81.08 189.4 58.6 182.35 61.56 196.99 39.55 188.05 43.13 205.31 4.91"/></svg>