<svg id="Layer_1" data-name="Layer 1" xmlns="http://www.w3.org/2000/svg" xmlns:xlink="http://www.w3.org/1999/xlink" viewBox="0 0 95.65 113.81"><defs><style>.cls-1{fill:none;stroke:#901d02;stroke-linecap:round;stroke-linejoin:round;stroke-width:3px;}.cls-2{fill:url(#linear-gradient);}.cls-3{fill:url(#linear-gradient-2);}.cls-4{fill:url(#linear-gradient-3);}.cls-5{fill:url(#linear-gradient-4);}.cls-6{fill:#fdd907;}.cls-7{fill:#f6cb06;}.cls-8{fill:#c09e04;}.cls-9{fill:url(#linear-gradient-5);}.cls-10{fill:url(#linear-gradient-6);}.cls-11{fill:#efaa02;}.cls-12{fill:#dbb405;}</style><linearGradient id="linear-gradient" x1="73.16" y1="279.03" x2="70.81" y2="266.38" gradientTransform="matrix(1, 0, 0, -1, -38.25, 353.64)" gradientUnits="userSpaceOnUse"><stop offset="0" stop-color="#dc7b06"/><stop offset="1" stop-color="#fdd907"/></linearGradient><linearGradient id="linear-gradient-2" x1="102.17" y1="245.82" x2="23.84" y2="286.14" gradientTransform="matrix(1, 0, 0, -1, -38.25, 353.64)" gradientUnits="userSpaceOnUse"><stop offset="0" stop-color="#f64f10"/><stop offset="1" stop-color="#e83e08"/></linearGradient><linearGradient id="linear-gradient-3" x1="95.09" y1="276.2" x2="19.44" y2="303.17" gradientTransform="matrix(1, 0, 0, -1, -38.25, 353.64)" gradientUnits="userSpaceOnUse"><stop offset="0" stop-color="#f44508"/><stop offset="1" stop-color="#e43202"/></linearGradient><linearGradient id="linear-gradient-4" x1="90.21" y1="282.75" x2="90.54" y2="339.05" gradientTransform="matrix(1, 0, 0, -1, -38.25, 353.64)" gradientUnits="userSpaceOnUse"><stop offset="0" stop-color="#ff6117"/><stop offset="1" stop-color="#fd5007"/></linearGradient><linearGradient id="linear-gradient-5" x1="85.29" y1="249.01" x2="140.62" y2="278.33" gradientTransform="matrix(1, 0, 0, -1, -38.25, 353.64)" gradientUnits="userSpaceOnUse"><stop offset="0" stop-color="#ca3005"/><stop offset="1" stop-color="#b12302"/></linearGradient><linearGradient id="linear-gradient-6" x1="86.24" y1="284.28" x2="153.89" y2="288.93" gradientTransform="matrix(1, 0, 0, -1, -38.25, 353.64)" gradientUnits="userSpaceOnUse"><stop offset="0" stop-color="#d23105"/><stop offset="1" stop-color="#a32102"/></linearGradient></defs><title>gift</title><path id="Layer0_0_1_STROKES" data-name="Layer0 0 1 STROKES" class="cls-1" d="M52.07,116.09l32.85-15.75,7.35-31.2-0.5.2,4.35-1.85,2.3-18.7-21-5,5-2.9q1.2-.8,2.45-1.6,7.3-4.8,8.2-6.95t0.1-3.3a6.21,6.21,0,0,0-2.35-1.35q-1.15-.55-3.85-4l-5.2-6.95q-3.25-4.25-11.65-8.35-9.3-4.6-13.75-2.5T49,20.89v-0.1q-0.25,1-.45,2L47.92,26q-1.7,8.6-1.1,12.85l-4.5-8.2h0L36,19.34a4.89,4.89,0,0,0-4.25-2.75A13,13,0,0,0,26.22,18q-3.85,1.7-11.1,9.55-8,8.65-6.6,11.8,0.25,0.5.55,1.05a14.91,14.91,0,0,0,2.35,2.95l3.45,3a1.64,1.64,0,0,0,.25.2l-9.35,2.2,2.3,18.7,4.35,1.85-0.5-.2,7.3,31.2Z" transform="translate(-4.27 -3.78)"/><g id="Layer0_1_FILL" data-name="Layer0 1 FILL"><path class="cls-2" d="M25.22,74.79h0l3.3,30,9.6,4.6-1.2-29.6-2.45-1.05Z" transform="translate(-4.27 -3.78)"/><path class="cls-3" d="M11.92,69.14l7.3,31.2,32.85,15.75V86.19l-17.6-7.5v0l2.45,1.05,1.2,29.6-9.6-4.6-3.3-30-3.1-1.3v0l-9.7-4.1Z" transform="translate(-4.27 -3.78)"/><path class="cls-4" d="M21,54.64L5.77,48.79l2.3,18.7,4.35,1.85,9.7,4.1L21,54.64m12.5,4.85h0l1,19.2,17.6,7.5V66.64Z" transform="translate(-4.27 -3.78)"/><path class="cls-5" d="M17.12,48q-1.07-.71-2-1.45L5.77,48.79,21,54.64,27.32,53a44.34,44.34,0,0,1-9.2-4.4l-0.65-.45L17.12,48m29.8-9,0,0.1q0.05,0.27.1,0.55,0-.3-0.1-0.6V39h0m23.2,8.55q-3.09,1.25-6.35,2.3L83,54.64l-12.5,4.85L52,52.54,33.47,59.49l18.6,7.15,18.6-7.15,12.5-4.85h0l15.25-5.85-21-5-2.25,1.3A52.28,52.28,0,0,1,70.12,47.54Z" transform="translate(-4.27 -3.78)"/><path class="cls-6" d="M32.32,59L32.17,59,21,54.64l1.15,18.8v0l3.1,1.3h0l9.25,3.95v0l-1-19.2Z" transform="translate(-4.27 -3.78)"/><path class="cls-7" d="M33.47,18.14a4.5,4.5,0,0,1,2.15,2q0.65,1.05,2.5,4.55c0.56,1,6.15,11.39,7.59,14.05l2,1.46-7-12.46c-5.72-10.17-7.14-11.08-9-11.15A13,13,0,0,0,26.22,18q-3.85,1.7-11.1,9.55-8,8.65-6.6,11.8a10,10,0,0,0,.55,1.05q10.15,4,15.25,3.9a6.77,6.77,0,0,0,3.4-.75l0.05,0q4.06-2.38,5.8-9.4a31,31,0,0,0,.7-3.9,36.88,36.88,0,0,1-3.2-9.3q-0.5-3.85,2.4-2.8m13.65,13.5q0.31-2.82.8-5.65-1.7,8.58-1,12.75a32.27,32.27,0,0,1,.2-7.1m35.9,23-19.25-4.8q-1.19.43-2.4,0.8-5.75,1.75-7.75,1.55a2.57,2.57,0,0,1-1.25-.45,40.18,40.18,0,0,1-8.15,2.65,29.41,29.41,0,0,1-13.35-.25q-1.8-.47-3.55-1.1L21,54.64,32.17,59,32.32,59l1.15,0.45h0L52,52.54l18.5,6.95L83,54.64m4.55-25q4.75-.45,4.7,1.7,0,1.38-7.75,6.35a16.47,16.47,0,0,1,.4,1.6q7.28-4.74,8.2-6.9t0.1-3.3a6.21,6.21,0,0,0-2.35-1.35q-1.15-.55-3.85-4l-5.2-6.95q-3.25-4.25-11.65-8.35-9.3-4.6-13.75-2.5-4.29,2-7.4,14.9,2.37,14.45,9,15a33.74,33.74,0,0,0,11.9-1.25,86.21,86.21,0,0,1,9-2.35A29.87,29.87,0,0,1,87.57,29.64Z" transform="translate(-4.27 -3.78)"/><path class="cls-8" d="M35.62,20.14a4.5,4.5,0,0,0-2.15-2q-2.9-1-2.4,2.8a36.88,36.88,0,0,0,3.2,9.3L35,31.69a36.52,36.52,0,0,0,6.15,8.7l1.3,1.35a76.84,76.84,0,0,0,7.45,6.7q-0.2-.4-0.4-0.85a34.15,34.15,0,0,1-1.7-4.95L46,39.24c-0.44-1-7.29-13.57-7.85-14.55q-1.85-3.5-2.5-4.55m56.65,11.2q0-2.15-4.7-1.7a29.87,29.87,0,0,0-8.65,2.55q-2.59,1.13-5.5,2.75a64.43,64.43,0,0,0-8.7,5.85,67,67,0,0,0-5.45,5q-1.88,1.94-3.2,3.55-0.91,1.1-1.55,2.05L59,50.14l2.6-.8q3.45-1.1,5.9-2a62.21,62.21,0,0,0,7.85-4q2.93-1.64,6.55-3.9,1.44-.9,2.65-1.7Q92.22,32.72,92.27,31.34Z" transform="translate(-4.27 -3.78)"/><path class="cls-9" d="M67.22,79.79l0.65-.3-15.8,6.7v29.9l14-6.75,1.15-29.55M92.27,69.14l-0.5.2L82,73.49l-3.1,1.3-3.3,30,9.3-4.45Z" transform="translate(-4.27 -3.78)"/><path class="cls-10" d="M67.87,79.49l2.25-.95,0.55-19.05-18.6,7.15V86.19l15.8-6.7m30.55-30.7L83.17,54.64,82,73.49l9.75-4.15,4.35-1.85Z" transform="translate(-4.27 -3.78)"/><path class="cls-11" d="M83.17,54.64h0l-12.5,4.85L70.12,78.54l-2.25.95-0.65.3-1.15,29.55v0.05l9.55-4.6,3.3-30,3.1-1.3Z" transform="translate(-4.27 -3.78)"/><path class="cls-12" d="M73.42,34.94q2.91-1.62,5.5-2.75a86.21,86.21,0,0,0-9,2.35A33.74,33.74,0,0,1,58,35.79q-6.63-.5-9-15a0.11,0.11,0,0,0,0,0q-0.24,1-.45,2L47.92,26c-0.32,1.89-1.78,7.41-1,12.75l0.4,1.12-1.9-1.68c0.21,0.41,1.72,3.27,2.35,4.46a34.15,34.15,0,0,0,1.7,4.95q0.2,0.45.4,0.85a76.84,76.84,0,0,1-7.45-6.7l-1.3-1.35A36.52,36.52,0,0,1,35,31.69l-0.7-1.45a31,31,0,0,1-.7,3.9q-1.74,7-5.8,9.4l-0.05,0a6.77,6.77,0,0,1-3.4.75q-5.1.15-15.25-3.9a15.57,15.57,0,0,0,2.35,2.95l3.45,3a1.24,1.24,0,0,0,.25.15q0.93,0.74,2,1.45l0.35,0.2,0.65,0.45a44.34,44.34,0,0,0,9.2,4.4q1.75,0.63,3.55,1.1a29.41,29.41,0,0,0,13.35.25,40.18,40.18,0,0,0,8.15-2.65,2.57,2.57,0,0,0,1.25.45q2,0.2,7.75-1.55,1.21-.37,2.4-0.8,3.26-1.05,6.35-2.3a52.28,52.28,0,0,0,5.05-2.45l2.25-1.3,5-2.9q1.23-.73,2.5-1.55v0a16.47,16.47,0,0,0-.4-1.6q-1.21.8-2.65,1.7-3.62,2.26-6.55,3.9a62.21,62.21,0,0,1-7.85,4q-2.45,1-5.9,2l-2.6.8-4.45,1.25q0.64-.95,1.55-2.05,1.32-1.61,3.2-3.55a67,67,0,0,1,5.45-5A64.43,64.43,0,0,1,73.42,34.94Z" transform="translate(-4.27 -3.78)"/></g></svg>