<svg xmlns="http://www.w3.org/2000/svg" xmlns:xlink="http://www.w3.org/1999/xlink" viewBox="0 0 110.82 107.3"><defs><style>.cls-1{fill:url(#linear-gradient);}.cls-2{fill:url(#linear-gradient-2);}.cls-3{fill:url(#linear-gradient-3);}.cls-4{fill:url(#linear-gradient-4);}.cls-5{fill:url(#linear-gradient-5);}.cls-6{fill:url(#linear-gradient-6);}.cls-7{fill:url(#linear-gradient-7);}.cls-8{fill:url(#linear-gradient-8);}.cls-9{fill:url(#linear-gradient-9);}.cls-10{fill:url(#linear-gradient-10);}.cls-11{fill:url(#linear-gradient-11);}.cls-12{fill:url(#linear-gradient-12);}.cls-13{fill:url(#linear-gradient-13);}</style><linearGradient id="linear-gradient" x1="110.82" y1="46.31" x2="110.82" y2="46.31" gradientUnits="userSpaceOnUse"><stop offset="0" stop-color="#b944b8"/><stop offset="0.03" stop-color="#c054bf"/><stop offset="0.09" stop-color="#ce75cd"/><stop offset="0.15" stop-color="#d88dd7"/><stop offset="0.21" stop-color="#de9bdd"/><stop offset="0.26" stop-color="#e0a0df"/><stop offset="0.56" stop-color="#b944b8"/></linearGradient><linearGradient id="linear-gradient-2" x1="9.63" y1="153.21" x2="115.07" y2="48.7" gradientTransform="matrix(1, 0, 0, -1, 0, 160)" gradientUnits="userSpaceOnUse"><stop offset="0" stop-color="#b944b8"/><stop offset="0.56" stop-color="#b944b8"/></linearGradient><linearGradient id="linear-gradient-3" x1="40" y1="183.86" x2="145.44" y2="79.34" xlink:href="#linear-gradient-2"/><linearGradient id="linear-gradient-4" x1="39.9" y1="183.75" x2="145.34" y2="79.24" xlink:href="#linear-gradient-2"/><linearGradient id="linear-gradient-5" x1="39.76" y1="183.61" x2="145.2" y2="79.1" xlink:href="#linear-gradient-2"/><linearGradient id="linear-gradient-6" x1="39.56" y1="183.41" x2="145" y2="78.9" xlink:href="#linear-gradient-2"/><linearGradient id="linear-gradient-7" x1="39.48" y1="183.33" x2="144.92" y2="78.82" xlink:href="#linear-gradient-2"/><linearGradient id="linear-gradient-8" x1="41.17" y1="182.35" x2="144.44" y2="79.99" gradientTransform="matrix(1, 0, 0, -1, 0, 160)" xlink:href="#linear-gradient"/><linearGradient id="linear-gradient-9" x1="40.84" y1="182.02" x2="144.11" y2="79.66" gradientTransform="matrix(1, 0, 0, -1, 0, 160)" xlink:href="#linear-gradient"/><linearGradient id="linear-gradient-10" x1="41" y1="182.18" x2="144.28" y2="79.82" gradientTransform="matrix(1, 0, 0, -1, 0, 160)" xlink:href="#linear-gradient"/><linearGradient id="linear-gradient-11" x1="41.32" y1="182.5" x2="144.59" y2="80.13" gradientTransform="matrix(1, 0, 0, -1, 0, 160)" xlink:href="#linear-gradient"/><linearGradient id="linear-gradient-12" x1="24.88" y1="168.6" x2="130.32" y2="64.08" xlink:href="#linear-gradient-2"/><linearGradient id="linear-gradient-13" x1="26.22" y1="167.26" x2="129.49" y2="64.9" gradientTransform="matrix(1, 0, 0, -1, 0, 160)" xlink:href="#linear-gradient"/></defs><title>ribbon_Medium</title><path class="cls-1" d="M110.82,46.31"/><polygon class="cls-2" points="3 0 0 0 110.82 107.31 110.82 104.33 3 0"/><path class="cls-3" d="M110.82,46.31l-2.45-2.37,2.45,2.37Z"/><path class="cls-4" d="M95.63,31.6l10.15,9.83Z"/><path class="cls-5" d="M83.56,19.91,92.94,29Z"/><path class="cls-6" d="M66.11,3l9.53,9.23Z"/><path class="cls-7" d="M63,0l1.89,1.83Z"/><path class="cls-8" d="M92.94,29l2.69,2.61Z"/><path class="cls-9" d="M64.89,1.83,66.11,3Z"/><path class="cls-10" d="M75.65,12.25l7.91,7.66Z"/><path class="cls-11" d="M105.78,41.43l2.59,2.51Z"/><path class="cls-12" d="M110.82,46.31l-2.45-2.37-2.59-2.51L95.63,31.6,92.94,29l-9.38-9.09-7.91-7.66L66.11,3,64.89,1.83,63,0H3L110.82,104.33Z"/><path class="cls-13" d="M110.82,46.31l-2.45-2.37-2.59-2.51L95.63,31.6,92.94,29l-9.38-9.09-7.91-7.66L66.11,3,64.89,1.83,63,0H3L110.82,104.33Z"/></svg>