<svg id="Layer_1" data-name="Layer 1" xmlns="http://www.w3.org/2000/svg" xmlns:xlink="http://www.w3.org/1999/xlink" viewBox="0 0 84.25 80.2"><defs><style>.cls-1{fill:#fff;}.cls-2{fill:url(#linear-gradient);}</style><linearGradient id="linear-gradient" x1="-185.9" y1="482.57" x2="-185.9" y2="540.12" gradientTransform="matrix(1, 0, 0, -1, 234.4, 562.9)" gradientUnits="userSpaceOnUse"><stop offset="0.22" stop-color="#f7c00f"/><stop offset="0.83" stop-color="#fcea10"/><stop offset="1" stop-color="#fef6b8"/></linearGradient></defs><title>star</title><g id="star_0_Layer0_0_FILL" data-name="star 0 Layer0 0 FILL"><path class="cls-1" d="M48.85,6.21a1.23,1.23,0,0,0-.75,0,1,1,0,0,0-.5.5L35.1,32,7.25,36a1.14,1.14,0,0,0-.65.35,1.09,1.09,0,0,0-.2.7.92.92,0,0,0,.3.65l20.15,19.7L22.1,85.16a1.15,1.15,0,0,0,.15.75.9.9,0,0,0,.6.4.79.79,0,0,0,.7-.1L48.5,73.11l25,13.1a.92.92,0,0,0,.75.1.9.9,0,0,0,.6-.4,1,1,0,0,0,.1-.75L70.15,57.41l20.2-19.7a.91.91,0,0,0,.3-.65,1,1,0,0,0-.25-.7.91.91,0,0,0-.6-.35L61.85,32,49.4,6.71a1.09,1.09,0,0,0-.55-.5M60.6,33.71a1.13,1.13,0,0,0,.45.2l26.4,3.8L68.4,56.31a1.27,1.27,0,0,0-.25.45,1.14,1.14,0,0,0,0,.45l4.5,26.3L48.95,71.11a1.09,1.09,0,0,0-.45-.1,1.49,1.49,0,0,0-.5.1L24.4,83.51l4.5-26.3a.72.72,0,0,0,0-.45,1.28,1.28,0,0,0-.25-.45L9.55,37.71l26.4-3.8a.79.79,0,0,0,.4-.2.93.93,0,0,0,.35-.35l11.8-24,11.8,24A1.09,1.09,0,0,0,60.6,33.71Z" transform="translate(-6.4 -6.15)"/><path class="cls-2" d="M61,33.91a1.13,1.13,0,0,1-.45-.2,1.09,1.09,0,0,1-.3-.35l-11.8-24-11.8,24a.93.93,0,0,1-.35.35.79.79,0,0,1-.4.2l-26.4,3.8,19.1,18.6a1.28,1.28,0,0,1,.25.45.72.72,0,0,1,0,.45l-4.5,26.3L48,71.11a1.49,1.49,0,0,1,.5-.1,1.09,1.09,0,0,1,.45.1L72.6,83.51l-4.5-26.3a1.14,1.14,0,0,1,0-.45,1.27,1.27,0,0,1,.25-.45l19.05-18.6Z" transform="translate(-6.4 -6.15)"/></g></svg>