<svg id="Layer_2" data-name="Layer 2" xmlns="http://www.w3.org/2000/svg" xmlns:xlink="http://www.w3.org/1999/xlink" viewBox="0 0 220.34 239.59"><defs><style>.cls-1{fill:url(#linear-gradient);}.cls-2{fill:url(#linear-gradient-2);}.cls-3{fill:url(#linear-gradient-3);}.cls-4{fill:url(#linear-gradient-4);}.cls-5{fill:url(#linear-gradient-5);}.cls-6{fill:url(#linear-gradient-6);}.cls-7{fill:url(#linear-gradient-7);}.cls-8{fill:url(#New_Gradient_Swatch_copy);}.cls-9{fill:url(#New_Gradient_Swatch_copy-2);}.cls-10{fill:url(#New_Gradient_Swatch_copy-3);}.cls-11{fill:url(#New_Gradient_Swatch_copy-4);}.cls-12{fill:url(#New_Gradient_Swatch_copy_3);}.cls-13{fill:url(#New_Gradient_Swatch_copy_3-2);}.cls-14{fill:url(#New_Gradient_Swatch_copy_3-3);}.cls-15{fill:url(#New_Gradient_Swatch_copy_3-4);}.cls-16{fill:url(#New_Gradient_Swatch_copy_3-5);}.cls-17{fill:url(#New_Gradient_Swatch_copy_3-6);}.cls-18{fill:url(#New_Gradient_Swatch_copy_3-7);}.cls-19{fill:url(#New_Gradient_Swatch_copy-5);}.cls-20{fill:url(#New_Gradient_Swatch_copy-6);}.cls-21{fill:url(#New_Gradient_Swatch_copy-7);}.cls-22{fill:url(#New_Gradient_Swatch_copy-8);}.cls-23{fill:url(#New_Gradient_Swatch_copy-9);}.cls-24{fill:url(#New_Gradient_Swatch_copy-10);}.cls-25{fill:url(#New_Gradient_Swatch_copy-11);}.cls-26{fill:url(#New_Gradient_Swatch_copy-12);}.cls-27{fill:url(#New_Gradient_Swatch_copy-13);}.cls-28{fill:url(#linear-gradient-8);}.cls-29{fill:url(#linear-gradient-9);}.cls-30{fill:url(#linear-gradient-10);}.cls-31{fill:url(#linear-gradient-11);}.cls-32{fill:url(#red);}.cls-33{fill:url(#New_Gradient_Swatch_copy_3-8);}.cls-34{fill:url(#red-2);}.cls-35{fill:url(#red-3);}.cls-36{fill:url(#red-4);}.cls-37{fill:url(#red-5);}.cls-38{fill:url(#red-6);}.cls-39{fill:url(#red-7);}.cls-40{fill:url(#red-8);}.cls-41{fill:url(#red-9);}.cls-42{fill:url(#New_Gradient_Swatch_copy_3-9);}.cls-43{fill:url(#New_Gradient_Swatch_copy_3-10);}.cls-44{fill:url(#New_Gradient_Swatch_copy_3-11);}.cls-45{fill:url(#New_Gradient_Swatch_copy_3-12);}.cls-46{fill:url(#New_Gradient_Swatch_copy_3-13);}.cls-47{fill:url(#New_Gradient_Swatch_copy_3-14);}.cls-48{fill:url(#New_Gradient_Swatch_copy_3-15);}.cls-49{fill:url(#New_Gradient_Swatch_copy_3-16);}.cls-50{fill:url(#linear-gradient-12);}</style><linearGradient id="linear-gradient" x1="1555.77" y1="-919.48" x2="1553.6" y2="-938.44" gradientTransform="matrix(0.17, 0.56, -0.37, 0.41, -452.89, -463.94)" gradientUnits="userSpaceOnUse"><stop offset="0" stop-color="#1a223e"/><stop offset="0.34" stop-color="#2467b0"/><stop offset="0.39" stop-color="#2e78bc"/><stop offset="0.48" stop-color="#3b8fcd"/><stop offset="0.56" stop-color="#439cd7"/><stop offset="0.63" stop-color="#46a1da"/><stop offset="0.68" stop-color="#459ed8"/><stop offset="0.72" stop-color="#4194d1"/><stop offset="0.76" stop-color="#3b84c5"/><stop offset="0.78" stop-color="#3778bc"/><stop offset="1" stop-color="#2256a4"/></linearGradient><linearGradient id="linear-gradient-2" x1="1829.22" y1="-924.08" x2="1827.04" y2="-943.04" xlink:href="#linear-gradient"/><linearGradient id="linear-gradient-3" x1="382.71" y1="591.61" x2="382.45" y2="598.01" gradientTransform="matrix(0.04, 0.6, -1, 0.04, 716.86, -225.65)" xlink:href="#linear-gradient"/><linearGradient id="linear-gradient-4" x1="680.3" y1="597.35" x2="680.04" y2="603.74" gradientTransform="matrix(0.04, 0.6, -1, 0.04, 716.86, -225.65)" xlink:href="#linear-gradient"/><linearGradient id="linear-gradient-5" x1="734.99" y1="649.08" x2="734.73" y2="655.48" gradientTransform="matrix(0.04, 0.6, -1, 0.04, 716.86, -225.65)" xlink:href="#linear-gradient"/><linearGradient id="linear-gradient-6" x1="688.8" y1="1329.78" x2="687.69" y2="1357.04" gradientTransform="matrix(-0.58, 0.15, -0.22, -0.97, 905.82, 1296.03)" xlink:href="#linear-gradient"/><linearGradient id="linear-gradient-7" x1="551.34" y1="613.38" x2="550.23" y2="640.64" gradientTransform="matrix(0.16, -0.58, 0.96, 0.3, -553.38, 255.64)" xlink:href="#linear-gradient"/><linearGradient id="New_Gradient_Swatch_copy" x1="382.21" y1="2001.4" x2="373.87" y2="2024.88" gradientTransform="matrix(0.3, -0.65, 0.54, 0.24, -1006.78, -146.66)" gradientUnits="userSpaceOnUse"><stop offset="0" stop-color="#ef7b1e"/><stop offset="0.3" stop-color="#ffd75a"/><stop offset="0.3" stop-color="#ffd75a"/><stop offset="0.42" stop-color="#ffd971"/><stop offset="0.53" stop-color="#ffda7e"/><stop offset="0.63" stop-color="#ffda83"/><stop offset="0.76" stop-color="#ffd86e"/><stop offset="0.85" stop-color="#ffd75a"/></linearGradient><linearGradient id="New_Gradient_Swatch_copy-2" x1="114.79" y1="1880.95" x2="106.45" y2="1904.43" xlink:href="#New_Gradient_Swatch_copy"/><linearGradient id="New_Gradient_Swatch_copy-3" x1="-46.13" y1="1519.31" x2="-48.6" y2="1529.18" gradientTransform="matrix(1.06, 0.14, -0.15, 1.14, 440.55, -1580.62)" xlink:href="#New_Gradient_Swatch_copy"/><linearGradient id="New_Gradient_Swatch_copy-4" x1="-163.34" y1="1591.51" x2="-165.81" y2="1601.39" gradientTransform="matrix(1.06, 0.14, -0.15, 1.14, 440.55, -1580.62)" xlink:href="#New_Gradient_Swatch_copy"/><linearGradient id="New_Gradient_Swatch_copy_3" x1="417" y1="352.06" x2="401.13" y2="340.34" gradientTransform="matrix(0.75, 0.55, -0.23, 0.74, -21.94, -433.99)" gradientUnits="userSpaceOnUse"><stop offset="0" stop-color="#366629"/><stop offset="0.34" stop-color="#71b62e"/><stop offset="0.53" stop-color="#99c31e"/><stop offset="0.63" stop-color="#a9c818"/><stop offset="0.75" stop-color="#a6c719"/><stop offset="0.84" stop-color="#9cc41d"/><stop offset="0.92" stop-color="#8cbf23"/><stop offset="0.99" stop-color="#75b72c"/><stop offset="1" stop-color="#71b62e"/></linearGradient><linearGradient id="New_Gradient_Swatch_copy_3-2" x1="-47.14" y1="1065.3" x2="-58.84" y2="1077.47" gradientTransform="translate(1061.71 743.01) rotate(115.35)" xlink:href="#New_Gradient_Swatch_copy_3"/><linearGradient id="New_Gradient_Swatch_copy_3-3" x1="-168.73" y1="238.88" x2="-177.75" y2="228.43" gradientTransform="translate(34.42 -9.78) rotate(-66.38)" xlink:href="#New_Gradient_Swatch_copy_3"/><linearGradient id="New_Gradient_Swatch_copy_3-4" x1="1194.29" y1="1041.41" x2="1195.54" y2="1016.28" gradientTransform="translate(145.05 -1384.36) rotate(48.68)" xlink:href="#New_Gradient_Swatch_copy_3"/><linearGradient id="New_Gradient_Swatch_copy_3-5" x1="1152.7" y1="1111.67" x2="1153.95" y2="1086.54" gradientTransform="translate(145.05 -1384.36) rotate(48.68)" xlink:href="#New_Gradient_Swatch_copy_3"/><linearGradient id="New_Gradient_Swatch_copy_3-6" x1="890.73" y1="1166.45" x2="891.98" y2="1141.32" gradientTransform="matrix(0.42, 0.5, -0.5, 0.45, 259.65, -791.38)" xlink:href="#New_Gradient_Swatch_copy_3"/><linearGradient id="New_Gradient_Swatch_copy_3-7" x1="1086.85" y1="1132.06" x2="1088.1" y2="1106.93" gradientTransform="translate(145.05 -1384.36) rotate(48.68)" xlink:href="#New_Gradient_Swatch_copy_3"/><linearGradient id="New_Gradient_Swatch_copy-5" x1="379.47" y1="955.09" x2="386.34" y2="973.48" gradientTransform="translate(-431.69 -652.82) rotate(-16.48)" xlink:href="#New_Gradient_Swatch_copy"/><linearGradient id="New_Gradient_Swatch_copy-6" x1="32.93" y1="673.95" x2="39.8" y2="692.34" gradientTransform="matrix(0.58, -0.23, 0.13, 0.63, -40.72, -266.03)" xlink:href="#New_Gradient_Swatch_copy"/><linearGradient id="New_Gradient_Swatch_copy-7" x1="240.84" y1="835.8" x2="247.71" y2="854.18" gradientTransform="matrix(0.58, -0.23, 0.13, 0.63, -40.72, -266.03)" xlink:href="#New_Gradient_Swatch_copy"/><linearGradient id="New_Gradient_Swatch_copy-8" x1="274.33" y1="917.05" x2="281.2" y2="935.43" gradientTransform="translate(-431.69 -652.82) rotate(-16.48)" xlink:href="#New_Gradient_Swatch_copy"/><linearGradient id="New_Gradient_Swatch_copy-9" x1="-536.43" y1="1695.06" x2="-560.67" y2="1682.01" gradientTransform="translate(1253.64 -1198.6) rotate(18.87)" xlink:href="#New_Gradient_Swatch_copy"/><linearGradient id="New_Gradient_Swatch_copy-10" x1="1402.38" y1="2109.99" x2="1407.49" y2="2110.26" gradientTransform="matrix(-1.57, -0.92, 0.85, -1.45, 562.98, 4444.53)" xlink:href="#New_Gradient_Swatch_copy"/><linearGradient id="New_Gradient_Swatch_copy-11" x1="1626.86" y1="1782.77" x2="1640.04" y2="1784.12" gradientTransform="matrix(1.34, -1.57, 2.38, 2.04, -6269.31, -1004.32)" xlink:href="#New_Gradient_Swatch_copy"/><linearGradient id="New_Gradient_Swatch_copy-12" x1="1547.97" y1="1795.68" x2="1561.15" y2="1797.03" gradientTransform="matrix(1.34, -1.57, 2.38, 2.04, -6269.31, -1004.32)" xlink:href="#New_Gradient_Swatch_copy"/><linearGradient id="New_Gradient_Swatch_copy-13" x1="1818.11" y1="1832.51" x2="1831.29" y2="1833.85" gradientTransform="matrix(-0.5, -1.37, 2.74, -1.01, -4053.33, 4531.32)" xlink:href="#New_Gradient_Swatch_copy"/><linearGradient id="linear-gradient-8" x1="1206.49" y1="1976.48" x2="1167.36" y2="1981.91" gradientTransform="matrix(0.69, 0.28, -0.27, 0.67, -176.03, -1449.81)" xlink:href="#linear-gradient"/><linearGradient id="linear-gradient-9" x1="907.02" y1="1997.48" x2="867.89" y2="2002.91" gradientTransform="matrix(0.5, 0.2, -0.24, 0.58, 77.66, -1133.22)" xlink:href="#linear-gradient"/><linearGradient id="linear-gradient-10" x1="98.44" y1="1812.09" x2="59.31" y2="1817.52" gradientTransform="matrix(0.24, 0.1, -0.17, 0.41, 382.2, -599.3)" xlink:href="#linear-gradient"/><linearGradient id="linear-gradient-11" x1="1534.7" y1="2647.4" x2="1518.67" y2="2649.63" gradientTransform="matrix(0.52, 0.54, -0.52, 0.5, 737.92, -1907.94)" xlink:href="#linear-gradient"/><linearGradient id="red" x1="398.67" y1="-1148.16" x2="389.02" y2="-1158.42" gradientTransform="translate(-303.99 1157.04) rotate(4.75)" gradientUnits="userSpaceOnUse"><stop offset="0" stop-color="#5a0d00"/><stop offset="0.34" stop-color="#d8191b"/><stop offset="0.35" stop-color="#d91b1c"/><stop offset="0.45" stop-color="#e13224"/><stop offset="0.54" stop-color="#e63f29"/><stop offset="0.63" stop-color="#e8442b"/><stop offset="0.68" stop-color="#e7412a"/><stop offset="0.72" stop-color="#e33726"/><stop offset="0.75" stop-color="#dd2720"/><stop offset="0.78" stop-color="#d8191b"/><stop offset="1" stop-color="#d8191b"/></linearGradient><linearGradient id="New_Gradient_Swatch_copy_3-8" x1="545.57" y1="-638.52" x2="536.01" y2="-645.57" gradientTransform="translate(-467.95 611.67) rotate(7.57)" xlink:href="#New_Gradient_Swatch_copy_3"/><linearGradient id="red-2" x1="-1568.77" y1="-2391.62" x2="-1576.2" y2="-2403.59" gradientTransform="matrix(0.54, 2.42, -1.63, 0.36, -2925.97, 4836.75)" xlink:href="#red"/><linearGradient id="red-3" x1="-1632.27" y1="-1625.79" x2="-1639.59" y2="-1637.57" gradientTransform="translate(-1322.28 1876.21) rotate(87.2)" xlink:href="#red"/><linearGradient id="red-4" x1="-1660.87" y1="-1196.33" x2="-1668.19" y2="-1208.11" gradientTransform="matrix(0.04, 0.8, -0.47, 0.02, -323.87, 1556.89)" xlink:href="#red"/><linearGradient id="red-5" x1="-1644.34" y1="-870.88" x2="-1651.65" y2="-882.66" gradientTransform="matrix(0.04, 0.8, -0.47, 0.02, -323.87, 1556.89)" xlink:href="#red"/><linearGradient id="red-6" x1="-1896.85" y1="-1152.75" x2="-1904.17" y2="-1164.53" gradientTransform="matrix(0.04, 0.8, -0.47, 0.02, -323.87, 1556.89)" xlink:href="#red"/><linearGradient id="red-7" x1="-1635.52" y1="-1470.71" x2="-1642.84" y2="-1482.49" gradientTransform="translate(-1322.28 1876.21) rotate(87.2)" xlink:href="#red"/><linearGradient id="red-8" x1="604.53" y1="-247.84" x2="592.9" y2="-260.2" gradientTransform="matrix(0.39, 0.92, -0.92, 0.39, -306.57, -332.06)" xlink:href="#red"/><linearGradient id="red-9" x1="716.15" y1="-167.09" x2="704.51" y2="-179.45" gradientTransform="matrix(0.41, 1.21, -1.3, 0.64, -463.73, -533.6)" xlink:href="#red"/><linearGradient id="New_Gradient_Swatch_copy_3-9" x1="515.1" y1="561.01" x2="515.9" y2="544.93" gradientTransform="matrix(0.69, 0.73, -0.73, 0.69, 244.79, -635.16)" xlink:href="#New_Gradient_Swatch_copy_3"/><linearGradient id="New_Gradient_Swatch_copy_3-10" x1="619.53" y1="587.4" x2="606.03" y2="594.49" gradientTransform="matrix(0.57, 0.82, -0.82, 0.57, 357.87, -703.32)" xlink:href="#New_Gradient_Swatch_copy_3"/><linearGradient id="New_Gradient_Swatch_copy_3-11" x1="-650.07" y1="1101.34" x2="-663.57" y2="1108.42" gradientTransform="matrix(0.1, 0.31, -0.36, 0.36, 611.94, -32.09)" xlink:href="#New_Gradient_Swatch_copy_3"/><linearGradient id="New_Gradient_Swatch_copy_3-12" x1="713.79" y1="142.85" x2="707.65" y2="136.46" gradientTransform="translate(-623.6 314.75) rotate(-18.41)" xlink:href="#New_Gradient_Swatch_copy_3"/><linearGradient id="New_Gradient_Swatch_copy_3-13" x1="331.86" y1="924.15" x2="329.8" y2="916.01" gradientTransform="translate(1105.39 -129.27) rotate(92.08)" xlink:href="#New_Gradient_Swatch_copy_3"/><linearGradient id="New_Gradient_Swatch_copy_3-14" x1="404.73" y1="1034.44" x2="402.67" y2="1026.3" gradientTransform="matrix(-0.65, 0.76, -0.76, -0.65, 1105.28, 603.24)" xlink:href="#New_Gradient_Swatch_copy_3"/><linearGradient id="New_Gradient_Swatch_copy_3-15" x1="339.64" y1="998.45" x2="337.58" y2="990.31" gradientTransform="translate(1105.39 -129.27) rotate(92.08)" xlink:href="#New_Gradient_Swatch_copy_3"/><linearGradient id="New_Gradient_Swatch_copy_3-16" x1="523.9" y1="1140.98" x2="524.58" y2="1127.33" gradientTransform="matrix(-0.72, 0.69, -0.69, -0.72, 1339.95, 535.59)" xlink:href="#New_Gradient_Swatch_copy_3"/><linearGradient id="linear-gradient-12" x1="2645.36" y1="1474.97" x2="2640.19" y2="1467.11" gradientTransform="matrix(-1.09, 0.46, -0.38, -0.92, 3645.44, 342.28)" xlink:href="#linear-gradient"/></defs><title>Confetti_per_draw_page</title><path class="cls-1" d="M166,20.5c-0.51,1.3-3.08,5.06-4.65,6a25.47,25.47,0,0,0,5.77,5.84,12.08,12.08,0,0,0,3.26-6.06A21.91,21.91,0,0,1,166,20.5Z" transform="translate(-12.29 -13.53)"/><path class="cls-2" d="M215.33,172.22c-0.51,1.3-3.08,5.06-4.65,6a25.47,25.47,0,0,0,5.77,5.84,12.08,12.08,0,0,0,3.26-6.06A21.91,21.91,0,0,1,215.33,172.22Z" transform="translate(-12.29 -13.53)"/><path class="cls-3" d="M135.22,26a6.24,6.24,0,0,1,2.59,2.75,13.6,13.6,0,0,0,2.34-3.63,6,6,0,0,0-3.36-1.08A5.07,5.07,0,0,1,135.22,26Z" transform="translate(-12.29 -13.53)"/><path class="cls-4" d="M141.66,203.51a6.24,6.24,0,0,1,2.59,2.75,13.6,13.6,0,0,0,2.34-3.63,6,6,0,0,0-3.36-1.08A5.07,5.07,0,0,1,141.66,203.51Z" transform="translate(-12.29 -13.53)"/><path class="cls-5" d="M92.21,238.19a6.24,6.24,0,0,1,2.59,2.75,13.6,13.6,0,0,0,2.34-3.63,6,6,0,0,0-3.36-1.08A5.07,5.07,0,0,1,92.21,238.19Z" transform="translate(-12.29 -13.53)"/><path class="cls-6" d="M209.21,75.31c-2.19,5.35-5.75,11.12-9.5,13a58,58,0,0,0,17,7c2.44-4.43,2.58-11.09,1.9-14.93A21.6,21.6,0,0,1,209.21,75.31Z" transform="translate(-12.29 -13.53)"/><path class="cls-7" d="M145.76,130c-3.54-4.57-6.75-10.54-6.51-14.73a58,58,0,0,0-14.58,11.24c2.61,4.33,8.32,7.78,12,9.11A21.6,21.6,0,0,1,145.76,130Z" transform="translate(-12.29 -13.53)"/><path class="cls-8" d="M194.74,96.76c0.21-2.66-.32-5-2.52-8.29a85,85,0,0,0-12.33,12.41,10.53,10.53,0,0,0,4.45,8.21C186.33,106.57,191.54,99,194.74,96.76Z" transform="translate(-12.29 -13.53)"/><path class="cls-9" d="M48.93,240.78c0.21-2.66-.32-5-2.52-8.29A85,85,0,0,0,34.08,244.9a10.53,10.53,0,0,0,4.45,8.21C40.52,250.59,45.73,243,48.93,240.78Z" transform="translate(-12.29 -13.53)"/><path class="cls-10" d="M158.51,148.23c1.62-.53,3-1.54,4.55-4a44.25,44.25,0,0,0-9.31-6,8.72,8.72,0,0,0-4.21,5.45C151.36,144.52,156.69,146.43,158.51,148.23Z" transform="translate(-12.29 -13.53)"/><path class="cls-11" d="M22.82,213.89c1.62-.53,3-1.54,4.55-4a44.25,44.25,0,0,0-9.31-6,8.72,8.72,0,0,0-4.21,5.45C15.67,210.18,21,212.09,22.82,213.89Z" transform="translate(-12.29 -13.53)"/><path class="cls-12" d="M197.39,47.87c2,2.07,4.78,7.54,4.92,9.45,3-2.14,10.27-5.95,12.88-6.58-0.52-3.3-4.12-9.27-6.43-10.69C206.56,40.91,198.65,46.06,197.39,47.87Z" transform="translate(-12.29 -13.53)"/><path class="cls-13" d="M115.5,230.37c-1,1.3-4.08,2.83-5.27,2.76a70.39,70.39,0,0,1,6,10.13c2-.08,5.27-2.18,5.84-3.76C121.22,237.8,116.83,231.47,115.5,230.37Z" transform="translate(-12.29 -13.53)"/><path class="cls-14" d="M177.41,247.95a6.79,6.79,0,0,1,3.77-2.12,51.26,51.26,0,0,1-4.6-7.24c-1.46.1-3.79,1.7-4.17,2.86A42,42,0,0,0,177.41,247.95Z" transform="translate(-12.29 -13.53)"/><path class="cls-15" d="M167.81,190.34a92.56,92.56,0,0,1-13.21-4.25c0.45,2.43-1.59,8.39-3.29,10.76a135,135,0,0,0,12.84,4.88C166.75,198.13,168.5,192.58,167.81,190.34Z" transform="translate(-12.29 -13.53)"/><path class="cls-16" d="M87.58,205.5a92.56,92.56,0,0,1-13.21-4.25c0.45,2.43-1.59,8.39-3.29,10.76a135,135,0,0,0,12.84,4.88C86.52,213.28,88.28,207.74,87.58,205.5Z" transform="translate(-12.29 -13.53)"/><path class="cls-17" d="M65.51,171.62a57.32,57.32,0,0,1-8.57-2.69c0.26,1.63-1.14,5.65-2.28,7.26A83.46,83.46,0,0,0,63,179.31C64.72,176.86,65.94,173.12,65.51,171.62Z" transform="translate(-12.29 -13.53)"/><path class="cls-18" d="M28.79,169.51a92.56,92.56,0,0,1-13.21-4.25C16,167.7,14,173.66,12.29,176a135,135,0,0,0,12.84,4.88C27.73,177.3,29.49,171.75,28.79,169.51Z" transform="translate(-12.29 -13.53)"/><path class="cls-19" d="M200.09,157.48c0.88,3.1,4.64,7,7,7.71a14.9,14.9,0,0,0,5.45-4.55,38.58,38.58,0,0,1-6.64-8.76A26.15,26.15,0,0,1,200.09,157.48Z" transform="translate(-12.29 -13.53)"/><path class="cls-20" d="M63.45,149.8c0.4,2,2.47,4.48,3.83,4.84a11.17,11.17,0,0,0,3.44-3.26,21.27,21.27,0,0,1-3.59-5.55A20.13,20.13,0,0,1,63.45,149.8Z" transform="translate(-12.29 -13.53)"/><path class="cls-21" d="M205.72,203.47c0.4,2,2.47,4.48,3.83,4.84a11.17,11.17,0,0,0,3.44-3.26,21.27,21.27,0,0,1-3.59-5.55A20.13,20.13,0,0,1,205.72,203.47Z" transform="translate(-12.29 -13.53)"/><path class="cls-22" d="M88.48,150.82c0.88,3.1,4.64,7,7,7.71a14.9,14.9,0,0,0,5.45-4.55,38.58,38.58,0,0,1-6.64-8.76A26.15,26.15,0,0,1,88.48,150.82Z" transform="translate(-12.29 -13.53)"/><path class="cls-23" d="M198.33,233.24c-0.24-2.08,1.23-8.06,2.31-8.73-3.21-1.19-12.15-6.05-15.07-8.5-2.17,2.25-2.52,8.46-2.06,10.82C185.83,228.31,195.89,232.86,198.33,233.24Z" transform="translate(-12.29 -13.53)"/><path class="cls-24" d="M152.39,99.92l3.65-3.6c-1.79-2.32-7.61-5.63-10-5.59l-1.87,4.54A21.88,21.88,0,0,1,152.39,99.92Z" transform="translate(-12.29 -13.53)"/><path class="cls-25" d="M144.13,74l10.66,12.68c6.31-1.78,14.9-12.18,14.46-18l-13.07-9.42C154.93,64.46,149.23,71.34,144.13,74Z" transform="translate(-12.29 -13.53)"/><path class="cls-26" d="M69,223.82L79.62,236.5c6.31-1.78,14.9-12.18,14.46-18L81,209.07C79.76,214.24,74.06,221.12,69,223.82Z" transform="translate(-12.29 -13.53)"/><path class="cls-27" d="M55.66,200.61l15-3.47c1.86-4.8-1.64-13.67-6.27-15.09l-13.75,6.06C53.9,190.48,56.21,196.36,55.66,200.61Z" transform="translate(-12.29 -13.53)"/><path class="cls-28" d="M100.15,193.07a41.37,41.37,0,0,1-.94,13.64c4.73,0.44,18.65,4.49,24.05,8.05a55.82,55.82,0,0,0,2.45-13C121,197.93,104.35,193.15,100.15,193.07Z" transform="translate(-12.29 -13.53)"/><path class="cls-29" d="M41.09,200.29a41.57,41.57,0,0,1-1.41,11.64c3.49,0.12,13.59,2.83,17.41,5.58a57.73,57.73,0,0,0,2.5-11.15C56.26,203.32,44.2,200.13,41.09,200.29Z" transform="translate(-12.29 -13.53)"/><path class="cls-30" d="M95.58,146.75a40.91,40.91,0,0,1-1.65,7.95c1.76-.2,6.69.82,8.41,2.36a58.88,58.88,0,0,0,2.16-7.7C103.05,147.58,97.17,146.4,95.58,146.75Z" transform="translate(-12.29 -13.53)"/><path class="cls-31" d="M153.61,230.83a17,17,0,0,1-2.63,4.95c1.7,1,6.23,4.8,7.66,7a22.88,22.88,0,0,0,3.08-4.44C160.59,236.12,155.17,231.56,153.61,230.83Z" transform="translate(-12.29 -13.53)"/><path class="cls-32" d="M186,34.91a68.31,68.31,0,0,1-9.2,4.51c2,0.73,4.92,4,6.38,5.78a24.92,24.92,0,0,0,6.7-2.36C189.42,39.59,187.51,35.74,186,34.91Z" transform="translate(-12.29 -13.53)"/><path class="cls-33" d="M146.36,47.2a7.64,7.64,0,0,1,3.47,3.42,57.73,57.73,0,0,1,6.41-7.23c-0.57-1.55-3-3.57-4.4-3.62A47.3,47.3,0,0,0,146.36,47.2Z" transform="translate(-12.29 -13.53)"/><path class="cls-34" d="M124,157.78c-4.75,3.75-5.3,5.18-7.83,9.24,5.28,6.75,13.17,10.44,18.56,11.2,3-5.13,3.25-12.75,2.45-17.11C133.39,160.5,129.51,160.71,124,157.78Z" transform="translate(-12.29 -13.53)"/><path class="cls-35" d="M225.34,158.6a16.14,16.14,0,0,0-5.55,3.19c2.33,3,6.51,4.87,9.55,5.48a9.19,9.19,0,0,0,3.29-6.6C230.5,160.21,228.23,160.07,225.34,158.6Z" transform="translate(-12.29 -13.53)"/><path class="cls-36" d="M180.73,200.42a7.47,7.47,0,0,0-2.59,2.45,9.2,9.2,0,0,0,4.63,4.52,9.45,9.45,0,0,0,1.46-5.2A9.11,9.11,0,0,1,180.73,200.42Z" transform="translate(-12.29 -13.53)"/><path class="cls-37" d="M26.92,221.15a7.47,7.47,0,0,0-2.59,2.45A9.2,9.2,0,0,0,29,228.11a9.45,9.45,0,0,0,1.46-5.2A9.11,9.11,0,0,1,26.92,221.15Z" transform="translate(-12.29 -13.53)"/><path class="cls-38" d="M150.85,13.53A7.47,7.47,0,0,0,148.26,16a9.2,9.2,0,0,0,4.63,4.52,9.45,9.45,0,0,0,1.46-5.2A9.11,9.11,0,0,1,150.85,13.53Z" transform="translate(-12.29 -13.53)"/><path class="cls-39" d="M70.29,162.93a16.14,16.14,0,0,0-5.55,3.19c2.33,3,6.51,4.87,9.55,5.48a9.19,9.19,0,0,0,3.29-6.6C75.45,164.55,73.18,164.41,70.29,162.93Z" transform="translate(-12.29 -13.53)"/><path class="cls-40" d="M165.91,121a82.3,82.3,0,0,1-9.93-7.32c0.35,2.6-1.49,7.45-2.64,10a30,30,0,0,0,6.25,5.85C162.81,127.3,165.86,123.13,165.91,121Z" transform="translate(-12.29 -13.53)"/><path class="cls-41" d="M63.83,215.21a86.15,86.15,0,0,1-12.61-8.79c0.16,3.51-3,10.38-4.83,14.06a31.12,31.12,0,0,0,7.78,7.22C58.83,224.16,63.5,218.07,63.83,215.21Z" transform="translate(-12.29 -13.53)"/><path class="cls-42" d="M203.76,116.3a73.49,73.49,0,0,1-10.6-3c0.42,1.92-1,6.71-2.3,8.63a107.2,107.2,0,0,0,10.33,3.5C203.14,122.51,204.38,118.06,203.76,116.3Z" transform="translate(-12.29 -13.53)"/><path class="cls-43" d="M226.17,134.44a77.72,77.72,0,0,1-10.6-4.84c0.13,2.07-2.15,6.84-3.8,8.64A113.36,113.36,0,0,0,222,143.58C224.52,140.83,226.53,136.38,226.17,134.44Z" transform="translate(-12.29 -13.53)"/><path class="cls-44" d="M156.07,161a11.63,11.63,0,0,1-3.12-1,17.85,17.85,0,0,1-2.37,4.47,16.15,16.15,0,0,0,2.93,1.24A15.13,15.13,0,0,0,156.07,161Z" transform="translate(-12.29 -13.53)"/><path class="cls-45" d="M94.68,218.34a46.4,46.4,0,0,1-4.54,5.27c1.21,0.27,3.56,2.37,4.32,3.62a67.68,67.68,0,0,0,4.76-5C98.06,220.35,95.85,218.46,94.68,218.34Z" transform="translate(-12.29 -13.53)"/><path class="cls-46" d="M178.41,169.82a52.42,52.42,0,0,1-3.78-6.89c-0.76,1.17-3.92,2.83-5.54,3.14a76.46,76.46,0,0,0,3.38,7C174.94,172.61,177.82,171,178.41,169.82Z" transform="translate(-12.29 -13.53)"/><path class="cls-47" d="M63.41,241.13a52.42,52.42,0,0,1,1.35-7.74c-1.33.44-4.83-.24-6.29-1A76.46,76.46,0,0,0,56.74,240C59,241.15,62.21,241.7,63.41,241.13Z" transform="translate(-12.29 -13.53)"/><path class="cls-48" d="M103.88,174.9A52.42,52.42,0,0,1,100.1,168c-0.76,1.17-3.92,2.83-5.54,3.14a76.46,76.46,0,0,0,3.38,7C100.41,177.69,103.29,176.09,103.88,174.9Z" transform="translate(-12.29 -13.53)"/><path class="cls-49" d="M181,80.71a62.36,62.36,0,0,1,2.51-9c-1.62.37-5.69-.85-7.33-1.93a91,91,0,0,0-2.95,8.77C175.77,80.2,179.55,81.24,181,80.71Z" transform="translate(-12.29 -13.53)"/><path class="cls-50" d="M192.65,187.58c-3.12-.35-6.56-1.29-7.86-2.81a27.68,27.68,0,0,0-2.76,8.87c2.62,0.58,6.34-.2,8.43-1A11,11,0,0,1,192.65,187.58Z" transform="translate(-12.29 -13.53)"/></svg>