<svg id="Layer_1" data-name="Layer 1" xmlns="http://www.w3.org/2000/svg" viewBox="0 0 30.45 30.08"><defs><style>.cls-1{fill:#686868;}</style></defs><title>Phone_icon</title><g id="Layer0_1_FILL" data-name="Layer0 1 FILL"><path class="cls-1" d="M8.67,11.72A10.06,10.06,0,0,0,8,14.67a10.74,10.74,0,0,0,.4,2.67A27.48,27.48,0,0,0,12.17,26a28.43,28.43,0,0,0,15,11,10.82,10.82,0,0,0,3.26.79,12.13,12.13,0,0,0,5.76-1.54,4.75,4.75,0,0,0,2-3q0.59-2-.12-2.49-0.53-.36-3.34-2L32,27.21a1.39,1.39,0,0,0-.65-0.26,1.37,1.37,0,0,0-1.34.53l-2.18,2.45a1.68,1.68,0,0,1-.75.47A2.24,2.24,0,0,1,25,30q-3-1.82-3.4-2.18a28.61,28.61,0,0,1-6.15-7.65,1.76,1.76,0,0,1-.3-1.21,2.82,2.82,0,0,1,.69-1A19.38,19.38,0,0,1,18,16.41q1.46-1.29.81-2.45l-3.56-6a5.34,5.34,0,0,0-2.67-.08A5.14,5.14,0,0,0,8.67,11.72Z" transform="translate(-7.99 -7.71)"/></g></svg>