<?xml version="1.0" encoding="utf-8"?>
<!-- Generator: Adobe Illustrator 19.2.1, SVG Export Plug-In . SVG Version: 6.00 Build 0)  -->
<svg version="1.1" id="Layer_1" xmlns="http://www.w3.org/2000/svg" xmlns:xlink="http://www.w3.org/1999/xlink" x="0px" y="0px"
	 viewBox="0 0 78.7 79" style="enable-background:new 0 0 78.7 79;" xml:space="preserve">
<style type="text/css">
	.st0{fill:#676767;}
</style>
<path class="st0" d="M69.4,26.1c-1.7-3.9-4.1-7.4-7.1-10.5c-3.1-3-6.6-5.4-10.5-7.1c-4.1-1.7-8.4-2.6-12.9-2.6
	c-4.5,0-8.8,0.9-12.9,2.6c-3.9,1.7-7.4,4.1-10.5,7.1c-3.1,3.1-5.4,6.6-7.1,10.5C6.7,30.2,5.8,34.5,5.8,39c0,4.5,0.9,8.8,2.6,12.9
	c1.7,4,4,7.5,7.1,10.5c3.1,3.1,6.6,5.4,10.5,7.1c4.1,1.7,8.4,2.6,12.9,2.6c4.5,0,8.8-0.9,12.9-2.6c4-1.7,7.5-4,10.5-7.1
	c3-3.1,5.4-6.6,7.1-10.5C71.1,47.8,72,43.5,72,39C72,34.5,71.1,30.2,69.4,26.1z M53.7,31.4v1c0,5.5-1.8,10.4-5.5,14.6
	c-4.2,4.7-9.5,7.1-16.1,7.1c-4.2,0-8.1-1.2-11.7-3.5c0.7,0.1,1.3,0.1,1.8,0.1c3.5,0,6.7-1.1,9.5-3.2c-1.7,0-3.2-0.5-4.5-1.5
	c-1.3-1-2.2-2.2-2.6-3.8c0.4,0.1,0.9,0.2,1.4,0.2c0.7,0,1.4-0.1,2-0.2c-1.7-0.4-3.2-1.2-4.3-2.6c-1.2-1.4-1.8-3-1.8-4.8v-0.2
	c1.1,0.6,2.2,1,3.5,1c-1-0.7-1.9-1.5-2.5-2.7c-0.6-1.1-1-2.3-1-3.6c0-1.4,0.3-2.7,1-3.9c1.9,2.3,4.2,4.2,6.9,5.6
	c2.7,1.4,5.7,2.2,8.8,2.3c-0.1-0.5-0.2-1.1-0.2-1.7c0-2.1,0.8-3.9,2.2-5.4c1.5-1.5,3.2-2.2,5.4-2.2c1.1,0,2.1,0.2,3.1,0.6
	c0.9,0.4,1.8,1,2.5,1.8c1.7-0.3,3.3-0.9,4.8-1.8c-0.6,1.8-1.7,3.2-3.4,4.2c1.6-0.2,3-0.6,4.4-1.2C56.4,29,55.1,30.3,53.7,31.4z"/>
</svg>
