<svg id="Layer_1" data-name="Layer 1" xmlns="http://www.w3.org/2000/svg" xmlns:xlink="http://www.w3.org/1999/xlink" viewBox="0 0 1177.77 1177.77"><defs><style>.cls-1{fill:none;}.cls-2{fill:url(#radial-gradient);}.cls-3{opacity:0.71;}.cls-4{fill:#fff;}.cls-5{fill:#008446;}.cls-6{fill:#d6f2e3;}.cls-7{fill:url(#radial-gradient-2);}.cls-8{opacity:0.65;}.cls-9{isolation:isolate;}.cls-10{clip-path:url(#clip-path);}</style><radialGradient id="radial-gradient" cx="968.22" cy="1111.41" r="767.34" gradientTransform="translate(-293.28 -753.43)" gradientUnits="userSpaceOnUse"><stop offset="0" stop-color="#bebd9b"/><stop offset="0.35" stop-color="#76bd64"/><stop offset="0.84" stop-color="#008446"/><stop offset="1" stop-color="#0d5c37"/></radialGradient><radialGradient id="radial-gradient-2" cx="994.31" cy="68.13" r="360.2" gradientTransform="matrix(1, 0, 0, -1, -293.84, 454.19)" gradientUnits="userSpaceOnUse"><stop offset="0.52" stop-color="#fff" stop-opacity="0.4"/><stop offset="1" stop-color="#fff" stop-opacity="0"/></radialGradient><clipPath id="clip-path" transform="translate(-293.28 -109.43)"><path class="cls-1" d="M1005.79,1275.27c-5.47,1.13-12.78,2.61-18.27,3.63-2.22.41-8.8,1.57-13.48,2.3-6.83,1.07-10.27,1.58-19.37,2.75-6.63.85-15.6,1.75-15.75,1.76h0l-3.85.37-3.89.34-4.05.33c-1.91.15-7.74.6-13.4.9-5.09.27-12.78.68-22.6.8-7.74.09-18.05,0-25.79-.21-8.5-.19-19.83-.9-28.31-1.42-4.39-.27-10.24-.83-14.63-1.21-7.58-.67-21.38-2.29-31.34-3.85-10.84-1.7-25.32-4-36-6.69-17.22-4.28-40.13-10.23-57.07-15.51-12.41-3.87-28.68-9.9-40.65-15-13.68-5.8-31.72-14-45-20.71-11.95-6.06-27.5-14.88-38.94-21.84-12-7.34-27.67-17.83-39.1-26.1-10.94-7.92-25.07-19.1-35.38-27.81-10.6-9-24.2-21.51-34.06-31.28-9.64-9.56-22-22.81-30.87-33.09-9-10.47-20.56-24.91-28.76-36s-18-26.35-25.6-37.76c-7.69-11.6-16.55-28-22.95-40.32s-14.25-29.07-19.62-41.85a590.26,590.26,0,0,1-43.44-171.71c-2.52-28.69-2.51-67.2-1.69-96a340.92,340.92,0,0,1,4.92-47.15c2.54-13.72,5.42-32.13,8.52-45.74s7.47-31.75,12.12-44.91c4.57-13,10.26-30.4,15.37-43.15s12.66-29.63,18.77-42A593.09,593.09,0,0,1,456,288.76c9.33-9.69,22.25-22.15,32.29-31.1,10.27-9.15,24.52-20.69,35.35-29.17,10.42-8.16,24.95-18.2,36-25.4,11.27-7.31,26.73-16.39,38.45-23,10.63-6,25.24-13.1,36.3-18.23,9.77-4.53,23-10,33.07-14,12.69-5,29.94-10.76,43-14.71,12.36-3.75,29.07-8,41.63-11,4-1,9.48-2.08,13.56-2.86,2.74-.52,6.39-1.25,9.14-1.74,4-.71,9.26-1.62,13.23-2.26,8.32-1.33,15-2.19,19.42-2.76,6-.77,14.9-1.69,15.75-1.76h0c1.16-.1,2.69-.26,3.85-.37l3.89-.34c2.46-.21,5.74-.48,8.21-.64,8.83-.6,12.26-.78,20.36-1.11,3.92-.16,9.15-.26,13.08-.29,4.3,0,10,0,14.33.07,4.62,0,10.77.31,15.38.45,9.92.31,23.12,1.3,33,2.17a590.76,590.76,0,0,1,70.35,10.39c11.82,2.59,27.52,6.37,39.1,9.86,15.51,4.68,36,11.54,51.14,17.36a623.49,623.49,0,0,1,79.32,38.12c12.73,7.37,29.31,17.88,41.44,26.21,11.09,7.61,25.41,18.43,35.88,26.88,10.94,8.84,25,21.25,35.24,30.92,9.84,9.32,22.12,22.6,31.54,32.34,9.67,10,21.21,24.56,29.7,35.57s19.15,26.05,26.73,37.65c15.07,23.07,31.85,55.89,44,80.61,6.23,12.65,12.77,30.34,17.49,43.63s9.77,31.44,13.95,44.91c4.27,13.77,7.93,32.72,10.5,46.9,2.61,14.41,5.31,33.76,6.75,48.33s2.67,33.82,2.79,48.34c.12,14.3-.05,33.39-1.1,47.65-1.31,17.77-3.44,41.51-6.77,59-2.6,13.68-6.06,31.94-9.42,45.45s-8.08,31.54-13,44.58-10.49,30.67-16.4,43.21c-5.82,12.35-13.1,29-19.4,41.15s-15.11,28.47-22.76,39.94c-7.52,11.26-17.28,26.47-25.3,37.38-8.19,11.14-19.28,25.93-28.68,36.07-18.26,19.69-43.61,45-63.34,63.25-10.09,9.33-24.66,20.54-35.89,28.46-11.91,8.39-27.71,19.75-40.33,27-20.61,11.88-48.56,27-70.26,36.72-10.19,4.57-24.11,9.9-34.55,13.86-6.1,2.31-14.36,5-20.57,7.05s-14.27,4.55-20.47,6.22c-11.13,3-26,6.74-37.27,9.34a387.23,387.23,0,0,1-67.11,8.36h0A387.23,387.23,0,0,0,1005.79,1275.27Z"/></clipPath></defs><title>bono_loto_Logo</title><circle class="cls-2" cx="588.88" cy="588.88" r="588.88"/><g id="_197a7D" data-name=" 197a7D" class="cls-3"><path class="cls-4" d="M904.37,363.19s-49.71,95-97.51,55.46c-13.42-12.85-8.12-26.15-11.27-38.44s-30.32-32.58-8.68-64.6,101.46,4.06,101.46,4.06,10.48-3.49,3.49-7.55-93.79-21.53-71-90.19c2.93-9.92,21.53-19.84,39-22.55s14-8.68,20.4-13.42a42.5,42.5,0,0,1,57,8.12c21.53,26.15,0,90.19,0,90.19s1.13,10.37,5.19,2.25,22.55-78,61.1-74,44.3,51.29,46.56,56.37,43.06,50.62,0,72.26c-29.08,5.19-76.32-.56-62.9,8.12s41.37,8.91,50.62,33.14c12.18,32-6.43,50.62-36.64,62.9-18,18-64.71,57.61-82.18-10,3.49-48,5-61.66,5-61.66s-4.85-11.27-7.78-1.69-8.12,86.69-68.77,95.71c-7.55,0-3.49-11.84,4.62-15.33S900.43,438.95,904.37,363.19Z" transform="translate(-293.28 -109.43)"/></g><path class="cls-5" d="M589,698.07h95.57c34.24,0,67.71-5.33,67.71-57.19,0-20.63-14-43.08-37-46.87v-.63c22-7,34-22.1,34-50.45,0-39.22-28.07-50.73-56.62-50.73H589V698.07Zm59.64-84.62h17c11.79,0,23.58,3.23,23.58,21.05,0,15.93-12.49,21.05-24.07,21.05H648.64v-42.1Zm0-82.31H665.9c11.3,0,21.68,4.7,21.68,20.07S675.51,571,664.43,571H648.64V531.15Z" transform="translate(-293.28 -109.43)"/><path class="cls-5" d="M684.56,713.93H573.14V476.35H692.56c45.38,0,72.48,24.89,72.48,66.58,0,21.36-6,38-17.85,49.8,13.74,12.69,20.94,31.35,20.94,48.16C768.13,713.93,707.42,713.93,684.56,713.93Zm-79.71-31.71h79.71c35.86,0,51.86-6,51.86-41.33,0-13.43-8.89-28.78-23.77-31.23l-13.28-2.19v-25l11-4.15c13.77-4.4,22.93-12.09,22.93-35.35,0-9.54,0-34.88-40.77-34.88H604.85Zm60.28-10.81H632.78V597.6h32.84c36.59,0,39.43,28.25,39.43,36.9C705,656.58,689,671.41,665.13,671.41Zm-.64-31.71h.64c8.21,0,8.21-2.76,8.21-5.2,0-3-.55-4.15-.63-4.28h0c-.09,0-1.76-.92-7.1-.92h-1.13Zm-.06-52.84H632.78V515.29H665.9c22.8,0,37.54,14.1,37.54,35.92C703.43,572.53,687.76,586.85,664.43,586.85Zm.06-39.85v8.14c4.71,0,6.67-1.24,6.86-1.49a5.4,5.4,0,0,0,.37-2.45,7.11,7.11,0,0,0-.5-3.31c-.24-.18-1.87-.9-5.33-.9Z" transform="translate(-293.28 -109.43)"/><path class="cls-5" d="M762.52,618.43c0,53.12,26.45,83.15,76.2,83.15s76.55-30.1,76.55-83.15c0-51.64-26.87-77.6-76.48-77.6s-76.27,26-76.27,77.6Zm63.15,0c0-18.31,1.4-33.33,13-33.33s13.47,15,13.47,33.33c0,22.45-1.68,38.94-13.19,38.94s-13-16.49-13-38.94h-.28Z" transform="translate(-293.28 -109.43)"/><path class="cls-5" d="M838.72,717.43c-57.64,0-92.05-37-92.05-99,0-59.39,33.58-93.46,92.13-93.46s92.33,34.06,92.33,93.46C931.12,680.42,896.58,717.43,838.72,717.43Zm.07-160.75c-41.22,0-60.42,19.63-60.42,61.75,0,45.28,19.74,67.29,60.34,67.29,40.27,0,60.7-22.64,60.7-67.29C899.42,576.31,880.15,556.68,838.79,556.68Zm.14,116.55c-21.94,0-27.19-20.64-28.44-38.95h-.4l-.28-15.85c0-14.71,0-49.18,28.83-49.18C868,569.25,868,605,868,618.43,868,637.59,868,673.23,838.93,673.23Z" transform="translate(-293.28 -109.43)"/><path class="cls-5" d="M930.92,698.07h59.43V609.59c0-8.84,0-21.05,10.6-21.05s10.38,12.07,10.38,21.05v88.48h59.43V591.28c0-29.82-11.58-50.45-43.15-50.45A40.56,40.56,0,0,0,987.05,571h0V544.62H930.92V698.28h0Z" transform="translate(-293.28 -109.43)"/><path class="cls-5" d="M1086.62,713.93H930.92V698.29H915.07V528.76h87.84v1.18a56.33,56.33,0,0,1,25.23-5h0c37,0,58.46,24.17,58.46,66.3Zm-59.43-31.71h27.73V591.28c0-32.66-14.58-34.53-28.2-34.61a24.75,24.75,0,0,0-23.61,16.1c10.48.79,18.63,7.32,22,17.82,2.07,6.4,2.06,13.1,2.06,18.49Zm-53.12,0h.43v-1.65Zm-27.29,0H971.2V560.47H946.77Z" transform="translate(-293.28 -109.43)"/><path class="cls-5" d="M1086.06,618.43c0,53.12,26.45,83.15,76.2,83.15s76.48-30.1,76.48-83.15c0-51.64-26.87-77.6-76.48-77.6s-76.2,26-76.2,77.6Zm63.15,0c0-18.31,1.4-33.33,13-33.33s13.19,15,13.19,33.33c0,22.45-1.68,38.94-13.19,38.94s-13-16.49-13-38.94Z" transform="translate(-293.28 -109.43)"/><path class="cls-5" d="M1162.26,717.43c-57.64,0-92.05-37-92.05-99,0-59.39,33.55-93.46,92.05-93.46,58.68,0,92.34,34.06,92.34,93.46C1254.6,680.42,1220.08,717.43,1162.26,717.43Zm0-160.75c-41.17,0-60.34,19.63-60.34,61.75,0,45.28,19.74,67.29,60.34,67.29,40.23,0,60.63-22.64,60.63-67.29C1222.89,576.31,1203.62,556.68,1162.26,556.68Zm-.07,116.55c-28.83,0-28.83-35.65-28.83-54.8,0-14.71,0-49.18,28.83-49.18,29,0,29,35.73,29,49.18C1191.24,637.59,1191.24,673.23,1162.19,673.23Z" transform="translate(-293.28 -109.43)"/><polygon class="cls-5" points="295.72 849.95 452.33 849.95 452.33 782.38 366.03 782.38 366.03 621.07 295.72 621.07 295.72 849.95 295.72 849.95"/><path class="cls-5" d="M761.46,975.23H573.14V714.63h102V876h86.31ZM604.85,943.52h124.9V907.66H643.45V746.34H604.85Z" transform="translate(-293.28 -109.43)"/><path class="cls-5" d="M751.29,870.83c0,59,29.4,92.48,84.76,92.48s85-33.47,85-92.48c0-57.4-29.89-86.24-85-86.24s-84.76,28.84-84.76,86.24Zm70.17,0c0-20.35,1.54-37,14.45-37s14.66,16.7,14.66,37c0,24.91-1.82,43.29-14.66,43.29s-14.45-18.38-14.45-43.29Z" transform="translate(-293.28 -109.43)"/><path class="cls-5" d="M836.06,979.16c-63.94,0-100.62-39.49-100.62-108.33,0-65.83,35.73-102.09,100.62-102.09S936.88,805,936.88,870.82C936.88,939.67,900.13,979.16,836.06,979.16Zm0-178.71c-47,0-68.91,22.36-68.91,70.38,0,50.84,23.19,76.63,68.91,76.63s69.11-25.78,69.11-76.63C905.17,822.81,883.21,800.45,836.06,800.45ZM835.91,930c-30.31,0-30.31-37-30.31-59.15,0-15.83,0-52.9,30.31-52.9,30.52,0,30.52,37.07,30.52,52.9C866.43,891.49,866.43,930,835.91,930Z" transform="translate(-293.28 -109.43)"/><path class="cls-5" d="M932.46,788.52v49.12h23.37v59c0,45.26,16.56,66.59,50.66,66.59a130.58,130.58,0,0,0,45.4-8.84V905.28a38.31,38.31,0,0,1-15.51,2.95c-8.63,0-14.45-7.86-14.45-22.31v-48.2h29.89V788.59h-29.68V724L956,749.23v39.36H932.46Z" transform="translate(-293.28 -109.43)"/><path class="cls-5" d="M1006.72,979.09c-30.57,0-66.74-14.31-66.74-82.44V853.49H916.61v-65h15.85V772.74h7.72V738.32L1038,700.94v71.8h29.68v80.82h-29.89v32.35a23,23,0,0,0,.75,6.42,22.32,22.32,0,0,0,7.26-1.68l21.95-9.13v83.74l-10.12,3.93A145.94,145.94,0,0,1,1006.72,979.09Zm-58.4-157.31h23.37v74.87c0,50.73,22.64,50.73,34.8,50.73A113.57,113.57,0,0,0,1036,943V924.08c-14.76,0-30-11.82-30-38.17V821.85H1036V804.45h-29.68V747l-34.39,13.14v44.3H948.32Zm88.06,70.59h0Z" transform="translate(-293.28 -109.43)"/><path class="cls-5" d="M1068.94,870.83c0,59,29.4,92.48,84.76,92.48s85-33.47,85-92.48c0-57.4-29.89-86.24-85-86.24s-84.76,28.84-84.76,86.24Zm70.17,0c0-20.35,1.54-37,14.45-37s14.66,16.7,14.66,37c0,24.91-1.82,43.29-14.66,43.29s-14.45-18.38-14.45-43.29Z" transform="translate(-293.28 -109.43)"/><path class="cls-5" d="M1153.7,979.16c-63.94,0-100.62-39.49-100.62-108.33,0-65.83,35.73-102.09,100.62-102.09S1254.53,805,1254.53,870.82C1254.53,939.67,1217.78,979.16,1153.7,979.16Zm0-178.71c-47,0-68.91,22.36-68.91,70.38,0,50.84,23.19,76.63,68.91,76.63s69.12-25.78,69.12-76.63C1222.82,822.81,1200.86,800.45,1153.7,800.45ZM1153.56,930c-30.31,0-30.31-37-30.31-59.15,0-15.83,0-52.9,30.31-52.9,30.52,0,30.52,37.07,30.52,52.9C1184.08,891.49,1184.08,930,1153.56,930Z" transform="translate(-293.28 -109.43)"/><path class="cls-6" d="M589.81,693.42h95.57c34.24,0,67.71-5.33,67.71-57.19,0-20.63-14-43.08-37-46.87v-.63c22-7,34-22.1,34-50.45,0-39.22-28.07-50.73-56.62-50.73H589.81V693.42Zm59.64-84.62h17c11.79,0,23.58,3.23,23.58,21.05,0,15.93-12.49,21.05-24.07,21.05H649.45V608.8Zm0-82.31h17.26c11.3,0,21.68,4.7,21.68,20.07s-12.07,19.79-23.16,19.79H649.45V526.49Z" transform="translate(-293.28 -109.43)"/><path class="cls-6" d="M763.34,613.78c0,53.12,26.45,83.15,76.2,83.15s76.55-30.1,76.55-83.15c0-51.64-26.87-77.6-76.48-77.6s-76.27,26-76.27,77.6Zm63.15,0c0-18.31,1.4-33.33,13-33.33s13.47,15,13.47,33.33c0,22.45-1.68,38.94-13.19,38.94s-13-16.49-13-38.94h-.28Z" transform="translate(-293.28 -109.43)"/><path class="cls-6" d="M931.74,693.42h59.43V604.94c0-8.84,0-21.05,10.6-21.05s10.38,12.07,10.38,21.05v88.48h59.43V586.63c0-29.82-11.58-50.45-43.15-50.45a40.56,40.56,0,0,0-40.56,30.17h0V540H931.74V693.63h0Z" transform="translate(-293.28 -109.43)"/><path class="cls-6" d="M1086.88,613.78c0,53.12,26.45,83.15,76.2,83.15s76.48-30.1,76.48-83.15c0-51.64-26.87-77.6-76.48-77.6s-76.2,26-76.2,77.6Zm63.15,0c0-18.31,1.4-33.33,13-33.33s13.19,15,13.19,33.33c0,22.45-1.68,38.94-13.19,38.94s-13-16.49-13-38.94Z" transform="translate(-293.28 -109.43)"/><polygon class="cls-6" points="296.54 845.3 453.15 845.3 453.15 777.73 366.84 777.73 366.84 616.41 296.54 616.41 296.54 845.3 296.54 845.3"/><path class="cls-6" d="M752.11,866.17c0,59,29.4,92.48,84.76,92.48s85-33.47,85-92.48c0-57.4-29.89-86.24-85-86.24s-84.76,28.84-84.76,86.24Zm70.17,0c0-20.35,1.54-37,14.45-37s14.66,16.7,14.66,37c0,24.91-1.82,43.29-14.66,43.29s-14.45-18.38-14.45-43.29Z" transform="translate(-293.28 -109.43)"/><path class="cls-6" d="M933.28,783.86V833h23.37v59c0,45.26,16.56,66.59,50.66,66.59a130.58,130.58,0,0,0,45.4-8.84V900.62a38.31,38.31,0,0,1-15.51,2.95c-8.63,0-14.45-7.86-14.45-22.31v-48.2h29.89V783.93H1023V719.31l-66.1,25.26v39.36H933.28Z" transform="translate(-293.28 -109.43)"/><path class="cls-6" d="M1069.75,866.17c0,59,29.4,92.48,84.76,92.48s85-33.47,85-92.48c0-57.4-29.89-86.24-85-86.24s-84.76,28.84-84.76,86.24Zm70.17,0c0-20.35,1.54-37,14.45-37s14.66,16.7,14.66,37c0,24.91-1.82,43.29-14.66,43.29s-14.45-18.38-14.45-43.29Z" transform="translate(-293.28 -109.43)"/><circle class="cls-7" cx="605.55" cy="510.01" r="497.93"/><g class="cls-8"><g class="cls-9"><g class="cls-9"><g class="cls-10"><path class="cls-4" d="M471.95,287.93c36.65-40.32,37.35-41.09,61.57-61.39C499,259.68,499,259.68,483.83,279.61l-11.88,8.32m-18.49,40.54c9.22-6.23,21.47-14.63,30.86-20.62l13.18-24.38,8.85-5.39,14.77-22-8.55,5.06c25.91-30.85,38.91-46.33,78-73.05-10,5.3-23.26,12.47-33.07,18.11-42.58,32.23-63.95,48.4-104.36,96L436,327c9.41-7.3,22-17,31.68-23.91l-14.26,25.38" transform="translate(-293.28 -109.43)"/><path class="cls-4" d="M554.74,253.08c-2.38,2.7-6.15,5.14-8.57,5.56l-.5-.07c-.32-.57-.86-1.52,6.31-13,43.22-58.86,64.38-66.5,68.18-67.43-.13.38-.13.38-10.86,9.36-25.59,24.43-32.47,31-47.34,54.82-2.94,4.71-5.47,8.77-7.22,10.75m29-11.58A125.86,125.86,0,0,0,594.63,226c14.59-23,25.17-33.7,35.4-44.07,21.83-20,21.83-20,21.85-20.18a5,5,0,0,0-1.45-.23c-.58.08-59.91,9.89-126,95-20.31,29.21-9.68,29.87-4.17,28.8.32-.06,34.37-9,63.41-43.9" transform="translate(-293.28 -109.43)"/><path class="cls-4" d="M605.7,1194.36c-10.65-19.9-10.85-20.28-13.08-32.59l19.48,11.48c-6.25,13.49-6.25,13.49-6.4,21.11m-14.24-46.93,1.63-15.5c-12.9-9.07-30.2-21-42.87-30.42l-1.73,16.82-12-8.7.73,15.86,12,8.37c4.92,21.15,7.39,31.77,24.41,52.8,17.55,9.3,41.08,21.48,59,30,1-9,1.44-13.14,12.84-25L644,1178.83c-15.84-9.27-36.95-21.67-52.51-31.4" transform="translate(-293.28 -109.43)"/><path class="cls-4" d="M484.72,1064.5c1.89,2.63,2.22,3.8,2.51,14.15,2.8,23.7,3.55,30.06,12.15,48,2.53,5.3,2.48,5.45,2.24,6.08l-.16,0c-1.48-.38-9.26-3-16.85-18.74-4.2-11.31-9.14-26.79-10.78-38.74-.29-2.11-2.67-20.54,3-18,2.23,1,6.22,4.77,7.92,7.14m27.08,10.08c-.42-.57-46.89-56.83-69-55-12.83,2.69-3.29,38.45,1.41,53.7,18.54,48.61,95.17,95.1,97,88.13.43-1.62-1.77-6.69-3.9-11.59-5.91-13.63-6.6-17.9-9.15-33.78-.85-9.78-1.9-21.94-16.36-41.45" transform="translate(-293.28 -109.43)"/><path class="cls-4" d="M1132.09,229.73l-18-6.26c-5.85-26.14-6-26.64-13.91-40,23,28.39,23,28.39,31.9,46.23m39.78,15c-18.91-30.29-28.4-45.49-59.34-70.52-13.74-4.46-32.09-10.3-45.93-14.43,12.12,18.14,17.65,26.41,16.85,53.62l7.15,20.21c15.17,5.1,35.4,11.93,50.47,17.31l7.05,23.58c12.84,5,30,11.6,42.74,16.85l-8.62-24.47,11.46,4.71L1183,249.27l-11.1-4.58" transform="translate(-293.28 -109.43)"/><path class="cls-4" d="M1191.58,214a139.81,139.81,0,0,1,12.07,11.65c12.4,14.84,28.18,35.34,38.46,51.71.16.26,15.81,25.88,10.16,25.71-7.27-1.68-9-5.12-17.38-21.64-19.15-32.36-24.93-42.12-46.93-65.17-5.16-5.41-5.57-5.87-6.2-7l.2-.45c1.92.14,6.33,2.51,9.62,5.17m27.54,12.46c-26.61-22.1-58.3-36.33-68.57-38.08-5.3-.7-6.34,1.22-3.11,5.7,15.15,21,32.7,40.34,45.88,62.83,9,17.07,19.22,36.43,40.83,52.67.49.37,48.85,35.76,54.3,18.82,4.72-14.68-35.36-65.92-43.44-76a224.56,224.56,0,0,0-25.89-25.89" transform="translate(-293.28 -109.43)"/><path class="cls-4" d="M1316.07,1055.09l13.6-11.95c-26.23,43.55-26.73,44.38-45.89,67.72,10.16-15.36,23.66-36.09,31.06-53a15.79,15.79,0,0,1,1.23-2.81m-87.23,104.76c12.77-8.44,29.71-19.83,42.15-28.74,35.48-38.91,51.67-56.67,80.5-108.61l9.13-25.21c-10.56,10.3-24.67,24-35.58,33.92l6.69-25.37c-9.8,8.65-22.79,20.28-32.79,28.71l-6.46,24.2-9.71,7.8-8.77,22.32,9.71-7.43c-16.56,31.63-24.87,47.51-54.86,78.42" transform="translate(-293.28 -109.43)"/><path class="cls-4" d="M1189.72,1177.1c-1.44,1.07-6.58,4.43-8,4.43.09-.63.09-.63,8.3-10,19.81-26.07,25.14-33.08,34.89-57.2,8.78-21.71,15.11-18.16,15.15-18.06.15.36.34,2.32-3.45,12.12-25.88,53.16-40.63,64.07-46.93,68.72m18.73-7.16c25.55-19.63,40.8-39.85,60.45-80.13,6.34-15.27,8.16-23.91-.32-25.86-10.44-.45-40.89,22.16-56.88,40-21.25,23.72-31.14,54.61-50.31,79.65-15.83,18.61-15.83,18.61-15.9,19.94,4,2.89,37.85-14.31,63-33.6" transform="translate(-293.28 -109.43)"/></g></g></g></g></svg>