<svg id="Layer_1" data-name="Layer 1" xmlns="http://www.w3.org/2000/svg" xmlns:xlink="http://www.w3.org/1999/xlink" viewBox="0 0 1324.91 1195.71"><defs><style>.cls-1{fill:none;}.cls-2{fill:#fff;}.cls-3{clip-path:url(#clip-path);}.cls-4{fill:#b91918;}.cls-5{clip-path:url(#clip-path-2);}.cls-6{fill:url(#radial-gradient);}.cls-7{opacity:0.64;isolation:isolate;fill:url(#radial-gradient-2);}.cls-8{fill:#300000;filter:url(#AI_GaussianBlur_7);}.cls-9{fill:url(#radial-gradient-3);}</style><clipPath id="clip-path" transform="translate(-220.23 -95.92)"><path class="cls-1" d="M890.41,1291.62a598.77,598.77,0,0,1-233.64-46.73c-11.52-5.12-27.52-12.16-38.41-17.92-12.16-6.4-28.8-15.36-41-23s-26.24-16.64-37.13-25-26.24-19.84-37.13-28.8a591.71,591.71,0,0,1-194-311.09,456.33,456.33,0,0,1-13.44-71.69,631.84,631.84,0,0,1-4.48-98.58c1.28-30.08,1.92-42.25,11.52-96a582.49,582.49,0,0,1,44.81-134.42c6.4-12.16,14.08-28.8,21.12-41s17.28-28.8,25-40.33a593.57,593.57,0,0,1,58.89-73.61,749.81,749.81,0,0,1,66.57-60.81,580.7,580.7,0,0,1,78.73-52.49,593.5,593.5,0,0,1,79.37-36.49c10.88-3.84,25-9,35.85-12.16,21.12-6.4,27.52-7.68,44.81-12.16,6.4-1.28,23.68-5.12,48.65-9,22.4-3.2,45.45-4.48,46.09-4.48h5.76c.64,0,6.4,0,16.64-.64h12.16c4.48,0,13.44,0,26.88.64a727.48,727.48,0,0,1,98.58,12.16,512.08,512.08,0,0,1,86.41,25,592.86,592.86,0,0,1,224.68,149.78c9.6,10.24,21.76,24.32,30.72,35.21s19.2,25.6,27.52,37.13a562.13,562.13,0,0,1,46.73,80.65c14.72,30.72,14.72,30.72,33.93,88.33,4.48,15.36,8.32,30.72,11.52,46.73,3.2,14.08,5.76,33.29,7.68,47.37a415,415,0,0,1,3.84,48.65,678.5,678.5,0,0,1-2.56,88.33,598.56,598.56,0,0,1-223.4,405.18,633.7,633.7,0,0,1-73,49.29c-15.36,9-35.85,19.2-51.85,26.88-10.24,5.12-25,10.24-35.85,14.72,216.35-81.93,364.86-302.13,354-560.73C1440.9,364.76,1176.54,99.76,864.81,100.4c312.37-.64,576.73,264.36,590.17,592.09,10.88,258.6-137.62,478.8-354,560.73-10.88,3.84-25,9-35.85,12.16-8.32,2.56-19.2,5.76-28.16,7.68s-23,5.76-33.93,7.68a518.5,518.5,0,0,1-54.41,7.68A465.21,465.21,0,0,1,890.41,1291.62Z"/></clipPath><clipPath id="clip-path-2" transform="translate(-220.23 -95.92)"><path class="cls-1" d="M1100.36,1253.22c-7.68,2.56-18.56,7-26.24,9s-18.56,5.76-26.24,7.68-18.56,5.12-26.24,6.4c-18.56,3.84-27.52,5.76-50.57,9-17.92,2.56-39,3.84-46.09,4.48l-16.64.64H896.81c-9.6,0-12.16,0-25.6-.64-1.92,0-20.48-.64-48-3.84-25.6-2.56-43.53-6.4-53.13-7.68-12.8-2.56-29.44-7-42.25-10.24a506,506,0,0,1-62.09-21.12c-11.52-5.12-27.52-11.52-39-17.28-14.08-7-32.65-16.64-46.09-25a633.7,633.7,0,0,1-76.17-54.41,762.86,762.86,0,0,1-65.29-63.37,636.07,636.07,0,0,1-56.33-74.89c-7.68-12.16-17.28-28.16-23.68-41S345,941.49,339.29,928.69A575.58,575.58,0,0,1,299,791.06a717.49,717.49,0,0,1-7.68-73.61c-.64-14.72-.64-34.57,0-49.29s1.92-33.93,3.84-48.65a915.34,915.34,0,0,1,18.56-92.81A603,603,0,0,1,347,439a757.11,757.11,0,0,1,45.45-80A608.1,608.1,0,0,1,517.23,224.58c10.88-9,26.24-19.84,37.77-27.52s26.24-16,37.13-23a351.22,351.22,0,0,1,41-21.12c10.24-5.12,25-10.88,35.85-15.36A580,580,0,0,1,823.2,99.12c19.84-1.92,35.21-3.2,41-3.2,22.4-.64,31.36-.64,43.53,0,14.08.64,31.36,1.92,52.49,4.48,17.92,1.92,33.29,4.48,44.17,6.4,3.84.64,17.92,3.2,37.13,8.32,10.88,2.56,25,7,35.85,10.88a430,430,0,0,1,56.33,22.4c11.52,5.76,27.52,12.8,39,19.2a445.2,445.2,0,0,1,44.17,26.24c10.88,7.68,26.24,17.92,36.49,26.24s26.24,21.12,37.13,30.72a602.59,602.59,0,0,1,116.5,144,537.24,537.24,0,0,1,40.33,84.49c9.6,26.88,19.84,63.37,26.88,90.89,3.84,14.08,5.76,33.93,8.32,48.65a325.94,325.94,0,0,1,3.84,49.29c.64,14.72.64,34.57,0,49.29-1.92,28.8-5.12,57.61-9.6,85.77-1.92,14.08-7,32-10.24,46.09a596,596,0,0,1-76.81,170.91c-16,22.4-37.77,51.21-55.69,72.33a400.52,400.52,0,0,1-32.65,33.29c-10.24,9.6-24.32,23-35.85,32-21.12,16-49.93,36.49-72.33,50.57a403.84,403.84,0,0,1-40.33,21.76,544.08,544.08,0,0,1-52.49,23,532.63,532.63,0,0,1-186.27,33.93A530,530,0,0,0,1100.36,1253.22Z"/></clipPath><radialGradient id="radial-gradient" cx="690.58" cy="29.45" r="967.38" gradientTransform="matrix(1, 0, 0, -1, -220.43, 466.19)" gradientUnits="userSpaceOnUse"><stop offset="0.6" stop-color="#b91918" stop-opacity="0"/><stop offset="0.62" stop-color="#b91918" stop-opacity="0.09"/><stop offset="0.72" stop-color="#b91918" stop-opacity="0.41"/><stop offset="0.81" stop-color="#b91918" stop-opacity="0.66"/><stop offset="0.89" stop-color="#b91918" stop-opacity="0.85"/><stop offset="0.96" stop-color="#b91918" stop-opacity="0.96"/><stop offset="1" stop-color="#b91918"/></radialGradient><radialGradient id="radial-gradient-2" cx="686.29" cy="80.34" r="967.38" gradientTransform="matrix(1, 0, 0, -1, -220.43, 466.19)" gradientUnits="userSpaceOnUse"><stop offset="0.41" stop-color="#161412" stop-opacity="0"/><stop offset="0.86" stop-color="#161412" stop-opacity="0.68"/><stop offset="1" stop-color="#161412" stop-opacity="0.95"/></radialGradient><filter id="AI_GaussianBlur_7" name="AI_GaussianBlur_7"><feGaussianBlur stdDeviation="12"/></filter><radialGradient id="radial-gradient-3" cx="882.68" cy="672.81" r="825.89" gradientUnits="userSpaceOnUse"><stop offset="0.46" stop-color="#fff"/><stop offset="0.55" stop-color="#faf9f9"/><stop offset="0.66" stop-color="#eee8e8"/><stop offset="0.78" stop-color="#d9cccc"/><stop offset="0.92" stop-color="#bca6a6"/><stop offset="1" stop-color="#a88c8c"/></radialGradient></defs><title>el_gordo_Logo</title><g id="Layer_1-2" data-name="Layer 1-2"><circle class="cls-2" cx="669.55" cy="597.85" r="597.85"/><g class="cls-3"><path class="cls-4" d="M505.07,1152.08c46.73,36.49,48,37.13,76.17,54.41,14.72,8.32,34.57,19.2,49.93,26.88a724.4,724.4,0,0,1-135.06-89l9,7.68" transform="translate(-220.23 -95.92)"/><path class="cls-4" d="M915.38,96.56a174.11,174.11,0,0,0-36.49,1.28c17.28-1.28,53.77-4.48,121,8.32q-42.25-6.4-84.49-9.6" transform="translate(-220.23 -95.92)"/><path class="cls-4" d="M315,527.34c-14.72,60.17-15.36,61.45-19.2,93.45-5.12,63.37-5.12,64.65-3.84,97.94,5.12,60.17,5.76,69.77,17.28,120.34,17.92,60.81,17.92,60.81,30.08,90.25l.64,1.28c21.76,44.81,51.85,105.62,144,184.35a539.35,539.35,0,0,1-68.49-117.78c-4.48-10.24-9.6-23.68-13.44-33.93-13.44-35.85-17.28-74.89-30.08-110.74-14.08-37.77-39.69-70.41-50.57-109.46-17.92-69.77-30.72-135.7,0-237.48L315,527.34" transform="translate(-220.23 -95.92)"/><path class="cls-4" d="M878.25,95.92h-12.8l-10.88.64L843,97.2l-9.6,1.28c19.84-.64,22.4-.64,31.36,1.92h0a37.06,37.06,0,0,1,13.44-4.48" transform="translate(-220.23 -95.92)"/><path class="cls-4" d="M1484.42,752.66c1.28-25,2.56-58.89,2.56-83.85-5.12-65.29-5.12-65.29-12.16-97.3-15.36-61.45-15.36-61.45-26.88-91.53-7-17.28-16.64-40.33-25-57l-11.52-20.48c21.12,42.89,87.69,173.47,73,350.13" transform="translate(-220.23 -95.92)"/><path class="cls-4" d="M788.64,104.24l-12.8,2.56c-21.76,4.48-23,4.48-35.21,7.68-21.12,5.76-41.61,12.16-62.09,19.84-46.09,19.2-49.93,20.48-79.37,36.49-48,29.44-51.21,30.72-78.73,52.49-19.2,16.64-44.81,39-62.73,57-66.57,74.25-129.3,171.55-97.3,324.53C418,114.48,790.56,98.48,864.81,100.4a336.18,336.18,0,0,0-76.17,3.84" transform="translate(-220.23 -95.92)"/></g><g class="cls-5"><path class="cls-4" d="M914.74,1287.14c-71.05.64-299.57-12.8-266.92-220.83,21.12-135.06,189.47-319.41,384.7-532.56,114.58-124.82,270.76-295.73,92.81-387.9,400.7,183.07,283.56,400.7-71.69,739.32-99.22,93.45-400.7,380.86-138.9,402" transform="translate(-220.23 -95.92)"/><path class="cls-4" d="M770.07,1276.26a508,508,0,0,1-138.9-43.53c-15.36-7.68-35.21-18.56-49.93-26.88-48.65-32-50.57-33.29-76.17-54.41l-9-7.68C150.46,818.59,613.25,414,811,241.22,923.7,143.92,961.46,106.16,915.38,96.56a758.59,758.59,0,0,1,84.49,9.6c187.55,39.69,63.37,169.63-80.65,320.05-170.91,179.23-692.59,725.87-149.14,850.05" transform="translate(-220.23 -95.92)"/><path class="cls-4" d="M339.93,930.61l-.64-1.28c-21.76-57.61-22.4-58.89-30.08-90.25-12.16-57-14.08-67.85-17.28-120.34,0-65.29,0-65.29,3.84-97.94C306,558.07,306,558.07,315,527.34l7-21.76C434,214.33,775.19,106.16,833.44,98.48l10.24-.64,11.52-.64,10.88-.64h12.8c-2.56,5.76-2.56,5.76-47.37,35.85-274,184.35-622.18,467.91-491.6,798.21" transform="translate(-220.23 -95.92)"/><path class="cls-4" d="M1414.65,979.89c-92.81,166.43-270.12,275.24-499.92,307.25,3.84-1.28,398.14-117.78,517.2-340.53-5.76,10.24-12.16,23.68-17.28,33.29" transform="translate(-220.23 -95.92)"/><path class="cls-4" d="M914.74,1287.14c-90.89-26.24,18.56-134.42,150.42-247.72C1280.23,855.08,1523.47,645.76,1423.62,423c7.68,16.64,18.56,39.69,25,57,19.84,58.89,20.48,60.17,26.88,91.53,10.24,62.73,10.88,64,12.16,97.3,0,25-.64,58.89-2.56,83.85-10.88,68.49-30.08,134.42-154.9,251.56s-281,182.43-415.43,282.92" transform="translate(-220.23 -95.92)"/><path class="cls-4" d="M457.7,280.26c18.56-17.92,43.53-40.33,62.73-57,45.45-33.29,48.65-35.21,78.73-52.49,44.17-23,48-25,79.37-36.49,20.48-7.68,41-14.08,62.09-19.84,22.4-5.12,23-5.76,35.21-7.68l12.8-2.56a645.29,645.29,0,0,0-330.93,176" transform="translate(-220.23 -95.92)"/></g><circle class="cls-6" cx="669.55" cy="597.85" r="597.85"/><circle class="cls-7" cx="669.55" cy="597.85" r="597.85"/><path class="cls-8" d="M789.7,590.49l-15.85,49.32c-8.88-3.12-17.12-7.49-26-10-32.33-11-67.91,3.42-83.08,33.59a106.48,106.48,0,0,0-13.32,43.7,196.77,196.77,0,0,0,3.81,66.81A69.11,69.11,0,0,0,673,808.26a48.88,48.88,0,0,0,40.59,15c8.88-.62,17.76-2.5,26.64-3.75a2.71,2.71,0,0,0,2.54-2.5V759.56l-45.66,1.25v-51.2l93.23-2.5v148a4.69,4.69,0,0,1-3.17,4.37,213,213,0,0,1-76.1,16.23A102.87,102.87,0,0,1,661.59,867a89.71,89.71,0,0,1-43.76-42.46,180,180,0,0,1-16.49-54.32,290.73,290.73,0,0,1-2.54-52.45,171,171,0,0,1,25.37-87.41A115,115,0,0,1,706,578a138.15,138.15,0,0,1,79.27,11.24A9.3,9.3,0,0,1,789.7,590.49Zm537.16,5.62-49.47-8.74v54.94a519,519,0,0,0,2.54,54.32,5.35,5.35,0,0,1-1.9-1.87,176.89,176.89,0,0,0-12.68-17.48,47.72,47.72,0,0,0-42.49-15.61,45.48,45.48,0,0,0-31.71,20,105.58,105.58,0,0,0-15.85,41.21,295.12,295.12,0,0,0-3.81,57.44,183.85,183.85,0,0,0,6.34,45.58A91.57,91.57,0,0,0,1197.48,864a46.74,46.74,0,0,0,65.23,4.45l.1-.08a33,33,0,0,0,7.61-8.74c1.9-2.5,3.17-5,5.07-7.49l1.9-1.87a8.63,8.63,0,0,1,1.9,2.5c.63,1.25.63,1.87,1.27,3.12l7.61,22.48,37.42,1.25Zm-50.1,212.28a88.21,88.21,0,0,1-5.07,13.74,25.6,25.6,0,0,1-33.61,8.74,20.05,20.05,0,0,1-7.61-6.87,55.6,55.6,0,0,1-8.24-24.35,191.08,191.08,0,0,1,1.27-63.06,58,58,0,0,1,6.34-17.48,22.45,22.45,0,0,1,30.3-8.41,22.2,22.2,0,0,1,5.85,4.66,38.55,38.55,0,0,1,11.42,22.48,170,170,0,0,1,3.17,40A237.38,237.38,0,0,1,1276.76,808.39ZM997.08,737.83a136.89,136.89,0,0,0-15.22-54.32c-13.32-25-33.61-41.21-63.42-43.08a70.12,70.12,0,0,0-65.32,31.84,106.62,106.62,0,0,0-16.49,41.08,241.52,241.52,0,0,0-3.81,60.56,135.22,135.22,0,0,0,14,54.32c12,25,31.08,41.83,59.61,44.33A75.22,75.22,0,0,0,959,859.46a88.23,88.23,0,0,0,27.9-38.09,171.57,171.57,0,0,0,10.78-64.31c0-5.62,0-12.49-.63-19.36h0Zm-54.54,63.68a34.89,34.89,0,0,1-8.88,15.61,27.13,27.13,0,0,1-37.42-.62,3.31,3.31,0,0,1-1.27-1.87,52.29,52.29,0,0,1-9.51-23.73,198.59,198.59,0,0,1,.63-72.43,43.89,43.89,0,0,1,9.51-20.6,27.32,27.32,0,0,1,38.05-1.25,16.61,16.61,0,0,1,3.17,3.75,54.06,54.06,0,0,1,8.88,26.22c1.27,10,1.9,20,2.54,25a166.09,166.09,0,0,1-5.71,49.95Zm-563.8,80.42V836.36L332.57,840S323.38,884.93,378.74,881.94ZM1377,732.09a137.17,137.17,0,0,0-8.88,50.57,159.47,159.47,0,0,0,7.61,48.7h0a84.6,84.6,0,0,0,27.9,41.21c15.22,11.86,30.89,7.55,49.91,6.93,0,.12-1.71-191.74-76.55-147.41ZM1086.5,860.83c0-33.72,0-67.43.63-100.52a99.12,99.12,0,0,1,3.81-27.47,33.89,33.89,0,0,1,26.64-25,73,73,0,0,1,16.49-.62,101.12,101.12,0,0,1,14.59,2.5V656a2.19,2.19,0,0,0-1.86-2.49h0l-9.51-1.87a39.35,39.35,0,0,0-38.69,13.11,180.82,180.82,0,0,0-12,18.11,9.5,9.5,0,0,1-2.54,2.5,13.63,13.63,0,0,1-1.9-3.12c-1.9-9.37-3.81-18.73-5.71-28.72a2.19,2.19,0,0,0-1.86-2.49h-.68c-9.51-.62-19-1.25-28.54-1.25h-6.34l-.63,221.65,48.83.62A74.58,74.58,0,0,1,1086.5,860.83ZM420,601.72c0,16.23,0,32.47.63,48.7,0,26.22.63,52.45.63,78.67,0,30.59,0,60.56.63,91.16,0,18.73,0,37.46.63,56.82,0,2.5.63,3.12,3.17,2.5,10.15-.62,20.93-.62,31.08-1.25l14.59-.62v-3.75c0-17.48,0-34.34-.63-51.82,0-25.6,0-51.2-.63-76.8s-.63-51.2-.63-77.42c0-24.35,0-48.08-.63-72.43v-6.24L420.6,598A10.83,10.83,0,0,0,420,601.72Z" transform="translate(-220.23 -95.92)"/><path class="cls-4" d="M220.23,846.86l0-251.9A15.63,15.63,0,0,1,233,580.72c16.22-4.33,37.4-9.85,58.67-14.66l73.23-15.68h15.36l0,57.62a15.82,15.82,0,0,1-14.52,14.67l-71.22,13.9v26.84l80.65-12.8-.4,63.09a15.68,15.68,0,0,1-15,12.09l-64.66,8.15v38.12l86.41-7v72.71Zm25.6-243.06v216l110.1-6.24V792.79l-86.41,7V693.3l-.64.1,0-64.43c-.21-10.66,6.32-14.41,11.83-15.67.34-.08.77-.17,1.32-.33l1.06-.25,71.58-14V578.53l-57.44,12.53C279.06,595.16,260.82,599.84,245.83,603.8ZM271.39,693l16.17,16.09,62-7.81V680.6Zm1182,153.18a94.88,94.88,0,0,1-58.16-20.06,99.46,99.46,0,0,1-32.53-48.58,178.32,178.32,0,0,1-8.25-53.69,154.51,154.51,0,0,1,9.77-56.31c10.86-33.26,45.4-54,80.36-47.9,48.32,5.18,86.43,41.23,97.15,92a148.84,148.84,0,0,1-3.52,76.27c-12.1,36.31-41.63,57.46-81.09,58.23Q1455.29,846.19,1453.42,846.19Zm-21.07-202a46.37,46.37,0,0,0-43.94,31.8,130.24,130.24,0,0,0-8.33,47.69,153.12,153.12,0,0,0,7.09,46.26l.05.18a73.77,73.77,0,0,0,24,36,69.43,69.43,0,0,0,45.14,14.4c20.34-.4,46.57-7.75,57.5-40.54a123.06,123.06,0,0,0,2.84-63c-8.56-40.49-37.37-68-75.21-71.92l-1-.14A45.8,45.8,0,0,0,1432.35,644.18Zm-95.21,192.13-59.84-2-5.17-15.5q-1.43,1.4-3,2.68c-24.54,21.36-62.17,18.75-83.7-6A107.86,107.86,0,0,1,1162.81,771a203.47,203.47,0,0,1-6.75-49.56,320.23,320.23,0,0,1,4-61.11,121.3,121.3,0,0,1,17.86-47.1,58.66,58.66,0,0,1,41-26.24,60.28,60.28,0,0,1,44.26,11q-.25-9.12-.2-18.21V508.2l75.58,13.56ZM1227.57,612a35.78,35.78,0,0,0-5.05.36,33,33,0,0,0-23.08,14.76,95.84,95.84,0,0,0-14.1,37.26,295.58,295.58,0,0,0-3.69,56.53,179,179,0,0,0,6,43.83,82.31,82.31,0,0,0,17.22,34,33.87,33.87,0,0,0,47.67,3.2,21.78,21.78,0,0,0,5.15-5.88l.8-1.2c.73-1,1.33-2,1.94-2.94,1-1.58,2-3.16,3.18-4.74l2.3-2.48a38.43,38.43,0,0,1-35.92-.34A33,33,0,0,1,1217.61,773a71,71,0,0,1-10.26-30.36,211.4,211.4,0,0,1,1.41-68.49,73,73,0,0,1,7.77-21.76,35.33,35.33,0,0,1,48-13.68,169.74,169.74,0,0,0-10.85-15A34.48,34.48,0,0,0,1227.57,612ZM1296,809.3l15.69.53,1.18-266.66-24.28-4.36v41a531,531,0,0,0,2.5,54.44l2.46,25.14-16.72-9.91a52.85,52.85,0,0,1,11.59,26.15,190.09,190.09,0,0,1,3.36,43.57,261.7,261.7,0,0,1-4,33.24l-.23,1a104.29,104.29,0,0,1-5.84,16.06l-.77,1.42a38.51,38.51,0,0,1-4.14,5.49l7.73,7.15a21.67,21.67,0,0,1,4.69,6.25,23,23,0,0,1,1.33,3.27l.63,1.59Zm-48.61-149.42a9.74,9.74,0,0,0-2.63.37,9.61,9.61,0,0,0-5.81,4.58,47.07,47.07,0,0,0-5,14,185.69,185.69,0,0,0-1.19,60.48l.08.67a45,45,0,0,0,6.47,19.42,7.46,7.46,0,0,0,2.73,2.42,12.86,12.86,0,0,0,16.73-3.82,78.7,78.7,0,0,0,3.89-10.78,235.44,235.44,0,0,0,3.54-29.22,163.92,163.92,0,0,0-3-37.76l-.13-.77a27.06,27.06,0,0,0-7.81-15.62l-.65-.69a9.69,9.69,0,0,0-7.24-3.28Zm39.75-33.29.14.22ZM414.58,836.09a14.17,14.17,0,0,1-8.89-3c-3.71-2.9-5.59-7.14-5.59-12.6-.64-19.64-.64-39.27-.64-58.25-.64-31.23-.64-61.46-.64-93.46,0-13.39-.16-26.78-.32-40.17s-.32-27-.32-40.48c-.64-16.38-.64-33.41-.64-49.87a23.9,23.9,0,0,1,1.38-8.17l2.47-7,71-13.09v21.78c.64,24.8.64,48.82.64,74.25,0,27.24,0,53,.64,79.06.64,26.4.64,53.16.64,79,.64,17.7.64,34.91.64,53.13v16.1l-27,1.17c-5,.32-10.43.48-15.85.65-4.84.15-9.67.29-14.37.57A18.32,18.32,0,0,1,414.58,836.09ZM425.69,820s0,.05,0,.08A.6.6,0,0,0,425.69,820Zm-2.55-274.86c0,14.06.09,28.43.63,42.5,0,13.89.17,27.28.33,40.67s.32,27,.32,40.48c0,31.86,0,62,.64,93.19,0,15.71,0,31.69.36,47.83l6-.19c5.14-.16,10.29-.31,15.27-.62l2.72-.12c0-14.93-.1-29.34-.63-44.26,0-26.18,0-52.79-.65-78.87-.64-26.4-.64-52.28-.64-79.68,0-22.33,0-43.56-.44-65.31ZM696.52,832.32a115.46,115.46,0,0,1-47.62-10.4,104.23,104.23,0,0,1-50.41-49.65,199.09,199.09,0,0,1-17.78-59.5,316.05,316.05,0,0,1-2.67-56A189.92,189.92,0,0,1,605.49,561a128.42,128.42,0,0,1,91.77-59.82,149.54,149.54,0,0,1,85.28,11.71,22.12,22.12,0,0,1,7.49,2.74l8.77,5.18-23.08,72.93-12.51-4.47c-4-1.42-7.82-3.06-11.65-4.7a118.47,118.47,0,0,0-13.81-5.28l-.64-.2a55.92,55.92,0,0,0-68.21,28.11,97.86,97.86,0,0,0-12.16,40.15A192.39,192.39,0,0,0,660.3,712a58.82,58.82,0,0,0,14.79,29.31,36.38,36.38,0,0,0,30.27,11.37c5.81-.43,11.33-1.34,17.18-2.32l.81-.13V713.33l-46.09,1.28V636.5L797,633.25V798.11a17.7,17.7,0,0,1-11.27,16.37A223.86,223.86,0,0,1,704.49,832C701.85,832.22,699.19,832.32,696.52,832.32ZM720.41,525a124.92,124.92,0,0,0-19.4,1.52,102.94,102.94,0,0,0-73.67,47.86,164.58,164.58,0,0,0-23.68,83,291.91,291.91,0,0,0,2.44,51.86,173.59,173.59,0,0,0,15.5,51.91,78.58,78.58,0,0,0,38,37.42,90,90,0,0,0,43.65,7.82,199.74,199.74,0,0,0,68.14-13.78V659.56l-68.49,1.86v26.87L748.95,687l0,72.92a15.62,15.62,0,0,1-13.79,14.4c-2.79.4-5.59.87-8.38,1.34-6.17,1-12.56,2.09-19.13,2.56a61.84,61.84,0,0,1-51.26-19.42,83.9,83.9,0,0,1-21.11-41.5,216.19,216.19,0,0,1-4-72.34,121.72,121.72,0,0,1,15-49.57c17.74-36,60.32-53.67,98.9-40.59a127,127,0,0,1,14.39,5.36l8.16-25.78A124.07,124.07,0,0,0,720.41,525ZM910.8,829.43a88.72,88.72,0,0,1-11.12-.7C869,826,844.62,807.79,829.56,776.07a152.07,152.07,0,0,1-15.31-60.65,263.76,263.76,0,0,1,4-65,122.17,122.17,0,0,1,18.53-46.93,82.75,82.75,0,0,1,77.77-38.35c32.45,2.07,57.53,19.22,74.2,51a154.16,154.16,0,0,1,16.79,60.64c.68,7.56.68,14.92.68,20.84A190,190,0,0,1,994.6,768a103.24,103.24,0,0,1-32.17,44.61l-.56.43A87.54,87.54,0,0,1,910.8,829.43Zm-3.56-239a57.38,57.38,0,0,0-48.88,26.93,97.39,97.39,0,0,0-14.86,37.57,239.5,239.5,0,0,0-3.68,59.15A127.12,127.12,0,0,0,852.63,765c11.32,23.84,27.59,36.33,49.8,38.31a62.36,62.36,0,0,0,44.26-10.9,77.62,77.62,0,0,0,23.9-33.29,164.88,164.88,0,0,0,10.09-61.16c0-5.76,0-12.54-.59-19l0-.33a128.53,128.53,0,0,0-14-50.67c-12.35-23.51-29.84-35.73-53.43-37.23Q909.93,590.45,907.24,590.45Zm191.08,237.93-76.72-1,.71-252.67h19.17c9.93,0,19.74.64,29.23,1.28l2.2.15a15.07,15.07,0,0,1,12.74,14c.22,1.17.44,2.33.66,3.48a52,52,0,0,1,50.78-16.72l9.08,1.81a15.06,15.06,0,0,1,12.45,15.71v70.91l-15.92-4a89,89,0,0,0-12.85-2.23,60.24,60.24,0,0,0-13.43.55,21.56,21.56,0,0,0-16.42,16,91.46,91.46,0,0,0-3.47,25.08c-.64,34.08-.64,69.16-.64,103.09v.25a65,65,0,0,0,.53,9.62Zm-51-26.27,23,.3c0-33.59,0-68.28.64-101.84a115.49,115.49,0,0,1,4.31-31.38A47.22,47.22,0,0,1,1112,634.47a85.85,85.85,0,0,1,20.06-.84l.94.1v-31.5l-1.23-.24a26.52,26.52,0,0,0-26.64,9,174.08,174.08,0,0,0-10.95,16.8l-.53.84a22.39,22.39,0,0,1-6,6l-9.8,6.65-7.39-9.26a26.71,26.71,0,0,1-3.67-6.12l-.93-3.23c-1.42-7.1-2.84-14.2-4.26-21.58-4.59-.28-9.22-.53-13.81-.65ZM1071.81,576l1.62.22A12,12,0,0,0,1071.81,576Zm381.42,227.23a43.11,43.11,0,0,1-40.37-28.33,113.58,113.58,0,0,1-6.49-30.28,107.69,107.69,0,0,1-.68-13.9,104.23,104.23,0,0,1,3.72-38.62l.53-1.54a22.9,22.9,0,0,1,1.16-3.53c7.37-20.45,24-29.06,45.72-23.63a47.34,47.34,0,0,1,34.94,35,139.85,139.85,0,0,1,4.84,44.28,94.25,94.25,0,0,1-6.51,34.76A37.39,37.39,0,0,1,1462,802.33,41.94,41.94,0,0,1,1453.22,803.26ZM1433.78,700a78.77,78.77,0,0,0-2.54,29l.07.76,0,.76a85.68,85.68,0,0,0,.56,11.7,89.38,89.38,0,0,0,5.08,24,17.36,17.36,0,0,0,19.86,11,11.84,11.84,0,0,0,9-8l.3-.83A68.75,68.75,0,0,0,1471,742.5v-.38l0-.38a115.07,115.07,0,0,0-4-36.87,22.06,22.06,0,0,0-16.28-16.58c-10.16-2.54-13,.34-15.62,7.77l-.32.88A24.17,24.17,0,0,1,1433.78,700ZM910.1,779.25a39.46,39.46,0,0,1-27.63-11.31,16.14,16.14,0,0,1-4.06-5.35,67.19,67.19,0,0,1-10.94-28.74,217.84,217.84,0,0,1,.76-78.34A57.94,57.94,0,0,1,880.5,628.7l.59-.67a40.16,40.16,0,0,1,56.44-1.88A29.27,29.27,0,0,1,943,632.7,68.59,68.59,0,0,1,953.73,665c.75,6,1.28,12.07,1.72,17.07.29,3.33.54,6.17.79,8.17l.09,1.11a185.4,185.4,0,0,1-6.17,55A48.84,48.84,0,0,1,938,768,40.63,40.63,0,0,1,910.1,779.25Zm-9.09-29a14.19,14.19,0,0,0,19-.48,22.9,22.9,0,0,0,5.34-9.88l0-.12a159.83,159.83,0,0,0,5.35-46.89c-.26-2.18-.52-5.12-.82-8.51-.43-4.84-.94-10.67-1.67-16.51l-.07-.74a43.3,43.3,0,0,0-6.91-20.74,5.17,5.17,0,0,0-1-1.26,14.57,14.57,0,0,0-20.29.19,32.55,32.55,0,0,0-6.59,14.78,193.57,193.57,0,0,0-.65,69.92,42.06,42.06,0,0,0,7.41,19.08Z" transform="translate(-220.23 -95.92)"/><path class="cls-9" d="M783.51,526.7l-16,50.57c-9-3.2-17.28-7.68-26.24-10.24a68.62,68.62,0,0,0-83.85,34.57A110.42,110.42,0,0,0,644,646.4a204.83,204.83,0,0,0,3.84,68.49,71.24,71.24,0,0,0,17.92,35.21,48.9,48.9,0,0,0,41,15.36c9-.64,17.92-2.56,26.88-3.84a2.75,2.75,0,0,0,2.56-2.56V700.17l-46.09,1.28V649l94.09-2.56v151.7a4.8,4.8,0,0,1-3.2,4.48,212.13,212.13,0,0,1-76.81,16.64,102.42,102.42,0,0,1-49.93-9A91.21,91.21,0,0,1,610,766.74a186.65,186.65,0,0,1-16.64-55.69,302.71,302.71,0,0,1-2.56-53.77,177.37,177.37,0,0,1,25.6-89.61A115.92,115.92,0,0,1,699,513.9a137.49,137.49,0,0,1,80,11.52A9.28,9.28,0,0,1,783.51,526.7Zm542.16,5.76-49.93-9v56.33a540.43,540.43,0,0,0,2.56,55.69,5.44,5.44,0,0,1-1.92-1.92,181.28,181.28,0,0,0-12.8-17.92,47.75,47.75,0,0,0-42.89-16,45.83,45.83,0,0,0-32,20.48,109.27,109.27,0,0,0-16,42.25,307.25,307.25,0,0,0-3.84,58.89,191.26,191.26,0,0,0,6.4,46.73,94.41,94.41,0,0,0,19.84,39,46.66,46.66,0,0,0,65.83,4.56l.1-.08a33.67,33.67,0,0,0,7.68-9c1.92-2.56,3.2-5.12,5.12-7.68l1.92-1.92a8.83,8.83,0,0,1,1.92,2.56c.64,1.28.64,1.92,1.28,3.2l7.68,23,37.77,1.28ZM1275.11,750.1a91.34,91.34,0,0,1-5.12,14.08,25.6,25.6,0,0,1-33.93,9,20.36,20.36,0,0,1-7.68-7,57.61,57.61,0,0,1-8.32-25,198.94,198.94,0,0,1,1.28-64.65,60,60,0,0,1,6.4-17.92,22.47,22.47,0,0,1,36.49-3.84,39.75,39.75,0,0,1,11.52,23,177,177,0,0,1,3.2,41A247,247,0,0,1,1275.11,750.1ZM992.83,677.77a142,142,0,0,0-15.36-55.69c-13.44-25.6-33.93-42.25-64-44.17a70.41,70.41,0,0,0-65.93,32.65,110.29,110.29,0,0,0-16.64,42.25A251.43,251.43,0,0,0,827,714.89a140.37,140.37,0,0,0,14.08,55.69c12.16,25.6,31.36,42.89,60.17,45.45a75,75,0,0,0,53.13-13.44,90.38,90.38,0,0,0,28.16-39,178.4,178.4,0,0,0,10.88-65.93c0-5.76,0-12.8-.64-19.84Zm-55,65.29a35.91,35.91,0,0,1-9,16,27.08,27.08,0,0,1-37.77-.64,3.39,3.39,0,0,1-1.28-1.92,54.09,54.09,0,0,1-9.6-24.32,206.75,206.75,0,0,1,.64-74.25,45.32,45.32,0,0,1,9.6-21.12,27.27,27.27,0,0,1,38.41-1.28,17,17,0,0,1,3.2,3.84,56,56,0,0,1,9,26.88c1.28,10.24,1.92,20.48,2.56,25.6a172.83,172.83,0,0,1-5.76,51.21ZM283,722.57l76.17-9.6a2.88,2.88,0,0,0,3.2-2.53V665.61l-80.65,12.8v-48c0-5.12-.64-3.84,3.84-5.12l78.73-15.36a3,3,0,0,0,3.2-3.2V563.19h-2.56l-70.41,15.36c-19.84,4.48-39.69,9.6-58.89,14.72a2.75,2.75,0,0,0-2.56,2.56V833.31l135.7-7.68V778.9l-86.41,7v-64Zm1092,51.21A86.8,86.8,0,0,0,1403.13,816a82.06,82.06,0,0,0,53.77,17.28c32.65-.64,58.25-16.64,69.13-49.29a135.83,135.83,0,0,0,3.2-69.77c-9.6-45.45-42.89-77.45-86.41-81.93A59,59,0,0,0,1376.25,672a142.61,142.61,0,0,0-9,51.85,165.85,165.85,0,0,0,7.68,49.93Zm46.73-78.09c.64-1.28.64-2.56,1.28-3.84,5.12-14.72,15.36-19.84,30.72-16a34.76,34.76,0,0,1,25.6,25.6,128,128,0,0,1,4.48,41,81.93,81.93,0,0,1-5.76,30.72,24.58,24.58,0,0,1-18.56,16.64,30.08,30.08,0,0,1-34.57-19.2,101.07,101.07,0,0,1-5.76-26.88,99.08,99.08,0,0,1-.64-13.44,92,92,0,0,1,3.2-34.57h0ZM1083.08,803.87c0-34.57,0-69.13.64-103.06a103.12,103.12,0,0,1,3.84-28.16,34.44,34.44,0,0,1,26.88-25.6,72.53,72.53,0,0,1,16.64-.64,100.62,100.62,0,0,1,14.72,2.56v-55a2.24,2.24,0,0,0-1.88-2.55h0l-9.6-1.92a39.37,39.37,0,0,0-39,13.44,185.64,185.64,0,0,0-12.16,18.56,9.67,9.67,0,0,1-2.56,2.56,14,14,0,0,1-1.92-3.2c-1.92-9.6-3.84-19.2-5.76-29.44a2.24,2.24,0,0,0-1.88-2.55h-.69c-9.6-.64-19.2-1.28-28.8-1.28h-6.4l-.64,227.24,49.29.64A77.65,77.65,0,0,1,1083.08,803.87ZM410.34,538.23c0,16.64,0,33.29.64,49.93,0,26.88.64,53.77.64,80.65,0,31.36,0,62.09.64,93.45,0,19.2,0,38.41.64,58.25,0,2.56.64,3.2,3.2,2.56,10.24-.64,21.12-.64,31.36-1.28l14.72-.64v-3.84c0-17.92,0-35.21-.64-53.13,0-26.24,0-52.49-.64-78.73s-.64-52.49-.64-79.37c0-25,0-49.29-.64-74.25v-6.4l-48.65,9A11.27,11.27,0,0,0,410.34,538.23Z" transform="translate(-220.23 -95.92)"/></g></svg>