<svg xmlns="http://www.w3.org/2000/svg" xmlns:xlink="http://www.w3.org/1999/xlink" viewBox="0 0 1392.47 1294.59"><defs><style>.cls-1{fill:none;mix-blend-mode:screen;}.cls-2{isolation:isolate;}.cls-3{fill:url(#radial-gradient);}.cls-4{fill:url(#linear-gradient);}.cls-5{fill:url(#linear-gradient-2);}.cls-6{fill:url(#linear-gradient-3);}.cls-7{fill:url(#linear-gradient-4);}.cls-8{fill:url(#radial-gradient-2);}.cls-9{fill:url(#linear-gradient-5);}.cls-10{fill:url(#linear-gradient-6);}.cls-11{fill:url(#linear-gradient-7);}.cls-12{fill:url(#linear-gradient-8);}.cls-13{fill:url(#radial-gradient-3);}.cls-14{fill:url(#linear-gradient-9);}.cls-15{fill:url(#linear-gradient-10);}.cls-16{fill:url(#linear-gradient-11);}.cls-17{fill:url(#linear-gradient-12);}.cls-18{fill:url(#radial-gradient-4);}.cls-19{fill:#fff;}.cls-20{opacity:0.3;}.cls-21{clip-path:url(#clip-path);}.cls-22{opacity:0.47;mix-blend-mode:multiply;}.cls-23{fill:#00002d;}.cls-24{fill:#1e1e9e;}.cls-25{fill:#e4e4e4;}</style><radialGradient id="radial-gradient" cx="761.74" cy="674.22" fx="692.9440682583504" r="386.38" gradientTransform="matrix(1.56, 0, 0, -1.55, -566.66, 1701.21)" gradientUnits="userSpaceOnUse"><stop offset="0" stop-color="#0f54eb"/><stop offset="0.67" stop-color="#0f54eb"/><stop offset="1" stop-color="#321ca6"/></radialGradient><linearGradient id="linear-gradient" x1="702.86" y1="778.43" x2="702.86" y2="325.86" gradientTransform="translate(-184.04 -7.81) rotate(0.05)" gradientUnits="userSpaceOnUse"><stop offset="0" stop-color="#7dc0fe"/><stop offset="1" stop-color="#6cb2fe"/></linearGradient><linearGradient id="linear-gradient-2" x1="1165.42" y1="527.51" x2="955.61" y2="406.38" xlink:href="#linear-gradient"/><linearGradient id="linear-gradient-3" x1="894.52" y1="605.81" x2="627.37" y2="605.81" gradientTransform="translate(-184.04 -7.81) rotate(0.05)" gradientUnits="userSpaceOnUse"><stop offset="0" stop-color="#79e0ff"/><stop offset="0.01" stop-color="#78ddff"/><stop offset="0.12" stop-color="#73caff"/><stop offset="0.24" stop-color="#6fbcfe"/><stop offset="0.39" stop-color="#6db4fe"/><stop offset="0.67" stop-color="#6cb2fe"/></linearGradient><linearGradient id="linear-gradient-4" x1="1143.39" y1="228.5" x2="921.38" y2="616.14" gradientTransform="translate(-184.04 -7.81) rotate(0.05)" gradientUnits="userSpaceOnUse"><stop offset="0.02" stop-color="#6cb2fe"/><stop offset="1" stop-color="#7dc0fe"/></linearGradient><radialGradient id="radial-gradient-2" cx="878.62" cy="238.86" r="318.61" gradientTransform="translate(-184.04 -7.81) rotate(0.05)" gradientUnits="userSpaceOnUse"><stop offset="0.08" stop-color="#9bdefe"/><stop offset="0.42" stop-color="#92d5fe"/><stop offset="0.8" stop-color="#82c4fe"/></radialGradient><linearGradient id="linear-gradient-5" x1="1182.18" y1="886.1" x2="1182.18" y2="575.2" gradientTransform="matrix(0.77, 0.64, -0.64, 0.77, 537.55, -771.85)" gradientUnits="userSpaceOnUse"><stop offset="0" stop-color="#3212c9"/><stop offset="0.91" stop-color="#386eed"/><stop offset="1" stop-color="#3977f1"/></linearGradient><linearGradient id="linear-gradient-6" x1="1193.66" y1="635.48" x2="1568.02" y2="635.48" gradientTransform="translate(-146.79 -60.81) rotate(3.2)" xlink:href="#linear-gradient-5"/><linearGradient id="linear-gradient-7" x1="1062.1" y1="621.01" x2="1332.91" y2="621.01" gradientTransform="translate(-146.79 -60.81) rotate(3.2)" gradientUnits="userSpaceOnUse"><stop offset="0.45" stop-color="#3244c9"/><stop offset="0.55" stop-color="#3349cd"/><stop offset="0.66" stop-color="#3456d7"/><stop offset="0.77" stop-color="#376ce8"/><stop offset="0.82" stop-color="#3977f1"/></linearGradient><linearGradient id="linear-gradient-8" x1="1484.8" y1="508.32" x2="1332.3" y2="774.61" gradientTransform="matrix(0.77, 0.64, -0.64, 0.77, 537.55, -771.85)" gradientUnits="userSpaceOnUse"><stop offset="0" stop-color="#3244c9"/><stop offset="0.28" stop-color="#3348cc"/><stop offset="0.56" stop-color="#3454d5"/><stop offset="0.83" stop-color="#3767e5"/><stop offset="1" stop-color="#3977f1"/></linearGradient><radialGradient id="radial-gradient-3" cx="1302.92" cy="515.44" r="218.87" gradientTransform="matrix(0.77, 0.64, -0.64, 0.77, 537.55, -771.85)" gradientUnits="userSpaceOnUse"><stop offset="0" stop-color="#50adf7"/><stop offset="0.19" stop-color="#489af5"/><stop offset="0.45" stop-color="#4087f3"/><stop offset="0.72" stop-color="#3b7cf2"/><stop offset="1" stop-color="#3978f2"/></radialGradient><linearGradient id="linear-gradient-9" x1="998.35" y1="1005.93" x2="998.35" y2="695.03" gradientTransform="matrix(-0.77, 0.64, 0.64, 0.77, 645.92, -752.31)" xlink:href="#linear-gradient-5"/><linearGradient id="linear-gradient-10" x1="974.69" y1="621.11" x2="1349.05" y2="621.11" gradientTransform="matrix(-1, 0.05, 0.05, 1, 1323.69, -35.01)" xlink:href="#linear-gradient-5"/><linearGradient id="linear-gradient-11" x1="843.14" y1="606.63" x2="1113.95" y2="606.63" gradientTransform="matrix(-1, 0.05, 0.05, 1, 1323.69, -35.01)" xlink:href="#linear-gradient-7"/><linearGradient id="linear-gradient-12" x1="1300.97" y1="628.14" x2="1148.46" y2="894.44" gradientTransform="matrix(-0.77, 0.64, 0.64, 0.77, 645.92, -752.31)" xlink:href="#linear-gradient-8"/><radialGradient id="radial-gradient-4" cx="1119.09" cy="635.27" r="218.87" gradientTransform="matrix(-0.77, 0.64, 0.64, 0.77, 645.92, -752.31)" xlink:href="#radial-gradient-3"/><clipPath id="clip-path" transform="translate(-184.63 -6.93)"><circle class="cls-1" cx="870.83" cy="804" r="510.94"/></clipPath></defs><title>Euromillions_Logo</title><g class="cls-2"><g id="Layer_1" data-name="Layer 1"><ellipse class="cls-3" cx="694.13" cy="770.83" rx="526.47" ry="523.76"/><polygon class="cls-4" points="577.41 264.66 634.79 753.27 543.49 687.59 402.01 155.09 577.41 264.66"/><polygon class="cls-5" points="986.86 158.44 844.17 689.59 751.86 754.05 809.36 266.01 986.86 158.44"/><polygon class="cls-6" points="698.59 333.79 698.83 795.14 594.76 863.75 491.77 458.51 698.59 333.79"/><polygon class="cls-7" points="891.77 461.02 790.27 865.11 693.02 795.14 692.78 336.69 891.77 461.02"/><polygon class="cls-8" points="695.64 0 763.34 160.06 986.85 161.34 809.35 268.91 891.76 463.92 692.78 339.59 491.77 461.42 577.41 267.56 402 157.99 625.26 159.29 695.64 0"/><polygon class="cls-9" points="1127.04 426.8 941.45 709.24 922.41 634.36 1083.13 291.68 1127.04 426.8"/><polygon class="cls-10" points="1389.39 551.72 1079.74 768.2 1002.7 761.35 1248.48 529.94 1389.39 551.72"/><polygon class="cls-11" points="1155.93 515.65 953.6 756.99 871.59 749.7 996.36 490.98 1155.93 515.65"/><polygon class="cls-12" points="1205.73 668.94 973.87 836.75 953.6 756.99 1155.93 515.65 1205.73 668.94"/><polygon class="cls-13" points="1306.12 339.74 1271.06 453.87 1388.11 553.25 1247.2 531.47 1204.45 670.47 1154.65 517.17 995.08 492.5 1125.75 428.32 1081.85 293.2 1198.75 392.48 1306.12 339.74"/><polygon class="cls-14" points="263.49 416.28 446.48 700.41 466.2 625.71 308.64 281.56 263.49 416.28"/><polygon class="cls-15" points="0 538.79 307.64 758.1 384.74 751.96 141.1 518.3 0 538.79"/><polygon class="cls-16" points="233.78 504.86 433.88 748.05 515.95 741.51 393.57 481.66 233.78 504.86"/><polygon class="cls-17" points="182.57 657.69 412.88 827.62 433.88 748.05 233.78 504.86 182.57 657.69"/><polygon class="cls-18" points="85.21 327.58 119.22 442.02 1.27 540.32 142.37 519.84 183.84 659.23 235.04 506.39 394.84 483.19 264.76 417.81 309.91 283.1 192.09 381.3 85.21 327.58"/><polygon class="cls-19" points="571.28 1139.28 562.86 1172.05 591.42 1190.18 557.66 1192.3 549.25 1225.06 536.8 1193.61 503.04 1195.73 529.1 1174.17 516.65 1142.72 545.21 1160.85 571.28 1139.28"/><polygon class="cls-19" points="686.29 1108.49 681.73 1135.15 705.67 1147.73 678.91 1151.63 674.35 1178.29 662.37 1154.04 635.6 1157.94 654.96 1139.06 642.98 1114.8 666.93 1127.38 686.29 1108.49"/><polygon class="cls-19" points="351.26 1000 347.55 1021.67 367.02 1031.89 345.26 1035.07 341.55 1056.74 331.81 1037.02 310.05 1040.19 325.79 1024.84 316.05 1005.13 335.52 1015.35 351.26 1000"/><polygon class="cls-19" points="830.02 1163.84 840.37 1188.83 867.34 1186.71 846.77 1204.28 857.13 1229.27 834.06 1215.14 813.5 1232.71 819.81 1206.4 796.74 1192.28 823.71 1190.15 830.02 1163.84"/><polygon class="cls-19" points="827.5 1079.84 847.62 1088.56 862.13 1072.11 860.06 1093.95 880.18 1102.66 858.78 1107.44 856.71 1129.28 845.55 1110.39 824.14 1115.17 838.65 1098.72 827.5 1079.84"/><polygon class="cls-19" points="730.9 1074.03 747.18 1081.08 758.92 1067.78 757.24 1085.44 773.52 1092.49 756.2 1096.35 754.53 1114.01 745.5 1098.74 728.19 1102.6 739.93 1089.3 730.9 1074.03"/><polygon class="cls-19" points="933.9 1147.03 950.18 1154.08 961.92 1140.78 960.24 1158.44 976.52 1165.49 959.2 1169.35 957.53 1187.01 948.5 1171.74 931.19 1175.6 942.93 1162.3 933.9 1147.03"/><polygon class="cls-19" points="721.77 1226.61 732.2 1231.13 739.72 1222.61 738.64 1233.92 749.07 1238.44 737.98 1240.91 736.9 1252.23 731.12 1242.44 720.03 1244.92 727.55 1236.39 721.77 1226.61"/><polygon class="cls-19" points="535.85 1043.42 552.13 1050.47 563.87 1037.17 562.19 1054.83 578.47 1061.88 561.15 1065.75 559.48 1083.4 550.45 1068.13 533.14 1072 544.88 1058.7 535.85 1043.42"/><polygon class="cls-19" points="419.81 1092.37 433.04 1098.1 442.58 1087.29 441.21 1101.64 454.44 1107.37 440.37 1110.51 439.01 1124.86 431.68 1112.45 417.61 1115.59 427.14 1104.78 419.81 1092.37"/><g class="cls-20"><g class="cls-21"><g class="cls-22"><path class="cls-23" d="M309.56,751.07l-104.89,3.59c-6,87.89,3.05,174.08,26.28,259q50.66,4.95,101.34,9.72c-7-23.75-13.18-47.59-18.66-71.73q14.58,23.39,29.59,46.5,18.71.6,37.42,1.16,11.29-15.72,23.06-31.09,9.13,36.65,20.05,72.75c79.85-16.09,165.44-12.22,245.26.2,71.3,11.09,159.43,2.14,221.07-13.26,29.19-7.29,71.3,6.28,101.74,20.61,44.52,21,110.71-9,149.36-22.68,24-8.49,58.57,1.75,83.34,13.1,39.8,18.24,112.68-19,136.37-18.31,27,.77,91,17.56,132.51,1,49.45-19.81,102.46-88.81,63.14-139.89-12.8-16.63-50.27-39.11-50.27-39.11s43.11,11.57,57-3.3c38.19-40.83-10.94-71.56-47.62-85.06-34.51-12.7-85.81,8.65-110.35,10.9-13,1.19-38.07-8.72-57.17-9-19.86-.25-40-1.65-60-3.2q5.32,32.22,9.43,64.59-23.84-31.14-48.26-61.81l-80.83-.26c37.52-38.25,44-93.81,27-142-20.82-59-83.23-91.58-144.63-76.3-17.69,4.4-43.77,26-49.41,26.42-12.48,1-67.22-34.31-102.94-30.38-35.15,3.86-79.66,19.48-105,18.3-31.63-1.46-88.38-17.08-131.57-16.35-25.5.43-75.37-2-95.7,19.64a1770.77,1770.77,0,0,0-20.08,189s20.62,11.74,14.51,17.67q-85.07-7.13-170.17-13.91-23.54,37.21-45.59,75.28C332.53,799.25,320.72,775.35,309.56,751.07Z" transform="translate(-184.63 -6.93)"/></g></g></g><path class="cls-24" d="M335.89,731.43l-101.52,2.9-5.8,266.85,101.52,5.8-2.9-72.51,20.3,46.41H385.2l29-31.91,5.8,72.51s113.12-26.1,252.34-5.8c141.34,20.61,226.24-14.5,226.24-14.5s46.41-5.8,104.42,20.3,150.83-20.3,150.83-20.3,34.81-8.7,87,14.5S1383,995.37,1383,995.37s55.11,52.21,130.52,20.3,58-121.82,34.81-150.83-52.21-40.61-52.21-40.61,37.71,17.4,55.11-2.9,37.71-60.91-40.61-89.92-113.12,14.5-113.12,14.5-34.81-8.7-55.11-8.7-58-2.9-58-2.9l8.7,63.81-46.41-60.91h-78.31s58-55.11,34.81-139.22-104.42-81.21-139.22-72.51-52.21,26.1-52.21,26.1-46.41-34.81-104.42-29A929.46,929.46,0,0,0,800,540s-49.31-17.4-136.32-17.4S567.93,540,567.93,540L565,725.63s20.3,11.6,14.5,17.4L414.2,728.53,370.7,803.94Z" transform="translate(-184.63 -6.93)"/><path class="cls-25" d="M607.77,715.24V552.43h110v30.78h-73.3v32H709.5v30.07H644.42v39.23h78.7v30.78Z" transform="translate(-184.63 -6.93)"/><path class="cls-19" d="M726,718.14H604.87V549.53H720.62v36.58h-73.3v26.15H712.4v35.87H647.32v33.44H726Zm-115.36-5.8H720.22v-25h-78.7v-45H706.6V618.06H641.52V580.3h73.3v-25H610.67Z" transform="translate(-184.63 -6.93)"/><path class="cls-25" d="M799.71,718.53q-17.15,0-29.6-4.82a55.07,55.07,0,0,1-20.56-13.39,53.47,53.47,0,0,1-12-20.44,84,84,0,0,1-3.88-26.2V552.43h36.65v98.2a55.12,55.12,0,0,0,2.23,16.8,30.9,30.9,0,0,0,6.11,11.28,21.75,21.75,0,0,0,9.4,6.23,37.2,37.2,0,0,0,12.1,1.88q13.39,0,21.73-8.22t8.34-28v-98.2h36.65V653.69a82.83,82.83,0,0,1-4,26.31,53.9,53.9,0,0,1-12.22,20.56,54.74,54.74,0,0,1-20.91,13.27Q817.1,718.53,799.71,718.53Z" transform="translate(-184.63 -6.93)"/><path class="cls-19" d="M799.71,721.43c-11.74,0-22.05-1.69-30.65-5a58.2,58.2,0,0,1-21.62-14.11,56.58,56.58,0,0,1-12.63-21.53,87.31,87.31,0,0,1-4-27.1V549.53h42.45v101.1a52.56,52.56,0,0,0,2.09,15.91,28.2,28.2,0,0,0,5.51,10.24,18.74,18.74,0,0,0,8.17,5.41,34.54,34.54,0,0,0,11.17,1.73c8.21,0,14.66-2.42,19.7-7.39s7.48-13.6,7.48-25.89V549.53h42.45V653.69a86.11,86.11,0,0,1-4.14,27.23,57,57,0,0,1-12.88,21.65,57.86,57.86,0,0,1-22,14C822.05,719.79,811.59,721.43,799.71,721.43ZM736.6,555.33v98.36a81.51,81.51,0,0,0,3.73,25.3,50.81,50.81,0,0,0,11.33,19.35A52.45,52.45,0,0,0,771.16,711c7.93,3.06,17.54,4.62,28.56,4.62,11.19,0,21-1.52,29.06-4.52a52.18,52.18,0,0,0,19.82-12.56,51.24,51.24,0,0,0,11.56-19.47,80.3,80.3,0,0,0,3.85-25.4V555.33H833.16v95.3c0,13.9-3.1,24-9.2,30s-14.09,9.06-23.77,9.06a40.27,40.27,0,0,1-13-2,24.71,24.71,0,0,1-10.62-7,33.91,33.91,0,0,1-6.7-12.32,58.26,58.26,0,0,1-2.37-17.69v-95.3Z" transform="translate(-184.63 -6.93)"/><path class="cls-25" d="M935.74,550.55q36.65,0,56.15,13t19.5,40.53q0,17.15-7.87,27.84t-22.67,16.8q4.93,6.11,10.34,14t10.69,16.45q5.29,8.58,10.22,17.86t9.16,18.21h-41q-4.49-8-9.08-16.21t-9.43-16q-4.84-7.75-9.55-14.68t-9.44-12.57H924.7v59.44H888V554.78a208.43,208.43,0,0,1,24.79-3.29Q925.64,550.55,935.74,550.55Zm2.12,31.25q-4,0-7.16.24l-6,.47v44.17H935q20.67,0,29.6-5.17t8.93-17.62q0-12-9-17T937.85,581.8Z" transform="translate(-184.63 -6.93)"/><path class="cls-19" d="M1025.84,718.14H978.59l-.83-1.48q-4.49-8-9.09-16.22c-3-5.45-6.2-10.79-9.36-15.86s-6.35-10-9.49-14.59c-2.79-4.1-5.61-7.89-8.4-11.3H927.6v59.44H885.15V552.39l2.34-.46a211.86,211.86,0,0,1,25.13-3.33c8.58-.63,16.35-.95,23.12-.95,24.9,0,44.34,4.55,57.76,13.53,13.79,9.22,20.79,23.67,20.79,42.94,0,12-2.84,22-8.43,29.56-4.9,6.66-11.76,12.1-20.41,16.22,2.61,3.38,5.34,7.13,8.14,11.2,3.62,5.27,7.24,10.85,10.77,16.56s7,11.81,10.31,18,6.43,12.43,9.22,18.33ZM982,712.34h34.66c-2.22-4.54-4.6-9.21-7.11-13.95-3.24-6.1-6.65-12-10.13-17.69s-7-11.13-10.61-16.33-7-9.81-10.2-13.8l-2.44-3,3.59-1.48c9.32-3.85,16.53-9.17,21.44-15.84s7.3-15.37,7.3-26.12c0-17.45-6-29.92-18.21-38.12-12.45-8.32-30.8-12.55-54.54-12.55-6.62,0-14.25.31-22.69.93a208,208,0,0,0-22.1,2.8V712.34H921.8V652.9h22.35l.87,1c3.19,3.82,6.42,8.12,9.61,12.79s6.42,9.66,9.62,14.78,6.41,10.57,9.5,16.1Q977.91,705.08,982,712.34Zm-47-82.77H921.8V579.83l2.67-.22,6-.47c2.19-.16,4.67-.24,7.38-.24,12.37,0,21.55,1.77,28.08,5.42,7,3.91,10.53,10.49,10.53,19.56,0,9.38-3.49,16.15-10.37,20.13C959.63,627.75,949.47,629.57,935,629.57Zm-7.44-5.8H935c13.2,0,22.67-1.61,28.15-4.78,5-2.91,7.48-7.85,7.48-15.11,0-6.91-2.47-11.66-7.56-14.5-5.56-3.11-14.06-4.68-25.25-4.68-2.57,0-4.9.08-6.95.23l-3.31.25Z" transform="translate(-184.63 -6.93)"/><path class="cls-25" d="M1181.49,633.72q0,20.91-6.23,36.77a75.63,75.63,0,0,1-17,26.55,69.93,69.93,0,0,1-25.72,16.09,93.53,93.53,0,0,1-32.07,5.4,91.13,91.13,0,0,1-31.48-5.4A72.37,72.37,0,0,1,1043.11,697a75.25,75.25,0,0,1-17.39-26.55q-6.34-15.86-6.34-36.77T1026,597a78.19,78.19,0,0,1,17.74-26.67,73,73,0,0,1,25.84-16.21,88.71,88.71,0,0,1,30.89-5.4,91.07,91.07,0,0,1,31.48,5.4,71.68,71.68,0,0,1,25.84,16.21A76.39,76.39,0,0,1,1175.14,597Q1181.49,612.81,1181.49,633.72Zm-124.29,0a73.92,73.92,0,0,0,2.94,21.61,49.24,49.24,0,0,0,8.46,16.56,37.36,37.36,0,0,0,13.51,10.69,46.27,46.27,0,0,0,36.53,0,37.16,37.16,0,0,0,13.63-10.69,49.45,49.45,0,0,0,8.46-16.56,74.12,74.12,0,0,0,2.93-21.61,75.33,75.33,0,0,0-2.93-21.73,49.39,49.39,0,0,0-8.46-16.68,37.24,37.24,0,0,0-13.63-10.69,42.82,42.82,0,0,0-18.21-3.76,41.46,41.46,0,0,0-18.33,3.88,38.59,38.59,0,0,0-13.51,10.81,49.18,49.18,0,0,0-8.46,16.68A74.25,74.25,0,0,0,1057.2,633.72Z" transform="translate(-184.63 -6.93)"/><path class="cls-19" d="M1100.43,721.43a94.42,94.42,0,0,1-32.47-5.58,75.59,75.59,0,0,1-26.87-16.73A78.52,78.52,0,0,1,1023,671.57c-4.35-10.88-6.55-23.61-6.55-37.85s2.29-27,6.81-37.88a81.39,81.39,0,0,1,18.4-27.64,76.25,76.25,0,0,1,26.86-16.85,92,92,0,0,1,31.89-5.58,94.41,94.41,0,0,1,32.47,5.58,74.92,74.92,0,0,1,26.88,16.86,79.62,79.62,0,0,1,18.05,27.66c4.35,10.86,6.55,23.59,6.55,37.85s-2.16,27-6.43,37.83a78.87,78.87,0,0,1-17.7,27.55,73.13,73.13,0,0,1-26.78,16.76A96.85,96.85,0,0,1,1100.43,721.43Zm0-169.86a86.28,86.28,0,0,0-29.89,5.23,70.44,70.44,0,0,0-24.83,15.57,75.69,75.69,0,0,0-17.07,25.69c-4.22,10.17-6.36,22.16-6.36,35.66s2.06,25.5,6.14,35.69A72.77,72.77,0,0,0,1045.12,695a69.8,69.8,0,0,0,24.82,15.45,88.69,88.69,0,0,0,30.49,5.23,91.07,91.07,0,0,0,31.08-5.23A67.37,67.37,0,0,0,1156.19,695a73.11,73.11,0,0,0,16.37-25.55c4-10.19,6-22.21,6-35.71s-2.06-25.52-6.14-35.69a73.92,73.92,0,0,0-16.72-25.67,69.18,69.18,0,0,0-24.81-15.56A88.6,88.6,0,0,0,1100.43,551.57Zm0,137.68a45.59,45.59,0,0,1-19.56-4,40.41,40.41,0,0,1-14.54-11.51,52.35,52.35,0,0,1-9-17.53,83.37,83.37,0,0,1,0-44.79,52.25,52.25,0,0,1,9-17.65,41.66,41.66,0,0,1,14.51-11.61,44.55,44.55,0,0,1,19.59-4.17,45.86,45.86,0,0,1,19.43,4,40.24,40.24,0,0,1,14.68,11.51,52.51,52.51,0,0,1,9,17.65,78.56,78.56,0,0,1,3.06,22.57,77.32,77.32,0,0,1-3.06,22.46,52.56,52.56,0,0,1-9,17.53,40.22,40.22,0,0,1-14.68,11.51A45.81,45.81,0,0,1,1100.43,689.25Zm0-105.49a38.83,38.83,0,0,0-17.06,3.58,35.91,35.91,0,0,0-12.5,10,46.51,46.51,0,0,0-7.95,15.71,77.61,77.61,0,0,0,0,41.43,46.62,46.62,0,0,0,8,15.6,34.64,34.64,0,0,0,12.47,9.87,43.38,43.38,0,0,0,34.08,0,34.48,34.48,0,0,0,12.58-9.87,46.8,46.8,0,0,0,8-15.6,71.54,71.54,0,0,0,2.81-20.77,72.81,72.81,0,0,0-2.81-20.9,46.76,46.76,0,0,0-8-15.71,34.48,34.48,0,0,0-12.58-9.86A40.15,40.15,0,0,0,1100.43,583.76Z" transform="translate(-184.63 -6.93)"/><path class="cls-25" d="M317.59,766.7q5.34,9.76,12.32,24.12t14.54,31.08q7.57,16.72,15,34.19L373.39,889l14-32.86q7.42-17.46,15-34.19t14.55-31.08q7-14.35,12.32-24.12h42q3,20.42,5.48,45.73t4.44,52.69q1.92,27.38,3.55,54.91t2.81,51.8h-45q-.89-29.89-2.37-65.12t-4.44-71q-5.35,12.43-11.88,27.53T410.91,893.4q-6.38,15.09-12.32,28.86t-10.1,23.53H356.22q-4.16-9.76-10.1-23.53T333.8,893.4q-6.38-15.1-12.91-30.19T309,835.67q-3,35.82-4.44,71t-2.37,65.12h-45q1.18-24.27,2.81-51.8t3.55-54.91q1.92-27.37,4.44-52.69t5.48-45.73Z" transform="translate(-184.63 -6.93)"/><path class="cls-19" d="M490.55,974.74H439.69l-.08-2.82c-.58-19.62-1.38-41.52-2.37-65.09-.82-19.51-2-39.4-3.51-59.27l-7.25,16.78q-6.53,15.09-12.91,30.17T401.25,923.4q-5.94,13.76-10.09,23.52l-.75,1.76h-36.1l-.75-1.76q-4.16-9.76-10.09-23.52t-12.33-28.88q-6.38-15.09-12.9-30.17-3.83-8.85-7.25-16.78c-1.51,19.89-2.69,39.78-3.51,59.26-1,23.1-1.77,45-2.37,65.09l-.08,2.82H254.16l.15-3c.78-16,1.72-33.39,2.81-51.83,1.08-18.28,2.27-36.76,3.55-54.94s2.77-36,4.45-52.77,3.52-32.24,5.49-45.86l.36-2.48h48.33l.83,1.51c3.53,6.44,7.69,14.6,12.38,24.25s9.55,20.05,14.58,31.16,10,22.56,15,34.25l11.28,26.57L384.67,855c4.94-11.64,10-23.16,15-34.25s10-21.67,14.58-31.16,8.81-17.72,12.38-24.24l.83-1.51h46.26l.36,2.48c2,13.64,3.82,29.06,5.49,45.86s3.17,34.56,4.45,52.77,2.47,36.62,3.55,54.94,2,35.89,2.81,51.83Zm-45.22-5.8h39.13c-.75-15.09-1.64-31.47-2.66-48.73-1.08-18.3-2.28-36.76-3.55-54.88s-2.77-35.85-4.43-52.61c-1.56-15.7-3.28-30.19-5.1-43.12H430.91c-3.34,6.17-7.18,13.73-11.43,22.49-4.59,9.44-9.47,19.87-14.51,31s-10,22.53-15,34.13l-16.62,39.15-16.62-39.15c-5-11.65-10-23.13-15-34.13s-9.89-21.49-14.51-31c-4.29-8.82-8.13-16.37-11.43-22.49H276c-1.83,12.92-3.54,27.41-5.1,43.12-1.67,16.75-3.16,34.45-4.43,52.61S264,902,262.91,920.21c-1,17.26-1.91,33.63-2.66,48.73h39.13c.59-19.33,1.35-40.29,2.28-62.34,1-23.37,2.48-47.31,4.45-71.16l1-11.6,4.6,10.7Q317,847,323.55,862t12.92,30.22q6.38,15.08,12.32,28.84,5.42,12.56,9.35,21.78h28.43q3.93-9.23,9.35-21.78,5.93-13.75,12.31-28.84T421.16,862Q427.69,847,433,834.53l4.6-10.69,1,11.6c2,23.81,3.46,47.75,4.45,71.16C444,929.06,444.75,950,445.32,968.94Z" transform="translate(-184.63 -6.93)"/><path class="cls-25" d="M510.89,766.7h46.18V971.84H510.89Z" transform="translate(-184.63 -6.93)"/><path class="cls-19" d="M560,974.74H508V763.8h52Zm-46.18-5.8h40.38V769.6H513.79Z" transform="translate(-184.63 -6.93)"/><path class="cls-25" d="M723.72,932.17v39.66H586.66V766.7h46.18V932.17Z" transform="translate(-184.63 -6.93)"/><path class="cls-19" d="M726.62,974.74H583.76V763.8h52V929.27h90.88Zm-137.05-5.8H720.82V935.07H629.94V769.6H589.56Z" transform="translate(-184.63 -6.93)"/><path class="cls-25" d="M878.52,932.17v39.66H741.47V766.7h46.18V932.17Z" transform="translate(-184.63 -6.93)"/><path class="cls-19" d="M881.43,974.74H738.57V763.8h52V929.27h90.88Zm-137.05-5.8H875.63V935.07H784.75V769.6H744.37Z" transform="translate(-184.63 -6.93)"/><path class="cls-25" d="M896.28,766.7h46.18V971.84H896.28Z" transform="translate(-184.63 -6.93)"/><path class="cls-19" d="M945.36,974.74h-52V763.8h52Zm-46.18-5.8h40.38V769.6H899.18Z" transform="translate(-184.63 -6.93)"/><path class="cls-25" d="M1167.43,869.12q0,26.35-7.85,46.33t-21.46,33.45a88.09,88.09,0,0,1-32.42,20.28,117.79,117.79,0,0,1-40.4,6.81,114.78,114.78,0,0,1-39.67-6.81,91.14,91.14,0,0,1-32.56-20.28q-13.91-13.47-21.9-33.45t-8-46.33q0-26.34,8.29-46.33a98.63,98.63,0,0,1,22.35-33.6,91.9,91.9,0,0,1,32.56-20.43A111.79,111.79,0,0,1,1065.3,762a114.8,114.8,0,0,1,39.67,6.81,90.26,90.26,0,0,1,32.56,20.43,96.39,96.39,0,0,1,21.91,33.6Q1167.43,842.78,1167.43,869.12Zm-156.59,0a93.12,93.12,0,0,0,3.7,27.23,62.11,62.11,0,0,0,10.66,20.87,47.07,47.07,0,0,0,17,13.47,58.29,58.29,0,0,0,46,0,46.78,46.78,0,0,0,17.17-13.47,62.26,62.26,0,0,0,10.66-20.87,93.31,93.31,0,0,0,3.7-27.23,94.82,94.82,0,0,0-3.7-27.38,62.19,62.19,0,0,0-10.66-21,46.94,46.94,0,0,0-17.17-13.47,54,54,0,0,0-22.94-4.74,52.27,52.27,0,0,0-23.09,4.89,48.64,48.64,0,0,0-17,13.62,62.07,62.07,0,0,0-10.66,21A93.54,93.54,0,0,0,1010.84,869.12Z" transform="translate(-184.63 -6.93)"/><path class="cls-19" d="M1065.3,978.88a118.25,118.25,0,0,1-40.66-7A94.46,94.46,0,0,1,991.06,951a98.08,98.08,0,0,1-22.58-34.46c-5.44-13.6-8.2-29.55-8.2-47.4s2.86-33.83,8.51-47.44a102,102,0,0,1,23-34.57,95.23,95.23,0,0,1,33.58-21.06,115.2,115.2,0,0,1,39.93-7,118.21,118.21,0,0,1,40.66,7,93.55,93.55,0,0,1,33.59,21.08,99.72,99.72,0,0,1,22.57,34.59c5.44,13.6,8.2,29.55,8.2,47.4s-2.71,33.78-8,47.39-12.79,25.22-22.12,34.45a91.4,91.4,0,0,1-33.47,20.94A121.19,121.19,0,0,1,1065.3,978.88Zm0-214a109.39,109.39,0,0,0-37.92,6.63,89.44,89.44,0,0,0-31.55,19.79,96.19,96.19,0,0,0-21.69,32.62c-5.35,12.9-8.07,28.11-8.07,45.22s2.62,32.34,7.79,45.25a92.31,92.31,0,0,0,21.23,32.44,88.66,88.66,0,0,0,31.54,19.64,112.45,112.45,0,0,0,38.67,6.63,115.4,115.4,0,0,0,39.42-6.64,85.64,85.64,0,0,0,31.36-19.61c8.75-8.65,15.74-19.57,20.8-32.45s7.64-28.16,7.64-45.27-2.62-32.34-7.79-45.25a94,94,0,0,0-21.24-32.6A87.75,87.75,0,0,0,1104,771.5,112.45,112.45,0,0,0,1065.3,764.87Zm0,173.46a56.68,56.68,0,0,1-24.33-5A50.14,50.14,0,0,1,1022.92,919a65.31,65.31,0,0,1-11.16-21.83,104.43,104.43,0,0,1,0-56,65.2,65.2,0,0,1,11.17-22,51.72,51.72,0,0,1,18-14.42,55.35,55.35,0,0,1,24.36-5.18,57,57,0,0,1,24.16,5,50,50,0,0,1,18.22,14.3,65.36,65.36,0,0,1,11.17,22,98.16,98.16,0,0,1,3.82,28.22,96.6,96.6,0,0,1-3.83,28.08A65.45,65.45,0,0,1,1107.68,919a49.86,49.86,0,0,1-18.22,14.29A57,57,0,0,1,1065.3,938.33Zm0-132.91a49.65,49.65,0,0,0-21.82,4.59,46,46,0,0,0-16,12.81,59.46,59.46,0,0,0-10.15,20,98.66,98.66,0,0,0,0,52.63,59.54,59.54,0,0,0,10.15,19.91,44.39,44.39,0,0,0,16,12.65,55.4,55.4,0,0,0,43.57,0,44.1,44.1,0,0,0,16.12-12.64,59.67,59.67,0,0,0,10.15-19.91,90.84,90.84,0,0,0,3.57-26.38,92.4,92.4,0,0,0-3.58-26.54,59.59,59.59,0,0,0-10.15-20A44.26,44.26,0,0,0,1087,809.89,51.31,51.31,0,0,0,1065.3,805.42Z" transform="translate(-184.63 -6.93)"/><path class="cls-25" d="M1325.79,971.84q-19.84-35.22-42.92-69.56a708.46,708.46,0,0,0-49.14-64.82V971.84h-45.59V766.7h37.59q9.77,9.76,21.61,24T1271.47,821q12.28,16.14,24.42,33.45t22.79,33.3V766.7h45.88V971.84Z" transform="translate(-184.63 -6.93)"/><path class="cls-19" d="M1367.47,974.74h-43.37l-.83-1.48c-13.14-23.33-27.54-46.67-42.8-69.37a712.64,712.64,0,0,0-43.83-58.51V974.74h-51.39V763.8h41.69l.85.85c6.53,6.53,13.86,14.66,21.79,24.17s16,19.66,24.2,30.44,16.42,22,24.49,33.54c6.09,8.69,12,17.21,17.52,25.44V763.8h51.68Zm-40-5.8h34.18V769.6h-40.08V897.35l-5.31-8c-7.06-10.59-14.72-21.78-22.76-33.25s-16.22-22.67-24.36-33.36-16.25-20.89-24-30.24c-7.47-9-14.39-16.67-20.59-22.93H1191V968.94h39.79V829.59l5.11,6a714.47,714.47,0,0,1,49.34,65.09C1300.3,923,1314.5,946,1327.48,968.94Z" transform="translate(-184.63 -6.93)"/><path class="cls-25" d="M1450.11,936.61a66.49,66.49,0,0,0,16.13-1.63,29.63,29.63,0,0,0,10.21-4.44,14.88,14.88,0,0,0,5.33-6.66,23.84,23.84,0,0,0,1.48-8.59q0-10.06-9.47-16.72t-32.56-14.36q-10.07-3.55-20.13-8.14A74.18,74.18,0,0,1,1403,864.53a55.15,55.15,0,0,1-13-16.87q-5-9.92-5-24.13a59.74,59.74,0,0,1,5.33-25.6,54.66,54.66,0,0,1,15.1-19.39,69,69,0,0,1,23.68-12.28,106.39,106.39,0,0,1,31.38-4.29q20.72,0,35.82,4.44a128,128,0,0,1,24.87,9.77l-13.32,36.41a126.36,126.36,0,0,0-19.09-7.85q-10.51-3.4-25.31-3.4-16.58,0-23.83,4.59T1432.35,820a16.23,16.23,0,0,0,2.67,9.47,25.85,25.85,0,0,0,7.55,7,65.88,65.88,0,0,0,11.25,5.63q6.36,2.52,14.06,5.18,16,5.93,27.82,11.69a74.39,74.39,0,0,1,19.69,13.47,48.85,48.85,0,0,1,11.69,18.05q3.84,10.37,3.85,25.16,0,28.72-20.13,44.55T1450.11,976a168.54,168.54,0,0,1-24.57-1.63,158.42,158.42,0,0,1-19.39-4,110.44,110.44,0,0,1-14.51-5,108.9,108.9,0,0,1-10.21-5l13-36.71a115.78,115.78,0,0,0,22.64,9Q1430.57,936.61,1450.11,936.61Z" transform="translate(-184.63 -6.93)"/><path class="cls-19" d="M1450.11,978.88a172.26,172.26,0,0,1-25-1.66,161.85,161.85,0,0,1-19.75-4.08A111.12,111.12,0,0,1,1380,962.81l-2.1-1.21,15-42.2,3,1.64a113.55,113.55,0,0,0,22.07,8.79c8.68,2.57,19.5,3.88,32.18,3.88a64.08,64.08,0,0,0,15.41-1.54,26.94,26.94,0,0,0,9.22-4,12,12,0,0,0,4.34-5.36,21.08,21.08,0,0,0,1.28-7.54c0-5.76-2.7-10.45-8.24-14.35-6.05-4.25-16.76-9-31.81-14-6.84-2.41-13.69-5.18-20.42-8.25a77.49,77.49,0,0,1-18.76-12A58.26,58.26,0,0,1,1387.43,849c-3.55-7-5.34-15.54-5.34-25.44a62.91,62.91,0,0,1,5.6-26.83,57.8,57.8,0,0,1,15.89-20.41,72.24,72.24,0,0,1,24.66-12.81,109.72,109.72,0,0,1,32.23-4.42c14,0,26.36,1.53,36.64,4.56a131.42,131.42,0,0,1,25.44,10l2.19,1.2-15.31,41.85-2.92-1.51a124,124,0,0,0-18.66-7.66c-6.69-2.16-14.91-3.26-24.41-3.26-10.44,0-17.93,1.39-22.28,4.14-4,2.52-5.9,6.32-5.9,11.61a13.45,13.45,0,0,0,2.15,7.82,23.08,23.08,0,0,0,6.72,6.16,63.34,63.34,0,0,0,10.76,5.37c4.23,1.68,8.93,3.4,13.94,5.14,10.78,4,20.23,8,28.15,11.83a77.6,77.6,0,0,1,20.45,14,52,52,0,0,1,12.38,19.11c2.67,7.22,4,16,4,26.17,0,20-7.15,35.75-21.24,46.83C1498.7,973.35,1477.69,978.88,1450.11,978.88ZM1385,958.94c2.23,1.18,4.85,2.43,7.82,3.73a108.24,108.24,0,0,0,14.12,4.89,156,156,0,0,0,19,3.92,166.17,166.17,0,0,0,24.14,1.59c26.24,0,46.05-5.12,58.89-15.22s19-23.89,19-42.27c0-9.46-1.23-17.59-3.67-24.15a46.19,46.19,0,0,0-11-17,71.86,71.86,0,0,0-18.93-12.94c-7.75-3.78-17-7.67-27.56-11.58-5-1.74-9.81-3.5-14.12-5.2a68.9,68.9,0,0,1-11.74-5.87,28.88,28.88,0,0,1-8.38-7.75,19.12,19.12,0,0,1-3.18-11.12c0-7.34,2.89-12.89,8.6-16.51,5.36-3.39,13.66-5,25.38-5,10.11,0,18.93,1.19,26.2,3.55a134.43,134.43,0,0,1,16.59,6.56l11.33-31a133.79,133.79,0,0,0-22.09-8.38c-9.75-2.87-21.52-4.32-35-4.32a103.92,103.92,0,0,0-30.52,4.16,66.5,66.5,0,0,0-22.7,11.75,52,52,0,0,0-14.31,18.37,57.15,57.15,0,0,0-5.05,24.37c0,9,1.59,16.65,4.72,22.81a52.51,52.51,0,0,0,12.34,16,71.6,71.6,0,0,0,17.36,11.09c6.57,3,13.26,5.71,19.89,8,15.76,5.26,26.66,10.08,33.26,14.72,7.1,5,10.7,11.42,10.7,19.1a26.84,26.84,0,0,1-1.67,9.62,17.8,17.8,0,0,1-6.33,8,32.59,32.59,0,0,1-11.21,4.91,69.58,69.58,0,0,1-16.85,1.72c-13.24,0-24.62-1.39-33.83-4.12a127.43,127.43,0,0,1-20.2-7.7Z" transform="translate(-184.63 -6.93)"/></g></g></svg>