<svg id="Layer_1" data-name="Layer 1" xmlns="http://www.w3.org/2000/svg" xmlns:xlink="http://www.w3.org/1999/xlink" viewBox="0 0 1380 1203.28"><defs><style>.cls-1{fill:url(#linear-gradient);}.cls-2{filter:url(#dropshadow);}.cls-3{fill:#fdd600;}.cls-4{fill:#795d26;}.cls-5{fill:#f8eb6c;}.cls-6{fill:#795c25;}.cls-7{fill:#fff;}.cls-8{fill:#f8d732;}</style><linearGradient id="linear-gradient" x1="745.89" y1="1118.31" x2="616.19" y2="-3.97" gradientUnits="userSpaceOnUse"><stop offset="0.01" stop-color="#cca62c"/><stop offset="0.07" stop-color="#d1ab29"/><stop offset="0.37" stop-color="#e6c01f"/><stop offset="0.48" stop-color="#ecc616"/><stop offset="0.74" stop-color="#f7d109"/><stop offset="0.97" stop-color="#fad404"/></linearGradient><filter id="dropshadow" name="dropshadow"><feGaussianBlur stdDeviation="3" in="SourceAlpha"/><feOffset dy="10"/><feComponentTransfer><feFuncA type="linear" slope="0.2"/></feComponentTransfer><feMerge><feMergeNode/><feMergeNode in="SourceGraphic"/></feMerge></filter></defs><title>EuroJackpot_Logo</title><circle class="cls-1" cx="686.18" cy="601.64" r="601.64"/><g class="cls-2"><path class="cls-3" d="M213.53,937.19,228,899.06q12.3,4.31,20.91,4.3,20.6,0,20.6-25.52V728.09h66.11V877.84q0,35.36-18.45,55.5t-50.74,20.14Q238.13,953.49,213.53,937.19Z" transform="translate(-196.48 -94.02)"/><path class="cls-4" d="M335.61,728.09V877.84q0,35.36-18.45,55.5t-50.74,20.14q-28.29,0-52.89-16.3L228,899.06q12.3,4.31,20.91,4.3,20.6,0,20.6-25.52V728.09h66.11m14-14H255.5V877.84c0,7.25-1.56,9.75-2,10.35-.78,1-2.91,1.17-4.56,1.17-2.85,0-8-.61-16.28-3.52l-12.88-4.52-4.84,12.77-14.45,38.13-4,10.46,9.32,6.18c18.66,12.36,39.05,18.63,60.62,18.63,25.51,0,46.05-8.3,61.06-24.68,14.68-16,22.13-37.88,22.13-65V714.09Z" transform="translate(-196.48 -94.02)"/><path class="cls-3" d="M400.18,728.09h93.48l61.19,211.55H482.59l-8-40.59H419.86l-8.92,40.59H341.76Zm67,133.14-20-92.55-20.91,92.55Z" transform="translate(-196.48 -94.02)"/><path class="cls-4" d="M493.66,728.09l61.19,211.55H482.59l-8-40.59H419.86l-8.92,40.59H341.76l58.42-211.55h93.48M426.32,861.24h40.9l-20-92.55-20.91,92.55m77.86-147.14H389.52l-2.84,10.27L328.26,935.92l-4.9,17.73H422.2l2.42-11,6.5-29.59h32l5.77,29.29,2.22,11.29H573.47l-5.17-17.89L507.11,724.2l-2.92-10.11ZM443.83,847.24l3.09-13.66,2.95,13.66Z" transform="translate(-196.48 -94.02)"/><path class="cls-3" d="M603.58,930a107.51,107.51,0,0,1-39.67-40q-14.61-25.37-14.61-56.12,0-31.37,14.14-56.58a103.22,103.22,0,0,1,38.74-39.51q24.6-14.3,55.35-14.3a134.07,134.07,0,0,1,32.59,4,90.23,90.23,0,0,1,27.37,11.38l-8.3,47.66q-22.14-8.3-40-8.3-24.6,0-37.82,14.3t-13.22,41.05q0,26.14,14,40.74t38.9,14.61a82.1,82.1,0,0,0,17.83-1.84,129.32,129.32,0,0,0,20.29-6.76l8.61,48.58a113.48,113.48,0,0,1-58.42,15.68Q628.64,944.57,603.58,930Z" transform="translate(-196.48 -94.02)"/><path class="cls-4" d="M657.55,723.48a134.07,134.07,0,0,1,32.59,4,90.23,90.23,0,0,1,27.37,11.38l-8.3,47.66q-22.14-8.3-40-8.3-24.6,0-37.82,14.3t-13.22,41.05q0,26.14,14,40.74t38.9,14.61a82.1,82.1,0,0,0,17.83-1.84,129.32,129.32,0,0,0,20.29-6.76l8.61,48.58a113.48,113.48,0,0,1-58.42,15.68q-30.75,0-55.81-14.61a107.51,107.51,0,0,1-39.67-40q-14.61-25.37-14.61-56.12,0-31.37,14.14-56.58a103.22,103.22,0,0,1,38.74-39.51q24.6-14.3,55.35-14.3m0-14c-22.91,0-43.9,5.45-62.38,16.19a117.5,117.5,0,0,0-43.92,44.77c-10.57,18.85-15.93,40.19-15.93,63.43,0,22.89,5.54,44.12,16.47,63.1a121.81,121.81,0,0,0,44.75,45.09c18.8,11,39.95,16.51,62.86,16.51a127.81,127.81,0,0,0,65.5-17.6L733.3,936l-1.7-9.59L723,877.86l-3-17.1-16.07,6.6a116.48,116.48,0,0,1-18,6,68.49,68.49,0,0,1-14.8,1.51c-12.74,0-22.16-3.37-28.79-10.29-6.8-7.09-10.1-17.25-10.1-31.06,0-14.12,3.2-24.73,9.5-31.54,6.1-6.6,15.11-9.8,27.54-9.8,10.15,0,21.94,2.49,35.06,7.41l15.81,5.93,2.9-16.63,8.3-47.66,1.59-9.11-7.76-5a104.53,104.53,0,0,0-31.59-13.21,148.73,148.73,0,0,0-36-4.42Z" transform="translate(-196.48 -94.02)"/><path class="cls-3" d="M742.41,728.09h71.34V814.5h22.14l40.9-86.41h71v13.84l-48.58,91,55.66,92.86v13.84H880.17L834.66,855.7H813.75v83.95H742.41Z" transform="translate(-196.48 -94.02)"/><path class="cls-4" d="M947.81,728.09v13.84l-48.58,91,55.66,92.86v13.84H880.17L834.66,855.7H813.75v83.95H742.41V728.09h71.34V814.5h22.14l40.9-86.41h71m14-14H867.92l-3.79,8L827.75,799V714.09H728.41V953.65h99.34V872.33l40.11,74,4,7.33h97.06V921.94l-2-3.32-51.58-86.06,44.85-84,1.65-3.09V714.09Z" transform="translate(-196.48 -94.02)"/><path class="cls-3" d="M975.18,728.09h76.26q47.35,0,73.34,18.45t26,51.66A56.26,56.26,0,0,1,1138,834.79q-12.76,15.68-34.75,24.14t-48.74,8.46H1041.6v72.26H975.18ZM1080,817.88q8.92-6.76,8.92-19.68t-8.76-19.37q-8.76-6.46-25.37-6.46H1041.6V824a132.22,132.22,0,0,0,13.22.61Q1071.12,824.65,1080,817.88Z" transform="translate(-196.48 -94.02)"/><path class="cls-4" d="M1051.44,728.09q47.35,0,73.34,18.45t26,51.66A56.26,56.26,0,0,1,1138,834.79q-12.76,15.68-34.75,24.14t-48.74,8.46H1041.6v72.26H975.18V728.09h76.26m3.38,96.55q16.29,0,25.21-6.76T1089,798.2q0-12.92-8.76-19.37t-25.37-6.46H1041.6V824a132.22,132.22,0,0,0,13.22.61m-3.38-110.55H961.18V953.65h94.42V881.38c19.07-.12,36.79-3.27,52.68-9.39,16.89-6.5,30.55-16,40.58-28.37a70.17,70.17,0,0,0,15.9-45.43c0-13.22-2.69-25.27-8-35.81a74.47,74.47,0,0,0-23.89-27.26c-19.66-14-47.06-21-81.44-21Zm4.16,96.55V786.38c9.4.1,14,2.07,16.28,3.72,1,.73,3.07,2.26,3.07,8.1,0,5.25-1.71,7.26-3.38,8.52-3.26,2.48-8.78,3.83-16,3.92Z" transform="translate(-196.48 -94.02)"/><path class="cls-3" d="M1221.63,930.42a101.38,101.38,0,0,1-40-39.21q-14.3-25.06-14.3-57,0-32.29,14.3-57.5a100.12,100.12,0,0,1,40-39.21q25.67-14,58.88-14t58.88,14a100.43,100.43,0,0,1,40,39.05q14.3,25.06,14.3,57.65,0,32-14.3,57a101.13,101.13,0,0,1-40.13,39.21q-25.83,14.14-58.73,14.14Q1247.31,944.57,1221.63,930.42Zm90.71-56.89q12.45-15.06,12.45-39.67,0-16.29-5.69-29.06a47.78,47.78,0,0,0-15.84-20,38.8,38.8,0,0,0-23.06-7.23,38.31,38.31,0,0,0-22.75,7.23,46.67,46.67,0,0,0-15.68,20q-5.54,12.76-5.54,29.06,0,24.6,12.3,39.67t32,15.07Q1299.89,888.6,1312.34,873.54Z" transform="translate(-196.48 -94.02)"/><path class="cls-4" d="M1280.51,723.48q33.21,0,58.88,14a100.43,100.43,0,0,1,40,39.05q14.3,25.06,14.3,57.65,0,32-14.3,57a101.13,101.13,0,0,1-40.13,39.21q-25.83,14.14-58.73,14.14-33.21,0-58.88-14.14a101.38,101.38,0,0,1-40-39.21q-14.3-25.06-14.3-57,0-32.29,14.3-57.5a100.12,100.12,0,0,1,40-39.21q25.67-14,58.88-14m0,165.12q19.37,0,31.83-15.07t12.45-39.67q0-16.29-5.69-29.06a47.78,47.78,0,0,0-15.84-20,38.8,38.8,0,0,0-23.06-7.23,38.31,38.31,0,0,0-22.75,7.23,46.67,46.67,0,0,0-15.68,20q-5.54,12.76-5.54,29.06,0,24.6,12.3,39.67t32,15.07m0-179.12c-24.4,0-46.47,5.28-65.58,15.7a114.37,114.37,0,0,0-45.45,44.59c-10.7,18.86-16.12,40.53-16.12,64.41,0,23.69,5.43,45.21,16.14,64a115.64,115.64,0,0,0,45.38,44.53c19.13,10.54,41.21,15.88,65.64,15.88,24.2,0,46.22-5.34,65.45-15.86a115.38,115.38,0,0,0,45.56-44.55c10.71-18.77,16.14-40.29,16.14-64,0-24.09-5.43-45.82-16.14-64.59a114.68,114.68,0,0,0-45.43-44.41c-19.12-10.42-41.19-15.7-65.59-15.7Zm0,165.12c-8.9,0-15.61-3.15-21.13-9.92-6.16-7.54-9.15-17.62-9.15-30.82a58.88,58.88,0,0,1,4.38-23.49,32.67,32.67,0,0,1,11-14.15,24.42,24.42,0,0,1,14.63-4.63,24.9,24.9,0,0,1,14.94,4.63,33.77,33.77,0,0,1,11.17,14.29,57.21,57.21,0,0,1,4.47,23.35c0,13.17-3,23.22-9.24,30.75-5.63,6.81-12.31,10-21,10Z" transform="translate(-196.48 -94.02)"/><path class="cls-3" d="M1446.86,774.83h-44V728.09h159.59v46.74h-44V939.65h-71.65Z" transform="translate(-196.48 -94.02)"/><path class="cls-4" d="M1562.48,728.09v46.74h-44V939.65h-71.65V774.83h-44V728.09h159.59m14-14H1388.89v74.74h44V953.65h99.65V788.83h44V714.09Z" transform="translate(-196.48 -94.02)"/></g><g class="cls-2"><path class="cls-5" d="M693.41,626.45c-49.81,10.94-90.18-3.59-115.38-37.6l117.11-25.73-8.52-38.8-127.3,28a171.67,171.67,0,0,1-5-18.18c-.68-3.1-1.24-6.15-1.75-9.17l128.05-28.13L672,458l-121.1,26.6c5.35-50.53,40-84,90.9-95.18,27-5.94,49.52-4.81,66.45-1.45l2.64-50.15c-13.44-3.62-43.23-5.68-82.31,2.91-82.5,18.12-137.87,77-140.88,157.75L406.8,516.29l8.52,38.8,75-16.49c.66,4,1.39,8,2.28,12.08,1.16,5.27,2.51,10.38,4,15.38L421.37,582.6l8.52,38.8,81.89-18c34,63.37,99.91,92.59,182.79,74.38,39.08-8.59,68.37-22.61,80.78-32.92l-19.93-44.68C741.56,610.81,717.53,621.15,693.41,626.45Z" transform="translate(-196.48 -94.02)"/><path class="cls-6" d="M680.87,334.71c13.29,0,23.58,1.38,30.06,3.13L708.29,388a148,148,0,0,0-28.86-2.76,175,175,0,0,0-37.59,4.21c-50.94,11.19-85.55,44.65-90.9,95.18L672,458l8.52,38.8L552.51,524.95c.51,3,1.07,6.06,1.75,9.17a171.7,171.7,0,0,0,5,18.18l127.3-28,8.52,38.8L578,588.85c19.65,26.51,48.5,41.19,83.87,41.19a147,147,0,0,0,31.51-3.59c24.12-5.3,48.15-15.64,62-26.27l19.93,44.68c-12.4,10.31-41.69,24.33-80.78,32.92a219.05,219.05,0,0,1-47,5.34c-60.66,0-108.5-28.86-135.81-79.72l-81.89,18-8.52-38.8,75.26-16.53c-1.47-5-2.82-10.11-4-15.38-.89-4.07-1.63-8.09-2.28-12.08l-75,16.49-8.52-38.8,80.94-17.78c3-80.74,58.38-139.63,140.88-157.75a245.74,245.74,0,0,1,52.25-6m0-14h0a258.83,258.83,0,0,0-55.25,6.36c-86.61,19-143.63,79.83-151.15,160L403.8,502.62a14,14,0,0,0-10.67,16.68l8.52,38.8a14,14,0,0,0,16.68,10.67l61-13.41,0,.16-61,13.41A14,14,0,0,0,407.7,585.6l8.52,38.8a14,14,0,0,0,16.68,10.67l71.86-15.79c14.3,23.33,32.86,41.84,55.29,55.11,25.52,15.09,55,22.74,87.54,22.74a233.82,233.82,0,0,0,50-5.67c36-7.91,70.06-22,86.72-35.83a14,14,0,0,0,3.84-16.47L768.2,594.48a14,14,0,0,0-21.31-5.4c-12.52,9.61-34.69,18.91-56.48,23.7A133.47,133.47,0,0,1,661.89,616c-21.94,0-41.17-6.45-56.64-18.83l92.89-20.41a14,14,0,0,0,10.67-16.68l-8.52-38.8a14,14,0,0,0-16.68-10.67L569,535.82l0-.16,114.56-25.17a14,14,0,0,0,10.67-16.68L685.71,455A14,14,0,0,0,669,444.34l-100.14,22c10.16-32.42,36.5-54.56,75.95-63.23a161.68,161.68,0,0,1,34.59-3.89,134.38,134.38,0,0,1,26.13,2.5,14,14,0,0,0,16.71-13l2.64-50.15a14,14,0,0,0-10.34-14.25c-8.64-2.33-20.61-3.61-33.7-3.61Z" transform="translate(-196.48 -94.02)"/><path class="cls-5" d="M819.18,660.83q-20.63-10.11-32.07-28.34t-11.44-41.65V483.58h60.15V590.84q0,16,7.72,24t22.62,8q14.9,0,22.62-8.12t7.72-23.82V483.58h60.15V590.84q0,23.42-11.44,41.65t-32.07,28.34q-20.63,10.11-47,10.11T819.18,660.83Z" transform="translate(-196.48 -94.02)"/><path class="cls-4" d="M956.65,483.58V590.84q0,23.42-11.44,41.65t-32.07,28.34q-20.63,10.11-47,10.11t-47-10.11q-20.63-10.11-32.07-28.34t-11.44-41.65V483.58h60.15V590.84q0,16,7.72,24t22.62,8q14.9,0,22.62-8.12t7.72-23.82V483.58h60.15m14-14H882.5V590.84c0,4.61-.67,10.81-3.86,14.17-2.37,2.5-6.57,3.76-12.48,3.76s-10.17-1.25-12.55-3.71c-3.13-3.24-3.79-9.52-3.79-14.22V469.58H761.67V590.84c0,18.22,4.57,34.74,13.59,49.1S797,665.53,813,673.4c15.62,7.66,33.5,11.54,53.14,11.54s37.51-3.88,53.14-11.54c16.06-7.88,28.77-19.14,37.77-33.47s13.59-30.88,13.59-49.1V469.58Z" transform="translate(-196.48 -94.02)"/><path class="cls-5" d="M1053.79,624.64l-6.65-27.41h-12.51v69.46H976.34V483.58H1057q22.89,0,40.32,6.79t27,19a44.5,44.5,0,0,1,9.58,28.21q0,17.83-8.65,29.94t-26.75,19.83a187.76,187.76,0,0,0,4.26,18.36q3.19,10.12,8.78,14.11t16.23,4a98.81,98.81,0,0,0,11.71-1.06v43.38a68.2,68.2,0,0,1-24.48,4.79Q1065,670.95,1053.79,624.64Zm-9-64.67q19.69,0,27.81-4.39t8.12-15q0-9-6.65-13.17t-21-4.12h-18.36V560Z" transform="translate(-196.48 -94.02)"/><path class="cls-4" d="M1057,483.58q22.89,0,40.32,6.79t27,19a44.5,44.5,0,0,1,9.58,28.21q0,17.83-8.65,29.94t-26.75,19.83a187.76,187.76,0,0,0,4.26,18.36q3.19,10.12,8.78,14.11t16.23,4a98.81,98.81,0,0,0,11.71-1.06v43.38a68.2,68.2,0,0,1-24.48,4.79q-50,0-61.21-46.31l-6.65-27.41h-12.51v69.46H976.34V483.58H1057M1034.62,560h10.11q19.69,0,27.81-4.39t8.12-15q0-9-6.65-13.17t-21-4.12h-18.36V560M1057,469.58H962.34V680.69h86.29V650.06a65.07,65.07,0,0,0,17.61,20.47c12.64,9.56,29,14.41,48.77,14.41a82.44,82.44,0,0,0,29.49-5.72l9-3.44v-69l-15.85,2.12a83.56,83.56,0,0,1-9.86.94c-6,0-7.9-1.24-8.1-1.38s-1.78-1.32-3.52-6.78q-.9-3.12-1.73-6.58c9.38-5.36,16.83-11.87,22.22-19.41,7.47-10.46,11.26-23.27,11.26-38.08a58.38,58.38,0,0,0-12.56-36.84c-7.93-10.13-19-18-33-23.45-13.2-5.14-28.47-7.74-45.4-7.74Zm-8.36,67.66H1053c9.44,0,12.81,1.54,13.56,2a6.19,6.19,0,0,1,.11,1.33,5.76,5.76,0,0,1-.36,2.45h0a2.08,2.08,0,0,1-.42.28c-1.06.57-5.28,2.33-17.26,2.65v-8.68Z" transform="translate(-196.48 -94.02)"/><path class="cls-5" d="M1203.4,658.7a87.74,87.74,0,0,1-34.6-33.93q-12.37-21.69-12.38-49.37,0-27.94,12.38-49.77a86.66,86.66,0,0,1,34.6-33.93q22.22-12.11,51-12.11t51,12.11a86.93,86.93,0,0,1,34.6,33.8q12.38,21.69,12.38,49.9,0,27.68-12.37,49.37a87.53,87.53,0,0,1-34.73,33.93q-22.36,12.24-50.83,12.24Q1225.62,670.95,1203.4,658.7Zm78.51-49.24q10.78-13,10.78-34.33a61.2,61.2,0,0,0-4.92-25.15,41.36,41.36,0,0,0-13.71-17.3,33.58,33.58,0,0,0-20-6.25,33.16,33.16,0,0,0-19.69,6.25,40.39,40.39,0,0,0-13.57,17.3,62.64,62.64,0,0,0-4.79,25.15q0,21.3,10.65,34.33t27.68,13Q1271.13,622.51,1281.91,609.47Z" transform="translate(-196.48 -94.02)"/><path class="cls-4" d="M1254.36,479.59q28.74,0,51,12.11a86.93,86.93,0,0,1,34.6,33.8q12.38,21.69,12.38,49.9,0,27.68-12.37,49.37a87.53,87.53,0,0,1-34.73,33.93q-22.36,12.24-50.83,12.24-28.74,0-51-12.24a87.74,87.74,0,0,1-34.6-33.93q-12.37-21.69-12.38-49.37,0-27.94,12.38-49.77a86.66,86.66,0,0,1,34.6-33.93q22.22-12.11,51-12.11m0,142.92q16.77,0,27.55-13t10.78-34.33a61.2,61.2,0,0,0-4.92-25.15,41.36,41.36,0,0,0-13.71-17.3,33.58,33.58,0,0,0-20-6.25,33.16,33.16,0,0,0-19.69,6.25,40.39,40.39,0,0,0-13.57,17.3,62.64,62.64,0,0,0-4.79,25.15q0,21.3,10.65,34.33t27.68,13m0-156.92c-21.44,0-40.84,4.65-57.66,13.82a100.85,100.85,0,0,0-40.08,39.32c-9.42,16.62-14.2,35.68-14.2,56.68,0,20.83,4.78,39.78,14.22,56.31a101.94,101.94,0,0,0,40,39.26c16.84,9.28,36.26,14,57.72,14,21.27,0,40.63-4.7,57.56-14a101.72,101.72,0,0,0,40.17-39.28c9.43-16.53,14.21-35.48,14.21-56.31,0-21.18-4.78-40.3-14.21-56.84A101.12,101.12,0,0,0,1312,479.41c-16.83-9.17-36.23-13.82-57.67-13.82Zm0,142.92c-7.19,0-12.38-2.43-16.83-7.89-5-6.17-7.49-14.51-7.49-25.48a49.11,49.11,0,0,1,3.63-19.58,26.45,26.45,0,0,1,8.85-11.47,19.06,19.06,0,0,1,11.57-3.66,19.74,19.74,0,0,1,11.84,3.66,27.41,27.41,0,0,1,9,11.6,47.65,47.65,0,0,1,3.71,19.44c0,10.94-2.48,19.25-7.57,25.41-4.55,5.51-9.72,8-16.76,8Z" transform="translate(-196.48 -94.02)"/></g><path class="cls-7" d="M1225.83,237.89c-2.65,36.39-8,41.41-42.71,44.21,34.69,2.8,40.06,7.82,42.71,44.21,2.65-36.39,8-41.41,42.71-44.21C1233.85,279.3,1228.48,274.28,1225.83,237.89Z" transform="translate(-196.48 -94.02)"/><path class="cls-7" d="M1304,311.67c-13,17.24-17.29,18-35.45,8.26,16.35,12.54,17.41,16.76,7,35.71,13-17.24,17.29-18,35.45-8.26C1294.67,334.84,1293.61,330.62,1304,311.67Z" transform="translate(-196.48 -94.02)"/><path class="cls-8" d="M492.79,1057.39s98.36,175.41,331.15,178.69C823.94,1236.08,623.94,1196.74,492.79,1057.39Z" transform="translate(-196.48 -94.02)"/></svg>