<svg id="Layer_1" data-name="Layer 1" xmlns="http://www.w3.org/2000/svg" xmlns:xlink="http://www.w3.org/1999/xlink" viewBox="0 0 1508.25 1183.41"><defs><style>.cls-1{fill:none;}.cls-2{fill:#fff;}.cls-3{clip-path:url(#clip-path);}.cls-4{fill:#2f9637;}.cls-5{clip-path:url(#clip-path-2);}.cls-6{opacity:0.64;isolation:isolate;fill:url(#radial-gradient);}.cls-7{fill:#333;filter:url(#AI_GaussianBlur_7);}</style><clipPath id="clip-path" transform="translate(-94.87 -105.56)"><path class="cls-1" d="M887.55,1293.33a626.86,626.86,0,0,1-157.95-21A590.54,590.54,0,0,1,655.93,1247c-11.62-5.05-27-12.07-38.35-17.82a434.64,434.64,0,0,1-40.5-22.62c-11.62-7.64-26.22-16.81-37-24.58s-26-19.59-36.71-28.62A591.93,591.93,0,0,1,310.4,844.76a495.89,495.89,0,0,1-13.27-71.27,608.61,608.61,0,0,1-4-97.93c1.2-30.07,2.15-42,11.56-95.21a599.32,599.32,0,0,1,44.6-133.62c6.32-12.19,14.34-28.68,21.17-40.62S387.48,377.74,395.7,366a583.15,583.15,0,0,1,58.63-73,730.73,730.73,0,0,1,66.09-60.4,591.23,591.23,0,0,1,77.77-52.38,598.63,598.63,0,0,1,78.91-36.77c10.68-4,25.27-9,35.95-12.26,21.17-6.32,27.55-7.77,44.67-11.75C764,118,781,114.28,806.3,110.8c22.18-2.91,45.55-4.3,45.55-4.23h5.37c2.91,0,13.46-.69,28.37-.76,4.36,0,13.58,0,26.72.76a709,709,0,0,1,97.8,12.26,544.35,544.35,0,0,1,85.8,24.64,596.1,596.1,0,0,1,223.47,149.36c9.54,10.17,21.8,24.2,30.52,35.06s19,25.27,27.17,36.58a579.73,579.73,0,0,1,46.25,80.24c14.47,30.45,14.47,30.45,33.49,87.69A456.42,456.42,0,0,1,1468.42,579c2.91,14.09,5.43,33.11,7.77,47.32a463.8,463.8,0,0,1,4,48.52,593.89,593.89,0,0,1-224,490.21,610.31,610.31,0,0,1-72.15,49.15c-15.1,8.59-35.82,19-51.49,26.47-10.49,5-25.27,10.42-35.82,14.91,215.13-81.19,362.65-300.1,351.85-557.05C1434.68,372.94,1172.17,109.6,862,110.3c310.15-.69,572.59,262.7,586.3,588.2,10.8,257-136.66,475.87-351.85,557.05-10.68,3.92-25.27,9.16-35.95,12.26-8.34,2.34-19.33,5.69-27.74,7.71s-22.68,5.5-33.8,7.52-30.07,5.5-54.14,7.83C931.14,1291.94,910.29,1293.33,887.55,1293.33Z"/></clipPath><clipPath id="clip-path-2" transform="translate(-94.87 -105.56)"><path class="cls-1" d="M1096.17,1255.42c-7.9,2.78-18.32,6.82-26.35,9.22s-18.26,5.69-26.16,7.83-18.45,4.86-26.41,6.32c-18.39,3.92-27.61,5.88-50.1,9-17.88,2.53-38.67,4.11-45.81,4.42l-16.24.76H893.68c-9.67,0-12.64,0-25.27-.32-2,0-20.66-.63-47.45-3.54-25.27-2.72-43.09-6.32-52.63-7.9-12.64-2.4-29.44-6.95-42-10.11a446,446,0,0,1-61.73-21c-11.62-5.05-27.29-11.5-38.6-17.18a507,507,0,0,1-45.87-25.27,603.81,603.81,0,0,1-75.82-54,781.6,781.6,0,0,1-64.57-63.18,587.19,587.19,0,0,1-55.85-74.49c-7.58-11.94-17.06-28.3-23.63-40.81s-13.84-29.44-20.15-42.08a599.51,599.51,0,0,1-40.18-136.85,688.22,688.22,0,0,1-7.58-73.16c-.32-14.59-.63-34.12,0-48.71s1.9-34,3.85-48.46a727.26,727.26,0,0,1,19-92.18,581.25,581.25,0,0,1,33.23-86.93,752.65,752.65,0,0,1,45.3-79.16A597.36,597.36,0,0,1,517.57,233.94c10.93-8.72,26-19.65,37.91-27.48s25.78-16.11,36.9-22.87,27.86-15.23,40.5-21.17c10.42-5,24.64-11,35.38-15.35a591.3,591.3,0,0,1,153.4-37.91c19.65-2.15,35.19-2.84,40.94-3.1,22-.82,31.59-.44,43.28,0,21,.76,44.23,3.41,51.93,4.3,17.69,2,32.92,4.74,44.23,6.7,3.92.69,18.07,3.35,37.09,8.28,10.68,2.78,24.77,7.2,35.32,10.55a461.58,461.58,0,0,1,56.17,21.92c11.62,5.62,27.29,12.64,38.67,19a488.18,488.18,0,0,1,43.66,26.09c10.93,7.77,25.78,17.69,36.39,25.9s26.16,21.1,36.83,30.83A595.72,595.72,0,0,1,1401.51,402.5a570.89,570.89,0,0,1,39.8,84.34c9.54,26.54,19.65,62.86,26.54,90.22,3.54,14.15,5.62,33.61,8,48A459,459,0,0,1,1480,674.3c.63,14.59.51,34.12,0,48.71a774.43,774.43,0,0,1-9.54,85.29c-2.15,13.9-7.2,32-10.42,45.74a591.61,591.61,0,0,1-75.82,169.7c-15.73,22.18-37.91,51-55.22,71.83a426,426,0,0,1-32.35,33.36c-10.42,9.79-24.39,22.87-35.82,31.59-20.85,15.79-49.47,35.95-71.65,49.91a445.54,445.54,0,0,1-40.06,21.73c-15.54,7.46-36.71,16.55-52.75,22.87a525.84,525.84,0,0,1-184.93,33.67A525.84,525.84,0,0,0,1096.17,1255.42Z"/></clipPath><radialGradient id="radial-gradient" cx="738.16" cy="1145.88" r="954.2" gradientTransform="translate(-156.21 -755.01) scale(1.01 0.99)" gradientUnits="userSpaceOnUse"><stop offset="0.41" stop-color="#161412" stop-opacity="0"/><stop offset="0.86" stop-color="#161412" stop-opacity="0.68"/><stop offset="1" stop-color="#161412" stop-opacity="0.95"/></radialGradient><filter id="AI_GaussianBlur_7" name="AI_GaussianBlur_7"><feGaussianBlur stdDeviation="12"/></filter></defs><title>la_primitiva_Logo</title><g id="Layer_1-2" data-name="Layer 1-2"><ellipse class="cls-2" cx="789.96" cy="588.01" rx="594.58" ry="585.17"/><g class="cls-3"><path class="cls-4" d="M1290.7,264.27l-5-4.61c-45.36-37.91-46.25-38.86-73.22-56.86-47.83-29-50.54-30.71-82.13-45.24-14.47-5.94-33.74-14-48.4-19l-5.18-2.08a605.38,605.38,0,0,1,214.18,127.62" transform="translate(-94.87 -105.56)"/><path class="cls-4" d="M1004.56,117.56a713.93,713.93,0,0,0-88.45-11.06A223.34,223.34,0,0,0,861.9,110c62-8.34,125,3.66,142.85,7.52" transform="translate(-94.87 -105.56)"/><path class="cls-4" d="M296.69,627.3c-5.05,63.18-5.18,64.13-3.79,97.17,4.93,60,5.69,69.18,17.25,120,17.63,60.21,17.63,60.21,30.14,89.34l14,30.26c23.5,42.33,23.5,42.33,38.79,63.18C363.1,974,338.71,925.44,321,828.46c-32.73-179.56-17.63-244.88-12.51-266.3-3.85,19.52-9.54,45.55-11.69,65.39" transform="translate(-94.87 -105.56)"/><path class="cls-4" d="M878.89,105.56H862.47l-10.61.88-11.12.76h-3.92c16.87,0,18.64,0,25.27,2.4,13.52-4,13.77-4,17-4" transform="translate(-94.87 -105.56)"/><path class="cls-4" d="M1446.18,896.31a514.85,514.85,0,0,1-30.45,73.1l12.64-26.47c5.56-13.77,13.46-32,18.45-46.06,3-10.42,7.2-24.32,9.29-34.94-3,10.3-6.7,24.2-10,34.37" transform="translate(-94.87 -105.56)"/><path class="cls-4" d="M1480.49,708.8l-.44-34.24c-5.31-64.63-5.31-64.63-11.94-96.54-15.29-61.16-15.29-61.16-26.66-91-24.39-56.86-24.39-56.86-40.12-84.15h0c-20.66-31.59-21.42-32.79-37.4-50.54a640.45,640.45,0,0,1,80.81,166.54c2.78,8.47,34.56,126.36,35.76,189.92" transform="translate(-94.87 -105.56)"/><path class="cls-4" d="M800.87,111.88l-3.79.57c-15,2.4-15.29,2.46-23.25,4-21.35,4.42-22.62,4.68-35.06,7.83a610.56,610.56,0,0,0-62,19.21c-45.55,19-49.28,20.47-78.6,36.39-48,29-50.54,30.77-78.22,51.93-45.24,38.35-46.12,39-68.23,62.67-11.63,13.46-27.23,31.21-37.91,45.24-37.21,53.2-62.42,94.39-74.93,180C465.7,124,796.63,109,861.71,110a243.18,243.18,0,0,0-60.84,1.71" transform="translate(-94.87 -105.56)"/></g><g class="cls-5"><path class="cls-4" d="M898.23,1288C378,1240.64,746.6,837.43,1016.12,543c136.28-148.66,290.63-317.41,65.58-404.35,14.59,5.62,34.05,13.08,48.4,19,50,24.77,53,26.22,82.13,45.24,48.21,34.37,49.15,35,73.22,56.86l5,4.61c135.46,139,71.2,300.86-237.18,597.93C932.09,979,648.35,1252.39,898.1,1288" transform="translate(-94.87 -105.56)"/><path class="cls-4" d="M654.1,1235.52c-243.49-97.3-546.94-353.8,156.62-976.06,104.31-92.12,160.67-145,105.19-152.89a723.47,723.47,0,0,1,88.45,11.06c168.75,48.08,58.76,163.19-80.49,308.95-219.86,230.16-587.57,615.3-270,808.7" transform="translate(-94.87 -105.56)"/><path class="cls-4" d="M354.31,963.92,340.1,933.65c-21.92-57.3-22.37-58.38-30.14-89.34-11.81-56.86-14-67.1-17.25-120,0-64.89,0-64.89,3.79-97.17,3.41-19.65,7.58-45.93,12-65.39C401.45,240.32,795,111.88,836.56,107.46h3.92l11.37-1.07,10.55-.82h16.43c-5.12,11.31-5.12,11.31-57.18,48.21C631.74,288.46,187,603.92,354.13,963.85" transform="translate(-94.87 -105.56)"/><path class="cls-4" d="M1403.66,991.33c-113,194.09-330.3,269-492.8,297.64,4.36-1.39,443.14-156.37,535.7-392.09-5.5,13.84-12.64,32.47-18.45,46.06l-12.64,26.47c-3.6,6.32-8.15,15.48-11.94,21.92" transform="translate(-94.87 -105.56)"/><path class="cls-4" d="M911.24,1289c-108.73-26.6,9.41-146.83,153.34-272.81,200.72-175.7,450.66-394.3,336.56-613.66h0c28.24,53.64,28.81,54.71,40.12,84.15,19.71,58.38,20.09,59.51,26.66,91,10.36,62.29,10.55,63.5,11.94,96.54l.44,34.24c-13.46,179-160,304.78-462.47,502.28-55.22,36.08-98.81,64.51-106.65,78" transform="translate(-94.87 -105.56)"/><path class="cls-4" d="M413.64,340c11.31-13.71,26.22-32.1,37.91-45.24,42.08-41.89,42.84-42.65,68.23-62.67,45.43-33,48.14-35,78.22-51.93,44.23-22.62,47.7-24.45,78.6-36.39a600.77,600.77,0,0,1,62-19.59c22.74-5.43,22.74-5.43,35.06-7.83,15.42-2.78,15.42-2.78,23.25-4l3.79-.44C650.25,139.17,501.84,226.61,413.45,340" transform="translate(-94.87 -105.56)"/></g><ellipse class="cls-6" cx="789.96" cy="588.01" rx="594.58" ry="585.17"/><path class="cls-7" d="M1001.33,797.73H986.68c-8.28,0-16.55,0-24.83-.32a1.77,1.77,0,0,1-2.08-2.15q0-40.5.38-80.93c.38-40.43,0-.38,0-.57,0-13.84.44-27.67,0-41.51a84.16,84.16,0,0,0-3.66-27.1,33.55,33.55,0,0,0-4.61-9,16,16,0,0,0-20.47-3.29,21.35,21.35,0,0,0-9.6,11.12,68.93,68.93,0,0,0-5.31,20.85c-.76,7.27-1.26,14.59-1.52,21.92-.32,10.11-.32,20.22-.38,30.39v76.89a4.93,4.93,0,0,1,0,1.83,1.77,1.77,0,0,1-1.26.95H875.42c-2.34,0-2.34,0-2.15-2.34V668.72a75.82,75.82,0,0,0-4.42-27.55,16,16,0,0,0-11.37-11.37,17.75,17.75,0,0,0-19,7.2,41.76,41.76,0,0,0-7.46,19c-1.2,7.83-2,15.73-2.65,23.63-.44,4.93-.38,9.86-.44,14.78q0,49.85-.32,99.7v2.4H789.75a6.76,6.76,0,0,0-1.64,0c-1.58.38-1.83-.44-1.77-1.71V586.27h1.33l28.49-.32a2,2,0,0,1,2.46,2c1.45,7.77,3.1,15.54,4.68,23.31a5.31,5.31,0,0,0,.51,1.77c.51.82,1.52.32,2.15-.88A120,120,0,0,1,833.53,599a37.91,37.91,0,0,1,28.3-16.11,43.15,43.15,0,0,1,35.89,12,48.4,48.4,0,0,1,11,17.75,2.21,2.21,0,0,0,2.15,2.08,2.27,2.27,0,0,0,2.27-2,46.69,46.69,0,0,1,18-21.73,38.54,38.54,0,0,1,17.56-5.69,45.36,45.36,0,0,1,30.2,7.58,47.19,47.19,0,0,1,17.56,25.27,109.17,109.17,0,0,1,4.61,21.8,429.25,429.25,0,0,1,1.07,45.68V705q0,27.61-.32,55.22v32.22A33.68,33.68,0,0,1,1001.33,797.73ZM1304.6,621.84q8.91,33.74,17.88,67.41,11.81,44.23,23.88,87.95c2.72,10,5.5,19.9,8.21,29.88a1.71,1.71,0,0,0,1.64,1.77h0l20,1.07c6.32,0,12.64.38,19,.88a2.21,2.21,0,0,0,2.78-2c5.81-18.57,11.56-37.15,17.5-55.66q17.06-52.88,34.37-105.7c.51-1.58.95-3.16,1.52-5l-10.3-1.9-28.49-4.42c-3.79-.69-3.79-.76-4.74,2.91-8.09,31.15-16.3,62.29-24.32,93.51-2.15,8.53-3.73,17.18-5.37,25.78-.69,3.41-.88,6.95-1.26,9.79-.69-5.62-1.07-12-2.34-18.2-2.91-14.66-6.32-29.25-9.35-43.78q-5.56-25.27-11.31-50.54c-2.08-9.35-4.17-19-6.32-28.05a2.59,2.59,0,0,0-1.45-1.77c-3.47-.63-7-1.07-10.55-1.58L1316,621.4l-11.81-1.58a12.64,12.64,0,0,1,.63,2.21h0ZM433.42,802.6l28.49-.76c3.29,0,3.22,0,3.22-3.16q0-25.27-.38-51.11V709.66c0-.95,0-1.71,1.26-1.77a39.42,39.42,0,0,0,5.69-.38c5.43-.57,10.93-.82,16.3-1.9a67.16,67.16,0,0,0,51.93-43.4A123.2,123.2,0,0,0,547.64,618a176.07,176.07,0,0,0-1-18.07,88.89,88.89,0,0,0-6-25.78,51,51,0,0,0-29.57-30.33,76.19,76.19,0,0,0-35.7-3.47c-8.78.82-17.56,2.08-26.35,3.22s-16.68,2.27-25.27,3.16a2.4,2.4,0,0,0-2.59,3.1c0,12.64,0,25,.38,37.4s0,26.66.38,40,0,28.37.38,42.58q0,19,.38,38.35,0,20.66.38,41.32,0,25.65.38,51.3v2C426.91,802.91,430.19,802.72,433.42,802.6Zm30.52-173.3c0-12.64,0-25.65-.38-38.48a2.08,2.08,0,0,1,2.46-2.59c4.74,0,9.41-.95,14.15-.95a23.82,23.82,0,0,1,14.09,4.23,24.13,24.13,0,0,1,9.22,15.29,65.83,65.83,0,0,1-.63,32.28,28.3,28.3,0,0,1-22.56,20.79,115.62,115.62,0,0,1-11.69,1.39h-.95c-3.66,0-3.66,0-3.66-3.41V644.33h0C463.93,639.47,464,634.35,463.93,629.3ZM1210.84,758a48.08,48.08,0,0,1-20.47,4.17,13.9,13.9,0,0,1-7.46-2.46,18.57,18.57,0,0,1-7.2-15.92V693.61q0-21.86.38-43.72v-3.54a1.52,1.52,0,0,1,2-1.77l5.69.63,27,2.34c1.33,0,1.64-.32,1.64-1.45q0-18.32.38-36.64a1.71,1.71,0,0,0-1.39-2h-.57a111.76,111.76,0,0,1-11.18-1.14l-20.28-1.77c-2.4,0-2.59-.32-2.59-2.72,0-12.64,0-25.27.38-37.59,0-1.64-.32-2.4-2.15-2.34a32.73,32.73,0,0,1-4.42-.44l-18.32-2.15a2,2,0,0,0-2.59,1.83q-5.5,19-11.12,37.53a5.69,5.69,0,0,1-2,2.72c-6.32,4.8-12.64,9.54-19.33,14.28a3,3,0,0,0-1.26,1.83c0,6.95,0,14-.38,20.91a1.39,1.39,0,0,0,1,1.7h.59c3.35,0,6.32.44,9.92.69l6.32.63a1.26,1.26,0,0,1,1.26,1.58v6.32q0,25.9-.38,51.87v16.11A376.72,376.72,0,0,0,1135,757a85.67,85.67,0,0,0,5.69,23.19,38.35,38.35,0,0,0,35.57,25.27,91.92,91.92,0,0,0,17.12-.76,46.69,46.69,0,0,0,17.69-6.32,3.35,3.35,0,0,0,1.58-2.15c0-3.66.32-7.39.38-11.06V757.3ZM583,596q0,26.09.38,52.25,0,29.76.38,59.45,0,36.2.38,72.4v14.47c0,4.8,0,4.11,4,3.92h.44l29.06-.38h5.56c2.4,0,2.4,0,2.4-2.53,0-20.15-.32-40.25-.32-60.4,0-18.2,0-36.45.44-54.65a54.59,54.59,0,0,1,4.93-21.61,33.8,33.8,0,0,1,36.2-19.59,87.64,87.64,0,0,1,9.22.95V588.36a1.77,1.77,0,0,0-1.2-2.08h0a53.39,53.39,0,0,0-17.18-.63,36.33,36.33,0,0,0-23.12,14.09A92.81,92.81,0,0,0,623,620.64a6.7,6.7,0,0,1-1.45,1.58,7,7,0,0,1-.95-1.77Q617.71,606.74,615,593a1.52,1.52,0,0,0-1.52-1H607.6l-15.86.82c-2.72,0-5.5.44-8.4.69A9.86,9.86,0,0,0,583,596Zm161.42,62.61v-68c0-4,0-4-3.92-3.73H740l-15.92.38-19,.38c-2.53,0-2.59,0-2.53,2.53,0,21.54,0,43.09.38,64.63V795.14a1.64,1.64,0,0,0,2,2l18.32-.38h17.94c3.47,0,3.22.44,3.22-3.16,0-22.74,0-45.43-.32-68.17s0-44.23,0-66.72h0Zm301.24-54q0,30.64-.38,61.28,0,29.44-.38,58.88c0,23.94,0,47.89-.44,71.9a2,2,0,0,0,2.4,2.46h7.77l29.38.69c1.07,0,1.9,0,1.9-1.45v-12q0-25.9.38-51.87t.38-52.75q0-25.9.38-51.87V595.94L1045.43,593C1045.69,597.14,1045.69,600.68,1045.69,604.59Zm197.5,8.66c0,6.32,0,12.64-.32,19.4q0,19-.38,38.48t-.38,39.61q0,19-.38,38.48,0,26.41-.44,52.75c0,2.46,0,2.59,2.59,2.65l10.36.38,16.3.44a77.84,77.84,0,0,1,10.17.44c1.83,0,2.08-.38,2.08-1.9V781.5q0-20.09.38-40.18,0-17.94.38-35.89,0-20.09.38-40.18V650q0-15.73.38-31.59a1.71,1.71,0,0,0-1.11-2.14h-.47l-15.35-1.9-16.62-2.08-7.71-.82a3.16,3.16,0,0,1,0,1.45h0Zm-498.3-91.74a21.23,21.23,0,0,0-9.16-15,23.38,23.38,0,0,0-15.48-2.65,19.59,19.59,0,0,0-17.5,13.84,49.15,49.15,0,0,0-1.2,26.22,20.34,20.34,0,0,0,8.78,14.22,23.31,23.31,0,0,0,15.86,2.84,19.65,19.65,0,0,0,16.93-13.2A43,43,0,0,0,746,531.62C745.65,528.78,745.52,524.86,744.89,521.51Zm300,25.65a27,27,0,0,0,6.7,15.73,23.5,23.5,0,0,0,18.07,6.32,17.31,17.31,0,0,0,17.75-12.64,43.59,43.59,0,0,0,0-29.32A20.09,20.09,0,0,0,1077,515.19a28.94,28.94,0,0,0-15.54-2.4,16.17,16.17,0,0,0-13.9,10.17,40.06,40.06,0,0,0-3,16.43A73.72,73.72,0,0,0,1044.93,547.16Zm198,23.69a22.3,22.3,0,0,0,14.15,17.63,32.41,32.41,0,0,0,12.13,2.08,15.61,15.61,0,0,0,15.48-10.49,38.29,38.29,0,0,0,0-27.1,21.73,21.73,0,0,0-15-14.15,37,37,0,0,0-7.39-1.52A15.86,15.86,0,0,0,1243.94,548a38.79,38.79,0,0,0-2.15,13.08A95.57,95.57,0,0,0,1242.93,570.86ZM307.12,789.39a187.26,187.26,0,0,0,11-15.29L319.5,772c0,1.07.63,1.52.76,2l5.88,17.69a10.49,10.49,0,0,0,2,5,10.8,10.8,0,0,0,5.37,0h0l21-.76a1.83,1.83,0,0,0,2.21-2.21c0-11.88,0-23.69-.38-35.57s0-25.27-.38-38.35,0-25.27-.38-37.91c0-5.94,0-11.81-.38-17.75a72,72,0,0,0-4.49-22.3,37.91,37.91,0,0,0-28.05-25.27c-9.54-2,14.85-3.22,5.37-.95M1470.69,761.4c0,22.56-2.91,40.81-6.32,40.81s-6.32-18.26-6.32-40.81,2.91-40.81,6.32-40.81,6.32,18.2,6.32,40.75Z" transform="translate(-94.87 -105.56)"/><path class="cls-2" d="M1024.23,737.35h-14c-7.89,0-15.77,0-23.66-.3a1.69,1.69,0,0,1-2-2q0-38.58.36-77.11c.36-38.52,0-.36,0-.54,0-13.18.42-26.36,0-39.55a80.18,80.18,0,0,0-3-26.06,32,32,0,0,0-4.39-8.55,15.29,15.29,0,0,0-19.5-3.13,20.34,20.34,0,0,0-9.15,10.59,65.67,65.67,0,0,0-5.06,19.86c-.72,6.92-1.2,13.9-1.44,20.89C942,641,942,650.49,942,660.18v73.25a4.7,4.7,0,0,1,0,1.75,1.69,1.69,0,0,1-1.2.9H904.69c-2.23,0-2.23,0-2-2.23V614a72.23,72.23,0,0,0-4.21-26.24,15.29,15.29,0,0,0-10.83-10.83,16.91,16.91,0,0,0-18.06,6.86,39.79,39.79,0,0,0-7.1,18.06c-1.14,7.46-1.87,15-2.53,22.51-.42,4.7-.36,9.39-.42,14.09q0,47.49-.3,95v2.29H823.06a6.44,6.44,0,0,0-1.57,0c-1.5.36-1.75-.42-1.69-1.63V535.46h1.26l27.15-.3a1.93,1.93,0,0,1,2.35,1.87c1.38,7.4,2.95,14.81,4.45,22.21a5.06,5.06,0,0,0,.48,1.69c.48.78,1.44.3,2-.84a114.36,114.36,0,0,1,7.22-12.46,36.12,36.12,0,0,1,27-14.93A41.11,41.11,0,0,1,926,544.13a46.11,46.11,0,0,1,10.29,16.67,2.11,2.11,0,0,0,2,2,2.17,2.17,0,0,0,2.17-1.87,44.48,44.48,0,0,1,17.15-20.71,36.72,36.72,0,0,1,16.73-5.42,43.22,43.22,0,0,1,28.77,7.22,45,45,0,0,1,16.73,24.08,104,104,0,0,1,4.39,20.77,409,409,0,0,1,1,43.52v18.36q0,26.3-.3,52.61V732A35.69,35.69,0,0,0,1024.23,737.35Zm288.93-167.58q8.49,32.14,17,64.23,11.26,42.13,22.75,83.79c2.59,9.51,5.24,19,7.83,28.47a1.63,1.63,0,0,0,1.56,1.69h0l19.08.84c6,0,12,.36,18.06.84a2.11,2.11,0,0,0,2.65-1.87c5.54-17.7,11-35.39,16.67-53Q1435,644.35,1451.54,594c.48-1.5.9-3,1.44-4.76l-9.81-1.81-27.51-4.76c-3.61-.66-3.61-.72-4.51,2.77-7.7,29.68-15.53,59.35-23.17,89.09-2,8.13-3.55,16.37-5.12,24.56-.66,3.25-2.23-2.11-3.37-8-2.77-14-6-27.87-8.91-41.71q-5.3-24.08-10.77-48.15c-2-8.91-4-18.06-6-26.73a2.47,2.47,0,0,0-1.38-1.69c-3.31-.6-6.68-1-10.05-1.5l-18.72-2.53-11.26-1.5a6,6,0,0,1,1,2.47h-.24ZM483.16,742l27.15-.72c3.13,0,3.07,0,3.07-3q0-24.08-.36-48.7V653.5c0-.9,0-1.63,1.2-1.69a37.56,37.56,0,0,0,5.42-.36c5.18-.54,10.41-.78,15.53-1.81a64,64,0,0,0,49.48-41.35A117.38,117.38,0,0,0,592,566.16a167.75,167.75,0,0,0-1-17.22,84.69,84.69,0,0,0-5.72-24.56,48.64,48.64,0,0,0-28.17-28.89,72.59,72.59,0,0,0-34-3.31c-8.37.78-16.73,2-25.1,3.07s-15.89,2.17-24.08,3a2.29,2.29,0,0,0-2.47,2.95c0,12,0,23.78.36,35.63s0,25.4.36,38.1,0,27,.36,40.57q0,18.06.36,36.54,0,19.68.36,39.37,0,24.44.36,48.88v1.93C477,742,480.09,742,483.16,742Zm58-201.1a23,23,0,0,1,8.79,14.51,62.72,62.72,0,0,1-.6,30.76A27,27,0,0,1,527.82,606a110.15,110.15,0,0,1-11.14,1.5h-.9c-3.49,0-3.49,0-3.49-3.25V591.38h0V576.69s0-38.36,1-38.86C528.87,529.81,541.12,540.94,541.12,540.94Zm682.71,158.61a45.81,45.81,0,0,1-19.5,4,13.24,13.24,0,0,1-7.1-2.29,17.7,17.7,0,0,1-6.86-15.17V638.21q0-20.83.36-41.65v-3.67a1.44,1.44,0,0,1,1.87-1.69l5.42.6,25.76,2.23c1.26,0,1.56-.3,1.56-1.38q0-17.46.36-34.91a1.63,1.63,0,0,0-1.32-1.87h-.54a106.47,106.47,0,0,1-10.65-1.08l-19.56-2c-2.29,0-2.47-.3-2.47-2.59,0-12,0-24.08.36-35.81,0-1.57-.3-2.29-2-2.23a31.18,31.18,0,0,1-4.21-.42l-17.46-2a1.93,1.93,0,0,0-2.47,1.75q-5.24,18.06-10.59,35.75a5.42,5.42,0,0,1-1.87,2.59c-6,4.57-12,9.09-18.42,13.6a2.83,2.83,0,0,0-1.2,1.75c0,6.62,0,13.3-.36,19.92a1.32,1.32,0,0,0,.94,1.62h.81c3.19,0,6,.42,9.45.66l6,.6a1.2,1.2,0,0,1,1.2,1.5v6q0,24.68-.36,49.42v15.35a358.91,358.91,0,0,0,.66,37.74A81.62,81.62,0,0,0,1157,720a36.54,36.54,0,0,0,33.89,24.08,87.58,87.58,0,0,0,16-.72,44.48,44.48,0,0,0,16.85-6,3.19,3.19,0,0,0,1.5-2c0-3.49.3-7,.36-10.53V698.52ZM327.62,725.79l5.6,16.85a10,10,0,0,0,1.87,4.76,10.29,10.29,0,0,0,5.12,0h0l20-.72a1.75,1.75,0,0,0,2.11-2.11c0-11.32,0-22.57-.36-33.89s0-24.08-.36-36.54,0-24.08-.36-36.12c0-5.66,0-11.26-.36-16.91a68.56,68.56,0,0,0-4.27-21.25,36.12,36.12,0,0,0-26.73-24.08,64,64,0,0,0-27.57.36,107.5,107.5,0,0,0-46.11,22,1.69,1.69,0,0,0-.73,2.27v0h0q6,12.76,11.62,25.46l.72,1.5,1-.6a107.74,107.74,0,0,1,18.84-11.2,45,45,0,0,1,20-4.82,13.06,13.06,0,0,1,13.36,10.83,82.34,82.34,0,0,1,1,19,2.11,2.11,0,0,1-1.44,1.32c-7.58,1.26-15.17,2.29-22.69,3.61a91.07,91.07,0,0,0-29.49,10.11,47.73,47.73,0,0,0-24.62,39.55,125.08,125.08,0,0,0,0,15.47A55.92,55.92,0,0,0,249,733a33.83,33.83,0,0,0,19.74,18.6,45.39,45.39,0,0,0,21.55,1.57,38,38,0,0,0,24.86-12,178.41,178.41,0,0,0,10.47-14.57l1.32-2A7.52,7.52,0,0,1,327.62,725.79Zm-7-27.21A27.09,27.09,0,0,1,308.12,715a20.22,20.22,0,0,1-12.88,2.71,12,12,0,0,1-11.32-11.38,34.13,34.13,0,0,1,1.5-18.54A23.48,23.48,0,0,1,302,673.36c4.82-1.38,9.87-1.93,14.81-2.89l4.21-.66c1.08,0,1.69,0,1.63,1.32v9a54.17,54.17,0,0,1-2.11,18.42h0Zm1195.31-37.32a74.4,74.4,0,0,0-24.86,1.5,33.35,33.35,0,0,0-26.3,25.1,77.23,77.23,0,0,0-2,21.67,64.53,64.53,0,0,0,4.27,23.05A37.62,37.62,0,0,0,1493.67,757a55.8,55.8,0,0,0,18.06,1.26,39.43,39.43,0,0,0,17.58-5.12,53.81,53.81,0,0,0,14.81-14.45,12.46,12.46,0,0,1,1.32-1.32,9.33,9.33,0,0,1,1,1.69q3.19,9,6,18.06a1.87,1.87,0,0,0,1.93,1.57,32.69,32.69,0,0,1,5.42.3l18.6,1.38c1.69,0,2.29,0,2.29-2.17V665.12a101.43,101.43,0,0,0-1.32-15.59,53,53,0,0,0-22.15-36.12,85.29,85.29,0,0,0-48.15-14.93,76.38,76.38,0,0,0-16.61,1.44,138.8,138.8,0,0,0-15.29,4.51,1.2,1.2,0,0,0-1.14,1.87q6,14.45,11.5,29a1.2,1.2,0,0,0,1.38,1h.48l8.67-2.95a51.16,51.16,0,0,1,28.11-.9,18.48,18.48,0,0,1,15,15.23A145.61,145.61,0,0,1,1542,664Zm24.74,27.21a1.32,1.32,0,0,1,1.56,1.44,173,173,0,0,1-1.2,18.9,20.65,20.65,0,0,1-14.69,17.52,21.49,21.49,0,0,1-12.46,0,14.57,14.57,0,0,1-10.89-13.06,35,35,0,0,1,.66-12,17,17,0,0,1,15.65-13.48c1.87,0,3.73-.36,5.48-.48ZM154.56,559.72l-34.31,9.09c-2.89.66-2.89.72-2.89,3.79V756.91a5.6,5.6,0,0,0,0,1.93,1.87,1.87,0,0,0,1.2,1.08H124l18.78-1.32,13.9-.78,25.1-1.69,17-1c8.49-1,16.91-1,25.22-1.63a1.87,1.87,0,0,0,2.23-2.35c0-10.11,0-20.22-.36-30.1v-3.37A1.44,1.44,0,0,0,224,716l-14.33,1.32-13.48,1.14-14,1.32-13.48,1.32-11.32,1-.78-162.52Zm471.13-15q0,24.86.36,49.78,0,28.35.36,56.64,0,34.49.36,69v13.78c0,4.57,0,3.91,3.85,3.73H631l27.69-.36H664c2.29,0,2.29,0,2.29-2.41,0-19.2-.3-38.34-.3-57.54,0-17.34,0-34.73.42-52.07a52,52,0,0,1,4.7-20.35,32.2,32.2,0,0,1,34.49-18.66,83.5,83.5,0,0,1,8.79.9V537.69a1.69,1.69,0,0,0-1.23-2h0a50.86,50.86,0,0,0-16.31-.3,34.61,34.61,0,0,0-22,13.42,88.42,88.42,0,0,0-11.08,20,6.38,6.38,0,0,1-1.38,1.5,6.68,6.68,0,0,1-.9-1.69q-2.71-13.06-5.3-26.18a1.44,1.44,0,0,0-1.44-1.44h-.36l-5.42.36-15.11.78c-2.59,0-5.24.42-8,.66A13.78,13.78,0,0,0,625.69,544.73Zm153.79,59.89V539.85c0-3.79,0-3.79-3.73-3.55h-.54l-15.17.36L742,537c-2.41,0-2.47,0-2.41,2.41,0,20.53,0,41.05.36,61.58V734.7a1.57,1.57,0,0,0,1.87,1.93l17.46-.36h17.09c3.31,0,3.07.42,3.07-3,0-21.67,0-43.28-.3-64.95s0-42.13,0-63.56h0Zm287.3-51.83q0,29.19-.36,58.39,0,28-.36,56.1c0,22.81,0,45.63-.42,68.5a1.93,1.93,0,0,0,2.29,2.35h7.4l28,.66c1,0,1.81,0,1.81-1.38V726q0-24.68.36-49.42t.36-50.26q0-24.68.36-49.42V544.73L1066.54,542c-.06,4.09-.06,7.46-.06,10.83ZM1254.95,561c0,6,0,12-.3,18.48q0,18.06-.36,36.66t-.36,37.74q0,18.06-.36,36.66,0,25.16-.42,50.26c0,2.35,0,2.47,2.47,2.53l9.87.36,15.53.42a74.16,74.16,0,0,1,9.69.42c1.75,0,2-.36,2-1.81V721.64q0-19.14.36-38.28,0-17.09.36-34.19,0-19.14.36-38.28V596.25q0-15,.36-30.1a1.63,1.63,0,0,0-1.06-2h-.75l-14.63-1.81-15.83-2-7.34-.78a4.09,4.09,0,0,1,0,1.57h0Zm-475-87a20.22,20.22,0,0,0-8.73-14.33,22.27,22.27,0,0,0-14.75-2.53,18.66,18.66,0,0,0-16.67,13.18,46.83,46.83,0,0,0-1.14,25,19.38,19.38,0,0,0,8.37,13.3,22.21,22.21,0,0,0,15.11,2.71,18.72,18.72,0,0,0,16.13-12.4,41,41,0,0,0,2.71-15.35C780.63,480.5,780.51,477.19,779.91,474Zm285.86,24.44a25.7,25.7,0,0,0,6.38,14.87,22.39,22.39,0,0,0,17.22,6,16.49,16.49,0,0,0,16.91-12,41.53,41.53,0,0,0,0-27.93,19.14,19.14,0,0,0-10-11.5,27.57,27.57,0,0,0-14.81-2.29,15.41,15.41,0,0,0-13.24,9.69,38.16,38.16,0,0,0-2.89,15.65A70.72,70.72,0,0,0,1065.76,498.44ZM1254.41,521a21.25,21.25,0,0,0,13.48,16.79,30.88,30.88,0,0,0,11.56,2,14.87,14.87,0,0,0,14.75-10,36.48,36.48,0,0,0,0-25.82,20.71,20.71,0,0,0-14.33-13.42,35.27,35.27,0,0,0-7-1.44,15.11,15.11,0,0,0-17.46,10.17,37,37,0,0,0-2,12.46A91.06,91.06,0,0,0,1254.41,521Z" transform="translate(-94.87 -105.56)"/><path class="cls-4" d="M1578.42,782.81l-1.67-.06-20-1.54a7.38,7.38,0,0,0-1.7-.09,23.83,23.83,0,0,1-17.66-6.85,62.29,62.29,0,0,1-24,6.38,78.25,78.25,0,0,1-24.83-1.81,59.81,59.81,0,0,1-42.63-38.61,86.42,86.42,0,0,1-5.61-30.15q-.19-4.52,0-9l-.18.56c-4.31,13.43-8.52,26.93-12.74,40.43l-3.59,11.53a24.77,24.77,0,0,1-27.05,18.31c-6.16-.48-10.93-.69-15.33-.69l-1,0-19.08-.84a24.11,24.11,0,0,1-22.55-19.49l-7.46-27.18q-7.93-28.72-15.77-57.76c-.06,5.86-.09,11.66-.09,17.45-.24,13-.36,25.66-.36,38.29v21.13c0,14-10.26,24.21-24.4,24.21l-2.47-.14a52.3,52.3,0,0,0-6.75-.29h-.54l-26.16-.8c-8.28-.19-15-3.64-19.27-9.37l-.53.32a66,66,0,0,1-25,8.84,112.79,112.79,0,0,1-19.77.94A59.25,59.25,0,0,1,1136.08,728a104.3,104.3,0,0,1-6.78-27.83l-.06-.69a382.13,382.13,0,0,1-.71-39.69v-15c.18-12.07.28-24,.33-35.8l-.56-.13q0,8.71,0,17.38,0,25.69-.36,50.58-.37,24.58-.36,49.1v11.43c0,11.53-8.48,23.79-24.21,23.79l-28.52-.66h-5.88a25.18,25.18,0,0,1-7.1-.63A24.72,24.72,0,0,1,1046,747.49l-.86,12.27h-34.85c-7.57,0-15.39,0-23.28-.27a24.19,24.19,0,0,1-23.68-16.77L962,745.31a24.21,24.21,0,0,1-17.21,12.82l-2,.36H904.69c-2.84,0-11.48,0-18.4-7.5a22.65,22.65,0,0,1-4.7-7.7v14.83H822.9a23.43,23.43,0,0,1-17-5.28,23.05,23.05,0,0,1-6.13-7.91,22.51,22.51,0,0,1-4.83,7A23.79,23.79,0,0,1,777,758.68H759.26l-16.12.34a23.59,23.59,0,0,1-7.52-.66,24,24,0,0,1-18.08-24.73V610.33l-6.58-1a61.88,61.88,0,0,0-6.44-.66l-2.42-.25a9.76,9.76,0,0,0-10.5,5.68,29.68,29.68,0,0,0-2.75,11.75c-.41,17-.41,34.57-.41,51.51,0,9.54.08,19.07.15,28.59s.15,19.29.15,29c0,14.84-9.92,24.81-24.7,24.81h-5.3l-27.83.39c-2.83.2-11.48.82-19-6.16s-7.56-15.8-7.56-20V720.13c-.24-22.84-.36-45.91-.36-69q-.2-15-.29-30.21a86.48,86.48,0,0,1-64.49,50.73q-1.94.38-3.81.65v17.29c.24,16.2.36,32.54.36,48.69,0,3.41,0,12.05-7.53,19.06-6.83,6.36-14.62,6.36-17.95,6.36l-27.15.72c-2.69,0-5.4,0-8.28.15l-23.63,1.29V740.3c-.24-16.07-.36-32.48-.36-48.88-.24-12.84-.36-26.11-.36-39.37-.24-12-.36-24.35-.36-36.54-.18-6.37-.18-13.54-.18-20.6,0-6.64,0-13.18-.18-19.33-.18-6.56-.19-13.34-.19-20,0-6.22,0-12.34-.17-18.05-.35-11.67-.37-22.89-.37-34.69a24.71,24.71,0,0,1,9.42-21.79,24.48,24.48,0,0,1,14.39-5.21c5.4-.58,10.52-1.26,15.85-2l11.89-1.57c6.64-.88,13.27-1.76,19.91-2.39a95.81,95.81,0,0,1,44,4.41l.74.28a71,71,0,0,1,41,41.84c.71,1.79,1.36,3.59,2,5.41l17.72-1.59c2-.22,4.46-.49,7.19-.53l21.21-1.15a24.37,24.37,0,0,1,14.62,4.8,56.64,56.64,0,0,1,24.2-10.15,74.08,74.08,0,0,1,21.87,0h.89l2.66.66a24.44,24.44,0,0,1,4.24,1.48,41.67,41.67,0,0,1-6.23-15.88,69.22,69.22,0,0,1,1.87-36.14,41.09,41.09,0,0,1,35.3-28.48,44.77,44.77,0,0,1,28.4,5.26l1.61,1a42.61,42.61,0,0,1,18.29,29.42c.56,3.19.79,6.14,1,8.54l.29,4.11a63.11,63.11,0,0,1-4.18,23.74,39.27,39.27,0,0,1-6.63,11.73q.92.71,1.82,1.55a23.38,23.38,0,0,1,3.07,3.49V513.05l49.47-.29a24.29,24.29,0,0,1,14.78,3.71,25.25,25.25,0,0,1,2.59,1.89,58.41,58.41,0,0,1,25.38-8A63.08,63.08,0,0,1,939.3,525.9a67.44,67.44,0,0,1,6.25-4.53,59.63,59.63,0,0,1,26.87-8.89,65.77,65.77,0,0,1,43.33,11l.64.45a67.68,67.68,0,0,1,25,35.67q1.58,4.95,2.74,10V552.8c0-3.47,0-6.93.06-11.14l.33-23.69,4.14.29a48.27,48.27,0,0,1-5.14-17.6,93.79,93.79,0,0,1-.53-9.68,59.45,59.45,0,0,1,4.59-24.27,37.89,37.89,0,0,1,31.75-23.42,49.81,49.81,0,0,1,26.31,4.2,41.9,41.9,0,0,1,21.91,24.7,64.12,64.12,0,0,1,.11,42,38.22,38.22,0,0,1-4.25,9.32l5.26.37V539.9c2.13-1.56,4.22-3.13,6.3-4.7q4.1-13.63,8.13-27.46v-.14l.91-3.18a24.34,24.34,0,0,1,27.35-16.93l17.69,2.1a8.39,8.39,0,0,0,.89.1,23.9,23.9,0,0,1,24,24.64V515c-.18,5.64-.26,11.43-.31,17.27l3,.34c2.59.4,5.24.68,7.86.83h1.33l2.44.33a24.05,24.05,0,0,1,3.06.74l4,.42a43.77,43.77,0,0,1-3-10.42c-.62-3.72-1.06-7.52-1.31-11.3l-.05-1.29a59.16,59.16,0,0,1,3.29-20c5.58-17.39,23.54-28.17,41.91-25a57.7,57.7,0,0,1,10,2.11,43,43,0,0,1,29.15,27.38,58.84,58.84,0,0,1-.14,41.31,34.3,34.3,0,0,1-3.28,6.91l36,4.85c2.86.4,5.71.8,8.53,1.31l2.71.49,2.51,1.13a25,25,0,0,1,14,17c1.54,6.52,3.06,13.37,4.56,20.18l1.51,6.77q.82,3.57,1.62,7.14l6.17-23.67c3.81-14.77,15-22,30.08-19.21l62.36,11.17-2.62,8.41q4-1.17,8.09-2.12l.74-.16a98.64,98.64,0,0,1,21.47-1.87,106.83,106.83,0,0,1,60.31,18.84,75.72,75.72,0,0,1,31.68,51.51,121.84,121.84,0,0,1,1.54,18.53v93.28C1603.12,772.47,1592.73,782.81,1578.42,782.81Zm-24.09-46.5c-.32,0-.64,0-1,0l1.06,0Zm-172.41-9.93c1.11,0,2.24,0,3.39,0q.67-2.16,1.34-4.31a30.58,30.58,0,0,1-4.43.41,25.87,25.87,0,0,1-4.88-.47l1.15,4.18Zm-18.66-.83h0Zm-183.37-9.75a14.31,14.31,0,0,0,5.92,4.73c-.4-.24-.79-.5-1.18-.76l-1.1-.8A40.24,40.24,0,0,1,1179.9,715.81Zm338.82-9.5v0Zm-305.85-90.73c-.07,7.59-.11,15.11-.11,22.63v41.63l1-.36,17.72-10.42c0-5.1.06-10.14.06-15.15q0-19.37.37-38.18c0-.2,0-.4,0-.6a25.55,25.55,0,0,1-8.13,1.3l-1.93-.08Zm249.62,17q-4.69,14.37-9.35,28.72a56,56,0,0,1,15.54-13.71,23.82,23.82,0,0,1-2.43-5.24Q1464.42,637.51,1462.5,632.6ZM495,620.71c0,6.14.07,12.19.14,18.22a23.74,23.74,0,0,1,16-9.33C504.23,628.65,498.67,625.53,495,620.71Zm153.41-31.6.08,5.07q0,3.52,0,7,1-2.84,2.29-5.6c.3-.68.62-1.34.94-2ZM888,596.45l-.1.14Zm31.76-15.5a94.63,94.63,0,0,1,3.88,14.87,88.55,88.55,0,0,1,4.28-13.05A24.68,24.68,0,0,1,914.8,567.3a23.53,23.53,0,0,0-4.94-7.62,18.38,18.38,0,0,0-15.12-4.78l-1.53.15-.56,0,.36.09A38,38,0,0,1,919.78,580.95ZM842.22,579v10.3a62.08,62.08,0,0,1,3.13-8.31A23.06,23.06,0,0,1,842.22,579Zm321.39-9.34a24.17,24.17,0,0,1,2.69,2.19,23.58,23.58,0,0,1,5.6,8l.1-.16a23.73,23.73,0,0,1,8.4-8,22.55,22.55,0,0,1-8.84-9.31,27.71,27.71,0,0,1-5.13,5.08ZM977,557.06a37.65,37.65,0,0,1,17.61,11.54l1.15,1.46a54.27,54.27,0,0,1,3.75,6q-.43-1.55-.92-3.08l-.23-.76a22.67,22.67,0,0,0-8.08-11.84A20.85,20.85,0,0,0,977,557.06Zm-285,6.15c-.24.34-.48.69-.71,1l.71-.12Zm-168.42-5.5-.1,0ZM762,538.59h0Zm-206.61-15A45.22,45.22,0,0,1,565,534.08q-.26-.72-.54-1.43l-.26-.69a26.21,26.21,0,0,0-14.84-15.45,50.45,50.45,0,0,0-13-2.54A48.74,48.74,0,0,1,555.36,523.62Zm-61.43-5.23q0,3.55.08,7.07c2-3.35,4.84-5.44,9.08-7.6.64-.33,1.27-.63,1.9-.93l-10.36,1.36Zm779.19,3.82c0,.08-.07.18-.1.26C1273.05,522.39,1273.08,522.3,1273.12,522.21Zm3.58-16.07-.08.23Zm-186-9.18h0Zm-330.5-8Zm328.87-5.48-.06.13Zm-331.1-4h0ZM124.77,782.33h-9.48l-3.14-.94a24.21,24.21,0,0,1-15.47-13.94l-1-2.28-.43-2.44a27.76,27.76,0,0,1-.34-7V572.6c0-13.37,7-22.42,19.84-25.53L151,537.48l27.9-1.62.78,161.7,41.4-3.76.33,0a70.42,70.42,0,0,1,28.2-52.58l-3-6.21q-5.41-12.28-11.22-24.62c-.13-.26-.26-.53-.38-.79l-1.92-4.07v-2.74a24.18,24.18,0,0,1,9.82-22.61,130.47,130.47,0,0,1,54.84-25.92,86.37,86.37,0,0,1,36.69-.37,58.79,58.79,0,0,1,43.33,38.59,90.88,90.88,0,0,1,5.51,27.78c.38,5.72.38,11.68.38,17.47.18,6.13.18,12.15.18,18.23,0,5.75,0,11.56.17,17.56.19,6.45.19,13,.19,19.35,0,5.91,0,11.69.17,17.12.36,11.29.37,22.56.37,33.47a24.18,24.18,0,0,1-11.52,22.16,24.26,24.26,0,0,1-13.58,3.53l-16.93.61a32.93,32.93,0,0,1-13.24-.63l-7.73-2-1.1-1.5a60.17,60.17,0,0,1-27.59,9.77,68.17,68.17,0,0,1-31.2-2.49l-.66-.23a56.2,56.2,0,0,1-15.83-8.77,24.31,24.31,0,0,1-21.28,12c-2.78.18-5.57.31-8.37.43-5,.23-9.73.44-14.23,1l-1.35.13Zm171.84-86.55h0Z" transform="translate(-94.87 -105.56)"/><path class="cls-2" d="M1024.23,739.63h-14c-7.89,0-15.77,0-23.66-.3a1.69,1.69,0,0,1-2-2q0-38.58.36-77.11c.36-38.52,0-.36,0-.54,0-13.18.42-26.36,0-39.55a80.18,80.18,0,0,0-3.49-25.82,32,32,0,0,0-4.39-8.55,15.29,15.29,0,0,0-19.5-3.13,20.35,20.35,0,0,0-9.15,10.29,65.67,65.67,0,0,0-5.06,19.86c-.72,6.92-1.2,13.9-1.44,20.89-.3,9.63-.3,19.26-.36,29v73.25a4.7,4.7,0,0,1,0,1.75,1.69,1.69,0,0,1-1.2.9H904.26c-2.23,0-2.23,0-2-2.23V617A72.23,72.23,0,0,0,898,590.72a15.29,15.29,0,0,0-10.83-10.83,16.91,16.91,0,0,0-18.06,6.86A39.79,39.79,0,0,0,862,604.8c-1.14,7.46-1.87,15-2.53,22.51-.42,4.7-.36,9.39-.42,14.09q0,47.49-.3,95v2.29H822.64a6.44,6.44,0,0,0-1.57,0c-1.5.36-1.75-.42-1.69-1.63V538.41h1.26l27.15-.3a1.93,1.93,0,0,1,2.35,1.87c1.38,7.4,2.95,14.81,4.45,22.21a5.06,5.06,0,0,0,.48,1.69c.48.78,1.44.3,2-.84a114.37,114.37,0,0,1,7.22-12.28,36.12,36.12,0,0,1,27-15.35,41.11,41.11,0,0,1,34.19,11.44A46.11,46.11,0,0,1,936,563.33a2.11,2.11,0,0,0,2,2,2.17,2.17,0,0,0,2.17-1.87,44.48,44.48,0,0,1,17.15-20.71,36.72,36.72,0,0,1,16.73-5.42,43.22,43.22,0,0,1,28.77,7.22,45,45,0,0,1,16.73,24.08,104,104,0,0,1,4.39,20.77,409,409,0,0,1,1,43.52v18.36q0,26.3-.3,52.61v30.7A32.09,32.09,0,0,1,1024.23,739.63Zm288.93-167.58q8.49,32.14,17,64.23,11.26,42.13,22.75,83.79c2.59,9.51,5.24,19,7.83,28.47a1.63,1.63,0,0,0,1.56,1.69h0l19,1c6,0,12,.36,18.06.84a2.11,2.11,0,0,0,2.65-1.87c5.54-17.7,11-35.39,16.67-53q16.25-50.38,32.74-100.7c.48-1.5.9-3,1.44-4.76l-9.81-1.81-27-4.39c-3.61-.66-3.61-.72-4.51,2.77-7.7,29.68-15.53,59.35-23.17,89.09-2,8.13-3.55,16.37-5.12,24.56-.66,3.25-.84,6.62-1.2,9.33-.66-5.36-1-11.44-2.23-17.34-2.77-14-6-27.87-8.91-41.71q-5.3-24.08-10.77-48.15c-2-8.91-4-18.06-6-26.73a2.47,2.47,0,0,0-1.38-1.69c-3.31-.6-6.68-1-10.05-1.5l-18.6-2.71-11.26-1.5a12,12,0,0,1,.6,2.11h-.24Zm-830,172.21,27.15-.72c3.13,0,3.07,0,3.07-3q0-24.08-.36-48.7V655.73c0-.9,0-1.63,1.2-1.69a37.56,37.56,0,0,0,5.42-.36c5.18-.54,10.41-.78,15.53-1.81a64,64,0,0,0,49.48-41.35A117.38,117.38,0,0,0,592,568.39a167.75,167.75,0,0,0-1-17.22,84.69,84.69,0,0,0-5.72-24.5,48.64,48.64,0,0,0-28.17-28.89,72.59,72.59,0,0,0-34-3.31c-8.37.78-16.73,2-25.1,3.07s-15.89,2.17-24.08,3a2.29,2.29,0,0,0-2.47,2.95c0,12,0,23.78.36,35.63s0,25.4.36,38.1,0,27,.36,40.57q0,18.06.36,36.54,0,19.68.36,39.37,0,24.44.36,48.88v1.93C477,744.57,480.09,744.39,483.16,744.27Zm29.07-165.11c0-12,0-24.44-.36-36.66a2,2,0,0,1,2.35-2.47c4.51,0,9-.9,13.48-.9a22.69,22.69,0,0,1,13.42,4,23,23,0,0,1,8.79,14.57,62.72,62.72,0,0,1-.6,30.76,27,27,0,0,1-21.49,19.8,110.15,110.15,0,0,1-11.14,1.32h-.9c-3.49,0-3.49,0-3.49-3.25V593.49h0C512.23,588.85,512.29,584,512.23,579.16Zm711.6,122.61a45.81,45.81,0,0,1-19.5,4,13.24,13.24,0,0,1-7.1-2.35,17.7,17.7,0,0,1-6.86-15.17V640.44q0-20.83.36-41.65v-3.37a1.44,1.44,0,0,1,1.87-1.69l5.42.6,25.76,2.23c1.26,0,1.56-.3,1.56-1.38q0-17.46.36-34.91a1.63,1.63,0,0,0-1.32-1.87h-.54a106.47,106.47,0,0,1-10.65-1.08l-19.32-1.87c-2.29,0-2.47-.3-2.47-2.59,0-12,0-24.08.36-35.81,0-1.57-.3-2.29-2-2.23a31.18,31.18,0,0,1-4.21-.42l-17.46-2a1.93,1.93,0,0,0-2.47,1.75q-5.24,18.06-10.59,35.75a5.42,5.42,0,0,1-1.87,2.59c-6,4.57-12,9.09-18.42,13.6a2.83,2.83,0,0,0-1.2,1.75c0,6.62,0,13.3-.36,19.92a1.32,1.32,0,0,0,.94,1.62h.56c3.19,0,6,.42,9.45.66l6,.6a1.2,1.2,0,0,1,1.2,1.5v6q0,24.68-.36,49.42v15.35a358.91,358.91,0,0,0,.66,37.74,81.62,81.62,0,0,0,5.42,22.09,36.54,36.54,0,0,0,33.89,24.08,87.58,87.58,0,0,0,16.31-.72,44.48,44.48,0,0,0,16.85-6,3.19,3.19,0,0,0,1.5-2c0-3.49.3-7,.36-10.53V700.93ZM327.62,728.26l5.6,16.85a10,10,0,0,0,1.87,4.76,10.29,10.29,0,0,0,5.12,0h0l20-.72a1.75,1.75,0,0,0,2.11-2.11c0-11.32,0-22.57-.36-33.89s0-24.08-.36-36.54,0-24.08-.36-36.12c0-5.66,0-11.26-.36-16.91a68.56,68.56,0,0,0-4.27-21.25,36.12,36.12,0,0,0-26.73-24.08,64,64,0,0,0-27.57.36,107.5,107.5,0,0,0-46.11,22,1.69,1.69,0,0,0-.73,2.27v0h0q6,12.76,11.62,25.46l.72,1.5,1-.6A107.75,107.75,0,0,1,287.71,618a45,45,0,0,1,20-4.82A13.06,13.06,0,0,1,321.06,624a82.34,82.34,0,0,1,1,19,2.11,2.11,0,0,1-1.44,1.32c-7.58,1.26-15.17,2.29-22.69,3.61a91.07,91.07,0,0,0-29.43,9.87,47.73,47.73,0,0,0-24.68,39.31,125.08,125.08,0,0,0,0,15.47A55.92,55.92,0,0,0,249,734.82a33.83,33.83,0,0,0,19.74,18.6A45.39,45.39,0,0,0,290.3,755a38,38,0,0,0,24.86-12,178.41,178.41,0,0,0,10.47-14.57l1.32-2C327.2,727.35,327.5,727.78,327.62,728.26Zm-7-27a27.09,27.09,0,0,1-12.46,16.43,20.22,20.22,0,0,1-12.88,2.71A12,12,0,0,1,283.92,709a34.13,34.13,0,0,1,1.5-18.54A23.48,23.48,0,0,1,302,676c4.82-1.38,9.87-1.93,14.81-2.89l4.15-.66c1.08,0,1.69,0,1.63,1.32v8.79a54.17,54.17,0,0,1-2,18.66ZM1515.88,664a74.4,74.4,0,0,0-24.86,1.5,33.35,33.35,0,0,0-26.3,24.92,77.23,77.23,0,0,0-2,21.67,64.53,64.53,0,0,0,4.27,23.05,37.62,37.62,0,0,0,26.73,24.44,55.8,55.8,0,0,0,18.06,1.26,39.43,39.43,0,0,0,17.58-5.12,53.81,53.81,0,0,0,14.81-14.45,12.46,12.46,0,0,1,1.32-1.32,9.33,9.33,0,0,1,1,1.69q3.19,9,6,18.06a1.87,1.87,0,0,0,1.93,1.57,32.69,32.69,0,0,1,5.42.3l18.6,1.38c1.69,0,2.29,0,2.29-2.17v-93a101.43,101.43,0,0,0-1.32-15.59,53,53,0,0,0-22.15-36.12,85.29,85.29,0,0,0-48.15-14.93,76.38,76.38,0,0,0-16.61,1.44,138.8,138.8,0,0,0-15.29,4.51A1.2,1.2,0,0,0,1476,609q6,14.45,11.5,29a1.2,1.2,0,0,0,1.38,1h.48l8.67-2.95a51.16,51.16,0,0,1,28.11-.9,18.48,18.48,0,0,1,15,15.23,145.61,145.61,0,0,1,.78,16.37Zm24.74,27.21a1.32,1.32,0,0,1,1.56,1.44,173,173,0,0,1-1.2,18.9A20.65,20.65,0,0,1,1526.3,729a21.49,21.49,0,0,1-12.46,0A14.57,14.57,0,0,1,1502.94,716a35,35,0,0,1,.66-12,17,17,0,0,1,15.65-13.48c1.87,0,3.73-.36,5.48-.48Zm-1386.06-129-34.37,9c-2.83.78-2.83.84-2.83,3.67V759.14a5.6,5.6,0,0,0,0,2.29,1.87,1.87,0,0,0,1.2,1.08h5.36l18.78-1.32,13.9-.78,25.1-1.69,17-1c8.37-.48,16.73-1,25.1-1.38a1.87,1.87,0,0,0,2.23-2.35c0-10.11,0-20.22-.36-30.1v-3.49a1.44,1.44,0,0,0-1.87-1.63l-14.33,1.32L196,721.22l-14,1.32-13.48,1.32-11.32,1-.78-162.52Zm471.13-14.75q0,24.86.36,49.78,0,28.35.36,56.64,0,34.49.36,69v13.78c0,4.57,0,3.91,3.85,3.73H631l27.69-.36H664c2.29,0,2.29,0,2.29-2.41,0-19.2-.3-38.34-.3-57.54,0-17.34,0-34.73.42-52.07a52,52,0,0,1,4.7-20.59,32.2,32.2,0,0,1,34.49-18.66,83.5,83.5,0,0,1,8.79.9V540.16a1.69,1.69,0,0,0-1.14-2h0a50.86,50.86,0,0,0-16.31-.3,34.61,34.61,0,0,0-22,13.42,88.42,88.42,0,0,0-11.14,19.92,6.38,6.38,0,0,1-1.38,1.5,6.68,6.68,0,0,1-.9-1.69q-2.71-13.06-5.3-26.18a1.44,1.44,0,0,0-1.44-1.44h-5.66l-15.11.78c-2.59.06-5,.6-8,.6A9.39,9.39,0,0,0,625.69,547.44Zm153.79,59.65V542.32c0-3.79,0-3.79-3.73-3.55h-.54l-15.17.36-18.06.36c-2.41,0-2.47,0-2.41,2.41,0,20.53,0,41.05.36,61.58V737.35a1.57,1.57,0,0,0,1.87,1.93l17.46-.36h17.09c3.31,0,3.07.42,3.07-3,0-21.67,0-43.28-.3-64.95s0-42.13,0-63.56h0Zm287.3-51.65q0,29.19-.36,58.39,0,28-.36,56.1c0,22.81,0,45.63-.42,68.5a1.93,1.93,0,0,0,2.29,2.35h7.4l28,.66c1,0,1.81,0,1.81-1.38V728.62q0-24.68.36-49.42t.06-50.2q0-24.68.36-49.42v-32.2l-39.67-2.65c.24,3.79.24,7.16.24,10.71Zm188.16,8.25c0,6,0,12-.3,18.48q0,18.06-.36,36.66t-.36,37.74q0,18.06-.36,36.66,0,25.16-.42,50.26c0,2.35,0,2.47,2.47,2.53l9.87.36,15.53.42a74.16,74.16,0,0,1,9.69.42c1.75,0,2-.36,2-1.81V724.29q0-19.14.36-38.28,0-17.09.36-34.19,0-19.14.36-38.28V598.9q0-15,.36-30.1a1.63,1.63,0,0,0-1.06-2h-.75L1277.7,565l-15.83-2.17-7.34-.78a3,3,0,0,1,0,1.38h0Zm-475-87.22a20.22,20.22,0,0,0-8.73-14.33,22.27,22.27,0,0,0-14.75-2.53,18.66,18.66,0,0,0-16.67,12.88,46.83,46.83,0,0,0-1.14,25A19.38,19.38,0,0,0,747,511a22.21,22.21,0,0,0,15.11,2.71,18.72,18.72,0,0,0,16.13-12.4A41,41,0,0,0,780.93,486C780.63,483.21,780.51,479.66,779.91,476.47Zm285.86,24.44a25.7,25.7,0,0,0,6.38,15,22.39,22.39,0,0,0,17.22,6,16.49,16.49,0,0,0,16.91-12,41.53,41.53,0,0,0,0-27.93,19.14,19.14,0,0,0-10-11.5,27.57,27.57,0,0,0-14.81-2.29,15.41,15.41,0,0,0-13.24,9.69,38.16,38.16,0,0,0-2.89,15.65A70.24,70.24,0,0,0,1065.76,500.91Zm188.64,22.57a21.25,21.25,0,0,0,13.48,16.79,30.88,30.88,0,0,0,11.56,2,14.87,14.87,0,0,0,14.75-10,36.48,36.48,0,0,0,0-25.82A20.71,20.71,0,0,0,1279.87,493a35.27,35.27,0,0,0-7-1.44,15.11,15.11,0,0,0-17.46,10.17,37,37,0,0,0-2,12.46A91.06,91.06,0,0,0,1254.41,523.48Z" transform="translate(-94.87 -105.56)"/></g></svg>