<svg id="Layer_1" data-name="Layer 1" xmlns="http://www.w3.org/2000/svg" xmlns:xlink="http://www.w3.org/1999/xlink" viewBox="0 0 1196.17 1196.17"><defs><style>.cls-1{fill:none;}.cls-2{fill:url(#radial-gradient);}.cls-3{opacity:0.56;filter:url(#AI_GaussianBlur_7);}.cls-4{fill:#141212;stroke:#050102;stroke-width:0.5px;}.cls-4,.cls-5,.cls-6{stroke-miterlimit:10;}.cls-5,.cls-6{fill:#750707;}.cls-5{stroke:#750707;}.cls-6{stroke:#422222;}.cls-7{opacity:0.65;}.cls-8{isolation:isolate;}.cls-9{clip-path:url(#clip-path);}.cls-10{fill:#df0a14;}.cls-11{fill:#fff;}</style><radialGradient id="radial-gradient" cx="1103.31" cy="1131.78" r="779.37" gradientTransform="translate(-69.2 -664.15)" gradientUnits="userSpaceOnUse"><stop offset="0" stop-color="#fee333"/><stop offset="0.03" stop-color="#fee3b4"/><stop offset="0.42" stop-color="#fee333"/><stop offset="1" stop-color="#c7aa0b"/></radialGradient><filter id="AI_GaussianBlur_7" name="AI_GaussianBlur_7"><feGaussianBlur stdDeviation="12"/></filter><clipPath id="clip-path" transform="translate(-284.18 -97.6)"><path class="cls-1" d="M1014.69,1274.68c-5.47,1.13-12.78,2.61-18.27,3.63-2.22.41-8.8,1.57-13.48,2.3-6.69,1-10.32,1.59-19.37,2.75-6.62.85-15.59,1.75-15.74,1.76h0c-1.16.09-2.69.26-3.85.37-2.9.28-7.9.67-7.94.68-1.91.15-7.74.6-13.4.9-5.09.27-12.78.68-22.6.8-7.74.09-18.05,0-25.79-.21-8.5-.19-19.83-.9-28.31-1.42-4.39-.27-10.24-.83-14.63-1.21-7.58-.67-21.38-2.29-31.34-3.85-10.84-1.7-25.32-4-36-6.69-17.22-4.28-40.13-10.23-57.07-15.51-12.41-3.87-28.68-9.9-40.65-15-13.68-5.8-31.72-14-45-20.71-11.95-6.06-27.5-14.88-38.94-21.84-12-7.34-27.67-17.83-39.1-26.1-10.94-7.92-25.07-19.1-35.38-27.81-10.6-9-24.2-21.51-34.06-31.28-9.64-9.56-22-22.81-30.87-33.09-9-10.47-20.56-24.91-28.76-36s-18-26.35-25.6-37.76c-7.69-11.6-16.55-28-23-40.32S351.4,940,346,927.19c-5.47-13-12.37-30.58-16.53-44.08s-9.53-31.64-13-45.37a587.57,587.57,0,0,1-13.94-82.26c-2.52-28.69-2.51-67.2-1.69-96a340.92,340.92,0,0,1,4.92-47.15c2.54-13.72,5.42-32.13,8.52-45.74s7.47-31.75,12.12-44.91c4.57-13,10.26-30.4,15.37-43.15s12.66-29.63,18.77-42A593.09,593.09,0,0,1,464.95,288.17c9.33-9.69,22.25-22.15,32.29-31.1,10.27-9.15,24.52-20.69,35.35-29.17,10.42-8.16,24.95-18.2,36-25.4,11.27-7.31,26.73-16.39,38.45-23,10.63-6,25.24-13.1,36.3-18.23,9.77-4.53,23-10,33.07-14,12.69-5,29.94-10.76,43-14.71,12.36-3.75,29.07-8,41.63-11,4-1,9.48-2.08,13.56-2.86,2.74-.52,6.39-1.25,9.14-1.74,4-.71,9.26-1.62,13.23-2.26,8.32-1.33,15-2.19,19.42-2.76,6-.77,14.9-1.69,15.75-1.76h0c1.16-.1,2.69-.26,3.85-.37l3.89-.34c2.46-.21,5.74-.48,8.21-.64,8.83-.6,12.26-.78,20.36-1.11,3.92-.16,9.15-.26,13.08-.29,4.3,0,10,0,14.33.07,4.62,0,10.77.31,15.38.45,9.92.31,23.12,1.3,33,2.17a590.76,590.76,0,0,1,70.35,10.39c11.82,2.59,27.52,6.37,39.1,9.86,15.51,4.68,36,11.54,51.14,17.36A623.49,623.49,0,0,1,1184.17,186c12.73,7.37,29.31,17.88,41.44,26.21,11.09,7.61,25.41,18.43,35.88,26.88,10.94,8.84,25,21.25,35.24,30.92,9.84,9.32,22.12,22.6,31.54,32.34,9.67,10,21.21,24.56,29.7,35.57s19.15,26.05,26.73,37.65c15.07,23.07,31.85,55.89,44,80.61,6.23,12.65,12.77,30.34,17.49,43.63s9.77,31.44,13.95,44.91c4.27,13.77,7.93,32.72,10.5,46.9,2.61,14.41,5.31,33.76,6.75,48.33s2.67,33.82,2.79,48.34c.12,14.3-.05,33.39-1.1,47.65-1.31,17.77-3.44,41.51-6.77,59-2.6,13.68-6.06,31.94-9.42,45.45s-8.08,31.54-13,44.58-10.49,30.67-16.4,43.21c-5.82,12.35-13.1,29-19.4,41.15s-15.11,28.47-22.76,39.94c-7.52,11.26-17.28,26.47-25.3,37.39-8.19,11.14-19.28,25.93-28.68,36.07-18.26,19.69-43.61,45-63.34,63.25-10.09,9.33-24.66,20.54-35.89,28.46-11.91,8.39-27.71,19.75-40.33,27-20.61,11.88-48.56,27-70.26,36.72-10.19,4.57-24.1,9.9-34.54,13.86-6.1,2.31-14.36,5-20.56,7.05s-14.27,4.55-20.47,6.22c-11.13,3-26,6.74-37.27,9.34a387.22,387.22,0,0,1-67.11,8.36h0A387.22,387.22,0,0,0,1014.69,1274.68Z"/></clipPath></defs><title>lotto_6aus49_Logo</title><path class="cls-2" d="M882.26,97.6c330.31,0,598.08,267.77,598.08,598.08s-267.77,598.08-598.08,598.08S284.18,1026,284.18,695.68h0C284.18,365.37,551.95,97.6,882.26,97.6Z" transform="translate(-284.18 -97.6)"/><g class="cls-3"><path class="cls-4" d="M492.75,526.65l29.64,138.58q18.19-3.89,36.49-7.27l6.44,34.87q-47.15,8.94-93.57,20.9l-45-171.36Q459.62,533.88,492.75,526.65Z" transform="translate(-284.18 -97.6)"/><path class="cls-4" d="M704.69,601.2c.78,12.58,1.86,25.33,1,37.83-.52,7.41-3.54,14.46-8.79,21S684.3,671.92,675,676.16c-10.49,4.79-22.13,7.26-33.07,8.61-10.65,1.32-22.18,1.69-33.24-.14-10-1.67-18.61-5-25.56-10.07s-11.76-11.17-14.09-18.11c-4-12-6.09-24.86-8.43-37.4l-5.32-29.85c-2.1-12.42-4.57-25-4.86-37.54-.17-7.43,2.53-14.84,7.74-21.93,5.51-7.5,15.23-14.35,23.55-18.05a133.45,133.45,0,0,1,37.51-10.11A137.53,137.53,0,0,1,657,502c9.1,1.43,20.35,5.65,27.67,11.55,7,5.66,11.62,12.16,13.3,19.3,2.91,12.34,3.55,25.35,4.56,38.07Zm-69.17-52q-1.43-12.28-3.78-15.48c-1.57-2.13-4.39-3-8.46-2.45q-5.16.64-7.53,3.76t-.59,16.69l10.76,82q2,15.3,4.12,18.67t8.1,2.61c4.1-.51,6.55-2.19,7.37-5.08s.63-9.51-.58-19.88Z" transform="translate(-284.18 -97.6)"/><path class="cls-4" d="M858.21,495.21l-1.39,35.43q-19.51-.76-39-1l-1.69,141.7q-29.64-.35-59.28.65L752,530.37q-19.44.66-38.86,1.84L711,496.82Q784.61,492.66,858.21,495.21Z" transform="translate(-284.18 -97.6)"/><path class="cls-4" d="M1008.81,508.88l-5,35.1q-19.37-2.77-38.81-5L948.78,679.75q-29.47-3.39-59.09-5.43l9.74-141.38q-19.41-1.34-38.85-2.15l1.48-35.43Q935.79,498.77,1008.81,508.88Z" transform="translate(-284.18 -97.6)"/><path class="cls-4" d="M1149.12,642.94c-3.31,12.16-6.39,24.59-11.25,36.13-2.88,6.85-8,12.54-15.16,17.06s-15.83,7.17-26,8.18c-11.52,1.15-23.38-.27-34.22-2.51-10.53-2.18-21.6-5.54-31.5-10.84-9-4.81-16-10.67-21-17.75s-7.53-14.35-7.51-21.67c0-12.69,2.23-25.49,4-38.13l4.56-30c2-12.44,3.72-25.15,7.47-37.11,2.23-7.09,7.17-13.24,14.38-18.28,7.62-5.33,19-8.7,28.11-9.52a133.86,133.86,0,0,1,38.85,2.5,138.72,138.72,0,0,1,35.74,12.64c8.2,4.29,17.56,11.92,22.64,19.87,4.88,7.64,7.17,15.28,6.47,22.57-1.2,12.61-4.79,25.15-7.92,37.52ZM1100,571.36q2.59-12.09,1.4-15.87c-.81-2.52-3.23-4.21-7.25-5q-5.11-1.06-8.37,1.13t-5.93,15.61l-16.19,81.13q-3,15.13-2.09,19c.62,2.58,2.9,4.26,6.85,5.08s6.93,0,8.65-2.43,3.66-8.8,5.85-19Z" transform="translate(-284.18 -97.6)"/><path class="cls-4" d="M527.27,842.87q-24.87,6.18-49.48,13.21-3.45-11.88-4.66-14.89a7.66,7.66,0,0,0-4.49-4.33,11.83,11.83,0,0,0-7.88.06,10.15,10.15,0,0,0-5.71,3.91,7.77,7.77,0,0,0-1.26,6q.6,3.25,3.55,12.76l8.36,27A24.07,24.07,0,0,1,473.46,873c4.13-3.71,9.75-6.6,16.85-8.6a44,44,0,0,1,25.4-.06c7.94,2.47,13.53,6.51,16.82,12s6.15,13.33,8.62,23.46l3.34,13.72q4.4,18.08,5.09,27.26a35.42,35.42,0,0,1-3.68,18.22c-2.89,6-7.55,11.36-13.94,16a72.88,72.88,0,0,1-23.66,11.17c-9.63,2.65-19.88,5.15-30.19,4.34-8.47-.67-15.77-3.13-21.89-7.52a41.51,41.51,0,0,1-13.7-15.75c-5.62-11.79-10-24.42-14.42-36.8l-8.3-23.07c-4.72-13.27-9.82-26.62-13.29-40.17-1.76-6.87-1.16-14.3,1.77-22s8.4-14.63,16.16-20.57c8.79-6.73,19.13-10.84,29.34-14.23,11.57-3.83,24.73-5.89,37.1-4.27,10.23,1.34,18.26,5.31,24,11.33C520.92,824,525.54,834.28,527.27,842.87Zm-34,66.27q-2.63-9-5.84-11.75c-2.14-1.8-4.91-2.21-8.28-1.19s-5.38,2.79-6.24,5.39-.33,7,1.59,13.2L484,945.4q3.47,11.19,6.59,14c2.08,1.88,4.68,2.34,7.85,1.38,1.92-.58,3.64-2.06,5.18-4.45s1.19-7.51-1.1-15.36Z" transform="translate(-284.18 -97.6)"/><path class="cls-4" d="M629.49,775.26q28,85.33,51.89,171.89c-15.93,1.84-31.82,4.12-47.64,6.71q-3.83-15.51-7.75-31c-6.86,1.15-10.28,1.75-17.12,3q1.44,15.92,3,31.84c-16,3-31.92,6.39-47.76,10.12q-8.55-89.16-13.27-178.59C576.95,783.85,603.11,779.2,629.49,775.26Zm-10,116.85c-7.19-23.89-13.82-47.94-20.4-72,.46,25,1,50.09,3.43,75C609.33,893.86,612.72,893.26,619.51,892.11Z" transform="translate(-284.18 -97.6)"/><path class="cls-4" d="M795.12,763q.27,59.2.55,118.4c-.08,9.38.18,19.06-1.25,28.3-.83,5.4-3.56,11-7.93,16.82A43.06,43.06,0,0,1,769.31,940c-7.09,3.17-15.58,4.86-25.14,5.52-9.06.62-20.12-.33-28.84-3.26-8.46-2.85-15.17-6.73-19.87-11.9a37.34,37.34,0,0,1-9.25-16.91c-2.81-12.64-4-26-5.44-39L669.32,770.21q27.43-2.87,54.92-4.76L732.68,898q.74,11.57,2.26,14.71t5.51,2.91c3-.17,4.95-1.46,5.7-3.87s.92-8,.47-16.84l-6.58-130.39Q767.59,763.3,795.12,763Z" transform="translate(-284.18 -97.6)"/><path class="cls-4" d="M927,823.61c-16.21-1.82-32.46-3.22-48.73-4.34l.89-13.11q.62-9.17-1.12-11.81c-1.16-1.76-3.24-2.74-6.22-2.92a8.49,8.49,0,0,0-7.53,3q-2.67,3.25-3,10.15c-.31,5.91.43,10.41,2,13.48s6.33,7,14.12,11.71c14.29,9.16,31.92,19.09,40.57,33.6,6.76,11.35,5.9,26.06,4.47,38.48-1,8.82-2.59,19.26-7.75,27.22-3.62,5.59-10.18,9.91-19.08,13.19A72.47,72.47,0,0,1,865.17,946c-10.92-1.18-22-2.89-31.82-8.52-8.65-5-14.58-11-17.25-18.24-3.61-9.8-3.59-20.51-3.88-30.81l.12-11.6q23.18.38,46.3,1.48L857.5,899.8q-.53,9.94,1.21,12.89c1.16,2,3.33,3,6.53,3.23a8,8,0,0,0,7.39-3.14q2.59-3.44,3.1-10.53c.73-10.41-.29-17.59-3.16-20.73-6.14-6.71-14.65-12.17-22.54-17.36-8.32-5.47-17-11-24.57-17.35-4.06-3.44-7.43-8.32-10.1-14.41s-3.94-13.9-3.91-23.24c0-9.91.93-21.26,6.41-29.69,4-6.17,11-11,20.27-14.26,10.91-3.86,22.58-4.13,33.74-3.79a90.14,90.14,0,0,1,36.09,8.49c9.66,4.69,16,10.38,18.37,16.48,3.63,9.19,2.73,20.47,1.52,30.27Z" transform="translate(-284.18 -97.6)"/><path class="cls-4" d="M1059.68,791.23l-24.92,113.06c5.34,1.18,8,1.78,13.35,3l-6.87,29.41c-5.18-1.21-7.78-1.8-13-2.95l-6.71,30.46q-22.15-4.75-44.42-8.77l5.36-30.72q-27.3-4.6-54.73-8.08l3.63-30q27.88-55.27,59.24-108.58Q1025.34,783.83,1059.68,791.23ZM987.68,895l13-74.27q-17.49,35.16-33.86,70.84C975.16,892.86,979.34,893.54,987.68,895Z" transform="translate(-284.18 -97.6)"/><path class="cls-4" d="M1054.44,923.57c15.39,3.77,30.72,7.81,45.93,12.26q-3.45,11.88-4,15.07a8.21,8.21,0,0,0,1.21,6,9.94,9.94,0,0,0,5.85,4,8.56,8.56,0,0,0,6.24-.27,7.89,7.89,0,0,0,4.08-4.36q1.25-3,4.2-12.56l8.37-27a23.94,23.94,0,0,1-13.46,7.05c-5.26.9-11.26.37-18.06-1.55a43.68,43.68,0,0,1-20.86-12.44c-5.46-5.94-8.42-12.07-8.76-18.46s.7-14.66,3.16-24.8l3.34-13.72q4.4-18.08,8.24-26.49a32.9,32.9,0,0,1,12.78-14.12c6-3.79,13.61-5.92,22.71-6.44,9.77-.55,21.2,1.38,30.41,4.22,11.16,3.44,22.74,8,32.13,15.27,7.67,5.92,12.84,12.79,15.5,20.25s3.19,14.59,1.59,21.17c-3.07,12.63-7.78,25.17-12.25,37.46l-8.33,23.17c-4.81,13.23-9.41,26.73-15.2,39.48a39.6,39.6,0,0,1-14.34,16.34,44.36,44.36,0,0,1-22.56,7.41,74.15,74.15,0,0,1-27.56-3.69c-10-3.26-20.42-7.16-28.63-14.37-6.81-6-11.14-13-12.93-20.85C1051.25,943,1052.07,932,1054.44,923.57Zm61.36-40.8q-3.12,10.72-.74,14.15a10.6,10.6,0,0,0,5.64,4.42q4.92,1.48,8.17-1t6.16-11.79l9.5-30.62q3.47-11.18,2.25-15.34c-.82-2.77-3-4.7-6.56-5.77a11.46,11.46,0,0,0-7.49.68q-4.26,1.66-7.67,13.43Z" transform="translate(-284.18 -97.6)"/></g><path class="cls-5" d="M494.23,503.82l30.28,141.65q18.6-4,37.31-7.43l6.58,35.64q-48.21,9.14-95.67,21.36l-46-175.16Q460.36,511.21,494.23,503.82Z" transform="translate(-284.18 -97.6)"/><path class="cls-5" d="M710.9,580c.79,12.86,1.9,25.89,1,38.66-.53,7.58-3.72,14.79-9,21.49s-14.56,13.06-22.35,16.46a124.67,124.67,0,0,1-33.81,8.8,128.94,128.94,0,0,1-34-.15c-8.51-1.26-19.1-5-26.13-10.29s-12-11.42-14.4-18.51c-4.1-12.26-6.33-25.4-8.62-38.23l-5.43-30.51c-2.14-12.7-4.67-25.57-5-38.37-.17-7.59,2.59-15.17,7.92-22.42,5.63-7.67,15.57-14.67,24.08-18.45a136.46,136.46,0,0,1,38.35-10.34,140.63,140.63,0,0,1,38.59.5c9.3,1.46,20.81,5.78,28.28,11.8,7.19,5.79,11.88,12.43,13.6,19.72,3,12.54,3.82,26,4.66,38.92Zm-70.72-53.15q-1.46-12.55-3.86-15.82c-1.6-2.17-4.49-3-8.65-2.5q-5.27.65-7.7,3.84t-.6,17.05l11,83.84q2,15.64,4.21,19.08t8.28,2.67c4.19-.52,6.7-2.24,7.54-5.19s.65-9.72-.59-20.32Z" transform="translate(-284.18 -97.6)"/><path class="cls-5" d="M867.86,471.71l-1.42,36.21q-20-.78-39.92-1l-1.72,144.84q-30.32-.23-60.61.67l-4.9-144.76q-19.88.67-39.73,1.88l-2.21-36.17Q792.62,469.1,867.86,471.71Z" transform="translate(-284.18 -97.6)"/><path class="cls-5" d="M1021.82,485.66l-5.12,35.88q-19.8-2.83-39.68-5.11l-16.55,143.9q-30.17-3.34-60.42-5.55L910,510.27q-19.84-1.37-39.72-2.19l1.51-36.21Q947.17,475.34,1021.82,485.66Z" transform="translate(-284.18 -97.6)"/><path class="cls-5" d="M1165.3,622.68c-3.39,12.43-6.53,25.13-11.49,36.93-2.94,7-8.32,12.8-15.49,17.44-7.34,4.75-18.09,7.67-26.6,8.37a125.94,125.94,0,0,1-35-2.56,129.43,129.43,0,0,1-32.21-11.08c-7.66-3.93-16.49-10.88-21.45-18.14s-7.71-14.68-7.68-22.15c.06-12.93,2.17-26.09,4.12-39l4.66-30.64c2-12.72,3.8-25.71,7.63-37.93,2.28-7.25,7.32-13.53,14.7-18.69,7.79-5.45,19.46-8.89,28.74-9.74a136.88,136.88,0,0,1,39.72,2.55c12.64,2.62,25.77,6.55,36.54,12.91,8.67,5.12,17.42,11.35,23.15,20.31,5,7.8,7.33,15.61,6.62,23.07-1.21,12.82-4.73,25.83-8.09,38.35Zm-50.24-73.15q2.65-12.35,1.42-16.22c-.82-2.57-3.3-4.3-7.41-5.16q-5.22-1.08-8.56,1.16t-6.06,16l-16.54,82.93q-3.08,15.47-2.14,19.42c.63,2.64,3,4.36,7,5.19s7.09,0,8.84-2.49,3.74-9,6-19.43Z" transform="translate(-284.18 -97.6)"/><path class="cls-6" d="M529.46,827q-25.43,6.32-50.6,13.5-3.53-12.14-4.76-15.22a7.83,7.83,0,0,0-4.59-4.42,12.1,12.1,0,0,0-8.06.06,10.38,10.38,0,0,0-5.84,4,7.94,7.94,0,0,0-1.29,6.14q.62,3.32,3.63,13l8.54,27.56a24.61,24.61,0,0,1,7.94-13.81c4.22-3.79,10-6.74,17.23-8.79,9.15-2.58,17.85-2.59,26-.06s13.83,6.65,17.2,12.27,6.29,13.63,8.81,24l3.41,14c2.09,9.18,4.44,18.49,5.19,27.87a36,36,0,0,1-3.77,18.63c-3,6.17-7.72,11.61-14.26,16.39A74.57,74.57,0,0,1,510,973.63c-9.85,2.71-20.33,5.27-30.88,4.43-8.66-.68-16.13-3.2-22.38-7.69a42.41,42.41,0,0,1-14-16.1c-5.74-12.06-10.13-25-14.73-37.61l-8.48-23.58c-4.82-13.57-10-27.22-13.57-41.06-1.79-7-1.18-14.61,1.81-22.54s8.59-15,16.53-21c9-6.88,19.56-11.08,30-14.54,11.83-3.92,25.29-6,37.94-4.36,10.46,1.37,18.67,5.43,24.51,11.59C523,807.71,527.69,818.27,529.46,827Zm-34.84,67.74q-2.69-9.24-6-12c-2.19-1.84-5-2.25-8.47-1.22s-5.5,2.86-6.39,5.5-.34,7.15,1.63,13.49l9.7,31.3q3.55,11.44,6.73,14.31c2.12,1.92,4.79,2.39,8,1.42,2-.59,3.72-2.1,5.3-4.55s1.22-7.68-1.12-15.7Z" transform="translate(-284.18 -97.6)"/><path class="cls-5" d="M634,757.95q28.63,87.22,53,175.7c-16.3,1.88-32.54,4.22-48.73,6.86q-3.94-15.85-7.92-31.68c-7,1.17-10.52,1.79-17.51,3.08q1.49,16.27,3,32.54c-16.36,3-32.64,6.53-48.84,10.35q-8.72-91.14-13.52-182.55Q593.6,763.94,634,757.95ZM623.77,877.39c-7.35-24.42-14.12-49-20.84-73.59.47,25.56,1,51.2,3.49,76.66C613.35,879.17,616.82,878.56,623.77,877.39Z" transform="translate(-284.18 -97.6)"/><path class="cls-5" d="M803.36,745.46q.28,60.51.56,121c-.08,9.59.18,19.49-1.28,28.92-.85,5.52-3.64,11.28-8.11,17.2A44,44,0,0,1,777,926.3c-7.25,3.24-15.93,5-25.71,5.64-9.27.64-20.58-.34-29.5-3.34-8.65-2.91-15.51-6.88-20.32-12.17A38.16,38.16,0,0,1,692,899.15c-2.87-12.93-4-26.54-5.56-39.84L674.73,752.79q28.05-2.94,56.16-4.86l8.62,135.52q.75,11.83,2.31,15t5.64,3c3.12-.18,5.06-1.49,5.83-4s.94-8.21.49-17.21L747.05,747Q775.21,745.73,803.36,745.46Z" transform="translate(-284.18 -97.6)"/><path class="cls-5" d="M938.27,807.37c-16.57-1.85-33.19-3.29-49.83-4.44l.91-13.4q.63-9.37-1.15-12.07c-1.19-1.8-3.31-2.8-6.36-3a8.68,8.68,0,0,0-7.7,3q-2.73,3.32-3.09,10.37c-.31,6,.44,10.64,2.09,13.78s6.47,7.11,14.44,12C902.19,823,920.3,833.19,929.06,848c6.5,11,6.46,26.71,4.58,39.33-1.39,9.29-2.65,19.69-7.92,27.82-3.71,5.72-10.41,10.13-19.51,13.48-10.08,3.71-21.2,4.44-31.2,3.8-10.72-.69-22.52-3-32.55-8.71-8.85-5.09-14.91-11.23-17.64-18.64-3.69-10-3.67-21-4-31.49l.13-11.86c15.79.19,31.58.65,47.35,1.51l-1.17,22q-.54,10.16,1.24,13.17c1.18,2,3.41,3.1,6.68,3.3a8.21,8.21,0,0,0,7.56-3.21q2.65-3.52,3.17-10.77c.75-10.64-.3-18-3.24-21.19-6.28-6.86-15-12.44-23.05-17.74-8.51-5.59-17.4-11.2-25.13-17.74-4.15-3.51-7.6-8.5-10.33-14.73s-4-14.2-4-23.76c0-10.13,1-21.73,6.55-30.35,4.1-6.31,11.23-11.22,20.72-14.58,11.15-3.94,23.08-4.22,34.5-3.87a92.2,92.2,0,0,1,36.9,8.68c9.88,4.8,16.32,10.61,18.78,16.84,3.71,9.39,2.79,20.92,1.56,30.94Z" transform="translate(-284.18 -97.6)"/><path class="cls-6" d="M1073.89,774.27l-25.46,115.57c5.47,1.2,8.2,1.82,13.65,3.1l-7,30.06c-5.3-1.24-8-1.84-13.27-3l-6.86,31.13q-22.66-4.85-45.43-9L995,910.75q-27.92-4.71-56-8.26l3.71-30.65q28.5-56.5,60.56-111Q1038.78,766.7,1073.89,774.27Zm-73.6,106.07,13.24-75.92q-17.88,35.94-34.61,72.41C987.48,878.15,991.75,878.85,1000.29,880.34Z" transform="translate(-284.18 -97.6)"/><path class="cls-6" d="M1068.56,909.54c15.74,3.85,31.42,8,47,12.53q-3.53,12.14-4.11,15.41a8.39,8.39,0,0,0,1.23,6.13,10.16,10.16,0,0,0,6,4.11,8.76,8.76,0,0,0,6.38-.28,8.07,8.07,0,0,0,4.17-4.46q1.28-3.11,4.29-12.84l8.55-27.57a24.47,24.47,0,0,1-13.76,7.21c-5.38.92-11.52.38-18.47-1.58a44.69,44.69,0,0,1-21.34-12.71c-5.59-6.07-8.61-12.33-9-18.87s.71-15,3.23-25.35l3.41-14c2.38-9.1,4.55-18.5,8.41-27.08a33.44,33.44,0,0,1,13.07-14.44c6.12-3.88,13.91-6.06,23.22-6.58,10.63-.6,21.1,1.62,31.1,4.31,11.46,3.09,23.26,8.2,32.86,15.6,7.85,6.05,13.14,13.07,15.86,20.7s3.27,14.91,1.64,21.64c-3.14,12.91-7.95,25.73-12.51,38.3l-8.51,23.68c-4.91,13.53-9.62,27.32-15.53,40.36-3,6.6-8,12.17-14.66,16.7A46,46,0,0,1,1138,978a76.38,76.38,0,0,1-28.18-3.77c-10.27-3.51-20.88-7.32-29.28-14.69-7-6.11-11.4-13.24-13.23-21.31C1065.3,929.43,1066.14,918.18,1068.56,909.54Zm62.74-41.71q-3.18,11-.75,14.46a10.84,10.84,0,0,0,5.77,4.52q5,1.51,8.36-1t6.3-12l9.7-31.3q3.54-11.43,2.3-15.68c-.84-2.83-3.07-4.81-6.71-5.9a11.72,11.72,0,0,0-7.66.7q-4.35,1.69-7.84,13.73Z" transform="translate(-284.18 -97.6)"/><g class="cls-7"><g class="cls-8"><g class="cls-8"><g class="cls-9"><path d="M394.16,400.52c13-21.47,31.1-49.61,45.53-70.12C428.28,349,413.83,374.29,404,393.76l-9.81,6.76m90.76-114.26c-8.6,4.86-19.93,11.61-28.22,17-42.48,51.85-42.48,51.85-76.54,108.56L367.84,439.4c7.24-5.86,17.12-13.41,24.78-18.71l-9.84,28.53c8.45-5.08,19.74-11.84,28.4-16.56l8.91-28.15,8.8-4.54,9.9-26.15-8.45,4.36c23.77-49,24.7-50.91,54.57-91.93" transform="translate(-284.18 -97.6)"/><path d="M493.9,332.3c-5.62,1.42-3.81-3.31-.63-10.15,14.9-28.54,14.9-28.54,18.13-32.78,6.29-8.27,12.61-9.83,13-8.14.29,1.27-1.91,5.49-4.81,10.87-19.27,38.35-19.27,38.35-25.68,40.2m48-73c-43.88,13.3-65.23,49.88-73.26,63.65-11.89,21.52-25.37,45.92-2.2,39.28A61.68,61.68,0,0,0,498,339.44c-4.11,12.28-5.47,25.48-12.28,36.86-3.5,5.85-11.66,9.72-13.63,6.46-.69-1.14-1.08-1.77,3.44-15.92-10.55,4.72-28.27,6.65-35.05,16-.17.23-10.85,25,1.77,29.93,12.11,4.69,47.35-10.61,66.15-28.71,13.35-12.85,13.35-12.85,29.87-63.75,8.47-23.89,8.47-23.89,15.65-39.86,3.62-8.06,4.84-10.78,5-14,.22-3.71.73-12.39-17.06-7.17" transform="translate(-284.18 -97.6)"/><path d="M1116.79,236.39l-18.54-1.11c-7.94-31.49-7.94-31.49-15.51-45.38,10.85,13.46,24.6,32,34.05,46.49M1051,168.25c10.21,21.6,15.33,32.44,14.89,65.36l8.75,21c16.11.83,37.59,2,53.69,3l10.49,23.29c13.09,1,30.55,2.24,43.62,3.39l-12.84-23.39,11,1-14.17-21.3-10.4-1c-30-38.63-30.58-39.37-64.43-68.22-12.17-1.06-28.4-2.34-40.59-3.19" transform="translate(-284.18 -97.6)"/><path d="M1199.89,230.36c-5.58.19-12.37-6.59-17.32-11.54-31.59-29.05-31.59-29.05-29.42-29.14,4.85-.19,14.75,8,19,11.55,27.84,24.91,32.11,28.74,27.77,29.13m-75-55.64c-2,.21-7.91.84-4.25,7.26,1.58,2.78,1.58,2.78,21.07,22.2,27.68,28.61,27.68,28.61,37.54,34.05,19.6,10.81,34,10.78,34.14,5.48a8.81,8.81,0,0,0-1.08-3.81C1237,269,1241.4,274.23,1235.19,274c-6.45-.24-8.79-3.31-20-18.1-10.26-1.4-23.94-3.27-34.23-4.48,35.95,50.93,86.13,49.36,88.16,37.87.79-4.47,2-11.23-33.53-47.68-72.62-69.74-101.24-67.6-110.65-66.89" transform="translate(-284.18 -97.6)"/><path d="M583.65,1161.81l-10.42-.23c-27.43-34.64-27.43-34.64-38.45-55.19,14,17.2,33.46,39.49,48.88,55.42m-80.74-88.73c15.87,35.56,23.83,53.41,54.63,88l23.63,19.63c7.38.29,17.22.63,24.6.83l24.17,18.68c6.95.12,16.21.28,23.15.36l-22.49-18.63,7.77.09-19.87-19.68-8.33-.09c-36.35-41.58-37-42.38-64.32-88.44-12.88-.17-30.06-.45-42.95-.73" transform="translate(-284.18 -97.6)"/><path d="M652.69,1145.37c-7.82,2.07-14.69-8-17.28-11.79-17.71-29.36-17.71-29.36-18.9-33.15-1.88-6,3.06-6.88,6.61-6,4.94,1.17,7.53,4.74,12.8,14.87,20.12,35.06,20.12,35.06,16.76,36.11m-62.19-71.9c-25.17,8-10.15,30.36.82,46.71,14.88,20.88,22.33,30.11,36.27,37.34,17.27,9,35.91,9.29,36.93.64a12.63,12.63,0,0,0-.22-3.36c25.81,32.75,25.81,32.75,19,31.77-6.52-.94-10.52-5.49-18.48-14.56l-31-.14c39.82,39.57,87.76,36,87.22,20.16-.08-2.46-.08-2.46-23.5-40.52-9.43-16.71-16.66-34.58-26.9-50.87a63.33,63.33,0,0,0-14.84-15.55c-28.39-20.71-64.91-11.74-65.26-11.63" transform="translate(-284.18 -97.6)"/><path d="M1218.54,1070.95c8.19-20.15,18.24-47.39,24.89-68.1-1.41,18.41-4.37,42.9-7.74,61.05l-17.14,7m67.53-121.32c-17.51,7.51-40.9,17.4-58.5,24.69-16.36,57.08-16.67,58.17-38.89,108.48l-4.6,22.05c13.5-5.33,31.49-12.48,44.94-17.92l-9,22.72c10.22-4.23,23.85-9.86,34-14.19l10.57-23.55,9.64-4.1,8.71-24-10,4.44c11.49-47.71,11.71-48.62,13.11-98.61" transform="translate(-284.18 -97.6)"/><path d="M1334.65,1001.73c-2.43.06-3.66.09-.81-11.46,8.05-39,8.05-39,8.91-41.14,2.78-6.86,9-10.57,10.85-7.72,1.06,1.65.92,5.63-.48,13.75-7.3,32-7.3,32-8.85,36-3.92,9.88-9.05,10.57-9.63,10.62M1370,909.95c-5.75.61-31.14,7.61-50.4,30.71-11.57,13.87-12.5,19.52-17.65,50.88-6,34-6,34-3.69,37.7,4.73,7.56,16.17,3.35,25.3-3.11a56.22,56.22,0,0,0,15.13-16.6c-12.05,30.79-12.05,30.79-15,35.72-3.75,6.25-9.88,10-11.05,7.7-.49-1-.49-1,5.71-15.82-9.61,4.53-22.42,10.58-32.1,15-5.12,13.91-13.69,37.19,15.62,23.69,41.41-19.09,57.71-62.66,66.46-86.06,13.08-38.55,27.91-82.24,1.7-79.76" transform="translate(-284.18 -97.6)"/></g></g></g></g><path class="cls-10" d="M1260.86,427.78S1374.28,552.87,1323,620.47s-136.17-67.16-123.43-88.76C1195.86,522.66,1209.88,479.52,1260.86,427.78Z" transform="translate(-284.18 -97.6)"/><path class="cls-10" d="M1273.6,418s105.78,98.26,120.5,82.07,5.73-87.55-26.44-114.19S1273.6,418,1273.6,418Z" transform="translate(-284.18 -97.6)"/><path class="cls-10" d="M1258.69,401.78c4,2.93,50.15-80.29,5.73-112.4s-80.67-38.93-79.65-11.6S1226.77,377.82,1258.69,401.78Z" transform="translate(-284.18 -97.6)"/><path class="cls-10" d="M1247,412s-140.82-142-167.78-116,7.84,133.3,22.37,147.51S1157.25,503.29,1247,412Z" transform="translate(-284.18 -97.6)"/><path class="cls-10" d="M487.25,497l30.38,141.94q18.63-4,37.37-7.45l6.61,35.71q-48.28,9.16-95.81,21.42L419.66,513.1Q453.32,504.41,487.25,497Z" transform="translate(-284.18 -97.6)"/><path class="cls-10" d="M704.3,573.35c.8,12.88,1.91,25.94,1,38.75-.53,7.59-3.73,14.82-9,21.53s-14.57,13.09-22.38,16.5a124.79,124.79,0,0,1-33.86,8.82,129.06,129.06,0,0,1-34-.15c-8.53-1.26-19.13-5-26.17-10.31S567.82,637,565.44,629.94c-4.11-12.29-6.35-25.45-8.64-38.31l-5.45-30.57c-2.15-12.73-4.68-25.63-5-38.45-.18-7.61,2.59-15.2,7.93-22.47,5.64-7.68,15.59-14.7,24.12-18.5a136.64,136.64,0,0,1,38.41-10.36,140.81,140.81,0,0,1,38.66.5c9.32,1.46,20.85,5.79,28.33,11.83,7.2,5.8,11.9,12.46,13.63,19.77,3,12.56,3.83,26,4.67,39Zm-70.84-53.26q-1.47-12.58-3.87-15.85c-1.61-2.18-4.5-3-8.66-2.51q-5.28.65-7.71,3.85t-.6,17.09l11,84q2.06,15.67,4.22,19.12t8.3,2.67c4.19-.52,6.71-2.24,7.55-5.2s.65-9.74-.59-20.36Z" transform="translate(-284.18 -97.6)"/><path class="cls-10" d="M861.52,464.78l-1.42,36.29q-20-.78-40-1L818.39,645.2q-30.37-.23-60.7.67l-4.92-145.08q-19.91.68-39.8,1.89l-2.21-36.25Q786.15,462.16,861.52,464.78Z" transform="translate(-284.18 -97.6)"/><path class="cls-10" d="M1015.75,478.78l-5.14,36q-19.84-2.83-39.74-5.13L954.26,653.81q-30.22-3.35-60.51-5.57l10-144.82q-19.88-1.37-39.79-2.2l1.52-36.29Q941,468.43,1015.75,478.78Z" transform="translate(-284.18 -97.6)"/><path class="cls-10" d="M1159.42,616.11c-3.4,12.45-6.55,25.18-11.53,37-3,7-8.34,12.82-15.52,17.47-7.36,4.76-18.12,7.68-26.64,8.38a126.06,126.06,0,0,1-35-2.58,129.55,129.55,0,0,1-32.26-11.11c-7.67-3.94-16.51-10.91-21.47-18.19s-7.72-14.71-7.68-22.2c.06-13,2.18-26.14,4.14-39.05l4.67-30.7c2.06-12.74,3.81-25.76,7.65-38,2.28-7.26,7.34-13.56,14.73-18.72,7.81-5.46,19.5-8.91,28.79-9.75a137.05,137.05,0,0,1,39.79,2.56c12.66,2.63,25.81,6.57,36.6,12.95,8.69,5.13,17.45,11.38,23.18,20.36,5,7.82,7.33,15.65,6.62,23.12-1.22,12.85-4.75,25.88-8.12,38.43Zm-50.29-73.32q2.66-12.38,1.43-16.26c-.82-2.58-3.31-4.31-7.42-5.17q-5.23-1.08-8.57,1.16t-6.08,16l-16.59,83.1q-3.09,15.5-2.15,19.46c.63,2.64,3,4.37,7,5.21s7.1,0,8.86-2.49,3.75-9,6-19.47Z" transform="translate(-284.18 -97.6)"/><path class="cls-11" d="M522.68,820.9q-25.46,6.33-50.66,13.53-3.54-12.17-4.78-15.25a7.84,7.84,0,0,0-4.6-4.43,12.11,12.11,0,0,0-8.07.07,10.39,10.39,0,0,0-5.85,4,8,8,0,0,0-1.29,6.15q.62,3.33,3.64,13.07l8.57,27.62a24.65,24.65,0,0,1,7.94-13.84c4.22-3.8,10-6.76,17.25-8.81,9.16-2.58,17.88-2.59,26-.07s13.85,6.66,17.23,12.3,6.31,13.66,8.83,24l3.42,14.05c2.1,9.2,4.45,18.53,5.21,27.92a36.09,36.09,0,0,1-3.76,18.67c-3,6.18-7.72,11.63-14.26,16.43a74.57,74.57,0,0,1-24.22,11.45c-9.85,2.72-20.35,5.28-30.91,4.45-8.67-.68-16.15-3.21-22.41-7.7a42.54,42.54,0,0,1-14-16.13c-5.76-12.08-10.16-25-14.78-37.69l-8.51-23.63c-4.84-13.6-10.07-27.27-13.62-41.15-1.8-7-1.2-14.64,1.8-22.58s8.59-15,16.54-21.07c9-6.89,19.58-11.11,30-14.57,11.85-3.93,25.32-6,38-4.37,10.47,1.37,18.7,5.44,24.55,11.61C516.17,801.53,520.9,812.1,522.68,820.9Zm-34.84,67.89q-2.69-9.26-6-12c-2.19-1.85-5-2.26-8.48-1.22s-5.51,2.86-6.39,5.52-.33,7.17,1.64,13.52l9.74,31.36q3.56,11.46,6.75,14.34c2.13,1.93,4.8,2.39,8,1.42,2-.59,3.72-2.11,5.31-4.56s1.21-7.7-1.13-15.73Z" transform="translate(-284.18 -97.6)"/><path class="cls-10" d="M627.33,751.64Q656,839,680.48,927.71c-16.31,1.88-32.57,4.23-48.77,6.88q-3.95-15.88-7.94-31.75c-7,1.18-10.53,1.79-17.53,3.09q1.5,16.31,3.06,32.61c-16.38,3-32.67,6.55-48.89,10.37Q551.63,857.58,546.78,766,586.87,757.65,627.33,751.64Zm-10.2,119.69c-7.36-24.47-14.16-49.1-20.9-73.75.48,25.61,1,51.31,3.53,76.82C606.7,873.12,610.17,872.51,617.13,871.33Z" transform="translate(-284.18 -97.6)"/><path class="cls-10" d="M796.91,739.12q.28,60.64.56,121.28c-.08,9.61.18,19.53-1.28,29-.85,5.53-3.64,11.31-8.11,17.23a44.09,44.09,0,0,1-17.59,13.73c-7.26,3.25-15.95,5-25.73,5.65-9.28.64-20.6-.34-29.53-3.34-8.66-2.91-15.53-6.9-20.34-12.19a38.26,38.26,0,0,1-9.47-17.32c-2.88-13-4.05-26.59-5.57-39.93L668.11,746.47q28.09-2.94,56.24-4.88L733,877.4q.76,11.86,2.31,15.07t5.64,3c3.12-.18,5.06-1.49,5.84-4s.94-8.22.48-17.25l-6.74-133.56Q768.72,739.39,796.91,739.12Z" transform="translate(-284.18 -97.6)"/><path class="cls-10" d="M932,801.17c-16.59-1.86-33.23-3.3-49.89-4.45L883,783.3q.64-9.39-1.15-12.09c-1.19-1.8-3.32-2.8-6.37-3a8.69,8.69,0,0,0-7.71,3q-2.73,3.33-3.09,10.39c-.32,6,.44,10.67,2.09,13.81s6.48,7.12,14.46,12c14.63,9.38,32.76,19.58,41.53,34.42,6.5,11,6.46,26.77,4.57,39.41-1.39,9.31-2.66,19.73-7.94,27.88-3.71,5.73-10.43,10.15-19.53,13.51-10.09,3.72-21.22,4.45-31.23,3.8-10.73-.7-22.55-3-32.58-8.73-8.86-5.1-14.93-11.26-17.66-18.68-3.69-10-3.68-21-4-31.56l.13-11.88c15.81.19,31.62.65,47.4,1.52l-1.18,22.05q-.54,10.19,1.24,13.2c1.18,2,3.41,3.11,6.68,3.31a8.21,8.21,0,0,0,7.56-3.22q2.66-3.52,3.18-10.79c.75-10.66-.29-18-3.24-21.24-6.28-6.87-15-12.47-23.07-17.78-8.52-5.61-17.42-11.22-25.16-17.78-4.15-3.52-7.61-8.52-10.34-14.76s-4-14.23-4-23.81c0-10.15,1-21.77,6.56-30.41,4.1-6.32,11.21-11.33,20.75-14.61,11-3.78,23-4.56,34.54-3.88,12.6.74,25.53,3.15,36.95,8.7,9.89,4.81,16.34,10.63,18.8,16.88,3.72,9.41,2.79,21,1.56,31Z" transform="translate(-284.18 -97.6)"/><path class="cls-11" d="M1067.8,768l-25.55,115.81c5.47,1.21,8.2,1.83,13.66,3.1l-7,30.12c-5.31-1.24-8-1.84-13.28-3l-6.88,31.2q-22.68-4.86-45.47-9l5.5-31.47q-27.95-4.72-56-8.28l3.72-30.71Q965,809.16,997.09,754.56,1032.64,760.42,1067.8,768ZM994.06,874.3l13.29-76.08q-17.92,36-34.68,72.56C981.23,872.1,985.51,872.8,994.06,874.3Z" transform="translate(-284.18 -97.6)"/><path class="cls-11" d="M1062.39,903.56c15.76,3.86,31.45,8,47,12.56q-3.54,12.17-4.13,15.44a8.41,8.41,0,0,0,1.23,6.14,10.17,10.17,0,0,0,6,4.12,8.76,8.76,0,0,0,6.39-.28,8.09,8.09,0,0,0,4.17-4.46q1.28-3.12,4.31-12.86L1136,896.6a24.51,24.51,0,0,1-13.78,7.22c-5.39.92-11.53.38-18.49-1.58a44.7,44.7,0,0,1-21.36-12.74c-5.59-6.08-8.61-12.36-9-18.91s.72-15,3.25-25.4l3.42-14.05c2.38-9.12,4.57-18.54,8.44-27.13a33.52,33.52,0,0,1,13.09-14.47c6.13-3.88,13.93-6.07,23.25-6.59,10.64-.6,21.13,1.63,31.14,4.33,11.48,3.1,23.29,8.22,32.89,15.64,7.86,6.07,13.15,13.1,15.87,20.74s3.26,14.94,1.62,21.69c-3.15,12.94-8,25.78-12.56,38.37l-8.54,23.73c-4.93,13.55-9.65,27.38-15.58,40.44-3,6.62-8,12.19-14.69,16.73a46.1,46.1,0,0,1-23.1,7.59,76.39,76.39,0,0,1-28.21-3.78c-10.28-3.52-20.9-7.33-29.3-14.73-7-6.13-11.4-13.27-13.23-21.36C1059.12,923.5,1060,912.22,1062.39,903.56Zm62.84-41.79q-3.2,11-.76,14.49a10.85,10.85,0,0,0,5.77,4.53q5,1.51,8.37-1t6.32-12.07l9.74-31.36q3.56-11.45,2.31-15.71c-.84-2.84-3.08-4.82-6.72-5.91a11.73,11.73,0,0,0-7.67.7q-4.36,1.7-7.86,13.76Z" transform="translate(-284.18 -97.6)"/></svg>