<svg id="Layer_1" data-name="Layer 1" xmlns="http://www.w3.org/2000/svg" xmlns:xlink="http://www.w3.org/1999/xlink" viewBox="0 0 1198.46 1198.46"><defs><style>.cls-1{fill:url(#radial-gradient);}.cls-2{fill:#4096ff;}.cls-3{fill:#0758a8;}.cls-4{fill:#26daff;}.cls-5{fill:#1269ff;}.cls-6{fill:url(#radial-gradient-2);}</style><radialGradient id="radial-gradient" cx="1034.56" cy="95.36" r="780.85" gradientTransform="matrix(1, 0, 0, -1, -283.17, 466.07)" gradientUnits="userSpaceOnUse"><stop offset="0" stop-color="#fff"/><stop offset="0.03" stop-color="#fff"/><stop offset="0.42" stop-color="#f2f2f2"/><stop offset="0.65" stop-color="#e8e8e8"/><stop offset="0.76" stop-color="#e1e1e1"/><stop offset="0.91" stop-color="#cecece"/><stop offset="1" stop-color="silver"/></radialGradient><radialGradient id="radial-gradient-2" cx="1038.42" cy="36.57" r="360.2" gradientTransform="matrix(1, 0, 0, -1, -283.79, 465.58)" gradientUnits="userSpaceOnUse"><stop offset="0.52" stop-color="#fff" stop-opacity="0.4"/><stop offset="1" stop-color="#fff" stop-opacity="0"/></radialGradient></defs><title>the_national_lottery_Logo</title><circle class="cls-1" cx="599.23" cy="599.23" r="599.23"/><path class="cls-2" d="M637.51,400.76a32.39,32.39,0,0,0-16.18-3.29c-9.6.55-19.74,4.93-29.88,13.16a122.8,122.8,0,0,0-13.71,13.16c-1.64-1.1-3.29-2.19-4.66-3l-.27-.27A40.78,40.78,0,0,0,544,415.56a45.08,45.08,0,0,0-16.18,5.76c-14.53,10.69-16.72,30.43-6.31,59.22q2.88,7.81,7.4,19.74v.27c.82,2.47,1.92,5.21,3,8a1,1,0,0,0,.27.55c0,.27.27.27.27.55.55,1.1.82,2.19,1.37,3.29v.55h.27a7,7,0,0,1,.55,1.92c.55,1.64,1.37,3,1.92,4.66.27.55.27,1.1.55,1.64q21,53.46,36.19,144.75c.55.27.82.55,1.37.82,19.19,12.34,42.77,22.21,70.73,29.88l3.29.82c.55.27,1.37.27,1.64.55a69.13,69.13,0,0,1,9,3.56q-9-118.85-30.43-187.25c0-.55-.27-.82-.55-1.64l.27-.55c26.87-50.72,32.62-85.54,17.82-104.18-1.92-3-4.93-5.48-9-7.68ZM545.94,643.93a70.37,70.37,0,0,0-9-9c-7.13-6.31-14.53-9-22.48-8.22-4.93.27-9.87,2.19-15.08,4.93A34.83,34.83,0,0,0,484,648.87c-3.56,8.5-4.11,18.37-1.64,29.33A97.75,97.75,0,0,0,493,703.7a79.79,79.79,0,0,0,20.56,24.67c1.64,1.37,3.56,2.74,5.48,4.11a11.92,11.92,0,0,1,1.92,1.1c13.71,8.77,31,15.08,52.09,18.92a141.08,141.08,0,0,1,21.38-15.08c-8,4.66-15.35,9.6-21.38,15.08q-37.83,32.9-32.08,88a168.93,168.93,0,0,0,4.66,24.67A176,176,0,0,1,541,840.5c-4.11-36.74,6.58-66.07,31.8-88.28-21.11-3.84-38.38-10.14-52.09-18.92a11.92,11.92,0,0,0-1.92-1.1,32,32,0,0,1-8,11.51A34.63,34.63,0,0,1,493,750.85a20.25,20.25,0,0,1-5.76,0c-12.89-1.1-21.66-8.22-26.87-21.38a48.22,48.22,0,0,1-4.11,13.43,35.12,35.12,0,0,1-3,5.48c-8.22,12.06-18.92,15.63-32.35,10.69a5.75,5.75,0,0,1-1.64-1.1c-18.37-9.87-30.16-37.83-35.64-84.44,5.48,46.33,17.27,74.57,35.64,84.44a5.74,5.74,0,0,0,1.64,1.1c13.43,4.93,24.13,1.37,32.35-10.69a35.12,35.12,0,0,0,3-5.48,48.22,48.22,0,0,0,4.11-13.43q2.88-18.51-3.29-46.88c-8.77-37.28-19.46-62.51-31.8-75.39a41.31,41.31,0,0,0-6.31-5.76c-.55-.55-1.37-.82-1.92-1.37-15.35-7.4-29.61-1.1-42.49,18.92-11,17.27-17,41.67-18.37,73.2-.27,8,0,16.45.27,25.5a289.6,289.6,0,0,0,17.27,87.18q53.46,143.93,173.81,131.32,81.83-9.87,119.81-96a189.24,189.24,0,0,0,13.16-44.69q11.93-75.67-20.56-93.76a44.43,44.43,0,0,0-9-3.56,3.89,3.89,0,0,1-1.64-.55l-3.29-.82C618,689.17,594.47,679,575.28,667c-.55-.27-.82-.55-1.37-.82a44.69,44.69,0,0,1-4.66-3,164,164,0,0,1-23.3-19.19Zm-38.38-38.38a40.36,40.36,0,0,0-2.74-6,25.45,25.45,0,0,1-1.37-2.74c-1.37-2.47-2.74-4.93-4.39-7.4-10.69-16.45-24.13-23.3-39.75-20.56-18.09,3-29.33,15.9-34,38.38,12.34,12.88,22.75,38.11,31.8,75.39q6.17,28.37,3.29,46.88c4.93,13.16,14,20.29,26.87,21.38a20.23,20.23,0,0,0,5.76,0,34.63,34.63,0,0,0,17.82-7.13,32,32,0,0,0,8-11.51c-1.92-1.37-3.56-2.74-5.48-4.11a74,74,0,0,1-20.56-24.67,108.17,108.17,0,0,1-10.69-25.5c-2.47-11-2.19-20.84,1.64-29.33,3.29-7.68,8.22-13.43,15.35-17.27a33.68,33.68,0,0,1,15.08-4.93,133,133,0,0,0-6.58-20.84Zm29.61-84.44a3.9,3.9,0,0,0-.55-1.64c-.55-1.37-1.37-3-1.92-4.66a5.08,5.08,0,0,1-.55-1.92c-12.89,35.91-21.66,66.62-26.87,92.39a132.64,132.64,0,0,1,6.85,20.84c8-.82,15.35,2.19,22.48,8.22a70.37,70.37,0,0,1,9,9,145,145,0,0,0,23,19.19,27.16,27.16,0,0,0,4.66,3C563.49,605.28,551.15,557,537.17,521.11Z" transform="translate(-283.23 -98.04)"/><path class="cls-3" d="M663,700.14c-6-78.41-16.18-141.19-30.43-186.15v-.27c27.14-52.09,32.9-87.18,17-106.92A30.7,30.7,0,0,0,638.88,398a35.28,35.28,0,0,0-17.82-3.56c-10.42.55-20.84,5.21-31.53,13.71a118.32,118.32,0,0,0-12.06,11.51,11.11,11.11,0,0,0-2.47-1.37,1,1,0,0,0-.55-.27c-9.87-5.76-20.29-7.68-31-5.48a40.65,40.65,0,0,0-17.27,6.58c-15.9,11.51-18.37,32.62-7.4,62.78,1.92,4.94,4.39,11.51,7.13,19.46v.55c1.1,2.74,1.92,5.21,3,8l.27.55c0,.27,0,.55.27.55.27.82.82,1.92,1.1,2.74-11,31-19.19,58.67-24.4,82-1.37-2.74-3-5.21-4.39-7.68-11.51-17.55-26-24.95-43-21.93-17.82,3-29.61,15.08-35.09,35.37a9.85,9.85,0,0,0-2.74-1.92,19.24,19.24,0,0,0-2.47-1.64c-17-8.22-32.9-1.64-46.61,20-11.24,17.55-17.55,42.77-18.64,74.84-.27,8-.27,16.72.27,25.77.82,29.33,6.85,58.94,17.55,88.28,33.17,89.1,86.36,134.34,157.64,134.34a153,153,0,0,0,19.19-1.1c55.65-6.58,96.78-39.75,122.27-97.87a172.14,172.14,0,0,0,13.16-45.51C691.79,745.37,684.66,713.29,663,700.14Zm-69.36-287q14.39-11.51,28-12.34a28.9,28.9,0,0,1,14.53,3,26.72,26.72,0,0,1,8.5,6.85c13.43,16.72,8.22,48.53-14.8,94.31-14.26-40-30.16-67.44-47.15-81.42A97.25,97.25,0,0,1,593.64,413.1Zm-68.81,66.35c-9.87-27.14-8-45.78,5.21-55.38a40.74,40.74,0,0,1,14.8-5.48c9.32-1.92,17.82-.27,26.32,4.66l.27.27a35.72,35.72,0,0,1,4.11,2.74l.27.27c17.82,13.16,34.82,42.77,49.9,87.45v.55l.27,1.1c13.71,43.86,23.85,104.73,29.88,180.94-1.37-.55-3-1.1-4.39-1.64-.55-.27-1.37-.27-1.92-.55l-3.29-.82c-27.69-7.68-51.27-17.82-70.18-29.61h0q-15.22-90.47-36.19-144.48l-2.47-5.76a3.9,3.9,0,0,1-.55-1.64,1,1,0,0,0-.27-.55h0a20.82,20.82,0,0,1-1.1-3,1,1,0,0,0-.27-.82l-.27-.82c-1.1-2.47-1.92-4.93-2.74-7.4,0-.27,0-.27-.27-.55C529.22,491.23,526.75,484.65,524.83,479.44Zm9.6,43c13.16,34,24.95,79.78,34.82,136.8A145.48,145.48,0,0,1,548.68,642a63.34,63.34,0,0,0-9.6-9.6c-6.85-6-14.26-9-21.93-9a123,123,0,0,0-6-17.82C515.51,582,523.46,554.29,534.43,522.48Zm-23,207.81A40.34,40.34,0,0,0,515,733a26.38,26.38,0,0,1-6,8,30.89,30.89,0,0,1-16.18,6.58,16.6,16.6,0,0,1-5.21,0c-11.24-.82-19.19-6.85-23.85-18.37,1.92-12.61.82-28.51-3.29-47.43-8.77-37-19.19-61.68-31.25-75.39,4.39-20.29,14.53-31.53,30.71-34.27,14.53-2.47,26.59,3.84,36.46,19.19,1.37,2.19,2.74,4.66,4.11,7.13.55.82.82,1.64,1.37,2.47.82,1.92,1.92,3.84,2.74,5.76a123.24,123.24,0,0,1,5.76,17A38.77,38.77,0,0,0,498,628.58a39.39,39.39,0,0,0-17,18.92q-5.76,13.57-1.64,31.25c1.92,8.22,5.76,17,10.69,26M677.26,795a170.67,170.67,0,0,1-12.89,43.86c-24.67,56.2-63.88,87.73-117.06,94.31C469.18,941.39,411.88,898.07,377.06,804a274.47,274.47,0,0,1-17-86.36c-.27-8.77-.55-17.27-.27-25.22,1.1-31,7.13-55.1,17.55-71.55,8.77-13.71,18.09-20.56,27.69-20.56a22.17,22.17,0,0,1,10.69,2.74,11.92,11.92,0,0,0,1.92,1.1,33,33,0,0,1,5.76,5.21h0c11.79,12.34,22.21,37.28,31,74,4.11,18.37,5.21,33.72,3,45.78h0a42.51,42.51,0,0,1-3.84,12.61,29.65,29.65,0,0,1-3,4.93c-7.4,10.69-16.72,14-28.24,9.6l-1.64-.82c-17.27-9.32-28.79-37-34-82a3.18,3.18,0,1,0-6.31.82c5.76,48,17.82,76.49,37.28,86.91a6.77,6.77,0,0,0,2.47,1.1c14.53,5.48,27.14,1.37,35.91-11.79a25.8,25.8,0,0,0,3.29-6,32.68,32.68,0,0,0,2.19-5.48c5.76,9,14.26,14.26,25.5,15.08a24.27,24.27,0,0,0,6.31,0,36.51,36.51,0,0,0,19.74-8,35,35,0,0,0,7.13-9.32c12.34,7.68,27.69,13.43,45.78,17.27-22.48,22.21-32.08,51.27-28.24,86.63A183,183,0,0,0,542.38,866a3.13,3.13,0,0,0,6-1.65A170.26,170.26,0,0,1,544,840c-3.84-35.37,6.58-64.15,31-85.26h0a124.21,124.21,0,0,1,21.11-14.53,3.2,3.2,0,1,0-3.29-5.48A153.91,153.91,0,0,0,572,748.93c-19.74-3.84-36.46-9.87-49.07-18.09a6.87,6.87,0,0,0-1.92-1.1c-1.92-1.37-3.56-2.47-5.21-3.84A77.52,77.52,0,0,1,496,702.33a100.08,100.08,0,0,1-10.14-24.67c-2.47-10.42-2.19-19.46,1.37-27.14a31.15,31.15,0,0,1,14.26-15.9A35.82,35.82,0,0,1,515,630h0c7.13-.55,13.71,1.92,20,7.68a70.19,70.19,0,0,1,9,9,135,135,0,0,0,23.3,19.46,44.61,44.61,0,0,0,4.66,3c.55.27.82.55,1.37.82,19.46,12.34,43.59,22.48,71.83,30.43l3.29.82c.55,0,1.1.27,1.64.27a36.81,36.81,0,0,1,8.22,3.29h0C678.63,716,684.94,746.19,677.26,795Z" transform="translate(-283.23 -98.04)"/><path class="cls-3" d="M767.93,561.48H730.08V449.12H709.2V413.71h80.42v35.41h-21.7Z" transform="translate(-283.23 -98.04)"/><path class="cls-3" d="M884.39,561.48H848V506.74q0-7.08-1.32-9.86a4.67,4.67,0,0,0-4.58-2.78q-7.63,0-7.62,15.22v52.16h-36.4V399.84h36.4v57.8q0,4.69,0,7.85t-.13,4.78q-.09,1.63-.27,3.45t-.36,4q8.8-21.92,25.78-21.92,11.8,0,18.33,9.28t6.63,25.84Z" transform="translate(-283.23 -98.04)"/><path class="cls-3" d="M951.38,526.45l35.58.77q-3.81,18.08-14.84,27.23t-28.82,9.14q-21.06,0-33-13.78-11.89-14-11.89-38.18,0-24.6,12.8-40.1t33-15.6q20.15,0,32.13,15t12,40.1l-.18,6.79H934.76q.64,15.89,8.53,15.89Q949.47,533.72,951.38,526.45Zm.82-29.29a20.54,20.54,0,0,0-.64-5.26,14,14,0,0,0-1.77-4.12,9.33,9.33,0,0,0-2.68-2.73,6,6,0,0,0-3.36-1,7.08,7.08,0,0,0-6.17,3.68,17.19,17.19,0,0,0-2.36,9.43Z" transform="translate(-283.23 -98.04)"/><path class="cls-3" d="M709.2,740V592.19h36.13l19,51.87q1.54,4.6,3.49,10.53t4.31,13.69l3.9,13q-2.09-19.24-3.18-32.92t-1.09-23V592.19h36.13V740H771.74L752.68,685.6q-3-8.71-5.4-16.32t-4.22-14.5q1.18,15.6,1.72,27.18t.55,20.29V740Z" transform="translate(-283.23 -98.04)"/><path class="cls-3" d="M916.34,740H879.85q.45-5.17.73-9.86t.55-7.56q-9.44,19.52-25.33,19.52-13.8,0-21.88-14.55t-8-40q0-24.69,8.26-38.85,8.26-14.36,22.51-14.36,14.61,0,23.6,18.57-.18-1.91-.27-3.35t-.18-2.39l-.36-6-.27-4.59h37.13Zm-36.85-53q0-5.74-.41-9.76a28.45,28.45,0,0,0-1.32-6.56A7.69,7.69,0,0,0,875.4,667a5.7,5.7,0,0,0-3.54-1.1q-9.26,0-9.26,25.94,0,18.57,8.26,18.57Q879.48,710.39,879.48,686.94Z" transform="translate(-283.23 -98.04)"/><path class="cls-3" d="M974.52,740H938V667.42H927.68V636.5H938V606.07h36.49V636.5h12.07v30.91H974.52Z" transform="translate(-283.23 -98.04)"/><path class="cls-3" d="M1035.88,604.44a22,22,0,0,1-6.26,15.69,20.44,20.44,0,0,1-15,6.51,20,20,0,0,1-15.07-6.6,22.87,22.87,0,0,1-6.17-15.88,22.11,22.11,0,0,1,6.17-15.79,20.45,20.45,0,0,1,15-6.51,20,20,0,0,1,15.16,6.6A22.35,22.35,0,0,1,1035.88,604.44ZM1032.8,740H996.31V636.5h36.49Z" transform="translate(-283.23 -98.04)"/><path class="cls-3" d="M1138.09,689.81q0,23.92-12.53,38.09T1092,742.06q-20.7,0-33-14.45t-12.16-39q0-24.5,12.44-39.33t32.77-14.93q21.51,0,33.77,14.83T1138.09,689.81Zm-35.31-1.24a67.74,67.74,0,0,0-.72-10.38,35.34,35.34,0,0,0-2.09-7.94,14.78,14.78,0,0,0-3.27-5.12,6,6,0,0,0-4.27-1.82q-4.63,0-7.44,6.89-2.81,6-2.81,18.09,0,11.87,2.81,18.09,2.81,6.89,7.53,6.89,4.45,0,7.35-6.8A49.89,49.89,0,0,0,1102.78,688.57Z" transform="translate(-283.23 -98.04)"/><path class="cls-3" d="M1238.48,740h-36.4V685.22q0-7.08-1.32-9.86a4.66,4.66,0,0,0-4.58-2.78q-7.62,0-7.62,15.22V740h-36.4V636.5h36.4q-.09,3.83-.18,7.08t-.27,6l-.36,6.6q8.8-21.92,25.78-21.92,11.8,0,18.34,9.28t6.62,25.84Z" transform="translate(-283.23 -98.04)"/><path class="cls-3" d="M1342.87,740h-36.49q.45-5.17.73-9.86t.54-7.56q-9.44,19.52-25.32,19.52-13.8,0-21.88-14.55t-8-40q0-24.69,8.26-38.85,8.26-14.36,22.51-14.36,14.61,0,23.6,18.57-.18-1.91-.27-3.35t-.18-2.39l-.36-6-.27-4.59h37.13Zm-36.85-53q0-5.74-.41-9.76a28.65,28.65,0,0,0-1.32-6.56,7.7,7.7,0,0,0-2.36-3.64,5.7,5.7,0,0,0-3.54-1.1q-9.26,0-9.26,25.94,0,18.57,8.26,18.57Q1306,710.39,1306,686.94Z" transform="translate(-283.23 -98.04)"/><path class="cls-3" d="M1396.06,740h-36.4V578.32h36.4Z" transform="translate(-283.23 -98.04)"/><path class="cls-3" d="M775.46,925.53H709.2V777.76H747V890h28.41Z" transform="translate(-283.23 -98.04)"/><path class="cls-3" d="M873.76,875.38q0,23.92-12.53,38.09t-33.59,14.17q-20.7,0-32.95-14.45t-12.17-39q0-24.5,12.44-39.33t32.77-14.93q21.51,0,33.77,14.83T873.76,875.38Zm-35.31-1.24a67.48,67.48,0,0,0-.73-10.38,35.34,35.34,0,0,0-2.09-7.94,14.78,14.78,0,0,0-3.27-5.12,6,6,0,0,0-4.27-1.82q-4.63,0-7.44,6.89-2.82,6-2.82,18.09,0,11.87,2.82,18.09,2.81,6.89,7.53,6.89,4.45,0,7.35-6.8A49.89,49.89,0,0,0,838.45,874.13Z" transform="translate(-283.23 -98.04)"/><path class="cls-3" d="M929.41,925.53H892.91V853H882.57V822.07h10.35V791.64h36.49v30.43h12.07V853H929.41Z" transform="translate(-283.23 -98.04)"/><path class="cls-3" d="M992.67,925.53H956.18V853H945.83V822.07h10.35V791.64h36.49v30.43h12.07V853H992.67Z" transform="translate(-283.23 -98.04)"/><path class="cls-3" d="M1065.83,890.5l35.58.77q-3.81,18.08-14.84,27.23t-28.82,9.14q-21.06,0-33-13.78-11.89-14-11.89-38.18,0-24.6,12.8-40.1t33-15.6q20.15,0,32.13,15t12,40.1l-.18,6.79h-53.37q.63,15.89,8.53,15.89Q1063.92,897.77,1065.83,890.5Zm.82-29.29A20.54,20.54,0,0,0,1066,856a13.87,13.87,0,0,0-1.77-4.12,9.28,9.28,0,0,0-2.68-2.73,6,6,0,0,0-3.36-1,7.09,7.09,0,0,0-6.17,3.68,17.19,17.19,0,0,0-2.36,9.43Z" transform="translate(-283.23 -98.04)"/><path class="cls-3" d="M1153.25,925.53h-36.4V822.07h36.4l-1.91,20.19q8.26-22.68,27.32-22.68v43.07q-6-3.45-10.17-3.44-7.35,0-11.3,5.6t-4,16.32Z" transform="translate(-283.23 -98.04)"/><path class="cls-3" d="M1236.12,968.88h-37.49l15.89-47.66-29.14-99.15H1222l7,29.67q1.45,6.12,2.59,13.35t2,15.65l1.27-9.48q2.54-18.08,4.63-26.79l5.45-22.4h36.4Z" transform="translate(-283.23 -98.04)"/><polygon class="cls-2" points="659.59 40.28 712.95 137.85 810.53 191.22 712.95 244.59 659.59 342.17 606.22 244.59 508.64 191.22 606.22 137.85 659.59 40.28"/><polygon class="cls-4" points="882.73 289.28 919.04 330.37 971.78 345.38 930.68 381.69 915.67 434.44 879.36 393.34 826.62 378.33 867.72 342.02 882.73 289.28"/><polygon class="cls-5" points="636.09 917.55 659.55 974.88 710.23 1010.5 652.9 1033.95 617.29 1084.64 593.83 1027.31 543.15 991.7 600.48 968.24 636.09 917.55"/><circle class="cls-6" cx="659.71" cy="552.96" r="497.93"/></svg>