<svg id="Layer_1" data-name="Layer 1" xmlns="http://www.w3.org/2000/svg" xmlns:xlink="http://www.w3.org/1999/xlink" viewBox="0 0 1184.88 1184.88"><defs><style>.cls-1{fill:url(#radial-gradient);}.cls-2{fill:url(#radial-gradient-2);}.cls-3{fill:#aa6f1a;}.cls-4{fill:#e5971a;}.cls-5{fill:#ef7a1c;}.cls-6{fill:#ffd009;}.cls-7{fill:#fff;}.cls-8{fill:#1ca6e0;}</style><radialGradient id="radial-gradient" cx="624.72" cy="498.84" r="655.63" gradientUnits="userSpaceOnUse"><stop offset="0.31" stop-color="#1ca6e0"/><stop offset="0.48" stop-color="#1ba4dd"/><stop offset="0.59" stop-color="#179cd4"/><stop offset="0.69" stop-color="#108fc5"/><stop offset="0.78" stop-color="#077db0"/><stop offset="0.81" stop-color="#0375a6"/><stop offset="1" stop-color="#003e75"/></radialGradient><radialGradient id="radial-gradient-2" cx="1127.46" cy="507.9" r="725.2" gradientTransform="translate(-16.31 -12.92)" gradientUnits="userSpaceOnUse"><stop offset="0" stop-color="#fff"/><stop offset="0.77" stop-color="#ffd009"/><stop offset="1" stop-color="#d49a07"/></radialGradient></defs><title>lotto_poland_Logo</title><g id="Layer_1-2" data-name="Layer 1-2"><circle class="cls-1" cx="592.44" cy="592.44" r="592.44"/><circle class="cls-2" cx="901.31" cy="656.4" r="527.48" transform="translate(-322.41 -72.27) rotate(-2.26)"/><path class="cls-3" d="M550.2,335.73c-1.49,16.26-3.55,38-4.4,54.31-13.82,9.78-32.36,22.59-46,32.65l43.2,5.4c2,15.77,4.29,36.85,6.76,52.52,9.29-14.93,21.42-35.16,31-49.75,14.84-2.08,34.55-5,49.46-7-8.26-11.26-19.5-26.16-27.49-37.64,6.51-15,15.74-35.22,22.82-50.21-14.55,9.38-34,21.87-48.49,31.47C568.91,358,558,345.37,550.2,335.59" transform="translate(-297.27 -108.25)"/><path class="cls-4" d="M1338.48,595.42c-6.31,20.28-13.91,47.23-20.66,67.24-17.16-2.81-40-6.6-57.2-9.12,11.76,15.38,27.63,35.79,38.9,51.54-6.36,18.94-14,44.11-20.54,62.91l48.82-23.24c10.6,11.23,25,26.09,35,37.77.63-20,1.72-46.6,1.64-66.57,11.14-11.24,26-26.11,36.88-37.62-14.34-3.34-33.77-7.76-48.31-10.74-4.12-21.65-9.6-50.64-14.49-72.11" transform="translate(-297.27 -108.25)"/><path class="cls-4" d="M1053.52,296.16c-102.06,6.43-204.1,29.35-331.05,73.07,28.13-7.36,680.51-175,646.23,271.75,1.14-3.6,112.18-357.32-315.25-344.82" transform="translate(-297.27 -108.25)"/><path class="cls-3" d="M523.94,446.54C369.62,572.83,345,773.73,532.26,798.47,703,821,1027.48,769.94,1193.09,728.25,629.94,774.66,629.94,774.66,546.63,743c-179-68.05-43.85-274.65-42-276.71A134.89,134.89,0,0,1,524,446.46m1-.82-1,.82,1-.82" transform="translate(-297.27 -108.25)"/><path class="cls-5" d="M557.87,325.55c-1.49,16.26-3.55,38-4.4,54.31-13.82,9.78-32.36,22.59-46,32.65l43.2,5.4c2,15.77,4.29,36.85,6.76,52.52,9.29-14.93,21.42-35.16,31-49.75,14.84-2.08,34.55-5,49.46-7-8.26-11.26-19.5-26.16-27.49-37.64,6.51-15,15.74-35.22,22.82-50.21-14.55,9.38-34,21.87-48.49,31.47-8.12-9.49-19.06-22.13-26.83-31.91" transform="translate(-297.27 -108.25)"/><path class="cls-6" d="M1346.15,585.24c-6.31,20.28-13.91,47.23-20.66,67.24-17.16-2.81-40-6.6-57.2-9.12,11.76,15.38,27.63,35.79,38.9,51.54-6.36,18.94-14,44.11-20.54,62.91l48.82-23.24c10.6,11.23,25,26.09,35,37.77.63-20,1.72-46.6,1.64-66.57,11.14-11.24,26-26.11,36.88-37.62-14.34-3.34-33.77-7.76-48.31-10.74-4.12-21.65-9.6-50.64-14.49-72.11" transform="translate(-297.27 -108.25)"/><path class="cls-6" d="M1061.18,286c-102.06,6.43-204.1,29.35-331.05,73.07,28.13-7.36,680.51-175,646.23,271.75,1.14-3.6,112.18-357.32-315.25-344.82" transform="translate(-297.27 -108.25)"/><path class="cls-5" d="M531.61,436.35c-154.32,126.29-178.95,327.19,8.32,351.93,170.69,22.55,495.22-28.53,660.83-70.22C637.61,764.48,637.61,764.48,554.3,732.8c-179-68.05-43.85-274.65-42-276.71a134.89,134.89,0,0,1,19.4-19.81m1-.82-1,.82,1-.82" transform="translate(-297.27 -108.25)"/><path class="cls-5" d="M602.55,917.93q-5-19.69-9.6-39.38l20.54-3.39c33.79-5.21,29.67,26.56,25.91,32A23.44,23.44,0,0,1,622.72,915L603,918.31m13.35-67.42q-27.56,4.37-54.52,9c10.52,45,22.08,88.59,35,131.12l24.69-4.15q-6.37-22.81-12.36-46.23l27.06-4.35c49.37-8.31,35.87-63.54,13.69-79a44,44,0,0,0-33.06-6.45" transform="translate(-297.27 -108.25)"/><path class="cls-5" d="M751.75,945.45c-40.86,5-52-58.39-35.63-79.41,13.62-17.53,55.1-19.47,61.58,34.06,1.18,9.89,2.73,41.44-25.95,45.36M731.6,830.24c-66.21,9.76-61.27,97.34-18.5,128.46,39.38,28.27,102.79,2.71,91.3-67-6.91-41.68-36.11-66.37-72.79-61.35" transform="translate(-297.27 -108.25)"/><path class="cls-5" d="M842.62,819.71,814.22,823q9,68.53,18.28,133.57,42.64-5.06,85.81-9.54l-2.15-24.27q-29.7,3.06-60.08,6.54-6.68-53.61-13.46-109.61" transform="translate(-297.27 -108.25)"/><path class="cls-5" d="M960.75,891.39l13.3-51h0l18.89,48.16-32.49,2.87m26.42-86.23-29.72,2.66c-22.56,83.39-26,96.25-37,139l26.93-2.65,7.56-30.12,46.35-4.21,10.37,28.62,27.85-2.19c-32-82.73-32-82.73-52.67-130.93" transform="translate(-297.27 -108.25)"/><path class="cls-5" d="M1155.59,793.36l-26.3,1q.34,46.41-.67,91.58h0c-15.76-26.62-36.83-62-53.17-88.06l-28.35,2c1.81,46.05,2.89,91.14,3.33,135l25-1.78q.35-44-.44-89.44h0c15.43,25.83,36,60.31,50.62,86.47l26.3-1c2.34-44,3.63-89.6,3.71-135.43" transform="translate(-297.27 -108.25)"/><path class="cls-5" d="M1203.11,901.93q3-42.07,4.49-85.46l19.85-.78c46.27-1.23,35.77,60.22,20,76.45a28.9,28.9,0,0,1-20.72,9l-23.62.93m31.77-112.08-54.49,2.15c-.57,46.14-2.36,91.44-5.3,135.49l50.91-2c62.53-2.46,77.34-93.3,44.83-123.63a48.67,48.67,0,0,0-35.76-12" transform="translate(-297.27 -108.25)"/><path class="cls-7" d="M540.19,521.28l53-6.2L605.62,621q1.45,12.41,5.92,16.06t16.22,2.27l2.74-.32,6,51.73-14.11,1.65q-29,3.39-47.18-11.63t-21.69-45.07Z" transform="translate(-297.27 -108.25)"/><path class="cls-8" d="M612.16,703.13c-17.06,0-31.59-4.87-43.32-14.56-14.14-11.69-22.65-29.08-25.29-51.68L529,512.43l73.07-8.53,13.56,116c.8,6.89,2.15,9.15,2.43,9.55-.05-.2,1.17.25,3.62.25a42.89,42.89,0,0,0,4.9-.32l12.76-1.46,8.39,71.73-24.13,2.84A98.5,98.5,0,0,1,612.16,703.13Zm-60.78-173,12.21,104.42c2,17.5,8,30.09,18.09,38.47s22.93,11.37,39.59,9.39l4.1-.47-3.76-32.13c-7.06-.05-12.49-1.67-16.45-4.91-5.23-4.27-8.26-11.49-9.56-22.71l-11.23-95.91Z" transform="translate(-297.27 -108.25)"/><path class="cls-7" d="M717.6,496q37.88-4.43,68.22,20t34.82,62.8q4.57,39.06-19.54,69.56t-63.17,35.06q-38.8,4.54-69.44-19.69t-35.18-63q-4.58-39.19,19.87-69.59T717.6,496Zm4.57,52.7A37.34,37.34,0,0,0,695.75,564a42.53,42.53,0,0,0,6.85,58q13,10.67,29.17,8.77a37.38,37.38,0,0,0,26.49-15.21q10-13.29,8-30.4t-14.83-27.73A37.38,37.38,0,0,0,722.18,548.73Z" transform="translate(-297.27 -108.25)"/><path class="cls-8" d="M725.92,694.21c-23.35,0-44.72-7.56-63.69-22.57-22.5-17.8-35.6-41.28-38.94-69.77-3.36-28.79,4.06-54.73,22-77.07s41.85-35.35,71.1-38.79h0c28-3.27,53.43,4.19,75.71,22.14s35.23,41.28,38.52,69.48c3.35,28.68-3.94,54.57-21.66,77s-41.23,35.46-69.9,38.83A115.31,115.31,0,0,1,725.92,694.21ZM718.77,506c-24.15,2.84-43,13.1-57.72,31.38S640.58,576,643.32,599.53c2.73,23.31,13,41.73,31.42,56.3s38.73,20.29,62,17.57c23.49-2.74,42-13,56.43-31.29s20.19-38.65,17.44-62.14c-2.69-23.08-12.88-41.44-31.12-56.12s-38.05-20.42-60.74-17.8Zm8.1,135.11c-11.2,0-21.51-3.82-30.67-11.37a52.6,52.6,0,0,1-8.5-71.85c8.44-11.16,19.64-17.62,33.3-19.22h0a47.25,47.25,0,0,1,36.9,10.94c10.57,8.74,16.77,20.3,18.42,34.32s-1.73,26.72-10,37.67a47.25,47.25,0,0,1-33.38,19.14A53.3,53.3,0,0,1,726.87,641.16Zm.24-82.63a30.41,30.41,0,0,0-3.74.22h0a27.5,27.5,0,0,0-19.56,11.33A32.47,32.47,0,0,0,709,614.21a28.49,28.49,0,0,0,41.2-4.73c5.11-6.76,7.09-14.34,6.07-23.16S751.56,570.59,745,565.2A27.27,27.27,0,0,0,727.1,558.53Z" transform="translate(-297.27 -108.25)"/><path class="cls-7" d="M918.76,528.93,933.62,656l-53,6.2L865.72,535.13l-40.63,4.75-6-51.21L953.27,473l6,51.21Z" transform="translate(-297.27 -108.25)"/><path class="cls-8" d="M871.73,673.43,856.87,546.32l-40.62,4.75-8.32-71.26,154.2-18L970.44,533l-40.49,4.73,14.86,127.1Zm2.84-149.49,14.86,127.11,33-3.86L907.58,520.07l40.49-4.73-3.65-31.17L830.29,497.51l3.65,31.18Z" transform="translate(-297.27 -108.25)"/><path class="cls-7" d="M1056.45,512.82l14.86,127.11-53,6.2L1003.41,519l-40.63,4.75-6-51.21L1091,456.88l6,51.21Z" transform="translate(-297.27 -108.25)"/><path class="cls-8" d="M1009.43,657.32l-14.86-127.1L953.94,535l-8.32-71.24,154.2-18,8.32,71.26-40.49,4.73,14.86,127.11Zm2.84-149.47,14.86,127.1,33-3.86L1045.27,504l40.49-4.73-3.65-31.18L968,481.41l3.65,31.17Z" transform="translate(-297.27 -108.25)"/><path class="cls-7" d="M1194.56,440.26q37.88-4.43,68.22,20T1297.6,523q4.57,39.06-19.54,69.56t-63.17,35.06q-38.8,4.54-69.44-19.69t-35.18-63q-4.58-39.19,19.87-69.59T1194.56,440.26Zm4.57,52.7a37.34,37.34,0,0,0-26.42,15.27,42.53,42.53,0,0,0,6.85,58q13,10.67,29.17,8.77a37.38,37.38,0,0,0,26.49-15.21q10-13.29,8-30.4t-14.83-27.73A37.38,37.38,0,0,0,1199.13,493Z" transform="translate(-297.27 -108.25)"/><path class="cls-8" d="M1202.86,638.45c-23.32,0-44.68-7.56-63.67-22.58-22.52-17.79-35.61-41.25-38.94-69.76-3.36-28.78,4-54.71,22-77.09s41.9-35.36,71.13-38.77c27.88-3.23,53.39,4.18,75.69,22.11s35.23,41.29,38.52,69.5c3.35,28.68-3.93,54.58-21.65,77s-41.24,35.49-69.9,38.83A112.88,112.88,0,0,1,1202.86,638.45Zm3.27-188.78a87.94,87.94,0,0,0-10.4.62h0c-24.13,2.81-43,13.08-57.75,31.38s-20.46,38.56-17.7,62.11c2.72,23.32,13,41.73,31.41,56.29s38.59,20.35,62,17.57,41.94-13,56.43-31.29,20.18-38.64,17.42-62.14c-2.69-23.08-12.88-41.44-31.12-56.12C1241.09,455.73,1224.55,449.67,1206.13,449.67Zm-2.26,135.71c-11.23,0-21.53-3.81-30.71-11.36a52.61,52.61,0,0,1-8.5-71.86c8.43-11.16,19.63-17.62,33.3-19.22h0a47.56,47.56,0,0,1,36.9,10.94,50.8,50.8,0,0,1,18.41,34.34c1.64,14-1.72,26.68-10,37.64A47.32,47.32,0,0,1,1209.89,585,52.22,52.22,0,0,1,1203.87,585.38ZM1200.3,503a27.4,27.4,0,0,0-19.54,11.34,32.45,32.45,0,0,0,5.21,44.13c6.5,5.36,13.62,7.51,21.59,6.54a27.45,27.45,0,0,0,19.62-11.28,32.92,32.92,0,0,0-5.19-44.3A27.43,27.43,0,0,0,1200.3,503Z" transform="translate(-297.27 -108.25)"/></g></svg>