<svg id="Layer_1" data-name="Layer 1" xmlns="http://www.w3.org/2000/svg" xmlns:xlink="http://www.w3.org/1999/xlink" viewBox="0 0 1197.6 1194.65"><defs><style>.cls-1{fill:url(#radial-gradient);}.cls-2{opacity:0.51;isolation:isolate;fill:url(#radial-gradient-2);}.cls-3{fill:url(#radial-gradient-3);}.cls-4,.cls-5{fill:#193f2f;}.cls-5{fill-rule:evenodd;}.cls-6{fill:url(#radial-gradient-4);}.cls-7{fill:url(#radial-gradient-5);}.cls-8{fill:url(#radial-gradient-6);}.cls-9{fill:#59871e;}.cls-10{fill:#85bd43;}.cls-11{fill:#f4f2ce;}</style><radialGradient id="radial-gradient" cx="758.64" cy="730.17" fx="680.5907517245316" r="438.36" gradientTransform="matrix(1.56, 0, 0, -1.56, -665.66, 1604.09)" gradientUnits="userSpaceOnUse"><stop offset="0" stop-color="#fff5ac"/><stop offset="0.67" stop-color="#ffda00"/><stop offset="1" stop-color="#d89112"/></radialGradient><radialGradient id="radial-gradient-2" cx="884.07" cy="-145.72" r="597.16" gradientTransform="matrix(1, 0, 0, -1, -283.63, 451.77)" gradientUnits="userSpaceOnUse"><stop offset="0" stop-color="#ffdb00"/><stop offset="0.05" stop-color="#fdcf00"/><stop offset="0.16" stop-color="#fbbe00"/><stop offset="0.29" stop-color="#f9b300"/><stop offset="0.48" stop-color="#f8ac00"/><stop offset="1" stop-color="#f8aa00"/></radialGradient><radialGradient id="radial-gradient-3" cx="743.11" cy="39.14" r="631.15" gradientTransform="matrix(1, 0, 0, -1, -283.63, 451.77)" gradientUnits="userSpaceOnUse"><stop offset="0" stop-color="#f0efdd"/><stop offset="0.38" stop-color="#efeeda"/><stop offset="0.62" stop-color="#edebd2"/><stop offset="0.82" stop-color="#eae6c3"/><stop offset="1" stop-color="#e5dfae"/></radialGradient><radialGradient id="radial-gradient-4" cx="726.58" cy="5.21" r="815.09" gradientTransform="matrix(1, 0, 0, -1, -283.63, 451.77)" gradientUnits="userSpaceOnUse"><stop offset="0.52" stop-color="#fd0" stop-opacity="0"/><stop offset="1" stop-color="#9e6500"/></radialGradient><radialGradient id="radial-gradient-5" cx="960.71" cy="-204.44" r="636.86" gradientTransform="matrix(0.98, 0, 0, -0.98, -345.68, 392.7)" gradientUnits="userSpaceOnUse"><stop offset="0.88" stop-color="#fd0" stop-opacity="0"/><stop offset="1" stop-color="#cfac71" stop-opacity="0.4"/></radialGradient><radialGradient id="radial-gradient-6" cx="588.98" cy="441.35" r="2.43" gradientTransform="matrix(1, 0, 0, 1, 0, 0)" xlink:href="#radial-gradient-5"/></defs><title>irish_lottery_Logo</title><g id="Layer_1-2" data-name="Layer 1-2"><circle class="cls-1" cx="600.05" cy="597.29" r="597.29"/><circle class="cls-2" cx="600.44" cy="597.49" r="597.16"/><circle class="cls-3" cx="554.64" cy="524.19" r="479.17"/><path class="cls-4" d="M461.55,753.56c-32.15,12.89-39.1,14.22-57.86,14.63,3.14,11.24,12.48,19.26,15.54,30.5,36.2,130.68,36,148.78,35.87,155.06,42.82-14.3,63.73-19.18,89.68-20.83-12.32-54.14-14.88-65.46-18.85-86.71a176.39,176.39,0,0,0-2,20.58c-2.73,33.06-4.46,40.5-7.69,44.63,0,0-26.78,24.8-41.33,1.41-21.57-35.46-28.6-148.78-14.13-159.36" transform="translate(-283.63 -106.36)"/><path class="cls-4" d="M606.11,918.12c-28.68,2.23-39.34-66.12-20.91-87.78,4.55-5.29,33.72-11.82,38.35,50.67,1.65,23-10.25,36.12-17.36,37.11m-13-105.3c-70.09,9.09-52.16,81.66-14.22,110.76,32.4,24.8,84.23,7.19,76.29-53.15a62.74,62.74,0,0,0-62.16-57.86" transform="translate(-283.63 -106.36)"/><path class="cls-4" d="M649.59,756.53c12.32,10.66,12.89,12.07,16,23.89l-14.13.74-20.58,1.24h-.91l3.31,15.54h3.88l21.82-1.74,8.93-.66C677.78,899.2,677.78,899.2,684.39,910c14.13,22.48,44.72,13.56,55.3,0,6.45-8.27,5-21.41,17.36-25.38A143.16,143.16,0,0,0,718.36,870c17.28,28.27-8.27,32.65-8.27,32.57-6.45-1.32-10.33-24.22-11.65-68.11,0-12.73-.5-25.46-.5-38.1h35.29l.5-5.7-15.79.66-2.56-15.7h19.84v-1.41l-24.8,1.32-13.14.83h-.5a46.29,46.29,0,0,1,1.65-11,77.45,77.45,0,0,1,5-12,158.61,158.61,0,0,0-21.08,3.22,214.91,214.91,0,0,1-33.06,0" transform="translate(-283.63 -106.36)"/><path class="cls-4" d="M736.38,750.83c12.07,10.83,12.65,11.74,15.54,24.8H715.55l2.56,15.7,15.79-.66,20-.74c5.12,105.8,5.12,105.8,10.41,115,14.13,24.8,46.54,13.8,57,2.48,7.19-7.77,7-21.49,19.84-24.8a156.14,156.14,0,0,0-39.18-16c16.53,29.34-10.58,32.24-10.91,32.15-9.42-2.15-8.27-52.07-7.69-68.44.58-12.73.91-25.38,1.57-38.1l35.87,1.9,3.22-22.4q-19.92,0-39.67.66A45.29,45.29,0,0,1,787,761.08a80.84,80.84,0,0,1,5.62-11.82c-10.08,0-19.92,2.56-29.92,2.64-3,0-6.12,0-26.12-1.49" transform="translate(-283.63 -106.36)"/><path class="cls-4" d="M902.68,830.84c-2.73,0-2.73,0-28.76-2.15,2.31-15.37,7.44-23.39,17.77-27.52,5.21-2.07,23.14-7.69,34.22,6.86a34.22,34.22,0,0,1,6.86,23H902.68m2.73-46.2c-66.12-1-90.92,57.86-54.39,94.89C874.74,903.82,920.2,900,935.17,885a39.1,39.1,0,0,1,27.61-11.65c-12.56-3.64-25.38-6.28-38-9.75-6.28,20.66-45.38,18.93-56.45-2.56a38.52,38.52,0,0,1-3.47-12.56c16.53-.66,20.91-.83,29.59-.66H914c16.53.5,33.06.58,49.59.91a58.35,58.35,0,0,0-58.27-64.47" transform="translate(-283.63 -106.36)"/><path class="cls-4" d="M1021.54,791.08a141.67,141.67,0,0,1-46.12,3.06c2.07,8.27,8.76,13.8,10.66,21.82a195.15,195.15,0,0,1,1.32,28.93c0,69.68-7.44,79.27-12.65,86.29a178.87,178.87,0,0,1,49.59-.74,48.11,48.11,0,0,1-12.65-26.37c-.58-5,2.23-56.54,2.89-60.26,0,0,12.89-18.68,28.68-17.94s16.53,17.94,1.16,31.82a100.35,100.35,0,0,1-8.76,6.94h51.16c3.72-17.61,7.77-49.59-6.36-63.23-11.65-11.49-20.5-5.79-46.62,11.16-8.27,5.62-17.11,12.15-20.75,14.88,1.65-21.66,1.65-21.66,8.27-35.87" transform="translate(-283.63 -106.36)"/><path class="cls-4" d="M1182.47,805.46c16.53,50.42-13.47,112-38.52,97.78-37.86-21.41,2.4-100.84,2.81-101.67-17.19-3.88-35-2.15-52.16-6.53,5,8.68,13.14,15.62,15,26.12.83,4.63.74,5.21-4.22,34.14-4.13,24.14-6.61,47,8.27,61.74s54.39,27.61,81.09-23.23c-15,93.24-50.92,96-59.76,84.14a18,18,0,0,1,3.47-24.8L1090,950c14.71,16.53,14.71,16.53,14.63,24.3s0,16.53,18.35,23.23c7.77,2.89,31.33,11.65,57.86-13.72,7.11-6.86,26.12-24.8,50.25-169.44a211.6,211.6,0,0,1-48.52-8.27" transform="translate(-283.63 -106.36)"/><path class="cls-5" d="M951.87,583.63c1.66-2.45-15.2,46.63-16.39,52.44-2.76-3.31-3.43-36-36.06-36.06s-27.9,25.57-19.67,29.5,72.18,13.75,68.83,45.89-36.06,29.5-36.06,29.5-23.4-1.76-39.33-13.11c-8,1.08-20,12.8-22.94,16.39,1.08-7.66,12-42.08,9.83-55.72,3.19,3.46,12.55,33.95,42.61,36.06,18.51-.28,19-28.75,9.83-32.78s-60.81-18.09-59-42.61,30.1-32.65,78.67-16.39C939,594.65,949.85,586.61,951.87,583.63Z" transform="translate(-283.63 -106.36)"/><path class="cls-4" d="M557.3,525.62s44.81,4.84,74.17-1.9c-11,15-14.37,17.43-17.12,36.13s-1.9,98.89-1.9,98.89-1.25,26.63,24.72,47.54c-57.39.25-78,1.9-78,1.9s20.83-31.71,20.92-51.35-1.9-83.68-1.9-83.68S578.13,541.52,557.3,525.62Z" transform="translate(-283.63 -106.36)"/><path class="cls-5" d="M1001.74,703.24c1.18,1.8-33.68-1.72-38.7,0,4.67-8.73,8.32-15.9,11.06-27.64,1.74-15.22,0-149.27,0-149.27s-5.51-21.76-11.06-22.11c13.68.58,55.28,0,55.28,0s-16,7.94-16.59,22.11c-7.75,21.5-5.53,77.4-5.53,77.4s29.5-28,66.34-11.06c13.32,11.23,26.64,21.61,27.64,22.11s6.35,27.64,0,44.23a91.48,91.48,0,0,0-5.53,33.17s7.49,10.07,11.06,11.06h-55.28s11.12-8.69,16.59-22.11,9-55.83,0-66.34-37.6-24.81-60.81,11.06C991.32,645.4,996.67,673.91,1001.74,703.24Z" transform="translate(-283.63 -106.36)"/><path class="cls-5" d="M774.7,636.32c-.38-33.93-11.6-61.16-27.64-60.81-18.33,4.33-44.78,28-49.76,33.17.07-12.4-6.36-24.17,0-33.17-23.16.23-44.23,0-44.23,0s15.17,9,16.59,27.64.5,97.28-5.53,105c25.16-5,55.28,0,55.28,0s-18-13.57-22.11-66.34c-.31-16.8,4.93-36.94,22.11-38.7s21.3,19.48,11.06,33.17C740.55,635.83,758.91,635.62,774.7,636.32Z" transform="translate(-283.63 -106.36)"/><path class="cls-4" d="M783.72,595.41l47.59.52q-4.14,15.78-6.08,26.9a185.63,185.63,0,0,0-2.46,18.63,71.89,71.89,0,0,0-.52,14.48,84,84,0,0,0,2.59,11.64,91.74,91.74,0,0,0,4.65,11.9,70.65,70.65,0,0,0,8.28,13.45,38.48,38.48,0,0,0-6.73-1.55q-3.63-.52-6.72-.78a51.9,51.9,0,0,0-7.25,0q-3.63.26-8,.78-3.63.52-8.79,1.29t-10.86,2.07q3.88-11.65,6.08-20.17t3.24-14.23q1-6.72,1.29-10.86V624.9q0-6.21-.26-11t-1-6.08l-2.59-2.59-4.53-3.75Q788.63,599,783.72,595.41Zm18.36-39.84a15.51,15.51,0,0,1,11-1.55,15.74,15.74,0,0,1,8.67,4.91,9.77,9.77,0,0,1,2.19,8.54q-.9,4.92-8.4,9.57-7.5,4.4-13.19,3.1t-8-5.43q-2.32-4.13-.78-9.7T802.08,555.57Z" transform="translate(-283.63 -106.36)"/><circle class="cls-6" cx="600.44" cy="597.49" r="597.16"/><ellipse class="cls-7" cx="598.67" cy="597.29" rx="598.67" ry="597.03"/><path class="cls-8" d="M592.26,440.33a19.69,19.69,0,0,1-6.56,2" transform="translate(-283.63 -106.36)"/><path class="cls-9" d="M684.57,312.09a13.2,13.2,0,0,1-4.4,1.36M813,181.45c-23.36,66.44-33,77.84-39.34,85.36a900.5,900.5,0,0,0-126.85,48.4c12.8,6.56,25.34,12.89,43.52,22.26,1.63-1.45,19.51,14.5,33.13,56.32-4.4,1.06-27.28,19.49-27.46,19.67-7.88,8.8-11,20.33-16.9,30.32.88,0,110.84-6.42,151.58-30.18,36.3,22,85.45,55.26,113.52,89.06,7.52-15.18,30.8-70.4,12.85-145.2l6.16-5.94c6.56-6.67,10.34-11.31,10.34-11.31,2.24-1.54,55.44-38,65.25-87.25-41.49-1.1-61.86-1.1-92.71-1.1-15.36,0-51.3,0-56.45-1.58a7,7,0,0,1-2.16-2.82c-12.23-14.65-44-50.47-74.8-66" transform="translate(-283.63 -106.36)"/><path class="cls-10" d="M675.56,294.06a13.2,13.2,0,0,1-4.4,1.36m132.79-132c-23.36,66.44-33,77.84-39.34,85.36a900.5,900.5,0,0,0-126.85,48.4c12.8,6.56,25.34,12.89,43.52,22.26,1.63-1.45,19.51,14.5,33.13,56.32-4.4,1.06-27.28,19.49-27.46,19.67-7.88,8.8-11,20.33-16.9,30.32.88,0,110.84-6.42,151.58-30.18,36.3,22,85.45,55.26,113.52,89.06,7.52-15.18,30.8-70.4,12.85-145.2l6.16-5.94c6.56-6.67,10.34-11.31,10.34-11.31,2.24-1.54,55.44-38,65.25-87.25-41.49-1.1-61.86-1.1-92.71-1.1-15.36,0-51.3,0-56.45-1.58a7,7,0,0,1-2.16-2.82c-12.23-14.65-44-50.47-74.8-66" transform="translate(-283.63 -106.36)"/><path class="cls-11" d="M791.78,207.73s-9.38,26.49-13.24,29.8-.55,6.62,8.83,0S799,201.66,791.78,207.73Z" transform="translate(-283.63 -106.36)"/><path class="cls-11" d="M829.86,188.41s16,9.93,16.56,13.24-4.34,11-12.66,5.25S824.48,184.9,829.86,188.41Z" transform="translate(-283.63 -106.36)"/><path class="cls-11" d="M910.43,241.35c13.17-4.26,40.28-1.7,58.5,0s23.73,6.11,12.14,7.77S888.35,248.48,910.43,241.35Z" transform="translate(-283.63 -106.36)"/></g></svg>