<svg id="Layer_1" data-name="Layer 1" xmlns="http://www.w3.org/2000/svg" xmlns:xlink="http://www.w3.org/1999/xlink" viewBox="0 0 1203 1203.42"><defs><style>.cls-1{fill:none;}.cls-2{fill:url(#radial-gradient);}.cls-3{fill:#fff;}.cls-4{clip-path:url(#clip-path);}.cls-5{fill:#cb1518;}.cls-6{fill:#264e7c;}.cls-7{fill:#e31019;}.cls-8{opacity:0.4;isolation:isolate;fill:url(#radial-gradient-2);}</style><radialGradient id="radial-gradient" cx="577.5" cy="520.49" r="601.5" gradientUnits="userSpaceOnUse"><stop offset="0" stop-color="#264e7c"/><stop offset="1" stop-color="#102b4a"/></radialGradient><clipPath id="clip-path" transform="translate(-299 -93)"><path class="cls-1" d="M941.06,1295.13a605.7,605.7,0,0,1-89.54-.64c-3.09,0-19.89-1.67-45.77-5.73-19.31-3-32.19-5.73-43.07-8.11a543.18,543.18,0,0,1-53.88-15.13c-11.33-3.6-25.75-9.59-37.14-13.78a429.25,429.25,0,0,1-56.26-26.52c-12.87-7.27-29.61-16.87-41.84-24.72s-26.52-18-37.47-26.33A600.22,600.22,0,0,1,326.16,874.84a567.45,567.45,0,0,1-20.6-92.57,588.11,588.11,0,0,1-6.05-97.07A449,449,0,0,1,304,622.36,596.23,596.23,0,0,1,528.87,225a605.62,605.62,0,0,1,76.6-51.5,598.67,598.67,0,0,1,83.11-38.62c12.42-4.83,29.42-10.17,42.16-14,10-3,23.43-6.44,33.54-8.69a613.73,613.73,0,0,1,84.78-12.87,601.89,601.89,0,0,1,90.57-.32A663,663,0,0,1,1016,109.05c19.31,4.12,44.29,10.75,63,16.09,9.46,2.7,21.82,7.27,31.22,10.62a596.55,596.55,0,0,1,85.68,39.72,656.15,656.15,0,0,1,75.57,51.5,606.59,606.59,0,0,1,68.24,63.28c9.53,10.3,21.63,24.53,30.32,35.47s19.31,25.75,27.1,37.21a589.2,589.2,0,0,1,45.77,81,861.27,861.27,0,0,1,32.7,87.48,456.26,456.26,0,0,1,11.27,46.09c2.83,14,5.34,33,7.6,47.19a449.33,449.33,0,0,1,3.86,48.47,595,595,0,0,1-4.18,98.36c-2.06,14.36-4.7,33.6-7.92,47.76a691.45,691.45,0,0,1-18.35,68c-4.63,13.33-11.14,31-16.67,44a447.57,447.57,0,0,1-20,42.36c-7,12.17-15.32,28.9-23.17,40.49s-17.77,27.1-25.75,38.24-19.63,25.75-29,36.24-21.57,23.88-31.35,33.6a450.62,450.62,0,0,1-34.12,31.35c-21.57,17-51.5,38.62-74.09,53.88a409.47,409.47,0,0,1-40.36,22.79c-12.87,6.44-29.87,15.06-43.32,20.15-24.33,9.21-57.16,20.54-82.2,27.49-10.11,2.83-23.82,5.54-34.12,7.6-7.85,1.54-18.41,3.22-26.33,4.51-13.78,2.19-32.19,3.8-46.22,5a494.24,494.24,0,0,1-67.53,0A494.27,494.27,0,0,0,941.06,1295.13Z"/></clipPath><radialGradient id="radial-gradient-2" cx="797.76" cy="1200.58" r="899.23" gradientTransform="translate(-377.99 -778.21) scale(1 0.98)" gradientUnits="userSpaceOnUse"><stop offset="0.28" stop-color="#1f213c" stop-opacity="0"/><stop offset="0.45" stop-color="#21223c" stop-opacity="0.07"/><stop offset="0.64" stop-color="#26273d" stop-opacity="0.28"/><stop offset="0.84" stop-color="#2f2e3f" stop-opacity="0.63"/><stop offset="1" stop-color="#383540"/></radialGradient></defs><title>loto_France_Logo</title><g id="Layer_1-2" data-name="Layer 1-2"><circle class="cls-2" cx="601.5" cy="601.5" r="601.5"/><circle class="cls-3" cx="551.68" cy="547.07" r="456.21"/><g class="cls-4"><path class="cls-5" d="M969.06,396.31l-3.58,23.05-26.88-1c-2.58,41-4.91,83.22-6.91,126.91l-28.63,1.41c2.08-44.36,4.58-87.55,7.57-129.32l-29-1,4.08-22.8q41.61,1.33,83.22,3m-28.63-53.84C791.05,344.88,740.62,522,832.16,609.77c96.62,92.62,255.65,10.15,246.58-128-4.91-74.9-65.83-136.4-138.65-139.06" transform="translate(-299 -93)"/><path class="cls-6" d="M1185.85,441c-24-.42-20.64,93.87-10.15,105.27,0,0,23.38,23.63,26.21-39.2.92-21.14,2.91-65.08-16.06-66.08m-3,135c-59.75-4-49.93-127.08-23.22-149.8,12.15-10.49,78.73-28,70.49,83.72-2.33,31.21-12.4,68-47.27,66.08m1.75-202.81a139.14,139.14,0,0,0-113.68,48.77,165,165,0,0,1-19.72,173.68c69.32,131.9,233,102.61,272.21-16.64a157.45,157.45,0,0,0-138.89-205.89" transform="translate(-299 -93)"/><path class="cls-6" d="M690.77,376.92c-20.72.83-30,92.37-18.89,103.69,0,0,12.32,9.82,19.64-10.49a343.62,343.62,0,0,0,9.65-71.24c0-5.41,0-21.72-10.4-21.89M676.12,508.58c-52.18-1.5-34.87-117.26-8.32-143.31,13.9-13.48,59.34-26.8,58.25,41.61,0,17.14-4,102.44-49.93,101.61m36-191.41c-145.8,5.49-195.07,194.9-101.7,275.63,45.77,39.61,123,43,181.25-27.38a168.27,168.27,0,0,1,25.47-174.76c-30.63-63.5-78.81-73.4-104.86-73.65" transform="translate(-299 -93)"/><path class="cls-5" d="M463.08,531a1058.48,1058.48,0,0,1,20.72-148l20.81-2.41a1090.19,1090.19,0,0,0-18.89,126.08H523.5L518.09,531H463m57.59-176.68c-128.33,9.07-165.94,220.53-79.23,288.86,39.36,31,102.86,28.21,149.3-51.18-47.77-58.25-51.1-140.06-8.32-209.13a80.72,80.72,0,0,0-61.75-28.54" transform="translate(-299 -93)"/><path class="cls-3" d="M504.52,380.58,483.72,383a1058.56,1058.56,0,0,0-20.64,148h55.09l5.41-24.22H485.8a1090.19,1090.19,0,0,1,18.64-126.08" transform="translate(-299 -93)"/><path class="cls-3" d="M678.12,483c-24.05-1-6.41-92.29,5.74-103.36,0,0,19.14-16.14,16.64,27.8-1.58,34.62-6.91,75.81-22.8,75.56m16.64-128.74c-55.67,0-61.42,122.92-38.61,145.64,24.55,24.47,71.24,0,70.74-96.87,0-32-11-48.35-32.12-48.68" transform="translate(-299 -93)"/><path class="cls-3" d="M1183.77,549.94c-25-1.91-16.64-96-5.33-106.36,1.17-1,27.63-24.13,23.3,65-1.08,22-4,42.11-18,41.61m2-132c-61.58-2.5-51.1,121.92-29.21,145.89,11.57,12.65,69.57,37.45,74.07-61.92,3.16-70.74-26.71-83.22-44.77-84" transform="translate(-299 -93)"/><path class="cls-3" d="M969.06,396.31q-41.61-1.66-83.22-3l-4.08,22.8,29,1c-3,41.61-5.49,85-7.57,129.32L931.78,545q3-65.33,6.91-126.91l26.88,1.25,3.58-22.8" transform="translate(-299 -93)"/><path class="cls-7" d="M573.85,695.49H486a1092.6,1092.6,0,0,0,22.8,154.29h28.88q-6-29-10.57-58.92h48.27Q573,773,571.1,754.74H521.92q-1.33-11.07-2.5-22.3h56.76Q574.6,714,573.6,695.16" transform="translate(-299 -93)"/><path class="cls-7" d="M619.37,760.57q-1.25-13.9-2.25-27.88h23.38a12.4,12.4,0,0,1,13.15,5.83,22.8,22.8,0,0,1,0,19.22,15.81,15.81,0,0,1-11.57,2.75H619.62m24.3-64.66-62.66-.67a1319.38,1319.38,0,0,0,17.48,154.79h31.79q-4.24-27.13-7.49-55.09h19.64c11.73,0,13.48,2.33,15.56,17.39a112.35,112.35,0,0,0,7.24,34l1.41,3.5,35.7.58-1.33-11.9c-5.24-3.5-5.83-3.83-7.32-18.06q-.5-4.74-.92-9.49c-2.08-19.81-6.24-27-13.32-33.29C698.76,761,698,699,647.41,695.16h-3.33" transform="translate(-299 -93)"/><path class="cls-7" d="M756.1,788.45l8.32-32.87,11.07,33.29-19.47-.5m26.71-89.46-38.86-1c-23,80.06-24.38,84.8-39.11,153.62l37,.58,6-28.38,39.95,1,10.15,28.71,39.78,1.17c-22.8-62.08-31.29-85.3-54.93-156" transform="translate(-299 -93)"/><path class="cls-7" d="M963.57,704.73l-38.7-1.5q-1.08,43.69-1.58,85.88c-13.73-26.21-31.87-61.25-45.44-87.55l-38.78-1.25c0,53.18.75,104.86,2.83,154.46l35.54,1.17q-1-41.61-1.08-85.13l46.85,86.72,36,1.41c1-49.43,2.41-101.11,4.16-154.21" transform="translate(-299 -93)"/><path class="cls-7" d="M1043.29,705.81c-80.72-1.83-88.21,105.36-51.18,142.72,26.46,26.8,92.79,30.46,110.35-34.87l1.58-6.32-39.2-1.91c-15,44.61-43.86,21.05-48.93,10.32-11.4-24.38-2.16-85.3,36.62-70.49a23.47,23.47,0,0,1,14.06,20.39l.83,4.08,39.2,1.91c1-38.86-23.22-64.08-63.25-65.91" transform="translate(-299 -93)"/><path class="cls-7" d="M1238.44,718.12c-38-2.25-76.48-4.41-115-6.41-3.66,53.09-8.32,104.52-13.32,153.79,37.45,1.91,74.9,4,111.76,6.24q2.91-17.56,5.58-35.45l-74.9-4.33q1.41-12.57,2.75-25l66.58,3.74q2.33-17.81,4.49-35.87l-67.74-3.83,1.83-19.56,74.23,4.24q2.08-18.47,3.83-37.2" transform="translate(-299 -93)"/></g><circle class="cls-8" cx="601.44" cy="603.84" r="599.57"/></g></svg>