<svg xmlns="http://www.w3.org/2000/svg" xmlns:xlink="http://www.w3.org/1999/xlink" viewBox="0 0 1263.76 1176.07"><defs><style>.cls-1{fill:none;}.cls-2{isolation:isolate;}.cls-3{fill:url(#radial-gradient);}.cls-4,.cls-9{opacity:0.7;}.cls-5{fill:#13622d;}.cls-6{clip-path:url(#clip-path);}.cls-7{opacity:0.3;mix-blend-mode:multiply;fill:url(#radial-gradient-2);}.cls-8{mix-blend-mode:overlay;fill:url(#radial-gradient-3);}.cls-9{fill:url(#radial-gradient-4);}.cls-10,.cls-11{mix-blend-mode:color-dodge;}.cls-10{fill:url(#radial-gradient-5);}.cls-11{fill:url(#radial-gradient-6);}.cls-12{clip-path:url(#clip-path-2);}.cls-13{fill:#1d1d1b;}.cls-14{fill:#fff;}.cls-15{fill:#b1d397;}</style><radialGradient id="radial-gradient" cx="1123.5" cy="1134.26" r="766.27" gradientTransform="translate(-69.2 -664.15)" gradientUnits="userSpaceOnUse"><stop offset="0" stop-color="#13c320"/><stop offset="0.19" stop-color="#139d20"/><stop offset="0.42" stop-color="#137520"/><stop offset="1" stop-color="#133220"/></radialGradient><clipPath id="clip-path" transform="translate(-266.53 -106.3)"><path class="cls-1" d="M1029.23,1269.17c-5.45,1.13-12.73,2.6-18.21,3.62-2.15.4-8.83,1.57-13.43,2.29-6.81,1.06-10.24,1.57-19.3,2.74-6.6.85-15.54,1.75-15.69,1.75h0c-1.15.09-2.68.26-3.83.37-3,.29-7.87.67-7.91.67-1.91.15-7.71.59-13.35.9-5.07.27-12.74.68-22.52.8-7.71.09-18,0-25.69-.21-8.47-.19-19.75-.89-28.21-1.41-4.38-.27-10.2-.82-14.57-1.21-7.55-.67-21.3-2.28-31.22-3.84-10.81-1.69-25.23-4-35.84-6.67-17.16-4.26-40-10.19-56.86-15.45-12.36-3.85-28.58-9.86-40.5-14.91-13.63-5.77-31.61-13.94-44.81-20.63-11.9-6-27.4-14.82-38.79-21.76-12-7.31-27.57-17.76-39-26-10.9-7.89-25-19-35.25-27.71-10.56-8.92-24.12-21.43-33.93-31.17-9.61-9.52-21.92-22.73-30.76-33-9-10.43-20.48-24.82-28.66-35.91s-18-26.26-25.5-37.62C397.78,993.27,389,977,382.58,964.66s-14.2-29-19.55-41.7c-5.45-13-12.33-30.47-16.47-43.92s-9.49-31.53-12.92-45.21a585.41,585.41,0,0,1-13.89-82c-2.51-28.59-2.5-67-1.68-95.64a339.66,339.66,0,0,1,4.9-47c2.54-13.67,5.4-32,8.48-45.57s7.45-31.63,12.07-44.74c4.55-12.91,10.22-30.28,15.32-43s12.62-29.52,18.7-41.85a590.93,590.93,0,0,1,104-147.81c9.29-9.65,22.17-22.07,32.17-31,10.23-9.11,24.43-20.62,35.22-29.06,10.38-8.13,24.86-18.13,35.91-25.3,11.23-7.29,26.63-16.33,38.31-22.87,10.59-5.93,25.15-13.06,36.16-18.17,9.73-4.52,23-10,32.94-13.9,12.65-4.95,29.83-10.72,42.83-14.66,12.31-3.74,29-7.94,41.48-10.91,4-1,9.44-2.07,13.51-2.85,2.73-.52,6.37-1.24,9.1-1.73,4-.71,9.22-1.61,13.19-2.25,8.29-1.33,14.95-2.18,19.35-2.75,6-.77,14.84-1.69,15.69-1.75h0l7.71-.71c2.87-.25,8.14-.64,8.18-.64,8.7-.59,12.3-.79,20.28-1.1,3.91-.15,9.12-.26,13-.29,4.28,0,10,0,14.28.07,4.6,0,10.73.31,15.33.45,9.88.31,23,1.3,32.88,2.16a588.64,588.64,0,0,1,70.1,10.35c11.77,2.58,27.42,6.34,39,9.83,15.45,4.66,35.89,11.49,51,17.3a621.2,621.2,0,0,1,79,38c12.68,7.35,29.2,17.81,41.28,26.11,11,7.59,25.32,18.37,35.75,26.78,10.9,8.8,24.93,21.17,35.11,30.81,9.8,9.29,22,22.52,31.43,32.22,9.63,9.95,21.13,24.47,29.59,35.44s19.08,26,26.63,37.51c15,23,31.74,55.69,43.86,80.32,6.2,12.6,12.73,30.23,17.43,43.47s9.74,31.32,13.89,44.75c4.25,13.72,7.9,32.59,10.46,46.73,2.6,14.35,5.29,33.64,6.73,48.16s2.66,33.69,2.78,48.17c.12,14.25-.05,33.27-1.1,47.47-1.31,17.71-3.43,41.36-6.74,58.8-2.59,13.63-6,31.82-9.39,45.28s-8,31.43-13,44.41-10.45,30.55-16.34,43.05c-5.79,12.3-13.06,28.93-19.33,41s-15,28.37-22.68,39.79c-7.49,11.22-17.22,26.38-25.2,37.25-8.16,11.1-19.21,25.84-28.57,35.93-18.19,19.61-43.45,44.86-63.1,63-10.05,9.29-24.57,20.47-35.76,28.35-11.86,8.36-27.61,19.68-40.18,26.93-20.53,11.83-48.38,26.88-70,36.58-10.15,4.55-24,9.86-34.42,13.81-6.08,2.31-14.31,5-20.49,7s-14.22,4.54-20.4,6.2c-11.09,3-25.95,6.71-37.13,9.31a385.81,385.81,0,0,1-66.86,8.33h0A385.81,385.81,0,0,0,1029.23,1269.17Z"/></clipPath><radialGradient id="radial-gradient-2" cx="492.24" cy="451.14" r="797.88" gradientUnits="userSpaceOnUse"><stop offset="0" stop-color="#41ad58"/><stop offset="1" stop-color="#183822"/></radialGradient><radialGradient id="radial-gradient-3" cx="492.24" cy="451.14" r="797.88" gradientUnits="userSpaceOnUse"><stop offset="0" stop-color="#41ad58" stop-opacity="0"/><stop offset="1" stop-color="#183822"/></radialGradient><radialGradient id="radial-gradient-4" cx="635.36" cy="588.03" r="584.25" gradientUnits="userSpaceOnUse"><stop offset="0" stop-color="#71b52c" stop-opacity="0"/><stop offset="0.48" stop-color="#74b631" stop-opacity="0.01"/><stop offset="0.66" stop-color="#7dbc42" stop-opacity="0.04"/><stop offset="0.78" stop-color="#8ec45f" stop-opacity="0.09"/><stop offset="0.88" stop-color="#a7d189" stop-opacity="0.16"/><stop offset="0.97" stop-color="#c6e2bf" stop-opacity="0.25"/><stop offset="1" stop-color="#d6eadb" stop-opacity="0.3"/></radialGradient><radialGradient id="radial-gradient-5" cx="476.68" cy="438.69" r="797.88" gradientUnits="userSpaceOnUse"><stop offset="0" stop-color="#71b52c" stop-opacity="0.5"/><stop offset="0.45" stop-color="#417227" stop-opacity="0.23"/><stop offset="0.8" stop-color="#234823" stop-opacity="0.06"/><stop offset="1" stop-color="#183822" stop-opacity="0"/></radialGradient><radialGradient id="radial-gradient-6" cx="453.42" cy="516.16" r="360.24" gradientUnits="userSpaceOnUse"><stop offset="0" stop-color="#71b52c" stop-opacity="0.5"/><stop offset="0.08" stop-color="#599429" stop-opacity="0.37"/><stop offset="0.19" stop-color="#417227" stop-opacity="0.23"/><stop offset="0.31" stop-color="#2f5825" stop-opacity="0.13"/><stop offset="0.46" stop-color="#224623" stop-opacity="0.06"/><stop offset="0.64" stop-color="#1a3b22" stop-opacity="0.01"/><stop offset="1" stop-color="#183822" stop-opacity="0"/></radialGradient><clipPath id="clip-path-2" transform="translate(-266.53 -106.3)"><path class="cls-1" d="M1043.27,1315.08c-6.07,1.25-14.17,2.89-20.26,4-2.46.46-9.76,1.74-14.94,2.55-7.58,1.18-11.39,1.75-21.48,3-7.35.94-17.29,1.94-17.46,2h0c-1.28.1-3,.28-4.27.41-3.22.31-8.76.75-8.81.75-8.58.66-13.31.92-14.86,1-5.64.3-14.18.76-25.07.89-8.58.1-20,0-28.59-.24-9.43-.21-22-1-31.4-1.57-4.87-.3-11.36-.92-16.22-1.35-8.41-.74-23.7-2.54-34.75-4.27-12-1.88-28.08-4.49-39.89-7.42-19.09-4.75-44.5-11.34-63.28-17.2-13.76-4.29-31.81-11-45.07-16.59-15.16-6.43-35.18-15.51-49.87-23-13.25-6.72-30.49-16.5-43.17-24.22-13.36-8.13-30.69-19.77-43.36-28.94-12.13-8.78-27.8-21.17-39.24-30.84-11.75-9.93-26.84-23.86-37.76-34.69-10.69-10.6-24.39-25.3-34.23-36.69-10-11.61-22.8-27.62-31.89-40s-20-29.22-28.38-41.87c-8.53-12.86-18.35-31-25.45-44.71s-15.81-32.23-21.76-46.41a652.53,652.53,0,0,1-32.71-99.19c-6.75-26.92-13-63.57-15.46-91.21-2.79-31.82-2.78-74.52-1.87-106.44a378,378,0,0,1,5.45-52.28c2.82-15.22,6-35.63,9.44-50.72s8.29-35.21,13.44-49.8c5.07-14.37,11.37-33.7,17-47.85s14-32.86,20.82-46.58A657.68,657.68,0,0,1,433.67,221.16c10.34-10.74,24.67-24.56,35.81-34.48,11.38-10.14,27.19-22.95,39.2-32.35,11.55-9,27.67-20.18,40-28.16,12.49-8.11,29.64-18.17,42.63-25.45,11.79-6.6,28-14.53,40.25-20.22,10.83-5,25.55-11.13,36.66-15.47,14.08-5.5,33.2-11.93,47.67-16.32,13.7-4.16,32.23-8.83,46.17-12.15,4.48-1.07,10.51-2.3,15-3.17,3-.58,7.09-1.38,10.13-1.93,4.4-.79,10.27-1.8,14.68-2.5,9.23-1.48,16.63-2.43,21.53-3.06,6.65-.85,16.52-1.88,17.46-2h0c1.28-.11,3-.28,4.27-.41l4.31-.38c5.31-.45,9.07-.71,9.1-.71,9.68-.66,13.69-.87,22.58-1.23,4.35-.17,10.15-.29,14.5-.32,4.77,0,11.13.05,15.89.08,5.12,0,11.94.34,17.06.5,11,.35,25.64,1.45,36.6,2.41,26.54,2.32,55.63,6.61,78,11.52,13.1,2.88,30.52,7.06,43.36,10.94,17.2,5.19,39.94,12.79,56.71,19.25,27.32,10.53,62.62,27.6,88,42.27,14.11,8.18,32.5,19.83,45.95,29.06,12.29,8.44,28.18,20.44,39.79,29.81,12.13,9.8,27.75,23.56,39.07,34.29,10.91,10.33,24.52,25.06,35,35.86,10.72,11.07,23.52,27.23,32.93,39.44s21.24,28.89,29.64,41.75c16.71,25.58,35.32,62,48.82,89.39,6.91,14,14.16,33.64,19.39,48.38s10.84,34.86,15.46,49.8c4.73,15.27,8.79,36.28,11.65,52,2.9,16,5.89,37.44,7.49,53.6s3,37.5,3.1,53.61c.13,15.85-.06,37-1.22,52.84-1.45,19.71-3.82,46-7.5,65.45-2.88,15.17-6.72,35.41-10.45,50.4s-9,35-14.41,49.43-11.63,34-18.18,47.91c-6.45,13.69-14.53,32.2-21.51,45.63s-16.75,31.57-25.24,44.29c-8.34,12.49-19.16,29.35-28.05,41.46-9.08,12.35-21.38,28.76-31.8,40-20.25,21.83-48.36,49.93-70.23,70.13-11.19,10.34-27.34,22.78-39.8,31.56-13.2,9.3-30.73,21.9-44.72,30-22.85,13.17-53.85,29.92-77.91,40.71-11.3,5.07-26.73,11-38.31,15.37-6.76,2.57-15.92,5.6-22.8,7.82s-15.83,5-22.7,6.9c-12.34,3.33-28.88,7.47-41.33,10.36a429.38,429.38,0,0,1-74.41,9.27h0A429.38,429.38,0,0,0,1043.27,1315.08Z"/></clipPath></defs><title>MegaSena</title><g class="cls-2"><g id="Layer_1" data-name="Layer 1"><path class="cls-3" d="M905,106.3c324.76,0,588,263.27,588,588s-263.27,588-588,588-588-263.27-588-588h0C317,369.57,580.24,106.3,905,106.3Z" transform="translate(-266.53 -106.3)"/><g class="cls-4"><g class="cls-2"><polygon class="cls-5" points="695.84 1171.19 581.08 4.87 695.84 1171.19 695.84 1171.19"/><polygon class="cls-5" points="581.08 4.87 695.84 1171.19 695.84 1171.19 581.08 4.87"/><polygon class="cls-5" points="695.84 1171.19 581.08 4.87 695.84 1171.19 695.84 1171.19"/><polygon class="cls-5" points="581.08 4.87 695.84 1171.19 695.84 1171.19 581.08 4.87"/><path class="cls-5" d="M847.61,111.17,962.37,1277.5h0Z" transform="translate(-266.53 -106.3)"/><g class="cls-2"><g class="cls-6"><path d="M593.11,521.14c-17.26,3-40.26,7-57.49,10.07-7.8,55.08-9.74,70.54-12.27,135.27-8-48.73-12.4-75.57-14.39-130.22-15,3-35,7.08-49.92,10.28-7.18,94.59-5.07,136,11.91,233.27,9.67-2,22.55-4.83,32.23-6.8-8.7-51.58-15-88.85-16-157.12l5-1.52c7.4,52.17,12.29,86.63,32.31,154.42l24.34-4.61c-3.35-56.87-5.37-91.2.16-164.21l5.58-.55c2.37,53.69,3.93,89.16,16.36,160.75,11.49-2,26.8-4.68,38.3-6.61-14.47-94.65-17.77-142.44-16-232.42" transform="translate(-266.53 -106.3)"/><path d="M523.35,666.48c2.35-56.77,2.9-70.26,12.27-135.27,17.24-3.08,40.23-7.14,57.49-10.07-1.71,90.28,1.59,138.06,16,232.42-11.49,2-26.82,4.57-38.3,6.61-8.6-54.08-14.28-89.81-16.36-160.75l-5.58.55c-3.47,56.24-5.56,90.19-.16,164.21l-24.34,4.61c-13.9-50.19-23.94-86.44-32.31-154.42l-5,1.52c1.82,51.51,3.13,88.72,16,157.12-9.67,2-22.58,4.68-32.23,6.8-17-97.57-19.1-139-11.91-233.27,15-3.15,34.92-7.31,49.92-10.28.56,15.45,1.28,28.54,2.48,45.18,3,25.59,7.66,59.63,11.91,85m75.75-153c-20.3,3.46-47.35,8.18-67.61,11.84-4,26.34-8.47,61.59-11.11,88.1-5-45.42-5-45.42-6.43-82l-.11-2.71c-17.57,3.51-41,8.31-58.5,12.06-5.4,61.53-11.52,131.27,12.49,247.14,12.54-2.68,29.26-6.27,41.83-8.83-10.21-57.85-11.78-66.75-15.58-114.51,11.75,58.27,13.26,65.75,27.28,112.19l33.54-6.35c-3.81-58.85-4.39-67.9-3.49-116.6,5.92,59.91,6.68,67.61,15.21,114.47,14.9-2.6,34.77-6.08,49.7-8.57-9.08-57.32-21.52-135.83-17.21-246.18" transform="translate(-266.53 -106.3)"/><path d="M664.22,620.37c-1.77-25.56-2.44-35.13-.74-40.19,2.22-6.63,11.65-8.81,15.9-5.16,3,2.53,4.15,6.37,5.41,24.12l1.32,18-21.87,3.27m5-73.58c-54.77,9-52.19,55.36-51.09,75.18,6.89,82.2,8,94.83,24.79,111,19.42,18.6,66.12,15.23,84.68-6.1C744.29,707.71,742,687,739.79,667.06l-1.25-11.31c-13.58,1.94-31.69,4.48-45.25,6.47,4.4,38.52,4.57,40,2.87,45.81-2.64,9-13.39,10.39-18.14,6.13-3.13-2.81-4.77-8.16-6.49-21.21l-5.17-47.38c21-3.11,49-7.21,70.08-10.18-5.26-56.49-9.06-97.3-67.18-88.6" transform="translate(-266.53 -106.3)"/><path d="M670,612.28c-1-14.68-1.66-24.37-.82-29.39.44-2.64,5-3,6.08-2.19s2.17,4.58,3.2,19.37l.76,10.82L670,612.28m2.72-38.92c-10.82,2-11,8.09-9.73,29l1.25,18,21.87-3.27c-2.26-30.86-2.4-32.71-3.72-37-2-6.45-6.35-7.22-9.67-6.73m18.87,170.83c-59.8,8.31-65.29-38.53-68.24-63.7-7.25-78.14-8.56-92.22,5.45-111.36,16.18-22.1,61.33-32.43,85.35-12.7,10.24,8.41,16.82,20.3,20.18,56.19l2.12,22.78c-21,3-49.07,7-70.08,10.18,6.37,58.36,6.37,58.36,8.52,63.68,4.64,11.49,15.75,6.67,18.65,3.58,3.79-4.05,4.37-10.75,2.4-27.54l-2.64-23.06c13.58-1.95,31.67-4.58,45.25-6.47,3.75,33.8,8.88,80.1-47,88.43M669.1,540c-60.91,10-58,63-56.95,83,6.95,83.41,8.2,98.44,28.21,116.58,21.87,19.82,71.78,15.71,92.07-7.59,18.81-21.6,16.22-45.08,13.94-65.79l-2-18.62c-17.47,2.47-40.76,5.76-58.21,8.33,4.71,42,4.71,42,4.4,46.39-.7,9.72-8.12,6.6-8.2,6.55-.81-.47-2.49-1.45-4.5-16.79l-4.48-40.11c21.11-3.1,49.26-7.18,70.38-10.14C737.56,577.11,733.09,530.4,669.1,540" transform="translate(-266.53 -106.3)"/><path d="M825.61,670.13c-10.94.94-12.43-7.56-14.32-23.93-7.73-74.48-7.73-74.48-6.91-81,1.61-12.7,13.84-13.07,18.33-9.26,2.6,2.21,3.94,5.55,5.48,20.57,9.43,92.16,9.43,92.16-2.58,93.62M785.89,530.65c-24.49,3.62-33.12,18.26-30.79,52.21,8,88.93,8.63,96.19,16.89,106.85,11.21,14.47,41.8,20,62.37-4.56l.76-.93,5-6.22c4.34,36.48,4.43,37.17,2.6,42.41-2.37,6.81-13.33,9.79-19.22,5.24-3.49-2.7-4.65-7-5.35-9.6-14.33,1.87-33.44,4.33-47.76,6.26,13.08,61.48,101,30.46,115.86,7.42,8.53-13.24,8.24-15.79,3.47-58.4-5.22-46.5-10.15-90.42-16.33-148-13.9,1.65-32.43,3.82-46.32,5.52l-3.52,18.82c-9.17-9.61-18.66-19.55-37.63-17" transform="translate(-266.53 -106.3)"/><path d="M824.77,662.8c-3.36.23-4.62.31-6.66-17.47-6-57.59-7.27-69.58-7.26-75.47,0-13.21,7.24-8.68,7.32-8.64,1.24.8,2.26,5.77,3.3,16.12,8.59,84.8,8.59,84.8,3.3,85.46M814.66,554c-11.26,1.74-11.27,12.12-10.12,25.51,7.56,76.64,7.6,76.76,9.64,83,3.68,11.18,15.16,8.45,18.9,3.82,2.69-3.33,3.71-7.21,1.48-28.38-9-85.24-9-85.24-19.91-83.91m-8,147.55C767.85,706,764.3,675.31,762,655c-9.3-93-9.3-93-2.85-107.26,7.53-16.66,36.85-24.3,55.4-9A52.09,52.09,0,0,1,819,543l4.49,4.71L827,528.88c13.9-1.66,32.42-3.91,46.32-5.52,20.56,189.83,20.56,189.83,17.32,197.87-16.33,40.53-90.69,41.32-107.75,26.6-8.75-7.55-11.33-19.68-12.57-25.51,14.33-1.88,33.42-4.43,47.76-6.26,5.09,18.81,21.18,11.08,24.09,5.45,2.16-4.18,1.55-12.55.66-20.19L840.1,678c-8.41,10.53-17.11,21.41-33.4,23.51M785.4,523.82c-35.71,5.35-38.71,33.3-36.93,59.95,8,90.76,8.71,98.18,18.38,110.55,14,18,46.25,21.91,68.35.34,1.34,11,2.31,19,1.34,22.39-1,3.53-6.78,4.12-8.66,3.09-2.59-1.41-3.4-6.73-3.67-8.48l-.46-3.64c-18.36,2.38-42.85,5.55-61.2,8,12.56,82.7,112.76,40.2,127.37,20.67,12.18-16.27,11.54-22,6.62-66.17-6.19-55.15-10.67-95-17.23-154.71-17.37,2-40.52,4.76-57.88,6.89l-2.07,11.08c-4.2-3.4-15.35-12.44-34-10" transform="translate(-266.53 -106.3)"/><path d="M976.62,679.93c-11.7.8-13.86-7.64-16-27.07-2.61-23.87.63-28.6,8.88-37.93,2.23-2.52,4.06-4.31,6-6.2l4.91-4.78c8.57,74.73,8.57,74.73-3.79,76M957.45,510.71c-59.64,6.89-55.21,48-53.08,67.7l1.1,9.58c14.11-1.54,32.92-3.63,47-5.12-3.66-29.49-4.32-34.8-2.85-39.36,1.84-5.69,11.31-8.05,16.9-4.21,8.71,6,10.7,36.62,8.7,42.57-1.3,3.86-8.85,9.08-29.92,20.68-33,18.17-35.44,22-32.48,50.7,3,27.11,4.85,43.47,15.49,50.86C940.83,712.78,966,715,978.71,699a41.13,41.13,0,0,0,6.05-11.08l5-13.82,2.89,29.08c14.59-1.43,34-3.38,48.63-4.76-6.08-63.36-13.65-142.21-23.29-163.77-4.81-10.77-19.08-28.19-60.59-23.9" transform="translate(-266.53 -106.3)"/><path d="M975.86,672.64c-3.65.28-4.68-1.09-5.62-4.28-1.77-6-3.27-18.83-3.51-26.6-.28-9.33,0-12.69,7.54-21.4l1-1.17c6,52.92,6,52.92.56,53.45m4.55-68.7c-14.71,14.34-19.54,19.9-20.42,30.85,0,.44-3.06,44.4,14.33,45.2,14.56.67,13.35-11.07,11.67-27.31-1.67-14.62-3.82-34.13-5.58-48.74m-20.62-18c-4.06-32.43-4.3-34.37-4-38.52s6.09-3.22,7.37-2.17c4.28,3.53,6.46,26.8,6.08,31.33-.25,3-.3,3.58-9.49,9.36M905.47,588c-4-34.93-4.75-51.05,19.46-67.17,15.09-10,58.67-17.93,81.73-.17,10.39,8,15.61,12,24.36,80.16,7.29,63,7.43,64.24,10.32,97.56-14.59,1.42-34,3.29-48.63,4.76l-2.89-29.08c-26.2,71.75-68.41,21.69-68.76,21-4.28-8.56-5.67-19.78-6.34-25.17-5.31-47.55-5.31-47.55,30.63-67.32,29.94-16.48,30.12-18.39,30.81-25.53,2.68-27.7-12.41-49.73-24.84-36.27-2.55,2.76-3.28,5.65-.9,25.18l2.1,16.93c-14.11,1.53-32.93,3.54-47,5.12m51-84c-66.1,7.65-61.08,55-58.94,75.18l1.89,16.72c16-1.77,37.4-4.15,53.43-5.85-48.55,28-50.45,29.14-46.88,64,3.1,27.69,5.34,47.7,18.78,56.25,17.31,11,44.86,11.61,59.19-6.63.54-.68,1.2-1.63,1.7-2.34l.94,9.75c18.62-1.85,43.44-4.32,62.06-6.08-7-75.64-14.62-151.29-24.55-172.95-5.73-12.48-22.12-32.73-67.62-28" transform="translate(-266.53 -106.3)"/><path d="M1116.56,576.28c-20,1.67-46.61,3.92-66.57,5.7l4.41,34.7c20-1.76,46.76-4.09,66.81-5.74l-4.64-34.66" transform="translate(-266.53 -106.3)"/><path d="M1054.4,616.68,1050,582c20-1.75,46.6-4.06,66.57-5.7l4.64,34.66c-20,1.68-46.77,3.94-66.81,5.74m67.67-48c-23.94,2-55.84,4.7-79.77,6.83,1.87,14.74,4.5,34.37,6.21,49.13,24-2.14,56.1-4.91,80.16-6.88-2-14.72-4.38-34.38-6.61-49.07" transform="translate(-266.53 -106.3)"/><path d="M1170.6,492.41c-72.65,5.65-36.77,80.39-24.51,90.94,8.4,7.23,20.1,13.34,28.63,17.8,4.57,2.39,27.48,14.48,30,18.14,3.49,5.13,14.08,40.4-6,41.48-11.44.62-12.64-10.51-14.63-29l-1-9.21-41.38,3c4,36.78,8.12,48.83,27.45,57.81,18.62,8.66,57.41,8.72,73.44-10.92,16.82-20.61,3.41-66.09,3.25-66.53-3.82-10.35-9.16-19.39-39.59-33.55-20.88-9.72-30.19-15.4-33.76-25.39-11-30.71,8-34.38,15.95-24.45,2.81,3.51,4.9,14.33,5.79,19l1.28,7,39.05-2.33c-4.68-24.22-11.09-57.4-64-53.82" transform="translate(-266.53 -106.3)"/><path d="M1198.13,653.47c-3.87.14-5.32.2-7.73-22.08l-1.62-14.7c11.72,6.83,11.74,6.9,13,10.76,1.51,4.74,2.61,15,2.37,19.45-.21,3.8-.6,5.42-3.76,6.24a12.55,12.55,0,0,1-2.23.34m.6,7.31c21.25-2.33,9.49-39,3.94-43.41-16.86-13.24-38.19-19-54.82-32.57-4.73-3.87-11.21-9.17-15.87-25.29-12.51-43.24-2.48-62.57,34.64-66.75,56-6.3,63.62,31.55,66.49,45.8l1.48,7.66-39.05,2.33c-2.75-15-4.35-23-7.87-26.87s-12.55-4.5-16.35.42c-5.46,7.07,1.2,26.57,3.66,30.12,4.94,7.12,14,12.2,31.3,20.23,31.26,14.55,36.23,23.49,40.25,35.46.15.45,13.6,46.82-5.91,66.86-5.12,5.26-86.42,46.63-97.51-37.07-.23-1.77-.5-4.13-.7-5.91l-.68-6.16,41.38-3c3.31,30.62,4.2,38.85,15.63,38.16m-29.7-175c-77,6-44.68,87.17-27.38,102.5,6.14,5.44,6.14,5.44,44.24,26.77-15.46,1.12-36.07,2.59-51.52,3.78,4.33,38.6,6.5,58,30.47,70.47,20.32,10.6,63.48,11.35,82.23-11.69,17.58-21.61,7.41-66.88,3.23-76.5a44.4,44.4,0,0,0-9.91-15c-17-16.17-42.46-18.39-58.84-35.61-5.3-5.57-6-20.08-6-20.21.49-7.2,7.62-4.37,7.69-4.31.86.73,2.16,1.82,4.87,16l2.5,14c15.37-.94,35.85-2.21,51.22-3.05-6.36-33.36-13.57-71.16-72.77-67.17" transform="translate(-266.53 -106.3)"/><path d="M1298.81,557.26C1291.69,521,1291.69,521,1292,518c.49-5.66,6.86-6.74,10.6-4.42s6.11,6.54,10.21,25.4l3.54,17.69-17.5.62m-9.4-71.06c-43.61,2.28-36,44.63-32,67.38,15.86,100.85,15.86,100.85,26,113.27,15.41,18.89,53.21,23.12,68.06,2,12.59-17.9,10.18-39.43,8.24-56.74l-1.39-11.26c-9.77.24-22.81.51-32.58.81,3.47,30.09,4.3,37.25,2.91,44.2-2.19,11-10.87,8.77-13.13,7.14-3.89-2.79-5.06-8.35-6.59-23.62l-5.9-47.25c15.71-.51,36.65-1.15,52.36-1.5-7.9-45.1-16.86-96.21-66-94.46" transform="translate(-266.53 -106.3)"/><path d="M1302.61,550c-5.3-26.23-5.3-26.23-5.4-29-.07-1.87,3.31-2,4.34-1.38.65.41,2.38,1.5,6.26,19.51l2.17,10.65-7.37.26m-4.26-37.62c-8.5.64-7.56,5.21-3,27.15l3.47,17.7,17.5-.62c-6.84-34.21-8.91-44.54-18-44.23m24.2,170.34c-47.59,1.06-52.87-42.46-56.37-71.25-13.83-95.24-13.83-95.24-8.23-106.91,9.76-20.34,42.45-24.72,63.6-8.52,12.44,9.53,22.29,23.73,29.88,62.05l3.95,22.54c-15.71.38-36.66,1-52.36,1.5,7.8,62.45,7.8,62.45,8.72,65.14,3.44,10.09,12.1,7.64,14.83,3.91,2-2.74,3.61-7.84,1.82-26.47l-2.66-23.06c9.77-.25,22.81-.64,32.58-.81,3.47,28.06,9.94,80.28-35.77,81.88m-35.06-203.18c-48.53,2.55-39.94,51-35.81,74.31,16.38,104.62,16.38,104.62,28,118.2,17.93,21,58.28,26,75,2.33,14.21-20.15,11.47-44.54,9.47-62.34l-2.39-18.52c-12.57.28-29.34.65-41.91,1,4.68,39.05,4.68,39.05,4.3,46.33-.49,9.4-6.92,5.28-7,5.21-1.33-1.53-2.23-9-3-16.89l-4.83-40c15.48-.48,36.12-1.07,51.61-1.38-8.82-51.64-18.81-110.16-73.38-108.23" transform="translate(-266.53 -106.3)"/><path d="M1396,485.31c-5,.14-9.6,2.48-10,18.47l-.36,11.77-7.15-27.3c-8.51,0-19.85-.11-28.36-.05,14.38,53.74,28,104.5,30.35,189.63,8.57,0,20-.06,28.56,0-2.39-42.6-4.64-82.84-17.72-141.57-2.91-13.08-4-18-3.66-20.76.87-7.08,6.55-3.24,6.61-3.2,2.5,1.84,4.47,3.3,10.81,30.78,12.59,66.76,13.09,69.36,16.31,135,6.75.25,15.75.5,22.49.87-6.26-118.64-24.6-192.84-47.85-193.63" transform="translate(-266.53 -106.3)"/><path d="M1385.62,515.55c.34-11.31,1.39-45.72,21.3-24.44,5.81,6.21,11.34,14.36,20.13,51.23,13.05,66.89,13.56,69.5,16.8,136.6-6.75-.27-15.74-.69-22.49-.87-6-109.83-22.21-178.1-32.65-165.76-2.12,2.5-2.12,2.5,4.75,33.79,12.07,66.46,12.54,69.05,15.55,131.75-8.57,0-20-.09-28.56,0-3.35-56.9-6.51-110.64-30.35-189.63,8.51,0,19.85,0,28.36.05l7.15,27.3m8.16-36.87c-6.12.18-9.31,3.8-11,12.51l-2.78-9.53c-10.8-.07-25.2-.14-36-.07,15.94,57.52,29.7,107.2,32.46,203.54,10.86,0,25.35-.08,36.21,0C1410.59,638.92,1408.79,599,1395,537c-3.83-17.17-3.83-17.17-2.79-18.78,3-.43,3.73-.54,9.54,24.78,13.1,69.65,13.25,71,16.4,142.23,8.56.28,20,.64,28.52,1.1-6.26-152.17-32.39-207-52.86-207.68" transform="translate(-266.53 -106.3)"/><path d="M1471.21,656.78c-4.38-1.8-9.95-46.87-6-70.25l.65-4c7.81,57.58,10.17,75,5.36,74.23M1438.8,488.62c-15.22-.91-7.67,32-1.61,58.42l2.1,9.49c4.59.45,10.72.94,15.29,1.52-9.73-42.08-9.73-42.08-8.2-43.27.39.13,25.42,34.66,8.25,62.92-8.2,13.5-8,15.78-5,43.7,4.12,44.4,4.12,44.4,6.38,51.29,1.81,5.51,8.5,16.39,13.55,9.37,2.79-3.87,3.66-13.19,3.95-16.25l1-13,1,29.27c3,.68,7,1.4,9.93,2.31-9.14-185-46.23-195.75-46.6-195.81" transform="translate(-266.53 -106.3)"/><path d="M1470.79,649.45c-2.22-.76-6.43-37.91-4.28-52.71,4.87,39.71,6.51,53.08,4.28,52.71m-4.93-66.9c-5.38,33.1,2,78.12,6.39,73.86,1.47-1.42,1.94-5.87.17-25.27-2-14.58-4-34.1-6.56-48.59m-8.56-20.49c-3-13-6.53-25.77-9.22-38.8-.48-2.34.9-1.52.91-1.51,2.27,1.44,7.69,24.39,8.68,29.2,1.36,6.62,1.36,6.62-.38,11.11m-18-5.53c-8.23-37.2-17.57-79.37,3.77-66.31,15.69,9.6,27.67,64.59,33.42,96.52,8.39,63,8.55,64.16,8.92,97.69-3-.71-6.92-1.77-9.93-2.31l-1-29.27c-1.41,18.74-3,40-13.28,28.89-5.84-6.3-7.62-14-10-43.63-3.72-40.14-3.72-40.14-3.22-44.08,1.38-10.77,9.89-18.42,12.52-28.65,2.09-8.11-8.72-47.83-13.76-50.59l-1,.38c-.82,2.59-.82,2.59,5,26.08l3.88,16.79c-4.59-.46-10.69-1.17-15.29-1.52M1436.44,482c-16.84-1-8.14,37.08-1.78,64.87l3.56,16.56c5.32.48,12.41,1,17.71,1.69-12.22,24.24-12.22,24.24-8.88,56.12,3.3,35.58,7.82,84.31,22.57,68.55,1.65-1.76,3-5.29,4.13-10.5l.07,9.82c3.82.8,9,1.79,12.68,2.95-7.22-194.85-49.62-210-50-210.06" transform="translate(-266.53 -106.3)"/><path d="M342.15,569.1c-1.41,1.09-4.34,3.34-8.49,19.1-4.11,16.89-5.76,33.71-4.4,45l2.63,14.31c-4.37-9.22-4.37-9.22-5.24-9.81-8.81,2.33-7.37,68.78-3.2,72.44a3.91,3.91,0,0,0,.75.39c.86-.39,1.22-.55,2.16-2.85a281.57,281.57,0,0,1,20.08-29c-2.46-58.85-2.51-60-.31-85.53,1.14-13.32.14-26.26-4-24" transform="translate(-266.53 -106.3)"/><path d="M333.66,588.19c5.3-20.12,9.45-20.81,11.06-18,1.1,1.89,2.73,7.62,1.25,24.82-.78,25.09-.69,58.6.47,83.67-15.44,19.56-17.05,21.6-20.36,29.67-.73,1.78-1.18,1.91-2.08,2.16-6.68-5.17-4.64-68.46,2.35-72.81.77.23,1.09.32,1.76,1.88l3.77,7.94c-3.11-16.95-5.57-30.33,1.77-59.29m9.82-25.95c-7.85,6-16.11,41.16-16.07,68.32-5.13,1-7.53,27.95-8.08,42.06-.89,22.7,1.3,43.77,4.68,45.09.74.29,1.67.14,3-3.17,12-20.17,12.19-20.55,22.23-31.41-3.08-56.3-3.48-63.53-1-92.41,1.4-16,0-31.07-4.79-28.47" transform="translate(-266.53 -106.3)"/><path d="M369.47,541.42c-8.58,3.7-17.26,26.1-18.57,47.95-.77,25.1-.66,58.61.51,83.69,12.42-11.53,26.65-20.93,38.74-32.87,1.33-1.31,4.75-5.22,8-13.24,9.3-23.32,5.43-53.4-6.9-53.64-2.52,0-9.08,1.39-15.49,15.81l-8.4,20.65c10.13-37.36,10.13-37.36,10.47-48,.55-17.51-4.13-21.93-8.31-20.4" transform="translate(-266.53 -106.3)"/><path d="M351.41,673.06c-1.64-38.77-3.06-72.26.68-94.54,3.9-23.2,14.66-41.62,21.33-36.52,5.05,3.87,6.54,21.43.29,44.12l-6.41,23.65C375,591,389.19,556,400.22,581.21c7.23,16.52,1,52.68-14,62.07-10.78,8.54-24.83,20.37-34.85,29.78m19.51-138.36c-10.23,4.4-20.63,31.12-22.26,57.18-1.79,57.92-1.83,59,1.1,90.45,13.21-12.67,28.8-22.59,41.56-35.79,4-4.09,7.41-10.08,10.26-17.81,10.45-28.29,5.6-62.1-9-62.37-4.34-.08-8.81,3-13.29,9.19,1.37-27,2.27-44.76-8.4-40.84" transform="translate(-266.53 -106.3)"/><path d="M392.93,655.58a11.61,11.61,0,0,0-4.91,2.88c-10.86,8.62-25,20.57-35.09,30.07,5.09,33.85,11.42,76,18.68,94.88,6.4,16.67,16.19,22.3,22.78,13.1,3.77-5.26,4.71-12.94,5.12-16.21l1.83,1.51-1.83-1.51c1.4-17.55-2.58-34.84-10.64-46.26l-10.49-14.35c16.68,11.16,19.24,12.88,26.31,4.09,7.83-9.75,11-29.14,7.45-46.11-3.14-15.16-11-24.25-19.2-22.1" transform="translate(-266.53 -106.3)"/><path d="M389.25,800.59c-8.13,1.83-15.93-8.22-20.36-26.22-5.67-25.57-12.19-59.91-16-85.83,36.31-33.83,39.83-33.54,43.23-33.25,10.08.85,17.88,18.05,17.38,38.35-.6,24.41-12.05,40.85-23.57,33.82l-11.6-7.76c14.6,20,23.42,32,21.14,60.61l1.83,1.51-1.83-1.51c-1.8,14.6-6.56,19.09-10.25,20.28M393,648.39a14.65,14.65,0,0,0-5.83,3.33c-26.47,21-27,21.38-37.21,32.26,4.47,32.44,11.22,81.46,20.6,105.14,6.33,16,18,25.44,26.48,13.63,8.36-11.6,9.77-41-1.46-66.24,23.21-.72,30.4-64.62,9.5-84.4-2.6-2.46-6.81-5.1-12.08-3.72" transform="translate(-266.53 -106.3)"/><path d="M347.92,694.16c-13.17,16.76-21.12,26.88-22.25,38.21-2.3,23.13,5.63,64.55,12.14,63.31,1.25-.24,3.39-2.59,3.74-15.68l1-21.15c3.71,83.34,22.28,69.65,22.46,69.43,4.52-5.45,5.42-25.37-1-48.05-5.73-25.63-12.28-60.08-16.08-86.07" transform="translate(-266.53 -106.3)"/><path d="M338.29,795.49c-9.75,3-16.37-59.94-10.83-71.48.12-.24.3-.56.43-.79a282.05,282.05,0,0,1,20-29.07c9,60.06,9.39,62.4,16.59,87.89a120.21,120.21,0,0,1,3.71,20.68c1.8,21.41-3.16,30.16-9,26.24-6.18-4.15-13.72-22.42-15.63-45.79l-1.08-24.33c-1.62,35.11-1.62,35.11-4.24,36.64M349.4,684.84c-15.48,18.88-23.61,29.33-24.8,42.19-2.5,27.25,6.23,74.74,13.95,75.84,3,.43,4.11-7.05,4.46-9.51,5.79,33.54,18.48,50.42,24.81,40.72,4.9-7.5,5.6-30.68-1.7-56.48-13.28-59.69-13.54-60.83-16.72-92.76" transform="translate(-266.53 -106.3)"/></g></g></g></g><circle class="cls-7" cx="638.47" cy="588.03" r="588.03"/><circle class="cls-8" cx="638.47" cy="588.03" r="588.03"/><circle class="cls-9" cx="638.47" cy="588.03" r="588.03"/><circle class="cls-10" cx="638.47" cy="588.03" r="588.03"/><circle class="cls-11" cx="445.57" cy="540.03" r="265.5"/><g class="cls-2"><g class="cls-2"><g class="cls-12"><path class="cls-13" d="M312.43,491.36c-8.27,3.24-14.66,15.21-18.57,24.68-.79,1.92-2.9,7-4.87,13.53-.22.73-.51,1.7-.72,2.42-.36,1.22-1.65,5.7-3.1,12.38-1.32,6.13.32,12.84-3.57,18.48-4.57,6.62-7.44,16.51-8.38,19.75-1,3.57-1.79,6.95-2.35,9.41-4.67,20.84-7.35,59,1.35,78.58,1.6-5.61,2.25-11.44,4.07-17-10.72-15.88-2.06-78.17,10.53-75.74a5.26,5.26,0,0,1,2.49,1.61c-5.69-34.93,12.5-74.23,22.63-67.71,1.9,1.22,3,4.2,3.42,5.31,3-6.37,4.22-13.4,7-19.86-1-1.92-4.12-7.76-9.94-5.85" transform="translate(-266.53 -106.3)"/><path class="cls-13" d="M349.87,465.05c-12.57,3.9-21.64,19.05-27,31.08a130,130,0,0,0-7.35,21.28c-1,7.21,1.9,14.17,1.32,21.36-.4,21.86-.78,51,.12,72.88l3.88-2.85c-1.22-54.85-1.68-75.37,2.28-90.26,7.37-27.69,22.27-39.74,30.17-31.63,4.09,4.2,9.46,19.16.57,45.76,12.83-23,29.18-20.51,34.69-3,1.1,3.5,6,22.15-5.59,45.23a23.55,23.55,0,0,1,12.36,5.29c18.89-44.35,4.1-93.77-24.72-82.62-2.83-18.76-5.5-36.47-20.68-32.48" transform="translate(-266.53 -106.3)"/><path class="cls-13" d="M320.8,608.8l-3.88,2.85v.26l3.88-2.85,0-.25m62.11-33.93c-1.62,3-6.56,12.12-14.94,16-12.32,7.53-28.75,17.61-40.71,25.71l.73,8.34c46.83-30.62,47.07-30.55,53.31-28.76,15.76,4.51,21.18,28.92,17.17,48.94-3.89,19.38-16.6,35.15-31.16,28,9.71,12.49,13.26,31.47,9.48,50.77-5.45,21.85-18.87,28.94-30.56,16.16-1.76,7-.17,14.12-1,21.15,24.42,20.67,49.75-12.07,45.94-59.37-.37-4.54-.83-7.42-1.33-10.47,35.34-28.1,30.35-111.89-6.95-116.43" transform="translate(-266.53 -106.3)"/><path class="cls-13" d="M292.49,739.8c-16.22,3.25-20.25-61.05-9.57-76.37a8.46,8.46,0,0,1,2.06-2.22c9.73-9.11,23.07-20.87,33.5-29.17,8.65,66.67,8.65,66.67,14.37,90a94.23,94.23,0,0,1,2.39,22.72c-.48,22.78-9.72,35.76-19.75,27.78-7.53-6-15.27-24.09-14.48-49.69-2.66,13.89-6.84,16.47-8.51,16.93m28.32-130.75-3.88,2.85.82,11.77c-12.25,9.94-22.81,21.82-35.56,31.19-2.75,2-4.63.09-5.63-.94-11.34,20.34-4.87,112.31,18.39,107.48a8.9,8.9,0,0,0,2.77-1.26c7.39,16.48,27,60.24,42.89,20.53,5.48-13.69,5.91-32.25,5.31-41.05,0-.41-.6-.74-.85-1.05-2.23-2.75-6.34-9.22-8.85-21.64-4.86-26.28-10.69-61.47-13.87-88l5.64-4-.73-8.34-5.64,4-.81-11.52" transform="translate(-266.53 -106.3)"/><path class="cls-13" d="M513,586.91c6.77-67.27,7-69.9,13.88-108.64,20.45-3.22,41.65-6.39,63.47-9.51a1304.52,1304.52,0,0,0,5.26,188.46q2.3,23.39,5.34,46.42-22.9,3.28-44.9,6.63c-5.23-45.37-11.16-96.79-11.32-161.59-4,47-8.17,95.65-6.09,164.27q-15.33,2.4-30.11,4.82c-9.13-39.63-21.63-93.92-27.68-155.27,1,78.27,1,78.27,10.37,158.15q-20.33,3.43-39.42,6.9-3.41-23-5.72-46.36a888.33,888.33,0,0,1,1.19-189.49c18.06-3.28,37-6.54,56.82-9.77.88,20.55,1.64,33.65,2.51,47,1.85,17.41,4.05,40.65,6.4,58m95.64-140c-63.49,8.87-122.18,18.23-172.82,27.71-9.8,65.84-11.7,136.25-4.51,209.32q3.37,34.29,9.21,67.65c26.77-5,55.7-10,86.33-14.89l2.34,8.35-.5-8.65c29.65-4.73,60.89-9.38,93.32-13.91q-1.61-11.13-3.06-22.36c-19.85-19.59-23.4-43.66-25.53-68.67q-2.31-28.9-3.36-57c-.87-30.61,4-50.23,16.77-67.73q.2-30.52,1.81-59.78" transform="translate(-266.53 -106.3)"/><path class="cls-13" d="M734.78,637.4a57.07,57.07,0,0,1-1.15,12.7l5.93-.71a74.53,74.53,0,0,1-4.78-12M728.18,590q-33.69,4.07-66.35,8.34,1.5,21.16,3.55,42.74c1.09,11,2.34,16.32,4.33,18.47,3.08,3.32,9.49,1.78,11.89-1s3.3-7.32,1.84-23.8q-1.23-13.16-2.26-26.16,23.74-3,48-6-.53-6.35-1-12.67m-61.87-61.7c-7.17,1.08-8,2.51-7.12,24.37q.31,7,.68,14l15.38-2q-.39-7-.73-14c-.94-18.55-1.87-23.17-8.22-22.38M663,475.75c-50.06,7.2-74.6,40.38-72.94,98.62q1.06,28.13,3.36,57c10.55,123.91,117.39,89.11,141.33,61,1.91-2.25,3-3.82,4.24-5.49a104.43,104.43,0,0,1-3-14.8l-2.63-20.88c-14.93,57.25-89.75,57.19-111.06,21.72-4.1-6.81-8.3-15.83-10.72-44.13q-2.34-28.89-3.49-57C604.93,476,693,491.13,711,507.66c8.85,8.13,11.83,17.82,13.26,22.48,2.67-25.58,2.67-25.58,5.18-32.6-15.76-18.13-38.11-25.46-66.41-21.79" transform="translate(-266.53 -106.3)"/><path class="cls-13" d="M881.55,568.82l-5.51.55q.67,6.93,1.34,13.92a50.7,50.7,0,0,1,4.17-14.47m-75.11-57.17c-7.41,1-8.23,7.3-7.26,21q2.44,31.93,5.46,65.08c1.46,15.41,3,17.24,4.25,18.7,2.06,2.43,8.16,2.42,10.91-.8,1.8-2.1,2.93-5.12,1.18-24.93q-2.79-30.43-5.15-59.86c-1.34-16-2.44-20-9.39-19.2m-29.38-49.72c-22.22,3.13-37.57,13.49-45.64,30.81-1.6,3.43-6.46,13.86-7,33.22-.34,12.91,4.17,25.17,5.1,37.9q.88,12.8,1.91,25.78l-3.27.39q.5,6.31,1,12.67l3.28-.4q.61,7.28,1.27,14.62c2.2,25,2.2,25,5.8,32.45l-5.93.71-.27,1.17c4.47,35.48,8.33,66.11,44.32,77.28,26.34,8.17,86.56,5.62,112.8-28.53a74.66,74.66,0,0,0,11.27-21.34c-5.24-10.3-14.51-18.08-18.22-29.33,4.66,74.47-97.37,67.49-114.85,51.14-10-9.32-12.14-24-13.18-31.12q26.71-3.15,53.88-6.16c2.61,20.38,17,9.26,17.19,9.09,1.79-2.1,2.72-6.15,1.46-19.06q-.77-7.49-1.52-15c-13.72,16-70.11,43.93-77.23-31.87Q746.14,570.51,744,536c-3.61-71.25,51.81-56.36,65.32-44.44,1.19,1,2.66,2.56,3.76,3.69L816,480.85q25.5-2.75,51.22-5.34,1.42,15.51,2.9,31.38c1.94-15.56,6.42-25.42,16.51-36.36L885,453.81c-28.46,2.8-56.85,5.75-85,8.83-7.76,3.11-15.28-1.64-23-.7" transform="translate(-266.53 -106.3)"/><path class="cls-13" d="M965.36,566.47c-14,13.37-14.26,18.41-14.58,24.25,0,.39-2,39.06,11,39.32,10,.2,9.37-6.09,7.76-22.91q-2-20.55-4.19-40.66M944.14,445c-42.05,4.34-69.72,27.48-74,61.91Q873,537.52,876,569.38l5.51-.55a50.32,50.32,0,0,0-4.17,14.47q1.89,19.54,3.85,39.47l.08.78c3.08,31.53,4.12,42.15,20.8,54,13.83,9.8,38.78,17.19,63.57,5.8,29.21-2.65,58.35-5.13,87.21-7.4q-2.53-33.73-5.9-68.06-.52-5.26-1.05-10.49L1025.82,599q.53,5.23,1,10.49,2.3,23.39,4.26,46.54-27.34,2.23-54.9,4.69-.8-8.81-1.62-17.66c-14,35.46-59.3,29.16-69.89,4.7-3.82-8.82-5-19.07-5.58-24.58l-.21-2.15-1.4-14.25c-2.64-29.76.58-34.66,34.47-52.46,27.59-14.49,28.08-17,28.6-19.74,4.72-24.56-9.85-46.24-18.19-34.4-1.3,1.85-1.69,5.8,0,21.37q1.1,10,2.19,20-26.48,2.43-53,5l-1.26-12.87C882,441.95,979.64,460.38,998.8,477c11.06,9.6,13.24,19.39,16.74,38.87l19.92-1.6c-4.18-22.83-14-76.28-91.32-69.28" transform="translate(-266.53 -106.3)"/><path class="cls-13" d="M1108.27,548q.64,5.05,1.26,10.14l7.28-.5a63.26,63.26,0,0,1-8.54-9.64M1094,509.88q-29,2-58.58,4.38l-19.92,1.6c2.06,11.83,3.77,24,5.7,40.63q2.4,21,4.59,42.48l20.12-1.62q30.19-2.38,59.91-4.47-.19-1.65-.37-3.31-1-9.14-2-18.18-32.47,2.28-65.59,4.92-2.26-20.69-4.75-40.89,33.39-2.66,66.21-5a108.31,108.31,0,0,1-5.31-20.59" transform="translate(-266.53 -106.3)"/><path class="cls-13" d="M1166.91,481.1c-12.11,1-7.32,24.42,1.76,32.16,18.76,16,46.63,17.41,62,38.82q-2.61-19.59-5.79-38.7c-.29-1.77-.47-2.95-.76-4.84q-21.63,1-43.88,2.29-.83-5.17-1.7-10.31c-3-17.49-4.43-19.86-11.64-19.43m-12.55-51.88c-83.13,5.75-63.13,78.95-55,101.25l6.55-.46q1.22,9,2.37,18a62.77,62.77,0,0,0,8.54,9.64l-7.28.5q.77,6.33,1.5,12.72l-7.55.53q1,9,2,18.18c12.7,117.83,122.13,80,141.26,56a55.94,55.94,0,0,0,6.6-10.56,90.71,90.71,0,0,1-12.5-24.22c-7.3,49.78-84.53,44.18-103.78,18.6-7.53-10-10.18-25.72-11.91-41.21q-.51-4.79-1-9.56,24.25-1.63,48-3,.71,6.25,1.37,12.54c3.91,36,14.22,27.62,18.47,22.35,3.64-4.51,1.09-25.82-2.93-31.81-2.09-3.12-27.44-16.28-30.32-17.77-28.31-14.63-35-22.06-40.11-34.21-.17-.41-15.54-43.51-.24-61.89,17.45-21,91.21-28.37,103.7,21.65-.21-10,5.17-19.33,4-29.5-.24-2.11-8.31-9.17-8.39-9.24-16.33-13.82-37.63-20.06-63.32-18.54" transform="translate(-266.53 -106.3)"/><path class="cls-13" d="M1354.83,542.5q-26.73.41-57,1.39,3.07,21,5.33,42.59c1.23,11.44,2.31,16.51,4,18.72,2.75,3.59,8.43,2.71,10.54.26,1.76-2,3.15-6.3,1.37-23.38q-1.43-13.14-3.17-26.08,21.29-.6,40.73-.89-.88-6.33-1.83-12.61m-62.14-67.08c-6.84.37-6.43,2.54-2.47,23.23q1.33,6.89,2.56,13.85l13.69-.42q-1.26-7-2.6-13.85c-3.72-18.68-5.81-22.95-11.18-22.81m-15.07-51.82c-32,1.49-62.86,21.67-53.28,73.86q1,5.47,1.93,11l-2.14.1c.32,2.14.46,3,.76,4.84q3.17,19.11,5.79,38.7c14.17,21,10.38,57,10.34,57.35-.18,1.4,7.06,27.77,30.63,43.13,20,13.05,69.42,22.94,92.8-13.34q-1-21.55-3-43.28c-2.87,57.24-66.19,57-90.72,30.12-14.35-15.72-16.69-34.81-19.4-56.92q-3.45-28.79-8.18-56.58c-17-103.6,75.55-59.94,76.52-59.26,17.13,11.94,22.81,28.84,25.86,37.91q-4.93-23.14-11-45.48c-10.4-9.93-27.61-23-56.88-22.11" transform="translate(-266.53 -106.3)"/><path class="cls-13" d="M1453.52,539.06,1451,539q1,5.64,1.84,11.33a78.77,78.77,0,0,1,.71-11.23m-52.9-116.57c-4.77,0-7.48.77-11.16,3q-27.49-.36-60.66.14,3,10,5.71,20.11,6,22.33,11,45.48a191.93,191.93,0,0,1,6.38,25.7q2.31,12.69,4.29,25.6l-1.31,0q1,6.28,1.83,12.61l1.31,0q1,7.25,1.9,14.57a169.93,169.93,0,0,1,1.52,26.27q2,21.73,3,43.28.48,10.26.74,20.48c42.51-.65,78.3-.23,107.12,1.15q0-3.74-.1-7.49c-4.68-6.37-8.27-13.66-11.7-30.29q.46,7.9.76,15.77-15.17-.57-32.62-.82-1-23.19-3.26-46.59a804.82,804.82,0,0,0-13.86-89.4c-4.27-19.71-6.2-23.76-6.41-24.15-3.13-6-7.61-2.91-7.65-2.87-1.93,2-1.6,3.56,3.9,30.06a822.09,822.09,0,0,1,13.1,86.25q2.3,23.39,3.28,46.59-18.13-.14-38.51.05-1.08-23.19-3.38-46.59a867.69,867.69,0,0,0-27-146.43q20.23-.2,38.2,0l4.09,16.83c3.62-28.59,24.84-21.49,35.19-8.1,5.67,7.34,8.4,15.25,11.15,24.09-1.57-10.73,2.87-22.18-3.87-32.28s-18.1-22.53-33-22.93" transform="translate(-266.53 -106.3)"/><path class="cls-13" d="M1493.48,547c-4.61,12.32-4.29,16-3.35,27,2.94,34.45,5,37.24,8.66,35.16,1.29-.73,2.41-1.37.28-21.54q-2.23-20.54-5.58-40.61M1456,518.42q-1.29-6.43-2.69-12.8c-18.41-84.58,22.4-57.83,24.15-56.65,13.1,8.85,23.69,27.89,36,95.34q4.61,26.05,7.27,52.92,2.3,23.39,3,46.58-9-1.32-20.18-2.36-.29-8.83-.81-17.69c-4.73,31.18-20.54,18.49-25.7,11.58-4.89-6.54-7.46-17.16-9.79-40.57q-.1-1.07-.21-2.15-.7-7.15-1.54-14.24c-3.45-30.17-2.69-33.28,11.61-47.49,10.26-10.2,10-13.46,9.79-15.85-.67-8-8.66-45.29-14.2-37.12-.93,1.37-.47,3.33,3.95,22.06q2.33,9.91,4.39,20-11.51-.9-25-1.53m2.9-93.11c-32.83-1.82-21,50.69-15.3,75.93q4.16,18.62,7.4,37.73l2.55.1a78.17,78.17,0,0,0-.71,11.23q3.2,20.72,5.29,42,1.52,15.45,2.41,30.82c8.53,41.37,29.09,46.12,38.19,39.46q18.6,1.55,31.59,3.81,0-33.79-3.32-68.11-2.64-26.83-7.28-52.86c-5.9-31.92-21.56-116.72-60.83-120.06" transform="translate(-266.53 -106.3)"/><path class="cls-14" d="M590.34,468.76c-21.81,3.12-43,6.3-63.47,9.51C516.79,543,516.18,546.88,513,586.91c-7-61.35-7-61.35-8.91-105-19.78,3.23-38.76,6.49-56.82,9.77a888.33,888.33,0,0,0-1.19,189.49q2.3,23.39,5.72,46.36,19.07-3.46,39.42-6.9c-9.39-80-9.39-80-10.37-158.15,4.86,38.91,11.52,92.21,27.68,155.27q14.78-2.42,30.11-4.82c-.49-47.91-1-97.44,6.09-164.27,1.05,44.44,2.25,94.81,11.32,161.59q22-3.35,44.9-6.63-3-23-5.34-46.42a1304.52,1304.52,0,0,1-5.26-188.46" transform="translate(-266.53 -106.3)"/><path class="cls-14" d="M659.87,566.72q-.37-7-.68-14c-.52-12.45-.26-18.46.87-20.76,1.65-3.33,8-4.82,10.64-2.5,2,1.76,3,5.25,3.82,21.27q.34,7,.73,14l-15.38,2m3.24-71.08c-57.26,8.2-55.7,55.84-55,76.19q1.16,28.11,3.49,57c9.14,106.58,98.1,61.15,108.67,48.76,17.09-20,15.27-40.69,13.52-60.68q-.66-7.33-1.27-14.62l-3.28.4q-24.28,2.93-48,6,1,13,2.26,26.16c1.32,14.86.6,19.62-1.1,22.81s-8.8,5.52-12.28,2.28c-1.85-1.72-3.35-5.58-4.67-18.81q-2-21.58-3.55-42.74,32.61-4.27,66.35-8.34l3.27-.39q-1-13-1.91-25.78c-1.81-24.71-5.57-76.13-66.44-68.23" transform="translate(-266.53 -106.3)"/><path class="cls-14" d="M814.56,618.13c-6.66.55-8.24-2.69-9.92-20.37q-3-33.12-5.46-65.08c-2.19-30.8,12.34-20,12.48-19.89,1.88,1.5,3,4.71,4.16,18.07q2.37,29.41,5.15,59.86c1.87,21.09,1.48,26.54-6.42,27.41M778.13,481.71C745.94,486,742.71,510.32,744,536q2.14,34.49,5.28,70.36c7.21,76.79,63.53,48.16,77.23,31.87q.75,7.52,1.52,15c3.27,33.61-14.51,20.44-14.69,20.27-3-2.72-3.64-7.84-4-10.31q-27.14,3-53.88,6.16c10.39,70.71,102.54,38.76,119.08,17.11,11.42-14.94,11-19.49,6.73-62.92l-.08-.78q-2-19.93-3.85-39.47-.68-7-1.34-13.92-3.06-31.83-5.91-62.49-1.48-15.86-2.9-31.38-25.7,2.59-51.22,5.34l-2.93,14.39c-3.7-3.92-15-15.84-35-13.53" transform="translate(-266.53 -106.3)"/><path class="cls-14" d="M963.13,630c-6.53.42-10-.58-12.12-26.92-1.52-19.2,1.35-22.49,7.64-29.7,2.5-2.87,5.14-5.39,6.71-6.9q2.14,20.11,4.19,40.66c1.78,18.48,1.44,22.16-6.41,22.86M946.58,464.61C884.64,471,888.64,515,890.35,533.74l1.26,12.87q26.47-2.61,53-5-1.09-10.09-2.19-20c-1.6-14.84-1.3-18.93-.23-21,1.42-2.74,8.07-4.55,11.86-1.45,6.07,5,7.83,32.94,6.1,37.29-1.42,3.57-16.73,11.93-28.13,17.92-33.89,17.8-37.11,22.7-34.47,52.46l1.4,14.25.21,2.15c7.35,65.73,59.83,42.92,68.83,31.79A44.23,44.23,0,0,0,974.6,643q.83,8.85,1.62,17.66,27.53-2.45,54.9-4.69-2-23.14-4.26-46.54-.52-5.26-1-10.49-2.18-21.49-4.59-42.48c-7.54-65-11.33-97.61-74.65-91.88" transform="translate(-266.53 -106.3)"/><path class="cls-14" d="M1105.91,530l-6.55.46q-32.77,2.3-66.21,5,2.49,20.2,4.75,40.89,33.07-2.64,65.59-4.92l7.55-.53q-.73-6.38-1.5-12.72-.62-5.09-1.26-10.14-1.15-9.06-2.37-18" transform="translate(-266.53 -106.3)"/><path class="cls-14" d="M1158.55,448.72c-78.77,5.43-41.48,83-28.27,94.46,8.7,7.57,21,13.95,28.42,17.76,27.53,14.23,29.84,17.2,30.71,18.32.25.33,12.79,33.31-4.57,34.11-7.53.35-9.19-5.06-11.37-25.2q-.66-6.29-1.37-12.54-23.73,1.41-48,3,.53,4.77,1,9.56c3.56,31.82,8.91,46.61,32.81,55.88,17.94,7,58.47,8.24,75.4-13.94,14.18-18.58,6.88-57.91,1.59-70.43-4.37-10.33-12.32-19.15-38.45-31.21-14.16-6.53-28.81-13.29-32.53-20.59-11.4-22.35,2.68-32,9.16-25.24,1.28,1.34,2.87,3,5.43,17.82q.87,5.13,1.7,10.31,22.24-1.25,43.88-2.29l2.14-.1q-.94-5.51-1.93-11c-2.86-15.58-9.56-52.06-65.8-48.74" transform="translate(-266.53 -106.3)"/><path class="cls-14" d="M1292.78,512.5q-1.24-7-2.56-13.85c-2.6-13.6-3.18-18.15-2.61-20.31.8-3,5.86-3.76,8.55-2,2.2,1.47,4.16,4,7.71,21.85q1.35,6.89,2.6,13.85l-13.69.42m-10-69.44c-50.71,2.33-43.56,46-39.72,69.48q4.71,27.78,8.18,56.58c2.95,24,6.29,51.25,30.05,65.52,15.42,9.26,51.49,15,68.51-6.35,14.79-18.6,12.16-40.8,10-58.64q-.89-7.32-1.9-14.57l-1.31,0q-19.44.3-40.73.89,1.75,12.94,3.17,26.08c1.48,14.22.7,19.49-.21,21.4-2.83,6-9.34,4.14-11.08,2.43s-3.12-5.37-4.63-19.44q-2.25-21.56-5.33-42.59,30.23-1,57-1.39l1.31,0q-2-12.9-4.29-25.6c-3.85-20.66-14.07-75.54-69-73.83" transform="translate(-266.53 -106.3)"/><path class="cls-14" d="M1406.82,441.94c-6.88.18-13.54,2.7-15.7,19.77L1387,444.88q-18-.15-38.2,0a867.69,867.69,0,0,1,27,146.43q2.3,23.39,3.38,46.59,20.37-.2,38.51-.05-1-23.19-3.28-46.59a822.1,822.1,0,0,0-13.1-86.25c-3.69-17.77-5.07-24.42-4.93-26.74.37-6.43,5.89-3.74,6.66-3.13,1.55,1.22,3.16,2.49,8.43,26.84a804.82,804.82,0,0,1,13.86,89.4q2.3,23.39,3.26,46.59,17.44.25,32.62.82-.3-7.87-.76-15.77-.9-15.36-2.41-30.82-2.09-21.23-5.29-42-.88-5.68-1.84-11.33-3.24-19.1-7.4-37.73c-5-22-13.25-58.78-36.74-59.3" transform="translate(-266.53 -106.3)"/><path class="cls-14" d="M1497.56,609.41c-2-.41-5.24-1.08-7.81-40.31-.39-6-.67-10.29,3.73-22.07q3.35,20.06,5.58,40.61c2.15,20.31,1.34,22-1.5,21.78m-32-164.63c-25.84-1.49-17,39.06-12.28,60.84q1.4,6.37,2.69,12.8,13.53.63,25,1.53-2.06-10-4.39-20c-5.23-22.19-5.9-25-1.2-22.48,5,2.72,11.39,33.73,11.56,39.27,0,1-.59,4.88-9.89,14.12-14.3,14.21-15.06,17.32-11.61,47.49q.83,7.09,1.54,14.24.11,1.07.21,2.15c6.76,67.76,29.13,46.39,29.36,46.15,4.24-4.69,5.62-13.75,6.13-17.16q.51,8.86.81,17.69,11.19,1,20.18,2.36-.72-23.17-3-46.58-2.64-26.86-7.27-52.92c-8.94-49.06-20-97.15-47.84-99.53" transform="translate(-266.53 -106.3)"/><path class="cls-14" d="M308.07,511.21c-12.62,5-24,47.24-18.49,68.55-7.5-8.62-15.87,13.31-17.81,37.21-2.1,25.87,3.45,44.32,11.2,37.26a9.66,9.66,0,0,0,1.34-1.54c9.71-9.06,23-20.76,33.45-29l-.82-11.77v-.26c-1.24-59-1.24-59,0-74.47a77,77,0,0,0,0-11.7c-1.37-15.49-7.15-14.83-8.89-14.26" transform="translate(-266.53 -106.3)"/><path class="cls-15" d="M345.39,484.62c-12.28,3.81-23.87,27.72-24.79,51.17-.37,21.9-.71,51.12.2,73l0,.25.81,11.52,5.64-4c14.92-9.74,31-17.56,45.22-28.47,6.33-4.87,10.12-12.54,11.37-15.06,11.41-23.08,7.67-53.3-7-56.72-2.88-.67-13-1.47-23,16.37,10.52-31.45,2.14-50.83-8.43-48" transform="translate(-266.53 -106.3)"/><path class="cls-14" d="M375.36,596.12a18.29,18.29,0,0,0-6.56,3c-12.35,7.56-28.82,17.67-40.81,25.8l-5.64,4c6,46.06,11.14,85.83,17.63,100.73,8.64,19.85,22.21,20.37,30.33,9.41,4.06-5.49,5.64-11.82,6.49-15.23,3.77-19.3.23-38.28-9.48-50.77,23,11.32,39.7-31.43,29.35-60.31-1.62-4.52-7.94-19.07-21.3-16.63" transform="translate(-266.53 -106.3)"/><path class="cls-15" d="M318.47,632c-36.55,29.76-37,31.59-39.32,40.38-6.52,25,.15,65.34,11.15,67.52,2.15.43,7.51-.38,10.71-17.08-1.1,35.45,14.85,60.15,26.08,49.52,7.21-6.83,11.16-28.25,5.28-52.27-4.87-26.3-10.71-61.51-13.89-88.07" transform="translate(-266.53 -106.3)"/></g></g></g></g></g></svg>