<svg id="Layer_1" data-name="Layer 1" xmlns="http://www.w3.org/2000/svg" xmlns:xlink="http://www.w3.org/1999/xlink" viewBox="0 0 184.1 197.96"><defs><style>.cls-1{fill:none;}.cls-2{fill:url(#radial-gradient);}.cls-3{fill:url(#radial-gradient-2);}.cls-4{opacity:0.51;fill:url(#radial-gradient-3);}.cls-11,.cls-4{isolation:isolate;}.cls-5{fill:url(#radial-gradient-4);}.cls-6{clip-path:url(#clip-path);}.cls-7{fill:#85bd43;}.cls-8{fill:#4d5955;}.cls-9{fill:url(#radial-gradient-5);}.cls-10{fill:url(#radial-gradient-6);}.cls-11{opacity:0.44;fill:url(#radial-gradient-7);}</style><radialGradient id="radial-gradient" cx="140.07" cy="2526.44" r="77.45" gradientTransform="translate(-46.66 -349.41) scale(1 0.21)" gradientUnits="userSpaceOnUse"><stop offset="0" stop-color="#1d1d1b"/><stop offset="1" stop-color="#fff"/></radialGradient><radialGradient id="radial-gradient-2" cx="83.32" cy="89.72" fx="71.42638623332822" r="66.8" gradientTransform="translate(-51.07 -69.1) scale(1.56 1.56)" gradientUnits="userSpaceOnUse"><stop offset="0" stop-color="#fff5ac"/><stop offset="0.67" stop-color="#ffda00"/><stop offset="1" stop-color="#d89112"/></radialGradient><radialGradient id="radial-gradient-3" cx="91.5" cy="739.03" r="91" gradientTransform="translate(0 -647.98)" gradientUnits="userSpaceOnUse"><stop offset="0" stop-color="#ffdb00"/><stop offset="0.05" stop-color="#fdcf00"/><stop offset="0.16" stop-color="#fbbe00"/><stop offset="0.29" stop-color="#f9b300"/><stop offset="0.48" stop-color="#f8ac00"/><stop offset="1" stop-color="#f8aa00"/></radialGradient><radialGradient id="radial-gradient-4" cx="70.02" cy="710.86" r="96.18" gradientTransform="translate(0 -647.98)" gradientUnits="userSpaceOnUse"><stop offset="0" stop-color="#f0efdd"/><stop offset="0.38" stop-color="#efeeda"/><stop offset="0.62" stop-color="#edebd2"/><stop offset="0.82" stop-color="#eae6c3"/><stop offset="1" stop-color="#e5dfae"/></radialGradient><clipPath id="clip-path" transform="translate(0 -0.01)"><path class="cls-1" d="M154.22,157a126.47,126.47,0,0,1-9.87,8.16c-1.54,1.08-3.61,2.5-5.21,3.47-2.06,1.24-4.85,2.82-7,3.9a91,91,0,0,1-52.67,8.81c-3-.4-4.86-0.76-7.68-1.35-1.67-.36-3.73-0.89-6.12-1.58-2.83-.82-5-1.62-7.4-2.54-1.49-.56-3.43-1.44-4.89-2.09-1.82-.8-4.17-2-5.92-3-1.51-.82-3.47-2-4.92-2.93a83.45,83.45,0,0,1-9.08-6.62A113,113,0,0,1,24,152.14c-1.33-1.49-3.07-3.52-4.29-5.1-1.4-1.81-3.23-4.26-4.44-6.19a115.79,115.79,0,0,1-6.7-12.17,107.21,107.21,0,0,1-4.83-13.29A103.84,103.84,0,0,1,1,101.21,88.5,88.5,0,0,1,.46,89.08,140.82,140.82,0,0,1,2,74.38a53.67,53.67,0,0,1,1.79-7.72c0.66-2,1.45-4.81,2.19-6.82,0.81-2.2,2-5.08,3-7.2a90.1,90.1,0,0,1,7.34-12.85c1.19-1.7,2.81-3.93,4.11-5.54,1.49-1.84,3.6-4.19,5.19-5.93a76.81,76.81,0,0,1,7.95-7.39c1.43-1.19,3.43-2.79,5-3.9,2.19-1.52,5.18-3.46,7.48-4.82A93.24,93.24,0,0,1,58.19,6.37c2.34-.87,5.5-1.94,7.88-2.69,1.22-.38,2.87-0.8,4.11-1.09A93.25,93.25,0,0,1,83.9.39c2.87-.22,4.53-0.28,6.43-0.31,3.43,0,6.24.14,6.27,0.14,1.68,0.11,4.23.29,6.82,0.65,2.13,0.3,5.21.77,7.77,1.37,2.16,0.51,4,1,6.26,1.63s5,1.67,7.18,2.48a96.54,96.54,0,0,1,10.81,5.09,86.56,86.56,0,0,1,14,9.55,88.76,88.76,0,0,1,9.51,9,90.8,90.8,0,0,1,8.73,11.29c2.15,3.57,4.83,8.44,6.7,12.17C175.33,55.34,176.3,58,177,60a81.92,81.92,0,0,1,3.8,13.77c0.35,2.15.91,5,1.09,7.19a111.69,111.69,0,0,1,.53,12.1A90.73,90.73,0,0,1,175.54,126c-1,2.16-2.17,5.06-3.33,7.11-2.05,3.63-5,8.37-7.36,11.8a73,73,0,0,1-4.91,6.11c-1.64,1.86-3.93,4.23-5.71,6-16.32,15.53-39.37,23.9-64.7,21.21C114.86,180.85,137.91,172.49,154.22,157Z"/></clipPath><radialGradient id="radial-gradient-5" cx="67.5" cy="716.03" r="124.21" gradientTransform="translate(0 -647.98)" gradientUnits="userSpaceOnUse"><stop offset="0.52" stop-color="#fd0" stop-opacity="0"/><stop offset="1" stop-color="#9e6500"/></radialGradient><radialGradient id="radial-gradient-6" cx="166.38" cy="792.8" r="97.05" gradientTransform="translate(-72.93 -686.57) scale(0.99 0.98)" gradientUnits="userSpaceOnUse"><stop offset="0.88" stop-color="#fd0" stop-opacity="0"/><stop offset="1" stop-color="#cfac71" stop-opacity="0.4"/></radialGradient><radialGradient id="radial-gradient-7" cx="59.18" cy="709.22" r="44.54" gradientTransform="translate(0 -647.98)" gradientUnits="userSpaceOnUse"><stop offset="0" stop-color="#fff"/><stop offset="0" stop-color="#fffffe" stop-opacity="0.99"/><stop offset="0.08" stop-color="#fcf7e3" stop-opacity="0.79"/><stop offset="0.17" stop-color="#f9f0cb" stop-opacity="0.6"/><stop offset="0.26" stop-color="#f7eab6" stop-opacity="0.44"/><stop offset="0.35" stop-color="#f5e5a5" stop-opacity="0.3"/><stop offset="0.45" stop-color="#f4e096" stop-opacity="0.19"/><stop offset="0.56" stop-color="#f3dd8b" stop-opacity="0.11"/><stop offset="0.67" stop-color="#f2db83" stop-opacity="0.05"/><stop offset="0.81" stop-color="#f1d97e" stop-opacity="0.01"/><stop offset="1" stop-color="#f1d97d" stop-opacity="0"/></radialGradient></defs><title>NationalLottery</title><g id="Layer_1-2" data-name="Layer 1-2"><ellipse class="cls-2" cx="93.41" cy="181.79" rx="77.45" ry="16.17"/><circle class="cls-3" cx="91.44" cy="91.02" r="91.02"/><circle class="cls-4" cx="91.5" cy="91.05" r="91"/><circle class="cls-5" cx="84.52" cy="79.88" r="73.02"/><g class="cls-6"><path class="cls-7" d="M52.38,68.13c-0.48,1-.9,1.85-1.59,3.25a6.16,6.16,0,0,0,1.59-3.25M86.79,60.5c-2.93,0-5.24,7.84-2.23,10.78,1.58,1.54,5.72.44,5.67-5.78,0-5-2.51-5-3.44-5M50.92,59a1.69,1.69,0,0,0-1.33.84L53,61.59C52.89,58.77,51,59,51,59M71,72.23a30.53,30.53,0,0,0,1.36-5.6,39.65,39.65,0,0,0,0-5.9,13.17,13.17,0,0,0-1.82-1.51l6-.17c-1.95,6.69-1.83,9.42.55,12.71-0.66-.2-2.19-0.68-6.11.46m15.73,1.94a8.06,8.06,0,0,1-7.24-5c-0.56-1.22-1.36-5.6,1.21-8.13,2.4-2.37,6.77-2.56,8.87-1.78,5.66,2.1,5.64,5.77,5.63,7.16,0,6.77-5.32,7.76-8.48,7.75m-13.43-17c-1.49,0-1.87-1.52-.95-2.52,1.35-1.46,3.41-.76,3.45.44s-1.74,2-2.5,2.07M61,56.77c-0.18-1.49-.23-1.54-1.49-2.69h0.3a21.52,21.52,0,0,0,6.48-.5,7.26,7.26,0,0,0-.63,1A5.09,5.09,0,0,0,65,56.25q2.43-.17,4.91-0.3l-0.56,2.67H64.9c-0.19,1.33-.29,2.68-0.51,4C63,73.56,65.07,72,65.75,71.49c1.92-1.44,1.24-2.69.65-3.8,1.52,0.29,1.65.31,5.11,1.73-0.31.33-.81,0.35-1.12,0.69a8.49,8.49,0,0,0-.69,1.29,5.21,5.21,0,0,1-1.71,2,7,7,0,0,1-3.91,1.17c-3.54,0-3.66-3.81-3.7-5.07-0.11-3.68.47-7.32,0.68-11l-4.46.38L56.54,57,61,56.76M45,53c-1.41.17-2-.35-1.6-0.77,0.78-.85,9.19-4.48,11.63-4.67a0.25,0.25,0,0,1-.22.13,27.21,27.21,0,0,0-3.92,2c-1.66,1-3.23,2-4.89,3h0A3,3,0,0,1,45,53m60-11.75c-1.38-.09-1.41-0.17-1.47-0.29,0.55-.53,5.89-0.85,9.88-0.73,6.66,0.2,6.66.74,6.66,1.22s-0.36,1-2.77,1-4.5-.68-6.77-0.87c-1.84-.15-3.68-0.2-5.52-0.32M75,39.81a0.94,0.94,0,0,1-.68-1.67,1,1,0,0,1,1.9.48A1.26,1.26,0,0,1,75,39.81m1.62-5c-2.23-.07-2.41-3.31-0.75-4.9,1.49-1.42,3.31-.46,3.25,1.72-0.05,1.65-1.22,3.14-2.5,3.18M75.18,23c-5.31,15.1-7.5,17.69-8.94,19.4a204.66,204.66,0,0,0-28.83,11c2.91,1.49,2.91,1.49,6.82.52a11,11,0,0,0-1.46,1.91c0.4,0.5.4,0.5,4.53,2.63,0.37-.33,8.94-7.88,8.92,7.55,0,5,3.28,4.5,3.32,4.49-1.24,3.2-1.81,4.65-4.71.76-1,.24-6.2,4.43-6.24,4.47-1.79,2-2.51,4.62-3.84,6.89,0.2,0,25.19-1.46,34.45-6.86,8.25,5,19.42,12.56,25.8,20.24,1.71-3.45,7-16,2.92-33l1.4-1.35c-2.66-3.07-6.58,0-7,5.51A14.15,14.15,0,0,0,102.6,71a38.36,38.36,0,0,0-4.67-.53c-1.29-3.73,3.12-8.35-1.34-11.5,0.31-.18.78-0.46,5.22-1.21l-0.14,3c1.91-2,5.19-3.85,10-1.68,0.51-.35,12.6-8.64,14.83-19.83C117.07,39,112.44,39,105.43,39c-3.49,0-11.66,0-12.83-.36A1.58,1.58,0,0,1,92.11,38c-2.78-3.33-10-11.47-17-15" transform="translate(0 -0.01)"/><path class="cls-7" d="M67.29,89.76a18.75,18.75,0,0,1-1,3.38,7.25,7.25,0,0,0-2.46,1.09,9.45,9.45,0,0,1,1.55,1.2c1.26-.18,1.48-0.22,2.57-0.43a7.59,7.59,0,0,0-.47,1,2.9,2.9,0,0,0-.29,1.74l1.59-.1a4.67,4.67,0,0,0,.31-1.87,11.89,11.89,0,0,1,2.55-1.64A4.67,4.67,0,0,0,69,92.76c-0.73-1.83-.92-2.32-1.65-3" transform="translate(0 -0.01)"/><path class="cls-7" d="M85.63,86.31a26.13,26.13,0,0,1-4.78,2.29,12.27,12.27,0,0,0-4-1.9,10,10,0,0,1,.41,4l-3.86,3c2.07,0.28,3.41.49,3.45,0.51a1,1,0,0,1,.05.6c0.55-.05,1.45-0.19,1.75-0.24a6.74,6.74,0,0,0-.53,1.06,4.56,4.56,0,0,0-.4,1.29,8.69,8.69,0,0,0,3.37-2,18.91,18.91,0,0,1,4.55,1.35,8.44,8.44,0,0,0-1.42-4.75c1.17-2.9,1.44-3.59,1.37-5.17" transform="translate(0 -0.01)"/><path class="cls-7" d="M59.91,100.42a3,3,0,0,0,0,.8,2.42,2.42,0,0,1,1-.44L62,101.84a2.19,2.19,0,0,1-.16-1.21,2.09,2.09,0,0,1,.92-0.06l-0.23-.37-2.64.21m1.69-2.85a2.14,2.14,0,0,0-1.13.87,2.48,2.48,0,0,0-1.48,0l0.11,0.13,2.49-.15a4.44,4.44,0,0,1,0-.85" transform="translate(0 -0.01)"/><path class="cls-7" d="M73.43,103.53a2.1,2.1,0,0,0-1.17.8,2.6,2.6,0,0,0-1.5-.05,8.79,8.79,0,0,1,1,1.35h0a4.71,4.71,0,0,0-.18,1.37,2.62,2.62,0,0,1,1-.39l1.1,1.09-0.12-1.18a1.38,1.38,0,0,1,.64-0.07,1.11,1.11,0,0,0-.06-0.56,3,3,0,0,0-.72-0.82,7.93,7.93,0,0,1,0-1.59" transform="translate(0 -0.01)"/><path class="cls-7" d="M56.22,105.75a1.23,1.23,0,0,0-.65.58,1.43,1.43,0,0,0-.92,0,6.6,6.6,0,0,1,.69.85h0a3.16,3.16,0,0,0,0,.91,1.48,1.48,0,0,1,.6-0.3l0.75,0.67a1.44,1.44,0,0,1-.15-0.76,1.06,1.06,0,0,1,.56-0.06,3.26,3.26,0,0,0-.74-0.88,5.91,5.91,0,0,1-.11-1" transform="translate(0 -0.01)"/><path class="cls-8" d="M27,57.19c1.33,1.52,1.33,1.52.61,18A21.62,21.62,0,0,1,26,80.63a35.5,35.5,0,0,1,4.19-1.78l0.74-.18c0.42-.1.91-0.2,2.21-0.4-1.53-4.43-2.37-6.87-1.48-15,6.11,13.68,6.11,13.68,6.51,14.44l2.4-.51C40.9,57.58,42,56.41,44.09,54a19.16,19.16,0,0,0-2.78.63,37.49,37.49,0,0,1-4.42.91l-0.07.14a11.34,11.34,0,0,1,1.35,4.07c0.17,3.47-.52,6.89-0.66,10.34-0.19-.42-2.93-10.56-3.72-14.2-0.85.19-1.68,0.41-2.52,0.62l-0.73.18a20.93,20.93,0,0,1-3.53.42" transform="translate(0 -0.01)"/><path class="cls-8" d="M49,72.41c-2.24.28-3.5-2.21-1.58-4.65,1.65-2.1,4.77-1.79,5,0,0.14,1.12-1.27,4.35-3.41,4.64m1.86-15.75a7,7,0,0,0-4,2.33c-1.3,1.55-1.3,3.69-2.41,5.32,2-.44,3.85-1.17,5.79-1.71-1.61-.61-1.1-2.9.1-3.49,2.77-1.37,2.7,2.29,2.7,6.53-2.09-2.69-8.91-1.05-9.61,4.43C42.75,75,47.8,77.23,52.1,73.91A8.29,8.29,0,0,0,54.56,71c0.51,0.46.76,1.12,1.29,1.56a9.79,9.79,0,0,0,2,1.18c0.23-.12.69-0.76,1.61-3.18,0,0-3.34.36-3.32-4.28,0-2.66,0-6.31-.72-7.66a5.24,5.24,0,0,0-4.62-2" transform="translate(0 -0.01)"/><path class="cls-8" d="M59.38,54c1.35,1.22,1.37,1.33,1.53,2.73L56.44,57l0.06,1.83,4.5-.34c-0.75,12.85-.75,12.85-0.07,14.18C62.56,76,67,74.25,68.37,73c1.2-1,1.29-3.07,3.13-3.55a20.69,20.69,0,0,0-5.2-1.76c2,3.65-1.71,4.17-1.75,4.15C64,71.69,63.49,70,64.22,63.26c0.2-1.54.37-3.08,0.59-4.62h4.57L69.91,56q-2.48.13-4.91,0.3a5.61,5.61,0,0,1,.38-1.3,10.73,10.73,0,0,1,.81-1.38H65.85a21.76,21.76,0,0,1-6.44.43" transform="translate(0 -0.01)"/><path class="cls-8" d="M70.48,59.19c0.38,0.28.86,0.63,1.5,1.19,0.29,0.3.73,1.44,0.34,5.75a26.75,26.75,0,0,1-1.41,6.06c3.88-1.12,5.46-.65,6.06-0.47a0.86,0.86,0,0,0-.11-0.21,10.38,10.38,0,0,1-1.76-4.73A26.4,26.4,0,0,1,76.47,59l-6,.17M74,53.83c-1.7.09-2.88,2.1-1.78,3s3.68-.39,3.54-1.8A1.62,1.62,0,0,0,74,53.82" transform="translate(0 -0.01)"/><path class="cls-8" d="M86.21,72c-3.69-.13-4.16-7.71-0.68-11,0.71-.66,4.89-1.85,4.68,5-0.18,5.75-4,5.92-4,5.92m1.23-13.18c-10.15,0-10.28,8.91-6,13.1,0.95,0.94,3.83,3.78,9.87,1.26,3.55-1.48,3.87-5.38,3.85-7-0.1-6.66-7.6-7.38-7.68-7.38" transform="translate(0 -0.01)"/><path class="cls-8" d="M108.23,58.15a8.19,8.19,0,0,0-6.61,2.68l0.14-3c-1.82.31-3.62,0.75-5.44,1.07,0.89,0.55,3.59,2.23,1.31,11.61a49.1,49.1,0,0,1,4.92.55c-1.66-8.28,3.25-11.73,5.74-10.16,1,0.66,4.18,3.4.6,10.82a0.64,0.64,0,0,0,.2,0,28.07,28.07,0,0,1,5.86.63,4.46,4.46,0,0,1-1.18-3.16c0-2,1.32-3.63,1.36-5.6,0.11-4.68-6.84-5.49-6.91-5.49" transform="translate(0 -0.01)"/><path class="cls-8" d="M124.17,72.68c-2.67-.37-3.93-3.36-1.48-5.25,1.94-1.5,5.57-.15,5.33,2-0.13,1.11-1.6,3.57-3.85,3.28m1.63-15.39a5.64,5.64,0,0,0-4.26,1.2c-1.31,1.15-1.09,3.06-2.17,4.32a5.5,5.5,0,0,1-.42.45c1.37-.1,1.37-0.1,6.64-0.11-1.77-1-1.42-3.19-.18-3.51,3.33-.84,3.32,4.49,3.32,7.36-2.22-3.26-9.89-3.52-10.9,1.74s6.09,9,10.85,5.65a6.16,6.16,0,0,0,1.55-1.58c0.5,0.56.71,1.31,1.21,1.87a12.86,12.86,0,0,0,2,1.77,8.43,8.43,0,0,0,1.69-2.72S132,73.11,132,68.54c0-2.57-.07-6.2-1.08-8a8.49,8.49,0,0,0-5.11-3.22" transform="translate(0 -0.01)"/><path class="cls-8" d="M139.19,53.64c-0.83.54-1.58,0.61-4.75,0.91,1.48,1,1.71,1.11,2.06,12,0.33,10.35-.17,11.06-1.27,12.59a14.74,14.74,0,0,0,2,.24L140,79.93c-1.5-2.85-.9-26.13-0.89-26.35" transform="translate(0 -0.01)"/><path class="cls-8" d="M38.63,95.09c-3.89,1.56-4.73,1.72-7,1.77,0.38,1.36,1.51,2.33,1.88,3.69,4.38,15.81,4.35,18,4.34,18.76,5.18-1.73,7.71-2.32,10.85-2.52-1.49-6.55-1.8-7.92-2.28-10.49a21.34,21.34,0,0,0-.24,2.49c-0.33,4-.54,4.9-0.93,5.4,0,0-3.24,3-5,.17-2.61-4.29-3.46-18-1.71-19.28" transform="translate(0 -0.01)"/><path class="cls-8" d="M56.12,115c-3.47.27-4.76-8-2.53-10.62,0.55-.64,4.08-1.43,4.64,6.13,0.2,2.78-1.24,4.37-2.1,4.49m-1.57-12.74c-8.48,1.1-6.31,9.88-1.72,13.4,3.92,3,10.19.87,9.23-6.43a7.59,7.59,0,0,0-7.52-7" transform="translate(0 -0.01)"/><path class="cls-8" d="M61.38,95.45c1.49,1.29,1.56,1.46,1.93,2.89l-1.71.09-2.49.15H59l0.4,1.88h0.47l2.64-.21,1.08-.08c1.2,12.54,1.2,12.54,2,13.85,1.71,2.72,5.41,1.64,6.69,0,0.78-1,.6-2.59,2.1-3.07a17.32,17.32,0,0,0-4.68-1.77c2.09,3.42-1,3.95-1,3.94-0.78-.16-1.25-2.93-1.41-8.24,0-1.54-.06-3.08-0.06-4.61H71.5l0.06-.69-1.91.08-0.31-1.9h2.4V97.59l-3,.16-1.59.1H67.09a5.6,5.6,0,0,1,.2-1.33,9.37,9.37,0,0,1,.6-1.45,19.19,19.19,0,0,0-2.55.39,26,26,0,0,1-4,0" transform="translate(0 -0.01)"/><path class="cls-8" d="M71.88,94.76c1.46,1.31,1.53,1.42,1.88,3h-4.4l0.31,1.9,1.91-.08L74,99.49c0.62,12.8.62,12.8,1.26,13.91,1.71,3,5.63,1.67,6.9.3,0.87-.94.85-2.6,2.4-3a18.89,18.89,0,0,0-4.74-1.93c2,3.55-1.28,3.9-1.32,3.89-1.14-.26-1-6.3-0.93-8.28,0.07-1.54.11-3.07,0.19-4.61L82.1,100l0.39-2.71q-2.41,0-4.8.08A5.48,5.48,0,0,1,78,96a9.78,9.78,0,0,1,.68-1.43c-1.22,0-2.41.31-3.62,0.32-0.36,0-.74,0-3.16-0.18" transform="translate(0 -0.01)"/><path class="cls-8" d="M92,104.44c-0.33,0-.33,0-3.48-0.26,0.28-1.86.9-2.83,2.15-3.33,0.63-.25,2.8-0.93,4.14.83a4.14,4.14,0,0,1,.83,2.78H92m0.33-5.59c-8-.12-11,7-6.58,11.48,2.87,2.92,8.37,2.46,10.18.64a4.73,4.73,0,0,1,3.34-1.41c-1.52-.44-3.07-0.76-4.6-1.18-0.76,2.5-5.49,2.29-6.83-.31a4.66,4.66,0,0,1-.42-1.52c2-.08,2.53-0.1,3.58-0.08h2.37c2,0.06,4,.07,6,0.11a7.06,7.06,0,0,0-7.05-7.8" transform="translate(0 -0.01)"/><path class="cls-8" d="M106.38,99.63a17.14,17.14,0,0,1-5.58.37c0.25,1,1.06,1.67,1.29,2.64a23.61,23.61,0,0,1,.16,3.5c0,8.43-.9,9.59-1.53,10.44a21.64,21.64,0,0,1,6-.09,5.82,5.82,0,0,1-1.53-3.19c-0.07-.6.27-6.84,0.35-7.29,0,0,1.56-2.26,3.47-2.17s2,2.17.14,3.85a12.14,12.14,0,0,1-1.06.84h6.19c0.45-2.13.94-6-.77-7.65-1.41-1.39-2.48-.7-5.64,1.35-1,.68-2.07,1.47-2.51,1.8,0.2-2.62.2-2.62,1-4.34" transform="translate(0 -0.01)"/><path class="cls-8" d="M125.85,101.37c2,6.1-1.63,13.55-4.66,11.83-4.58-2.59.29-12.2,0.34-12.3-2.08-.47-4.24-0.26-6.31-0.79,0.6,1.05,1.59,1.89,1.81,3.16,0.1,0.56.09,0.63-.51,4.13-0.5,2.92-.8,5.69,1,7.47s6.58,3.34,9.81-2.81c-1.81,11.28-6.16,11.62-7.23,10.18a2.18,2.18,0,0,1,.42-3l-5.86-.38c1.78,2,1.78,2,1.77,2.94s0,2,2.22,2.81c0.94,0.35,3.79,1.41,7-1.66,0.86-.83,3.16-3,6.08-20.5a25.6,25.6,0,0,1-5.87-1" transform="translate(0 -0.01)"/></g><circle class="cls-9" cx="91.5" cy="91.05" r="91"/><ellipse class="cls-10" cx="92.05" cy="91.02" rx="92.05" ry="90.98"/><circle class="cls-11" cx="67.5" cy="59.89" r="42.5"/></g></svg>