<svg id="Layer_1" data-name="Layer 1" xmlns="http://www.w3.org/2000/svg" xmlns:xlink="http://www.w3.org/1999/xlink" viewBox="0 0 1202.03 1180.4"><defs><style>.cls-1{fill:none;}.cls-2{fill:url(#radial-gradient);}.cls-3{fill:#8e6e07;}.cls-4{fill:#04871a;}.cls-5{fill:#063f0e;}.cls-6{fill:#feea00;}.cls-7{opacity:0.65;}.cls-8{isolation:isolate;}.cls-9{clip-path:url(#clip-path);}.cls-10{fill:url(#radial-gradient-2);}.cls-11{fill:#3d3206;}</style><radialGradient id="radial-gradient" cx="1103.67" cy="1141.41" r="769.1" gradientTransform="translate(-69.2 -664.15)" gradientUnits="userSpaceOnUse"><stop offset="0" stop-color="#fee3c5"/><stop offset="0.03" stop-color="#fee3b4"/><stop offset="0.42" stop-color="#fee333"/><stop offset="1" stop-color="#997908"/></radialGradient><clipPath id="clip-path" transform="translate(-294.42 -112.11)"><path class="cls-1" d="M1011.25,1279.26c-5.47,1.13-12.78,2.61-18.27,3.63-2.22.41-8.8,1.57-13.48,2.3-6.83,1.07-10.27,1.58-19.37,2.75-6.63.85-15.6,1.75-15.75,1.76h0c-1.16.09-2.69.26-3.85.37-3.13.3-7.9.67-7.94.68-1.91.15-7.74.6-13.4.9-5.09.27-12.78.68-22.6.8-7.74.09-18.05,0-25.79-.21-8.5-.19-19.83-.9-28.31-1.42-4.39-.27-10.24-.83-14.63-1.21-7.58-.67-21.38-2.29-31.34-3.85-10.84-1.7-25.32-4-36-6.69-17.22-4.28-40.13-10.23-57.07-15.51-12.41-3.87-28.68-9.9-40.65-15-13.68-5.8-31.72-14-45-20.71-11.95-6.06-27.5-14.88-38.94-21.84-12-7.34-27.67-17.83-39.1-26.1-10.94-7.92-25.07-19.1-35.38-27.81-10.6-9-24.2-21.51-34.06-31.28-9.64-9.56-22-22.81-30.87-33.09-9-10.47-20.56-24.91-28.76-36s-18-26.35-25.6-37.76c-7.69-11.6-16.55-28-22.95-40.32S348,944.56,342.59,931.77a590.26,590.26,0,0,1-43.44-171.71c-2.52-28.69-2.51-67.2-1.69-96a340.91,340.91,0,0,1,4.92-47.15c2.54-13.72,5.42-32.13,8.52-45.74s7.47-31.75,12.12-44.91c4.57-13,10.26-30.4,15.37-43.15s12.66-29.63,18.77-42A593.11,593.11,0,0,1,461.51,292.76c9.33-9.69,22.25-22.15,32.29-31.1,10.27-9.15,24.52-20.69,35.35-29.17,10.42-8.16,24.95-18.2,36-25.4,11.27-7.31,26.73-16.39,38.45-23,10.63-6,25.24-13.1,36.3-18.23,9.77-4.53,23-10,33.06-14,12.69-5,29.94-10.76,43-14.72,12.36-3.75,29.07-8,41.63-11,4-1,9.48-2.08,13.56-2.86,2.74-.52,6.39-1.25,9.14-1.74,4-.71,9.26-1.62,13.23-2.26,8.32-1.33,15-2.19,19.42-2.76,6-.77,14.9-1.69,15.75-1.76h0l7.74-.71c2.82-.25,8.17-.64,8.21-.64,8.73-.59,12.35-.79,20.36-1.11,3.92-.16,9.15-.26,13.08-.29,4.3,0,10,0,14.33.07,4.62,0,10.77.31,15.38.45,9.92.31,23.12,1.3,33,2.17a590.82,590.82,0,0,1,70.35,10.39c11.82,2.59,27.52,6.37,39.1,9.86,15.51,4.68,36,11.54,51.14,17.36a623.5,623.5,0,0,1,79.32,38.12c12.73,7.37,29.31,17.88,41.44,26.21,11.09,7.61,25.41,18.43,35.88,26.88,10.94,8.84,25,21.25,35.24,30.92,9.84,9.32,22.12,22.6,31.54,32.34,9.67,10,21.21,24.56,29.7,35.57s19.15,26.05,26.73,37.65c15.07,23.07,31.85,55.89,44,80.61,6.23,12.65,12.77,30.34,17.49,43.63s9.77,31.44,13.95,44.91c4.26,13.77,7.93,32.71,10.5,46.9,2.61,14.41,5.31,33.76,6.75,48.33s2.67,33.82,2.79,48.34c.12,14.3-.05,33.39-1.1,47.65-1.31,17.77-3.44,41.51-6.77,59-2.6,13.68-6.06,31.94-9.42,45.45s-8.08,31.54-13,44.58-10.49,30.67-16.4,43.21c-5.82,12.35-13.1,29-19.4,41.15s-15.11,28.47-22.76,39.94c-7.52,11.26-17.28,26.47-25.3,37.38-8.19,11.14-19.28,25.93-28.68,36.07-18.26,19.69-43.61,45-63.34,63.25-10.09,9.33-24.66,20.54-35.89,28.46-11.91,8.39-27.71,19.75-40.33,27-20.61,11.88-48.56,27-70.26,36.72-10.19,4.57-24.11,9.9-34.55,13.86-6.1,2.31-14.36,5-20.57,7.05s-14.27,4.55-20.47,6.22c-11.13,3-26,6.74-37.27,9.34a387.23,387.23,0,0,1-67.11,8.36A387.23,387.23,0,0,0,1011.25,1279.26Z"/></clipPath><radialGradient id="radial-gradient-2" cx="1030.14" cy="16.59" r="417.27" gradientTransform="matrix(1, 0, 0, -1, -294.98, 451.51)" gradientUnits="userSpaceOnUse"><stop offset="0.52" stop-color="#fff" stop-opacity="0.4"/><stop offset="1" stop-color="#fff" stop-opacity="0"/></radialGradient></defs><title>oz_lotto_Logo</title><g id="Layer_1-2" data-name="Layer 1-2"><path class="cls-2" d="M884.62,112.11c326,0,590.2,264.24,590.2,590.2s-264.24,590.2-590.2,590.2-590.2-264.24-590.2-590.2h0C294.42,376.35,558.66,112.11,884.62,112.11Z" transform="translate(-294.42 -112.11)"/><path class="cls-3" d="M501.72,801.45c1,6.86,8,65.82,13.1,102l7.45,52.44c6.86-1,39.13-5.56,61.06-9.87l7.59,53.4c-6.86,1-102.69,11.65-124.79,14.8-1.33-15.29-10.05-76.65-11-83.52l-5.42-38.17c-.65-4.6-11.43-76.46-12.76-81.87Z" transform="translate(-294.42 -112.11)"/><path class="cls-3" d="M459.7,1022.35l-.67-7.5c-1-11.13-6.33-50.25-11-83.14l-5.41-38.16c-1.23-8.42-11.49-76.45-12.64-81.22l-1.84-7.64,79.64-11.31,1,7.07c.31,2.11,1.17,9.12,2.37,18.88,2.73,22,7.17,58,10.71,83.11l6.44,45.36c22.15-3.22,41-6.3,53.64-8.79l7.36-1.46,9.65,67.94-7.06,1c-2.48.35-16.46,2-34.42,4-32.19,3.7-76.29,8.77-90.35,10.77ZM445.25,816.68c3.43,20.74,11.41,74.21,11.49,74.83l5.41,38.19c2,14,8,56.25,10.32,76.47,18.66-2.4,55.48-6.64,83.38-9.85,11.16-1.27,20.75-2.39,27-3.11l-5.52-38.8c-13.89,2.54-32.67,5.51-54,8.54l-7.06,1-8.51-59.5c-3.57-25.16-8-61.31-10.77-83.36-.56-4.52-1-8.44-1.42-11.55Z" transform="translate(-294.42 -112.11)"/><path class="cls-3" d="M878.63,955.24c-.9-6.32-5.3-41.26-9-67.49L860.83,826c-10.23,1.45-45.89,7.71-53.54,9.08L800.88,790c11.49-.44,71.12-8.08,73.94-8.48l22-3.12c4.67-.66,59.46-9.36,71.38-12.18l6.4,45c-4.67.66-51.2,5.88-53.46,6.2l9.29,65.35c3.59,25.26,8.35,58.76,9.87,63.52l-61.78,8.78h0Z" transform="translate(-294.42 -112.11)"/><path class="cls-3" d="M862.56,888.76l-7.78-54.55c-14.31,2.32-39.89,6.81-46.22,7.94l-7.28,1.3-8.56-60.25,7.89-.31c11-.42,69.37-7.85,73.17-8.41l22-3.12c5-.71,59.47-9.39,70.74-12.05l7.62-1.8,8.48,59.86-7.06,1c-2.73.39-19.83,2.33-34,4l-12.33,1.39,8.26,58.11c2.45,17.31,8.17,57.84,9.6,62.36l2.51,8-78,11.15S865,906.29,862.56,888.76Zm4.32-70.8,9.79,68.79c2.51,17.6,5.3,39.11,7.14,53.31l.92,7,47-6.68c-1.81-10.43-4.6-29.65-8.4-56.52L913,811.41l7.06-1c.95-.14,9.65-1.13,19.81-2.29,9.23-1,19.69-2.25,26.56-3l-4.3-30.31C942.5,778.49,901,785,897.79,785.49l-22,3.12c-1.9.28-46.45,6-66.78,7.94l4.3,30.25c13.36-2.36,38.22-6.65,46.5-7.84Z" transform="translate(-294.42 -112.11)"/><path class="cls-3" d="M1044.61,931.65c-.9-6.32-5.3-41.26-9-67.49l-8.77-61.71c-10.23,1.45-45.89,7.71-53.54,9.08l-6.41-45.1c11.49-.44,71.12-8.08,73.94-8.48l21.76-3.09c4.67-.66,59.46-9.36,71.38-12.18l6.4,45c-4.67.66-51.21,5.81-53.68,6.16l9.29,65.35c3.59,25.26,8.35,58.76,9.87,63.52l-61.23,8.7h0Z" transform="translate(-294.42 -112.11)"/><path class="cls-3" d="M1045.58,938.51l-.92-6.44-6.92,1.42-2.15-8,1-.14c-.33-2.66-.75-5.86-1.23-9.44-1.84-14.1-4.46-34.19-6.81-50.76l-7.78-54.55c-14.28,2.32-39.89,6.82-46.22,8l-7.28,1.3-8.56-60.27,7.89-.31c11-.4,70.49-8,73.25-8.4l21.73-3.1c5.63-.81,59.39-9.37,70.74-12.05l7.62-1.8,8.48,59.82-7.06,1c-2.73.39-20,2.34-34.26,3.95l-12.33,1.39,8.26,58.09c2.45,17.32,8.2,57.87,9.6,62.36l2.51,8Zm-12.72-144.13,9.79,68.78c2.37,16.64,5,36.77,6.83,50.91.47,3.51.89,6.67,1.23,9.29l46.58-6.61c-1.81-10.43-4.6-29.65-8.4-56.52l-10.29-72.42,7.06-1c1-.14,9.68-1.13,19.81-2.26,9.32-1.06,19.89-2.25,26.78-3l-4.3-30.29c-19.53,3.68-60.81,10.21-64.38,10.73l-21.76,3.1c-.5.07-46.11,6-66.81,7.92l4.3,30.27c13.39-2.36,38.24-6.67,46.5-7.84Z" transform="translate(-294.42 -112.11)"/><path class="cls-3" d="M1255.9,906c84.36-12,100.9-74,95.68-110.73-7.62-53.61-49.12-80.49-109.25-71.94-74.2,10.55-102,66-95.36,113C1152.55,875.62,1188.63,915.59,1255.9,906Zm31.66-100h0c5.11,36-8.86,56.37-34.6,59.61-19.29,2.74-37.75-10.39-42.32-42.52-4.16-29.24,6.92-56.24,34-60.08,22.86-3.25,38.54,12,42.94,42.92Z" transform="translate(-294.42 -112.11)"/><path class="cls-3" d="M1236.38,914.59c-24.13,0-45.44-6.57-62.37-19.39a88.6,88.6,0,0,1-34.09-57.84,103.84,103.84,0,0,1,18.63-75.4c18.1-24.76,46.72-40.56,82.76-45.68,64.38-9.14,109.21,20.77,117.33,78,5,35.37-9.76,105.72-101.73,118.8l-1-7.07,1,7.07A145.27,145.27,0,0,1,1236.38,914.59Zm27.11-185.66a142.66,142.66,0,0,0-20.17,1.49c-32.14,4.56-57.46,18.38-73.25,40a89.65,89.65,0,0,0-16,65,74.42,74.42,0,0,0,28.56,48.45c18.52,14,43.46,19.3,72.3,15.15,80.62-11.46,94.26-69.92,89.63-102.65C1338.36,753.19,1308.6,728.94,1263.49,728.94Zm-15.34,144.25c-18.44,0-39.39-12.52-44.58-49-2.34-16.3-.2-31.88,6-43.86,7.14-13.74,18.88-22.15,34-24.3,13.53-2,25.5,1.76,34.42,10.63,8.62,8.54,14.2,21.44,16.57,38.36l0,.07c3.07,21.51-.08,38.55-9.32,50.66-7.25,9.47-18.1,15.37-31.44,17A40.58,40.58,0,0,1,1248.15,873.18Zm2.32-103.38a34.64,34.64,0,0,0-4.85.36c-10.52,1.49-18.38,7.11-23.35,16.72-4.85,9.36-6.47,21.9-4.57,35.29,3.57,25,16.68,39,34.28,36.44,9.68-1.21,17-5.1,22-11.55,6.75-8.83,9-22.66,6.56-40l.14,0c-2.4-14.35-6.64-24.28-12.66-30.27A24,24,0,0,0,1250.47,769.8Z" transform="translate(-294.42 -112.11)"/><path class="cls-3" d="M726.87,763s70.74,74,73.25,149.26-60.12,95.8-60.12,95.8a74.6,74.6,0,0,0-50.76-61.49c-47.15-17.39-65.41,18.19-65.41,18.19s-24.44-33.5-26.63-69.12,27.18-78.8,68.29-102.92c0,0-14.83,26.2,5.43,34.24s42.16,1,48.84-24.94A206.41,206.41,0,0,0,726.87,763Z" transform="translate(-294.42 -112.11)"/><path class="cls-3" d="M734,1017.55,732.9,1009A67.73,67.73,0,0,0,687,953.38c-40.64-15-56.21,13.47-56.85,14.69l-5.33,10.11L618.06,969c-1-1.44-25.72-35.62-28-72.89-2.32-37.69,27.87-83.74,71.8-109.52l22.71-13.31-12.86,23c-1.65,3-5.89,12.82-3.71,19,.53,1.46,1.67,3.6,5.55,5.13,9,3.58,17.85,3.57,24.91-.07s11.91-10.45,14.37-20a200.31,200.31,0,0,0,6.95-37.87l1.34-15.77L732,758.07c3,3.1,72.67,76.84,75.23,154,2.62,79.71-64.38,102.61-65.05,102.84Zm-69.21-82.89a78,78,0,0,1,26.95,5.23A82,82,0,0,1,745.37,998c15.59-7.91,49.4-31.35,47.62-85.48-1.81-54.53-41.68-109.31-61-132.74A218.71,218.71,0,0,1,726.6,804c-3.46,13.47-11,23.57-21.65,29-10.85,5.5-23.88,5.72-36.68.61-6.81-2.71-11.55-7.43-13.75-13.7a27,27,0,0,1-1.39-10.24c-30.68,23.68-50.55,57.52-48.79,85.53,1.39,23,13,45.45,19.94,57.12A54.07,54.07,0,0,1,664.78,934.66Z" transform="translate(-294.42 -112.11)"/><path class="cls-3" d="M699.21,732.8l-.73.1C586.79,748.69,517.42,680,506.62,604.07c-12.33-86.72,39.86-183.7,163.47-201.27C750,391.44,813.32,420,844.17,477.48L831.36,375.24l29.23-.29c10.22-.15,100-9.63,153.64-15.29,41-4.33,64.48-6.8,70.89-7.29l16.32-1.25,16.42,28.32-4.3,11.53c-5,13.53-48,112.54-74,171.81,29-4.61,59.63-9.7,65.19-11.18l29-7.71,4,29.69,11.16,93.5-25.55,3.33c-3,.38-25.8,3.21-56.23,7-62.73,7.75-167.72,20.72-178.73,22.29L871.88,702l-19-29.37L859,659.6c9.75-20.94,52.22-118,76.93-174.58l-13.28,1.42c-21.19,2.26-45.2,4.83-50,5.5l-20.52,2.92a182.33,182.33,0,0,1,10.4,40.45c6.28,44.19-5.81,91.58-32.32,126.8C801.47,700.26,756.18,724.7,699.21,732.8ZM677.42,454.38C583.5,467.73,549.79,537.53,558.2,596.74c9.9,69.65,75.9,92.66,133,84.57h.05l.63-.09c43.61-6.2,76.15-23.17,96.69-50.46,27.23-36.15,24-76.59,22.36-88.12C801.47,475.83,752.8,443.66,677.42,454.38ZM923.63,642.67c38.4-4.8,94.63-11.74,137.09-17l30.31-3.75-1.73-14.47c-32.84,5.61-80.71,12.85-89,14L952,628.36l21.14-43.94c3.37-7.16,51.42-117.07,76.71-176.12l-30.14,3.18c-55.89,5.9-101.5,10.68-129.62,13.33l1.57,12.56,25.44-2.73c23.86-2.55,50.91-5.44,57-6.31l46.15-6.56-18.59,42.74C1001.06,465.93,951.94,578.69,923.63,642.67Zm-229.6,32c-39.92,5.67-87.36-19.8-97.22-89.13-9.17-64.5,23-116.82,76.36-124.41,22.29-3.17,42.94,1.88,59.73,14.59,20.59,15.6,33.86,41.65,38.38,75.34,11,81.48-32.61,117.27-77.16,123.6Zm-13.52-162c-27.9,4-36.21,36.73-32.12,65.5,4.32,30.43,19,47.63,38.31,44.88h.1c18.66-2.65,39.47-16.1,32.85-65.07-2.6-19.37-9.06-33.83-18.2-40.76C695.82,513,689,511.47,680.51,512.68Z" transform="translate(-294.42 -112.11)"/><path class="cls-3" d="M696.23,706.91c124.61-17.38,149.85-112,141.87-168.13-11.63-81.84-74.23-123-163-110.38C564.82,444.07,523.55,528.45,533.75,600.22,542.21,659.74,596.18,721.08,696.23,706.91Zm-4.52-58.26c-30.6,4.35-60.68-17.18-67.76-67-6.45-45.39,11.73-88.91,54.25-95,35.85-5.1,62.18,19.56,68.62,67.6C754.32,609.86,732,643,691.7,648.66ZM870.34,466c10.83-1.54,96.12-10.24,108.8-12-6.33,14.55-81.79,187.67-95.21,216.48l2.13,3.29c16.41-2.33,225.87-28.07,235.25-29.29l-8.11-67.92c-10.25,2.95-93.27,15.91-115.26,19,3.54-7.35,85.66-195.4,92.55-213.84l-2-3.52c-17.66,1.35-209.15,22.49-226.25,22.65Z" transform="translate(-294.42 -112.11)"/><path class="cls-4" d="M499.11,783.19c1,6.86,8,65.82,13.1,102l7.45,52.44c6.86-1,39.13-5.56,61.06-9.87l7.59,53.4c-6.86,1-102.69,11.65-124.79,14.8-1.33-15.29-10.05-76.65-11-83.52l-5.42-38.17c-.65-4.6-11.43-76.46-12.76-81.87Z" transform="translate(-294.42 -112.11)"/><path class="cls-5" d="M457.09,1004.09l-.67-7.5c-1-11.13-6.33-50.25-11-83.14L440,875.28c-1.23-8.42-11.49-76.45-12.64-81.22l-1.84-7.64,79.64-11.31,1,7.07c.31,2.11,1.17,9.12,2.37,18.88,2.73,22,7.17,58,10.71,83.11l6.44,45.36c22.15-3.22,41-6.3,53.64-8.79l7.36-1.46,9.65,67.94-7.06,1c-2.48.35-16.46,2-34.42,4C522.7,996,478.6,1001,464.54,1003ZM442.64,798.42c3.43,20.74,11.41,74.21,11.49,74.83l5.41,38.19c2,14,8,56.25,10.32,76.47,18.66-2.4,55.48-6.64,83.38-9.85,11.16-1.27,20.75-2.39,27-3.11l-5.52-38.8c-13.89,2.54-32.67,5.51-54,8.54l-7.06,1-8.51-59.5c-3.57-25.16-8-61.31-10.77-83.36-.56-4.52-1-8.44-1.42-11.55Z" transform="translate(-294.42 -112.11)"/><path class="cls-4" d="M876,937c-.9-6.32-5.3-41.26-9-67.49l-8.77-61.71c-10.23,1.45-45.89,7.71-53.54,9.08l-6.41-45.1c11.49-.44,71.12-8.08,73.94-8.48l22-3.12c4.67-.66,59.46-9.36,71.38-12.18l6.4,45c-4.67.66-51.2,5.88-53.46,6.2l9.29,65.35c3.59,25.26,8.35,58.76,9.87,63.52l-61.78,8.78h0Z" transform="translate(-294.42 -112.11)"/><path class="cls-5" d="M859.95,870.5,852.17,816c-14.31,2.32-39.89,6.81-46.22,7.94l-7.28,1.3-8.56-60.25,7.89-.31c11-.42,69.37-7.85,73.17-8.41l22-3.12c5-.71,59.47-9.39,70.74-12.05l7.62-1.8L980,799.1l-7.06,1c-2.73.39-19.83,2.33-34,4l-12.33,1.39,8.26,58.11c2.45,17.31,8.17,57.84,9.6,62.36l2.51,8-78,11.15S862.43,888,859.95,870.5Zm4.32-70.8,9.79,68.79c2.51,17.6,5.3,39.11,7.14,53.31l.92,7,47-6.68c-1.81-10.43-4.6-29.65-8.4-56.52l-10.29-72.42,7.06-1c.95-.14,9.65-1.13,19.81-2.29,9.23-1,19.69-2.25,26.56-3l-4.3-30.31c-19.67,3.72-61.17,10.27-64.38,10.73l-22,3.12c-1.9.28-46.45,6-66.78,7.94l4.3,30.25c13.36-2.36,38.22-6.65,46.5-7.84Z" transform="translate(-294.42 -112.11)"/><path class="cls-4" d="M1042,913.39c-.9-6.32-5.3-41.26-9-67.49l-8.77-61.71c-10.23,1.45-45.89,7.71-53.54,9.08l-6.41-45.1c11.49-.44,71.12-8.08,73.94-8.48l21.76-3.09c4.67-.66,59.46-9.36,71.38-12.18l6.4,45c-4.67.66-51.21,5.81-53.68,6.16l9.29,65.35c3.59,25.26,8.35,58.76,9.87,63.52l-61.23,8.7h0Z" transform="translate(-294.42 -112.11)"/><path class="cls-5" d="M1043,920.25l-.92-6.44-6.92,1.42-2.15-8,1-.14c-.33-2.66-.75-5.86-1.23-9.44-1.84-14.1-4.46-34.19-6.81-50.76l-7.78-54.55c-14.28,2.32-39.89,6.82-46.22,8l-7.28,1.3-8.56-60.27L964,741c11-.4,70.49-8,73.25-8.4l21.73-3.1c5.63-.81,59.39-9.37,70.74-12.05l7.62-1.8,8.48,59.82-7.06,1c-2.73.39-20,2.34-34.26,3.95l-12.33,1.39L1100.4,840c2.45,17.32,8.2,57.87,9.6,62.36l2.51,8Zm-12.72-144.13,9.79,68.78c2.37,16.64,5,36.77,6.83,50.91.47,3.51.89,6.67,1.23,9.29l46.58-6.61c-1.81-10.43-4.6-29.65-8.4-56.52L1076,769.55l7.06-1c1-.14,9.68-1.13,19.81-2.26,9.32-1.06,19.89-2.25,26.78-3l-4.3-30.29c-19.53,3.68-60.81,10.21-64.38,10.73l-21.76,3.1c-.5.07-46.11,6-66.81,7.92l4.3,30.27c13.39-2.36,38.24-6.67,46.5-7.84Z" transform="translate(-294.42 -112.11)"/><path class="cls-4" d="M1253.29,887.77c84.36-12,100.9-74,95.68-110.73-7.62-53.61-49.12-80.49-109.25-71.94-74.2,10.55-102,66-95.36,113C1149.94,857.36,1186,897.33,1253.29,887.77Zm31.66-100h0c5.11,36-8.86,56.37-34.6,59.61-19.29,2.74-37.75-10.39-42.32-42.52-4.16-29.24,6.92-56.24,34-60.08,22.86-3.25,38.54,12,42.94,42.92Z" transform="translate(-294.42 -112.11)"/><path class="cls-5" d="M1233.77,896.33c-24.13,0-45.44-6.57-62.37-19.39a88.6,88.6,0,0,1-34.09-57.84,103.84,103.84,0,0,1,18.63-75.4c18.1-24.76,46.72-40.56,82.76-45.68,64.38-9.14,109.21,20.77,117.33,78,5,35.37-9.76,105.72-101.73,118.8l-1-7.07,1,7.07A145.27,145.27,0,0,1,1233.77,896.33Zm27.11-185.66a142.66,142.66,0,0,0-20.17,1.49c-32.14,4.56-57.46,18.38-73.25,40a89.65,89.65,0,0,0-16,65A74.42,74.42,0,0,0,1180,865.55c18.52,14,43.46,19.3,72.3,15.15,80.62-11.46,94.26-69.92,89.63-102.65C1335.75,734.93,1306,710.67,1260.88,710.67Zm-15.34,144.25c-18.44,0-39.39-12.52-44.58-49-2.34-16.3-.2-31.88,6-43.86,7.14-13.74,18.88-22.15,34-24.3,13.53-2,25.5,1.76,34.42,10.63,8.62,8.54,14.2,21.44,16.57,38.36l0,.07c3.07,21.51-.08,38.55-9.32,50.66-7.25,9.47-18.1,15.37-31.44,17A40.58,40.58,0,0,1,1245.54,854.92Zm2.32-103.38a34.64,34.64,0,0,0-4.85.36c-10.52,1.49-18.38,7.11-23.35,16.72-4.85,9.36-6.47,21.9-4.57,35.29,3.57,25,16.68,39,34.28,36.44,9.68-1.21,17-5.1,22-11.55,6.75-8.83,9-22.66,6.56-40l.14,0c-2.4-14.35-6.64-24.28-12.66-30.27A24,24,0,0,0,1247.86,751.54Z" transform="translate(-294.42 -112.11)"/><path class="cls-4" d="M724.26,744.75S795,818.73,797.51,894s-60.12,95.8-60.12,95.8a74.6,74.6,0,0,0-50.76-61.49c-47.15-17.39-65.41,18.19-65.41,18.19S596.77,913,594.58,877.4s27.18-78.8,68.29-102.92c0,0-14.83,26.2,5.43,34.24s42.16,1,48.84-24.94A206.41,206.41,0,0,0,724.26,744.75Z" transform="translate(-294.42 -112.11)"/><path class="cls-5" d="M731.38,999.29l-1.09-8.59a67.73,67.73,0,0,0-45.89-55.58c-40.64-15-56.21,13.47-56.85,14.69l-5.33,10.11-6.78-9.19c-1-1.44-25.72-35.62-28-72.89-2.32-37.69,27.87-83.74,71.8-109.52L682,755l-12.86,23c-1.65,3-5.89,12.82-3.71,19,.53,1.46,1.67,3.6,5.55,5.13,9,3.58,17.85,3.57,24.91-.07s11.91-10.45,14.37-20a200.31,200.31,0,0,0,6.95-37.87l1.34-15.77,10.93,11.44c3,3.1,72.67,76.84,75.23,154,2.62,79.71-64.38,102.61-65.05,102.84ZM662.17,916.4a78,78,0,0,1,26.95,5.23,82,82,0,0,1,53.64,58.09c15.59-7.91,49.4-31.35,47.62-85.48-1.81-54.53-41.68-109.31-61-132.74A218.71,218.71,0,0,1,724,785.74c-3.46,13.47-11,23.57-21.65,29-10.85,5.5-23.88,5.72-36.68.61-6.81-2.71-11.55-7.43-13.75-13.7a27,27,0,0,1-1.39-10.24C619.83,815.11,600,849,601.72,877c1.39,23,13,45.45,19.94,57.12A54.07,54.07,0,0,1,662.17,916.4Z" transform="translate(-294.42 -112.11)"/><path class="cls-4" d="M696.6,714.54l-.73.1C584.18,730.43,514.81,661.79,504,585.81c-12.33-86.72,39.86-183.7,163.47-201.27,79.94-11.36,143.23,17.15,174.08,74.69L828.75,357l29.23-.29c10.22-.15,100-9.63,153.64-15.29,41-4.33,64.48-6.8,70.89-7.29l16.32-1.25,16.42,28.32-4.3,11.53c-5,13.53-48,112.54-74,171.81,29-4.61,59.63-9.7,65.19-11.18l29-7.71,4,29.69,11.16,93.5-25.55,3.33c-3,.38-25.8,3.21-56.23,7-62.73,7.75-167.72,20.72-178.73,22.29l-16.49,2.34-19-29.37,6.08-13.05c9.75-20.94,52.22-118,76.93-174.58L920,468.17c-21.19,2.26-45.2,4.83-50,5.5l-20.52,2.92A182.33,182.33,0,0,1,859.93,517c6.28,44.19-5.81,91.58-32.32,126.8C798.87,682,753.57,706.44,696.6,714.54ZM674.81,436.12c-93.92,13.35-127.63,83.15-119.22,142.36,9.9,69.65,75.9,92.66,133,84.57h.05l.63-.09c43.61-6.2,76.15-23.17,96.69-50.46,27.23-36.15,24-76.59,22.36-88.12C798.86,457.57,750.19,425.4,674.81,436.12ZM921,624.41c38.4-4.8,94.63-11.74,137.09-17l30.31-3.75-1.73-14.47c-32.84,5.61-80.71,12.85-89,14l-48.28,6.86,21.14-43.94c3.37-7.16,51.42-117.07,76.71-176.12l-30.14,3.18c-55.89,5.9-101.5,10.68-129.62,13.33L889,419.1l25.44-2.73c23.86-2.55,50.91-5.44,57-6.31l46.15-6.56-18.59,42.74C998.45,447.67,949.33,560.43,921,624.41Zm-229.6,32c-39.92,5.67-87.36-19.8-97.22-89.13-9.17-64.5,23-116.82,76.36-124.41,22.29-3.17,42.94,1.88,59.73,14.59,20.59,15.6,33.86,41.65,38.38,75.34,11,81.48-32.61,117.27-77.16,123.6Zm-13.52-162c-27.9,4-36.21,36.73-32.12,65.5,4.32,30.43,19,47.63,38.31,44.88h.1c18.66-2.65,39.47-16.1,32.85-65.07-2.6-19.37-9.06-33.83-18.2-40.76C693.22,494.7,686.37,493.21,677.9,494.41Z" transform="translate(-294.42 -112.11)"/><path class="cls-6" d="M693.62,688.65c124.61-17.38,149.85-112,141.87-168.13-11.63-81.84-74.23-123-163-110.38C562.22,425.81,520.94,510.19,531.14,582,539.6,641.48,593.58,702.82,693.62,688.65Zm-4.52-58.26c-30.6,4.35-60.68-17.18-67.76-67-6.45-45.39,11.73-88.91,54.25-95,35.85-5.1,62.18,19.56,68.62,67.6C751.71,591.6,729.4,624.72,689.09,630.4ZM867.73,447.7c10.83-1.54,96.12-10.24,108.8-12-6.33,14.55-81.79,187.67-95.21,216.48l2.13,3.29c16.41-2.33,225.87-28.07,235.25-29.29l-8.11-67.92c-10.25,2.95-93.27,15.91-115.26,19,3.54-7.35,85.66-195.4,92.55-213.84l-2-3.52c-17.66,1.35-209.15,22.49-226.25,22.65Z" transform="translate(-294.42 -112.11)"/><line class="cls-5" x1="740.71" y1="803.12" x2="747.63" y2="801.7"/><g class="cls-7"><g class="cls-8"><g class="cls-8"><g class="cls-9"><path d="M403.06,427.48c10.82-38.66,16.78-60,39.9-98,5.27-8.4,12.42-15.58,16.11-25l-.92-.37c-2.75,1.52-7.29,5.15-13.88,11.09l16-19.28c48.22-44.81,56.28-49.62,73.95-60.16-49.13,50.88-72.32,84.61-88.76,161.81-12.89,8.73-29.94,20.6-42.42,29.92" transform="translate(-294.42 -112.11)"/><path d="M461.79,387.59l5-25.78c28.6-44,50.05-71.25,88.28-112.28,13-13.9,20.77-22.29,21.47-26.38-3.15-2-11.88-.31-34.93,33.22-11.16,6-26,14.15-37,20.51l3.84-5.5c40.59-54.9,97.74-72.5,98.31-72.67,4.85-1.27,16.21-4.24,6.12,12.37-7.37,12.14-23.78,31.08-27,34.76-34.15,39-46.15,55.68-64.31,80.87,16.82-8.72,39.35-20.15,56.33-28.55l-1.23,27.73c-56.43,28.08-70.39,35.58-114.86,61.7" transform="translate(-294.42 -112.11)"/><path d="M727.37,1224.59c6.85,13.4,7.73,15.12,41.7,24.81l8.25,7.72c-19.63-3.91-31.51-5.24-35.31-3.93-8.55,2.94-20.6-4.62-29.3-7.08-20.36-17.51-48.25-41.48-38.71-97.82,14.38,6.9,33.55,16.11,48,22.93-2.32,20.55-3.85,34.13,5.4,53.38" transform="translate(-294.42 -112.11)"/><path d="M655.26,1157.36c-11.51,6-38.46,19.91-42.82,31.76-3.17,8.62,11.32,19.79,22.63,23.11a4.17,4.17,0,0,0,2.75.21c.23-1.23.23-1.23-10.78-16.94,12.71,5.12,29.63,12,42.43,16.9l2.33,3.39c10.93,15.6,13.2,18.85,0,16.71-8.77-1.43-146.8-49.4-93.77-85.6,6.79-4.64,14.17-8.21,22.72-12.34-16-8.25-37.39-19.33-53.23-28,.18-7.15-.11-16.71.66-23.82,30.38,16.77,59.08,32.61,109.06,57.32l-2,17.26" transform="translate(-294.42 -112.11)"/><path d="M1422.76,938.09c-26.09,53.67-26.09,53.67-47.32,82.78,5.88-25.31,13.93-60-25.87-109.81,9.78-14.59,22.84-34,32.07-49,15.91,24,23.17,34.9,28.18,62.51.78,5.13.32,10.43,2.07,15.43l.83.33c1-.6,4.23-2.41,16.25-25.64l-1.75,14.12c-1.34,2.78-3.12,6.5-4.47,9.27" transform="translate(-294.42 -112.11)"/><path d="M1346.86,1054.07c-21.52,28.25-65,67.69-66.5,48.44-.45-5.64,4.13-19.1,8-29.39,14.49-38.06,17.44-53.59,21.91-77.1-13,14.39-30.52,33.5-44,47.51-4-4.78-9.08-11.37-13.39-15.87,26.47-29,53.84-59,84.65-100.32L1349.06,943c-3.45,35-6.29,57.25-24.61,106.23-5.57,14.88-6.77,19.22-4.64,21.47.69-.06,16.86-1.84,16.54-34.08,9.86-11.34,23.13-26.35,32.58-38l.14,3.95c0,7.83,0,22.41-22.2,51.53" transform="translate(-294.42 -112.11)"/><path d="M1125.75,246.36c-16.53-3.15-38.6-7.24-55.18-10.12-10.83-30.36-16.27-45.59-36.62-68.59-15.11-16.18-17.74-18.07-46.85-21.63l-11.65-9c22.72.39,19.72-4,18.59-5.7,5.93.88,13.85,2,19.77,2.95,54.25,27,81.79,48.56,111.94,112.11" transform="translate(-294.42 -112.11)"/><path d="M1131,169.66c33.84,18.06,53,34.88,50.8,67.41,13.79,4,32.1,9.59,45.74,14.07l19.78,27.15c-37.54-12.24-50.7-16.29-103.42-28.17l-11.18-21.47c15.9-61.44-48.59-74.4-49.24-74.52l.17,1.38c8.71,5.9,17.77,11.27,26.53,17.09-10.26-2.35-24-5.45-34.27-7.59l-4.75-3.54c-27.7-19.29-27.7-19.29-28.15-21a4.33,4.33,0,0,1,1.47-.69c13.08.17,52.31,11.62,86.51,29.88" transform="translate(-294.42 -112.11)"/></g></g></g></g><circle class="cls-10" cx="625.2" cy="578.51" r="576.83"/><line class="cls-11" x1="769.27" y1="1060.2" x2="776.19" y2="1058.78"/></g></svg>