<svg id="Layer_1" data-name="Layer 1" xmlns="http://www.w3.org/2000/svg" xmlns:xlink="http://www.w3.org/1999/xlink" viewBox="0 0 1194.92 1194.92"><defs><style>.cls-1{fill:url(#radial-gradient);}.cls-2{fill:#11394f;}.cls-3{fill:#fff;}</style><radialGradient id="radial-gradient" cx="1019.51" cy="669.44" r="837.46" gradientTransform="matrix(1, 0, 0, -1, -288.43, 1097.89)" gradientUnits="userSpaceOnUse"><stop offset="0.27" stop-color="#1a70aa"/><stop offset="1" stop-color="#12476b"/></radialGradient></defs><title>Australian_PowerBall</title><circle class="cls-1" cx="597.46" cy="597.46" r="597.46"/><path class="cls-2" d="M1459.51,635.13c-82.66-31.25-188.89-65.95-311.22-100.72C863.67,453.49,578.9,397.06,440.1,391.15A779.72,779.72,0,0,0,357,595.36,824.52,824.52,0,0,0,334.32,854c136.46,5.83,416.24,61.42,696.1,140.72,120.29,34.16,224.55,68.25,305.85,99a1049,1049,0,0,0,93.46-241.75A978.6,978.6,0,0,0,1460,634.67" transform="translate(-288.43 -108.22)"/><path class="cls-3" d="M1083.61,778.42Q1075.32,806,1067,833.08c9.52,1.46,10.93,1.61,16.07-14.28l6.13-20.73c4.89-16.35,4.72-16.43-5.63-20m141.45-13.13-24.85,59.57,10.27,2.84c6-25.41,10-42.3,14.58-62.42M979,661.88l-12,44.07c8.28,1.31,9.69,1.54,14.33-14.74l3.4-12.36c3.23-12.13,1.66-14-5.71-16.43M1108,694.13q-6,21.8-12.26,43.45c7.45,1.92,9.36,1.54,11.26-2.3,0,0,12.59-30.25,8.28-37.54a11.29,11.29,0,0,0-7.29-3.61M402.59,555.94q-7,25.64-12.34,51.28c5.63.77,7-1.38,10.52-16.58q2.15-9.29,4.47-18.58c3.48-14.13,2.48-14.89-2.73-16.12m100.13,215C461.89,763.22,447.48,720.84,444,708a133.15,133.15,0,0,1-4.8-25.56s10.1-15.35,29.15-39.08a4.49,4.49,0,0,0,5.13,3.07c18.22,46.06,18.22,46.06,23.93,57.66-4.39,9.21,0,18.73,6.13,17l1.57-.69c11.59,14.43,18.47,31.4,28.16,46.83a59.94,59.94,0,0,1-30.73,3.61m-63.69-95a177.79,177.79,0,0,1,21-92.82,329.18,329.18,0,0,0,8.86,46.06,7.24,7.24,0,0,1,.83,2.92l-1.82,6.83c-8.94,13-19.63,24.8-28.82,37.54m98.22-99.8a6.74,6.74,0,0,0,6.29-3.3l.66-.92a189.74,189.74,0,0,1,23.11,64.49c-7.62,5-6,16.28-.83,17.43a7,7,0,0,0,2.32,0c4.89,15.89,6.29,80,6.21,80.38a103.09,103.09,0,0,1-36.69,30.71,518.15,518.15,0,0,1-29.32-49c4.47-9.83-.66-19.35-6.87-16.74l-1,.54a375.36,375.36,0,0,1-23.27-56.73c3.56-5.07.83-11.75,4.89-16.74a612.32,612.32,0,0,1,51.76-52.82,4.54,4.54,0,0,0,2.82,1.92M473,627.57a317.83,317.83,0,0,1-10.44-49.44,134.71,134.71,0,0,1,43.4-47.06,88.9,88.9,0,0,1,30.89,29,13.83,13.83,0,0,0-3.64,10.52,697.15,697.15,0,0,0-55.65,56.73,4.32,4.32,0,0,0-4.56,0m118.35-64.1A144.67,144.67,0,0,0,590,539.12c35.78,42.15,29.48,135.5-12.92,191.93l-4.31-80.46c2.15-25.1,14.58-48.06,17.56-73,7-4.38,6-13.82,1.33-14.66h0M573.36,637a5.11,5.11,0,0,0-2.07-1.23,209.38,209.38,0,0,0-24.85-68,2,2,0,0,1-.58-.92c.5-3.61.91-7.06,38.59-33.93,5.55,5.22,7,6.68,5.55,30.17-6.63,2.23-7.78,13.05-3.15,14.82H588a245.84,245.84,0,0,1-14.91,58.88M555.06,518.32h0A54.91,54.91,0,0,1,581.23,530c-12.92,9.52-23.35,17.89-36.11,28.87a4.08,4.08,0,0,0-5.13-2.07h-.66c-5.47-5.3-9.77-11.52-15.57-16.51a79.51,79.51,0,0,0-16.56-11.36,72.93,72.93,0,0,1,47.45-11m.83-2.38c-102.61-7.68-152.14,167-89.78,236.07,53,58.58,139.38-10,149.07-118.31,5.55-62.57-18.72-110.63-58.88-117m86.59-49.89a15.55,15.55,0,0,1-6.9,1.92,16.26,16.26,0,0,0-12.72,3.93,10.89,10.89,0,0,0-2.07,13.44s11.54,6.76,19.72-12.43l2.47-6.4m104.53,18.28a16.35,16.35,0,0,1-7.3,1.74,17.27,17.27,0,0,0-13.41,3.57,10.54,10.54,0,0,0-1.87,12.89,11.67,11.67,0,0,0,12.23,0A21.27,21.27,0,0,0,745.24,492l2.27-6.4M449.3,402.81l-22,33.64,12.82,1.28,9.17-34.92M341.39,739.5a828.16,828.16,0,0,1,29.15-189.55q5.8-21.11,12.59-41.53,15.49,1.38,32.22,3.22c36.94,4.38,31.14,27.79,20.37,70.25q-2.4,9.83-4.64,19.73c-6,28.18-11.93,54.28-41.16,51.21l-6.79-.77a855.92,855.92,0,0,0-9.19,90.36q-16.56-1.84-32.55-3.22m403.24-48.6c12.84-41.3,24.85-75.77,41.41-115.16l1.08-2.53,49.69,10.44C811.47,649.91,787.53,712.78,759,807.52q-30.06-6.3-59.38-12.13c1.08-43.68,6-83.68,7.54-96.89-12.84,38.39-20.54,63.64-28.16,90.13l-.66,2.53q-28.82-5.6-56.73-10.75a1572.08,1572.08,0,0,1,32-233.23l47.21,8.68c-16.56,75.08-16.56,76.77-23.85,117.46,11.93-38.39,23.52-71.47,40.08-111.7l.33-2.61,50.93,10.06c-5,26-10.93,51.82-16,77.85L744,690.59m39.59,122c13-60.8,28.24-123.53,45.63-186.79q5.8-21.11,11.76-41.69,41.41,8.91,84.39,18.58-5.8,20.57-11.59,41.69l-2.57,9.29-32.05-7.14q-5,18.27-9.77,36.39l30.15,6.68q-6.79,24.64-13.09,48.6l-29.65-6.6q-5.47,21-10.6,42.45l34.54,7.68q-6,24.64-12.51,49.52-42.82-9.52-84.64-18.58m93.09,20.5c15.24-60.34,31.64-122.83,49-186q5.8-21.11,11.59-41.69L974,613.82c47.54,11.29,57,16.51,62.78,35.08,7.29,23-8.28,78.23-24.85,86.68a30.77,30.77,0,0,1-10.68,3c16.15,14.36,12.26,27.94,2.73,60.65q-8.86,30.25-17.64,59.88l-49-11.82,20.87-75.16c6-22.11,5.3-22.34-3.15-25.33l-26.67,98L876.56,832.7M1000.13,862c18.22-59.65,36.19-121.68,53.67-184.94q5.8-21.11,11.35-41.76l51.76,13.05c30.15,7.68,45.38,15.35,50.6,37.62,4.22,17.89-5.38,67.94-23.6,76.77A40,40,0,0,1,1133,766c12.26,10.29,17.06,21.65,7.45,52.44q-3.23,10.06-6.54,20c-17.81,52.59-36,48-76,37.85q-28.82-7.68-58-14.51m115.95,29.86c31.14-66.18,58-123.3,93.92-219q36.19,9.83,70.4,19.5a1648.61,1648.61,0,0,1-47.37,231.93l-48.61-13.82L1196,871.85l-11.59-3.22-16.56,37.23-51.93-14m119.18,33.09A1590,1590,0,0,0,1297,742.57q5.8-21.11,10.93-41.92,23.93,6.91,46.71,13.82-5.05,20.81-10.85,41.92a1401.79,1401.79,0,0,1-44.47,134.5l24.27,7.68q-9.52,24.11-20,47.52-33.13-10.13-69.07-20.57m74.54,22.19a1280.33,1280.33,0,0,0,65.1-181.8Q1380,744.8,1385,724q22,6.76,42.82,13.44-4.89,20.88-10.68,41.92a1154.92,1154.92,0,0,1-45.38,133.89l22,7.14q-10,24-21.12,47.14-30.06-9.83-63-20M502,779.42c-102.69-24.26-79.59-211,8.28-259.1,75.7-40.92,132.51,45.6,101,154.31-19,66.56-66.25,111.63-109.4,104.79M470.8,462.87c7.3.55,11.93-8,15.38-16.36q7.4-18.28,15.29-35.19L512.31,413q-14.5,31.9-27.12,65.45L474.74,477l3.65-9.14c-17.95,19.56-24.06,4-24.36,1.19a50.79,50.79,0,0,1,5.33-21.21q8.18-19.84,17.16-38.94L487,410.12q-8.88,19.2-17.06,39c-2,4.75-5.52,13.53.89,14.26m209.16,45q11.64-33.73,24.46-65.82L718,444.31q-12.72,32.18-24.26,65.91l-13.41-2.38m-78.3-70.75c6.51-7,11.24-11.61,19-10.6h1.58q-3.65,8.59-7.2,17.28c-10.55-2.74-16.07,1.19-21.89,15.72q-6.11,15.72-11.93,31.81l-12.13-1.83q12.23-33.64,26-65.63l11.34,1.74-4.73,11.15m16.47,12.89c13.81-30,39.45-19.2,43.09-10.51a21.66,21.66,0,0,1-1.48,14.72q-5.92,15-11.44,30.26c-4.24,11.52-4.44,12.8-2.47,14.81l-.89,2.56-13.81-2.29a28.89,28.89,0,0,1,1.58-8c-16,13.89-29,6.67-28.7-5.21,0-1.1,1.08-27.88,28.2-28.52,22.39,0,14.59-11.24,14.4-11.43s-9.37-8-16.67,5.58l-11.83-1.92M721.18,466.8c13.31-30.07,41.12-18.28,45.56-9.14a20.7,20.7,0,0,1-.89,14.9q-5.52,15-10.85,30.35c-3.85,11.15-4.24,12.71-2,15l-.89,2.56-14.89-2.74a32.56,32.56,0,0,1,1.87-8.14c-18,14.53-32,5.21-30.87-8.14-.11-14.34,12.34-26,27.81-26.14h1c23.86.82,15-11,14.89-11.15a11.25,11.25,0,0,0-15,.66,9.65,9.65,0,0,0-2.51,4.46L721.57,467m72.88,1.65c18-18.28,32.35-3.38,32.74,5.3a37.26,37.26,0,0,1-2.47,13q-7.59,22.3-15,45.71l-14.5-2.83q6.71-20.57,13.71-40.59c6.71-20.57-10.65-14.81-10.65-14.72a25.19,25.19,0,0,0-10.65,14.44q-6.31,18.28-12.33,36.57l-13.81-2.74q11.24-33.73,23.27-65.91l13.51,1.92-3.45,9.14m-276.12,2.19a8.28,8.28,0,0,0,10.08-5.28,7.06,7.06,0,0,0-.22-4.69,39.32,39.32,0,0,0-8.48-5.94c-7-2.63-10.55-9.94-8-16.55,3.25-11.43,14.59-26.42,29.58-23.77s11,17.09,8.68,24L539,436.27c4.44-13.25-9-9.14-9.17-9.14-10.95,5.76,0,11.79,4.54,14.35,19.72,11,.89,34.92-7.1,39.4-9.86,5.39-33.73,4.84-26.23-20a14.09,14.09,0,0,1,1.38-3.75l11.14,1.46c-1.38,4.48-3.16,10.15,5.33,11.24m39.45-38.58,5.13-12,6.11.91q3.94-9.14,7.89-17.73l11.44,1.65Q585,413.23,581,421.82l6.9,1.1-5.13,12-7.3-1.1q-7.2,17.09-13.9,34.83c-2.17,5.67-2,6.12,2.66,6.86h2.37l-5,12.8c-11.44-1.37-19.72-1.37-13.81-16.09s10.65-27.42,16.17-40.4l-6.11-.91M396,467.44c16.47-26,38.66-60.61,56.41-85.93l11.64,1.19c-6.61,26.78-15.29,62.53-20.51,89.49l-11.83-1.28L435.69,452l-18.44-1.65L406.5,468.63l-9.86-.55m258.56,35.1q15.88-45.71,34.12-88.21L702,417.16q-18.54,42.32-34.42,88L654.71,503m53.45-69,6.31-15.36,13.12,2.29-6.21,15.36L708.16,434M416.22,343C374,387.88,252.41,592.89,300.28,805.87c6.57,82.37,829.59,193.83,1079.24,236.48,139.32-210,100.15-458.61,82.43-476.89C1069,445.36,734.07,373.23,416.22,343Z" transform="translate(-288.43 -108.22)"/></svg>