<svg id="Layer_1" data-name="Layer 1" xmlns="http://www.w3.org/2000/svg" xmlns:xlink="http://www.w3.org/1999/xlink" viewBox="0 0 1463.87 1166.73"><defs><style>.cls-1{fill:none;}.cls-2{fill:url(#radial-gradient);}.cls-3{isolation:isolate;}.cls-4{clip-path:url(#clip-path);}.cls-5{fill:#ca2221;}.cls-6{fill:#fff;}.cls-7{fill:#2a2b65;}.cls-8{clip-path:url(#clip-path-2);}.cls-9{fill:url(#radial-gradient-2);}.cls-10{fill:url(#linear-gradient);}.cls-11{fill:#e81a1a;}</style><radialGradient id="radial-gradient" cx="1094.08" cy="1147.88" r="754.91" gradientTransform="translate(-60 -665.37)" gradientUnits="userSpaceOnUse"><stop offset="0" stop-color="#fff"/><stop offset="0.03" stop-color="#fff"/><stop offset="0.42" stop-color="#f2f2f2"/><stop offset="0.65" stop-color="#e8e8e8"/><stop offset="0.76" stop-color="#e1e1e1"/><stop offset="0.91" stop-color="#cecece"/><stop offset="1" stop-color="silver"/></radialGradient><clipPath id="clip-path" transform="translate(-170.92 -124.09)"><path id="SVGID" class="cls-1" d="M913.51,1281.23c-11.28.44-25.62.44-38.37,0-8.35-.28-19.46-.94-27.8-1.48-4.3-.28-10-.77-14.32-1.24-8.58-.93-20-2.32-28.53-3.56-6.39-.93-14.86-2.54-21.22-3.67-10.62-1.89-24.64-5.15-35.07-7.9-12.23-3.23-28.42-8-40.39-12s-27.89-10.06-39.58-15c-12.32-5.26-28.52-12.83-40.42-19-11.63-6-26.93-14.46-38-21.5-23.43-14.95-44.22-28.78-71.71-52.23-10.21-8.71-23.39-20.86-32.91-30.32s-21.5-22.31-30.13-32.38-20-24.26-28-35.1-17.94-25.56-25-36.93C395,997.33,386,981.58,379.8,969.52S366.15,941,360.64,928.6c-9.68-21.75-19.81-52-25.63-75.11-3.42-13.55-7.66-31.72-10.14-45.47-2.54-14.09-5.33-33-6.57-47.25-2.45-28-3.36-65.72-1.59-93.81.87-13.88,2.84-32.34,4.84-46.11,2-13.5,5.83-31.29,8.35-44.7a323.49,323.49,0,0,1,11.89-44c4.51-12.65,10-29.7,15.06-42.16s12-29.28,18.45-41.18c6.35-11.69,14.4-27.51,21.21-38.94,6.93-11.62,16.75-26.76,24.56-37.81a579.66,579.66,0,0,1,125.26-129c10.37-7.72,24.46-17.7,35.4-24.58,13.34-8.38,31.7-18.61,45.48-26.26,10.4-5.77,25-12.17,35.82-17,7.44-3.31,17.51-7.41,25.17-10.16,12.5-4.48,29.26-10.25,42-14,7.64-2.25,23.07-6.59,40.6-10.34,13.31-2.85,22.53-4.4,30.83-5.75,11.64-1.89,26.24-3.59,26.8-3.62h0c1.13-.1,2.64-.29,3.77-.41,4.15-.45,9.17-.89,11.31-1.08.95-.08,6-.52,12.46-.93,9.46-.6,16.73-.83,16.79-.83,8.11-.18,18.93-.29,27-.14,9.32.18,21.74.85,31,1.38,4.95.28,11.53.91,16.47,1.32,10.15.85,23.66,2.39,33.71,4,5,.82,11.78,1.77,16.8,2.73,8.83,1.71,20.59,4.08,29.33,6.18,11.51,2.76,26.75,6.94,38,10.53,12.48,4,29,9.71,41.13,14.66a579.77,579.77,0,0,1,215.58,150.62c17.8,19.81,39.22,48.31,54.11,70.4,15.53,23.06,32.27,54.66,43.38,79.57s22.75,59.84,30.48,86.14c4,13.51,7.72,32,10.23,45.82s4.72,32.79,6.53,46.88c2.28,17.77,2.88,41.75,2.81,59.67-.06,13.92-.89,32.49-2.07,46.37s-3.51,32.19-5.77,45.87c-2.22,13.43-5.94,31.21-9.24,44.41s-8,30.86-12.76,43.63c-4.7,12.56-10.63,29.45-15.88,41.79s-12.56,29-19.25,40.78-14.86,28.07-22.48,39.32c-14.83,21.88-35.58,50.43-52.23,70.95-8.63,10.63-21.41,23.74-31.12,33.41-9.31,9.26-22.21,21.12-32.21,29.63-24.66,21-52.15,40.56-73.08,53-13.91,8.27-32.85,18.65-47.29,26-10.34,5.23-24.5,11.5-35.26,15.81-11.2,4.48-26.22,10.27-37.74,13.83-6,1.86-14,4.53-20,6.18-11.54,3.14-27,7-38.66,9.77,222.35-47.82,372.84-292.85,344.46-581.26C1327.74,371.4,1093.75,123,836.2,132.6c257.56-9.58,491.55,238.8,522.63,554.75,28.38,288.41-122.12,533.44-344.46,581.26-16.51,3.55-33.32,6.4-50,8.48C942,1279.9,924.62,1280.8,913.51,1281.23Z"/></clipPath><clipPath id="clip-path-2" transform="translate(-170.92 -124.09)"><path id="SVGID-2" data-name="SVGID" class="cls-1" d="M1014.37,1268.62c-5.35,1.11-12.49,2.55-17.86,3.55-2.17.4-8.6,1.53-13.17,2.25-6.54,1-10.08,1.55-18.93,2.69-6.48.83-15.24,1.71-15.39,1.72h0c-2.27.18-5.29.52-7.56.7h0c-1.19.08-2.77.23-4,.32l-4.06.3c-4.83.34-7.93.52-9,.58-5,.27-12.49.67-22.09.79-7.56.09-17.64,0-25.2-.21-8.31-.19-19.38-.88-27.68-1.39-4.3-.26-10-.81-14.3-1.19-7.41-.65-20.89-2.24-30.63-3.76-10.6-1.66-24.75-4-35.16-6.54-16.83-4.18-39.23-10-55.78-15.16-12.13-3.78-28-9.67-39.73-14.63-13.37-5.66-31-13.67-44-20.24-11.68-5.92-26.88-14.54-38.06-21.35-11.77-7.17-27-17.43-38.22-25.51-10.69-7.74-24.5-18.66-34.58-27.18-10.36-8.75-23.66-21-33.29-30.57-9.42-9.34-21.5-22.3-30.17-32.34-8.84-10.24-20.09-24.34-28.11-35.23s-17.63-25.76-25-36.91C394.9,998,386.24,982,380,969.88S366.05,941.47,360.8,929a576.93,576.93,0,0,1-42.46-167.83c-2.46-28-2.45-65.68-1.65-93.82a333.2,333.2,0,0,1,4.81-46.09c2.49-13.41,5.3-31.41,8.32-44.71s7.31-31,11.84-43.9c4.47-12.67,10-29.71,15-42.17s12.38-29,18.35-41.06a579.7,579.7,0,0,1,102-145c9.12-9.47,21.75-21.65,31.56-30.39,10-8.94,24-20.23,34.55-28.51,10.18-8,24.39-17.78,35.23-24.82,11-7.15,26.12-16,37.58-22.43,10.39-5.82,24.67-12.81,35.48-17.82C661,176,674,170.6,683.76,166.77c12.41-4.85,29.27-10.52,42-14.38,12.08-3.66,28.41-7.78,40.69-10.71,4-.94,9.26-2,13.25-2.79,2.68-.51,6.25-1.22,8.93-1.7,3.88-.69,9-1.58,12.94-2.2,18.13-2.9,34.24-4.41,34.37-4.42h0l7.56-.7h0c2.67-.21,5.35-.45,8-.63,8.54-.58,12.07-.77,19.9-1.08,3.83-.15,8.95-.25,12.78-.28,4.2,0,9.81,0,14,.07,4.51,0,10.52.3,15,.44,9.69.31,22.6,1.28,32.26,2.12a577.45,577.45,0,0,1,68.76,10.16c11.55,2.53,26.9,6.22,38.22,9.64,15.16,4.57,35.21,11.28,50,17A609.41,609.41,0,0,1,1180,204.54c12.44,7.21,28.65,17.48,40.5,25.61,10.84,7.44,24.84,18,35.07,26.28,10.7,8.64,24.46,20.77,34.44,30.22,9.62,9.11,21.62,22.09,30.83,31.61,9.45,9.76,20.73,24,29,34.76s18.72,25.46,26.12,36.8c14.72,22.55,31.13,54.63,43,78.79,6.09,12.37,12.48,29.65,17.1,42.64s9.55,30.73,13.63,43.9c4.17,13.46,7.75,32,10.27,45.84,2.56,14.08,5.19,33,6.6,47.24s2.61,33.05,2.73,47.25c.11,14-.05,32.64-1.08,46.57-1.28,17.37-3.36,40.57-6.61,57.69-2.54,13.37-5.92,31.22-9.21,44.42s-7.89,30.83-12.71,43.57-10.25,30-16,42.23c-5.68,12.07-12.81,28.38-19,40.22s-14.76,27.83-22.25,39c-7.35,11-16.89,25.87-24.73,36.54-8,10.89-18.84,25.35-28,35.25-17.85,19.24-42.63,44-61.9,61.82-9.86,9.12-24.1,20.08-35.08,27.82-11.64,8.2-27.09,19.31-39.42,26.42-20.14,11.61-47.47,26.37-68.68,35.89-10,4.47-23.56,9.67-33.76,13.54-6,2.26-14,4.93-20.1,6.9s-14,4.45-20,6.08c-10.88,2.93-25.45,6.59-36.43,9.13a378.48,378.48,0,0,1-65.59,8.17A378.48,378.48,0,0,0,1014.37,1268.62Z"/></clipPath><radialGradient id="radial-gradient-2" cx="970.69" cy="59.81" r="744.09" gradientTransform="matrix(1, 0, 0, -1, -171.48, 439.53)" gradientUnits="userSpaceOnUse"><stop offset="0.59" stop-color="#fff" stop-opacity="0"/><stop offset="0.82" stop-color="#5d5d5c" stop-opacity="0.57"/><stop offset="1" stop-color="#1d1d1b" stop-opacity="0.8"/></radialGradient><linearGradient id="linear-gradient" x1="1285.59" y1="468.88" x2="1686.79" y2="468.88" gradientTransform="matrix(1, 0, 0, -1, -230.92, 1060.87)" gradientUnits="userSpaceOnUse"><stop offset="0" stop-color="#8c1914"/><stop offset="0.04" stop-color="#941914"/><stop offset="0.2" stop-color="#af1918"/><stop offset="0.36" stop-color="#c61718"/><stop offset="0.52" stop-color="#d51116"/><stop offset="0.69" stop-color="#de1118"/><stop offset="0.85" stop-color="#e31019"/></linearGradient></defs><title>powerball_Logo</title><path class="cls-2" d="M887,124.09c320,0,579.37,259.32,579.41,579.28s-259.32,579.37-579.28,579.41S307.74,1023.46,307.7,703.5h0C307.7,383.55,567,124.16,887,124.09Z" transform="translate(-170.92 -124.09)"/><g class="cls-3"><g class="cls-3"><g class="cls-4"><path class="cls-5" d="M380,969.88c7.82,13.75,17.93,32.28,26.37,45.65,2.65,4.11,13.13,7.41,31.13,9.76a575.42,575.42,0,0,1-51.92-108.77c-20.88-2.73-32.43-6.63-34.24-11.52,8.16,19.65,18.71,46.07,28.66,64.88" transform="translate(-170.92 -124.09)"/><path class="cls-5" d="M1334,947.91c61.24-13.17,92.52-24.46,95.89-33,7.28-20.92,16.56-49,22.48-70.34,3-14.62,7.55-34,10-48.78-5.81,9.93-24.73,19.13-104.29,36.82a625.6,625.6,0,0,1-24,115.32" transform="translate(-170.92 -124.09)"/><path class="cls-6" d="M344.65,885.89,351.33,905c1.81,4.9,13.37,8.79,34.24,11.52A599,599,0,0,1,356.3,794.42c-22.82-3-34.85-7.32-35.59-12.8,9.93,56.65,12,68.44,23.93,104.28" transform="translate(-170.92 -124.09)"/><path class="cls-6" d="M1358,832.59c61.75-13.94,98.61-24.43,104.29-36.82l5.06-41.5c1.14-25.62,1.67-59.85.92-85.49.61,9.79-34.36,23.16-107.74,38.95A686,686,0,0,1,1358,832.59" transform="translate(-170.92 -124.09)"/><path class="cls-5" d="M485.72,1113.78c43.4,39.95,43.4,39.95,67.87,57.76L577,1187.68c3.28,2.11,10,3.85,20.12,5.17a538.63,538.63,0,0,1-88.06-74.52c-14.39-1.88-23.26-4.45-26.42-7.63l3.08,3.08" transform="translate(-170.92 -124.09)"/><path class="cls-5" d="M1229.86,1138.24c38.52-8.29,60.25-15.52,66.2-21.27,10.16-10.74,24-24.79,33.69-35.94,13.58-17,31.36-40.05,43.84-57.92-4.89,7.33-32,16.8-83,27.77a492,492,0,0,1-60.69,87.36" transform="translate(-170.92 -124.09)"/><path class="cls-6" d="M427.43,1046.21c15.87,19.92,37.92,45.8,55.21,64.5,3.16,3.18,12,5.75,26.42,7.63a557.41,557.41,0,0,1-71.57-93c-18-2.35-28.48-5.65-31.13-9.76l21.08,30.67" transform="translate(-170.92 -124.09)"/><path class="cls-6" d="M1290.55,1050.88c51-11,78.15-20.44,83-27.77l8.92-13.88c29.41-51.53,29.41-51.53,41.21-79.26l6.16-15.08c-3.37,8.56-34.64,19.85-95.89,33a560.2,560.2,0,0,1-43.44,103" transform="translate(-170.92 -124.09)"/><path class="cls-5" d="M713.55,1253.26c47.2,13.79,50,14.61,90.94,21.7l5.53.82h0a505.27,505.27,0,0,1-111.65-29.61,58.45,58.45,0,0,1-12.06-2.56l27.2,9.65" transform="translate(-170.92 -124.09)"/><path class="cls-5" d="M1065.47,1253.74c7.53-1.62,13.47-3.14,17.87-4.54,8.26-3,19.28-7.09,27.46-10.36,47-21.07,49.83-22.34,82.55-41.76l6.49-4c-6.18,3.87-21.23,8.53-45.66,13.79a386.35,386.35,0,0,1-88.71,46.91" transform="translate(-170.92 -124.09)"/><path class="cls-6" d="M629.86,1218.4c16.82,7.85,39.28,18.28,56.49,25.21a58.45,58.45,0,0,0,12.06,2.56,519.11,519.11,0,0,1-101.29-53.32c-10.09-1.32-16.84-3.06-20.12-5.17,15.72,9.45,36.45,22.53,52.86,30.72" transform="translate(-170.92 -124.09)"/><path class="cls-6" d="M1154.18,1206.83c24.43-5.25,39.48-9.92,45.66-13.79,20.47-14,47.17-33.55,66.58-49l29.64-27.09c-6,5.75-27.67,13-66.2,21.27a429.94,429.94,0,0,1-75.68,68.59" transform="translate(-170.92 -124.09)"/><path class="cls-5" d="M1168.29,273.39C1226,261,1248.77,250.77,1239.65,244c-16.59-11.55-38.83-26.8-56.06-37.36-14.59-7.83-34-18.46-48.9-25.58,11.23,5.08-5.11,13.22-51.79,23.26a537.43,537.43,0,0,1,85.4,69.1" transform="translate(-170.92 -124.09)"/><path class="cls-5" d="M988.16,156.9c33.34-7.17,41.88-12.78,28.23-15.77l-2.1-.46c-24.66-4.86-70.55-13.89-141.3-12.56,21-.64,23.93.45,25.21,1.73-1,1.16-1.61,1.92-11.58,4.16A409.49,409.49,0,0,1,988.16,156.9" transform="translate(-170.92 -124.09)"/><path class="cls-7" d="M322.58,679.31l-2.13,34.4,4.63-18.54,5.63,22.28-1.36-35.67,7.86-20.62-7.69-3.23,1.92-34.45-6.08,32.94-4.52-1.21,1.72,24.1m7.33-103.16-1.67,7.54-3.51,20.74,6.85-34.15L338,551.33l-.64-3.75,10.1-32.44-3.8,11.22c-4.21,14.91-10.32,34.68-13.76,49.79m29.8-72.51L347.36,535,357.67,518l-.84,20.37,9-32.54,13.54-18.62-6.51-2.9,11.7-30.57L369.16,483l-4.39-1.06-5.07,21.7m36.81-93.72-18,32.64,4.06-7.49-8.76,19.4,15.4-30.3,11.61-16.65-.21-3.24,18-28.07L401,402.65l.17-.34-4.61,7.61m37.89-43.72-20,27,14.26-14.67-6.25,17.59L439.48,368l17.33-15.9-5-2.39L471.21,324l-22.39,24.62-3.92-.84-10.5,18.39m57.7-76.6-22.91,23.15,12.55-12.33L468.39,316l23.21-24.39,16.23-13.25.26-2.44,25.11-21.64-24.82,20.43.62-1.11L492.1,289.6m59.65-43.15L525,267.12l17.44-11.37-11.63,13.49,24.5-21.5,20.28-12.06L572.68,234l26.22-18.54-28.25,17.8-3.12-.51-15.77,13.7m16.43-19,.78-.53.17-.11-.94.64m50.27-29.66-29,16.39,16.34-8.9-16.87,11.08,29.2-17.29,19.65-9.18.69-1.51,30.45-14.08-30.28,13.36-.17-.61-20,10.73M689,169l-31.74,13.23,19.44-7.47-16.15,8.67,30.25-13.77,21.86-7.42-.68-.86L743.46,151,711,161l-2.13-.16L689,169m3.37-5.46-21.84,8.54-3.25,1.36L678.13,169l-19.69,8.38,31.64-12.8,19.47-6.45L712,157l32.28-9.33-31.08,8.77,1.08-.51-21.94,7.6m96.3-26.34c2.88-.51,6.73-1.18,9.62-1.67-4.41.72-8.41,1.47-11.85,2.21-12.41,2.67-14.6,4.7-7.75,5.59C511.47,208.81,324.92,478.9,354,774.09q1,10.23,2.34,20.32c-22.82-3-34.85-7.32-35.59-12.8l-2.38-20.47c-3.63-62.86-3.63-62.86-1.63-94.19,6.37-60.86,6.37-60.86,13.19-90.81,15.67-58,15.67-58,27-86.11,24.26-54.24,24.26-54.24,39.66-80.12,32.14-49.56,32.14-49.56,51.33-72.82,38.46-43.09,39.2-43.91,62-64.23,43.39-35.7,45.08-37.09,71.86-54.37,43.32-25.65,47.85-28.34,81.3-43.27,21.49-8.78,57.45-23.47,107.56-34.46,11.51-2.38,12.72-2.63,18-3.58" transform="translate(-170.92 -124.09)"/><path class="cls-6" d="M1082.89,204.29c46.68-10,63-18.18,51.79-23.26l-32.19-13.75c-48-16.9-51.87-18.28-86.1-26.15,13.65,3,5.1,8.6-28.23,15.77a464.53,464.53,0,0,1,94.73,47.4" transform="translate(-170.92 -124.09)"/><path class="cls-5" d="M1299.72,464.81c71.91-15.47,103.78-28.42,98.73-37.56L1376,389.83c-13.68-19.29-32.53-44.61-47.5-62.93,7.1,8.16-20.9,20-87.09,34.24a666.77,666.77,0,0,1,58.3,103.68" transform="translate(-170.92 -124.09)"/><path class="cls-6" d="M1241.42,361.13c66.19-14.24,94.19-26.08,87.09-34.24l-7-7.93c-41.18-42.35-41.18-42.35-64.55-61.43L1239.65,244c9.12,6.8-13.68,17-71.36,29.42a609.87,609.87,0,0,1,73.13,87.74" transform="translate(-170.92 -124.09)"/><path class="cls-5" d="M1358.83,687.35q1,10.23,1.71,20.38c76.35-17.23,103.53-27.06,107.74-38.95l-1.66-20.54c-8.69-62.36-8.69-62.36-16.76-92.7l-3.71-13.3c2.84,9.7-31.41,23.18-105.8,39.18a719.4,719.4,0,0,1,18.48,105.93" transform="translate(-170.92 -124.09)"/><path class="cls-6" d="M1340.35,581.42c74.39-16,108.64-29.48,105.8-39.18-7.46-22.18-18-51.58-26.92-73.2-6.22-12.55-14.06-29.51-20.78-41.79,5,9.14-26.82,22.09-98.73,37.56a702.09,702.09,0,0,1,40.63,116.61" transform="translate(-170.92 -124.09)"/><polyline class="cls-6" points="518.05 44.9 486.31 58.13 505.75 50.66 489.6 59.33 519.85 45.56 541.71 38.14 541.02 37.28 572.53 26.89 540.08 36.93 537.95 36.77 518.05 44.9"/><polyline class="cls-6" points="521.42 39.44 499.58 47.98 496.33 49.34 507.2 44.92 487.51 53.3 519.15 40.5 538.62 34.05 541.09 32.91 573.37 23.58 542.29 32.35 543.37 31.84 521.42 39.44"/><polyline class="cls-6" points="447.52 73.7 418.55 90.09 434.88 81.19 418.01 92.28 447.21 74.98 466.85 65.81 467.54 64.3 498 50.22 467.72 63.58 467.55 62.98 447.52 73.7"/><polyline class="cls-6" points="380.82 122.36 354.04 143.03 371.48 131.65 359.86 145.14 384.36 123.65 404.64 111.58 401.75 109.91 427.97 91.36 399.72 109.17 396.6 108.66 380.82 122.36"/><polyline class="cls-6" points="397.25 103.37 398.03 102.84 398.19 102.73 397.25 103.37"/><polyline class="cls-6" points="321.18 165.51 298.27 188.66 310.82 176.32 297.46 191.96 320.68 167.56 336.91 154.31 337.17 151.87 362.28 130.24 337.46 150.67 338.07 149.56 321.18 165.51"/><polyline class="cls-6" points="263.48 242.11 243.47 269.1 257.74 254.43 251.49 272.02 268.56 243.95 285.89 228.05 280.92 225.66 300.29 199.93 277.9 224.56 273.98 223.72 263.48 242.11"/><polyline class="cls-6" points="225.59 285.83 207.55 318.46 211.61 310.97 202.85 330.37 218.25 300.07 229.85 283.43 229.64 280.18 247.64 252.12 230.03 278.56 230.21 278.21 225.59 285.83"/><polyline class="cls-6" points="151.66 555.22 149.53 589.62 154.17 571.08 159.79 593.36 158.44 557.68 166.3 537.07 158.6 533.83 160.53 499.38 154.45 532.32 149.93 531.11 151.66 555.22"/><polyline class="cls-6" points="188.78 379.55 176.44 410.87 186.74 393.95 185.9 414.31 194.91 381.78 208.45 363.16 201.94 360.26 213.64 329.69 198.24 358.91 193.85 357.85 188.78 379.55"/><path class="cls-6" d="M329.91,576.15l-1.67,7.54-3.51,20.74,6.85-34.15L338,551.33l-.64-3.75,10.1-32.44-3.8,11.22c-4.21,14.91-10.32,34.68-13.76,49.79" transform="translate(-170.92 -124.09)"/></g></g><g class="cls-3"><g class="cls-8"><path class="cls-5" d="M406.36,1015.54c-8-13.64-19-31.66-26.37-45.65-9-19.26-20.83-45.09-28.66-64.88-3.55-9.57,30.12-23,104.09-38.86,179-38.49,526.12-77.21,775.37-86.48,153.37-5.7,233.94,1.08,231.53,16.1-2.93,14.65-6.39,34.28-10,48.78-6.21,21.27-14.91,49.52-22.48,70.34,5.71-14.5-68.69-21.14-213.19-15.77-229.78,8.54-549.82,44.24-714.82,79.72-70.44,15.15-101.24,27.81-95.52,36.69" transform="translate(-170.92 -124.09)"/><path class="cls-6" d="M351.33,905l-6.68-19.11c-16.08-56.26-17.76-62.14-23.93-104.28-1.32-9.82,33.62-23.29,107.71-39.23,184.83-39.75,543.32-79.73,800.71-89.3,155.2-5.77,238.21.83,239.14,15.7.58,25.64.4,59.88-.92,85.49l-5.06,41.5c2.41-15-78.16-21.8-231.53-16.1-249.25,9.27-596.39,48-775.37,86.48-74,15.91-107.63,29.29-104.09,38.86" transform="translate(-170.92 -124.09)"/><path class="cls-5" d="M577,1187.68l-23.41-16.14c-45.49-35.75-46.36-36.43-67.87-57.76l-3.08-3.08c-7.72-7.77,18.78-19.14,82.55-32.86,143.83-30.93,422.81-62,623.11-69.5,129.29-4.81,194.2,1.42,185.3,14.76-12.72,17.69-30,41.05-43.84,57.92-10.06,10.83-23.18,25.55-33.69,35.94,12-11.63-40.46-17.2-149-13.17-162.18,6-388.05,31.22-504.51,56.27-54.45,11.71-75.34,21.32-65.57,27.61" transform="translate(-170.92 -124.09)"/><path class="cls-6" d="M482.64,1110.7c-17.23-18.75-39.4-44.53-55.21-64.5l-21.08-30.67c-5.72-8.87,25.08-21.54,95.52-36.69,165-35.49,485-71.18,714.82-79.72,144.5-5.37,218.9,1.27,213.19,15.77L1423.72,930c-25.32,53.69-25.32,53.69-41.21,79.26l-8.92,13.88c8.9-13.34-56-19.57-185.3-14.76-200.3,7.45-479.28,38.56-623.11,69.5-63.77,13.71-90.27,25.09-82.55,32.86" transform="translate(-170.92 -124.09)"/><path class="cls-5" d="M810,1275.78l-5.53-.82c-42.22-7.85-51-9.49-90.94-21.7l-27.2-9.65c-12-4.46,2-11.86,44.8-21.05,83.88-18,246.58-36.19,363.4-40.53,82.79-3.08,120.32,1.6,105.29,11l-6.49,4c-42.21,23.9-47.63,27-82.55,41.76-8.22,3.17-19.16,7.41-27.46,10.36,23.05-7.34,3.69-11.4-51.29-9.36-65.47,2.43-156.64,12.6-203.65,22.71-29.34,6.31-34.54,11.11-18.38,13.23" transform="translate(-170.92 -124.09)"/><path class="cls-6" d="M686.35,1243.61c-17.07-7.28-39.83-17-56.49-25.21-16-9-37.36-20.91-52.86-30.72-9.77-6.29,11.12-15.9,65.57-27.61,116.45-25,342.33-50.24,504.51-56.27,108.53-4,161,1.53,149,13.17l-29.64,27.09c-19.46,15.37-46.08,35-66.58,49,15-9.41-22.5-14.09-105.29-11-116.82,4.34-279.52,22.49-363.4,40.53-42.75,9.19-56.78,16.59-44.8,21.05" transform="translate(-170.92 -124.09)"/><path class="cls-5" d="M1032.81,238.31c-16.37-23.67-33.78-44-51.94-60.44,11.88-.63,23.48-1.16,34.7-1.58,66.85-2.49,107.56-.49,119.11,4.74,14.75,7.52,34.53,17.36,48.9,25.58,17,10.86,39.68,25.52,56.06,37.36-10.76-8-66-11.28-160.76-7.76-14.9.55-30.3,1.26-46.08,2.1" transform="translate(-170.92 -124.09)"/><path class="cls-5" d="M924.48,140.41c-19.38-8.39-39.23-12.52-59.27-11.95,2.33-.11,5.44-.26,7.77-.35,62.34-1.16,104.76,5.35,141.3,12.56l2.1.46c-10.55-2.31-34.37-3-70.25-1.71-7,.26-14.24.59-21.66,1" transform="translate(-170.92 -124.09)"/><path class="cls-7" d="M335.28,658.76l1.91,33.87-7.07-17.33-5.91,23.36,2.51-35.92-2.95-19.38,6.07-4.63,6.52-34.66-1.27,32.22,9.37-2.54-9.18,25M443.9,630.22l6.66,33.41-19.3-16.43-17.62,24.15,5.86-36L404.61,617,425,611.27l10.06-34.64L440,608.14l23.15-3.41L443.9,630.22m183-30.33,10.21,33.27L610.51,616.6l-24,23.85,7-35.75-23.3-18.21,29.42-5.58,10.5-34.16,10,31.21,30.79-3.1-24,25m220.57-26.63,12.78,33.3-30.37-17.11-26.52,23.14,6.56-35.35-28.16-18.57,33.61-4.87,8.92-33.55,14.1,31.11,34-2.29-24.94,24.19m228.26-19.6,14.15,33.52-30.44-18.11-25.27,22,4.78-34.86L1009.5,536.9l33.22-3.67,5.71-32.87,16.83,31.28,32.87-1-22.38,23M332.33,567.15l-6.44,32.5,2.59-17.07-.24,1.1,1.67-7.54c4-15,9-35,13.76-49.79l-5.84,19.32,2-1.83-7.5,23.3m57.57-23.74-1.5,31.74-9.47-15.85-14.69,22.6,9.86-34.07-4.71-17.69,12.68-4.92,13.51-32.28-3.9,29.6,15.63-3L389.9,543.41m144.79-29.19,4.2,31.12L518.78,530l-23,22.66L506.45,519l-16-16.87,24.39-5.41L528.94,465l3.13,28.8,26.08-3.19-23.46,23.59m196.46-27.62,9.38,30.75-26.73-15.45-26,22,8.84-33-23.49-16.81,30.37-5,11.39-30.89,9.61,28.3,31.35-2.67-24.72,22.77m218.07-22.49L963,494.73l-30-16-25.15,20.95,5.29-32.31L885,450.15l32.15-4.06,6.71-30,15.26,28.07,32.42-1.68-22.36,21.66m-578,20.94-8.39,30.46-.55-15.59-11.43,21.16,12.62-32.42,3.93-17.29,5.77-4.14,15.71-30.41-11,28.23,8-2.27-14.65,22.27m98.21-25.8-2,29.51-12.9-14.46-21.16,21.59,14-32-7.81-16,18.53-5.08,17.09-29.9L471.41,440l20.37-3.06-22.39,22.36m165.47-27.42,4.58,28.83L617.89,446.4l-25.17,21,11.91-31.2-17.35-15.57,26.44-4.94L628,386.75,632,413l27.3-2.8-24.45,21.59m199.42-24.07,11,28.37-27.34-14.48-25.14,20,7.55-30.33-24.22-15.57,30-4.3,9.06-27.91,11.48,25.73,30.34-2.1-22.73,20.54M1040.66,390l16.4,28.22-29.84-15.18-21.54,18.81,1.73-29.5-28.06-16,29.54-3.21,2.15-26.94L1029,371.73l29.45-1L1040.66,390M389.83,421.45l-15,28.78,3.68-7.68,18-32.64,4.61-7.61,1.22-1.2-12.52,20.35m50-20.62-9.67,27.7-3.45-13.87L408.77,434.5l17.34-29.84,1.58-15.32,11.18-4.23,20.06-27.54L447.1,382.81l13.1-2.54-20.37,20.56m125.76-25.35-2.15,26.66L549.2,389l-24,19.6,15.83-29-9.55-14.3,21.14-4.63,18.15-26.56-3.43,24.05,22.15-2.74-23.93,20m170.64-24L742,377.35l-22-12.94-24.68,18.72,10.94-27.93-18.13-13.93L714.26,337l12.56-25.37,5.44,23.15L759,332.5l-22.81,19M925.64,332,939,357.31l-27.12-13.24-21.75,17.58,4.1-26.91-24.49-14,27.54-3.44,4.83-24.23,14,22.56L944,314.17,925.64,332M443.91,350.81l-16.44,25.92,5-13.35-15.16,18.06,20.17-27.65,9.52-14.6,5-3.39,22.55-25.24L455.88,334l6.19-1.84-18.17,18.62m81.32-21.37L516,354.08,509.58,342l-22.41,18.15L507,333.27,505.86,320l15.39-4.14,21.9-24.33-11,22.06,16.34-2.5-23.24,18.37m137-22.7-.53,23.54L646.2,318.64l-24,17.34,15.06-25.63L626.36,297.8l21.74-4,16.51-23L663,291.65l22.1-2.31-22.85,17.4m165.12-19.93,8.62,22.7L813.4,297.94l-21.86,16.27,7.7-24.43-18.91-12.23,24.54-3.47,8.38-21.7,8.35,19.93,24.71-1.75-19,16.24m170.88-14.67,17.07,22.24-27-12-16.55,15-1.1-23.37-24.64-12.37,24-2.56-1.26-20.56L986.45,258l24.13-.83-12.33,15M530,274,512.43,295.8l3.22-11-19.93,15.7,23.86-23.57,8.2-11.95,8.66-3.16L562,241l-19.46,19,9.34-1.86L530,274m95.23-19.2-8.69,20.4-6.87-10.09-23,15.17,20-22.32-1.91-10.79,15.94-3.43,21.13-19.39-10.24,17.54,16.15-2-22.5,14.94m129.22-18.16L756,255.83l-15.27-9.63-21.21,14.15,12.23-20.91-11-10.12,19.5-3.11,12.8-17.91.52,16.26,19.73-1.74-18.9,13.81m143.44-14.79,12,18.35L888,230.59l-16.31,13,2.43-19.63-18.71-9.82,20.37-2.51L878.13,195l11.57,15.33,20.68-1.14-12.52,12.6M558.37,235.74l-23.92,19.43L545.12,245l-18,13.58,26.81-20.78,14.27-10.36.94-.64,3.71-2.22,28.25-17.75L575.4,223.4l3.72-1.2-20.75,13.54M615,220.87l-16.31,17.88,1.09-8.92-22,13.29,24.51-19.59,6.43-9.57,10.78-2.82,25.44-16.48-18.1,14.95,10.66-1.67L615,220.87m95.36-15.8-6,16.43-7.77-8.18-20.92,12.31,17.28-18-2.85-8.6,14.92-2.7,17.6-14.87L715,194.83l14.7-1.56-19.39,11.8M825.25,191.2l5.43,15.24L815,198.65l-16.56,11.2,7.23-16.58-11.65-8L810.66,183l7-13.35,4.3,12.16,16.65-1.21L825.25,191.2M944.19,181l16.54,14.48L939,187.65l-9.81,10L925,182.34,906,174.61,922,172.92l-4.91-12.1,16,11.32,16.45-.61L944.19,181m-302.14,7.07-24,14.9,9.42-7.7L607,206.05l28.54-16.18,14.08-8L655.3,180l29.28-12.89L658.92,179l5.08-1.08-21.94,10.18m59.38-12L687,189.31l.68-6.64-20.44,10,22.59-14.62,5.62-6.77,9.85-2L728,158l-16.22,10.15,9.27-1.21-19.63,9.15M782,164.77l-2.63,11.73-7.74-5.93-16.41,8.92,12.63-13-3.28-5.85,11.78-1.83,12.21-9.58-4.3,8.6,11.6-1.06-13.86,8m89.43-9.22,9.82,10.59-15.31-5.56-10,7.8.64-11.52-11.89-5.24,12.09-1.45-.21-8.12,8.48,7.38,12.38-.73-6,6.83M667.26,173.43l3.25-1.36-7.91,3.39,4.66-2m54-17.48L699,166.15l8.37-5.26-20.22,7.73,27.6-11.32,13.37-5.21,5.59-1.34L761.18,143,737.1,150l4.45-.76-20.33,6.67m48.64-8.06-11,8.49.29-4.32-16.55,6.66L761,149.17l5.14-4.08,7.31-1.25,17.68-6-13,5.3,6.55-.75-14.78,5.46m58.62-7.08,2,7-7.93-3.63-10.33,5.56,6.3-7.91-3.82-3.16,7.85-1,5.19-4.33.05,3.78,7.73-.62-7,4.31m60.67-5.21,15,6-15.28-3.3-2.59,4.56-6.89-6.59L867,133.7l7.31-.72-8.23-3,13.37,2.69,7.9-.36,1.85,3.33m35.34,4.81c-19.38-8.39-39.23-12.52-59.27-11.95-21.73,1.16-48.07,4-66.94,7.06-2.89.49-6.74,1.15-9.62,1.67-11.43,2.17-11.88,2.26-18,3.58-23.86,5.61-59.92,14.08-107.56,34.46-45.4,21.56-50.15,23.82-81.3,43.27-46.12,32-47.92,33.27-71.86,54.37-41.7,39.92-42.49,40.68-62,64.23-35.2,46-35.88,46.91-51.33,72.82-28.41,52.15-28.41,52.15-39.66,80.12-20.17,56.48-20.17,56.48-27,86.11-11,58.79-11.2,59.92-13.19,90.81-1.46,61.28-1.49,62.45,1.63,94.19l2.38,20.47c-1.32-9.82,33.62-23.29,107.71-39.23,169.1-36.37,483.57-72.93,733-86.22q-.83-10.18-1.84-20.41c-16.31-165.74-63.9-306.53-126.77-397.44-16.37-23.67-33.78-44-51.94-60.44s-37-29.09-56.39-37.47" transform="translate(-170.92 -124.09)"/><path class="cls-6" d="M980.87,177.88c-18.14-16.45-37-29.09-56.39-37.47,7.42-.4,14.65-.73,21.66-1,35.88-1.33,59.69-.6,70.25,1.71,48.16,12.34,53.19,13.63,86.1,26.15L1134.68,181c-11.55-5.23-52.26-7.22-119.11-4.74-11.22.42-22.82.95-34.7,1.58" transform="translate(-170.92 -124.09)"/><path class="cls-5" d="M1116.31,417.32a791.48,791.48,0,0,0-37.83-98.38c19-1,37.5-1.86,55.42-2.52,118.43-4.4,185.48,0,194.6,10.48,14.81,18.44,34,43.52,47.5,62.93l22.44,37.43c-6.9-12.5-82.82-17.87-219.76-12.78-20.17.75-41,1.7-62.38,2.84" transform="translate(-170.92 -124.09)"/><path class="cls-6" d="M1078.49,318.94c-14-30-29.32-57-45.68-80.63,15.78-.84,31.18-1.54,46.08-2.1,94.79-3.52,150-.26,160.76,7.76l17.3,13.56c43.49,38.28,44.32,39,64.55,61.43l7,7.93c-9.12-10.48-76.18-14.88-194.6-10.48-17.92.67-36.44,1.51-55.42,2.52" transform="translate(-170.92 -124.09)"/><path class="cls-5" d="M1161.42,656.17q-.83-10.18-1.84-20.41c-3.57-36.3-8.64-71.4-15-105,22.81-1.22,45.07-2.23,66.61-3,149.53-5.56,230.92.56,235,14.56l3.71,13.3c13.37,59.81,13.63,61,16.76,92.7l1.66,20.54c-10-18.3-110.34-22.42-306.87-12.62" transform="translate(-170.92 -124.09)"/><path class="cls-6" d="M1144.53,530.71a1015.15,1015.15,0,0,0-28.22-113.4c21.36-1.14,42.21-2.09,62.38-2.84,136.94-5.09,212.86.28,219.76,12.78,6.25,12.53,15,29,20.78,41.79,8.7,21.72,19.72,50.94,26.92,73.2-4.1-14-85.49-20.12-235-14.56-21.54.8-43.79,1.82-66.61,3" transform="translate(-170.92 -124.09)"/><polyline class="cls-6" points="496.33 49.34 499.58 47.98 491.68 51.37 496.33 49.34"/><polyline class="cls-6" points="550.29 31.85 528.06 42.06 536.43 36.8 516.21 44.54 543.81 33.21 557.18 28 562.76 26.66 590.25 18.89 566.17 25.95 570.62 25.18 550.29 31.85"/><polyline class="cls-6" points="598.94 23.79 587.93 32.28 588.22 27.96 571.67 34.62 590.05 25.07 595.18 21 602.49 19.75 620.17 13.78 607.16 19.08 613.71 18.33 598.94 23.79"/><polyline class="cls-6" points="657.56 16.72 659.53 23.75 651.61 20.12 641.27 25.68 647.58 17.77 643.75 14.61 651.6 13.58 656.79 9.25 656.84 13.02 664.57 12.41 657.56 16.72"/><polyline class="cls-6" points="718.23 11.51 733.22 17.53 717.94 14.23 715.35 18.79 708.45 12.2 696.03 9.61 703.34 8.9 695.11 5.85 708.47 8.53 716.38 8.18 718.23 11.51"/><polyline class="cls-6" points="471.13 63.97 447.17 78.87 456.59 71.17 436.11 81.96 464.65 65.78 478.73 57.79 484.38 55.88 513.66 42.99 488 54.87 493.07 53.79 471.13 63.97"/><polyline class="cls-6" points="530.5 52 516.09 65.22 516.77 58.58 496.33 68.59 518.92 53.97 524.54 47.2 534.39 45.16 557.08 33.91 540.86 44.06 550.14 42.84 530.5 52"/><polyline class="cls-6" points="611.07 40.67 608.44 52.41 600.7 46.48 584.28 55.39 596.91 42.42 593.64 36.58 605.42 34.75 617.63 25.17 613.33 33.77 624.93 32.71 611.07 40.67"/><polyline class="cls-6" points="700.5 31.45 710.32 42.04 695.01 36.48 685.05 44.29 685.69 32.77 673.8 27.53 685.88 26.08 685.67 17.96 694.15 25.35 706.54 24.62 700.5 31.45"/><polyline class="cls-6" points="387.44 111.65 363.52 131.09 374.2 120.92 356.17 134.5 382.98 113.73 397.25 103.37 398.19 102.73 401.9 100.5 430.15 82.75 404.48 99.31 408.19 98.11 387.44 111.65"/><polyline class="cls-6" points="444.04 96.78 427.73 114.66 428.82 105.75 406.82 119.03 431.32 99.44 437.76 89.87 448.54 87.06 473.98 70.57 455.88 85.52 466.54 83.86 444.04 96.78"/><polyline class="cls-6" points="539.4 80.98 533.39 97.41 525.62 89.22 504.7 101.54 521.98 83.49 519.13 74.89 534.04 72.19 551.65 57.32 544.09 70.74 558.79 69.18 539.4 80.98"/><polyline class="cls-6" points="654.33 67.11 659.76 82.34 644.09 74.56 627.54 85.76 634.76 69.18 623.11 61.22 639.73 58.91 646.71 45.55 651.01 57.71 667.66 56.5 654.33 67.11"/><polyline class="cls-6" points="773.27 56.9 789.81 71.37 768.07 63.56 758.26 73.6 754.11 58.25 735.03 50.52 751.09 48.83 746.18 36.73 762.13 48.05 778.58 47.44 773.27 56.9"/><polyline class="cls-6" points="359.05 149.89 341.5 171.71 344.72 160.67 324.79 176.37 348.65 152.8 356.85 140.85 365.51 137.69 391.06 116.95 371.61 135.99 380.94 134.13 359.05 149.89"/><polyline class="cls-6" points="454.28 130.69 445.59 151.09 438.71 141.01 415.75 156.17 435.7 133.86 433.8 123.07 449.73 119.64 470.87 100.25 460.63 117.79 476.78 115.75 454.28 130.69"/><polyline class="cls-6" points="583.5 112.53 585.04 131.74 569.77 122.11 548.56 136.25 560.79 115.34 549.84 105.22 569.34 102.11 582.14 84.2 582.66 100.46 602.4 98.72 583.5 112.53"/><polyline class="cls-6" points="726.93 97.74 738.91 116.09 717.06 106.5 700.75 119.48 703.18 99.85 684.47 90.03 704.84 87.52 707.2 70.95 718.77 86.28 739.45 85.14 726.93 97.74"/><polyline class="cls-6" points="272.99 226.72 256.55 252.64 261.57 239.29 246.41 257.35 266.58 229.7 276.1 215.1 281.14 211.71 303.7 186.47 284.96 209.94 291.15 208.1 272.99 226.72"/><polyline class="cls-6" points="354.31 205.35 345.09 229.98 338.66 217.86 316.25 236.01 336.04 209.17 334.93 195.9 350.33 191.76 372.23 167.43 361.21 189.48 377.55 186.99 354.31 205.35"/><polyline class="cls-6" points="491.32 182.65 490.79 206.19 475.27 194.55 451.23 211.89 466.29 186.25 455.43 173.71 477.17 169.7 493.68 146.7 492.06 167.56 514.17 165.25 491.32 182.65"/><polyline class="cls-6" points="656.44 162.72 665.06 185.42 642.48 173.85 620.62 190.13 628.32 165.7 609.41 153.47 633.95 150 642.33 128.3 650.68 148.23 675.39 146.47 656.44 162.72"/><polyline class="cls-6" points="827.33 148.05 844.4 170.29 817.45 158.33 800.89 173.36 799.79 149.99 775.15 137.62 799.15 135.05 797.88 114.5 815.53 133.9 839.65 133.06 827.33 148.05"/><polyline class="cls-6" points="218.91 297.36 203.88 326.14 207.55 318.46 225.59 285.83 230.21 278.21 231.42 277.01 218.91 297.36"/><polyline class="cls-6" points="268.91 276.74 259.24 304.44 255.79 290.57 237.84 310.41 255.18 280.57 256.76 265.25 267.94 261.02 288 233.48 276.17 258.72 289.27 256.18 268.91 276.74"/><polyline class="cls-6" points="394.67 251.39 392.52 278.04 378.27 264.95 354.31 284.55 370.14 255.56 360.6 241.26 381.73 236.63 399.88 210.07 396.45 234.13 418.6 231.38 394.67 251.39"/><polyline class="cls-6" points="565.31 227.4 571.09 253.26 549.06 240.31 524.38 259.04 535.32 231.11 517.19 217.18 543.34 212.95 555.9 187.57 561.33 210.72 588.12 208.41 565.31 227.4"/><polyline class="cls-6" points="754.72 207.87 768.12 233.22 741.01 219.98 719.26 237.56 723.36 210.66 698.87 196.67 726.4 193.23 731.24 169 745.23 191.56 773.07 190.08 754.72 207.87"/><polyline class="cls-6" points="164.35 534.67 166.27 568.54 159.19 551.21 153.29 574.57 155.79 538.65 152.84 519.27 158.91 514.64 165.44 479.98 164.16 512.2 173.53 509.65 164.35 534.67"/><polyline class="cls-6" points="272.98 506.13 279.64 539.53 260.34 523.11 242.72 547.25 248.57 511.23 233.69 492.89 254.12 487.18 264.19 452.54 269.1 484.05 292.25 480.64 272.98 506.13"/><polyline class="cls-6" points="456 475.8 466.21 509.07 439.59 492.51 415.55 516.36 422.56 480.61 399.26 462.4 428.68 456.83 439.19 422.67 449.19 453.88 479.97 450.78 456 475.8"/><polyline class="cls-6" points="676.57 449.17 689.34 482.47 658.97 465.36 632.45 488.5 639.01 453.15 610.85 434.58 644.45 429.71 653.38 396.16 667.48 427.27 701.51 424.98 676.57 449.17"/><polyline class="cls-6" points="904.83 429.58 918.98 463.1 888.54 444.99 863.27 467.03 868.06 432.17 838.58 412.81 871.8 409.14 877.51 376.27 894.34 407.55 927.21 406.55 904.83 429.58"/><polyline class="cls-6" points="200.26 360.97 191.87 391.42 191.33 375.83 179.9 396.99 192.52 364.57 196.45 347.28 202.22 343.14 217.93 312.74 206.9 340.96 214.91 338.7 200.26 360.97"/><polyline class="cls-6" points="298.47 335.16 296.44 364.67 283.54 350.2 262.39 371.79 276.4 339.78 268.6 323.74 287.13 318.66 304.22 288.76 300.48 315.86 320.86 312.81 298.47 335.16"/><polyline class="cls-6" points="463.94 307.74 468.52 336.57 446.97 322.31 421.8 343.3 433.71 312.1 416.36 296.53 442.8 291.59 457.13 262.66 461.08 288.95 488.39 286.15 463.94 307.74"/><polyline class="cls-6" points="663.36 283.67 674.33 312.04 646.98 297.56 621.85 317.6 629.4 287.27 605.18 271.7 635.22 267.41 644.28 239.5 655.76 265.23 686.09 263.13 663.36 283.67"/><polyline class="cls-6" points="869.73 265.95 886.13 294.17 856.29 278.99 834.75 297.8 836.49 268.3 808.42 252.27 837.96 249.06 840.12 222.12 858.07 247.64 887.51 246.69 869.73 265.95"/><path class="cls-6" d="M332.33,567.15l-6.44,32.5,2.59-17.07-.24,1.1,1.67-7.54c4-15,9-35,13.76-49.79l-5.84,19.32,2-1.83-7.5,23.3" transform="translate(-170.92 -124.09)"/><polyline class="cls-6" points="218.98 419.32 217.47 451.06 208 435.2 193.31 457.8 203.17 423.73 198.46 406.05 211.14 401.12 224.65 368.84 220.75 398.44 236.38 395.47 218.98 419.32"/><polyline class="cls-6" points="363.76 390.13 367.96 421.25 347.86 405.94 324.82 428.6 335.52 394.94 319.57 378.07 343.96 372.66 358.01 340.94 361.14 369.73 387.22 366.54 363.76 390.13"/><polyline class="cls-6" points="560.22 362.51 569.6 393.27 542.87 377.81 516.86 399.79 525.7 366.78 502.21 349.97 532.58 345.01 543.97 314.12 553.59 342.41 584.93 339.74 560.22 362.51"/><polyline class="cls-6" points="778.29 340.03 792.07 370.64 762.04 354.6 736.89 375.54 742.18 343.24 714.1 326.06 746.26 322 752.97 291.98 768.23 320.05 800.65 318.37 778.29 340.03"/></g></g></g><circle class="cls-9" cx="717.42" cy="583.94" r="582.79"/><path d="M1281.77,952.59h0l-.17-27V852.78h-82.93V722.33H1212l-49.37-92.53a76.38,76.38,0,0,0,14.11-18.19l.84-1.65a100.1,100.1,0,0,0,9.47-44.14,84.68,84.68,0,0,0-13.75-49.41,72.67,72.67,0,0,0-39.57-28.16,187,187,0,0,0-52.86-6.37H530.83l3.42,15.18c-18.6-12.55-42.84-19.11-72.28-19.2-43.94.05-76.93,14.06-97.6,40.58a66.55,66.55,0,0,0-6.34-7.9c-13.21-14-32.5-22.93-58.24-26.51a397.52,397.52,0,0,0-49.92-2.15h-79V722.33h81.34l4.85-.07,22.23-7.94V666.83a185.1,185.1,0,0,0,31-4.18,80,80,0,0,0,34-14.76c5,18.57,13.79,34.21,26.2,46.76,21,20.92,49.4,31.51,84.53,31.51,38.88,0,69.58-11.4,91.25-33.89a106.27,106.27,0,0,0,23.35-38.41L582.71,712H562.46V925.59l.07,4.84,7.94,22.23h70.36l4.73,0a387.85,387.85,0,0,0,49.51-3.15,87.2,87.2,0,0,0,20.14-4.38l-2.55,7.32h111.7l12.24-35.82H851l10.28,35.82h393.48l26.95.12h.06ZM453.25,629.42a29.41,29.41,0,0,1-2.64-8.18,112.68,112.68,0,0,1-1.77-21.52c0-16.86,2.83-22.35,2.83-22.57a7.81,7.81,0,0,1,6.37-2.58l2.3.11a17.73,17.73,0,0,1,4.74.51c.66,1.69,2.1,6.47,2.77,17l.3,12.68a98.93,98.93,0,0,1-2,21.82,9.87,9.87,0,0,1-.83,2.39,17.86,17.86,0,0,1-7.12.79,21.18,21.18,0,0,1-4.14-.14A4.67,4.67,0,0,1,453.25,629.42ZM820,712H809.71L820,666.59ZM752.81,820l.68,4.46q-.95-1.15-1.95-2.25Q752.2,821.13,752.81,820Zm-31.88-97.68h16.89l1.77,11.55A74,74,0,0,0,720.93,722.33Zm-22.76-6.82c-.82-.15-1.64-.31-2.48-.45l-2.17-.26,2.31-10.46ZM754.1,825.24l1.28-10.46a69.83,69.83,0,0,0,5.9-31.55,79.24,79.24,0,0,0-.77-10.37l6.18-50.52h26L756,827.8Q755.1,826.49,754.1,825.24ZM901.5,722.33h30.86v91.81Zm189,130.45h-50.34V722.33h49V720.2l1,2.13h.38Z" transform="translate(-170.92 -124.09)"/><circle class="cls-10" cx="1255.27" cy="591.99" r="200.6"/><path d="M1426.19,924.68c-115,0-208.6-93.58-208.6-208.6s93.58-208.6,208.6-208.6,208.6,93.58,208.6,208.6S1541.21,924.68,1426.19,924.68Zm0-401.2c-106.2,0-192.6,86.4-192.6,192.6s86.4,192.6,192.6,192.6,192.6-86.4,192.6-192.6S1532.39,523.48,1426.19,523.48Z" transform="translate(-170.92 -124.09)"/><polygon class="cls-6" points="1296.73 411.4 1330.29 479.52 1405.56 490.43 1351.12 543.44 1364.1 618.27 1296.73 582.89 1229.61 618.27 1242.35 543.44 1187.96 490.43 1263.17 479.52 1296.73 411.4"/><path class="cls-6" d="M252.27,695.44H197.82V508.77h52.06a382.63,382.63,0,0,1,47.11,2c18.82,2.63,32.56,8.72,41.46,18.19s13.36,23.84,13.36,43.09a74.33,74.33,0,0,1-11.35,41.84,53.63,53.63,0,0,1-34.81,22.27,166,166,0,0,1-38.45,4H252.45v55.2h0Zm0-96h10.29a62.73,62.73,0,0,0,22-2.82c7.28-3,11.1-10.1,11.1-20.64a18.13,18.13,0,0,0-14.3-19.76,78.91,78.91,0,0,0-18-1.63h-11.1v44.91h0Z" transform="translate(-170.92 -124.09)"/><path class="cls-6" d="M551.53,597.15c0,33.75-8.28,59.46-24.65,76.46S486.36,699.27,455,699.27q-41.84,0-65.55-23.65c-15.56-15.74-23.46-39-23.46-69.75q0-101,96-101.12C522.05,504.94,551.53,535.68,551.53,597.15Zm-56.45,7.09c0-21-2.45-35.82-7.46-43.91s-14.18-12.55-27.29-12.55A34.44,34.44,0,0,0,431,559.89c-6.27,8.09-9.1,21.45-9.1,39.83a138.62,138.62,0,0,0,2.2,26.28,56.08,56.08,0,0,0,5.77,16.81,23.21,23.21,0,0,0,8.47,9.1,32.12,32.12,0,0,0,9.72,4,55.07,55.07,0,0,0,10.73.82,44.41,44.41,0,0,0,14.55-2,28.6,28.6,0,0,0,11.35-7.09,33,33,0,0,0,7.9-16.18A123.82,123.82,0,0,0,495,604.24h.06Z" transform="translate(-170.92 -124.09)"/><path class="cls-6" d="M670.28,695.44H606.54L564.46,508.77h59.46c9.28,52.19,15.74,92.84,19.82,121.56q5.71-37.32,22.83-121.56H728q18.19,91,22.83,121.31,5.21-42.53,19.88-121.31H828L785.88,695.44H721.46c-13.55-64.73-22-106.64-25.09-126C693.36,590.5,684.2,632.53,670.28,695.44Z" transform="translate(-170.92 -124.09)"/><path class="cls-6" d="M986.54,695.44H846.85V508.77H979.33v46.29H901.23v21.45h67.12v46.1H901.23v26.72h85.37v46.1h-.06Z" transform="translate(-170.92 -124.09)"/><path class="cls-6" d="M1107.35,695.44l-30.11-65.55h-15v65.55h-54.2V508.77h72.83a162,162,0,0,1,45.92,5.46,45.1,45.1,0,0,1,24.46,17.56,57.46,57.46,0,0,1,8.91,33.75,72.7,72.7,0,0,1-6.9,33,49.43,49.43,0,0,1-25.91,22.27l39.83,74.64Zm-45.1-106.64h8.28a66.68,66.68,0,0,0,26.47-3.26,15.93,15.93,0,0,0,7.46-15.37,17.38,17.38,0,0,0-7.09-16,47.17,47.17,0,0,0-20.2-3h-15v37.64h.06Z" transform="translate(-170.92 -124.09)"/><path class="cls-11" d="M589.36,925.59V738.91h50.18a359.17,359.17,0,0,1,52.75,2.82c27.91,4.64,42.09,18.82,42.09,42.28a42.65,42.65,0,0,1-8.09,27.73,50.18,50.18,0,0,1-27.1,15q42.47,3.64,42.47,43.91a48.49,48.49,0,0,1-12.92,35.57,60.59,60.59,0,0,1-36.19,16.56,367,367,0,0,1-51.37,3H589.42ZM643.18,810.3h10.29a66.49,66.49,0,0,0,17.19-1.63,12.55,12.55,0,0,0,8.91-13.74,11,11,0,0,0-6.65-11.35,57.71,57.71,0,0,0-18-2H643.18V810.3Zm0,39.83v32.24h12.55a79.16,79.16,0,0,0,18.82-1.63,13.61,13.61,0,0,0,10.29-14.87q0-13.67-15.74-15.18a133.67,133.67,0,0,0-15-.63H642.74Z" transform="translate(-170.92 -124.09)"/><path class="cls-11" d="M805.14,925.59H750.5l64.92-186.67h63.29l62.73,186.67h-59.9l-10.29-35.82H817.37Zm27.91-80.1h28.1c-2-8.28-4-16.37-6.27-24.09s-3.64-13.55-4.64-17.19-1.82-7.28-2.45-10.73C845,804.84,840,822,833.05,845.49Z" transform="translate(-170.92 -124.09)"/><path class="cls-11" d="M1096.56,925.59H959.26V738.91h54V879.67h82.92v45.92h.38Z" transform="translate(-170.92 -124.09)"/><path class="cls-11" d="M1254.76,925.59H1117.39V738.91h54.38V879.67h82.92v45.92h.06Z" transform="translate(-170.92 -124.09)"/></svg>