<svg xmlns="http://www.w3.org/2000/svg" xmlns:xlink="http://www.w3.org/1999/xlink" viewBox="0 0 1198.46 1200.83"><defs><style>.cls-1{fill:none;}.cls-2{isolation:isolate;}.cls-3{fill:url(#radial-gradient);}.cls-4{mix-blend-mode:multiply;}.cls-5{clip-path:url(#clip-path);}.cls-6{fill:#006837;}.cls-7{fill:#13bf30;}.cls-8{clip-path:url(#clip-path-2);}.cls-9{fill:#176b22;}</style><radialGradient id="radial-gradient" cx="1035.2" cy="98.33" r="780.85" gradientTransform="matrix(1, 0, 0, -1, -283.82, 469.04)" gradientUnits="userSpaceOnUse"><stop offset="0" stop-color="#fff"/><stop offset="0.03" stop-color="#fff"/><stop offset="0.42" stop-color="#f2f2f2"/><stop offset="0.65" stop-color="#e8e8e8"/><stop offset="0.76" stop-color="#e1e1e1"/><stop offset="0.91" stop-color="#cecece"/><stop offset="1" stop-color="silver"/></radialGradient><clipPath id="clip-path" transform="translate(-283.88 -95.07)"><path class="cls-1" d="M279.29,730.1c-1.15-14.91-1.18-34.9-.81-49.85.36-14.73,1.11-34.43,3.22-49,2.05-14.21,3.77-33.35,7-47.34s6.88-32.43,10.62-46.13,9.07-32.16,14.35-45.44,11.53-31.31,17.9-44.08c12.37-24.8,29.3-57.77,44.48-80.95a604.14,604.14,0,0,1,90.47-108.2c11.29-10.68,26.68-24.65,39.13-33.94,21.17-15.81,50.12-36,72.76-49.6,15.11-9.08,36.16-19.65,52.22-26.9,10.56-4.76,24.86-10.61,35.65-14.84,6.27-2.46,14.79-5.34,21.18-7.47,9.61-3.21,22.6-7,32.38-9.65,9.48-2.57,22.22-5.65,31.82-7.77a585.47,585.47,0,0,1,61.81-10.36c3.53-.38,10.11-1.08,17.09-1.63,8.95-.7,12.5-.9,19.7-1.27,2.06-.11,9.6-.42,15.21-.54,7.78-.16,10.86-.16,17.6-.15,3.89,0,11.67.16,15.07.28,5.86.2,13.68.58,19.54.92,4.4.26,10.26.73,14.65,1.11s10.07,1,14.39,1.44c237,26.63,427,246.47,443.56,535.52,18.86,329.44-194.7,624-477,658h0c282.32-34,495.88-328.54,477-658-16.55-289-206.54-508.89-443.56-535.52,8.92,1,20.79,2.68,29.66,4.1,7.54,1.2,17.53,3.15,25,4.63,13,2.57,30.16,7.08,43,10.57,11.38,3.1,26.34,8,37.42,12,12.86,4.69,29.82,11.47,42.33,17a600.89,600.89,0,0,1,80,43.36c22.89,14.73,51.4,37.38,72.37,54.74,10.92,9,24.31,22.44,34.19,32.61,9.6,9.88,21.87,23.56,30.67,34.15,9,10.86,20.5,25.82,28.67,37.34,8,11.34,17.71,27.16,25.27,38.82,7.72,11.91,16.34,28.83,22.63,41.55s13.39,30,19.12,42.85a345.45,345.45,0,0,1,16,45.21c3.8,14,9.27,32.63,12.42,46.82s6.34,33.36,8.61,47.73a522.49,522.49,0,0,1,5.73,74.83c-.1,29.08-2.11,68-6.34,96.72a595.83,595.83,0,0,1-21.61,93.59c-8.64,26.57-22.54,61.3-35,86.29a603.32,603.32,0,0,1-107.69,151.4c-10.17,10.42-24.31,23.76-35.25,33.37-10.18,8.93-24.37,20.11-35.09,28.39-12.29,9.5-29.61,20.92-42.74,29.22-11,6.94-26.23,15.18-37.56,21.54-16.53,9.26-39.71,19.55-57.38,26.41-12.32,4.79-28.9,10.83-41.53,14.76-4.32,1.35-10.1,3.11-14.47,4.29-8.69,2.34-20.32,5.31-29.07,7.44-4.25,1-9.94,2.28-14.23,3.13-8.06,1.6-18.83,3.7-26.94,5.06s-21,3.29-36.37,4.81c-10.34,1-18.06,1.53-20.9,1.71-7.76.47-13.12.78-24.91,1.09-6.11.16-22.45.43-42.24-.49-3.23-.15-7.54-.38-10.77-.6-4.16-.28-9.7-.73-13.86-1.06-4.33-.34-10.08-.92-14.39-1.44-14.41-1.74-33.52-4.87-47.82-7.36-8.12-1.42-18.85-3.83-26.84-5.87-12.14-3.1-28.32-7.34-40.22-11.27a786.78,786.78,0,0,1-76.5-30.34c-13.48-6.28-31.22-15.27-43.78-23.22-11.9-7.53-28-17.22-39.57-25.24-11.22-7.77-26.1-18.35-36.37-27.33-10.58-9.25-25-21.26-35.2-30.93-10-9.47-22.81-22.62-32-32.83a605.58,605.58,0,0,1-56.87-73.6c-7.88-11.74-17.47-28-24.27-40.39S337.39,955,331.14,942.47a368.8,368.8,0,0,1-17.84-44.24c-9-27.25-19.18-64.21-24.87-92.33C283.88,783.45,281.05,752.94,279.29,730.1Z"/></clipPath><clipPath id="clip-path-2" transform="translate(-283.88 -95.07)"><path class="cls-1" d="M811.47,1292.69c-15.88-2-37-5.18-52.66-8.33-14.77-3-34.22-8.07-48.75-12.05-23.78-6.51-54.34-19-77.08-28.48a422.3,422.3,0,0,1-52.37-26.71c-12.68-7.79-29.7-18-42-26.43-11.27-7.7-26.11-18.31-36.47-27.2-10.89-9.34-25.59-21.62-36-31.47-10-9.44-22.85-22.57-32.1-32.76-9.54-10.5-21.7-25-30.39-36.23-8.5-11-19.27-26-26.87-37.6-7.77-11.88-17.58-28.09-24.42-40.53-6.76-12.28-15.14-29-20.9-41.8-5.89-13.07-13.08-30.81-17.92-44.3s-10.25-31.68-14.26-45.37c-4.1-14-8.15-33.14-10.82-47.52s-5.19-33.79-6.94-48.33a537.63,537.63,0,0,1-3-76.74c.57-14.54,1.59-33.93,3.1-48.4s4.34-33.64,7-47.93c2.6-14,6.85-32.44,10.57-46.15S309,506.57,313.4,493a350.83,350.83,0,0,1,17.74-43.88c6.2-12.44,14-29.27,20.67-41.45,6.79-12.39,16-28.87,24.22-40.39,8-11.23,18.16-26.51,26.56-37.42,8.66-11.23,20.76-25.79,30.26-36.33,9.12-10.11,21.76-23.17,31.63-32.55,10.46-9.94,24.74-22.89,36.09-31.8,20.79-16.31,50-36.11,72.24-50.4,11.47-7.37,27.83-15.41,39.93-21.69,15.54-8.07,37.16-17.05,53.51-23.32,4.68-1.79,11-4.1,15.73-5.65,9.65-3.13,22.57-7.12,32.31-10,9.51-2.78,22.37-5.88,32-8.1,9-2.06,21-4.49,30.09-6.15,7.92-1.45,18.52-3.11,26.51-4.15,12.22-1.59,23.8-2.56,27.61-2.88,3.29-.28,15.15-1.21,29.63-1.67,7.59-.24,13.06-.28,16.68-.3,5.21,0,10.38,0,13.47.09,12.45.19,24.08.9,27.35,1.11,4.42.29,14.77,1,29,2.55a439.77,439.77,0,0,0-101.77.49A439.77,439.77,0,0,1,946.7,98.7h0c7,2.47,17.1,2.28,24.43,3.26,15.18,2,35.18,6.38,50.08,9.91,13,3.09,30.3,7.69,42.92,12.15,16.44,5.82,38.59,13.13,54.37,20.57,12,5.65,28.13,12.88,39.83,19.11,13.34,7.1,31,17,43.57,25.29,11.36,7.51,26.43,17.64,37.31,25.82,11.53,8.68,26.47,20.82,37.3,30.34,20.64,18.15,45.55,45.19,63.93,65.64,9.54,10.62,20.78,26.05,29,37.69,8.05,11.32,17.73,27.15,25.33,38.78,7.8,11.94,16.47,28.95,22.8,41.73s14.13,30.23,19.44,43.5,11.63,31.05,15.82,44.62c4.29,13.9,9.31,32.65,12.48,46.84s6.09,33.39,8.65,47.72a348.71,348.71,0,0,1,4.88,49.62c.52,29.3,0,68.45-2.27,97.67-1.72,21.71-6.67,50.48-11.94,71.61-3.42,13.72-8.12,32-12.37,45.47s-11,31.3-16,44.59a376.26,376.26,0,0,1-19.43,43.05c-6.67,12.15-15.09,28.62-22.22,40.5-7.28,12.11-17.38,28.05-25.79,39.41-16.31,22-40.13,49.87-58.48,70.25-9.42,10.46-23.34,23.12-33.93,32.39-10.19,8.92-24.13,20.43-34.93,28.59-11.19,8.46-26.79,18.8-38.34,26.76-12.76,8.8-30.88,18.87-44.64,26a691.22,691.22,0,0,1-65.51,29.58c-11.71,4.45-27.57,9.74-39.54,13.46-8.64,2.69-20.32,5.7-29.1,7.88-4.31,1.07-10.06,2.44-14.4,3.36-8.26,1.75-19.3,4-27.6,5.52-3.84.71-9,1.57-12.83,2.15-5.49.83-12.82,1.86-18.33,2.55-.16,0-16.18,2-33.57,3.09-5.63.35-18.8,1.17-36.3,1.24-7.51,0-13.41-.09-13.47-.09-10.5-.22-15.8-.48-17.18-.55-3.05-.16-7.13-.36-10.18-.56-4.15-.28-9.68-.71-13.82-1C822.12,1293.84,816,1293.25,811.47,1292.69Z"/></clipPath></defs><title>superenalotto_Logo</title><g class="cls-2"><g id="Layer_1" data-name="Layer 1"><g id="Layer_1-2" data-name="Layer 1"><circle class="cls-3" cx="599.23" cy="599.23" r="599.23"/><g class="cls-4"><g class="cls-2"><g class="cls-2"><g class="cls-5"><path class="cls-6" d="M778.38,1288l-7.83-1.41,16,2.71-8.15-1.3m7.78,1.2c17.23,2.55,17.9,2.65,28.73,3.83l-3.42-.37c-15.53-2.1-36.17-5.34-51.59-8.11l26.27,4.66" transform="translate(-283.88 -95.07)"/><path class="cls-6" d="M852.94,1295.9c-3.73-.19-8.7-.43-12.43-.66l-4.7-.32.88.06c7.75.53,13.11.79,16.24.91" transform="translate(-283.88 -95.07)"/><polyline class="cls-7" points="494.5 1192.96 486.67 1191.56 502.65 1194.27 494.5 1192.96"/></g></g><g class="cls-2"><g class="cls-8"><path class="cls-9" d="M818.12,357.09l.12-.26c-1.79-.8-1.79-.8-8.07,0-29.8,4.22-38.44,16.51-40.43,26.07l-.2,0c.66,1.77,1.1,2.94,3.18,1.89,7-3.56,11.9-10,18.63-14,7-4.14,14.91-6.25,22.07-10,3.87-2.05,3.94-2.09,4.7-3.62M901.05,282c-.36-5.34-7.33-13.6-20-11.07l0-.24-.26.06c-8.34,2-8.34,2-13.57,4.2l-6.31,3.3c-19.62,10.34-52.73,39.26-45,41.18a3.5,3.5,0,0,0,2.42-.35,26,26,0,0,0,4.18-1.49c9.52-4.27,18.3-9.92,27.58-14.64,6.43-3.27,14.67-5.24,24.49-5.85,8.18-.51,27.06-6.27,26.47-15.11m56-39.78c0-.05,0-.12,0-.17-1.25-.53-1.25-.53-8-.48l-1.89.18-1.33.32c-5.84,1.79-8.09,4.17-8.11,4.19-5.48,6.35-7,8.52-4.08,9.93,2.34,1.12,8.49-2,8.55-2,3.71-1.9,6.51-5,9.86-7.39,5-3.51,5-3.51,5-4.57m183.41,65.55c2.79,4.66,16.27,28.78,7.46,46.54-1.23,2.79-1.27,2.9.71,6.67,4.85,9.22,18.32,41-12.25,62.35-27.46,19.21-53.52,6.47-78.72-5.86l-10.09-5c7.14,12,21,13.46,31.5,20.27,19.74,12.9,60.82,39.73,73.73,92.13-10,11.48-25,8.12-37.43,12.48-6.95,2.41-12.79,7.72-20.61,7.82h-.06c-.35-2.47-.35-2.47.82-5.89,8.76-27.6,8.13-67.84-44.66-102.85l-2,.56.05.4,0,0c14.17,52.85,14.17,52.85-2.85,67.74-7.12,6-8.9,7-17.45,11.72l-8.54,4.75c-59.63,26.7-116.83,15.54-126.07,3.51-45.61,15.34-132.29,22.77-92.76-55,10.28-20.24,10.28-20.24,82.63-78.67l-2.09-.77a67.66,67.66,0,0,0-7.4,4.8l-4.07,2.47-5.59,3.24L858.68,405c-16.43,10.07-17.07,10.5-33.33,21.76C799,444.87,788.39,457.56,779,470c-8.69,11.57-8.69,11.57-11.54,11.71-26.56,1.28-11-36.42-24.1-51l0,0c.06-11.63.24-18.49.8-29.34v-.06l34.51-43.91c5-8.3,3.39-18.58,8.12-26.95,11.88-21,26.07-31.06,54.36-51,8.9-5.73,8.9-5.73,11-6.87l5.52-3,6.07-3c35.78-16.5,46.14.23,51.7,9.22l.91,1.48.15.52c4.12,8,8.78,17,10.7,19.44l.41-1.09c-12.52-43.9-16.29-57.15,17-60.5,23.47-3.76,23.47-3.76,42.71-2.17,1.1.09,1.1.09,25.87,8.56,9,3.08,18.09-1.21,27.1.35,6.29,1.09,8.74,1.68,9.92,2,22.51,5.46,36.35,14.52,41.14,26.91a8.84,8.84,0,0,1-4.27,3.18c-16,5.91-16.34,6-33.92,15.14-14.55,7.62-15.77,8.36-22.49,12.47-5.58,3.35-11.37,6.34-16.76,10l-4.9,3.14c-16.9,11-16.9,11-20.3,13.74l1.51.45c2.31-1.16,5.66-2.37,7.58-4.09l0,0,5.88-3,9.33-4.9c8.44-4.21,8.44-4.21,13.7-7.18L1041,302l.67-.48,7.67-3.81,8-4.16,1.7-.86c29-10.89,59-22.16,81.51,15.08m10.12-1.33c-6.84-10.87-18.07-21.21-30-27.66-25.27-12.49-44-35.86-72.26-43.37-4.16-1-10.94-2.27-15.3-2.78-2.85-.18-5.7-.2-8.55-.43-13.62-.69-13.62-.69-24.33-4.47a94.53,94.53,0,0,0-15.41-3.26c-2.52-.19-5.05-.32-7.57-.56-5.34-.5-15-.75-15.08-.75L941,226.56c-1.11.12-2.6.3-3.71.49a24.41,24.41,0,0,0-8.24,3.22c-4.15,1.46-6.24,2.19-13.8,8.67-4.69,5.26-5.71,6.91-8.35,13.63-10.08-2.15-15.13-3.23-24.36-2-9.06,1.58-12.11,2.7-22.25,6.42l-7.47,3.8-5.66,3c-2.92,1.58-2.92,1.58-11.85,7.29l-.59.39c-25.81,17.91-32.75,22.72-44.07,35.26-5.75,6.76-12.27,14.43-17.06,24.29-1.15,2.77-2.12,5.62-3.34,8.36-6.09,15.85-19.27,26.6-28.79,40a62,62,0,0,0-4.62,8.05c-2.85,6.64-2.85,6.64-6,9.08l-.46,6.12c-1.09,15.68-1.24,24.18-1.42,34.93l2.09,1.71c1.18,7.67,2.67,15.28,3.95,22.93,5.16,21.68,22.72,39.43,42.11,30.31-2,7.68-4.76,18.2,1.29,29.21a46.93,46.93,0,0,0,7.23,9.84l.53.46c5.86,4.87,13.87,11.54,44.34,17,22.1,2.88,42,.83,59.09-6.08,9.23,1.36,17.73,5.5,26.91,7,6.6.8,7,.83,18.45,1.52,5.67.32,12.72.73,18.08.63,16.91-.8,37.86-5.21,38.05-5.26s25.79-8.16,37.33-13.08l9.21-5.14c5.85-3.22,5.85-3.22,7.63-4.28a99.13,99.13,0,0,0,12.36-9.29c9.05-8,18.41-16.22,18.69-34.71l1.08,3a106.45,106.45,0,0,1,4.83,15.19l.1.33a54.42,54.42,0,0,1,1.1,25,103.14,103.14,0,0,1-3.18,10.83c-4,11.59-2.15,14.4,5.59,23.34l6.12,1.1c4.07.47,8.28,1,14.74-2.84l.09,0c8.2-3.29,9.73-3.87,15-5.69,19-6.66,19-6.66,33.39-9.81,11.05-3.74,15.15-10.6,12.17-20.39a98.92,98.92,0,0,0-3.75-9.75c-11.77-24.77-14.4-29.06-16.33-32.2-13.75-20.87-22.55-28.42-28.37-33.41a13.64,13.64,0,0,1,5.41-1.71c33-7.11,58.45-36.11,36.5-83a40.11,40.11,0,0,0,1.91-4.72c1-4.14,2.72-11.86-2.17-28a106.71,106.71,0,0,0-9.86-21.11" transform="translate(-283.88 -95.07)"/><path class="cls-9" d="M1033.39,660.73a1.51,1.51,0,0,0-.14-.56l-2.39-15.61c-2.26-10.73-3.62-17.21-12.59-15.73-5.64,1.15-6.76,5.56-6.77,5.6-.24,1-.24,1,.52,9.16.54,5.81.67,8.54.67,8.57l-.28.1,1.6,10.89c-.14,1.74-.14,1.74,17.47-.83a1.68,1.68,0,0,0,1.92-1.58M869.57,759.8c-1.34-30.93-6.72-61.41-10.07-92.12-1.6-12.81-2.27-18.11-11.07-17-10.76,1.76-10.76,1.76.26,102.35,2.46,18.48,3.92,22.34,13.79,21.14,5-.33,7.58-3.9,7.21-7.15,0-1.85,0-4.39-.13-7.18M583.18,696.67c-1.26-.95-1.39-1-1.92-1.41.6,0,1.07-.09,1.9-.19l.08,1.65-.06,0m115.4,122.62-.83-13.87c-7.81,9.86-14.56,18.37-36.1,20.35-43.58,2.89-46.9-28.29-48.89-46.92-5.62-58.1-7-71.9-8.65-133.3l.2-.3c18.15-1.37,42.35-3.21,60.49-4.68,1.45,29.76,5.3,108.8,12.09,145.3,1.27,6.81,11.68,6.46,15.51,3.14,1.72-1.49,2.5-2.17.91-20-5.78-59.16-7-71.47-9.9-129.95,19-1.71,44.43-4,63.46-5.79,5.07,70,7.34,98.31,17.34,180-19.69,1.85-45.94,4.32-65.63,6.06M1215.31,627c-33.66,5.17-31.5,19.5-27.22,48,3.17,23.49,7.19,54.85,9.56,78.43-18.84,3.43-44,8-62.85,11.25-7.69-71.42-10.9-97.83-27.23-178.07,18.11-3.15,42.25-7.35,60.33-10.66l2.73,20.93c7.41-18.37,14.24-25.29,30.46-30.85l.16,0c4.4,18.26,10.37,42.58,14.22,61l-.15,0m-107.78,89.06c1.3,37.57-21.7,60.18-68.36,67.21-27.07,3.47-62.34,2-76.58-25-3.66-6.93-28.87-102.36-6.81-132.85,19.48-26.93,72.77-33.23,100.89-25.73,35.37,9.43,40.4,41.19,44.07,64.38.76,4.83,1.37,9.68,2.08,14.52l.4,2.67c-25.29,4-59,9.22-84.36,13C1025,744,1025,744,1026,746c4.57,9.33,15.86,4.19,18.42.45,3.52-5.14,1.59-19.75-1.61-43.94l0-.15c18.53-2.86,43.24-6.67,61.74-9.67a134.8,134.8,0,0,1,3,23.42M937,755.17c2,59.14-59.85,51.74-80.82,36l-3.24-2.4,4.7,40.07c-19.87,2.15-46.37,5-66.26,7.07-8.63-68.57-14.76-119.88-21.06-205,19.72-2.05,46-4.8,65.74-7l.46,14.91c18-20.59,39.18-27.74,62.89-21.26,21.84,6,23.6,19.3,27.09,45.85,10.22,83.82,10.29,85.82,10.49,91.74M595.76,782.93c3,65.14-87.48,58.16-111,37.78-21.38-18.54-20.72-63.15-20.69-65,.35-.29.88-.74,1.33-.71,14.3-.66,33.36-1.54,47.66-2.29l1.36.28c4.84,46.2,4.84,46.2,14.73,46.05,3.86-.48,6-1.87,8-5.14,10.72-28.43-9-41-34-57-28.95-18.52-35.82-22.92-42-42.32-1.19-3.71-7.66-44.46,7.52-65.5,21.25-29.46,93.24-29.71,108.5-.38,5.69,10.94,5.66,42.38,5.2,44.15a7.66,7.66,0,0,1-1.85.56c-15.94,1-37.19,2.38-53.13,3.3-.38-27.59-.63-28.14-1.24-29.46-2-4.4-8.89-4.94-12.86-1-5.68,5.6-5.62,22.31-1.44,30.69,1.32,2.65,2.57,5.15,25.55,17.61,42.31,22.93,55.81,32.84,58.37,88.45m622.7-134.24,22.53-3.78c-12.62-60.11-13.65-65-25.4-105.21l-21.76,6.2c-34.33,10.75-34.33,10.75-114.24,23.82l3.68,17.4c-46-23-117.83-10.24-147.71,26.24a58.63,58.63,0,0,0-8.65-7.37c-17.37-10.24-17.37-10.24-173.57,5.12v.06c-19.72,1.85-46,4.31-65.76,6.06v-.06c-56,4.64-56,4.64-83.32,6.59l-4.54.5C589,598,565.42,590.42,552.34,588.22A131.79,131.79,0,0,0,519.6,586c-97.92,7.88-91.66,109.1-58.58,146.36l-4,1.79c-25.73,18.26-2.26,90.15,23,107A99.93,99.93,0,0,0,496,849.72c37.75,14.45,70.44,3.89,82.74-1.33,17.1-8.22,20.8-12.19,26.92-18.78,50,15.59,50,15.59,160.42,5.17l1.8,12.88c57-5.74,61.71-6.21,98.33-10.33l1.41,11.81,10.88-1.24,6.91-.8-2.63-22.92c19.35.89,54.71-2.45,74.09-34.85,35.66,25.75,112.28,24.36,153.93-16l1.45,17.2c52-8.77,64.31-10.86,109.82-19.64-5.63-64.26-5.74-65.49-11.24-100.24-1-6.68-1-6.68-2.37-18.74,1.49-.56,3.47-1.31,5-1.84a47.84,47.84,0,0,1,5-1.41" transform="translate(-283.88 -95.07)"/><path class="cls-9" d="M726.66,1029.53c-.44-2-.44-2-8.73-31.94a9.93,9.93,0,0,1-.76-1.91l-.61-.24-.27.26c-9.93,9.64-12,11.65-11.36,17.18,1.56,13.6,5.73,29.74,16.72,29.38.82,0,.82,0,3-.7,4.43-1.07,4-3,2-12m558.13-77.63c2.41-8.82,6.53-29.54,12.41-78.11,1.43-16.78.63-19.88-4.8-18.4h0a5.26,5.26,0,0,0-2.11.41c-4.89,2.46-4.89,2.46-11.28,57.82h-.2l-6.69,38.58c-2,11-2.1,14.49,3.73,13,5.55-.83,7-6.06,9-13.29m-321.2,56.2c0-1.74-.86-16.76-5.43-78.48-1.23-11.77-1.9-18.25-10.68-17.08-7.62,1.34-7.7,6.6-7.8,12.17-.44,27.14,4.21,53.89,6.28,80.84,2.44,22.44,15.69,10.1,15.82,9.95.82-1,1.66-2,1.8-7.4m-466.2,15.8-1.71-3.44,11.39-.27,1.67,3.44-11.35.27M792,1057.82l0,.62v.09c-16.07,1.41-37.49,3.28-53.56,4.61l-3.58-11.31c-10.67,13.42-10.67,13.42-19.42,15.39-12.63,2.85-27.75-.17-34.44-3.23-22.59-10.32-28.88-49.59-28.93-50-1.72-13.58-1.72-13.58,50.72-38.15,7.43-3.48,8.08-6.51,4.3-20.24-2.79-10.14-4.8-17.46-14.36-16.33-7.94.63-7,4.8-4.66,15.91l5.16,20.53c-15.91,1.18-37.13,2.77-53,3.87-7.81-24.49-12.08-44.27,9.35-57.41,25.44-15.6,71.53-15.58,92.72-5.16,14.67,7.21,19,15.32,21.57,23,2.93,10.14,28,117.2,28.15,117.78m539.67-133.29c-5.32,19.51-15.23,55.82-62.83,67.57-51.66,11.41-47.82-17.89-44.42-43.75,9.66-84.12,9.66-84.12,24.19-98.87,26-26.38,73.6-34.45,87.84-14.88,6.63,9.11,6.13,18.82,5.44,32.26-2.81,17.33-6.4,40.48-10,57.66,0,0-.15,0-.21,0M608.43,1071.81c-22.13-47.53-27.38-58.83-43-104.71-5.05-14.85-6.41-18.84-12-18.51-9.72-.86-9.31,3.53,3.62,39.11,20.76,51.54,22,54.63,37.43,84.73-12.85.54-30,1.26-42.85,1.7-28.73-53.29-39.49-73.23-64.54-148.8,15-.59,35-1.39,50-2.09l3.41,14.24c4.2-7.33,15.37-26.8,46.06-16.87,20.49,6.62,24.28,18.46,31.82,42,15.64,49.46,18.89,59.75,38.14,106.39-14.44.85-33.69,2-48.13,2.75m415.62-86.19c-1.08,16.23-3.33,50-67.86,58.15-65.79,7.25-69.61-20.22-73.65-49.31-8.3-64.43-9.8-76,9.31-91.58,27.28-22.19,89.29-27.11,114.41-9.07,15.28,11,15.59,16.63,18,60.64l0,.13-.36,0c.49,25.6.49,25.6.13,31m148.7,23.46c-21,3.66-31.13.52-33.86-10.52,0,0-1-4.17-.09-12.25a864.65,864.65,0,0,0,4.93-94.42l0-2.82c-13.73,2.29-13.73,2.29-13.45.11-.24-25-.24-25,2.2-25l11.07-1.85c-.68-26.59-.68-26.59,1.45-27.23,18-3.18,42.08-7.41,60.08-10.75l.19,26.68c13.92-2.66,13.92-2.66,15.27-2.14a6.91,6.91,0,0,1,.36,1.71c-.67,24.42-.67,24.42-3.11,24.85L1204.56,878c-1.9,32-6.55,63.75-8.35,95.75-.37,6.5-.37,6.5,2.58,6.81,4.13-.57,8.28-1,12.42-1.51l.13,0-4.67,23.67c-10.17,1.9-23.71,4.55-33.91,6.32m-50.78,7.26c-1,2.49-48.36,8-53.33,7.82-.15,0-14.93-.67-19.57-10.54-1-2-1.93-4.11-1.75-26.22,0-25-.41-58.44-1.06-83.47l-14.06,2-1.36-26.41,13.79-2-1.58-26.62c64.57-9.7,64.57-9.7,65.39-9.45a6,6,0,0,1,.68,1.88l.89,24.42,16.83-2.73.29,26.56-16.78,2.71c-.3,31.26-2.92,62.44-2.74,93.71,0,7.47,0,7.61,3.34,7.9,4-.42,8.06-.77,12.08-1.23l1.53-1c-.77,6.78-.91,16-2.61,22.6M476.8,1075.15c-33.67-52.65-58-90.68-87.44-184.82,31.69,0,37.4,0,71.37-.87,11.38,39.15,11.38,39.15,11.11,40.09a2.83,2.83,0,0,1-1.39.38l-27.81.6,13.57,36.55,27.17-.57,14.83,35.74-26.35.54,19.89,38.79c9-.18,21.07-.39,30.09-.63l18.73,33.57c-32.1.68-37.88.8-63.76.64m334.68-18.48c-14.69-67.22-22.81-108.29-35.12-188.61,20.19-2,47.11-4.78,67.29-6.93,10.06,76.68,15.07,112.84,26.82,189.62-17.7,1.81-41.29,4.21-59,5.93M1339,943.8l1.8,0c5.8-24.64,12.51-57.74,16.62-82.72l.18-4.36.24-3.75c1.45-73.26-71.57-52.21-105.1-31.37l.81-3.87-4,6.11c-2.61,2-6,4.8-8.5,7a41.68,41.68,0,0,1-11.81-2.92l-2.25-29c-24.82,4.72-58,10.8-82.85,15.19-9.85,2.5-12.19,4-18.74,10-10.05-4.84-10.05-4.84-108.82,9.48l2.06,27-14,1.93.42,5.59c-45-13.72-100.64-4.28-132.41,22.45l-5-41.35-1.41-11.81c-59.6,6.53-61.93,6.78-98.33,10.33l-19.12,1.82c2.45,15.57,5.61,36.35,8.24,51.9C717.66,882.54,651.6,885,622.08,916.57c-1.53-.06-1.53-.06-17.33-8.68C591.57,901,591.57,901,482.9,905.27l-9.37-37.06c-46.54,1.4-63.16,1.82-103.05,1.33,18.15,60.28,38.72,128.61,106.79,221.39,24,.32,38.54.52,78.59-.57l9.6-.34c10.32-.4,24.07-.9,34.39-1.36l0,0c37.73-1.89,44.52-2.23,82.55-4.7l-1.69-3.95c15.49,4.28,15.49,4.28,132.2-6.65v0c49.29-4.83,52.24-5.12,81.71-8.35l-1.39-10.88c28.71,12.28,99.14,13.75,137.29-27,26.63,28.12,93.38,8.32,105.14-.91,16.93,4.12,23.45,2.82,85.85-9.63l1.65-6.31c16.31,4.46,28.35,2.26,46.23-1.9,12.5-4.11,45.7-15,66.47-57.52.95-2.11,2.21-4.92,3.1-7" transform="translate(-283.88 -95.07)"/><path class="cls-7" d="M869.92,759.77c.38,8.68.63,14.41-7.42,14.67-.63.07-1.25.17-1.87.25-8.06.26-9.78-2.78-12.3-21.65-9.37-86.12-9.37-86.12-8.89-93.46.66-10.15,12-10.29,15.53-8,1.67,1.08,3.11,2,4.88,16.09,3.35,30.71,8.73,61.2,10.08,92.14m66.72-4.58c-.16-4.7-.29-8.75-10.49-91.72-3.11-23.63-7-53-49.95-47.48-22.19,3.34-32.07,14.62-40,23.69l-.47-15.42c-19.51,2.1-45.52,4.9-65,6.89,5.47,68.54,9.89,119.8,21,204.4,19.67-2.07,45.9-4.82,65.56-7L852.5,788l3.91,2.92c17.88,13.41,82.31,26.82,80.24-35.73" transform="translate(-283.88 -95.07)"/><path class="cls-9" d="M869.57,759.8c.12,2.79.12,5.33.13,7.18.28,5-4.28,7.05-7.21,7.15-.63.07-1.25.17-1.88.25-7.32.24-9.3-1.7-11.91-21.39-9.35-85.92-9.35-85.92-8.9-93.4.59-9.86,11.59-10,15-7.81,1.61,1,3,1.94,4.74,15.9,3.35,30.71,8.73,61.19,10.07,92.12m.36,0c-1.35-30.93-6.73-61.42-10.08-92.14-1.58-12.61-2.31-18.37-11.46-17.28-11.12,1.71-11.12,1.71-.06,102.68,2.5,18.74,4,22.64,14.17,21.41,8-.53,7.82-5.55,7.42-14.67m66.72-4.58c2.08,62.55-62.36,49.14-80.24,35.73L852.5,788l4.76,40.56c-19.66,2.13-45.88,5-65.56,7-8.61-68.49-14.73-119.72-21-204.4,19.52-2,45.54-4.75,65-6.89l.47,15.42c9-10.24,78.54-63,90,23.79,10.23,83.89,10.29,85.86,10.49,91.72m.35,0c-.16-4.75-.29-8.85-10.49-91.74-3.13-23.76-7-53.33-50.33-47.73-22.35,3.36-32.35,14.79-39.65,23.14l-.46-14.91c-19.72,2.12-46,4.95-65.74,7,5.47,68.63,9.89,120,21.06,205,19.88-2.09,46.39-4.87,66.26-7.07l-4.7-40.07,3.24,2.4c21,15.76,82.78,23.17,80.82-36" transform="translate(-283.88 -95.07)"/><path class="cls-7" d="M595.45,782.94c3,64.85-87.1,57.86-110.53,37.55-10.07-8.73-16.49-17.37-20.6-63.62v0l.12-1.21c14.59-.81,34-1.88,48.64-2.65l1.1.23L517.6,786c4.36,23,19.12,9.18,19.26,9,.32-.47.63-1.17.89-1.67.08-.29,4.62-31.27-11.95-42.1-65.39-42.73-65.39-42.73-66.9-76.63-1.31-29.55,4.38-63.88,60.5-67.16,24.66-.91,42.72,4.39,53.66,15.77,11.47,11.92,9.15,49.12,9.08,49.45-1.23.44-2,.71-54.49,3.75l0-2.87c-.28-24.63-.78-25.59-1.23-26.44-2.66-5-9.54-4.79-13.31-1.08-6.64,6.54-4.47,25.05-2.28,29.48,2.45,4.94,3.36,6.79,26.43,19.3,40.38,21.91,55.49,30.1,58.21,88.18" transform="translate(-283.88 -95.07)"/><path class="cls-9" d="M595.45,782.94c3,64.85-87.1,57.86-110.53,37.55-7.26-6.29-17.2-14.91-20.6-63.59v0l.05-1.15,1-.46c14.3-.66,33.36-1.53,47.65-2.28l1.1.23C519,799,519,799,529.2,799.31c4-.49,6.2-1.93,8.22-5.3,10.84-28.7-9-41.37-34.1-57.42-28.86-18.44-35.71-22.82-41.92-42.16-1.19-3.7-7.65-44.26,7.46-65.21,21.16-29.34,92.85-29.61,108-.4,5.86,11.26,5.48,42.82,5.26,43.79a7,7,0,0,1-1.65.47c-15.85,1-37,2.36-52.84,3.28-.37-27.43-.67-28.06-1.27-29.3-2.2-4.59-9.17-5.15-13.31-1.08-6.64,6.54-4.47,25.05-2.28,29.48,2.45,4.94,3.36,6.79,26.43,19.3,40.38,21.91,55.49,30.1,58.21,88.18m.31,0c-2.69-58.27-17.84-66.48-62.84-90.87-20.7-11.22-21.69-13.43-23.43-23.27-3.86-21.81,7.93-30,15.12-23.62,2.37,2.09,2.37,2.09,2.77,31.49,15.94-1,37.19-2.25,53.13-3.3,5.93-.85-.75-37.77-.84-38.15a30.15,30.15,0,0,0-11.42-16.95c-6.67-4.86-22-12.76-50-11.12-82.6,5.78-64.42,90.45-43.56,109.94,17.08,16,41.89,20.69,57.09,39.37,3.71,4.56,9.84,27.73,5.4,37.4-4.76,7.09-16.61,8.37-19.09-6.92-1.64-10.12-2.54-23.8-3.63-34l-1.36-.28c-14.3.71-33.36,1.67-47.66,2.29l-1.12.37c-.13.45-2.21,51.43,25.21,68.9,26.71,17,63,13.53,85,1.29,22.66-12.6,21.86-29.93,21.28-42.58" transform="translate(-283.88 -95.07)"/><path class="cls-7" d="M698.89,819,698,804.55l-.28.34c-20.57,25.9-76.76,40.56-84.39-23.36-6.74-56.48-8.12-106.2-8.95-135.91l.07-.09c18-1.36,42-3.18,60-4.64,2.86,58.61,3.38,69.18,9,124.92.9,7.7,2.67,20.92,4.4,22.87,4.74,5.35,13.58,2.46,15.57-.34.7-1,1.87-2.64.23-19.35-5.78-59.11-7-71.41-9.89-129.66,18.85-1.69,44-3.95,62.81-5.74,5.07,69.89,7.33,98.19,17.27,179.37-19.48,1.83-45.45,4.27-64.93,6" transform="translate(-283.88 -95.07)"/><path class="cls-9" d="M698.89,819,698,804.55c-8.91,11-15.34,19-36.44,20.93-43.19,2.87-46.4-26.93-48.53-46.65-5.76-59.51-7-71.9-8.66-133.21l.07-.09c18-1.36,42-3.18,60-4.64,1.46,30,5.35,109.61,12.07,145,1.27,6.67,11.69,7.1,16.07,3.3,1.76-1.53,2.65-2.3,1-20.24-5.78-59.11-7-71.41-9.89-129.66,18.85-1.69,44-3.95,62.81-5.74,5.07,69.89,7.33,98.19,17.27,179.37-19.48,1.83-45.45,4.27-64.93,6m-.32.33c19.69-1.78,45.95-4.17,65.63-6.06-8.66-72.26-11.67-99-17.34-180-19,1.77-44.42,4.12-63.46,5.79,3.12,57.81,3.77,69.85,9.9,129.95,1.5,16.82.64,18-.18,19.16-2.23,3.1-10.31,4.82-14.35,1.06-4.86-4.53-11.53-91.08-14-148.67-18.15,1.44-42.34,3.34-60.49,4.68l-.2.3c1.85,57.08,2.29,70.64,8.65,133.3,7.76,72.86,70.69,44.34,81.08,31.55,1.18-1.45,2.31-2.94,3.46-4.41l1.28,13.3" transform="translate(-283.88 -95.07)"/><path class="cls-7" d="M1033.74,660.71a2,2,0,0,1-2.26,1.9L1015.25,665h0c-1.13-.24-1.64-.85-1.56-1.86L1012,652.06l.29-.11c-.34-5.56-1.27-11.07-1.38-16.66a8.37,8.37,0,0,1,1-2.66c3.25-5.1,10.24-5.39,14.09-2.24.86.71,2.66,2.18,5.17,14.09.83,5.41,2.33,10.71,2.54,16.22m73.45,55.41a132.07,132.07,0,0,0-2.87-22.72c-18.34,2.75-42.81,6.42-61.15,9.2,3.08,23.39,4.62,35.13,2.62,41.72-1.79,5.92-11.64,9.2-17,5.66-3.71-2.45-3.71-2.45-10.35-56,25.33-3.78,59.08-9,84.37-13l-.35-2.36c-7-47.77-13.59-92.89-96-79.48-35.56,7.11-54.11,21.59-58.35,45.55-3.85,21.75,8.57,94.82,8.71,95.47,3.42,15.88,8.71,25,18.88,32.62,28.16,21,134.1,19.51,131.46-56.7" transform="translate(-283.88 -95.07)"/><path class="cls-9" d="M1033.39,660.73a1.7,1.7,0,0,1-1.92,1.58l-16.22,2.37a1.34,1.34,0,0,1-1.25-1.54l-1.6-10.89.28-.1c-.34-5.62-1.27-11.2-1.39-16.84a7.85,7.85,0,0,1,1-2.54c2.74-4.44,9.64-5.47,13.67-2.05.68.57,2.47,2.1,4.94,13.84l2.39,15.61a1.56,1.56,0,0,1,.14.56m.35,0c-.21-5.51-1.71-10.81-2.54-16.22-2.21-10.53-3.68-17.49-13-16-5.8,1.18-7,5.65-7,5.84-.25,1-.25,1,.32,7.17s.74,8.87.84,10.41l-.29.11,1.62,11.06a1.69,1.69,0,0,0,1.59,1.86l16.23-2.37a2,2,0,0,0,2.26-1.9m73.45,55.41c1.3,37.37-21.59,59.87-68,66.88-27,3.46-62.1,2-76.26-24.86-3.65-6.92-28.82-102.15-6.84-132.55,19.4-26.83,72.48-33.08,100.5-25.6,35.14,9.39,40.17,41,43.84,64.16.77,4.83,1.37,9.68,2.07,14.52l.35,2.36c-25.29,4-59,9.21-84.37,13,6.22,50.13,6.22,50.13,7.21,52.11,4.77,9.56,16.41,4.31,19,.47,3.57-5.2,1.65-19.8-1.53-44,18.34-2.84,42.79-6.61,61.11-9.57a137.31,137.31,0,0,1,2.91,23.09m.34,0c-.28-8-.53-9.44-3-23.42-18.52,2.94-43.21,6.86-61.74,9.67l0,.15c3.08,23.3,4.62,35,2.65,41.76-1.64,5.63-11.31,8.85-16.43,5.47-3.59-2.37-3.59-2.37-10.18-55.47,25.33-3.78,59.07-9,84.36-13l-.4-2.67c-7-47.93-13.64-93.2-96.4-79.72-35.71,7.15-54.33,21.71-58.61,45.81-3.88,21.83,8.56,94.93,8.7,95.58,3.44,16,8.77,25.16,19,32.79,28.28,21.12,134.69,19.58,132-57" transform="translate(-283.88 -95.07)"/><path class="cls-7" d="M1214.91,626.8c-8.29,1.44-27.77,6.33-29.74,20.48-.71,5.08,1.56,20.94,2.27,25.68,5.4,35.94,6.43,46.22,9.86,80.3-18.65,3.39-43.52,7.91-62.2,11.14-7.7-71.33-10.91-97.7-27.15-177.47,17.91-3.12,41.79-7.27,59.67-10.55l2.85,22,.23-.66c7.34-18.65,14.14-25.66,30.34-31.28,4.34,18.07,10.26,42.15,14.07,60.35l-.2,0" transform="translate(-283.88 -95.07)"/><path class="cls-9" d="M1214.91,626.8c-33.52,5.84-31.53,19.15-27.14,48.33,3.16,23.4,7.17,54.64,9.53,78.13-18.65,3.39-43.52,7.91-62.2,11.14-7.7-71.33-10.91-97.7-27.15-177.47,17.91-3.12,41.79-7.27,59.67-10.55l2.85,22c7.44-19.13,14.29-26.3,30.56-31.94,4.34,18.07,10.26,42.15,14.07,60.35l-.2,0m.4.24.15,0c-4.14-18.32-9.55-42.77-14.22-61l-.16,0c-16.21,5.56-23,12.48-30.46,30.85L1167.9,576c-18.09,3.25-42.21,7.57-60.33,10.66,15,75.31,19.28,100.77,27.23,178.07,18.86-3.32,44-7.76,62.85-11.25-2.56-23.57-6.19-55-9.56-78.43-4.29-28.59-6.45-42.93,27.22-48" transform="translate(-283.88 -95.07)"/><path class="cls-7" d="M1285,951.86c-1.84,6.73-3.58,13.08-9.27,13.6-6.26,1.76-5.72-2.78-3.9-13.21l6.73-38.93h.2c5.62-48.89,5.62-48.89,6.57-51.87,2.42-7.56,9.77-7.7,11.66-5.08,1.58,2.2.73,13.83.43,17.34-7.11,54.34-8.21,62.69-12.43,78.13m46.53-27.6h.21c3.17-17.16,7.55-40,9.93-57.33.78-17.53,2.42-54-52.8-40.14-25.43,7.31-40,18.33-50.44,38-.78,1.48-4.81,9.65-7.36,25.11-3.19,19.35-3.72,39-6.39,58.39-2.18,16.71-4.89,37.5,9.77,43.5,16.83,6.89,48.48-1.38,64.49-13.09,24.54-18,30.6-45.42,32.6-54.45" transform="translate(-283.88 -95.07)"/><path class="cls-9" d="M1284.79,951.9c-1.88,6.86-3.5,12.79-9,13.29-6.08,1.69-5.54-2.77-3.73-13l6.69-38.58h.2c6.68-58,6.68-58,13.38-58.23h0c5.24-.9,6.32.69,4.8,18.4-7.11,54.35-8.2,62.71-12.41,78.11m.24,0c2.42-8.84,6.54-29.57,12.43-78.13,1.38-16.17,1.4-20.72-7.2-18.2-5.12,2.58-5.12,2.58-11.46,57.81h-.2l-6.73,38.93c-1.81,10.33-2.34,14.82,3.9,13.21,5.79-.86,7.25-6.2,9.27-13.6m46.53-27.6c-6.46,25.86-19.42,56.92-62.65,67.6-51.36,11.34-47.56-17.83-44.2-43.56,9.66-84,9.66-84,24.11-98.65,25.86-26.3,73.27-34.33,87.47-14.82,6.53,9,6.09,18.18,5.42,32.1-2.8,17.23-6.35,40.24-9.93,57.33h-.21m.13.27h.21c3.19-17.26,7.6-40.27,10-57.66.79-16.26,2.64-54.33-53-40.35-31.58,9.08-43,23.73-50.68,38.22-.78,1.48-4.82,9.66-7.38,25.22-3.19,19.35-3.71,39-6.38,58.41-2.2,16.76-4.94,37.63,9.85,43.69,16.89,6.92,48.66-1.38,64.71-13.13,22.31-16.34,28.31-38.32,32.69-54.37" transform="translate(-283.88 -95.07)"/><path class="cls-7" d="M608.56,1071.57c-23.91-51.44-25.34-54.52-42.86-104.48-5.24-15.4-6.48-19.06-12.65-18.75-10.06-1.48-7,7.77-1.91,23.08,7.23,21.8,20.57,57,43,100.81-12.72.53-29.69,1.24-42.42,1.68-28.67-53.25-39.4-73.18-64.29-148.3,14.84-.59,34.63-1.38,49.46-2.07l3.55,14.71.84-1.48c5-11.45,12.11-16.33,26.15-18,27.12-1.21,38.09,13.69,40.81,18.28,3.62,6.11,9.81,25.44,9.87,25.63,15.64,49.42,18.9,59.71,38.07,106.16-14.29.84-33.35,2-47.64,2.72" transform="translate(-283.88 -95.07)"/><path class="cls-9" d="M608.56,1071.57c-22.06-47.47-27.3-58.75-42.86-104.48-5.11-15-6.48-19.06-12.33-18.77-10.44-1-9,5,3.45,39.4,20.76,51.49,22,54.58,37.33,84.51-12.72.53-29.69,1.24-42.42,1.68-28.67-53.25-39.4-73.18-64.29-148.3,14.84-.59,34.63-1.38,49.46-2.07l3.55,14.71c4.56-8.1,15.25-27.07,46.08-17.37,20.24,6.37,24,18.21,31.59,41.81,15.64,49.42,18.9,59.71,38.07,106.16-14.29.84-33.35,2-47.64,2.72m-.13.24c14.44-.8,33.7-1.87,48.13-2.75-18-44.41-22.23-55-38.14-106.39-7.61-23.79-15.48-48.4-55.69-43.63-13.58,3.42-15.75,7.21-22.2,18.45l-3.41-14.24c-15,.66-35,1.54-50,2.09,20.58,60.38,28.28,83,64.54,148.8,12.86-.48,30-1.13,42.85-1.7-23-47.49-24.83-51.37-37.43-84.73-13.73-37.77-12.63-38.88-3.62-39.11,5.75.22,6.82,3.37,11.33,16.63,12.59,37,21.44,60,43.64,106.59" transform="translate(-283.88 -95.07)"/><path class="cls-7" d="M963.9,1008.07c-.1,4-.24,9.5-8.13,10.78-8.61.62-9.24-5.2-10.12-13.26-6.36-81.53-6.36-81.53-6.15-83.75,1.3-13.92,13.42-8.94,14.69-7.95s2.88,2.25,4.31,15.69c3.65,49.46,5.47,75.86,5.4,78.5m59.84-22.43c.36-5.38.36-5.38-.14-31.24l.33,0c-2.36-42.79-2.66-48.28-15.31-58.31-22.58-17.91-59.87-12.72-72.12-11-66.27,11.72-62.83,38.31-53.63,109.39,2.73,19.67,6.13,44.15,35.32,48.94,14.49,2.38,73.36,4.73,96.68-27.26,6.44-8.83,7.94-16.53,8.88-30.47" transform="translate(-283.88 -95.07)"/><path class="cls-9" d="M963.59,1008.1c-.1,4-.25,9.38-7.84,10.5-7.92.57-8.84-4.33-9.79-13-6.33-81.39-6.33-81.39-6.12-83.72,1.18-13.5,12.88-8.69,14.11-7.73,1.06.82,2.82,2.2,4.21,15.52,4.57,61.71,5.47,76.74,5.43,78.48m.32,0c.07-2.63-1.75-29-5.4-78.5-1.26-11.92-2-18.49-11.07-17.3-7.87,1.26-8,7-8.09,12.46-.52,27.16,4.23,53.9,6.31,80.86,2.54,23.44,16.25,10.19,16.39,10,.88-1.06,1.72-2.06,1.86-7.54m59.84-22.43c-1.08,16.16-3.34,49.79-67.56,57.89-65.5,7.22-69.3-20.14-73.32-49.11-8.27-64.3-9.76-75.88,9.23-91.36,27.14-22.13,88.89-27,113.92-9,15.18,10.91,15.49,16.54,17.91,60.33l-.33,0c.5,25.86.5,25.86.14,31.24m.32,0c.36-5.39.36-5.39-.13-31l.36,0,0-.13c-2.36-43-2.66-48.51-15.39-58.61-22.68-18-60.12-12.79-72.43-11.08-66.61,11.77-63.15,38.44-53.91,109.7,2.75,19.75,6.16,44.32,35.55,49.14,14.53,2.38,73.59,4.72,97-27.39,6.49-8.88,8-16.61,8.93-30.58" transform="translate(-283.88 -95.07)"/><path class="cls-7" d="M727,1029.52c2.11,9.62,2.68,12.21-5,13l-.2,0c-3.41-.08-13.78-.33-17.08-29.64-.63-5.57,1-7.18,11.76-17.66l.07-.07,1,.38a9.14,9.14,0,0,0,.79,2c8.29,30,8.29,30,8.73,32m64.76,28.27c-4.9-24.45-12-48.37-17.19-72.76-5.21-24.65-5.21-24.65-11-44.93-4.31-13-19.73-34.15-74.57-29.35-11.11,1.11-37.14,3.72-50.43,22.48-6.11,8.63-6.11,8.63,1.85,46.11,15.75-1.13,36.75-2.62,52.5-3.83l-5.1-20.28c-2.34-11-3.3-15.56,4.9-16.21,16.71-.6,18.82,29.53,15.16,33.9-2.56,3.05-28.72,14.33-29,14.44-26.87,11.38-26.81,17.26-26.75,22.44,0,.63,1.3,63.08,56.72,58.09,13.26-1.19,13.26-1.19,25.09-15.35a4.09,4.09,0,0,0,.51-.92l.65-.05,3.58,11.32c15.92-1.35,37.15-3.14,53.07-4.57,0-.16,0-.38,0-.54" transform="translate(-283.88 -95.07)"/><path class="cls-9" d="M726.66,1029.53c2,9.07,2.41,11-2,12a8.63,8.63,0,0,1-2.82.69c-1.66,0-6.72-.1-9.54-4.8a73.85,73.85,0,0,1-7.17-23.09c-.91-6.9.63-8.4,10.65-18.14l.8-.78.61.24a9.92,9.92,0,0,0,.76,1.91c8.29,30,8.29,30,8.73,31.94m.3,0c-.44-2-.44-2-8.73-32a9.27,9.27,0,0,1-.79-2l-1-.38-.07.07c-10.73,10.47-12.38,12.08-11.76,17.66,1.54,13.69,5.76,30,17.08,29.64l.2,0c7.73-.76,7.16-3.35,5-13m64.76,28.27,0,.54c-15.92,1.39-37.14,3.25-53.07,4.57l-3.58-11.32-.65.05a4.13,4.13,0,0,1-.51.92c-6.72,13.81-55.69,38.95-77.27-23.5-8.63-25-8.42-28.71,25.51-43.08,26.13-11.07,26.46-12.55,27.45-16.93.07-.33-.57-32-16.93-30-8.2.66-7.23,5.21-4.9,16.21l5.1,20.28c-15.75,1.17-36.74,2.74-52.5,3.83-9-29.29-10.73-44.65,12.66-58.92,16.43-10,63.87-15.53,89.08-3.14,14.54,7.15,18.88,15.19,21.41,22.82,3.56,12.53,28,117.09,28.16,117.69m.3,0c-4.69-24.52-12-48.42-17.19-72.83-5.5-26.08-5.5-26.08-11-44.95-4.31-13.12-19.78-34.4-74.9-29.58-69.87,7-56.12,47.42-48.73,69.13,15.91-1.14,37.14-2.65,53-3.87l-5.16-20.53c-2.39-11.12-3.28-15.28,4.66-15.91,15.75-.56,17.66,30.07,14.82,33.46-2.49,3-28.63,14.26-28.89,14.37-27,11.44-26.94,17.11-26.85,23.68.16,10.87,11.27,38.62,18.3,45.67,13.44,13.49,36.24,11.87,38.8,11.64,16.32-1.47,21.78-8.29,25.24-15.43a2.14,2.14,0,0,1,.71-.86l3.58,11.31c16.07-1.36,37.5-3.17,53.56-4.61v-.09c0-.19,0-.44,0-.62" transform="translate(-283.88 -95.07)"/><path class="cls-7" d="M476.81,1074.93c-33.6-52.61-57.87-90.62-87.18-184.31,32.4,0,37.38,0,70.92-.87l11,37.76,0,0a3.36,3.36,0,0,1-.13,2c-8.59,1.58-20.38.56-29.12.73l13.77,37.09,27.14-.56L497.86,1002l-26.34.53c6,11.79,13.71,27.71,20.15,39.28,9-.18,21-.38,30.06-.63l18.48,33.1c-32,.68-37.79.8-63.41.64" transform="translate(-283.88 -95.07)"/><path class="cls-9" d="M476.81,1074.93c-33.6-52.61-57.87-90.62-87.18-184.31,32.4,0,37.38,0,70.92-.87l11,37.76a3.38,3.38,0,0,1-.11,2,2.86,2.86,0,0,1-1,.14l-28.08.59,13.77,37.09,27.14-.56L497.86,1002l-26.34.53c6,11.79,13.71,27.71,20.15,39.28,9-.18,21-.38,30.06-.63l18.48,33.1c-32,.68-37.79.8-63.41.64m0,.22c26.75.08,32.32.1,63.76-.64l-18.73-33.57c-9,.2-21.06.5-30.09.63l-19.89-38.79,26.35-.54L483.36,966.5l-27.17.57-13.57-36.55,27.81-.6,1.18-.17c.49-1.14.49-1.14-10.89-40.3-36.74.84-43.36,1-71.37.87,20.29,61.35,35,105.68,87.44,184.82" transform="translate(-283.88 -95.07)"/><path class="cls-7" d="M811.73,1056.41c-14.65-67.18-22.74-108.16-35-188.1,20-2,46.62-4.73,66.59-6.86,9.38,71.43,14.43,108.54,26.79,189.09-17.52,1.79-40.88,4.17-58.41,5.87" transform="translate(-283.88 -95.07)"/><path class="cls-9" d="M811.73,1056.41c-14.65-67.18-22.74-108.16-35-188.1,20-2,46.62-4.73,66.59-6.86,9.38,71.43,14.43,108.54,26.79,189.09-17.52,1.79-40.88,4.17-58.41,5.87m-.25.26c17.7-1.74,41.3-4.08,59-5.93-10.59-69.76-17-113.69-26.82-189.62-20.18,2.12-47.09,4.93-67.29,6.93,11.23,71.46,18.35,113.37,35.12,188.61" transform="translate(-283.88 -95.07)"/><path class="cls-7" d="M1172.81,1008.82c-15.56,2.53-30.4,3-33.61-10.39-.39-1.64-.39-1.64,2.48-40.5,2-27.46,2.17-43.18,2.4-69.21l-11.24,1.88h0a3.83,3.83,0,0,1-1.92-.25c-2.39-6.7-.42-16.6-.46-23.71v0c.15-1.87.15-1.87,13.5-4l-.64-25c.07-1.44.07-1.44,61.52-12.84l.19,26.68,13.1-2.5a5.15,5.15,0,0,1,2.27.26c1.29,7-.12,16.53-.32,23.61-.29,2.06-.29,2.06-15.78,5-3.42,58.19-3.49,59.31-7.77,89.76-1.44,12.15-1.66,14,3,13.13,2.7-.26,2.7-.26,11.47-1.34l-4.57,23.19-33.64,6.27" transform="translate(-283.88 -95.07)"/><path class="cls-9" d="M1172.81,1008.82c-20.87,3.64-30.92.54-33.61-10.39a42.55,42.55,0,0,1-.26-10.6,869.19,869.19,0,0,0,5.11-96l0-3.1-11.24,1.88a3.82,3.82,0,0,1-1.95-.23,2.72,2.72,0,0,1-.26-1.19l-.2-22.52a1.94,1.94,0,0,1,2-2.16l11.47-1.91c-.68-26.67-.68-26.67,1.13-27.16,17.94-3.16,41.85-7.36,59.76-10.69l.19,26.68c14.19-2.71,14.19-2.71,15.37-2.24l.28,1.53c-.65,24.09-.65,24.09-2.79,24.51l-13.58,2.59c-1.91,32.51-6.67,64.76-8.42,97.29-.25,4.71-.29,5.43,2.88,5.76,4.09-.57,8.19-1,12.29-1.5l-4.57,23.19c-10.09,1.88-23.53,4.51-33.64,6.27m0,.25,33.91-6.32,4.67-23.67-.13,0c-4.14.5-8.31.73-12.42,1.51-3.28-.34-3.48-.36-2.15-11.82,6.45-55.61,6.71-57.78,7.92-90.74l13.27-2.53c2.45-.61,2.45-.61,3.11-24.85-.29-2.49-.29-2.49-15.63.42l-.19-26.68c-18,3.27-42,7.64-60.08,10.75-2.13.64-2.13.64-1.45,27.23l-11.07,1.85c-2.44.37-2.44.37-2.2,25l.15,1.18c1.14.81,1.14.81,13.3-1.29l0,2.82a864.66,864.66,0,0,1-4.93,94.42c-.91,8.08.08,12.21.09,12.25,2.73,11,12.86,14.18,33.86,10.52" transform="translate(-283.88 -95.07)"/><path class="cls-7" d="M1121.69,1016.34c-1.11,2.23-49.47,7.78-53,7.56-1.7-.11-16.66-1.36-20-12.16-1.17-3.75-1.07-21.59-1.07-21.76.3-34.86.3-34.86-1-86.38l-14.07,2-1.33-25.86,13.8-2-1.57-26.61c18.84-2.83,44-6.6,62.77-9.56a5.1,5.1,0,0,1,2.27.36c1.7,7.67.94,18.3,1.22,26.15l16.83-2.73.29,26L1110,894.08c-.53,56.56-.55,58.76-2.59,88.76-.62,12.82-.27,13.93,4.24,13.21,3.81-.26,7.55-1.3,11.4-1.11l1.14-.72-2.43,21.4c0,.22-.06.51-.12.73" transform="translate(-283.88 -95.07)"/><path class="cls-9" d="M1121.69,1016.34c-1.11,2.23-49.47,7.78-53,7.56-1.7-.11-16.66-1.36-20-12.16-1.19-3.81-1-24.2-1-24.4,0-25.12-.4-58.63-1-83.74l-14.07,2-1.33-25.86,13.8-2-1.57-26.61c64.11-9.63,64.11-9.63,65-9.21l.32,1.45.9,24.7,16.83-2.73.29,26L1110,894.08c-.29,31.35-3,62.63-2.71,94,.07,7.64.07,7.79,3.61,8.09,4-.42,8.08-.79,12.11-1.24h0l1.14-.72c-.75,6.64-.92,15.64-2.55,22.12m.29,0,2.61-22.6-1.53,1c-4,.46-8.08.59-12.08,1.23-3.34-.29-3.85-.33-3.21-13.13,2.76-55,2.82-56.06,2.61-88.48l16.78-2.71-.29-26.56L1110,867.76l-.89-24.42c-.33-2.11-.33-2.11-66.07,7.58l1.58,26.62-13.79,2,1.36,26.41,14.06-2c.64,25,1.08,58.43,1.06,83.47-.21,24.77-.25,29.93,10.76,34.25,17.53,6.88,63.63-4.75,63.77-5a1.35,1.35,0,0,0,.11-.32" transform="translate(-283.88 -95.07)"/><path class="cls-7" d="M818.52,356.82a5.71,5.71,0,0,1-1.42,2.05l-.88.53c-3.58,2.09-3.58,2.09-20.48,9.51-4,1.75-4,1.75-11.47,7.46-11.56,8.82-11.56,8.82-12.59,9a2.49,2.49,0,0,1-1.13-.13,6.64,6.64,0,0,1-1.34-2.37l-.05-.15.34,0c5-23,43.42-28.54,49-26l.09,0,0,.1M901.28,282c.55,8.16-15.86,14.56-27.4,15.38-14.31,1-21.36,4.6-23.68,5.77-9.28,4.72-18.07,10.38-27.59,14.64a37,37,0,0,1-5.59,1.94c-3.62.08-2.8-2.78-2.06-3.66,14.23-16.8,29.65-29.58,45.82-38l6.31-3.31c5-2.13,5-2.13,13.91-4.29h.22c4.13,1.42,8.73-.53,12.73,1.77,3.16,1.82,7,5,7.33,9.77m56-40a2.55,2.55,0,0,1-.28,1.41c-1.2,1-2.12,1.65-4.75,3.51-3,2.12-5.54,4.89-8.76,6.76a23.39,23.39,0,0,1-8,3c-2.14.17-3.66-1.21-3.38-3.08.13-.85,4.79-6.65,4.83-6.7.91-1.08,3.73-3.75,10.18-5.32h0l1.92-.18c6.62-.15,6.62-.15,8.16.53l.07,0s0,0,0,.07m183,65.77c-22.8-36.82-51.13-26.17-81.12-14.9l-1.69.85-8,4.16-7.66,3.8-.66.48-6.89,4-7.35,4.16c-5.26,3-5.26,3-13.7,7.19l-9.33,4.89-5.87,3-7.73,4.17-2-.59.07-.12,1-1.17c6.55-4.14,12.94-8.54,19.45-12.74l4.89-3.15c1.94-1.32,1.94-1.32,16.77-10,6.66-4.08,7.87-4.81,22.49-12.47,11.93-6.17,11.93-6.17,37.7-16.6-.48-38.64-144.56-37.18-146-37-.88.09-2.06.2-2.93.36-29.33,8-27.87,12.87-13.87,59.94l-.13,1.26-.61.09-.05-.06c0-.07-6.86-11.94-10.78-19.57l-.15-.52-.9-1.44c-5.84-9.44-15.6-25.23-51.39-9.13l-6.08,3-5.51,3c-3.42,1.87-7.75,4.76-11,6.86-28.66,20.25-33.82,23.9-43.17,35.37-5.93,7.27-7.49,9.73-8.86,11.9-6.42,10.14-2.43,24.39-13,32.91-8.12,6.56-22.55,19.68-27.92,33.76-1.81,4.74-16.68,47.42,16.39,86.85,4.43,2.33,5.77.54,9-3.79,12.86-17.25,22.15-29.71,51.45-50,15.6-10.81,17.17-11.87,33.33-21.75l6.13-3.86,5.6-3.24,4.05-2.46c7.93-5.59,9.48-5.9,10.57-5.71l0,0,.13,1.21c-83.11,72-83.11,72-91.35,99.71-3.34,11.23-12.2,41,48.3,45.19,18.43,1.26,34.58-8.52,52.27-10.83,8.86,11.29,63.89,24,125.72-3.51l8.52-4.75c8.25-4.54,10.47-5.75,17.39-11.68,30.25-26.51,5.57-62.31,5.3-62.65-2.63-3.49-2.61-3.54-2-6.26,12.44,3.35,66.08,42.52,46.67,103.34-.41,1.21-.92,2.83-1.28,4.05l1.61,1.37c1.21-.69,4.43-2.53,19.08-7.72,12.08-4.24,24.81-6.3,36.76-11,0-.44-.09-45.76-73.08-93.14-10.8-7-23-11.81-32.82-20.39l.1-.08,11.59,4.78c84.77,41.55,106.3-14.68,93.13-50.51-3.93-10.7-3.93-10.7-3.25-12.59,9.08-18.46-6.75-45.23-7.43-46.36" transform="translate(-283.88 -95.07)"/><path class="cls-6" d="M818.12,357.09a6,6,0,0,1-1.17,1.6l-.87.52c-3.48,2-3.48,2-20.44,9.48-4,1.77-4,1.77-11.53,7.5-11.48,8.76-11.48,8.76-12.4,8.91s-1.32.06-2.17-2.21l.2,0c5-23.52,44.22-27.94,48.5-26l-.12.26m.41-.28,0-.1-.09,0c-1.91-.88-1.91-.88-8.31-.12-29.8,4.22-38.57,16.52-40.67,26.09l-.34,0,.05.15a6.11,6.11,0,0,0,1.34,2.37c1.52.46,1.52.46,13-8.32,8.3-6.33,8.3-6.33,11.31-7.62,13.68-5.83,15.78-6.73,20.44-9.36l.89-.52a4.75,4.75,0,0,0,2.3-2.58M901.05,282c.54,8-15.74,14.35-27.18,15.16-9.54.67-17.54,2.63-23.78,5.8-9.28,4.72-18.06,10.37-27.58,14.64a26,26,0,0,1-4.18,1.49,3.82,3.82,0,0,1-1.32.42c-3.28.08-2.52-2.52-1.84-3.32,5.76-6.79,21.06-24.83,45.74-37.93l6.31-3.3c4.76-2.06,4.76-2.06,13.83-4.27l0,.24c12.63-2.53,19.61,5.74,20,11.07m.23,0c-.32-4.78-4.16-8-7.33-9.77-4-2.31-8.6-.35-12.73-1.77H881c-8.66,2.09-8.66,2.09-13.91,4.29l-6.31,3.31c-16,8.29-54.26,39.21-45,41.57.53.14,1.64.42,6.8-1.86,9.55-4.21,18.31-9.92,27.59-14.64,6.4-3.25,14.61-5.21,24.4-5.83,8.26-.52,27.29-6.35,26.68-15.33m55.81-39.78c0,1.06,0,1.06-5,4.57-3,2.13-5.54,4.89-8.75,6.76a23.4,23.4,0,0,1-7.93,2.93c-2.18.18-3.36-1.32-3.09-2.83.15-.82,4.74-6.57,4.79-6.63.9-1.07,3.69-3.71,10.09-5.27l1.89-.18c6.72-.06,6.72-.06,8,.48,0,.05,0,.12,0,.17m.21-.2V242l-.07,0c-1.54-.68-1.54-.68-8.16-.53l-1.92.18h0c-6.56,1.6-9.24,4.26-9.52,4.56-7.58,8-5.55,9.27-4.34,10,2.22,1.41,7-.79,7.94-1.25,4.15-2,7.33-5.36,11.05-8,4-2.85,4.74-3.51,4.75-3.51a2.55,2.55,0,0,0,.28-1.41m183,65.77c1.71,2.85,16.44,28.37,7.43,46.36-1.23,2.84-1.3,3,.72,6.86,4.82,9.17,18.18,40.75-12.21,62.09-27.32,19.18-54.45,5.88-78.39-5.86-3.37-1.67-7.88-5.39-11.59-4.78l-.1.08c9.89,8.49,22,13.36,32.82,20.39,21,13.63,60.11,39,73.57,91.87-10,11.31-24.91,7.92-37.25,12.25-13.77,4.84-18,7.07-19.4,7.81l-1.15-2c.33-1.07.78-2.49,1.14-3.54,21.22-66.84-42.82-103.13-46.92-103.16a9,9,0,0,0,1.42,4.92c4.23,6.31,23.88,39-4.48,63.81-7,6-9,7.05-17.39,11.68l-8.52,4.75C956.33,549.73,901.8,535.2,894.47,525c-18.32-.46-34,12.09-52.49,10.69-10.78-.82-37-4.22-47.28-18.23-10-13.51,2.77-52.1,34.1-81.59,17.55-16.52,38.31-29,56.23-45.08l-.13-1.21,0,0c-2.46.47-3.58.69-10.57,5.71l-4.05,2.46-5.6,3.24-6.13,3.86c-16.24,9.93-17.21,10.6-33.33,21.75C796.06,446.69,786.81,459,774,476.15c-2.76,3.69-5.62,7.51-9.28,4.18-24.57-16.22-20.51-78.43-20.31-79,6.93-18.19,24.79-27.81,34.44-43.88,5-8.31,3.41-18.61,8.14-27,11.84-21,26-31,54.26-51,8.93-5.74,8.93-5.74,11-6.86l5.51-3,6.08-3c35.57-16.44,45.86.19,51.39,9.13l.9,1.44.15.52c3.64,7.09,8.63,16.8,10.78,19.57l.05.06.61-.09.13-1.26c-12.83-44.91-16.28-57,16.81-60.3,23.47-3.76,23.47-3.76,42.7-2.18,1,.08,1,.08,25.8,8.55,9,3.08,18.14-1.2,27.18.37,6.24,1.08,8.71,1.68,9.89,2,15.38,3.72,35,11.36,40.88,26.67a8.63,8.63,0,0,1-4.2,3c-16.06,5.92-16.36,6-33.93,15.14-14.62,7.66-15.82,8.39-22.49,12.47-5.58,3.34-11.38,6.34-16.77,10l-4.89,3.15c-6.51,4.21-12,10-19.45,12.74l-1,1.17-.07.12,2,.59c2.36-1.18,5.75-2.42,7.73-4.17l5.87-3,9.33-4.89c8.44-4.21,8.44-4.21,13.7-7.19l7.35-4.16,6.89-4,.66-.48,7.66-3.8,8-4.16,1.69-.85c30-11.28,58.33-21.93,81.12,14.9m.21,0c-22.95-37.08-51.39-26.39-81.51-15.08l-1.7.86-8,4.16-7.67,3.81-.67.48-14.21,8.16c-5.26,3-5.26,3-13.7,7.18l-9.33,4.9-5.88,3,0,0-7.58,4.09-1.51-.45c6.93-5.37,6.93-5.37,20.3-13.74l4.9-3.14c1.76-1.2,1.76-1.2,16.76-10,6.72-4.11,7.93-4.85,22.49-12.47,12.55-6.49,29.7-3.37,38.2-18.32-15.85-41-145.5-35.82-146.75-35.62-.88.09-2.06.21-2.94.36-29.49,8-28,12.93-14,60.14l-.41,1.09c0-.07-7.21-12.69-10.7-19.44l-.15-.52-.91-1.48c-4.3-6.94-17.38-28.06-51.7-9.22l-6.07,3-5.52,3c-3.42,1.88-7.76,4.77-11,6.87-27.06,19.12-44.94,31.76-55.41,53-3.79,7.7-2.11,16.89-6.64,24.39l-34.94,44.48v.06c-.5,9.78-.46,19.56-.8,29.34l0,0c12.12,15.12-1.62,52.21,25.11,50.92,1.83-.09,2.74-1.31,5.19-4.59,13.17-17.64,22.68-30.38,51.66-50.27,15.18-10.55,16.73-11.59,33.33-21.76l6.12-3.85,5.59-3.24,4.07-2.47a55.86,55.86,0,0,1,8.77-5.49l-.18,2.2c-152.84,115.28-76.2,138.59-49.07,143,19.8,3.21,42.88-.24,56.11-8.39a8.28,8.28,0,0,1,4.44-1.21c7.63,10,62.68,24.23,125.61-3.94l8.54-4.75c8.32-4.56,10.3-5.64,17.45-11.72,10.39-9.11,14.27-12.53,15-30.29.59-14-11.6-23.83-12.17-37.45l0,0,1.74-1.1c53.06,35.08,53.69,75.37,44.86,103-1.32,3.92-1.32,3.92-.82,5.89h.06c7.2-1.74,13.67-5.39,20.61-7.82,12.12-4.26,24.93-6.2,36.86-11.06.09-.4.28-45.57-73.16-93.55-10.32-6.7-21.59-11.84-31.49-19.23l10.07,4c85.12,41.63,106.74-14.8,93.51-50.74-3.91-10.62-3.91-10.62-3.25-12.42,9.13-18.72-6.78-45.41-7.46-46.54" transform="translate(-283.88 -95.07)"/><path class="cls-6" d="M1397.74,579.34c-8.93-5-20.78-11.77-29.87-16.49,5.22-119.94-7-125.92-23.87-134.2l-3-1.44-3.9-18.78c14.11,2.47,20.92-.37,23.54-9.8l14.47,8.37c14.73,49.28,26.37,88.21,22.67,172.35M1384.8,418.75,1377.56,399c-7.56-4.53-17.6-10.64-25.33-14.86l-.75,3.43c-3.06,10.95-12.91,9-26.55,6.35,2.52,12.45,6.28,29,8.1,41.57l13.14,6.1c9.52,4.61,9.52,4.61,10.85,22.19,3.45,45.53,4.07,53.74-1,108.25,15,7.78,34.7,18.61,49.24,27.17l1.36-22.64c-8.36-31.32-7.35-63.77-11.48-95.6-3.45-20.74-7.09-41.44-10.38-62.21" transform="translate(-283.88 -95.07)"/><path class="cls-6" d="M1433.64,519.62c-1.84-6.22-4.47-8.36-5.66-7.51-.72,1.14-.72,1.14,3.52,46.09.72,11.89,1.12,15.2,2.22,18.64.6,1.88,3,6.48,5,3.83s1.85-4.41-2.6-48.48a98.5,98.5,0,0,0-2.47-12.57M1430,465a263.33,263.33,0,0,1,9.92,28.47c-14.07-15.48-14.07-15.48-19.2-30.87-.85-2.56-3.2-8.73-6.62-10.88-1.13,1.25-1.13,1.25,3.17,17.27l6.36,27.37c.39-10.35,4.93-7.56,8.66-3.39,6.12,6.82,14.61,22.61,20.28,59.18,5.63,42.61,5.31,56.62-1.44,62.46-8.5,4.75-26.14-13.26-33.62-30.69-4.91-11.45-4.91-11.45-11.3-74-4.26-31.14-4.81-35.14-10.9-61.39-.87-3.76-2.33-10-2.43-15.48-.19-11.15,3.8-13.55,11.88-7.16,11,8.69,19.77,26.07,25.22,39.12m1.32-1.18c-17.7-42.09-36.42-60-44.29-53-.83,1.4-3.34,5.68-1.93,17.46,3.09,25.77,9.87,50.9,13.21,76.63,6.83,72.17,6.83,72.17,15.36,90.47,9.7,20.84,32.88,44.3,42,32.79s4.19-47.11.94-70.73c-3.8-23.68-7.73-36.91-12.44-49.49l3.21,4.39-3.78-13.79a327.16,327.16,0,0,0-12.31-34.75" transform="translate(-283.88 -95.07)"/><path class="cls-6" d="M416.21,443.31c-1-34.66-1.45-49,7.24-83.76,1.46-5.85,1.46-5.85.92-7.12-1.37-.54-2.37-.94-14,8.56l-2.73,2.27c1.73-4.46,2.79-11.12,5.76-14.87,12.29-15.54,27.56-28.3,40.32-43.4l17.88-12.27c-15.67,36.39-27,62.69-21,124.75-10.33,7.72-24.18,17.92-34.36,25.84M407,462.64c16.75-13.06,39.3-30.18,56.4-42.78l-2.33-16.26c-8.74-5.68-13.5-12.55-5.78-60.13,3.65-16.33,7.06-25.42,9.28-30.17,5.93-12.7,15.12-23.43,21.55-35.83-9.65,6.42-22.58,14.88-32,21.57l-4.72,5.53c-14.18,16.59-19.29,21.63-40.8,42.83-4,10-9.66,23.22-13,33.47L407,371.16c3.71-3,4.82-3.87,7-5.45a11.15,11.15,0,0,1-.28,2.8c-10,38.75-9.18,61.41-6.66,94.13" transform="translate(-283.88 -95.07)"/><path class="cls-6" d="M511,355.11c1.75-2.82,1.75-2.82,2.22-34.3.38-6.33-.17-8-2.55-7.84-2,.37-8.54,3.56-10.64,10.08-1.24,3.84-1.24,3.84-1.88,28.85.5,11.21,4,13.33,10.46,6.31a25.55,25.55,0,0,0,2.39-3.11m32.33-9.38c-13,22.63-49.26,46.51-65.91,47.16-15.22-.13-16.62-11.77-14.1-39.56,6.38-42.1,12.2-51.88,26-67.24,18.23-20.28,60.47-44.73,66.66-35.84,2.11,3,.14,10.69-.81,14.37-10.74,6.18-25.09,14.37-35.77,20.66,2.94-10.31,2.94-10.31,2.82-11-.06-.3-.55-1.68-4.75.58-7.67,4.12-9.28,9.34-11.72,17.23l-4.43,18.2c12.78-21.48,44.19-35,47.65-24.13,1.1,3.47.87,10.23.73,14.27-.5,34.93-.5,34.93-6.4,45.24m10,.69c7.8-14.12,7.8-14.12,8.07-52.93.46-16.68-1-19.57-6.53-21.51l9.76-5.58,2-8.17c3.33-13.1,3.29-20.16-6.41-20-16.7,1.16-55.28,23.51-78.14,49.53-17.58,20-23.09,33.65-29.47,73-7.39,72.19,41,43.54,70.45,20,16.73-13.34,25.72-26.06,30.32-34.38" transform="translate(-283.88 -95.07)"/><path class="cls-6" d="M799.05,1291.1l-12.52-1.76-16-2.71c-34.47-8.13-67-15.81-108.94-37.52-10.47-5.42-13.87-6.47-26.53-10.37l-2.72-.84-18.31-11.23a36.41,36.41,0,0,0,5,.63c6.56-.06,8.19-1.7,7-7l20.2,5.14c31.58,23.86,70.87,53.54,152.76,65.71M666.7,1236.79l-18.7-16c-10.4-2.58-24.26-6-34.6-8.8l.53,2c1.64,8-6.28,6.47-15.45,4.71,11.24,7,26.07,16.57,37.7,22.88l9.51,3c9,2.73,9,2.73,11.71,4.11,44.4,22.77,79.36,30.66,102.49,35.87,15.42,2.76,36.06,6,51.59,8.11l3.42.37,1.51.16L788,1289.11c-36.09-6.52-53-13.73-78.63-24.65-30.77-15.1-37.91-22.67-42.63-27.67" transform="translate(-283.88 -95.07)"/><path class="cls-6" d="M767.28,1278.09c-7.92-3-10.95-3.23-11.88-3.18l-.31.14c.92,1.76.92,1.76,34.7,12.42,14.57,3.61,20.9,4.07,21.16,4.09-.46-.29-.46-.29-3.21-.89-6.72-1.48-6.72-1.48-33.1-9.71l-3.67-.55,3.67.55c-2.46-1-4.9-1.92-7.36-2.87m-9.33-19.42c3.58,2.5,6.95,5,10.84,8-31.8-5.07-31.8-5.07-39.91-11-9-6.65-15.34-6-15.4-5.95l-.38.92c.68.93,1.45,2,9.62,7.52L742,1269.5a8.86,8.86,0,0,1-1.55-1.85c2.91-5.35,21.56,1.88,62.42,17.71,16,5.5,19.71,6.41,39.26,9.75l-.2.12a348.62,348.62,0,0,1-104.56-20.44c-77.49-33.08-58.16-40.16-58-40.22,5.89-2,45.45,1.07,78.52,24.12m9.44,1.78C722.17,1226.63,675,1227,674.58,1227c-16.94.79-7.49,10.79-4.19,13.84,14.1,13,42.82,25.25,60,32.56,23.26,8.53,52.87,18,110.15,21.82,3.73.21,8.7.49,12.43.66h0c-22.06-2.34-31.06-5.45-43.51-9.75-12.45-4.9-24.46-10.88-37-15.48l10.45,1.53-5.88-4.32c-3.46-2.71-6.74-5.27-9.61-7.42" transform="translate(-283.88 -95.07)"/><path class="cls-7" d="M1397.74,579.34c-8.93-5-20.78-11.77-29.87-16.49,2.35-54,2.49-57.26-1.38-94.29-3.88-30-4-31.15-25.53-41.35l-3.9-18.78c14.11,2.47,20.92-.37,23.54-9.8l14.47,8.37c14.73,49.28,26.37,88.21,22.67,172.35" transform="translate(-283.88 -95.07)"/><path class="cls-7" d="M1433.64,519.62a98.5,98.5,0,0,1,2.47,12.57c4.57,45.3,4.74,47.07,2,49.05-5,2.21-6-13-6.57-23-4.53-48.1-4.53-48.1-1.65-45.69,1,.86,2.51,2.79,3.79,7.1M1430,465c-14.43-34.52-29.85-46.06-35.43-41.11-.84,1.43-2.6,4.41-1.15,15.08,3.23,23.84,9.55,47.11,12.81,70.94,6.45,63.22,6.45,63.22,11.3,74,9.62,21.43,28.64,37.3,35.08,29.29,5.81-7.22,4.47-27,0-61.06-8.89-57.27-25.61-64.71-27.66-62-1.11,1.48-1.23,4.66-1.28,6.2L1417.25,469c-4-15-4-15-3.94-16.7l1-.5c1,.77,4,3.12,6.74,11.73,1.49,4.67,1.37,9.8,4.09,14.12,3.47,5.5,10.73,10.76,14.8,15.83A263.27,263.27,0,0,0,1430,465" transform="translate(-283.88 -95.07)"/><path class="cls-7" d="M416.21,443.31c-1.08-36.39-1.27-42.95,4.4-72,4.14-18,4.14-18,3.76-18.92-1.46-.58-2.52-1-16.77,10.83l5.76-14.87c14.07-13.88,26-29.73,40.32-43.4,4.7-4.5,12.51-8.59,17.88-12.27-15.67,36.39-27,62.69-21,124.75-10.33,7.72-24.18,17.92-34.36,25.84" transform="translate(-283.88 -95.07)"/><path class="cls-7" d="M511,355.11c-3,4.78-6.56,6.69-8.93,6.88-1.9-.09-3.5-.91-3.91-10.08.66-25.53.66-25.53,1.88-28.85,2.85-7.73,10.63-11.24,12.31-9.68,1.26,1.16,1,4.79.88,7.44-.47,31.48-.47,31.48-2.22,34.3m32.33-9.38c5.9-10.31,5.9-10.31,6.4-45.24,1.3-38.16-32.22-8.33-39-2a50.92,50.92,0,0,0-9.43,11.82l4.43-18.2c6.92-22.43,16.4-18,16.47-17.81.19.4.19.4-2.82,11,10.72-6.21,25-14.55,35.77-20.66,2.78-10.81,2.86-16.63-4.63-16.48-12.51.87-46.14,19.5-65.19,42.48-12,14.53-16.79,28-22,62.7-2.75,30.33.57,36.52,9,38.93,16.37,4.65,46.21-19.5,49.56-22.27,5.34-4.41,15.21-13.43,21.41-24.26" transform="translate(-283.88 -95.07)"/><path class="cls-7" d="M799.05,1291.1l-12.52-1.76-16-2.71c-49.94-11.78-52.93-12.49-89-27.75-37.44-17.33-37.44-17.33-49.21-21l-18.31-11.23c12.92,2.23,13-1.94,12-6.41l20.2,5.14c31.58,23.86,70.87,53.54,152.76,65.71" transform="translate(-283.88 -95.07)"/><path class="cls-7" d="M767.28,1278.09c2.46.94,4.91,1.91,7.36,2.87,26.38,8.23,26.38,8.23,33.1,9.71a21.5,21.5,0,0,1,3.4.83l-.13.07c-.06,0-6.18-.36-21.22-4.09-32.59-10.29-32.59-10.29-34.66-12.24l.11-.28c.88-.1,3.83,0,12,3.15m-9.33-19.42c-34.9-24.33-73.5-24.8-73.87-24.79-12,.62-6.45,7.28-3.48,10.12,12.34,11.8,41.25,24.14,56.79,30.77a348.62,348.62,0,0,0,104.56,20.44c-12.93-3.64-26.31-5.49-39.06-9.86-46.75-18.11-53.93-20.89-62-18.56l-.46.85a8.86,8.86,0,0,0,1.55,1.85l-19.3-11.41c-8.69-5.89-9.16-6.76-9.69-7.76l.6-.72c.27,0,6.64-.35,15.25,6,8.31,6.12,8.31,6.12,39.91,11-3.9-2.94-7.26-5.47-10.84-8" transform="translate(-283.88 -95.07)"/></g></g></g></g></g></g></g></svg>