<svg id="Layer_1" data-name="Layer 1" xmlns="http://www.w3.org/2000/svg" xmlns:xlink="http://www.w3.org/1999/xlink" viewBox="0 0 1288.03 1202.89"><defs><style>.cls-1{fill:none;}.cls-2{fill:url(#radial-gradient);}.cls-3{isolation:isolate;}.cls-4{clip-path:url(#clip-path);}.cls-5{fill:#6a096d;}.cls-6{clip-path:url(#clip-path-2);}.cls-7{fill:#fccf10;}.cls-8{fill:#fff;}.cls-9{fill:url(#linear-gradient);}.cls-10{fill:url(#linear-gradient-2);}</style><radialGradient id="radial-gradient" cx="685.01" cy="448.23" r="628.84" gradientUnits="userSpaceOnUse"><stop offset="0" stop-color="#dd22d4"/><stop offset="0.87" stop-color="#73126e"/><stop offset="1" stop-color="#610f5d"/></radialGradient><clipPath id="clip-path" transform="translate(-249.85 -56.86)"><path class="cls-1" d="M1011.86,1249.73c-2.39.45-5.58,1.07-8,1.5-7.72,1.36-8.53,1.5-13.5,2.28-10.76,1.69-19.08,2.7-21.81,3-19,2.3-35.24,3.27-43.22,3.65-7.21.34-14.56.53-21.84.58-7.55,0-17.63-.12-25.18-.31-8.14-.2-19-.87-27.09-1.36-4.15-.25-9.67-.74-13.81-1.12-7.22-.65-16.84-1.68-24-2.75-11.37-1.7-26.46-4.41-37.78-6.48s-26.22-6.24-37.46-8.93a432.57,432.57,0,0,1-61.47-20.41c-13.73-5.84-32.08-13.56-45.49-20.1-12.32-6-28.37-14.77-40.19-21.71A604,604,0,0,1,390.81,985.43c-7.69-11.88-17.3-28.14-24-40.59s-15-29.33-20.7-42.24c-5.78-13.14-12.84-30.95-17.57-44.5s-9.83-32.11-14-45.88c-8.39-27.79-13-66.5-16.9-95.26a351.35,351.35,0,0,1-2.75-49.29c.31-14.57.27-34,1.23-48.57s3-33.72,5.12-48.08c2.05-14.08,5.59-32.75,8.78-46.61s8.24-32.2,12.46-45.8A603.48,603.48,0,0,1,464.36,240.73c9.5-9.82,22.65-22.44,32.88-31.5,10.51-9.32,25.09-21.1,36.19-29.71C544,171.36,558.61,161.25,569.8,154c11.47-7.41,27.18-16.65,39.12-23.26,10.42-5.77,24.66-12.85,35.48-17.82,11.27-5.18,26.57-11.46,38.11-16,13-5.12,30.9-10.72,44.29-14.86,8.37-2.59,19.67-5.55,28.2-7.55,6.74-1.58,15.75-3.58,22.53-5,2.31-.48,10.42-2,16.79-3.12,8.73-1.47,13.16-2.16,23.86-3.6,7.48-1,18.15-2.12,19.32-2.22h0c2.84-.26,6.62-.62,9.46-.86,5.91-.49,10-.74,10-.75,6.27-.39,7.76-.48,11.25-.64,3.71-.17,9.06-.39,13.5-.49,5.44-.12,22-.49,44.82.75,25,1.36,41.69,3.48,51.68,4.75,5.32.67,12.39,1.69,17.68,2.58,7.52,1.27,17.56,3,25,4.64,11.48,2.53,26.79,6,38.06,9.36,16.67,5,38.74,12.18,55,18.36,24.85,9.45,57,24.84,80,38.1,13.36,7.68,30.77,18.63,43.5,27.31,11.29,7.69,25.85,18.67,36.5,27.22,11.31,9.08,25.84,21.86,36.39,31.81,10,9.47,22.54,23,32.16,32.87,9.94,10.21,21.77,25.14,30.49,36.41,8.52,11,19.3,26.14,26.92,37.79,7.8,11.92,17.59,28.21,24.44,40.7s14.7,29.43,20.94,42.07c6.37,12.91,13.07,31,17.9,44.53s10,32,14.25,45.76c4.36,14,8.11,33.37,10.75,47.84,2.68,14.69,5.44,34.42,6.92,49.28s2.93,34.46,2.88,49.27c0,14.57.15,34-1.09,48.56-1.92,22.45-5,52.42-9.41,74.51-2.79,13.88-6.93,32.31-10.67,46s-9,31.86-14.27,45-11.38,30.92-17.68,43.52c-6.21,12.43-14,29.25-20.71,41.43s-16.16,28.48-24.06,40.07c-7.77,11.41-18.22,26.58-26.64,37.52-8.57,11.13-20.17,25.91-30,36-19.1,19.68-45.58,45-66.13,63.13-10.48,9.26-25.57,20.31-37.17,28.12-12.21,8.22-28.43,19.34-41.35,26.39-21.55,11.76-50.78,26.66-73.39,36.23-9.73,4.12-31.79,12.51-52.68,18.76a612.28,612.28,0,0,1-60.94,15.24q-6.95,1.35-14,2.46t-14.16,2q-7.12.86-14.32,1.47t-14.49,1h0q7.28-.35,14.49-1t14.32-1.47q7.12-.86,14.16-2T1011.86,1249.73Z"/></clipPath><clipPath id="clip-path-2" transform="translate(-249.85 -56.86)"><path class="cls-1" d="M971.39,1423.15c-7.26,1.5-16.94,3.45-24.22,4.81-2.94.55-11.66,2.08-17.87,3-8.87,1.39-13.68,2.1-25.67,3.64-8.78,1.13-20.68,2.32-20.87,2.33h0c-1.53.12-3.57.34-5.1.49-6.7.64-18.89,1.59-28.29,2.09-6.75.36-16.95.91-30,1.07-10.25.13-23.93-.05-34.18-.28-11.27-.25-26.28-1.19-37.53-1.88-5.83-.36-13.58-1.1-19.39-1.61-10.05-.89-28.34-3-41.54-5.1-14.38-2.25-33.57-5.36-47.69-8.87-22.83-5.67-53.2-13.56-75.66-20.56-16.45-5.13-38-13.12-53.89-19.84-18.13-7.68-42.06-18.55-59.62-27.45-15.83-8-36.45-19.72-51.61-29-16-9.72-36.69-23.64-51.83-34.6-14.5-10.49-33.24-25.31-46.91-36.87-14-11.87-32.09-28.52-45.15-41.47-12.78-12.67-29.16-30.24-40.92-43.87-12-13.88-27.25-33-38.13-47.79-10.76-14.61-23.91-34.94-33.93-50.06-10.2-15.38-21.94-37.07-30.42-53.45S92.1,979.45,85,962.5c-7.25-17.26-16-40.65-21.91-58.43s-12.63-41.95-17.19-60.15c-8.07-32.18-15.59-76-18.49-109-3.34-38-3.32-89.08-2.24-127.25a451.92,451.92,0,0,1,6.52-62.5C35,526.92,38.86,502.52,43,484.48S52.87,442.39,59,424.94c6.06-17.18,13.6-40.29,20.38-57.2s16.79-39.28,24.89-55.69c8-16.18,19.49-37.34,28.71-52.84s22.52-36.06,33-51a786.83,786.83,0,0,1,76.63-92.87C255,102.54,272.13,86,285.44,74.16,299,62,317.95,46.73,332.3,35.49c13.81-10.81,33.07-24.12,47.78-33.67C395-7.87,415.51-19.9,431-28.6c14.09-7.89,33.46-17.37,48.11-24.17,12.95-6,30.54-13.3,43.83-18.5,16.83-6.58,39.69-14.26,57-19.51,16.38-5,38.53-10.56,55.19-14.52,5.36-1.28,12.56-2.75,18-3.79,3.63-.69,8.47-1.65,12.11-2.31,5.26-.94,12.27-2.15,17.54-3,11-1.76,19.89-2.9,25.74-3.65,8-1,19.75-2.25,20.87-2.33h0c1.53-.13,3.57-.35,5.1-.49l5.15-.46c6.56-.56,10.84-.85,10.88-.85,11.58-.78,16.37-1,27-1.47,5.2-.21,12.13-.34,17.34-.38,5.7,0,13.3.06,19,.09,6.12,0,14.27.41,20.39.6,13.15.42,30.65,1.73,43.75,2.88,32.08,2.81,66.8,8,93.26,13.78,15.66,3.44,36.48,8.44,51.83,13.07,20.56,6.2,47.75,15.29,67.79,23,32.66,12.59,74.87,33,105.15,50.54,16.87,9.77,38.86,23.7,54.93,34.74,14.7,10.09,33.69,24.44,47.56,35.64,14.51,11.71,33.18,28.17,46.71,41,13,12.36,29.32,30,41.81,42.87,12.82,13.24,28.12,32.55,39.37,47.15s25.39,34.54,35.43,49.91c20,30.59,42.23,74.09,58.36,106.86,8.25,16.77,16.93,40.22,23.19,57.83s13,41.67,18.49,59.54c5.65,18.26,10.51,43.37,13.92,62.18,3.47,19.1,7,44.76,8.95,64.07,1.89,19.16,3.54,44.83,3.7,64.09.16,19-.07,44.26-1.46,63.17-1.74,23.56-4.56,55-9,78.24-3.44,18.14-8,42.34-12.49,60.25s-10.7,41.82-17.23,59.09-13.9,40.65-21.74,57.28c-7.71,16.37-17.37,38.49-25.72,54.55-8.43,16.22-20,37.74-30.18,52.95-10,14.93-22.91,35.09-33.54,49.56-10.85,14.77-25.55,34.38-38,47.81-24.21,26.1-57.82,59.69-84,83.85-13.38,12.36-32.69,27.23-47.58,37.73-15.78,11.12-36.74,26.19-53.46,35.83-27.32,15.74-64.38,35.77-93.15,48.67-13.51,6.06-32,13.12-45.79,18.37-8.08,3.07-19,6.69-27.26,9.35s-18.92,6-27.14,8.25c-14.75,4-34.52,8.93-49.41,12.39a513.31,513.31,0,0,1-89,11.08A513.31,513.31,0,0,0,971.39,1423.15Z"/></clipPath><linearGradient id="linear-gradient" x1="355.86" y1="597.81" x2="249.09" y2="584.01" gradientTransform="translate(19.67 -26.76) rotate(1.7)" gradientUnits="userSpaceOnUse"><stop offset="0" stop-color="#fff"/><stop offset="1"/></linearGradient><linearGradient id="linear-gradient-2" x1="1450.03" y1="831.77" x2="1534.41" y2="863.54" gradientTransform="translate(-29.16 45.66) rotate(-2.59)" xlink:href="#linear-gradient"/></defs><title>ThunderBall</title><circle class="cls-2" cx="646.7" cy="601.45" r="601.45"/><g class="cls-3"><polygon points="705.05 1199.73 588.49 6.78 705.05 1199.73 705.05 1199.73 705.05 1199.73 705.05 1199.73 705.05 1199.73"/><polygon points="588.49 6.78 705.05 1199.73 705.05 1199.73 705.05 1199.73 705.05 1199.73 705.05 1199.73 588.49 6.78"/><path d="M954.91,1256.59h0L838.35,63.64Z" transform="translate(-249.85 -56.86)"/><polygon points="588.49 6.78 705.05 1199.73 705.05 1199.73 705.05 1199.73 705.05 1199.73 705.05 1199.73 588.49 6.78"/><path d="M838.35,63.64l116.56,1193h0Z" transform="translate(-249.85 -56.86)"/><g class="cls-3"><g class="cls-4"><path class="cls-5" d="M946.32,713.61l-3.11.37c-40.69,92.4-57.09,130.37-81.29,193.67,18.43-12.06,43.07-28,61.64-39.87C891.21,968,873.4,1031.5,865.9,1100.16l4.87-17.21c7.75-45.95,15.77-93.46,60.48-226.34-18.83,11.94-43.87,27.94-62.56,40.1,23-58.08,29.24-73.7,77.63-183.1m9.45-78.17-17.07,10.4-.19.94c2.46-.25,10-1,15.09-4.38,0,0,.83-2.27,2.17-7M996.56,236l-4,1c-4,39.72-7.25,71.1-24.06,145.86l.36,0,.36,0,.36,0,.36,0,3.35-.26c10.21-48.73,19.85-94.76,23.31-146.46" transform="translate(-249.85 -56.86)"/><path class="cls-5" d="M416.47,515.18l-2.91.64-2.88.64-2.85.64-2.82.64-2.38.54-2.35.54-2.32.54-2.29.54-3.27,11.24,2.76-.65,2.8-.65,2.85-.66,2.89-.66L406,528l2.34-.52,2.36-.52,2.38-.52,3.35-11.23m-56.11-33.35-.57.18-.57.18-.56.17-.56.17c-5.88,18.86-13.79,44-18.72,63.15l3.73-1.21,3.91-1.23,4.1-1.24,4.28-1.26c-18,81.86-29.33,148.82-11.69,265.55q2.57-.94,5.41-1.89t5.93-1.93q3.1-1,6.45-2t7-2l-1.36-11.33q-3.37.94-6.52,1.86t-6.08,1.83q-2.93.91-5.64,1.79t-5.2,1.76c-9.24-83.67-13-147.37,17.28-265.61L356.54,530l-4.24,1.25-4.06,1.24-3.88,1.22c4.72-15.6,10.65-36.52,16-51.92" transform="translate(-249.85 -56.86)"/><path class="cls-5" d="M462.93,625.4l-3.76.7-3.73.7-3.7.71-3.67.71-1.76,11.92,2.6-.5,2.61-.5,2.63-.5,2.64-.5c-8.19,72.24-8.35,73.62-8.07,141.78q5.7-1.13,11.59-2.27t11.95-2.27q6.06-1.13,12.29-2.27t12.63-2.26l.13-11.51-11.66,2.08-11.38,2.08-11.09,2.08-10.8,2.09c1.18-70.33,1.2-71.67,10.55-142.27M448,460.53l-1,.2-1,.2-1,.2-1,.2c-44.54,127.51-56,204.68-49,330.25l6.17-1.46,6.41-1.48,6.66-1.5,6.9-1.51,3.45-.74,3.49-.74,3.54-.74,3.58-.74-.43-11.46-4.15.86-4.1.86-4,.86-4,.86-5.55,1.22L407.69,777l-5.24,1.2-5.08,1.18c-3.52-108.07,3.34-187.06,50.61-318.89m62.2-11.71-1.09.19-1.09.19-1.09.19-1.08.19c-20.12,57.85-21.76,62.58-32,102.39l1.09-.2,1.09-.2,1.09-.2,1.1-.2c17.07-61.23,17.73-63.62,32-102.36" transform="translate(-249.85 -56.86)"/><path class="cls-5" d="M585.13,436.63l-1.21.18-1.21.18-1.21.18-1.21.18c-64,190.89-58.32,272.9-58,276.3,4.51,55.84,52.67,58.53,83.8,42.77,22.37-11.33,34-30.86,41.72-46.61-34.91,55.5-105.43,57.62-117.9,3.54-1.64-7.11-5.48-23.76,7.15-96.86,15.61-77.38,21-99.54,48.1-179.87m75.77-10.82-1.3.17-1.3.17-1.3.17-1.29.18C629.27,510.6,629.27,510.6,594.61,693h1.34c3.5-3.68,4.56-4.79,9.67-38.35,15.83-93.49,26.16-136.26,55.28-228.79" transform="translate(-249.85 -56.86)"/><path class="cls-5" d="M762.87,570.53l-7.43,37.23c2.85,61,3.37,72,7.6,125.15l14.68-1.71,14.76-1.69,14.84-1.67,14.9-1.64,2-11.62-13.49,1.48-13.44,1.5-13.38,1.52-13.32,1.54c-2.63-38-6.24-90.13-7.73-150.08M747.5,414.9l-1.36.16-1.36.16-1.36.16-1.36.16c-33.64,119.05-50.45,191-67.51,328.41l13.34-1.75,13.46-1.73,13.57-1.72,13.68-1.7,1.59-11.62L717.84,727l-12.26,1.54-12.17,1.55-12.08,1.57c14.92-111.17,27.41-179.75,66.17-316.73m90.47-10-1.4.14-1.4.14-1.4.14-1.4.15c-11.9,49.33-15.91,66-25.31,107.41L808,534.6c13.52-60.58,14-62.95,30-129.7" transform="translate(-249.85 -56.86)"/><path class="cls-5" d="M961.19,632.13c-1.63,1-4.29,1.77-5.42,3.3a1.62,1.62,0,0,0-.14.49c-.65,2.28-1.33,4.46-2,6.47,4.07-2.64,5.69-5.41,7.59-10.26M919.31,397l-1.42.13-1.42.13-1.42.13-1.42.13c-58.45,295.85-58.45,295.85-64,325.71q10.81-1.14,21.67-2.25T893,718.83q10.88-1.08,21.78-2.12t21.79-2.06c3.7-.35,5.87-.57,9.7-1l5.21-11.78c-2.55.28-3.41.37-6.56.66q-10.92,1-21.85,2t-21.84,2.1q-10.91,1.07-21.81,2.17T857.71,711c19.76-104.82,41.38-209.25,61.6-314" transform="translate(-249.85 -56.86)"/><path class="cls-5" d="M1070.17,563l-9.31,19.57c-12,61.33-13.21,67.74-26.08,123.62q14.78-1.17,29.44-2.26t29.16-2.1q14.5-1,28.82-1.94t28.41-1.77l2.92-11.52q-13.42.79-27,1.66t-27.42,1.81q-13.8.95-27.74,2t-28,2.11c12.77-57.24,15.8-70.84,26.86-131.16m104.06-16.21-8.72.45-8.77.47-8.82.49-8.86.51-1.87,11.61,8.89-.51,8.85-.5,8.8-.48,8.75-.46,1.75-11.57m14.19-119.45-8.85.37-8.92.39-9,.41-9,.43-.7,10.54,9.11-.45,9-.42,9-.4,8.92-.38.43-10.5M1092.93,384l-1.34.08-1.34.08-1.34.08-1.34.08c-4.23,50.89-5.11,61.48-14.51,126.76l6.31-4c7.21-52.22,9.38-68,13.55-123.05" transform="translate(-249.85 -56.86)"/><path class="cls-5" d="M1267.07,533.07l-1.25,11.73c9,1.27,12.73,1.8,7.62,38.56-10.86,62.16-11.51,65.88-23,109.85h.83l13.57-.49,13.19-.43,12.82-.37,12.44-.31,2.83-11.38-11.4.27-11.72.32-12,.37-12.36.42c34-148.76,24.4-148.66,8.43-148.51m59.27-35.2c-4.47,6.52-10.38,9.93-20.38,11.75a46.62,46.62,0,0,1,10.21,5.32c6.2-4.71,8.49-10,10.17-17.08m-56.25-81.41.52,10.62c8,1.27,11.67,4.83,12.06,22.55.17,22.49.19,24.33-.81,31.39,2.19-1.44,5.51-3.62,5.38-25.4-.78-31.63-1-39.14-17.15-39.16m-56.21-37.86-1.21,0-1.22,0-1.22,0-1.22,0c1.58,91.24-4.43,172.58-39.8,318.32l16-.87,15.82-.81,15.63-.75,15.43-.69,3-11.46-14.09.61-14.27.66-14.43.72-14.59.77c24.94-106.85,39.69-195.41,36.18-306.65" transform="translate(-249.85 -56.86)"/><path class="cls-5" d="M1080.38,899.77l-3.75,10.58c10.88.62,13.47.76,4.36,25.24-12.8,33.37-12.8,33.37-15.77,39,3-1.7,6.74-3.81,14.31-23.1,14.51-37.65,15.69-40.72,15.79-46.5.06-3.42-2.42-5.49-14.93-5.25m81.11-44.12c-7.32,6.3-15.43,10.59-28,14.79a40.88,40.88,0,0,1,8.62,3.24c10-5.72,14.69-10.94,19.34-18m-43.16-71.13-3.47,11.32c6.17.1,11,.18,10.33,9.63-.9,11.89-11.79,39.29-14.49,45.22,3-1.6,9.24-4.92,20.48-42.84,1.68-5.66,6.14-20.69-1-22.77-3-.88-9-.67-11.84-.57m-53.09-38.94-1.42.11-1.42.11-1.42.11-1.43.11c-1.5,5.64-1.5,5.64-82.52,290.25l14.58-1.3,14.55-1.26,14.5-1.22,14.44-1.18c36.54-3.08,47.83-6.4,63.57-25.49-12.52,9.31-17.7,13.17-55.78,16.32l-14.65,1.17-14.72,1.22-14.78,1.26-14.82,1.3c67.22-228.49,67.22-228.49,81.33-281.51" transform="translate(-249.85 -56.86)"/><path class="cls-5" d="M1204.19,966.52l-4.37.2-4.39.2-4.41.21-4.44.22-5.73,9.42,3.47-.17,3.46-.17,3.45-.17,3.43-.16c-7.51,13.93-17.41,32.56-25.22,46.32l5-.25,4.95-.24,4.92-.23,4.88-.22,6.33-.27,6.22-.26,6.11-.24,6-.22,5.22-8.83-6.39.23-6.52.25-6.64.27-6.76.29-3.44.15-3.46.16-3.47.16-3.49.17c7.65-14,18-32.65,25.3-46.83m72.11-174c-5.56,12.05-12,23.68-17.19,35.91-12.46,29.44-22.4,59.87-35,89.26l1.29-.05,1.29-.05,1.29-.05,1.28-.05c22.62-52.82,35.16-88.16,47-125m-23.93-57.78-.56,0-.56,0-.56,0-.56,0-.44,0-.44,0-.44,0-.44,0C1221.82,798,1188.76,876.64,1099,1026.58l12.4-.82,12.28-.78,12.15-.73,12-.69,5.75-8.91-11.32.64-11.45.68-11.56.72-11.67.75c76.6-129.33,105.4-189.27,144.72-282.71" transform="translate(-249.85 -56.86)"/><path class="cls-5" d="M1365.1,732.52h-3.76c-32,99.49-62.49,171.31-140.58,287.75q8.06-.27,15.7-.47t14.85-.34q7.21-.14,14-.22t13.14-.09l6.69-8.8q-6.07,0-12.53.07t-13.32.18q-6.86.12-14.1.3t-14.88.41c57.51-87.31,98-160.92,134.78-278.77" transform="translate(-249.85 -56.86)"/><path class="cls-5" d="M1432.6,734.64l-.64,0-.65,0-.65,0-.65,0c-30.52,102.12-59.86,170.77-144,284.67q6.09,0,11.75.1t10.88.22q5.22.14,10,.34t9.12.45l7-8.69q-4.13-.25-8.65-.45t-9.46-.35q-4.93-.15-10.26-.25t-11.06-.14c64.09-89,102.92-156.05,137.29-275.72" transform="translate(-249.85 -56.86)"/><path class="cls-5" d="M1079.38,507.07l-6.31,4-21.51,13.71c-26.75,152.63-29.55,168.58-100,177l-5.21,11.78c-30.15,68.29-54,122.23-77.63,183.1,18.71-12.12,43.72-28.19,62.56-40.1-27.16,82.25-50.46,156-60.48,226.34l-1.21,9.17c29.84-93.21,53.15-136.31,165.19-343.42-50.23,27.29-56.68,30.8-82,44.82C1027,652.18,1027,652.18,1060.85,582.58l9.31-19.57c2.8-16.78,6.63-39.13,9.21-55.94M978.62,431.79c-8.55,50.12-15.94,93.4-39.92,214l17.07-10.4c6.61-4,7.8-4.75,14.67-40.09C996,460.94,996.53,450,996.82,444.11c.59-11.73-5.14-13.28-18.2-12.32M1122,199.51c-35.84,8.24-72.89,16.77-125,29.33l-.42,7.14c-3.73,39.8-6.67,71.23-23.31,146.46,54.61-4,94.06-6.85,90.07,55.83,34-83.2,64.08-164.07,58.69-238.77" transform="translate(-249.85 -56.86)"/><path class="cls-5" d="M442.14,451.87l-6.87,1.45-6.72,1.45L422,456.23l-6.42,1.45q-7.62,1.75-14.64,3.46t-13.42,3.38q-6.41,1.67-12.21,3.3t-11,3.21l-3.91,10.8c-4.88,15.55-11.75,36.18-16,51.92l3.88-1.22,4.06-1.24,4.24-1.25,4.42-1.26C344.53,597.22,327.54,668,343.69,794.38q2.49-.87,5.2-1.76t5.64-1.79q2.93-.91,6.08-1.83t6.52-1.86l.63-.18.64-.18.64-.18.64-.18c-4.17-60.86-9.36-136.6,22.75-255.31l3.27-11.24,2.29-.54,2.32-.54,2.35-.54,2.38-.54,2.82-.64,2.85-.64,2.88-.64,2.91-.64.91-.2.91-.2.92-.2.92-.2c6.39-18.83,14.87-44,22-62.52" transform="translate(-249.85 -56.86)"/><path class="cls-5" d="M567.32,429.39l-13.65,2.17-13.4,2.19-13.14,2.2-12.87,2.21-4.06,10.66c-19.67,56.64-21.72,62.56-32,102.36l-1.1.2-1.09.2-1.09.2-1.09.2-2.71.5-2.69.5-2.68.5-2.66.5c16.13-58.14,18.21-65.61,36.12-113.15Q493,441.93,487,443.05t-11.93,2.24q-5.89,1.12-11.62,2.25t-11.29,2.26L448,460.53c-38,108.6-56.21,187.74-50.61,318.89l5.08-1.18,5.24-1.2,5.39-1.21,5.55-1.22,4-.86,4-.86,4.1-.86,4.15-.86.95-.19,1-.2,1-.2,1-.2c.36-57.85.44-69.89,7.58-130.25l1.76-11.92,3.67-.71,3.7-.71,3.73-.7,3.76-.7c-7.53,57.86-9.56,73.42-10.55,142.27l10.8-2.09,11.09-2.08,11.38-2.08,11.66-2.08,1.1-.19,1.11-.19,1.11-.19,1.11-.19c6.22-126.83,21.55-203.74,65.6-329.18" transform="translate(-249.85 -56.86)"/><path class="cls-5" d="M726.08,407.44l-15.63,1.93-15.5,2-15.36,2-15.2,2-3.49,10.48c-17.75,56.75-39.85,127.39-55.76,231.93-2.94,19.34-4.73,28.11-6.37,31.28-3.74,7.23-10.12,7.21-12.15,4.46-1.07-1.46-3.07-4.16.82-31.81,8.89-55,21.07-130.42,59.68-244l-14.84,2.06-14.65,2.09-14.45,2.11-14.24,2.13-3.82,10.57C522.26,624.7,528,700,528.23,703.15c4.74,54,52.84,56.39,83.86,41,42.78-21.28,50.79-65.63,60.95-121.78,16.34-83.31,25.78-123.82,53-214.87" transform="translate(-249.85 -56.86)"/><path class="cls-5" d="M895,389.27l-13.65,1.29-13.64,1.32L854,393.24l-13.6,1.38L838,404.89c-16.79,70.4-18.8,79.46-30,129.7l-.92-21.71c-2-58.53-2.27-66-3-114.43l-13.47,1.48-13.42,1.5L763.82,403l-13.29,1.55-3,10.38C715.93,527.55,698,603.68,681.33,731.63l12.08-1.57,12.17-1.55L717.84,727l12.34-1.53,1.43-.18,1.43-.17,1.43-.17,1.43-.17c9.35-61.06,10.33-67.44,19.54-117l7.43-37.23c1.29,38,3.05,90.11,7.73,150.08l13.32-1.54,13.38-1.52,13.44-1.5,13.49-1.48,1.46-.16,1.46-.16,1.46-.16,1.46-.16c18.12-99.88,18.12-99.88,64.88-324.68" transform="translate(-249.85 -56.86)"/><path class="cls-5" d="M938.69,645.84c23.45-119.07,31-160.62,39.92-214,21.32-1.56,20.36,4.24,15,36.48-30.59,176-30.59,176-55.13,178.5l.19-.94m31.2-263.13-.36,0-.36,0-.36,0-.36,0-11.78,1-11.8,1-11.82,1-11.83,1L919.31,397c-20.34,104.7-41.92,209.15-61.6,314q10.86-1.13,21.75-2.23t21.81-2.17q10.91-1.07,21.84-2.1t21.85-2c71-6.65,79.52-32.51,93.81-106.29,3.92-21.4,9.12-49.95,12.78-71.4,20.89-133.48,23.58-150.63-81.66-142.1" transform="translate(-249.85 -56.86)"/><path class="cls-5" d="M1193.21,369.41q-12,.4-24.18.9t-24.72,1.08q-12.49.58-25.21,1.25T1093.47,374l-.54,10c-4,50.54-4.83,61.06-13.55,123.05-2.73,16.79-6.28,39.19-9.21,55.94-11,59.07-13,69.72-26.86,131.16q14.06-1.09,28-2.11t27.74-2q13.79-.95,27.42-1.81t27-1.66l1.41-.08,1.41-.08,1.4-.08,1.4-.08c4.63-20,10.83-46.55,15-66.61l-12,.65-12,.69-12.13.72-12.21.75c3.49-18.64,8.24-43.47,11.39-62.17l1.87-11.61,8.86-.51,8.82-.49,8.77-.47,8.72-.45,1.38-.07,1.38-.07,1.38-.07,1.37-.07c2.36-18.34,5.6-42.8,7.49-61.2l-9.84.45-9.91.48-10,.5-10.05.53c1.37-14.34,3.44-33.43,4.49-47.79l.7-10.54,9-.43,9-.41,8.92-.39,8.85-.37,1.29-.05,1.29-.05,1.29-.05,1.29-.05c.08-17.32.24-40.42-.37-57.73" transform="translate(-249.85 -56.86)"/><path class="cls-5" d="M1270.61,427.08l-.52-10.62c12.54,0,15.83,4.45,16.74,22.6,1,41.51.12,44-16.27,44.53.17-17,.73-39.57.06-56.51M1250.74,368l-9.05.14-9.27.18-9.48.22-9.69.25.62,9.81c1.69,74.64.2,154.25-36.18,306.65l14.59-.77,14.43-.72,14.27-.66,14.09-.61,1.31-.05,1.31-.05,1.3-.05,1.3-.05c12.73-54.61,16.57-71.09,25.53-137.48l1.25-11.73c14.58.12,17.51,1.44,12.88,38.39-9.66,61.05-10.45,66-21.3,110.12l12.36-.42,12-.37,11.72-.32,11.4-.27,1.14,0,1.14,0,1.13,0,1.13,0c31.53-148.66,22.17-159.09-4-170.2,17.31-6.27,27.76-10.05,25.48-55.13-2.84-56.08-19.2-75.46-32.42-81.84-7.63-3.68-23.21-5.26-49-4.95" transform="translate(-249.85 -56.86)"/><path class="cls-5" d="M1076.62,910.35l3.75-10.58c17.84-.34,18.36,1.09,9.25,25.53-19.54,50.72-19.54,50.72-37.87,53,7.53-20.35,17.56-47.48,24.87-67.91m38.24-114.51,3.47-11.32c11.88-.43,16.33-.59,15.76,9.62-.56,10-13.5,47.43-19.27,53.48-4.15,4.35-7.19,4.66-18.52,5.8,5.62-17.26,13.2-40.24,18.56-57.58M1134,729.67l-16.28,1.05-16.41,1.11L1084.81,733l-16.63,1.21-2.94,11.38C1052,795,1052,795,983.9,1027.09l14.82-1.3,14.78-1.26,14.72-1.22,14.65-1.17c42.1-3.49,59.52-4.93,87.89-66.26,23.52-52.29,34.25-76.15,3.37-85.27,38.51-21.82,41.66-23.6,56.34-74,13.33-45.8-1.32-60.43-16-64.64-12.08-3.48-28.9-3-40.5-2.26" transform="translate(-249.85 -56.86)"/><path class="cls-5" d="M1259.12,828.42c6.37-12.86,11.35-23.27,17.19-35.91-11.88,36.81-24.42,72.14-47,125l-1.28.05-1.29.05-1.29.05-1.29.05h-.77l-3,.13-3,.13-3,.13-3,.13c18.93-34.46,31.43-57.23,47.64-89.82m75.17-106.93q-8.75.1-18,.26t-18.9.41q-9.69.24-19.83.56t-20.76.71l-4.46,11.3c-39.55,93.86-68.39,153.88-144.72,282.71l11.67-.75,11.56-.72,11.45-.68,11.32-.64.87,0,.87,0,.87,0,.87,0c7.12-11.31,16.75-26.3,23.73-37.69l5.73-9.42,4.44-.22,4.41-.21,4.39-.2,4.37-.2c-7.53,14.08-17.46,32.92-25.3,46.83l3.49-.17,3.47-.16,3.46-.16,3.44-.15,6.76-.29,6.64-.27,6.52-.25,6.39-.23,1.09,0,1.09,0,1.08,0,1.08,0c49.45-88.65,83.45-164.52,110.89-290" transform="translate(-249.85 -56.86)"/><path class="cls-5" d="M1407.64,722.19q-4.47-.16-9.17-.29t-9.62-.23q-4.93-.1-10.08-.17t-10.54-.1l-3.14,11.12c-26.88,83.8-53.88,157.53-134.78,278.77q7.63-.24,14.88-.41t14.1-.3q6.85-.12,13.32-.18t12.53-.07h2.72c11-15.46,25.79-36.07,36.26-51.91l-5,0-5.15,0h-5.29l-5.43,0c35.47-59.15,72.15-120.32,104.41-236.18" transform="translate(-249.85 -56.86)"/><path class="cls-5" d="M1461.09,726.26q-2.75-.38-5.73-.74t-6.2-.68q-3.22-.33-6.66-.62t-7.13-.56l-2.77,11c-25,84.12-51,157.84-137.29,275.72q5.73,0,11.06.14t10.26.25q4.93.15,9.46.35t8.65.45l.46,0,.46,0,.46,0,.46,0c11.4-15.24,26.65-35.55,37.4-51.26l-3.31-.26-3.46-.25-3.6-.23-3.74-.21c44.16-71,75.05-125.64,101.21-233.2" transform="translate(-249.85 -56.86)"/></g></g></g><g class="cls-3"><g class="cls-3"><g class="cls-6"><path d="M998.58,687.66q-16.36,1.26-32.82,2.6c-75.21,143.81-75.21,143.81-75.57,145.17-5,19,11.23,36.31,29,30.9a34.18,34.18,0,0,0,4.4-1.86L933.68,859c-62.35,146.14-73.63,176.38-74.81,181.4-3.41,14.53,10.32,31,26.25,25.49,6.42-2.23,9.48-6.66,11.31-9.31,58.68-94.53,120.39-187.11,180.37-280.8,7.44-24.52,17.39-57.21,24.45-81.85-70,114.79-144.46,226.81-214.5,341.59C897,1011.29,897,1011.29,992.23,793c-21.12,11.49-49.29,26.8-70.38,38.35,48.38-89.83,54.38-101.25,76.73-143.71m81.52-24.08c-8.1,6.78-18.19,12.24-30,16.21-9.79,16.11-22.75,37.63-32.63,53.68l84.09-40.72c3.15-11.32,3.15-11.32,3.61-12.62l-1.53.1a21.66,21.66,0,0,1-12.36-3c-1.69-1-6.44,1.1-7.38,1.54l-8.91,4.4,8.16-13.63a28.71,28.71,0,0,1-3.06-5.95m113.09-503.26a12.74,12.74,0,0,0-2.41.28c-141.19,30.85-141.19,30.85-143.08,31.39-2.69.77-9.1,3.55-10.44,12.64-7.95,58.21-9.38,68.69-24.54,138.72l11.6-.81c7.06-.48,12.5-.79,18.78-1.07,11.82-60.79,15-77.12,21.38-137.88,47.36-10.43,94.77-20.6,142.11-31.09-7.88,55.7-10.53,74.46-43.1,161.89q12.48-.59,24.77-1.12c11.34-32.93,34.94-101.46,36.1-142.21.35-12.27-16.3-30.9-31.16-30.75" transform="translate(-249.85 -56.86)"/><path class="cls-7" d="M1050.11,679.8c-14,4.42-30.61,6.2-45,7.37l-6.48.5c-34.37,65.09-34.37,65.09-76.73,143.71C943,819.85,971.09,804.49,992.23,793c-90.7,207.27-90.7,207.27-105.48,242.48,70.13-114.73,144.55-226.75,214.5-341.59l.32-1.16-84.09,40.72c9.79-16.1,22.95-37.51,32.63-53.68m156.47-507.28c-47.36,10.4-94.77,20.61-142.11,31.09-6.3,56.78-7.61,68.59-21.38,137.88,33.66-1.29,65.45-2.51,88.58,23.63,1.9-19.06,2.86-28.62,18.2-30l13.62-.66c27.68-75.59,34.54-95.95,43.1-161.89" transform="translate(-249.85 -56.86)"/><path d="M1149.38,836.19c-9,23.44-20.9,54.71-30.21,78,18.15-2,21.57-5,30.49-26.87,20.4-51.47,20.4-51.47-.28-51.14m37.37-109.57c-6.39,19.49-14.69,45.55-21.39,64.94,15.22-1.65,18-1.95,22.11-9.4.25-.44,22.45-46.35,13.2-54-1.68-1.38-5.84-1.85-13.93-1.57m41-55.53a20.12,20.12,0,0,1-9.15,2.78c-36.68,1.69-74.61,3.79-113.39,6.26-.22.67-.52,1.55-.72,2.23l-2.89,10.4-.32,1.16c-7.23,24.58-16.85,57.38-24.45,81.85-20.11,61.95-32.25,99.34-65.76,191.81a23.92,23.92,0,0,0-.87,2.8c-2.87,13.42,3.5,27.24,19.13,27.16q34.5-2.53,68.19-4.66c36.07-2.42,49.18-6,60.76-11.74-4.86-9.62-1.82-19.27,1.58-25.68l2.85-5c-7.48,3.59-17.18,7-53.26,9.36q-34.44,2.13-69.85,4.69c47.91-127.27,64.1-175.24,96.2-285.15q33.48-2,65.9-3.58c119.88-5.12,36.84,113.62,35.76,114.83-9.63,10.73-25.67,15.6-32.52,17.68,10.53,2.86,21.37,7.68,21.93,21.66,15.8-32.93,43.84-74.76,50.88-110.6,0-.25,1.56-28.38-19.9-47.09q-10.36.4-20.88.85a19.39,19.39,0,0,1-9.21-2" transform="translate(-249.85 -56.86)"/><path d="M1346,735.82c-19,45.53-30.28,68.89-55,120.07q9.46-.28,18.59-.5c17.71-51.91,27.35-85.34,36.37-119.58m46.32-82.25-9.06,0c-3.2,9.77-8.8,15.19-16.18,15.68q-24.1.29-50.74,1c-4.58-.15-4.58-.15-17.72.5l-1.77.05-19.13,48.45c-14.72,33.42-37.07,76.79-50.88,110.6-4.83,11.83-4.49,25-9.31,36.79-19.4,45.76-30.09,71-54.85,83.73-16.51,29.24,1.19,38.39,9.14,38.25q28.85-1.44,56.52-2.49c5.42-.52,9-2.18,14.05-6.58,1.84,2.41,4.36,5.72,10.69,5.71q26.22-.84,49.84-1.25a29,29,0,0,0,3.59-.6c-10.75-9.15-5.85-23.41-2-31.09l.53-1q-17.68.35-36.75.93l20.86-48.16q-9.44.26-19.22.58l-26.74,48.43-3.69.14q-26.46,1-54.05,2.32c44.16-78,94.21-166.42,137.59-284.4q40.95-1,75.78-1c-13.65,77.16-15.08,85.23-31,143,40-112.39,56.5-158.91,24.49-159.51" transform="translate(-249.85 -56.86)"/><path d="M1468.77,654.64q-19.32-.69-41.66-.94c-3,.37-10.87,1.34-15.13,17.59l-3.42,14c-21.7,76.76-22.54,79.75-40.74,127.79-23.34,74-25.78,81.73-49,138q-6.77.1-13.75.24c-9.26,18.1-4.59,32.37,5.61,32.58q36.47-.54,66.38-.06a21.19,21.19,0,0,0,3.72-.77c2.19-10.27-.77-21.22,4.19-31.12l.54-1q-26.87-.37-58.83,0c61.35-122.9,77.78-170.26,106.28-280.65q21.87.31,40.73,1.06c-23.32,96.87-31.13,122.41-76.85,226.13q8,.09,15.5.24l7-15.19-4-.08c43.22-102.7,87.57-225.59,53.44-227.86" transform="translate(-249.85 -56.86)"/><path d="M1402.65,951.3c57.89-114.79,74.86-161.61,100.89-278.32q16.26,1.1,29.43,2.61c-19.5,96.52-26.48,121.87-70.3,224.17q9.26.58,17.48,1.31l-26.22,52.64q-22.16-1.67-51.29-2.4m127.12-292.67q-13.63-1.45-30.35-2.5c-2.23.26-8.15,1-11.67,17.05-19,80.85-26.06,111.1-68.41,209.42l-7,15.19,8.24.19-26.83,53.14-8.24-.13c-8.71,16.55-8.52,31.69.41,33.06q28.88.61,51,2.18c2.46-.47,7.59-1.45,15.34-14.77,33-63.3,43-82.4,28.74-85.92l-3-.24c58.56-145.1,70.37-223.86,51.77-226.65" transform="translate(-249.85 -56.86)"/><path d="M426.7,405.23c-44.21,6.35-86.29,12.89-125.42,19.53-3.61,1-13.19,3.55-19.21,19.37-23.68,73.28-30,93-2.31,90.48l4.89-.85c-58.56,246.3-29.31,243.57-11.83,241.93q26.22-4.77,54.48-9.49c3.67-1,13.42-3.71,15.69-20.53C355.44,647,360.9,614.11,386,517.48l4.6-.69,10.82-37.47q-11.08,1.64-22,3.29c-30.3,108.24-36,135.76-50.87,245.43q-28.63,4.73-55.32,9.53C286.44,622.37,292.56,594.82,321,491.8q-16.78,2.75-32.91,5.51l19-58.43c35.55-6,73.42-11.84,113.05-17.58,3.31-7.69,6.83-11.81,13.45-15.73a18.84,18.84,0,0,0-6.88-.34" transform="translate(-249.85 -56.86)"/><path d="M587.46,384.07q-33,4-65.19,8.14c-4.61.8-4.61.8-19.12,2.5q-31.83,4.2-62.52,8.54c-9.52,1.91-16.41,8-20.5,18.06l14.08-2-18.59,57.95-14.22,2.08-10.82,37.47c-62,245.36-39.5,243.59-15.68,241.72q29.68-4.65,60.95-9.2c4.33-.93,5.34-1.37,8.95-3.9a20.59,20.59,0,0,0,9.85,1.2q31.66-4.51,64.6-8.89c4.31-1,15.75-3.55,19.27-20.38,3.37-19.07-7.28-35.84-8.87-54.09l-6.71,36.23q-33.24,4.38-65.3,8.9c13.9-79.47,15-86,25.25-130.41l-19.52,2.67c-17.37,82.72-17.7,84.3-24.81,130.46q-31.6,4.56-61.71,9.22c18.84-123.86,32.2-180.5,71.47-303q31-4.34,63.23-8.55C501.8,439.91,489.2,481.6,480.27,513l19.58-2.62c9-31.34,21.29-73,31-104.16q30.15-3.86,61.07-7.57a28.57,28.57,0,0,1,7.73-11.49c-3.21-3.52-9-3.46-12.22-3.1" transform="translate(-249.85 -56.86)"/><path d="M768.1,364.22q-34.24,3.41-68.26,7.05c-4.66.69-4.66.69-19.5,2.11q-33.86,3.71-67.19,7.62c-12.94,2.28-18.67,10.86-21.21,17.65l4.83-.58C553.83,542,527,656.31,531.58,676c15.25,65.69,91.91,65.51,139.07,40.28A126.82,126.82,0,0,0,702,692.37a29.87,29.87,0,0,1-.28-13.3l9.25-42c-40.16,68.3-135.28,73.64-148.07,22.33-2.62-10.5-4.51-18.08,12.32-89.86,18.54-74.27,21.88-87.66,47.38-174.5q33.6-3.91,67.76-7.61c-73.61,265-64.63,260.12-49.75,252,4.47-2.45,6.93-5,13.76-35.61,17.76-75.84,25.11-107.23,55.64-218.49q31.79-3.38,63.82-6.55a25,25,0,0,1,6.56-10.67l-.25-1.94a24.71,24.71,0,0,0-12.09-1.94" transform="translate(-249.85 -56.86)"/><path d="M947.2,348.24q-28.29,2.23-56.86,4.67c-8.51,1.24-13.17,4.18-17.81,11.24-3-2.8-9.13-8.61-20.58-7.88q-28.63,2.57-57.3,5.34c-13.26,2-18.61,10.45-20.77,17.15l5-.49C714.75,630.43,714.75,630.43,711,637.06c-10.73,48.75-17.21,78.17,18.07,75.54q29.5-3.17,59.23-6.17c8-1.26,12.56-4.06,17.59-10.68,6.26,5.51,11.32,7.35,19.36,7q31.19-3,62.38-5.83a24.08,24.08,0,0,0,13.85-6.09c-7.11-4.92-14.94-14.2-11.86-30.52l.28-1.17q-29.27,2.62-58.59,5.43c-2.72-82.69-2.72-82.69-4.69-136.23-5.63,24.17-5.63,24.17-32.5,139.87q-29.85,3-59.54,6.14c27.32-121.2,27.32-121.2,70.95-298.69q28.88-2.76,57.73-5.32c6.6,77.53,6.73,79,10,125.81,16.05-70.87,19.39-85.62,28.48-129.15q26.74-2.26,53.27-4.33A22.21,22.21,0,0,1,961,352.06c-4.21-3.85-10.44-4-13.79-3.81" transform="translate(-249.85 -56.86)"/><path d="M1045.93,403c-9.52,53.59-18.52,104.21-39.56,195.2,20.74-1.85,23.15-5.31,32.26-46.19,31.4-150.46,31.4-150.46,7.3-149m-21.62-60.44-11.6.81q-19.08,1.34-38.37,2.79c-7,.81-16,4.33-19.29,16.55l3.93-.31C943.65,442,932.31,498.86,894,658.81l-4.13.37c-4.84,21.15,10.12,36.32,26.21,35.26q24.89-2.16,49.64-4.17,16.46-1.34,32.82-2.6l6.48-.5c33.82-2.72,53.59-6.87,74.45-23.09-.81-16.69-.81-16.69-.41-18.61l7.15-28.64c-18.47,27.88-46.84,30.12-74.28,32.28q-44.29,3.34-89.31,7.2c37.23-154.85,48.83-215.11,63.51-296q25.29-1.87,50.22-3.56c54.53-3.49,83.44-3.9,93.24,26.5l2-18.16c-22.48-25.41-51.34-26.39-107.36-22.56" transform="translate(-249.85 -56.86)"/><path d="M1241.3,509.66q-17.79.71-36,1.55c-3.85,19.95-8.7,46.6-12.93,66.46q18.49-.92,36.57-1.7l3.43-16.89a19,19,0,0,0-2.7-.08l-14.93.66,2.24-11.39,17.64-.77,6.71-37.84m13.12-109.36q-9.82.32-20,.7l-14.36.55L1214,455.41q15.86-.68,31.38-1.26l3.91-.14,1.59-13.89a20.37,20.37,0,0,0-9.09-1.84l-7.66.29.25-2.11,7.58-.29,9.38-.34,3.09-35.52m-4-69.28q-16.47.49-33.89,1.14-14,.52-28.27,1.13-12.28.53-24.77,1.12l-13.62.66c-10.13,1.39-15,6.26-16.88,16.82l-1.32,13.23c-3.13,27.94-1.27,56.21-5.6,84.07-19.72,111.81-27.34,147.38-39.81,167.64-7.79,31.21-15.84,63.49,17.4,63.41l1.53-.1c38.78-2.47,76.71-4.57,113.39-6.26a20.2,20.2,0,0,0,8.62-2.48c-8.23-7.89-16.74-16-12.64-33.67l.29-1.15c-33.7,1.57-68.45,3.48-103.93,5.7,32.6-135.84,41.83-197.58,51.31-292.82q29.84-1.44,58.53-2.51,18.45-.69,35.85-1.19c.62-7,2.74-9.43,4.79-11.74a22.06,22.06,0,0,0-11-3" transform="translate(-249.85 -56.86)"/><path d="M1335.19,390.46c-.51,18.7-.74,43.65-1.91,62.31,13.37-.38,16.3-2.64,17-25.73.53-30.23.64-36.52-15.06-36.58m-90.93,244.81c29.29-128,36-179.57,37.85-290.2q19.23-.44,37-.65c46.86-.36,54.84,2.45,65.69,23.12,11.07,21.09,15,86.79-.27,101.55-5.89,5.7-14,7-17.51,7.6,28.18,11.09,25.28,34.17,20,76.07-3.81,23.74-8.7,55.44-13.48,79q-23.9.23-50.35.87c27.29-134.81,24-134.8,6-134.74-10.54,75.6-11.65,83.51-23.6,135.2q-19.46.56-40.2,1.33-10.53.39-21.22.83m63.19-305.51q-17.94.25-37.29.73c-10.42.93-13.13,8.81-13.57,15.26l6-.17-1.91,54.53-6.22.2-3.09,35.52-.46,4.29L1249.28,454l3.85-.14-7.87,55.64-4,.16-6.71,37.84-2.24,11.58L1228.91,576l11-.47-14,60.55-11.06.5c-5.09,21.08,7.46,36.65,22.08,36.49q10.52-.45,20.88-.85l8.75-.33q15.5-.58,30.28-1l1.77-.05c4.77-.42,4.77-.42,17.72-.5q26.63-.7,50.74-1c10.69-1.27,15-10.42,16.76-17.87,20.93-106.82,22.76-128.53,13-154.83,15.76-25.19,14.09-95.44-3-127.39-21.53-40.18-43.19-39.94-86.35-39.45" transform="translate(-249.85 -56.86)"/><path class="cls-8" d="M434.22,419.29l-14.08,2c-39.63,5.73-77.51,11.61-113.05,17.58l-19,58.43q16.13-2.77,32.91-5.51c-29.9,108.47-35.26,136-47.77,245.76q26.65-4.79,55.32-9.53c15.66-115.13,22-142.63,50.87-245.43q10.88-1.65,22-3.29l14.22-2.08,18.59-57.95" transform="translate(-249.85 -56.86)"/><path class="cls-8" d="M596.78,398.09l-4.83.58q-30.89,3.71-61.07,7.57c-9.65,31.14-22.15,72.79-31,104.16L480.27,513c9-31.39,21.43-73.14,31.28-104.28q-32.17,4.2-63.23,8.55c-39.45,123.25-52.81,179.89-71.47,303q30.07-4.66,61.71-9.22c13.53-79.39,14.63-85.88,24.81-130.46L482.89,578c-17.56,82.69-17.9,84.27-25.25,130.41q32-4.52,65.3-8.9l6.71-36.23c18.78-91.16,30.3-144.35,67.13-265.15" transform="translate(-249.85 -56.86)"/><path class="cls-8" d="M778.88,378.27l-5,.49q-32,3.17-63.82,6.55c-21.83,80-36.23,161.85-61.31,241-6.64,21-17.89,13.51-18.68,11.51-1-2.56-.84-8.25,3.33-27.7,18-77.59,25.45-109.7,57-222.72q-34.13,3.7-67.76,7.61c-54.59,186.24-63.18,243.55-60.78,258.84,7.94,50.53,73,44.21,105.64,26.65,43.42-23.35,51.49-57.95,62.67-105.83,18.4-76.8,20.76-86.66,48.7-196.43" transform="translate(-249.85 -56.86)"/><path class="cls-8" d="M959,362.4l-3.93.31q-26.51,2.07-53.27,4.33c-15.6,72.89-15.6,72.89-28.48,129.15-5.95-79.7-6.18-82.82-10-125.81q-28.83,2.56-57.73,5.32c-43.66,177.59-43.66,177.59-70.95,298.69q29.67-3.15,59.54-6.14c28.18-121.46,28.18-121.46,32.5-139.87,3,82.47,3.2,89.21,4.69,136.23q29.3-2.81,58.59-5.43l4.13-.37C932.56,497.7,943.81,441.22,959,362.4" transform="translate(-249.85 -56.86)"/><path class="cls-8" d="M1006.37,598.19c16.25-72.43,27-120.28,39.56-195.2,21.49-1.29,20.58,4.07,15.53,33.81-29.83,159.13-29.83,159.13-55.09,161.39m30-241.41q-24.92,1.68-50.22,3.56c-16.2,89.09-27.75,147.34-63.51,296q44.94-3.85,89.31-7.2c71.63-5.65,80.24-29,94.6-95.87,39.62-199.91,40.38-203.73-70.18-196.46" transform="translate(-249.85 -56.86)"/><path class="cls-8" d="M1262.55,345.57l-6,.17q-17.4.51-35.85,1.19-28.66,1.07-58.53,2.51c-10.06,100.42-19.32,159.76-51.31,292.82,35.48-2.22,70.23-4.13,103.93-5.7l11.06-.5,14-60.55-11,.47q-18.08.78-36.57,1.7c3.91-19.93,9.41-46.46,12.93-66.46q18.22-.84,36-1.55l4-.16,7.87-55.64-3.85.14-3.91.14q-15.51.58-31.38,1.26l6.11-53.85,14.36-.55q10.13-.38,20-.7l6.22-.2,1.91-54.53" transform="translate(-249.85 -56.86)"/><path class="cls-8" d="M1333.28,452.77c.64-18.69,2-43.61,1.91-62.31,12.25,0,15.26,4.21,15.33,21.19-.66,37.79-1.1,40.66-17.24,41.12m-14.14-108.34q-17.8.21-37,.65c-1.82,104.94-7,155.76-37.85,290.2q10.69-.44,21.22-.83,20.74-.77,40.2-1.33c16.43-78.41,17.42-83.1,23.6-135.2,14.16.19,16.69,1.28,12.28,34.79-4.92,30.08-12,70.13-18.3,99.95q26.44-.64,50.35-.87c22.82-126.24,24.54-142.83-6.55-155.08,49.13-8,23.25-112,4.87-125.18-4.43-3.17-10.5-7.5-52.78-7.09" transform="translate(-249.85 -56.86)"/><path class="cls-8" d="M1119.16,914.2c9.17-23.36,21.41-54.51,30.21-78,19-.3,19.69,1.34,10.6,25.11-20.05,50.58-20.05,50.58-40.81,52.9m46.2-122.64c6.45-19.47,15.26-45.36,21.39-64.94,12.57-.44,16.54-.14,16.27,9.17-.27,9.52-12.68,44-17.94,49.85-3.77,4.19-4.36,4.26-19.72,5.92m36.3-115.83q-32.38,1.59-65.9,3.58c-32.35,110.61-48.53,158.58-96.2,285.15q35.36-2.56,69.85-4.69c49.14-3.22,69.48-4.55,97.2-67.38,22.51-53.07,31.82-75-1.72-84.16,67.34-20.42,68.32-114.79,44.24-127.39-8.5-4.44-24.47-6.16-47.47-5.11" transform="translate(-249.85 -56.86)"/><path class="cls-8" d="M1291,855.9c24.68-51.18,36-74.54,55-120.07-9,34.23-18.66,67.67-36.37,119.58q-9.13.22-18.59.5m107.81-185.77q-34.81,0-75.78,1c-27.14,69.67-55.2,141.72-137.59,284.4q27.56-1.34,54.05-2.32l3.69-.14,26.74-48.43q9.78-.32,19.22-.58l-20.86,48.16q19.06-.58,36.75-.93,7-.14,13.75-.24c27.4-69.17,31.61-79.8,49-138,19.33-75,21.81-84.58,31-143" transform="translate(-249.85 -56.86)"/><path class="cls-8" d="M1473.67,671.4q-18.85-.74-40.73-1.06c-28.75,111-45.22,158.48-106.28,280.65q31.94-.4,58.83,0l8.24.13L1420.56,898l-8.24-.19q-7.54-.15-15.5-.24c44.07-100.11,52.69-125.47,76.85-226.13" transform="translate(-249.85 -56.86)"/><path class="cls-8" d="M1533,675.58q-13.17-1.5-29.43-2.61C1478.67,784,1463.31,831.2,1402.65,951.3q29.1.71,51.29,2.4l26.22-52.64q-8.22-.72-17.48-1.31c42.23-98.75,50.11-123.89,70.3-224.17" transform="translate(-249.85 -56.86)"/></g></g></g><path class="cls-9" d="M319.89,494c-42.72,139.82-47,244.87-47,244.87S310,733.53,329,729.21c10-125.41,49.33-244.33,49.33-244.33l36.15-5.32,18.21-57.3L304.25,438.59l-17.32,60.88Z" transform="translate(-249.85 -56.86)"/><path class="cls-10" d="M1502.2,674.67c4.36-.08,23.4-.6,31.61.88-4.76,27.36-18.21,117.26-70.8,224.89,14.47-.65,17.1,2.57,17.1,2.57l-27,55.46s-42.87-5-50.37-4.63C1424.67,905.05,1463.3,852,1502.2,674.67Z" transform="translate(-249.85 -56.86)"/></svg>