<svg id="Layer_2" data-name="Layer 2" xmlns="http://www.w3.org/2000/svg" xmlns:xlink="http://www.w3.org/1999/xlink" viewBox="0 0 142.5 227.45"><defs><style>.cls-1{fill:url(#linear-gradient);}.cls-2{fill:url(#linear-gradient-2);}.cls-3{fill:url(#linear-gradient-3);}.cls-4{fill:url(#New_Gradient_Swatch_copy);}.cls-5{fill:url(#New_Gradient_Swatch_copy-2);}.cls-6{fill:url(#New_Gradient_Swatch_copy_3);}.cls-7{fill:url(#New_Gradient_Swatch_copy_3-2);}.cls-8{fill:url(#New_Gradient_Swatch_copy_3-3);}.cls-9{fill:url(#New_Gradient_Swatch_copy_3-4);}.cls-10{fill:url(#New_Gradient_Swatch_copy-3);}.cls-11{fill:url(#New_Gradient_Swatch_copy-4);}.cls-12{fill:url(#New_Gradient_Swatch_copy-5);}.cls-13{fill:url(#New_Gradient_Swatch_copy-6);}.cls-14{fill:url(#linear-gradient-4);}.cls-15{fill:url(#linear-gradient-5);}.cls-16{fill:url(#red);}.cls-17{fill:url(#New_Gradient_Swatch_copy_3-5);}.cls-18{fill:url(#red-2);}.cls-19{fill:url(#red-3);}.cls-20{fill:url(#red-4);}.cls-21{fill:url(#New_Gradient_Swatch_copy_3-6);}.cls-22{fill:url(#New_Gradient_Swatch_copy_3-7);}.cls-23{fill:url(#New_Gradient_Swatch_copy_3-8);}.cls-24{fill:url(#New_Gradient_Swatch_copy_3-9);}.cls-25{fill:url(#New_Gradient_Swatch_copy_3-10);}.cls-26{fill:url(#linear-gradient-6);}</style><linearGradient id="linear-gradient" x1="1418.09" y1="-758.63" x2="1415.91" y2="-777.59" gradientTransform="matrix(0.17, 0.56, -0.37, 0.41, -452.89, -463.94)" gradientUnits="userSpaceOnUse"><stop offset="0" stop-color="#1a223e"/><stop offset="0.34" stop-color="#2467b0"/><stop offset="0.39" stop-color="#2e78bc"/><stop offset="0.48" stop-color="#3b8fcd"/><stop offset="0.56" stop-color="#439cd7"/><stop offset="0.63" stop-color="#46a1da"/><stop offset="0.68" stop-color="#459ed8"/><stop offset="0.72" stop-color="#4194d1"/><stop offset="0.76" stop-color="#3b84c5"/><stop offset="0.78" stop-color="#3778bc"/><stop offset="1" stop-color="#2256a4"/></linearGradient><linearGradient id="linear-gradient-2" x1="358.06" y1="674.88" x2="357.8" y2="681.27" gradientTransform="matrix(0.04, 0.6, -1, 0.04, 716.86, -225.65)" xlink:href="#linear-gradient"/><linearGradient id="linear-gradient-3" x1="822.15" y1="1361.68" x2="821.04" y2="1388.94" gradientTransform="matrix(-0.58, 0.15, -0.22, -0.97, 905.82, 1296.03)" xlink:href="#linear-gradient"/><linearGradient id="New_Gradient_Swatch_copy" x1="347.86" y1="1864.13" x2="339.52" y2="1887.61" gradientTransform="matrix(0.3, -0.65, 0.54, 0.24, -1006.78, -146.66)" gradientUnits="userSpaceOnUse"><stop offset="0" stop-color="#ef7b1e"/><stop offset="0.3" stop-color="#ffd75a"/><stop offset="0.3" stop-color="#ffd75a"/><stop offset="0.42" stop-color="#ffd971"/><stop offset="0.53" stop-color="#ffda7e"/><stop offset="0.63" stop-color="#ffda83"/><stop offset="0.76" stop-color="#ffd86e"/><stop offset="0.85" stop-color="#ffd75a"/></linearGradient><linearGradient id="New_Gradient_Swatch_copy-2" x1="-125.35" y1="1519.14" x2="-127.83" y2="1529.01" gradientTransform="matrix(1.06, 0.14, -0.15, 1.14, 440.55, -1580.62)" xlink:href="#New_Gradient_Swatch_copy"/><linearGradient id="New_Gradient_Swatch_copy_3" x1="321.49" y1="407.17" x2="305.62" y2="395.45" gradientTransform="matrix(0.75, 0.55, -0.23, 0.74, -21.94, -433.99)" gradientUnits="userSpaceOnUse"><stop offset="0" stop-color="#366629"/><stop offset="0.34" stop-color="#71b62e"/><stop offset="0.53" stop-color="#99c31e"/><stop offset="0.63" stop-color="#a9c818"/><stop offset="0.75" stop-color="#a6c719"/><stop offset="0.84" stop-color="#9cc41d"/><stop offset="0.92" stop-color="#8cbf23"/><stop offset="0.99" stop-color="#75b72c"/><stop offset="1" stop-color="#71b62e"/></linearGradient><linearGradient id="New_Gradient_Swatch_copy_3-2" x1="-21.3" y1="1146.21" x2="-33" y2="1158.37" gradientTransform="translate(1061.71 743.01) rotate(115.35)" xlink:href="#New_Gradient_Swatch_copy_3"/><linearGradient id="New_Gradient_Swatch_copy_3-3" x1="-192.1" y1="157.22" x2="-201.12" y2="146.78" gradientTransform="translate(34.42 -9.78) rotate(-66.38)" xlink:href="#New_Gradient_Swatch_copy_3"/><linearGradient id="New_Gradient_Swatch_copy_3-4" x1="1130.22" y1="1097.18" x2="1131.47" y2="1072.05" gradientTransform="translate(145.05 -1384.36) rotate(48.68)" xlink:href="#New_Gradient_Swatch_copy_3"/><linearGradient id="New_Gradient_Swatch_copy-3" x1="301.95" y1="920.38" x2="308.82" y2="938.77" gradientTransform="translate(-431.69 -652.82) rotate(-16.48)" xlink:href="#New_Gradient_Swatch_copy"/><linearGradient id="New_Gradient_Swatch_copy-4" x1="-619.74" y1="1711.6" x2="-643.98" y2="1698.55" gradientTransform="translate(1253.64 -1198.6) rotate(18.87)" xlink:href="#New_Gradient_Swatch_copy"/><linearGradient id="New_Gradient_Swatch_copy-5" x1="1445.54" y1="2090.52" x2="1450.64" y2="2090.79" gradientTransform="matrix(-1.57, -0.92, 0.85, -1.45, 562.98, 4444.53)" xlink:href="#New_Gradient_Swatch_copy"/><linearGradient id="New_Gradient_Swatch_copy-6" x1="1604.45" y1="1760" x2="1617.63" y2="1761.34" gradientTransform="matrix(1.34, -1.57, 2.38, 2.04, -6269.31, -1004.32)" xlink:href="#New_Gradient_Swatch_copy"/><linearGradient id="linear-gradient-4" x1="1096.7" y1="2005.92" x2="1057.57" y2="2011.36" gradientTransform="matrix(0.69, 0.28, -0.27, 0.67, -176.03, -1449.81)" xlink:href="#linear-gradient"/><linearGradient id="linear-gradient-5" x1="1445.98" y1="2720.9" x2="1429.94" y2="2723.13" gradientTransform="matrix(0.52, 0.54, -0.52, 0.5, 737.92, -1907.94)" xlink:href="#linear-gradient"/><linearGradient id="red" x1="313.85" y1="-1152.44" x2="304.19" y2="-1162.7" gradientTransform="translate(-303.99 1157.04) rotate(4.75)" gradientUnits="userSpaceOnUse"><stop offset="0" stop-color="#5a0d00"/><stop offset="0.34" stop-color="#d8191b"/><stop offset="0.35" stop-color="#d91b1c"/><stop offset="0.45" stop-color="#e13224"/><stop offset="0.54" stop-color="#e63f29"/><stop offset="0.63" stop-color="#e8442b"/><stop offset="0.68" stop-color="#e7412a"/><stop offset="0.72" stop-color="#e33726"/><stop offset="0.75" stop-color="#dd2720"/><stop offset="0.78" stop-color="#d8191b"/><stop offset="1" stop-color="#d8191b"/></linearGradient><linearGradient id="New_Gradient_Swatch_copy_3-5" x1="460.64" y1="-638.63" x2="451.08" y2="-645.69" gradientTransform="translate(-467.95 611.67) rotate(7.57)" xlink:href="#New_Gradient_Swatch_copy_3"/><linearGradient id="red-2" x1="-1580.58" y1="-2343.77" x2="-1588.01" y2="-2355.73" gradientTransform="matrix(0.54, 2.42, -1.63, 0.36, -2925.97, 4836.75)" xlink:href="#red"/><linearGradient id="red-3" x1="-1647.67" y1="-1542.26" x2="-1654.99" y2="-1554.04" gradientTransform="translate(-1322.28 1876.21) rotate(87.2)" xlink:href="#red"/><linearGradient id="red-4" x1="561.59" y1="-174.56" x2="549.96" y2="-186.92" gradientTransform="matrix(0.39, 0.92, -0.92, 0.39, -306.57, -332.06)" xlink:href="#red"/><linearGradient id="New_Gradient_Swatch_copy_3-6" x1="449.05" y1="614.42" x2="449.85" y2="598.33" gradientTransform="matrix(0.69, 0.73, -0.73, 0.69, 244.79, -635.16)" xlink:href="#New_Gradient_Swatch_copy_3"/><linearGradient id="New_Gradient_Swatch_copy_3-7" x1="562.44" y1="650.29" x2="548.94" y2="657.38" gradientTransform="matrix(0.57, 0.82, -0.82, 0.57, 357.87, -703.32)" xlink:href="#New_Gradient_Swatch_copy_3"/><linearGradient id="New_Gradient_Swatch_copy_3-8" x1="637.48" y1="105.55" x2="631.34" y2="99.16" gradientTransform="translate(-623.6 314.75) rotate(-18.41)" xlink:href="#New_Gradient_Swatch_copy_3"/><linearGradient id="New_Gradient_Swatch_copy_3-9" x1="323.63" y1="1008.69" x2="321.57" y2="1000.55" gradientTransform="translate(1105.39 -129.27) rotate(92.08)" xlink:href="#New_Gradient_Swatch_copy_3"/><linearGradient id="New_Gradient_Swatch_copy_3-10" x1="577.11" y1="1207.19" x2="577.79" y2="1193.54" gradientTransform="matrix(-0.72, 0.69, -0.69, -0.72, 1339.95, 535.59)" xlink:href="#New_Gradient_Swatch_copy_3"/><linearGradient id="linear-gradient-6" x1="2707.22" y1="1517.78" x2="2702.04" y2="1509.92" gradientTransform="matrix(-1.09, 0.46, -0.38, -0.92, 3645.44, 342.28)" xlink:href="#linear-gradient"/></defs><title>confetti_BG</title><path class="cls-1" d="M81.84,9.2c-0.51,1.3-3.08,5.06-4.65,6A25.47,25.47,0,0,0,83,21.07,12.08,12.08,0,0,0,86.22,15,21.91,21.91,0,0,1,81.84,9.2Z" transform="translate(-5.95 -9.2)"/><path class="cls-2" d="M51,14.74a6.24,6.24,0,0,1,2.59,2.75A13.6,13.6,0,0,0,56,13.86a6,6,0,0,0-3.36-1.08A5.07,5.07,0,0,1,51,14.74Z" transform="translate(-5.95 -9.2)"/><path class="cls-3" d="M125,64c-2.19,5.35-5.75,11.12-9.5,13a58,58,0,0,0,17,7c2.44-4.43,2.58-11.09,1.9-14.93A21.6,21.6,0,0,1,125,64Z" transform="translate(-5.95 -9.2)"/><path class="cls-4" d="M110.55,85.47c0.21-2.66-.32-5-2.52-8.29A85,85,0,0,0,95.71,89.59a10.53,10.53,0,0,0,4.45,8.21C102.15,95.28,107.36,87.69,110.55,85.47Z" transform="translate(-5.95 -9.2)"/><path class="cls-5" d="M74.33,136.94c1.62-.53,3-1.54,4.55-4a44.25,44.25,0,0,0-9.31-6,8.72,8.72,0,0,0-4.21,5.45C67.18,133.23,72.51,135.14,74.33,136.94Z" transform="translate(-5.95 -9.2)"/><path class="cls-6" d="M113.21,36.58c2,2.07,4.78,7.54,4.92,9.45,3-2.14,10.27-5.95,12.88-6.58-0.52-3.3-4.12-9.27-6.43-10.69C122.38,29.61,114.47,34.77,113.21,36.58Z" transform="translate(-5.95 -9.2)"/><path class="cls-7" d="M31.32,219.08c-1,1.3-4.08,2.83-5.27,2.76a70.39,70.39,0,0,1,6,10.13c2-.08,5.27-2.18,5.84-3.76C37,226.51,32.64,220.18,31.32,219.08Z" transform="translate(-5.95 -9.2)"/><path class="cls-8" d="M93.23,236.65A6.79,6.79,0,0,1,97,234.53a51.26,51.26,0,0,1-4.6-7.24c-1.46.1-3.79,1.7-4.17,2.86A42,42,0,0,0,93.23,236.65Z" transform="translate(-5.95 -9.2)"/><path class="cls-9" d="M83.63,179.05a92.56,92.56,0,0,1-13.21-4.25c0.45,2.43-1.59,8.39-3.29,10.76A135,135,0,0,0,80,190.44C82.56,186.84,84.32,181.29,83.63,179.05Z" transform="translate(-5.95 -9.2)"/><path class="cls-10" d="M115.91,146.18c0.88,3.1,4.64,7,7,7.71a14.9,14.9,0,0,0,5.45-4.55,38.58,38.58,0,0,1-6.64-8.76A26.15,26.15,0,0,1,115.91,146.18Z" transform="translate(-5.95 -9.2)"/><path class="cls-11" d="M114.15,222c-0.24-2.08,1.23-8.06,2.31-8.73-3.21-1.19-12.15-6.05-15.07-8.5-2.17,2.25-2.52,8.46-2.06,10.82C101.65,217,111.71,221.57,114.15,222Z" transform="translate(-5.95 -9.2)"/><path class="cls-12" d="M68.21,88.62L71.86,85c-1.79-2.32-7.61-5.63-10-5.59L60,84A21.88,21.88,0,0,1,68.21,88.62Z" transform="translate(-5.95 -9.2)"/><path class="cls-13" d="M59.94,62.75L70.6,75.43c6.31-1.78,14.9-12.18,14.46-18L72,48C70.74,53.16,65,60,59.94,62.75Z" transform="translate(-5.95 -9.2)"/><path class="cls-14" d="M16,181.78A41.37,41.37,0,0,1,15,195.42c4.73,0.44,18.65,4.49,24.05,8.05a55.82,55.82,0,0,0,2.45-13C36.77,186.64,20.16,181.86,16,181.78Z" transform="translate(-5.95 -9.2)"/><path class="cls-15" d="M69.43,219.53a17,17,0,0,1-2.63,4.95c1.7,1,6.23,4.8,7.66,7a22.88,22.88,0,0,0,3.08-4.44C76.4,224.83,71,220.26,69.43,219.53Z" transform="translate(-5.95 -9.2)"/><path class="cls-16" d="M101.81,23.61a68.31,68.31,0,0,1-9.2,4.51c2,0.73,4.92,4,6.38,5.78a24.92,24.92,0,0,0,6.7-2.36C105.23,28.29,103.33,24.45,101.81,23.61Z" transform="translate(-5.95 -9.2)"/><path class="cls-17" d="M62.18,35.9a7.64,7.64,0,0,1,3.47,3.42,57.73,57.73,0,0,1,6.41-7.23c-0.57-1.55-3-3.57-4.4-3.62A47.3,47.3,0,0,0,62.18,35.9Z" transform="translate(-5.95 -9.2)"/><path class="cls-18" d="M39.81,146.49c-4.75,3.75-5.3,5.18-7.83,9.24,5.28,6.75,13.17,10.44,18.56,11.2,3-5.13,3.25-12.75,2.45-17.11C49.2,149.21,45.32,149.42,39.81,146.49Z" transform="translate(-5.95 -9.2)"/><path class="cls-19" d="M141.16,147.31a16.14,16.14,0,0,0-5.55,3.19c2.33,3,6.51,4.87,9.55,5.48a9.19,9.19,0,0,0,3.29-6.6C146.32,148.92,144,148.78,141.16,147.31Z" transform="translate(-5.95 -9.2)"/><path class="cls-20" d="M81.73,109.75a82.3,82.3,0,0,1-9.93-7.32c0.35,2.6-1.49,7.45-2.64,10a30,30,0,0,0,6.25,5.85C78.63,116,81.68,111.84,81.73,109.75Z" transform="translate(-5.95 -9.2)"/><path class="cls-21" d="M119.58,105a73.49,73.49,0,0,1-10.6-3c0.42,1.92-1,6.71-2.3,8.63a107.2,107.2,0,0,0,10.33,3.5C119,111.21,120.2,106.76,119.58,105Z" transform="translate(-5.95 -9.2)"/><path class="cls-22" d="M142,123.15a77.72,77.72,0,0,1-10.6-4.84c0.13,2.07-2.15,6.84-3.8,8.64a113.36,113.36,0,0,0,10.22,5.33C140.34,129.54,142.35,125.09,142,123.15Z" transform="translate(-5.95 -9.2)"/><path class="cls-23" d="M10.49,207A46.4,46.4,0,0,1,6,212.32c1.21,0.27,3.56,2.37,4.32,3.62A67.68,67.68,0,0,0,15,211C13.88,209.06,11.66,207.16,10.49,207Z" transform="translate(-5.95 -9.2)"/><path class="cls-24" d="M94.23,158.53a52.42,52.42,0,0,1-3.78-6.89c-0.76,1.17-3.92,2.83-5.54,3.14a76.46,76.46,0,0,0,3.38,7C90.76,161.32,93.64,159.72,94.23,158.53Z" transform="translate(-5.95 -9.2)"/><path class="cls-25" d="M96.85,69.41a62.36,62.36,0,0,1,2.51-9c-1.62.37-5.69-.85-7.33-1.93a91,91,0,0,0-2.95,8.77C91.59,68.91,95.37,69.94,96.85,69.41Z" transform="translate(-5.95 -9.2)"/><path class="cls-26" d="M108.46,176.28c-3.12-.35-6.56-1.29-7.86-2.81a27.68,27.68,0,0,0-2.76,8.87c2.62,0.58,6.34-.2,8.43-1A11,11,0,0,1,108.46,176.28Z" transform="translate(-5.95 -9.2)"/></svg>