<?xml version="1.0" encoding="utf-8"?>
<!-- Generator: Adobe Illustrator 19.2.1, SVG Export Plug-In . SVG Version: 6.00 Build 0)  -->
<svg version="1.1" id="Layer_1" xmlns="http://www.w3.org/2000/svg" xmlns:xlink="http://www.w3.org/1999/xlink" x="0px" y="0px"
	 viewBox="0 0 117 119" style="enable-background:new 0 0 117 119;" xml:space="preserve">
<style type="text/css">
	.st0{fill:none;stroke:#676767;stroke-width:7;stroke-miterlimit:10;}
	.st1{fill:#676767;}
</style>
<g>
	<circle class="st0" cx="58.5" cy="59.5" r="52.2"/>
	<g>
		<path class="st1" d="M24.5,43.4h12.4v34.2h-5.5v-29h-6.9V43.4z"/>
		<path class="st1" d="M49,45.3c2.2-1.7,4.9-2.6,8.2-2.6c3.3,0,6,0.9,8.2,2.6c2.2,1.7,3.3,3.9,3.3,6.5s-1.2,4.9-3.7,7
			c3.3,2.1,4.9,5,4.9,8.8c0,2.9-1.2,5.4-3.5,7.4c-2.3,2-5.4,3-9.2,3s-6.9-1-9.2-3c-2.3-2-3.5-4.4-3.5-7.4c0-3.8,1.6-6.7,4.9-8.8
			c-2.4-2-3.7-4.3-3.7-7S46.8,47.1,49,45.3z M52.4,71.5c1.5,1,3.1,1.4,4.8,1.4c1.7,0,3.3-0.5,4.8-1.4c1.5-1,2.2-2.3,2.2-4.1
			c0-1.8-0.7-3.2-2.1-4.2c-1.4-1-3.1-1.5-4.9-1.5c-1.8,0-3.5,0.5-4.9,1.5c-1.4,1-2.1,2.4-2.1,4.2C50.2,69.2,50.9,70.6,52.4,71.5z
			 M52.9,56c1.2,1,2.7,1.5,4.3,1.5s3.1-0.5,4.3-1.5c1.2-1,1.8-2.2,1.8-3.7c0-1.4-0.6-2.7-1.8-3.6c-1.2-1-2.7-1.5-4.3-1.5
			s-3.1,0.5-4.3,1.5c-1.2,1-1.8,2.2-1.8,3.6C51,53.8,51.7,55,52.9,56z"/>
		<path class="st1" d="M84.4,70.2V61h-9.3v-4.6h9.3v-9.2h4.4v9.2h9.3V61h-9.3v9.3H84.4z"/>
	</g>
</g>
</svg>
