<svg id="Layer_1" data-name="Layer 1" xmlns="http://www.w3.org/2000/svg" viewBox="0 0 38.55 51.97"><defs><style>.cls-1{fill:#ea4443;stroke:#fff;}.cls-1,.cls-2{stroke-miterlimit:10;stroke-width:2px;}.cls-2{fill:none;stroke:#fbd102;}</style></defs><title>Alert</title><path class="cls-1" d="M36.54,22.79c-3.16,0-5.39-3.45-5.41-6.61S27,3.87,19.06,5.5a4.72,4.72,0,0,0-6.34-3.13A4.72,4.72,0,0,0,9.59,8.71C2.33,12.23,4.6,22,6.51,24.54s2.25,6.63-.27,8.54.68,8.22.68,8.22l12.31-4.18c1,2.84,6,2.18,6,2.18s4.41-2.55,3.45-5.39L41,29.73S39.71,22.78,36.54,22.79Z" transform="translate(-3.61 -1.05)"/><path class="cls-1" d="M13.09,12.8s-3.79,1.29-2.18,6" transform="translate(-3.61 -1.05)"/><path class="cls-2" d="M19.9,45.34a12,12,0,0,0,14.2-4.82" transform="translate(-3.61 -1.05)"/><path class="cls-2" d="M16.49,50.84s14.26,5.72,23.67-8" transform="translate(-3.61 -1.05)"/></svg>