<svg id="Layer_1" data-name="Layer 1" xmlns="http://www.w3.org/2000/svg" viewBox="0 0 90.71 94.08"><defs><style>.cls-1{fill:#676767;}</style></defs><title>cart</title><path class="cls-1" d="M41.3,84.2a5.92,5.92,0,0,0-4.2,1.7,5.81,5.81,0,0,0-1.7,4.2,5.65,5.65,0,0,0,1.7,4.15A5.84,5.84,0,0,0,41.3,96a6,6,0,0,0,5.9-5.9,5.73,5.73,0,0,0-1.75-4.2A5.65,5.65,0,0,0,41.3,84.2Z" transform="translate(-3.64 -1.92)"/><path class="cls-1" d="M72.2,84.2A5.92,5.92,0,0,0,68,85.9a5.81,5.81,0,0,0-1.7,4.2A5.65,5.65,0,0,0,68,94.25,5.84,5.84,0,0,0,72.2,96a6,6,0,0,0,5.9-5.9,5.73,5.73,0,0,0-1.75-4.2A5.65,5.65,0,0,0,72.2,84.2Z" transform="translate(-3.64 -1.92)"/><path class="cls-1" d="M94.1,20.6a4.05,4.05,0,0,0-1.5-1.9,3.89,3.89,0,0,0-2.25-.7H24.2L22,9.55A3.79,3.79,0,0,0,21.2,8a4.35,4.35,0,0,0-1.45-1.1L9.25,2.25A4,4,0,0,0,4,4.35a3.89,3.89,0,0,0-.1,3A3.93,3.93,0,0,0,6,9.6l8.7,3.85,2.4,9.35q0.07,0.27.15,0.5l11.1,43a3.72,3.72,0,0,0,.2.65L32.2,79.8a3.81,3.81,0,0,0,1.4,2.1,4,4,0,0,0,2.45.85h39.2a4.1,4.1,0,0,0,4-4A3.89,3.89,0,0,0,78,75.9a3.81,3.81,0,0,0-2.8-1.15H39l-1.45-5.2H79.15a3.91,3.91,0,0,0,2.45-.85A3.76,3.76,0,0,0,83,66.55L94.2,23A3.8,3.8,0,0,0,94.1,20.6Zm-18,41H35.45L26.25,26h59Z" transform="translate(-3.64 -1.92)"/></svg>
