<svg id="Layer_1" data-name="Layer 1" xmlns="http://www.w3.org/2000/svg" viewBox="0 0 30.12 25.69"><defs><style>.cls-1{fill:#469ada;fill-rule:evenodd;}</style></defs><title>Cold_number</title><path class="cls-1" d="M42.16,25.72l-.79-1.35H37.86l1.53-2.61-.79-1.35H37l-2.32,4h-5.2l2.6-4.43h4.65l.79-1.35-.79-1.35H33.67l1.76-3-.79-1.35H33l-1.75,3-1.53-2.61H28.17l-.79,1.35,2.32,4L27.1,23l-2.6-4.43,2.32-4L26,13.26H24.44l-1.53,2.61-1.76-3H19.57l-.79,1.35,1.75,3H17.47l-.79,1.35.79,1.35h4.65l2.6,4.43h-5.2l-2.32-4H15.61l-.79,1.35,1.53,2.61H12.83L12,25.72l.79,1.35h3.51l-1.53,2.61L15.61,31H17.2l2.32-4h5.2l-2.6,4.43H17.47l-.79,1.35.79,1.35h3.06l-1.75,3,.79,1.35h1.59l1.76-3,1.53,2.61H26l.79-1.35-2.32-4,2.6-4.43,2.6,4.43-2.32,4,.79,1.35h1.59l1.53-2.61,1.75,3h1.59l.79-1.35-1.76-3h3.06l.79-1.35-.79-1.35H32.08l-2.6-4.43h5.2L37,31h1.59l.79-1.35-1.53-2.61h3.51Z" transform="translate(-12.04 -12.88)"/></svg>