<?xml version="1.0" encoding="utf-8"?>
<!-- Generator: Adobe Illustrator 19.2.1, SVG Export Plug-In . SVG Version: 6.00 Build 0)  -->
<svg version="1.1" id="Layer_1" xmlns="http://www.w3.org/2000/svg" xmlns:xlink="http://www.w3.org/1999/xlink" x="0px" y="0px"
	 viewBox="0 0 262.7 91.9" style="enable-background:new 0 0 262.7 91.9;" xml:space="preserve">
<style type="text/css">
	.st0{fill:#737272;}
	.st1{fill:#D0CFCF;}
	.st2{fill:#FFFFFF;}
</style>
<g>
	<path class="st0" d="M35.9,80.8c-1.8-2-3.6-3.9-5.3-5.8C24.7,68.6,18.9,62.2,13,55.8c-0.6-0.6-0.8-1,0.3-1.2c3-0.6,5.9-1.4,8.9-2
		c0.9-0.2,0.9-0.4,0.4-1.1c-1.6-2.4-3.2-4.8-4.8-7.2c0.1,0,0.1-0.1,0.2-0.2c3.6,1.9,7.2,3.7,10.7,5.6c1.2,0.7,2.3,0.9,3.7,0.5
		c4.4-1.1,8.8-2.1,13.3-3.1c0.8-0.2,1.3-0.5,1.8-1c7.9-7.9,15.8-15.8,23.7-23.7c3.4-3.4,6.7-6.7,10.1-10c0.3-0.3,0.5-0.7,1-0.7
		c0,0.6-0.5,1-0.8,1.4c-9,13.1-18,26.1-27,39.1c-0.5,0.8-0.5,1.2,0.2,1.7c0.7,0.5,1.4,1.2,2.1,1.8c1.1,1,2.1,2,3.3,2.9
		c3.3,3,6.7,6,10,8.9c0.9,0.8,1.9,1.7,3,2.7c-6.1,1.8-12,3.5-17.9,5.3c-5.9,1.7-11.8,3.5-17.9,5.3 M50.3,58.5
		c-0.2,0-0.2,0.1-0.3,0.3c-2,2.9-4,5.7-6,8.6c-1.5,2.2-3.2,4.4-4.5,6.7c-0.9,1.1-0.9,1.1-1.8-0.1c-0.2-0.3-0.3-0.7-0.6-0.9
		c-2.9-4.8-6.2-9.3-9.3-14c-0.8-1.2-1.5-2.3-2.3-3.5c-0.2-0.3-0.4-0.6-0.8-0.5c-2,0.5-4.1,1-6.2,1.5c0.2,0.3,0.3,0.5,0.5,0.7
		c5.9,6.4,11.8,12.8,17.7,19.2c0.5,0.6,1,0.6,1.7,0.4c5.6-1.7,11.3-3.4,17-5c3.7-1.1,7.4-2.2,11.3-3.3c-3.2-2.8-6.3-5.4-9.3-8
		c-1.2-1.2-2.4-2.4-3.8-3.3c-0.4-0.4-0.8-0.8-1.2-1.2c-0.3-0.3-0.4-0.3-0.6,0.1C51.3,57,50.5,57.6,50.3,58.5L50.3,58.5z M41.9,51.4
		c-2.3,0.3-4.5,1-7.1,1.5c1.3,0.7,2.3,1.2,3.4,1.8c0.2,0.1,0.5,0.2,0.7-0.1C39.9,53.5,41.1,52.6,41.9,51.4
		C41.9,51.3,42,51.3,41.9,51.4C42,51.3,42,51.3,41.9,51.4z"/>
	<path class="st0" d="M217.6,50.5c2.4,1.1,3.2,3.1,3.2,5.5c0,2.4-0.5,4.8-0.5,7.2c0,0.7,0,1.4,0.5,2.2c2.3-3.7,4.5-7.4,6.6-11.1
		c4-6.6,8-13.3,11.9-20c0.4-0.7,0.9-1,1.7-0.9c1.4,0.1,2.8,0,4.2,0c0.6,0,0.8,0.2,0.9,0.8c1.7,10.2,3.5,20.5,5.3,30.7
		c0.1,0.8,0.1,1-0.7,1c-1.4-0.1-2.8,0-4.2,0c-0.6,0-0.8-0.2-0.9-0.8c-0.3-2.2-0.7-4.3-1-6.5c-0.1-0.9-0.4-1.4-1.5-1.3
		c-3.4,0.1-6.9,0.1-10.3,0c-1,0-1.4,0.3-1.9,1.1c-1.2,2.2-2.6,4.4-3.8,6.6c-0.4,0.6-0.7,0.9-1.5,0.9c-3.3,0-6.6,0-10,0
		c-0.7,0-1.1-0.2-1.2-1c-0.3-2,0.1-3.9,0.2-5.9c0.1-1,0.2-1.9,0.2-2.9c0-2.2-1.1-3.4-3.2-3.5c-3-0.1-5.9-0.1-8.9-0.1
		c-0.8,0-0.7,0.6-0.8,1.1c-0.8,3.6-1.6,7.3-2.2,10.9c-0.2,1.1-0.6,1.5-1.7,1.3c-1.1-0.1-2.2-0.1-3.4,0c-1.1,0.1-1.1-0.4-0.9-1.2
		c1-4.6,1.9-9.3,2.9-14c1.1-5.3,2.2-10.6,3.3-15.9c0.2-1,0.5-1.4,1.7-1.4c4.5,0.1,9,0,13.4,0c1.2,0,2.5,0.2,3.7,0.5
		c4.4,1.2,6.1,4.4,5.8,8.5C224.3,47,222.8,48.6,217.6,50.5z M208.4,48C208.4,48,208.4,48,208.4,48c1.4,0,2.8,0,4.2,0
		c1.6-0.1,3.1-0.5,4.4-1.4c1.7-1.2,2.5-3.7,1.8-5.8c-0.6-2-2.3-2.6-4.1-2.6c-2.9-0.1-5.7,0-8.6-0.1c-0.5,0-0.7,0.2-0.8,0.6
		c-0.6,2.9-1.1,5.7-1.7,8.5c-0.1,0.6,0,0.8,0.6,0.8C205.5,48,206.9,48,208.4,48z M242,39.5c-0.1,0-0.2,0-0.3-0.1
		c-2.5,4.4-5,8.8-7.5,13.2c0.2,0.1,0.3,0.1,0.3,0.1c2.8,0,5.5,0,8.3,0c1,0,1-0.4,0.9-1.1c-0.4-2.4-0.7-4.7-1-7.1
		C242.5,42.9,242.2,41.2,242,39.5z"/>
	<path class="st0" d="M193.3,48.8c-1.2,5.4-2.3,10.8-3.5,16.3c-0.1,0.5-0.3,0.7-0.9,0.7c-1-0.1-2.3,0.5-2.8-0.3
		c-0.5-0.6-0.1-1.8-0.1-3.1c-1.4,1.4-2.7,2.4-4.2,3.1c-8,3.5-17.5-1.7-18.7-10.4c-0.6-4.1-0.1-8.1,1.5-12c2.9-7,9.2-10.9,17-10.5
		c3.1,0.1,6.1,0.9,8.6,2.9c2.3,1.9,3.4,4.4,3.6,7.3c0.1,0.7-0.2,1-0.9,0.9c-1.3-0.1-2.6,0-4,0c-0.4,0-0.8,0.1-0.9-0.5
		c-0.4-4.9-5.1-6.3-9-5.9c-3,0.3-5.4,1.7-7.1,4.2c-2.9,4.1-3.9,8.8-2.9,13.8c0.9,4.3,4.2,6.7,8.6,6.6c4.8-0.2,8.5-3.4,9.5-8
		c0.2-0.8-0.2-0.8-0.7-0.8c-2.4,0-4.7,0-7.1,0c-0.7,0-0.9-0.2-0.7-0.9c0.3-1.1,0.2-2.6,0.9-3.3c0.7-0.7,2.2-0.2,3.4-0.2
		c3,0,6.1,0,9.1,0C192.4,48.7,192.9,48.6,193.3,48.8z"/>
	<path class="st0" d="M162.4,48c-0.1,4.4-1.3,9.4-5.1,13.4c-4.9,5.4-14.2,6.7-20.4,2.9c-3.5-2.1-5.4-5.3-5.9-9.3
		c-0.7-5.3,0.1-10.4,3.1-15c4-6.2,12-9,19-6.8C159.1,35.1,162.5,40.2,162.4,48z M156.7,47c0-0.4,0-0.8,0-1.2
		c-0.2-4.4-2.5-7.5-6.2-8.3c-4.1-0.9-8.2,0.6-10.6,4.1c-2.8,3.9-3.6,8.3-3,13c0.4,3.3,2.2,5.7,5.5,6.8c4,1.3,8.2,0,10.8-3.4
		C155.7,54.8,156.6,51,156.7,47z"/>
	<path class="st0" d="M100.4,51.9c0.1-5.6,1.6-10.7,5.7-14.8c4.8-4.6,12.9-6,18.7-3c3.8,1.9,5.5,5.1,5.7,9.3c0,0.6-0.1,0.9-0.8,0.8
		c-1.4,0-2.9,0-4.3,0c-0.5,0-0.7-0.1-0.7-0.7c-0.1-4.8-4.1-6.6-8.3-6.2c-3.2,0.3-5.6,2-7.4,4.6c-2.7,4.1-3.5,8.7-2.6,13.5
		c0.7,3.4,3.3,5.8,6.6,6.2c4,0.6,6.9-0.7,8.8-4c0.4-0.7,0.8-1.3,0.9-2.1c0.3-1.1,0.9-1.3,1.9-1.3c1.2,0.1,2.4,0,3.6,0
		c0.6,0,0.7,0.2,0.6,0.8c-2.5,10.9-16.1,15.3-24.4,7.7C101.4,59.9,100.3,56.1,100.4,51.9z"/>
	<path class="st0" d="M88.1,54.5c-2.8,0-5.6,0-8.4,0c-0.9,0-1.1,0.3-1.1,1.1c0.1,0.8,0,1.7,0.1,2.5c0.5,3.2,2.3,5.1,5.2,5.7
		c3.3,0.6,6.6-0.8,8.4-3.7c0.1-0.2,0.3-0.4,0.3-0.6c0.3-1.6,1.4-1.7,2.8-1.6c0.8,0.1,0.8,0.3,0.6,0.9c-1.4,4.4-5.1,7.4-9.7,7.6
		c-3.2,0.2-6.2-0.4-8.5-3c-1.8-2.2-2.4-4.8-2.3-7.5c0.1-4.1,1.3-7.9,4.1-11c3.2-3.4,7.1-4.6,11.7-3.5c3.5,0.8,5.9,3.8,6.2,7.5
		c0.1,1.5,0,3.1,0,4.7c0,0.8-0.3,1-1.1,1C93.7,54.5,90.9,54.5,88.1,54.5z M86.9,52.1c2.3,0,4.6,0,6.8,0c0.4,0,0.8,0.2,0.9-0.6
		c0.7-5.4-3.6-9.2-8.9-7.5c-3.7,1.2-5.6,4.1-6.6,7.6c-0.2,0.7,0.3,0.5,0.6,0.5C82.2,52.1,84.6,52.1,86.9,52.1z"/>
	<path class="st1" d="M60.1,58.6c-1.2-0.8-2.2-1.9-3.3-2.9c3.5-1.3,6.8-3,10.2-4.5c1.9-0.8,3.8-1.7,5.8-2.3
		c-0.8,0.6-1.5,1.2-2.3,1.8c-3.2,2.5-6.4,4.9-9.6,7.4C60.7,58.3,60.4,58.4,60.1,58.6z"/>
	<path class="st0" d="M17.8,44.3c0-0.1,0-0.2-0.1-0.3c0.1,0,0.2,0.1,0.2,0.1C17.9,44.2,17.9,44.2,17.8,44.3z"/>
	<path class="st1" d="M57.3,60.7c-1.7,1.6-3.7,2.9-5.5,4.3c-3.7,2.9-7.4,5.7-11.1,8.6c-0.3,0.3-0.7,0.6-1.2,0.5
		c1.3-2.4,3-4.5,4.5-6.7c2-2.9,4-5.7,6-8.6c0.1-0.1,0.2-0.2,0.3-0.3c0,0,0,0,0,0c1.2-0.1,2.1-0.8,3.2-1.2
		C54.9,58.3,56.1,59.5,57.3,60.7z"/>
	<path class="st1" d="M37.2,73.2c-1.1-0.4-1.7-1.4-2.5-2.1c-2.9-3-5.7-6-8.6-9c-1.3-1.3-2.5-2.7-3.6-4.2c1.4,0.5,2.8,1,4.2,1.4
		c0.4,0.1,0.8,0.6,1.2,0C31,63.9,34.3,68.4,37.2,73.2z"/>
	<path class="st2" d="M41.9,51.4C42,51.3,42,51.3,41.9,51.4C42,51.3,41.9,51.3,41.9,51.4C41.9,51.3,41.9,51.4,41.9,51.4z"/>
	<path class="st2" d="M50.3,58.5c-0.1,0.1-0.2,0.2-0.3,0.3C50.1,58.6,50.1,58.5,50.3,58.5z"/>
</g>
</svg>
