<svg id="Layer_1" data-name="Layer 1" xmlns="http://www.w3.org/2000/svg" viewBox="0 0 138 87"><defs><style>.cls-1{fill:#676767;}</style></defs><title>envelop</title><g id="Layer0_0_FILL" data-name="Layer0 0 FILL"><path class="cls-1" d="M61.9,65.35L43.55,47,3.85,86.75A8.46,8.46,0,0,0,6,87H132a9.07,9.07,0,0,0,2.2-.25L94.45,47,76.2,65.35h0q-7.15,7.1-14.25,0M0.3,3.75A7.82,7.82,0,0,0,0,6V81q0,0.55,0,1L39.3,42.75l-39-39M138,6a9.29,9.29,0,0,0-.25-2.25L98.7,42.8,137.95,82a9.1,9.1,0,0,0,.05-1V6m-5.05-6A8.61,8.61,0,0,0,132,0H6a8.15,8.15,0,0,0-.9,0L66.15,61.1q2.85,2.85,5.8,0Z"/></g></svg>
