<svg id="Layer_1" data-name="Layer 1" xmlns="http://www.w3.org/2000/svg" viewBox="0 0 127.35 70.5"><defs><style>.cls-1{fill:#333;}</style></defs><title>eye</title><g id="Layer0_0_FILL" data-name="Layer0 0 FILL"><path class="cls-1" d="M44.28,43.08l-0.6-4.85L34,39.33l0.6,4.9a33.25,33.25,0,0,0,10,20.45v0.1A34,34,0,0,0,69.23,75,34.13,34.13,0,0,0,94,64.78l0.1-.1a34.34,34.34,0,0,0,10-20.45l0.6-4.9-9.85-1.1-0.45,4.85a25.55,25.55,0,0,1-7.3,14.7,24.73,24.73,0,0,1-17.85,7.35,24.45,24.45,0,0,1-17.7-7.35h-0.1a25.14,25.14,0,0,1-7.15-14.7M80.53,27.83a15.51,15.51,0,0,0-11.3-4.7A15.08,15.08,0,0,0,58,27.83,15.08,15.08,0,0,0,53.33,39,15.41,15.41,0,0,0,58,50.33a15.24,15.24,0,0,0,11.2,4.6A15.71,15.71,0,0,0,85.13,39a15.24,15.24,0,0,0-4.6-11.2M63.13,39A5.58,5.58,0,0,1,65,34.83a5.67,5.67,0,0,1,4.25-1.9,5.82,5.82,0,0,1,4.3,1.9,5.65,5.65,0,0,1,1.8,4.2,6.15,6.15,0,0,1-6.1,6.1A5.81,5.81,0,0,1,65,43.33,5.9,5.9,0,0,1,63.13,39m62.45,8.85,7.35-6.6-3.3-3.6Q99.48,4.08,69.23,4.48,39,4.08,8.83,37.68l-3.25,3.6,7.3,6.6,3.2-3.65q26.65-29.65,53.15-30,26.5,0.3,53.1,30Z" transform="translate(-5.58 -4.48)"/></g></svg>