<?xml version="1.0" encoding="utf-8"?>
<!-- Generator: Adobe Illustrator 19.2.1, SVG Export Plug-In . SVG Version: 6.00 Build 0)  -->
<svg version="1.1" id="Layer_1" xmlns="http://www.w3.org/2000/svg" xmlns:xlink="http://www.w3.org/1999/xlink" x="0px" y="0px"
	 viewBox="0 0 78.7 79" style="enable-background:new 0 0 78.7 79;" xml:space="preserve">
<style type="text/css">
	.st0{fill:#676767;}
</style>
<path class="st0" d="M69.4,26.1c-1.7-3.9-4-7.4-7.1-10.5c-3-3-6.5-5.4-10.5-7.1c-4.1-1.7-8.4-2.6-12.9-2.6c-4.5,0-8.7,0.9-12.8,2.6
	c-4,1.7-7.5,4.1-10.5,7.1c-3,3.1-5.4,6.6-7.1,10.5C6.7,30.2,5.8,34.5,5.8,39c0,4.5,0.9,8.8,2.6,12.9c1.7,4,4.1,7.5,7.1,10.5
	c3.1,3.1,6.6,5.4,10.5,7.1c4.1,1.7,8.4,2.6,12.8,2.6c4.5,0,8.8-0.9,12.9-2.6c4-1.7,7.5-4,10.5-7.1c3.1-3.1,5.4-6.6,7.1-10.5
	c1.8-4.1,2.7-8.4,2.7-12.9C72.1,34.5,71.2,30.2,69.4,26.1z M48.5,27.1H45c-1.3,0-2.2,0.3-2.7,0.9c-0.4,0.5-0.6,1.2-0.6,2.4v4.1h6.5
	l-0.9,6.6h-5.7V58h-6.8V41.1h-5.6v-6.6h5.6v-4.8c0-2.7,0.8-4.9,2.4-6.5c1.5-1.5,3.6-2.2,6.1-2.2c1.1,0,2.1,0,3.2,0.1
	c0.8,0.1,1.5,0.1,1.9,0.2V27.1z"/>
</svg>
