<?xml version="1.0" encoding="utf-8"?>
<!-- Generator: Adobe Illustrator 21.1.0, SVG Export Plug-In . SVG Version: 6.00 Build 0)  -->
<svg version="1.1" id="Layer_1" xmlns="http://www.w3.org/2000/svg" xmlns:xlink="http://www.w3.org/1999/xlink" x="0px" y="0px"
	 viewBox="0 0 371 212" style="enable-background:new 0 0 371 212;" xml:space="preserve">
<style type="text/css">
	.st0{fill-rule:evenodd;clip-rule:evenodd;fill:#067A7F;}
	.st1{fill:none;stroke:#067A7F;stroke-width:0.75;stroke-miterlimit:2.6131;}
	.st2{fill:none;stroke:#067A7F;stroke-width:0.75;stroke-linecap:round;stroke-linejoin:round;stroke-miterlimit:2.6131;}
	.st3{fill:none;stroke:#067A7F;stroke-width:0.75;stroke-linejoin:round;stroke-miterlimit:2.6131;}
	.st4{fill:none;stroke:#067A7F;stroke-width:0.75;stroke-linecap:round;stroke-miterlimit:2.6131;}
	.st5{fill:none;stroke:#0B0C0B;stroke-width:0.75;stroke-miterlimit:2.6131;}
	.st6{fill:#00807C;}
	.st7{fill:#5AB2AD;}
</style>
<g>
	<path class="st0" d="M118.9,79.1l-10.1,25.4L98.3,79.1H85.8l0,0l0.7,1.5c4.5,0.6,5.2,1.9,7.1,6.4l10.7,25.8h5.4l13.5-33.6H118.9
		L118.9,79.1z"/>
	<path class="st0" d="M180,78.4c-7.5,0-11.4,6.7-12.5,9.2h-0.2v-9.2L154,80.6l0.7,1.5c3.9,0.2,5.2,1.7,5.2,6.4v24.3h7.3V95
		c0-5,4.3-11.8,9.2-11.8c5,0,5,5,5,10.8v18.7h7.5V88.5C189,82.8,186.8,78.4,180,78.4L180,78.4z"/>
	<path class="st0" d="M212.2,80.6L212.2,80.6l0.7,1.5c3.9,0.2,5,1.7,5,6.4v8c0,6-3.4,12.1-8,12.1c-3.7,0-6.2-2.1-6.2-8.6V78.4
		l-13.3,2.2l0,0l0.7,1.5c3.9,0.2,5,1.7,5,6.4v10.3c0,5.4,0,14.8,9.9,14.8c7.3,0,10.3-5.8,11.6-9h0.2v8.2h7.5V78.4L212.2,80.6
		L212.2,80.6z"/>
	<path class="st0" d="M57.7,110.9c-2.8-0.2-3.9-2.1-6.4-6l-8.2-14.4c5.4-1.1,11.4-2.8,11.6-11.2c0.4-9.2-8.2-12-18.3-12h-18l0.7,1.9
		c4.3,0,5,1.3,5,6.2v29.3c0,4.9-0.7,6.2-5,6.2l-0.9,1.7v0.2h13.7V91.4l-1.7-3h1.7V70.1h4.7c6,0,10.7,2.6,10.7,9
		c0,6.5-4.1,9.3-10.7,9.3h-2.8L48,112.7h10.7L57.7,110.9L57.7,110.9z"/>
	<path class="st0" d="M253.9,92.2c0.6-4.5-0.6-11.6-7.7-11.4c-6.5,0.2-8.2,5.6-8.2,11.4H253.9L253.9,92.2z M259.7,110.9
		c-2.1,1.5-6.4,2.6-10.1,2.6c-12-0.2-19.3-6.7-19.3-18.9c0-10.3,5.2-16.4,15.7-16.3c12.5-0.2,15.9,9.3,15,17h-23
		c-0.4,12.7,9.4,16.8,21.7,12V110.9L259.7,110.9z"/>
	<path class="st0" d="M146.9,92.2c0.4-4.5-0.6-11.6-7.7-11.4c-6.5,0.2-8.4,5.6-8.4,11.4H146.9L146.9,92.2z M152.7,110.9
		c-2.1,1.5-6.4,2.6-10.3,2.6c-12-0.2-19.1-6.7-19.1-18.9c0-10.3,5-16.4,15.7-16.3c12.5-0.2,15.9,9.3,15,17h-23.2
		c-0.4,12.7,9.4,16.8,21.9,12V110.9L152.7,110.9z"/>
	<path class="st0" d="M80.7,92.2c0.6-4.5-0.4-11.6-7.5-11.4c-6.5,0.2-8.4,5.6-8.4,11.4H80.7L80.7,92.2z M86.7,110.9
		c-2.1,1.5-6.4,2.6-10.3,2.6c-12-0.2-19.1-6.7-19.1-18.9c0-10.3,5-16.4,15.5-16.3c12.7-0.2,16.1,9.3,15.1,17H64.8
		c-0.4,12.7,9.4,16.8,21.9,12V110.9L86.7,110.9z"/>
	<path class="st0" d="M330.4,77.6L330.4,77.6l-0.4-3.7h0.6c0-0.6-0.2-1.1-0.4-1.7h-0.4l-0.7-1.7l0.2-0.4c-0.2-0.4-0.6-0.9-0.9-1.3
		l-0.4,0.6l-2.2-2.4l0.4-0.6c-0.6-0.4-0.9-0.7-1.5-1.1l-0.4,0.7l-2.8-1.7l0.2-0.6c-0.6-0.2-1.1-0.4-1.7-0.6l-0.2,0.9l-2.2-0.2v0.6
		h-3.9V64l-2.2,0.2l-0.2-0.9c-0.6,0.2-1.1,0.4-1.7,0.6l0.2,0.6L307,66l-0.6-0.7c-0.4,0.4-0.9,0.7-1.5,1.1l0.4,0.6l-2.1,2.4l-0.6-0.6
		c-0.4,0.4-0.6,0.9-0.9,1.3l0.4,0.4l-0.9,1.7h-0.4c-0.2,0.6-0.2,1.1-0.4,1.7h0.6l-0.4,3.7h0.2c2.1-7.3,6.7-11.8,14.8-11.8l0,0
		C323.7,65.8,328.3,70.3,330.4,77.6L330.4,77.6L330.4,77.6z"/>
	<path class="st0" d="M310.6,82.5l-0.4,3.2V86c-0.4,0-0.7,0-1.1,0v-0.6l-0.2-3l-0.4,3v0.4c-0.4-0.2-0.7-0.4-1.1-0.6v-0.4l-0.2-3.2
		l-0.4,3.2v0.2c-0.4-0.2-0.7-0.4-1.1-0.7v-0.6l-0.4-3l-0.2,3V84c-0.4-0.2-0.7-0.4-1.1-0.7v-0.9l-0.2-3l-0.4,3v0.6
		c-0.4-0.6-0.9-0.9-1.3-1.5V80l-0.2-3l-0.4,3v0.6c-0.6-0.6-0.9-1.3-1.1-2.1l-0.2,0.6c0.4,0.7,0.7,1.7,1.3,2.2V100l-0.7,0.2v0.6
		l0.7-0.2v3l-0.7,0.4v0.6l0.7-0.4v7.7l-0.7,0.4v0.6l9.9-5.4V85.6L310.6,82.5L310.6,82.5z M303.5,110.7l-1.3,0.7V104l1.3-0.6V110.7
		L303.5,110.7z M303.5,102.8l-1.3,0.6v-3l1.3-0.6V102.8L303.5,102.8z M302.2,99.9V82.1c0.4,0.6,0.9,0.9,1.3,1.3v15.9L302.2,99.9
		L302.2,99.9z M305.1,109.8l-1.1,0.7v-7.3l1.1-0.6V109.8L305.1,109.8z M305.1,102.1l-1.1,0.6v-3l1.1-0.4V102.1L305.1,102.1z
		 M304,99.1V84c0.4,0.2,0.7,0.4,1.1,0.7v14L304,99.1L304,99.1z M306.8,108.8l-1.1,0.7v-7.1l1.1-0.6V108.8L306.8,108.8z M306.8,101.3
		l-1.1,0.6v-2.8l1.1-0.4V101.3L306.8,101.3z M305.7,98.5V85.1c0.4,0.2,0.7,0.4,1.1,0.6v12.5L305.7,98.5L305.7,98.5z M308.5,107.9
		l-1.1,0.7v-6.9l1.1-0.6V107.9L308.5,107.9z M308.5,100.6l-1.1,0.6v-2.6l1.1-0.4V100.6L308.5,100.6z M307.4,98V85.8
		c0.4,0.2,0.7,0.4,1.1,0.6v11.2L307.4,98L307.4,98z M310.2,107l-1.1,0.7V101l1.1-0.4V107L310.2,107z M309.1,97.4v-11
		c0.4,0.2,0.7,0.2,1.1,0.2V97L309.1,97.4L309.1,97.4z"/>
	<path class="st0" d="M331,100.8v-0.6h-1.5V80.6c0.4-0.6,0.7-0.9,1.1-1.5v-0.6c-0.4,0.6-0.7,0.9-1.1,1.3l-0.4-2.6l-0.2,3.2l0,0
		c-0.7,0.7-1.5,1.3-2.2,1.9l-0.2-2.8l-0.2,3.2l0,0c-0.7,0.4-1.5,0.7-2.2,1.1l-0.2-2.8l-0.4,3c-0.6,0.4-1.3,0.6-2.1,0.9l-0.4-2.8
		l-0.2,2.8c-0.7,0.4-1.5,0.6-2.2,0.6l-0.2-2.8l-0.2,3c-0.7,0.2-1.5,0.4-2.2,0.4l-0.2-3l-0.4,3.2v26.5l0,0l0,0H331v-0.6h-1.5v-7.7
		h1.5V104h-1.5v-3.2H331L331,100.8z M316,104.5h2.2v7.7H316V104.5L316,104.5z M316,100.2V86.6c0.7,0,1.5-0.2,2.2-0.4v14H316
		L316,100.2z M318.6,104.5h2.2v7.7h-2.2V104.5L318.6,104.5z M318.6,100.8h2.2v3.2h-2.2V100.8L318.6,100.8z M318.6,100.2v-14
		c0.7-0.2,1.5-0.4,2.2-0.6v14.6H318.6L318.6,100.2z M321.4,104.5h2.1v7.7h-2.1V104.5L321.4,104.5z M321.4,100.8h2.1v3.2h-2.1V100.8
		L321.4,100.8z M321.4,100.2V85.5c0.7-0.2,1.5-0.6,2.1-0.7v15.5H321.4L321.4,100.2z M324,104.5h2.2v7.7H324V104.5L324,104.5z
		 M324,100.8h2.2v3.2H324V100.8L324,100.8z M324,100.2V84.3c0.7-0.2,1.5-0.7,2.2-1.1v17H324L324,100.2z M326.7,104.5h2.2v7.7h-2.1
		L326.7,104.5L326.7,104.5z M326.7,100.8h2.2v3.2h-2.1L326.7,100.8L326.7,100.8z M326.7,100.2V82.8c0.9-0.6,1.5-1.1,2.2-1.7v19.1
		H326.7L326.7,100.2z"/>
	<polyline class="st1" points="308.5,11.3 308.5,12 313.4,20.6 	"/>
	<path class="st2" d="M327,21.2h-3.9 M327,21.2l1.1,3.7h-2.2L327,21.2L327,21.2z M322.9,21.2l1.1,3.7H322L322.9,21.2L322.9,21.2z"/>
	<path class="st1" d="M312.4,19.1c-1.5,1.5-0.2,3.6,1.7,2.8"/>
	<path class="st3" d="M318.1,21.6c0-2.6,0.4-3.4,3.4-0.9c-0.2-0.9-0.6-1.1,0.4-2.4"/>
	<path class="st2" d="M315.1,21.9c0.4,1.3,1.7,1.9,2.4,1.9c0.7,0,0.7,0.9,0.7,1.7 M314.1,21.9c-0.2-0.2-0.7-0.6-0.7-0.7
		c0-0.7,0.6-1.5,1.1-1.5c0.7,0,0.7,0.9,0.4,1.3c-0.4,0.2,0.2,0.7,0,0.7C314.7,21.9,314.1,21.9,314.1,21.9L314.1,21.9z"/>
	<path class="st4" d="M326.3,18.4c0,0-1.1,0-1.3-0.2c-0.4-0.2-0.9-0.2-1.1-0.2c-2.1,0.9-2.8-0.2-3.2-0.2c-0.4-0.2-0.7,0-0.9-0.2
		c-0.2-0.2-1.1-1.1-1.7-0.9c-1.1,0.2-1.5,2.4-3.2,3.2"/>
	<path class="st2" d="M321.2,19.9c2.8,0,2.1-1.7,3.7-0.7v2.1 M313,22.1c-1.1,1.3-1.1,3.2-0.4,3.2c0,0-0.4,1.5,0.7,2.1
		c0.7,0.4,1.7-4.5,0.7-5.4"/>
	<path class="st4" d="M313.4,27.3c-1.3,3.9-0.2,3.6-1.3,6.4 M317.3,17.3c-0.7,0-1.7-0.2-1.7-0.7c0.4-0.2,0.6-0.2,0.4-0.7"/>
	<path class="st2" d="M318.2,16.5c0-0.2,0-0.6-0.2-0.9c-0.2-0.2-0.4-0.7,0-1.5c0.2-0.7-0.2-1.5-1.1-1.5c-1.3,0-1.5,0.9-1.5,0.9
		c-1.3,1.5-0.4,2.6-0.2,2.6c-1.3,0.4-1.9,1.7-2.2,2.4 M316,15.8c0.5-1.4-1.1-2.1-0.6-2.2c0.4,0,2.6,0.2,2.6,0.6 M315.2,20.6
		c1.7-0.2,4.3,1.1,3.7,3.2c0,0-0.9,1.7-0.7,2.6c0.4,1.7,0,4.7-0.4,6.2c0.4,0.2,0.7,0.4,1.1,1.1"/>
	<path class="st1" d="M286.8,108.3h8.4v-2.8h-8.4V108.3L286.8,108.3z M286.8,66.6h8.4v-3.7h-8.4V66.6L286.8,66.6z M286.8,71.8h8.4
		v-3.6h-8.4V71.8L286.8,71.8z M286.8,77.2h8.4v-3.7h-8.4V77.2L286.8,77.2z M286.8,82.5h8.4v-3.6h-8.4V82.5L286.8,82.5z M286.8,87.9
		h8.4v-3.7h-8.4V87.9L286.8,87.9z M286.8,93.1h8.4v-3.6h-8.4V93.1L286.8,93.1z M286.8,98.5h8.4v-3.7h-8.4V98.5L286.8,98.5z
		 M286.8,103.8h8.4v-3.6h-8.4V103.8L286.8,103.8z M295.2,79.3h5.4v3.6h-5.4V79.3L295.2,79.3z M295.2,84.5h5.4v3.7h-5.4V84.5
		L295.2,84.5z M295.2,89.9h5.4v3.6h-5.4V89.9L295.2,89.9z M295.2,95.2h5.4v3.7h-5.4V95.2L295.2,95.2z M295.2,100.6h5.4v3.6h-5.4
		V100.6L295.2,100.6z M335.8,105.5h8.6v2.8h-8.6V105.5L335.8,105.5z M335.8,62.8h8.6v3.7h-8.6V62.8L335.8,62.8z M335.8,68.3h8.6v3.6
		h-8.6V68.3L335.8,68.3z M335.8,73.5h8.6v3.7h-8.6V73.5L335.8,73.5z M335.8,78.9h8.6v3.6h-8.6V78.9L335.8,78.9z M335.8,84.2h8.6v3.7
		h-8.6V84.2L335.8,84.2z M335.8,89.6h8.6v3.6h-8.6V89.6L335.8,89.6z M335.8,94.8h8.6v3.7h-8.6V94.8L335.8,94.8z M335.8,100.2h8.6
		v3.6h-8.6V100.2L335.8,100.2z M330.4,82.8h5.4v-3.6h-5.2L330.4,82.8L330.4,82.8z M330.4,88.3h5.4v-3.7h-5.2L330.4,88.3L330.4,88.3z
		 M330.4,93.5h5.4v-3.6h-5.2L330.4,93.5L330.4,93.5z M330.4,98.9h5.4v-3.7h-5.2L330.4,98.9L330.4,98.9z M330.4,104.1h5.4v-3.6h-5.2
		L330.4,104.1L330.4,104.1z M295.2,55l1.5-1.5h-9.9l1.5,1.5H295.2L295.2,55z M295.2,59.5l1.5-2.2h-9.9l1.5,2.2H295.2L295.2,59.5z
		 M335.8,55l-1.5-1.5h9.9l-1.5,1.5H335.8L335.8,55z M335.8,59.5l-1.5-2.2h9.9l-1.5,2.2H335.8L335.8,59.5z M295.2,105.8v3.2
		c0.2-0.2,0.4-0.4,0.6-0.6c1.1-0.6,2.2-0.2,2.8,0.9l0,0l1.7,3h-4.9l-0.2-0.6v0.6h5.4v-6.5H295.2L295.2,105.8z M335.4,112.4h-4.7
		l1.5-3l0,0c0.6-1.1,1.9-1.5,2.8-0.9c0.4,0.2,0.6,0.4,0.7,0.7v-3.4h-5.4v6.5h5.4v-0.9L335.4,112.4L335.4,112.4z"/>
	<path class="st2" d="M288.3,49.8h54.4 M295.2,55h40.6 M283.6,47.9h15.5V46h-15.5V47.9L283.6,47.9z M332.1,47.9h15V46h-15V47.9
		L332.1,47.9z"/>
	<line class="st5" x1="295.2" y1="59.5" x2="335.8" y2="59.5"/>
	<polygon class="st2" points="299.2,45.7 332.1,45.7 332.1,48.3 299.2,48.3 299.2,45.7 	"/>
	<path class="st1" d="M294.9,111.2L294.9,111.2L294.9,111.2c-0.4-0.7-0.2-1.7,0.4-2.2v-0.7h-9.5v4.1h9.5v-0.6L294.9,111.2
		L294.9,111.2z M335.8,108.3v0.9c0.4,0.6,0.6,1.3,0.2,2.1l0,0l-0.2,0.2v0.9h9.7v-4.1H335.8L335.8,108.3z M288.3,103.8v1.7
		 M288.3,98.5v1.7 M288.3,93.1v1.7 M288.3,89.6v-1.7 M288.3,84.2v-1.7 M288.3,77.2v1.7 M288.3,73.5v-1.7 M288.3,66.6v1.7
		 M288.3,59.5v3.4 M295.2,105.8V61.4 M295.2,48.1v5.4"/>
	<path class="st2" d="M295.2,55v2.2 M288.3,57.2V55 M288.3,53.5v-5.4 M342.7,105.5v-1.7 M335.8,105.8V59.5 M342.7,100.2v-1.7
		 M342.7,93.1v1.7 M342.7,87.9v1.7 M342.7,82.5v1.7 M342.7,78.9v-1.7 M342.7,71.8v1.7 M342.7,66.6v1.7 M342.7,62.8v-3.4 M342.7,57.2
		V55 M342.7,53.5v-5.4 M335.8,48.1v5.4 M335.8,55v2.2 M329.8,45.7c-4.3-1.7-9.7-6.5-9.7-10.8h-9.2c0,4.3-5.4,9.2-9.7,10.8 M283.6,46
		c2.6-3.4,9.9-7.7,15.5-8.8l1.1-2.1c-6,0.7-14,5-18,9.2L283.6,46L283.6,46z M287,46c3-2.4,7.5-5,12.2-6.2v-2.6 M289.4,46
		c1.9-1.5,6.2-3.6,8-4.1v-1.5 M347,46c-2.4-3.4-9.9-7.7-15.3-8.8l-1.1-2.1c6,0.7,14,5,18,9.2L347,46L347,46z M343.7,46
		c-3-2.4-7.5-5-12-6.2v-2.6 M341.4,46c-1.9-1.5-6.4-3.6-8.2-4.1v-1.5"/>
	<path class="st1" d="M331,106v-1.9 M331,100.6v-1.7 M331,95.2v-1.7 M331,88.3v1.7 M331,82.8v1.7 M300.3,88.3v1.7 M300.3,82.8v1.7
		 M300.3,93.5v1.7 M300.3,98.9v1.7 M300.3,104.1v1.7 M295.2,77.6v-3.7h5.8l-0.4,3.7H295.2L295.2,77.6z M295.2,72.2v-3.6h5.4l1.5,1.9
		l-0.9,1.7H295.2L295.2,72.2z M301.2,67h-6v-3.7h7.9l2.2,3.7l-2.1,2.4L301.2,67L301.2,67z M304.2,61.4h-9v-1.9H308l1.7,4.9L307,66
		L304.2,61.4L304.2,61.4z M335.8,77.6v-3.7H330l0.4,3.7H335.8L335.8,77.6z M335.8,72.2v-3.6h-5.4l-1.3,1.9l0.7,1.7H335.8L335.8,72.2
		z M329.8,67h6v-3.7H328l-2.2,3.7l2.2,2.4L329.8,67L329.8,67z M326.8,61.4h9v-1.9h-12.7l-1.7,4.9l2.8,1.7L326.8,61.4L326.8,61.4z
		 M310.6,59.5l0.7,4.7l2.2-0.2l-0.2-4.5H310.6L310.6,59.5z M317.9,59.5l-0.4,4.5l2.2,0.2l0.7-4.7H317.9L317.9,59.5z M317.9,59.5
		l-0.4,5h-3.9l-0.2-5 M311.5,34.8h8.2v-1.1h-8.2V34.8L311.5,34.8z"/>
	<polygon class="st2" points="309.8,45.7 309.8,43.8 310.9,43.8 310.9,34.8 320.1,34.8 320.1,43.8 321.2,43.8 321.2,45.7 
		309.8,45.7 	"/>
	<path class="st5" d="M331,77.6v1.7 M300.3,79.3v-1.7"/>
</g>
<g>
	<path class="st6" d="M27.6,151.6c-1.4,0-2.6-0.2-3.7-0.7c-1.1-0.5-1.9-1.2-2.6-2c-0.7-0.9-1.2-1.9-1.6-3.1
		c-0.3-1.2-0.5-2.4-0.5-3.8c0-1.1,0.2-2.3,0.5-3.4c0.3-1.1,0.9-2.2,1.6-3.1c0.7-0.9,1.6-1.7,2.6-2.3c1.1-0.6,2.3-0.9,3.7-0.9
		c0.6,0,1.1,0,1.5,0c0.5,0,0.9,0.1,1.3,0.1c0.4,0.1,0.8,0.2,1.2,0.3c0.4,0.1,0.8,0.2,1.3,0.4c0,0.5,0.1,1.1,0.2,1.9
		c0.1,0.7,0.2,1.5,0.4,2.3c-0.1,0.1-0.3,0.1-0.4,0.1c-0.1,0-0.3,0-0.4-0.1c-0.1,0-0.2-0.1-0.2-0.3c-0.3-1.3-0.8-2.2-1.4-2.7
		c-0.7-0.5-1.6-0.8-2.8-0.8c-1,0-2,0.2-2.8,0.6c-0.8,0.4-1.5,0.9-2,1.6c-0.5,0.7-1,1.5-1.2,2.5c-0.3,1-0.4,2-0.4,3.2
		c0,1.3,0.2,2.5,0.5,3.6c0.4,1.1,0.8,2.1,1.4,2.9c0.6,0.8,1.3,1.4,2.1,1.9c0.8,0.4,1.7,0.7,2.6,0.7c0.7,0,1.3-0.1,1.8-0.2
		c0.5-0.2,0.9-0.4,1.2-0.7c0.3-0.3,0.6-0.7,0.8-1.1c0.2-0.4,0.4-1,0.6-1.5c0.1-0.3,0.3-0.4,0.6-0.4c0.1,0,0.2,0,0.3,0
		c0.1,0,0.2,0.1,0.2,0.1c-0.2,0.7-0.4,1.4-0.6,2.2c-0.2,0.8-0.4,1.6-0.5,2.4c-0.8,0.2-1.7,0.3-2.5,0.4
		C29.6,151.6,28.6,151.6,27.6,151.6z"/>
	<path class="st6" d="M46.3,150.5c0.2,0,0.3,0.2,0.3,0.6c-0.4,0.3-1,0.5-1.7,0.5c-0.4,0-0.7-0.1-1-0.2c-0.3-0.1-0.5-0.3-0.7-0.5
		c-0.2-0.2-0.3-0.4-0.4-0.7c-0.1-0.3-0.2-0.5-0.2-0.8c-0.4,0.9-0.9,1.4-1.5,1.8c-0.6,0.3-1.2,0.5-2,0.5c-0.3,0-0.7,0-1.1-0.1
		c-0.4-0.1-0.7-0.2-1.1-0.4c-0.3-0.2-0.6-0.5-0.8-0.9c-0.2-0.4-0.3-0.9-0.3-1.5c0-0.7,0.1-1.3,0.4-1.8c0.3-0.5,0.7-0.9,1.1-1.2
		c0.5-0.3,1-0.6,1.5-0.8c0.5-0.2,1.1-0.4,1.6-0.5c0.3-0.1,0.6-0.1,0.8-0.2s0.5-0.1,0.6-0.2c0.2-0.1,0.4-0.2,0.4-0.3
		c0.1-0.1,0.1-0.4,0.1-0.8c0-0.9-0.2-1.6-0.5-2.2c-0.3-0.6-0.8-0.9-1.6-0.9c-0.3,0-0.5,0-0.7,0.1c-0.2,0.1-0.4,0.2-0.5,0.4
		c-0.1,0.2-0.3,0.4-0.4,0.6c-0.1,0.3-0.2,0.6-0.3,0.9c-0.1,0.2-0.2,0.4-0.3,0.5s-0.5,0.2-0.9,0.3c-0.1,0-0.2,0.1-0.4,0.1
		s-0.3,0.1-0.4,0.1c-0.2,0-0.3-0.2-0.3-0.6c0-0.4,0.1-0.8,0.4-1.3c0.3-0.4,0.7-0.8,1.1-1.1c0.4-0.3,0.9-0.6,1.4-0.8
		c0.5-0.2,1-0.3,1.5-0.3c0.6,0,1.1,0.1,1.6,0.2c0.5,0.1,0.9,0.3,1.2,0.6s0.6,0.7,0.8,1.2c0.2,0.5,0.3,1.2,0.3,2v4.9
		c0,0.7,0,1.1,0.1,1.4s0.1,0.5,0.2,0.7c0.1,0.3,0.2,0.4,0.4,0.5c0.1,0.1,0.3,0.1,0.4,0.1c0.2,0,0.3,0,0.4-0.1
		C46.2,150.5,46.2,150.5,46.3,150.5z M42.5,144.9l-0.8,0.1c-0.4,0.1-0.9,0.2-1.3,0.3c-0.4,0.1-0.8,0.3-1.1,0.6
		c-0.3,0.2-0.6,0.5-0.8,0.9c-0.2,0.4-0.3,0.8-0.3,1.3c0,0.7,0.2,1.3,0.5,1.7c0.3,0.4,0.7,0.6,1.2,0.6c0.3,0,0.6-0.1,1-0.2
		c0.3-0.2,0.6-0.4,0.8-0.7c0.2-0.3,0.4-0.6,0.6-1c0.1-0.4,0.2-0.8,0.2-1.3V144.9z"/>
	<path class="st6" d="M50.4,151.3c-0.3,0-0.6,0-0.9,0c-0.3,0-0.6,0-0.8,0c-0.3,0-0.5,0-0.7,0.1c-0.2,0-0.3,0-0.4,0c0,0,0-0.1,0-0.2
		c0-0.1,0-0.2,0-0.3c0-0.2,0.1-0.3,0.2-0.3c0.4-0.1,0.8-0.2,1.1-0.3c0.3-0.1,0.4-0.4,0.4-0.7v-7.8c0-0.6-0.1-1-0.3-1.2
		c-0.2-0.2-0.6-0.4-1.1-0.5c-0.2,0-0.3-0.2-0.3-0.4c0-0.1,0-0.2,0.1-0.4c0.2,0,0.5,0,0.9,0c0.4,0,0.7-0.1,1-0.1
		c0.4-0.1,0.7-0.2,1-0.2c0.3-0.1,0.5-0.1,0.7-0.1c0.2,0,0.4,0.1,0.4,0.4c0,0.3,0,0.6-0.1,1c-0.1,0.4-0.1,0.9-0.1,1.5v7.9
		c0,0.3,0.1,0.5,0.4,0.7c0.3,0.1,0.6,0.2,1.1,0.3c0.1,0,0.2,0.2,0.2,0.3c0,0.1,0,0.1,0,0.3c0,0.1,0,0.2,0,0.2c-0.1,0-0.2,0-0.3,0
		c-0.2,0-0.4,0-0.6-0.1c-0.3,0-0.5,0-0.8,0C51,151.3,50.7,151.3,50.4,151.3z M48.9,134.1c0-0.5,0.1-0.9,0.4-1.2
		c0.3-0.3,0.6-0.5,1-0.5c0.4,0,0.7,0.2,1,0.5c0.3,0.3,0.4,0.7,0.4,1.2c0,0.5-0.1,0.9-0.4,1.2c-0.3,0.3-0.6,0.5-1,0.5
		c-0.4,0-0.8-0.2-1-0.5C49.1,135,48.9,134.6,48.9,134.1z"/>
	<path class="st6" d="M65.7,149.7c0,0.3,0.2,0.5,0.5,0.6c0.3,0.1,0.6,0.3,1,0.3c0.2,0,0.2,0.2,0.2,0.3c0,0.1,0,0.3-0.1,0.5
		c-0.4,0-0.9-0.1-1.3-0.1c-0.4,0-0.9,0-1.4,0c-0.5,0-0.9,0-1.3,0s-0.9,0.1-1.3,0.1c0-0.2-0.1-0.3-0.1-0.5c0-0.2,0.1-0.3,0.2-0.3
		c0.4-0.1,0.7-0.2,1-0.3c0.3-0.1,0.4-0.4,0.4-0.6V144c0-0.5,0-0.9-0.1-1.3c-0.1-0.4-0.1-0.7-0.3-1c-0.1-0.3-0.3-0.5-0.6-0.7
		c-0.2-0.2-0.6-0.2-0.9-0.2c-0.4,0-0.8,0.1-1.2,0.2c-0.4,0.2-0.8,0.4-1.1,0.7c-0.3,0.3-0.6,0.7-0.7,1.2c-0.2,0.5-0.3,1-0.3,1.6v5.2
		c0,0.3,0.1,0.5,0.4,0.6c0.3,0.1,0.6,0.3,0.9,0.3c0.2,0,0.2,0.2,0.2,0.3c0,0.1,0,0.3-0.1,0.5c-0.4,0-0.9-0.1-1.3-0.1
		c-0.4,0-0.9,0-1.3,0c-0.5,0-1,0-1.4,0c-0.4,0-0.9,0.1-1.3,0.1c0-0.2-0.1-0.3-0.1-0.5c0-0.2,0.1-0.3,0.2-0.3c0.4-0.1,0.7-0.2,1-0.3
		c0.3-0.1,0.5-0.4,0.5-0.7v-7.8c0-0.6-0.1-1-0.3-1.2c-0.2-0.2-0.6-0.4-1.1-0.5c-0.2,0-0.3-0.2-0.3-0.4c0-0.1,0-0.2,0.1-0.4
		c0.2,0,0.5,0,0.9,0c0.4,0,0.7-0.1,1-0.1c0.4-0.1,0.7-0.2,1-0.2c0.3-0.1,0.5-0.1,0.7-0.1c0.2,0,0.4,0.1,0.4,0.4c0,0.3,0,0.6-0.1,1
		c-0.1,0.4-0.1,0.9-0.1,1.5c0.7-0.9,1.4-1.6,2.1-2.1c0.7-0.5,1.4-0.7,2.2-0.7c1,0,1.8,0.3,2.3,1c0.5,0.7,0.8,1.6,0.8,2.8V149.7z"/>
	<path class="st6" d="M84.7,150.5c0.2,0,0.3,0.2,0.3,0.6c-0.4,0.3-1,0.5-1.7,0.5c-0.4,0-0.7-0.1-1-0.2c-0.3-0.1-0.5-0.3-0.7-0.5
		c-0.2-0.2-0.3-0.4-0.4-0.7c-0.1-0.3-0.2-0.5-0.2-0.8c-0.4,0.9-0.9,1.4-1.5,1.8c-0.6,0.3-1.2,0.5-2,0.5c-0.3,0-0.7,0-1.1-0.1
		c-0.4-0.1-0.7-0.2-1.1-0.4c-0.3-0.2-0.6-0.5-0.8-0.9c-0.2-0.4-0.3-0.9-0.3-1.5c0-0.7,0.1-1.3,0.4-1.8c0.3-0.5,0.7-0.9,1.1-1.2
		c0.5-0.3,1-0.6,1.5-0.8c0.5-0.2,1.1-0.4,1.6-0.5c0.3-0.1,0.6-0.1,0.8-0.2s0.5-0.1,0.6-0.2c0.2-0.1,0.4-0.2,0.4-0.3
		c0.1-0.1,0.1-0.4,0.1-0.8c0-0.9-0.2-1.6-0.5-2.2c-0.3-0.6-0.8-0.9-1.6-0.9c-0.3,0-0.5,0-0.7,0.1c-0.2,0.1-0.4,0.2-0.5,0.4
		c-0.1,0.2-0.3,0.4-0.4,0.6c-0.1,0.3-0.2,0.6-0.3,0.9c-0.1,0.2-0.2,0.4-0.3,0.5s-0.5,0.2-0.9,0.3c-0.1,0-0.2,0.1-0.4,0.1
		c-0.2,0-0.3,0.1-0.4,0.1c-0.2,0-0.3-0.2-0.3-0.6c0-0.4,0.1-0.8,0.4-1.3c0.3-0.4,0.7-0.8,1.1-1.1c0.4-0.3,0.9-0.6,1.4-0.8
		c0.5-0.2,1-0.3,1.5-0.3c0.6,0,1.1,0.1,1.6,0.2c0.5,0.1,0.9,0.3,1.2,0.6s0.6,0.7,0.8,1.2c0.2,0.5,0.3,1.2,0.3,2v4.9
		c0,0.7,0,1.1,0.1,1.4c0,0.3,0.1,0.5,0.2,0.7c0.1,0.3,0.2,0.4,0.4,0.5c0.1,0.1,0.3,0.1,0.4,0.1c0.2,0,0.3,0,0.4-0.1
		C84.5,150.5,84.6,150.5,84.7,150.5z M80.8,144.9l-0.8,0.1c-0.4,0.1-0.9,0.2-1.3,0.3c-0.4,0.1-0.8,0.3-1.1,0.6
		c-0.3,0.2-0.6,0.5-0.8,0.9c-0.2,0.4-0.3,0.8-0.3,1.3c0,0.7,0.2,1.3,0.5,1.7c0.3,0.4,0.7,0.6,1.2,0.6c0.3,0,0.6-0.1,1-0.2
		c0.3-0.2,0.6-0.4,0.8-0.7c0.2-0.3,0.4-0.6,0.6-1c0.1-0.4,0.2-0.8,0.2-1.3V144.9z"/>
	<path class="st6" d="M87.5,150.7c-0.7-0.5-1.1-1.2-1.1-2.1c0-1,0.6-1.7,1.7-2.3c-0.5-0.3-0.8-0.8-1.1-1.3c-0.3-0.5-0.4-1.2-0.4-2
		c0-0.5,0.1-1,0.3-1.5c0.2-0.5,0.5-0.9,0.9-1.3c0.4-0.4,0.8-0.7,1.3-0.9c0.5-0.2,1-0.3,1.6-0.3c0.8,0,1.5,0.1,2,0.3
		c0.5,0.2,0.9,0.5,1.3,0.9l2.5-1.2c0.2,0.1,0.3,0.3,0.4,0.5c0.1,0.2,0.1,0.4,0.1,0.6c0,0.4-0.1,0.6-0.4,0.6l-0.9,0
		c-0.3,0-0.7,0.1-1.2,0.2c0.4,0.6,0.6,1.3,0.6,2.2c0,0.6-0.1,1.1-0.4,1.6c-0.2,0.5-0.6,0.9-1,1.3c-0.4,0.4-0.9,0.6-1.4,0.8
		c-0.6,0.2-1.1,0.3-1.8,0.3c-0.4,0-0.7,0-1-0.1c-0.3,0-0.6-0.1-0.9-0.2c-0.4,0.2-0.7,0.5-0.9,0.7c-0.2,0.2-0.3,0.4-0.3,0.7
		c0,0.2,0,0.3,0.1,0.4c0.1,0.1,0.2,0.3,0.5,0.4c0.2,0.1,0.5,0.2,1,0.3c0.4,0.1,0.9,0.1,1.6,0.1c0.8,0,1.5,0.1,2.1,0.2
		c0.7,0.1,1.3,0.4,1.8,0.7c0.5,0.3,0.9,0.7,1.2,1.2c0.3,0.5,0.4,1.1,0.4,1.8c0,0.8-0.1,1.5-0.4,2.1c-0.3,0.6-0.7,1.2-1.2,1.6
		c-0.5,0.4-1.1,0.8-1.8,1c-0.7,0.2-1.5,0.4-2.3,0.4c-1.6,0-2.8-0.3-3.7-1c-0.9-0.6-1.3-1.7-1.3-3.1c0-0.4,0.1-0.8,0.2-1.2
		c0.1-0.4,0.3-0.7,0.4-1c0.2-0.3,0.4-0.5,0.6-0.7C87.1,151,87.3,150.8,87.5,150.7z M88.1,151c-0.4,0.4-0.6,1-0.7,1.7
		c0,0.2,0,0.3,0,0.5c0,0.2,0,0.3,0,0.5c0,0.4,0.1,0.8,0.3,1.2c0.2,0.4,0.4,0.8,0.7,1.1c0.3,0.3,0.7,0.6,1.2,0.7
		c0.5,0.2,1,0.3,1.6,0.3c1.2,0,2-0.3,2.5-0.9s0.8-1.3,0.8-2.2c0-0.4-0.1-0.7-0.2-1c-0.1-0.3-0.4-0.6-0.7-0.8
		c-0.3-0.2-0.7-0.4-1.3-0.5c-0.5-0.1-1.2-0.2-1.9-0.2c-0.4,0-0.9,0-1.3-0.1C88.8,151.3,88.5,151.2,88.1,151z M91,146
		c0.6,0,1.1-0.2,1.5-0.7c0.4-0.5,0.6-1.1,0.6-1.9c0-0.4,0-0.8-0.1-1.2c-0.1-0.4-0.2-0.8-0.4-1.1c-0.2-0.3-0.4-0.6-0.7-0.8
		c-0.3-0.2-0.7-0.3-1.2-0.3c-0.6,0-1.1,0.2-1.4,0.7c-0.3,0.4-0.5,1-0.5,1.8c0,0.4,0,0.9,0.1,1.3c0.1,0.4,0.2,0.8,0.4,1.2
		c0.2,0.3,0.4,0.6,0.7,0.8C90.2,145.9,90.5,146,91,146z"/>
	<path class="st6" d="M99.6,141.8c0-0.6-0.1-1.1-0.2-1.3c-0.2-0.2-0.5-0.4-1.1-0.4c-0.2,0-0.3-0.2-0.3-0.4c0-0.1,0-0.2,0.1-0.4
		c0.2,0,0.5,0,0.9,0c0.4,0,0.7-0.1,0.9-0.1c0.4-0.1,0.7-0.1,1-0.2c0.3-0.1,0.5-0.1,0.6-0.1c0.2,0,0.4,0.1,0.4,0.4v7.2
		c0,0.5,0,0.9,0.1,1.3c0.1,0.4,0.1,0.7,0.3,1c0.1,0.3,0.3,0.5,0.6,0.7c0.3,0.2,0.6,0.2,1,0.2c0.4,0,0.8-0.1,1.2-0.2
		c0.4-0.2,0.8-0.4,1.1-0.7c0.3-0.3,0.6-0.7,0.7-1.2c0.2-0.5,0.3-1,0.3-1.6v-4.2c0-0.6-0.1-1-0.2-1.3c-0.2-0.2-0.5-0.4-1.1-0.4
		c-0.2,0-0.3-0.2-0.3-0.4c0-0.1,0-0.2,0.1-0.4c0.2,0,0.5,0,0.9,0c0.4,0,0.7-0.1,0.9-0.1c0.4-0.1,0.7-0.1,1-0.2
		c0.3-0.1,0.5-0.1,0.6-0.1c0.2,0,0.4,0.1,0.4,0.4v9.3c0,0.3,0,0.6,0.1,0.8c0,0.2,0.1,0.4,0.2,0.5c0.1,0.1,0.2,0.2,0.4,0.3
		s0.4,0.1,0.7,0.1c0.2,0,0.3,0.2,0.3,0.4c0,0.1,0,0.2-0.1,0.4c-0.3,0-0.7,0-1,0.1c-0.4,0.1-0.7,0.1-1,0.2c-0.3,0.1-0.6,0.1-0.9,0.2
		c-0.2,0.1-0.4,0.1-0.5,0.1c-0.2,0-0.4-0.1-0.4-0.4v-2.4c-0.1,0.1-0.2,0.2-0.4,0.5c-0.2,0.3-0.5,0.6-0.9,1c-0.4,0.3-0.8,0.7-1.3,0.9
		c-0.5,0.3-1,0.4-1.6,0.4c-1,0-1.8-0.3-2.3-1c-0.5-0.7-0.8-1.6-0.8-2.8V141.8z"/>
	<path class="st6" d="M119.2,142.4c-0.1,0-0.2,0-0.3-0.1c-0.1-0.1-0.1-0.1-0.1-0.2c-0.1-0.8-0.4-1.3-0.8-1.7c-0.4-0.3-1-0.5-1.6-0.5
		c-0.5,0-0.9,0.2-1.3,0.5c-0.4,0.3-0.6,0.7-0.6,1.3c0,0.5,0.2,0.9,0.5,1.2c0.3,0.3,1,0.7,1.9,1c0.5,0.2,0.9,0.4,1.3,0.6
		c0.4,0.2,0.8,0.5,1.1,0.8c0.3,0.3,0.5,0.7,0.7,1.1c0.2,0.4,0.3,0.9,0.3,1.5c0,0.5-0.1,1-0.2,1.4c-0.2,0.5-0.4,0.9-0.7,1.2
		c-0.3,0.3-0.7,0.6-1.2,0.8c-0.5,0.2-1.1,0.3-1.8,0.3c-0.5,0-1.1-0.1-1.8-0.2c-0.7-0.1-1.3-0.4-1.8-0.7c0-0.5-0.1-1-0.1-1.6
		c0-0.5,0-1.1,0-1.6h0.3c0.2,0,0.3,0,0.4,0.1c0.1,0.1,0.2,0.2,0.2,0.3c0.1,0.8,0.3,1.4,0.8,1.9c0.5,0.5,1.1,0.7,2,0.7
		c0.7,0,1.2-0.2,1.6-0.5c0.4-0.4,0.6-0.8,0.6-1.4c0-0.6-0.2-1.1-0.6-1.4c-0.4-0.3-1-0.6-1.8-0.9c-1-0.3-1.8-0.8-2.3-1.3
		c-0.6-0.6-0.8-1.4-0.8-2.4c0-0.5,0.1-1,0.3-1.4c0.2-0.4,0.4-0.8,0.7-1.1c0.3-0.3,0.7-0.6,1.1-0.8c0.4-0.2,0.9-0.3,1.5-0.3
		c0.7,0,1.3,0.1,1.9,0.3c0.6,0.2,1.1,0.4,1.4,0.6c0,0.2,0,0.3,0.1,0.6c0,0.2,0,0.4,0,0.7c0,0.2,0,0.5,0,0.7c0,0.2,0,0.5,0,0.6
		L119.2,142.4z"/>
	<path class="st6" d="M164.8,142.4c-0.1,0-0.2,0-0.3-0.1c-0.1-0.1-0.1-0.1-0.1-0.2c-0.1-0.8-0.4-1.3-0.8-1.7c-0.4-0.3-1-0.5-1.6-0.5
		c-0.5,0-0.9,0.2-1.3,0.5c-0.4,0.3-0.6,0.7-0.6,1.3c0,0.5,0.2,0.9,0.5,1.2c0.3,0.3,1,0.7,1.9,1c0.5,0.2,0.9,0.4,1.3,0.6
		c0.4,0.2,0.8,0.5,1.1,0.8c0.3,0.3,0.5,0.7,0.7,1.1c0.2,0.4,0.3,0.9,0.3,1.5c0,0.5-0.1,1-0.2,1.4c-0.2,0.5-0.4,0.9-0.7,1.2
		c-0.3,0.3-0.7,0.6-1.2,0.8c-0.5,0.2-1.1,0.3-1.8,0.3c-0.5,0-1.1-0.1-1.8-0.2c-0.7-0.1-1.3-0.4-1.8-0.7c0-0.5-0.1-1-0.1-1.6
		c0-0.5,0-1.1,0-1.6h0.3c0.2,0,0.3,0,0.4,0.1c0.1,0.1,0.2,0.2,0.2,0.3c0.1,0.8,0.3,1.4,0.8,1.9c0.5,0.5,1.1,0.7,2,0.7
		c0.7,0,1.2-0.2,1.6-0.5c0.4-0.4,0.6-0.8,0.6-1.4c0-0.6-0.2-1.1-0.6-1.4c-0.4-0.3-1-0.6-1.8-0.9c-1-0.3-1.8-0.8-2.3-1.3
		c-0.6-0.6-0.8-1.4-0.8-2.4c0-0.5,0.1-1,0.3-1.4c0.2-0.4,0.4-0.8,0.7-1.1c0.3-0.3,0.7-0.6,1.1-0.8c0.4-0.2,0.9-0.3,1.5-0.3
		c0.7,0,1.3,0.1,1.9,0.3c0.6,0.2,1.1,0.4,1.4,0.6c0,0.2,0,0.3,0.1,0.6c0,0.2,0,0.4,0,0.7c0,0.2,0,0.5,0,0.7c0,0.2,0,0.5,0,0.6
		L164.8,142.4z"/>
	<path class="st6" d="M136,151.6c-1.4,0-2.6-0.2-3.7-0.7c-1.1-0.5-1.9-1.2-2.6-2c-0.7-0.9-1.2-1.9-1.6-3.1c-0.3-1.2-0.5-2.4-0.5-3.8
		c0-1.1,0.2-2.3,0.5-3.4c0.3-1.1,0.9-2.2,1.6-3.1c0.7-0.9,1.6-1.7,2.6-2.3c1.1-0.6,2.3-0.9,3.7-0.9c0.6,0,1.1,0,1.5,0
		c0.5,0,0.9,0.1,1.3,0.1c0.4,0.1,0.8,0.2,1.2,0.3c0.4,0.1,0.8,0.2,1.3,0.4c0,0.5,0.1,1.1,0.2,1.9c0.1,0.7,0.2,1.5,0.4,2.3
		c-0.1,0.1-0.3,0.1-0.4,0.1c-0.1,0-0.3,0-0.4-0.1c-0.1,0-0.2-0.1-0.2-0.3c-0.3-1.3-0.8-2.2-1.4-2.7c-0.7-0.5-1.6-0.8-2.8-0.8
		c-1,0-2,0.2-2.8,0.6c-0.8,0.4-1.5,0.9-2,1.6c-0.5,0.7-1,1.5-1.2,2.5c-0.3,1-0.4,2-0.4,3.2c0,1.3,0.2,2.5,0.5,3.6
		c0.4,1.1,0.8,2.1,1.4,2.9c0.6,0.8,1.3,1.4,2.1,1.9c0.8,0.4,1.7,0.7,2.6,0.7c0.7,0,1.3-0.1,1.8-0.2c0.5-0.2,0.9-0.4,1.2-0.7
		c0.3-0.3,0.6-0.7,0.8-1.1c0.2-0.4,0.4-1,0.6-1.5c0.1-0.3,0.3-0.4,0.6-0.4c0.1,0,0.2,0,0.3,0c0.1,0,0.2,0.1,0.2,0.1
		c-0.2,0.7-0.4,1.4-0.6,2.2c-0.2,0.8-0.4,1.6-0.5,2.4c-0.8,0.2-1.7,0.3-2.5,0.4C138,151.6,137.1,151.6,136,151.6z"/>
	<path class="st6" d="M145.1,141.8c0-0.6-0.1-1.1-0.2-1.3c-0.2-0.2-0.5-0.4-1.1-0.4c-0.2,0-0.3-0.2-0.3-0.4c0-0.1,0-0.2,0.1-0.4
		c0.2,0,0.5,0,0.9,0c0.4,0,0.7-0.1,0.9-0.1c0.4-0.1,0.7-0.1,1-0.2c0.3-0.1,0.5-0.1,0.6-0.1c0.2,0,0.4,0.1,0.4,0.4v7.2
		c0,0.5,0,0.9,0.1,1.3c0.1,0.4,0.1,0.7,0.3,1c0.1,0.3,0.3,0.5,0.6,0.7c0.3,0.2,0.6,0.2,1,0.2c0.4,0,0.8-0.1,1.2-0.2
		c0.4-0.2,0.8-0.4,1.1-0.7c0.3-0.3,0.6-0.7,0.7-1.2c0.2-0.5,0.3-1,0.3-1.6v-4.2c0-0.6-0.1-1-0.2-1.3c-0.2-0.2-0.5-0.4-1.1-0.4
		c-0.2,0-0.3-0.2-0.3-0.4c0-0.1,0-0.2,0.1-0.4c0.2,0,0.5,0,0.9,0c0.4,0,0.7-0.1,0.9-0.1c0.4-0.1,0.7-0.1,1-0.2
		c0.3-0.1,0.5-0.1,0.6-0.1c0.2,0,0.4,0.1,0.4,0.4v9.3c0,0.3,0,0.6,0.1,0.8c0,0.2,0.1,0.4,0.2,0.5c0.1,0.1,0.2,0.2,0.4,0.3
		s0.4,0.1,0.7,0.1c0.2,0,0.3,0.2,0.3,0.4c0,0.1,0,0.2-0.1,0.4c-0.3,0-0.7,0-1,0.1s-0.7,0.1-1,0.2c-0.3,0.1-0.6,0.1-0.9,0.2
		c-0.2,0.1-0.4,0.1-0.5,0.1c-0.2,0-0.4-0.1-0.4-0.4v-2.4c-0.1,0.1-0.2,0.2-0.4,0.5c-0.2,0.3-0.5,0.6-0.9,1c-0.4,0.3-0.8,0.7-1.3,0.9
		c-0.5,0.3-1,0.4-1.6,0.4c-1,0-1.8-0.3-2.3-1c-0.5-0.7-0.8-1.6-0.8-2.8V141.8z"/>
	<path class="st6" d="M170.3,134.8c0.3,0.8,0.4,1.7,0.4,2.8v1.7h2.9c0,0.4,0,0.7-0.1,0.9c-0.1,0.2-0.2,0.3-0.4,0.3h-2.4v7.1
		c0,0.6,0,1.1,0.1,1.5c0.1,0.4,0.1,0.7,0.2,0.9c0.1,0.2,0.2,0.3,0.4,0.4c0.1,0.1,0.3,0.1,0.5,0.1c0.3,0,0.6-0.1,0.8-0.2
		c0.2-0.1,0.5-0.3,0.7-0.5c0.1-0.1,0.2-0.2,0.2-0.2c0.1,0,0.1,0,0.1,0c0.2,0,0.3,0.1,0.4,0.4c-0.4,0.6-0.9,1-1.4,1.3
		c-0.5,0.3-1,0.5-1.6,0.5c-0.3,0-0.7,0-1-0.1c-0.3-0.1-0.6-0.3-0.8-0.5c-0.2-0.2-0.4-0.6-0.5-1c-0.1-0.4-0.2-1-0.2-1.7v-7.9h-1.5
		v-0.3c0-0.1,0-0.3,0.1-0.4c0.1-0.2,0.2-0.2,0.4-0.2C167.6,139.4,170,138.9,170.3,134.8z"/>
	<path class="st6" d="M185.7,150.5c0.2,0,0.3,0.2,0.3,0.6c-0.4,0.3-1,0.5-1.7,0.5c-0.4,0-0.7-0.1-1-0.2c-0.3-0.1-0.5-0.3-0.7-0.5
		c-0.2-0.2-0.3-0.4-0.4-0.7c-0.1-0.3-0.2-0.5-0.2-0.8c-0.4,0.9-0.9,1.4-1.5,1.8c-0.6,0.3-1.2,0.5-2,0.5c-0.3,0-0.7,0-1.1-0.1
		c-0.4-0.1-0.7-0.2-1.1-0.4c-0.3-0.2-0.6-0.5-0.8-0.9c-0.2-0.4-0.3-0.9-0.3-1.5c0-0.7,0.1-1.3,0.4-1.8c0.3-0.5,0.7-0.9,1.1-1.2
		c0.5-0.3,1-0.6,1.5-0.8c0.5-0.2,1.1-0.4,1.6-0.5c0.3-0.1,0.6-0.1,0.8-0.2c0.2-0.1,0.5-0.1,0.6-0.2c0.2-0.1,0.4-0.2,0.4-0.3
		c0.1-0.1,0.1-0.4,0.1-0.8c0-0.9-0.2-1.6-0.5-2.2c-0.3-0.6-0.8-0.9-1.6-0.9c-0.3,0-0.5,0-0.7,0.1c-0.2,0.1-0.4,0.2-0.5,0.4
		c-0.1,0.2-0.3,0.4-0.4,0.6c-0.1,0.3-0.2,0.6-0.3,0.9c-0.1,0.2-0.2,0.4-0.3,0.5c-0.2,0.1-0.5,0.2-0.9,0.3c-0.1,0-0.2,0.1-0.4,0.1
		s-0.3,0.1-0.4,0.1c-0.2,0-0.3-0.2-0.3-0.6c0-0.4,0.1-0.8,0.4-1.3c0.3-0.4,0.7-0.8,1.1-1.1c0.4-0.3,0.9-0.6,1.4-0.8
		c0.5-0.2,1-0.3,1.5-0.3c0.6,0,1.1,0.1,1.6,0.2c0.5,0.1,0.9,0.3,1.2,0.6s0.6,0.7,0.8,1.2c0.2,0.5,0.3,1.2,0.3,2v4.9
		c0,0.7,0,1.1,0.1,1.4s0.1,0.5,0.2,0.7c0.1,0.3,0.2,0.4,0.4,0.5c0.1,0.1,0.3,0.1,0.4,0.1c0.2,0,0.3,0,0.4-0.1
		C185.5,150.5,185.6,150.5,185.7,150.5z M181.8,144.9l-0.8,0.1c-0.4,0.1-0.9,0.2-1.3,0.3c-0.4,0.1-0.8,0.3-1.1,0.6
		c-0.3,0.2-0.6,0.5-0.8,0.9c-0.2,0.4-0.3,0.8-0.3,1.3c0,0.7,0.2,1.3,0.5,1.7c0.3,0.4,0.7,0.6,1.2,0.6c0.3,0,0.6-0.1,1-0.2
		c0.3-0.2,0.6-0.4,0.8-0.7c0.2-0.3,0.4-0.6,0.6-1c0.1-0.4,0.2-0.8,0.2-1.3V144.9z"/>
	<path class="st6" d="M189.8,151.3c-0.3,0-0.6,0-0.9,0c-0.3,0-0.6,0-0.8,0c-0.3,0-0.5,0-0.7,0.1c-0.2,0-0.3,0-0.4,0c0,0,0-0.1,0-0.2
		c0-0.1,0-0.2,0-0.3c0-0.2,0.1-0.3,0.2-0.3c0.4-0.1,0.8-0.2,1.1-0.3c0.3-0.1,0.4-0.4,0.4-0.7v-7.8c0-0.6-0.1-1-0.3-1.2
		c-0.2-0.2-0.6-0.4-1.1-0.5c-0.2,0-0.3-0.2-0.3-0.4c0-0.1,0-0.2,0.1-0.4c0.2,0,0.5,0,0.9,0c0.4,0,0.7-0.1,1-0.1
		c0.4-0.1,0.7-0.2,1-0.2c0.3-0.1,0.5-0.1,0.7-0.1c0.2,0,0.4,0.1,0.4,0.4c0,0.3,0,0.6-0.1,1c-0.1,0.4-0.1,0.9-0.1,1.5v7.9
		c0,0.3,0.1,0.5,0.4,0.7c0.3,0.1,0.6,0.2,1.1,0.3c0.1,0,0.2,0.2,0.2,0.3c0,0.1,0,0.1,0,0.3c0,0.1,0,0.2,0,0.2c-0.1,0-0.2,0-0.3,0
		c-0.2,0-0.4,0-0.6-0.1c-0.3,0-0.5,0-0.8,0C190.3,151.3,190,151.3,189.8,151.3z M188.3,134.1c0-0.5,0.1-0.9,0.4-1.2
		c0.3-0.3,0.6-0.5,1-0.5c0.4,0,0.7,0.2,1,0.5c0.3,0.3,0.4,0.7,0.4,1.2c0,0.5-0.1,0.9-0.4,1.2c-0.3,0.3-0.6,0.5-1,0.5
		c-0.4,0-0.8-0.2-1-0.5C188.4,135,188.3,134.6,188.3,134.1z"/>
	<path class="st6" d="M204.6,141.8c0.1-0.1,0.2-0.2,0.5-0.5c0.2-0.3,0.5-0.6,0.9-1c0.4-0.3,0.8-0.7,1.3-0.9c0.5-0.3,1-0.4,1.6-0.4
		c1,0,1.7,0.3,2.1,1s0.6,1.6,0.6,2.8v7c0,0.3,0.2,0.5,0.5,0.6c0.3,0.1,0.6,0.3,1,0.3c0.2,0,0.2,0.2,0.2,0.3c0,0.1,0,0.3-0.1,0.5
		c-0.4,0-0.9-0.1-1.3-0.1c-0.4,0-0.9,0-1.4,0c-0.4,0-0.9,0-1.3,0c-0.5,0-0.9,0.1-1.3,0.1c0-0.2-0.1-0.3-0.1-0.5
		c0-0.2,0.1-0.3,0.2-0.3c0.2,0,0.3-0.1,0.5-0.1c0.2-0.1,0.3-0.1,0.4-0.2c0.1-0.1,0.2-0.2,0.3-0.3c0.1-0.1,0.1-0.2,0.1-0.4v-5.9
		c0-1.2-0.1-2-0.4-2.4c-0.3-0.4-0.7-0.6-1.2-0.6c-0.4,0-0.9,0.1-1.2,0.2c-0.4,0.2-0.7,0.4-1,0.7c-0.3,0.3-0.5,0.7-0.7,1.2
		c-0.2,0.5-0.3,1-0.3,1.6v5.2c0,0.3,0.1,0.5,0.4,0.6c0.3,0.1,0.6,0.3,1,0.3c0.2,0,0.2,0.2,0.2,0.3c0,0.1,0,0.3-0.1,0.5
		c-0.4,0-0.9-0.1-1.3-0.1c-0.4,0-0.8,0-1.3,0s-0.9,0-1.3,0c-0.4,0-0.9,0.1-1.3,0.1c0-0.2-0.1-0.3-0.1-0.5c0-0.2,0.1-0.3,0.2-0.3
		c0.3-0.1,0.6-0.2,0.9-0.3c0.3-0.1,0.5-0.4,0.5-0.7v-5.9c0-1.2-0.1-2-0.4-2.4c-0.2-0.4-0.6-0.6-1.2-0.6c-0.4,0-0.8,0.1-1.2,0.2
		c-0.4,0.2-0.7,0.4-1.1,0.7c-0.3,0.3-0.6,0.7-0.7,1.2c-0.2,0.5-0.3,1-0.3,1.6v5.2c0,0.3,0.1,0.5,0.4,0.6c0.3,0.1,0.6,0.3,0.9,0.3
		c0.2,0,0.2,0.2,0.2,0.3c0,0.1,0,0.3-0.1,0.5c-0.4,0-0.9-0.1-1.3-0.1c-0.4,0-0.9,0-1.3,0c-0.5,0-1,0-1.4,0s-0.9,0.1-1.3,0.1
		c0-0.2-0.1-0.3-0.1-0.5c0-0.2,0.1-0.3,0.2-0.3c0.4-0.1,0.7-0.2,1-0.3c0.3-0.1,0.5-0.4,0.5-0.7v-7.8c0-0.6-0.1-1-0.3-1.2
		c-0.2-0.2-0.6-0.4-1.1-0.5c-0.2,0-0.3-0.2-0.3-0.4c0-0.1,0-0.2,0.1-0.4c0.2,0,0.5,0,0.9,0c0.4,0,0.7-0.1,1-0.1
		c0.4-0.1,0.7-0.2,1-0.2c0.3-0.1,0.5-0.1,0.7-0.1c0.2,0,0.4,0.1,0.4,0.4c0,0.3,0,0.6-0.1,1c-0.1,0.4-0.1,0.9-0.1,1.5
		c0.1-0.1,0.2-0.2,0.4-0.5c0.2-0.3,0.5-0.6,0.9-1c0.4-0.3,0.8-0.7,1.3-0.9c0.5-0.3,1-0.4,1.6-0.4c0.9,0,1.5,0.3,1.9,0.8
		C204.3,140.1,204.6,140.8,204.6,141.8z"/>
	<path class="st6" d="M231.2,149.7c0,0.3,0.2,0.5,0.5,0.6c0.3,0.1,0.6,0.3,1,0.3c0.2,0,0.2,0.2,0.2,0.3c0,0.1,0,0.3-0.1,0.5
		c-0.4,0-0.9-0.1-1.3-0.1c-0.4,0-0.9,0-1.4,0c-0.5,0-0.9,0-1.3,0c-0.4,0-0.9,0.1-1.3,0.1c0-0.2-0.1-0.3-0.1-0.5
		c0-0.2,0.1-0.3,0.2-0.3c0.4-0.1,0.7-0.2,1-0.3c0.3-0.1,0.4-0.4,0.4-0.6V144c0-0.5,0-0.9-0.1-1.3c-0.1-0.4-0.1-0.7-0.3-1
		c-0.1-0.3-0.3-0.5-0.6-0.7c-0.2-0.2-0.6-0.2-0.9-0.2c-0.4,0-0.8,0.1-1.2,0.2c-0.4,0.2-0.8,0.4-1.1,0.7c-0.3,0.3-0.6,0.7-0.7,1.2
		c-0.2,0.5-0.3,1-0.3,1.6v5.2c0,0.3,0.1,0.5,0.4,0.6c0.3,0.1,0.6,0.3,0.9,0.3c0.2,0,0.2,0.2,0.2,0.3c0,0.1,0,0.3-0.1,0.5
		c-0.4,0-0.9-0.1-1.3-0.1c-0.4,0-0.9,0-1.3,0c-0.5,0-1,0-1.4,0s-0.9,0.1-1.3,0.1c0-0.2-0.1-0.3-0.1-0.5c0-0.2,0.1-0.3,0.2-0.3
		c0.4-0.1,0.7-0.2,1-0.3c0.3-0.1,0.5-0.4,0.5-0.7v-7.8c0-0.6-0.1-1-0.3-1.2c-0.2-0.2-0.6-0.4-1.1-0.5c-0.2,0-0.3-0.2-0.3-0.4
		c0-0.1,0-0.2,0.1-0.4c0.2,0,0.5,0,0.9,0c0.4,0,0.7-0.1,1-0.1c0.4-0.1,0.7-0.2,1-0.2c0.3-0.1,0.5-0.1,0.7-0.1c0.2,0,0.4,0.1,0.4,0.4
		c0,0.3,0,0.6-0.1,1c-0.1,0.4-0.1,0.9-0.1,1.5c0.7-0.9,1.4-1.6,2.1-2.1c0.7-0.5,1.4-0.7,2.2-0.7c1,0,1.8,0.3,2.3,1
		c0.5,0.7,0.8,1.6,0.8,2.8V149.7z"/>
	<path class="st6" d="M245,150.5c0.2,0,0.3,0.2,0.3,0.6c-0.4,0.3-1,0.5-1.7,0.5c-0.4,0-0.7-0.1-1-0.2c-0.3-0.1-0.5-0.3-0.7-0.5
		c-0.2-0.2-0.3-0.4-0.4-0.7c-0.1-0.3-0.2-0.5-0.2-0.8c-0.4,0.9-0.9,1.4-1.5,1.8c-0.6,0.3-1.2,0.5-2,0.5c-0.3,0-0.7,0-1.1-0.1
		c-0.4-0.1-0.7-0.2-1.1-0.4c-0.3-0.2-0.6-0.5-0.8-0.9c-0.2-0.4-0.3-0.9-0.3-1.5c0-0.7,0.1-1.3,0.4-1.8c0.3-0.5,0.7-0.9,1.1-1.2
		c0.5-0.3,1-0.6,1.5-0.8c0.5-0.2,1.1-0.4,1.6-0.5c0.3-0.1,0.6-0.1,0.8-0.2c0.2-0.1,0.5-0.1,0.6-0.2c0.2-0.1,0.4-0.2,0.4-0.3
		c0.1-0.1,0.1-0.4,0.1-0.8c0-0.9-0.2-1.6-0.5-2.2c-0.3-0.6-0.8-0.9-1.6-0.9c-0.3,0-0.5,0-0.7,0.1c-0.2,0.1-0.4,0.2-0.5,0.4
		c-0.1,0.2-0.3,0.4-0.4,0.6c-0.1,0.3-0.2,0.6-0.3,0.9c-0.1,0.2-0.2,0.4-0.3,0.5s-0.5,0.2-0.9,0.3c-0.1,0-0.2,0.1-0.4,0.1
		s-0.3,0.1-0.4,0.1c-0.2,0-0.3-0.2-0.3-0.6c0-0.4,0.1-0.8,0.4-1.3c0.3-0.4,0.7-0.8,1.1-1.1c0.4-0.3,0.9-0.6,1.4-0.8
		c0.5-0.2,1-0.3,1.5-0.3c0.6,0,1.1,0.1,1.6,0.2c0.5,0.1,0.9,0.3,1.2,0.6s0.6,0.7,0.8,1.2c0.2,0.5,0.3,1.2,0.3,2v4.9
		c0,0.7,0,1.1,0.1,1.4s0.1,0.5,0.2,0.7c0.1,0.3,0.2,0.4,0.4,0.5c0.1,0.1,0.3,0.1,0.4,0.1c0.2,0,0.3,0,0.4-0.1
		C244.8,150.5,244.9,150.5,245,150.5z M241.1,144.9l-0.8,0.1c-0.4,0.1-0.9,0.2-1.3,0.3c-0.4,0.1-0.8,0.3-1.1,0.6
		c-0.3,0.2-0.6,0.5-0.8,0.9c-0.2,0.4-0.3,0.8-0.3,1.3c0,0.7,0.2,1.3,0.5,1.7c0.3,0.4,0.7,0.6,1.2,0.6c0.3,0,0.6-0.1,1-0.2
		c0.3-0.2,0.6-0.4,0.8-0.7c0.2-0.3,0.4-0.6,0.6-1c0.1-0.4,0.2-0.8,0.2-1.3V144.9z"/>
	<path class="st6" d="M255.5,141.7c0.1,0,0.2-0.2,0.4-0.5c0.2-0.3,0.5-0.6,0.9-1c0.4-0.3,0.8-0.7,1.3-0.9c0.5-0.3,1-0.4,1.6-0.4
		c0.4,0,0.8,0.1,1.2,0.2c0.4,0.1,0.7,0.4,1,0.7c0.3,0.3,0.5,0.7,0.7,1.2c0.2,0.5,0.3,1.1,0.3,1.8v7c0,0.3,0.2,0.5,0.5,0.6
		c0.3,0.1,0.6,0.3,1,0.3c0.1,0,0.2,0.2,0.2,0.3c0,0.1,0,0.3-0.1,0.5c-0.4,0-0.9-0.1-1.3-0.1s-0.9,0-1.4,0c-0.4,0-0.9,0-1.3,0
		c-0.4,0-0.9,0.1-1.3,0.1c0-0.2-0.1-0.3-0.1-0.5c0-0.2,0.1-0.3,0.2-0.3c0.2,0,0.3-0.1,0.5-0.1s0.3-0.1,0.4-0.2
		c0.1-0.1,0.2-0.2,0.3-0.3c0.1-0.1,0.1-0.2,0.1-0.4V144c0-0.5,0-0.9-0.1-1.3c-0.1-0.4-0.1-0.7-0.3-1c-0.1-0.3-0.3-0.5-0.6-0.7
		c-0.2-0.2-0.6-0.2-0.9-0.2c-0.4,0-0.8,0.1-1.2,0.2c-0.4,0.2-0.8,0.4-1.1,0.7c-0.3,0.3-0.6,0.7-0.7,1.2c-0.2,0.5-0.3,1-0.3,1.6v5.2
		c0,0.3,0.1,0.5,0.4,0.6c0.3,0.1,0.6,0.3,1,0.3c0.2,0,0.2,0.2,0.2,0.3c0,0.1,0,0.3-0.1,0.5c-0.4,0-0.9-0.1-1.3-0.1s-0.9,0-1.3,0
		c-0.5,0-1,0-1.4,0c-0.4,0-0.9,0.1-1.3,0.1c0-0.2-0.1-0.3-0.1-0.5c0-0.2,0.1-0.3,0.2-0.3c0.4-0.1,0.7-0.2,1-0.3
		c0.3-0.1,0.5-0.4,0.5-0.7v-15.4c0-0.6-0.1-1-0.3-1.2s-0.6-0.4-1.2-0.4c-0.2,0-0.3-0.2-0.3-0.4c0-0.1,0-0.2,0.1-0.4
		c0.2,0,0.5,0,0.9,0c0.4,0,0.7-0.1,1.1-0.1c0.4-0.1,0.7-0.1,1-0.2c0.3-0.1,0.5-0.1,0.7-0.1c0.2,0,0.3,0,0.3,0.1
		c0.1,0.1,0.1,0.2,0.1,0.3c0,0.3,0,0.7-0.1,1.1c-0.1,0.4-0.1,0.9-0.1,1.5V141.7z"/>
	<path class="st6" d="M270.7,133.9v7.3h3.9c0.3,0,0.6-0.2,0.7-0.6c0.1-0.4,0.3-0.8,0.3-1.4c0.1-0.2,0.2-0.4,0.5-0.4
		c0.1,0,0.1,0,0.2,0c0.1,0,0.2,0,0.2,0.1c0,0.4-0.1,0.9-0.1,1.4c0,0.5,0,1,0,1.4c0,0.3,0,0.7,0,1.2c0,0.5,0.1,1,0.1,1.6
		c-0.1,0-0.3,0.1-0.4,0.1c-0.3,0-0.4-0.1-0.5-0.4c-0.1-0.5-0.2-1-0.3-1.4c-0.1-0.4-0.4-0.6-0.7-0.6h-3.9v6.8c0,0.4,0.2,0.7,0.7,0.8
		c0.5,0.1,1.2,0.2,2.2,0.2h1.4c0.5,0,0.9-0.1,1.3-0.2c0.4-0.2,0.7-0.4,1-0.7c0.3-0.3,0.5-0.6,0.7-1c0.2-0.4,0.4-0.8,0.6-1.3
		c0.1-0.1,0.2-0.2,0.4-0.2c0.1,0,0.2,0,0.3,0.1c0.1,0.1,0.2,0.1,0.3,0.2c-0.2,0.4-0.3,0.8-0.4,1.3c-0.1,0.5-0.2,1-0.3,1.4
		c-0.1,0.5-0.2,0.8-0.3,1.2c-0.1,0.3-0.2,0.5-0.4,0.5c-0.1,0-0.3,0-0.6,0c-0.3,0-0.5,0-0.8,0c-0.3,0-0.6,0-0.9,0c-0.3,0-0.6,0-0.8,0
		h-5.5c-0.5,0-1,0-1.6,0s-1.1,0.1-1.6,0.1c0-0.2-0.1-0.3-0.1-0.5c0-0.3,0.1-0.4,0.3-0.5c0.6-0.1,1.1-0.3,1.4-0.4
		c0.3-0.2,0.4-0.4,0.4-0.8v-14.6c0-0.4-0.1-0.6-0.4-0.8c-0.2-0.1-0.7-0.3-1.4-0.4c-0.2,0-0.3-0.2-0.3-0.5c0-0.1,0-0.2,0-0.2
		c0-0.1,0-0.1,0-0.2c0.7,0.1,1.3,0.1,1.8,0.1c0.5,0,0.9,0,1.3,0h5c0.8,0,1.4,0,2-0.1c0.6-0.1,0.9-0.1,1.1-0.1c0.2,0,0.4,0.2,0.4,0.5
		c0.1,0.3,0.1,0.7,0.2,1.1c0.1,0.4,0.1,0.9,0.2,1.4c0.1,0.5,0.2,0.9,0.4,1.3c-0.1,0.1-0.3,0.2-0.5,0.2c-0.2,0-0.4-0.1-0.4-0.3
		c-0.2-0.5-0.4-0.9-0.6-1.3c-0.2-0.4-0.4-0.6-0.6-0.9c-0.2-0.2-0.5-0.4-0.9-0.5c-0.3-0.1-0.8-0.2-1.3-0.2H270.7z"/>
	<path class="st6" d="M284,151.3c-0.3,0-0.6,0-0.9,0c-0.3,0-0.6,0-0.8,0c-0.3,0-0.5,0-0.7,0.1c-0.2,0-0.3,0-0.4,0c0,0,0-0.1,0-0.2
		c0-0.1,0-0.2,0-0.3c0-0.2,0.1-0.3,0.2-0.3c0.4-0.1,0.8-0.2,1.1-0.3c0.3-0.1,0.4-0.4,0.4-0.7v-7.8c0-0.6-0.1-1-0.3-1.2
		c-0.2-0.2-0.6-0.4-1.1-0.5c-0.2,0-0.3-0.2-0.3-0.4c0-0.1,0-0.2,0.1-0.4c0.2,0,0.5,0,0.9,0c0.4,0,0.7-0.1,1-0.1
		c0.4-0.1,0.7-0.2,1-0.2c0.3-0.1,0.5-0.1,0.7-0.1c0.2,0,0.4,0.1,0.4,0.4c0,0.3,0,0.6-0.1,1c-0.1,0.4-0.1,0.9-0.1,1.5v7.9
		c0,0.3,0.1,0.5,0.4,0.7c0.3,0.1,0.6,0.2,1.1,0.3c0.1,0,0.2,0.2,0.2,0.3c0,0.1,0,0.1,0,0.3c0,0.1,0,0.2,0,0.2c-0.1,0-0.2,0-0.3,0
		c-0.2,0-0.4,0-0.6-0.1c-0.3,0-0.5,0-0.8,0C284.5,151.3,284.2,151.3,284,151.3z M282.5,134.1c0-0.5,0.1-0.9,0.4-1.2
		c0.3-0.3,0.6-0.5,1-0.5c0.4,0,0.7,0.2,1,0.5c0.3,0.3,0.4,0.7,0.4,1.2c0,0.5-0.1,0.9-0.4,1.2c-0.3,0.3-0.6,0.5-1,0.5
		c-0.4,0-0.8-0.2-1-0.5C282.6,135,282.5,134.6,282.5,134.1z"/>
	<path class="st6" d="M295.4,138.9c0.5,0,0.8,0.1,1.1,0.4c0.2,0.3,0.4,0.6,0.4,0.9c0,0.1,0,0.2-0.1,0.3c0,0.1-0.1,0.2-0.2,0.3
		c-0.1,0.1-0.3,0.2-0.5,0.4c-0.2,0.1-0.5,0.3-0.9,0.5c-0.2-0.2-0.3-0.4-0.5-0.5c-0.2-0.2-0.4-0.2-0.7-0.2c-0.3,0-0.5,0.1-0.8,0.3
		c-0.2,0.2-0.4,0.4-0.6,0.7c-0.2,0.3-0.3,0.7-0.4,1.1c-0.1,0.4-0.1,0.8-0.1,1.3v4.9c0,0.4,0.2,0.7,0.6,0.9c0.4,0.2,0.9,0.4,1.7,0.5
		c0.2,0,0.3,0.2,0.3,0.3c0,0.1,0,0.3-0.1,0.5c-0.2,0-0.4,0-0.7,0c-0.3,0-0.6,0-0.9,0c-0.3,0-0.6,0-0.9,0c-0.3,0-0.6,0-0.9,0
		c-0.5,0-0.9,0-1.4,0c-0.5,0-1,0.1-1.4,0.1c0-0.2-0.1-0.3-0.1-0.5c0-0.2,0.1-0.3,0.2-0.3c0.4-0.1,0.7-0.2,1-0.3
		c0.3-0.2,0.4-0.4,0.4-0.7v-7.3c0-0.4,0-0.7-0.1-1c0-0.3-0.1-0.5-0.2-0.6c-0.1-0.2-0.2-0.3-0.4-0.4c-0.2-0.1-0.4-0.1-0.7-0.2
		c-0.2,0-0.3-0.2-0.3-0.4c0-0.1,0-0.2,0.1-0.4c0.2,0,0.5,0,0.9,0s0.7-0.1,1-0.1c0.4-0.1,0.7-0.2,1-0.2c0.3-0.1,0.5-0.1,0.6-0.1
		c0.2,0,0.4,0.1,0.4,0.4v1.9c0.5-0.7,1.1-1.2,1.6-1.7C294.1,139.1,294.7,138.9,295.4,138.9z"/>
	<path class="st6" d="M306.2,148.6c0.1-0.1,0.2-0.2,0.4-0.2c0.2,0,0.3,0.2,0.5,0.5c-0.2,0.3-0.5,0.7-0.8,1c-0.3,0.3-0.6,0.6-1,0.9
		c-0.4,0.3-0.8,0.5-1.3,0.6c-0.5,0.2-1.1,0.2-1.7,0.2c-0.7,0-1.3-0.1-1.9-0.4s-1.1-0.6-1.6-1.1c-0.5-0.5-0.8-1.2-1.1-1.9
		s-0.4-1.7-0.4-2.7c0-1,0.2-1.9,0.5-2.7c0.3-0.8,0.8-1.5,1.3-2.1c0.5-0.6,1.1-1,1.7-1.4c0.6-0.3,1.2-0.5,1.8-0.5
		c1.6,0,2.7,0.5,3.4,1.5c0.7,1,1.1,2.4,1.1,4c0,0.1-0.1,0.2-0.2,0.2l-7.3,0.4c0,0.7,0.1,1.4,0.3,2.1c0.2,0.6,0.4,1.2,0.8,1.6
		c0.3,0.5,0.7,0.8,1.2,1.1c0.5,0.3,1,0.4,1.6,0.4c0.5,0,1.1-0.1,1.5-0.4C305.4,149.4,305.8,149.1,306.2,148.6z M302.1,139.9
		c-0.8,0-1.5,0.4-2,1.1c-0.5,0.7-0.7,1.7-0.7,2.9l4.7-0.3c0.3,0,0.4-0.1,0.4-0.4c0-0.4-0.1-0.7-0.2-1.1c-0.1-0.4-0.3-0.8-0.5-1.1
		c-0.2-0.3-0.5-0.6-0.8-0.8C302.9,140,302.5,139.9,302.1,139.9z"/>
	<path class="st6" d="M319.3,150.5c0.2,0,0.3,0.2,0.3,0.6c-0.4,0.3-1,0.5-1.7,0.5c-0.4,0-0.7-0.1-1-0.2c-0.3-0.1-0.5-0.3-0.7-0.5
		c-0.2-0.2-0.3-0.4-0.4-0.7c-0.1-0.3-0.2-0.5-0.2-0.8c-0.4,0.9-0.9,1.4-1.5,1.8c-0.6,0.3-1.2,0.5-2,0.5c-0.3,0-0.7,0-1.1-0.1
		c-0.4-0.1-0.7-0.2-1.1-0.4c-0.3-0.2-0.6-0.5-0.8-0.9c-0.2-0.4-0.3-0.9-0.3-1.5c0-0.7,0.1-1.3,0.4-1.8c0.3-0.5,0.7-0.9,1.1-1.2
		c0.5-0.3,1-0.6,1.5-0.8c0.5-0.2,1.1-0.4,1.6-0.5c0.3-0.1,0.6-0.1,0.8-0.2s0.5-0.1,0.6-0.2c0.2-0.1,0.4-0.2,0.4-0.3
		c0.1-0.1,0.1-0.4,0.1-0.8c0-0.9-0.2-1.6-0.5-2.2c-0.3-0.6-0.8-0.9-1.6-0.9c-0.3,0-0.5,0-0.7,0.1c-0.2,0.1-0.4,0.2-0.5,0.4
		c-0.1,0.2-0.3,0.4-0.4,0.6c-0.1,0.3-0.2,0.6-0.3,0.9c-0.1,0.2-0.2,0.4-0.3,0.5c-0.2,0.1-0.5,0.2-0.9,0.3c-0.1,0-0.2,0.1-0.4,0.1
		s-0.3,0.1-0.4,0.1c-0.2,0-0.3-0.2-0.3-0.6c0-0.4,0.1-0.8,0.4-1.3c0.3-0.4,0.7-0.8,1.1-1.1c0.4-0.3,0.9-0.6,1.4-0.8
		c0.5-0.2,1-0.3,1.5-0.3c0.6,0,1.1,0.1,1.6,0.2c0.5,0.1,0.9,0.3,1.2,0.6c0.3,0.3,0.6,0.7,0.8,1.2c0.2,0.5,0.3,1.2,0.3,2v4.9
		c0,0.7,0,1.1,0.1,1.4s0.1,0.5,0.2,0.7c0.1,0.3,0.2,0.4,0.4,0.5c0.1,0.1,0.3,0.1,0.4,0.1c0.2,0,0.3,0,0.4-0.1
		C319.1,150.5,319.2,150.5,319.3,150.5z M315.5,144.9l-0.8,0.1c-0.4,0.1-0.9,0.2-1.3,0.3c-0.4,0.1-0.8,0.3-1.1,0.6
		c-0.3,0.2-0.6,0.5-0.8,0.9c-0.2,0.4-0.3,0.8-0.3,1.3c0,0.7,0.2,1.3,0.5,1.7c0.3,0.4,0.7,0.6,1.2,0.6c0.3,0,0.6-0.1,1-0.2
		c0.3-0.2,0.6-0.4,0.8-0.7c0.2-0.3,0.4-0.6,0.6-1c0.1-0.4,0.2-0.8,0.2-1.3V144.9z"/>
	<path class="st6" d="M331.8,149.7c0,0.3,0.2,0.5,0.5,0.6c0.3,0.1,0.6,0.3,1,0.3c0.2,0,0.2,0.2,0.2,0.3c0,0.1,0,0.3,0,0.5
		c-0.4,0-0.9-0.1-1.3-0.1c-0.4,0-0.9,0-1.4,0c-0.5,0-0.9,0-1.3,0c-0.4,0-0.9,0.1-1.3,0.1c0-0.2-0.1-0.3-0.1-0.5
		c0-0.2,0.1-0.3,0.2-0.3c0.4-0.1,0.7-0.2,1-0.3c0.3-0.1,0.4-0.4,0.4-0.6V144c0-0.5,0-0.9-0.1-1.3c-0.1-0.4-0.1-0.7-0.3-1
		c-0.1-0.3-0.3-0.5-0.6-0.7c-0.2-0.2-0.6-0.2-0.9-0.2c-0.4,0-0.8,0.1-1.2,0.2c-0.4,0.2-0.8,0.4-1.1,0.7c-0.3,0.3-0.6,0.7-0.7,1.2
		c-0.2,0.5-0.3,1-0.3,1.6v5.2c0,0.3,0.1,0.5,0.4,0.6c0.3,0.1,0.6,0.3,0.9,0.3c0.2,0,0.2,0.2,0.2,0.3c0,0.1,0,0.3-0.1,0.5
		c-0.4,0-0.9-0.1-1.3-0.1c-0.4,0-0.9,0-1.3,0c-0.5,0-1,0-1.4,0c-0.4,0-0.9,0.1-1.3,0.1c0-0.2-0.1-0.3-0.1-0.5c0-0.2,0.1-0.3,0.2-0.3
		c0.4-0.1,0.7-0.2,1-0.3c0.3-0.1,0.5-0.4,0.5-0.7v-7.8c0-0.6-0.1-1-0.3-1.2c-0.2-0.2-0.6-0.4-1.1-0.5c-0.2,0-0.3-0.2-0.3-0.4
		c0-0.1,0-0.2,0.1-0.4c0.2,0,0.5,0,0.9,0c0.4,0,0.7-0.1,1-0.1c0.4-0.1,0.7-0.2,1-0.2c0.3-0.1,0.5-0.1,0.7-0.1c0.2,0,0.4,0.1,0.4,0.4
		c0,0.3,0,0.6-0.1,1c-0.1,0.4-0.1,0.9-0.1,1.5c0.7-0.9,1.4-1.6,2.1-2.1c0.7-0.5,1.4-0.7,2.2-0.7c1,0,1.8,0.3,2.3,1
		c0.5,0.7,0.8,1.6,0.8,2.8V149.7z"/>
	<path class="st6" d="M346,149.7c0,0.3,0.2,0.5,0.5,0.6c0.3,0.1,0.6,0.3,1,0.3c0.2,0,0.2,0.2,0.2,0.3c0,0.1,0,0.3,0,0.5
		c-0.4,0-0.9-0.1-1.3-0.1c-0.4,0-0.9,0-1.4,0c-0.5,0-0.9,0-1.3,0c-0.4,0-0.9,0.1-1.3,0.1c0-0.2-0.1-0.3-0.1-0.5
		c0-0.2,0.1-0.3,0.2-0.3c0.4-0.1,0.7-0.2,1-0.3c0.3-0.1,0.4-0.4,0.4-0.6V144c0-0.5,0-0.9-0.1-1.3c-0.1-0.4-0.1-0.7-0.3-1
		c-0.1-0.3-0.3-0.5-0.6-0.7c-0.2-0.2-0.6-0.2-0.9-0.2c-0.4,0-0.8,0.1-1.2,0.2c-0.4,0.2-0.8,0.4-1.1,0.7c-0.3,0.3-0.6,0.7-0.7,1.2
		c-0.2,0.5-0.3,1-0.3,1.6v5.2c0,0.3,0.1,0.5,0.4,0.6c0.3,0.1,0.6,0.3,0.9,0.3c0.2,0,0.2,0.2,0.2,0.3c0,0.1,0,0.3-0.1,0.5
		c-0.4,0-0.9-0.1-1.3-0.1c-0.4,0-0.9,0-1.3,0c-0.5,0-1,0-1.4,0c-0.4,0-0.9,0.1-1.3,0.1c0-0.2-0.1-0.3-0.1-0.5c0-0.2,0.1-0.3,0.2-0.3
		c0.4-0.1,0.7-0.2,1-0.3c0.3-0.1,0.5-0.4,0.5-0.7v-7.8c0-0.6-0.1-1-0.3-1.2c-0.2-0.2-0.6-0.4-1.1-0.5c-0.2,0-0.3-0.2-0.3-0.4
		c0-0.1,0-0.2,0.1-0.4c0.2,0,0.5,0,0.9,0c0.4,0,0.7-0.1,1-0.1c0.4-0.1,0.7-0.2,1-0.2c0.3-0.1,0.5-0.1,0.7-0.1c0.2,0,0.4,0.1,0.4,0.4
		c0,0.3,0,0.6-0.1,1c-0.1,0.4-0.1,0.9-0.1,1.5c0.7-0.9,1.4-1.6,2.1-2.1c0.7-0.5,1.4-0.7,2.2-0.7c1,0,1.8,0.3,2.3,1
		c0.5,0.7,0.8,1.6,0.8,2.8V149.7z"/>
	<path class="st6" d="M274.1,124.8c0.5,0,0.9,0.2,1.2,0.5c0.3,0.3,0.5,0.6,0.5,0.9c0,0.3-0.1,0.5-0.4,0.7c-0.3,0.2-0.6,0.5-0.9,0.7
		c-0.3,0.2-0.5,0.4-0.8,0.7c-0.3,0.2-0.5,0.5-0.8,0.8c-0.3,0.3-0.6,0.6-0.9,0.9c-0.3-0.2-0.4-0.3-0.4-0.5c0-0.1,0-0.2,0.1-0.3
		L274.1,124.8z"/>
	<path class="st6" d="M42.1,130.1c0.5,0,0.9,0.2,1.2,0.5c0.3,0.3,0.5,0.6,0.5,0.9c0,0.3-0.1,0.5-0.4,0.7c-0.3,0.2-0.6,0.5-0.9,0.7
		c-0.3,0.2-0.5,0.4-0.8,0.7c-0.3,0.2-0.5,0.5-0.8,0.8c-0.3,0.3-0.6,0.6-0.9,0.9c-0.3-0.2-0.4-0.3-0.4-0.5c0-0.1,0-0.2,0.1-0.3
		L42.1,130.1z"/>
</g>
<g>
	<path class="st7" d="M23.5,181c0,0.4,0.1,0.6,0.4,0.8c0.2,0.1,0.7,0.3,1.3,0.4c0.2,0,0.3,0.2,0.3,0.5c0,0.1,0,0.3-0.1,0.5
		c-0.5,0-1-0.1-1.6-0.1c-0.5,0-1,0-1.5,0c-0.5,0-1,0-1.5,0c-0.5,0-1.1,0.1-1.5,0.1c0-0.2-0.1-0.3-0.1-0.5c0-0.3,0.1-0.4,0.3-0.5
		c0.6-0.1,1.1-0.3,1.3-0.4c0.2-0.2,0.4-0.4,0.4-0.8v-14.6c0-0.4-0.1-0.7-0.4-0.8c-0.2-0.2-0.7-0.3-1.3-0.4c-0.1,0-0.2-0.1-0.2-0.2
		c0-0.1-0.1-0.2-0.1-0.3s0-0.3,0.1-0.5c0.5,0,1,0.1,1.6,0.1c0.5,0,1,0,1.5,0c0.4,0,0.9,0,1.4,0c0.5,0,1.1-0.1,1.6-0.1
		c0,0.2,0.1,0.3,0.1,0.5c0,0.3-0.1,0.4-0.3,0.5c-0.6,0.1-1.1,0.3-1.3,0.4c-0.2,0.2-0.4,0.4-0.4,0.8V181z"/>
	<path class="st7" d="M34.7,170.6c0.5,0,0.8,0.1,1.1,0.4c0.2,0.3,0.4,0.6,0.4,0.9c0,0.1,0,0.2-0.1,0.3c0,0.1-0.1,0.2-0.2,0.3
		c-0.1,0.1-0.3,0.2-0.5,0.4c-0.2,0.1-0.5,0.3-0.9,0.5c-0.2-0.2-0.3-0.4-0.5-0.5c-0.2-0.2-0.4-0.2-0.7-0.2c-0.3,0-0.5,0.1-0.8,0.3
		c-0.2,0.2-0.4,0.4-0.6,0.7c-0.2,0.3-0.3,0.7-0.4,1.1c-0.1,0.4-0.1,0.8-0.1,1.3v4.9c0,0.4,0.2,0.7,0.6,0.9c0.4,0.2,0.9,0.4,1.7,0.5
		c0.2,0,0.3,0.2,0.3,0.3c0,0.1,0,0.3-0.1,0.5c-0.2,0-0.4,0-0.7,0c-0.3,0-0.6,0-0.9,0c-0.3,0-0.6,0-0.9,0c-0.3,0-0.6,0-0.9,0
		c-0.5,0-0.9,0-1.4,0s-1,0.1-1.4,0.1c0-0.2-0.1-0.3-0.1-0.5c0-0.2,0.1-0.3,0.2-0.3c0.4-0.1,0.7-0.2,1-0.3c0.3-0.2,0.4-0.4,0.4-0.7
		v-7.3c0-0.4,0-0.7-0.1-1c0-0.3-0.1-0.5-0.2-0.6c-0.1-0.2-0.2-0.3-0.4-0.4c-0.2-0.1-0.4-0.1-0.7-0.2c-0.2,0-0.3-0.2-0.3-0.4
		c0-0.1,0-0.2,0.1-0.4c0.2,0,0.5,0,0.9,0s0.7-0.1,1-0.1c0.4-0.1,0.7-0.2,1-0.2c0.3-0.1,0.5-0.1,0.6-0.1c0.2,0,0.4,0.1,0.4,0.4v1.9
		c0.5-0.7,1.1-1.2,1.6-1.7C33.4,170.9,34,170.6,34.7,170.6z"/>
	<path class="st7" d="M39.7,183c-0.3,0-0.6,0-0.9,0c-0.3,0-0.6,0-0.8,0c-0.3,0-0.5,0-0.7,0.1c-0.2,0-0.3,0-0.4,0c0,0,0-0.1,0-0.2
		c0-0.1,0-0.2,0-0.3c0-0.2,0.1-0.3,0.2-0.3c0.4-0.1,0.8-0.2,1.1-0.3c0.3-0.1,0.4-0.4,0.4-0.7v-7.8c0-0.6-0.1-1-0.3-1.2
		c-0.2-0.2-0.6-0.4-1.1-0.5c-0.2,0-0.3-0.2-0.3-0.4c0-0.1,0-0.2,0.1-0.4c0.2,0,0.5,0,0.9,0c0.4,0,0.7-0.1,1-0.1
		c0.4-0.1,0.7-0.2,1-0.2c0.3-0.1,0.5-0.1,0.7-0.1c0.2,0,0.4,0.1,0.4,0.4c0,0.3,0,0.6-0.1,1c-0.1,0.4-0.1,0.9-0.1,1.5v7.9
		c0,0.3,0.1,0.5,0.4,0.7c0.3,0.1,0.6,0.2,1.1,0.3c0.1,0,0.2,0.2,0.2,0.3c0,0.1,0,0.1,0,0.3c0,0.1,0,0.2,0,0.2c-0.1,0-0.2,0-0.3,0
		c-0.2,0-0.4,0-0.6-0.1c-0.3,0-0.5,0-0.8,0C40.3,183,40,183,39.7,183z M38.3,165.8c0-0.5,0.1-0.9,0.4-1.2c0.3-0.3,0.6-0.5,1-0.5
		c0.4,0,0.7,0.2,1,0.5c0.3,0.3,0.4,0.7,0.4,1.2c0,0.5-0.1,0.9-0.4,1.2c-0.3,0.3-0.6,0.5-1,0.5c-0.4,0-0.8-0.2-1-0.5
		C38.4,166.7,38.3,166.3,38.3,165.8z"/>
	<path class="st7" d="M50.7,174.1c-0.1,0-0.2,0-0.3-0.1c-0.1-0.1-0.1-0.1-0.1-0.2c-0.1-0.8-0.4-1.3-0.8-1.7c-0.4-0.3-1-0.5-1.6-0.5
		c-0.5,0-0.9,0.2-1.3,0.5c-0.4,0.3-0.6,0.7-0.6,1.3c0,0.5,0.2,0.9,0.5,1.2c0.3,0.3,1,0.7,1.9,1c0.5,0.2,0.9,0.4,1.3,0.6
		c0.4,0.2,0.8,0.5,1.1,0.8c0.3,0.3,0.5,0.7,0.7,1.1c0.2,0.4,0.3,0.9,0.3,1.5c0,0.5-0.1,1-0.2,1.4c-0.2,0.5-0.4,0.9-0.7,1.2
		c-0.3,0.3-0.7,0.6-1.2,0.8c-0.5,0.2-1.1,0.3-1.8,0.3c-0.5,0-1.1-0.1-1.8-0.2c-0.7-0.1-1.3-0.4-1.8-0.7c0-0.5-0.1-1-0.1-1.6
		c0-0.5,0-1.1,0-1.6h0.3c0.2,0,0.3,0,0.4,0.1c0.1,0.1,0.2,0.2,0.2,0.3c0.1,0.8,0.3,1.4,0.8,1.9c0.5,0.5,1.1,0.7,2,0.7
		c0.7,0,1.2-0.2,1.6-0.5c0.4-0.4,0.6-0.8,0.6-1.4c0-0.6-0.2-1.1-0.6-1.4c-0.4-0.3-1-0.6-1.8-0.9c-1-0.3-1.8-0.8-2.3-1.3
		c-0.6-0.6-0.8-1.4-0.8-2.4c0-0.5,0.1-1,0.3-1.4c0.2-0.4,0.4-0.8,0.7-1.1c0.3-0.3,0.7-0.6,1.1-0.8c0.4-0.2,0.9-0.3,1.5-0.3
		c0.7,0,1.3,0.1,1.9,0.3c0.6,0.2,1.1,0.4,1.4,0.6c0,0.2,0,0.3,0.1,0.6c0,0.2,0,0.4,0,0.7c0,0.2,0,0.5,0,0.7c0,0.2,0,0.5,0,0.6
		L50.7,174.1z"/>
	<path class="st7" d="M57.5,173.4c0.1,0,0.2-0.2,0.4-0.5c0.2-0.3,0.5-0.6,0.9-1c0.4-0.3,0.8-0.7,1.3-0.9c0.5-0.3,1-0.4,1.6-0.4
		c0.4,0,0.8,0.1,1.2,0.2c0.4,0.1,0.7,0.4,1,0.7c0.3,0.3,0.5,0.7,0.7,1.2c0.2,0.5,0.3,1.1,0.3,1.8v7c0,0.3,0.2,0.5,0.5,0.6
		c0.3,0.1,0.6,0.3,1,0.3c0.1,0,0.2,0.2,0.2,0.3c0,0.1,0,0.3-0.1,0.5c-0.4,0-0.9-0.1-1.3-0.1s-0.9,0-1.4,0c-0.4,0-0.9,0-1.3,0
		c-0.4,0-0.9,0.1-1.3,0.1c0-0.2-0.1-0.3-0.1-0.5c0-0.2,0.1-0.3,0.2-0.3c0.2,0,0.3-0.1,0.5-0.1c0.2-0.1,0.3-0.1,0.4-0.2
		c0.1-0.1,0.2-0.2,0.3-0.3c0.1-0.1,0.1-0.2,0.1-0.4v-5.6c0-0.5,0-0.9-0.1-1.3c-0.1-0.4-0.1-0.7-0.3-1c-0.1-0.3-0.3-0.5-0.6-0.7
		c-0.2-0.2-0.6-0.2-0.9-0.2c-0.4,0-0.8,0.1-1.2,0.2c-0.4,0.2-0.8,0.4-1.1,0.7c-0.3,0.3-0.6,0.7-0.7,1.2c-0.2,0.5-0.3,1-0.3,1.6v5.2
		c0,0.3,0.1,0.5,0.4,0.6c0.3,0.1,0.6,0.3,1,0.3c0.2,0,0.2,0.2,0.2,0.3c0,0.1,0,0.3-0.1,0.5c-0.4,0-0.9-0.1-1.3-0.1s-0.9,0-1.3,0
		c-0.5,0-1,0-1.4,0c-0.4,0-0.9,0.1-1.3,0.1c0-0.2-0.1-0.3-0.1-0.5c0-0.2,0.1-0.3,0.2-0.3c0.4-0.1,0.7-0.2,1-0.3
		c0.3-0.1,0.5-0.4,0.5-0.7V166c0-0.6-0.1-1-0.3-1.2c-0.2-0.2-0.6-0.4-1.2-0.4c-0.2,0-0.3-0.2-0.3-0.4c0-0.1,0-0.2,0.1-0.4
		c0.2,0,0.5,0,0.9,0c0.4,0,0.7-0.1,1.1-0.1c0.4-0.1,0.7-0.1,1-0.2c0.3-0.1,0.5-0.1,0.7-0.1c0.2,0,0.3,0,0.3,0.1
		c0.1,0.1,0.1,0.2,0.1,0.3c0,0.3,0,0.7-0.1,1.1c-0.1,0.4-0.1,0.9-0.1,1.5V173.4z"/>
	<path class="st7" d="M81.8,165.6v15.3c0,0.4,0.2,0.7,0.5,0.9c0.3,0.2,0.9,0.3,1.6,0.4c0.2,0,0.3,0.2,0.3,0.5c0,0.1,0,0.3-0.1,0.5
		c-0.5,0-1.1-0.1-1.7-0.1s-1.2,0-1.8,0c-0.6,0-1.2,0-1.8,0c-0.6,0-1.2,0.1-1.7,0.1c0-0.2-0.1-0.4-0.1-0.5c0-0.3,0.1-0.4,0.3-0.5
		c0.8-0.1,1.3-0.3,1.6-0.4c0.3-0.2,0.5-0.5,0.5-0.9v-15.3h-2.6c-0.5,0-0.9,0.1-1.3,0.2c-0.3,0.1-0.6,0.3-0.9,0.5
		c-0.3,0.2-0.5,0.5-0.7,0.9c-0.2,0.4-0.4,0.8-0.6,1.3c0,0.1-0.1,0.2-0.2,0.2c-0.1,0-0.1,0.1-0.2,0.1c-0.2,0-0.3-0.1-0.5-0.2
		c0.2-0.7,0.3-1.3,0.4-1.8c0.1-0.5,0.2-1,0.2-1.3c0.1-0.4,0.1-0.6,0.2-0.8c0.1-0.2,0.2-0.3,0.4-0.3c0.1,0,0.3,0,0.5,0
		c0.2,0,0.4,0,0.7,0.1c0.2,0,0.5,0,0.7,0.1c0.3,0,0.5,0,0.7,0h8.4c0.2,0,0.4,0,0.7,0c0.3,0,0.5,0,0.8-0.1c0.3,0,0.5,0,0.7-0.1
		c0.2,0,0.4,0,0.5,0c0.2,0,0.3,0.1,0.4,0.3c0.1,0.2,0.1,0.5,0.2,0.8c0.1,0.4,0.1,0.8,0.2,1.3c0.1,0.5,0.2,1.1,0.4,1.8
		c-0.1,0-0.2,0.1-0.2,0.1c-0.1,0-0.2,0.1-0.3,0.1c-0.1,0-0.1,0-0.2-0.1c-0.1,0-0.1-0.1-0.2-0.2c-0.2-0.5-0.4-0.9-0.6-1.3
		c-0.2-0.4-0.4-0.7-0.6-0.9c-0.2-0.2-0.5-0.4-0.9-0.5c-0.3-0.1-0.8-0.2-1.3-0.2H81.8z"/>
	<path class="st7" d="M97.6,182.3c0.2,0,0.3,0.2,0.3,0.6c-0.4,0.3-1,0.5-1.7,0.5c-0.4,0-0.7-0.1-1-0.2c-0.3-0.1-0.5-0.3-0.7-0.5
		c-0.2-0.2-0.3-0.4-0.4-0.7c-0.1-0.3-0.2-0.5-0.2-0.8c-0.4,0.9-0.9,1.4-1.5,1.8c-0.6,0.3-1.2,0.5-2,0.5c-0.3,0-0.7,0-1.1-0.1
		c-0.4-0.1-0.7-0.2-1.1-0.4c-0.3-0.2-0.6-0.5-0.8-0.9c-0.2-0.4-0.3-0.9-0.3-1.5c0-0.7,0.1-1.3,0.4-1.8c0.3-0.5,0.7-0.9,1.1-1.2
		c0.5-0.3,1-0.6,1.5-0.8c0.5-0.2,1.1-0.4,1.6-0.5c0.3-0.1,0.6-0.1,0.8-0.2c0.2-0.1,0.5-0.1,0.6-0.2c0.2-0.1,0.4-0.2,0.4-0.3
		c0.1-0.1,0.1-0.4,0.1-0.8c0-0.9-0.2-1.6-0.5-2.2c-0.3-0.6-0.8-0.9-1.6-0.9c-0.3,0-0.5,0-0.7,0.1c-0.2,0.1-0.4,0.2-0.5,0.4
		c-0.1,0.2-0.3,0.4-0.4,0.6c-0.1,0.3-0.2,0.6-0.3,0.9c-0.1,0.2-0.2,0.4-0.3,0.5c-0.2,0.1-0.5,0.2-0.9,0.3c-0.1,0-0.2,0.1-0.4,0.1
		c-0.2,0-0.3,0.1-0.4,0.1c-0.2,0-0.3-0.2-0.3-0.6c0-0.4,0.1-0.8,0.4-1.3c0.3-0.4,0.7-0.8,1.1-1.1c0.4-0.3,0.9-0.6,1.4-0.8
		c0.5-0.2,1-0.3,1.5-0.3c0.6,0,1.1,0.1,1.6,0.2c0.5,0.1,0.9,0.3,1.2,0.6s0.6,0.7,0.8,1.2c0.2,0.5,0.3,1.2,0.3,2v4.9
		c0,0.7,0,1.1,0.1,1.4c0,0.3,0.1,0.5,0.2,0.7c0.1,0.3,0.2,0.4,0.4,0.5c0.1,0.1,0.3,0.1,0.4,0.1c0.2,0,0.3,0,0.4-0.1
		C97.5,182.3,97.5,182.3,97.6,182.3z M93.8,176.7l-0.8,0.1c-0.4,0.1-0.9,0.2-1.3,0.3c-0.4,0.1-0.8,0.3-1.1,0.6
		c-0.3,0.2-0.6,0.5-0.8,0.9c-0.2,0.4-0.3,0.8-0.3,1.3c0,0.7,0.2,1.3,0.5,1.7c0.3,0.4,0.7,0.6,1.2,0.6c0.3,0,0.6-0.1,1-0.2
		c0.3-0.2,0.6-0.4,0.8-0.7c0.2-0.3,0.4-0.6,0.6-1c0.1-0.4,0.2-0.8,0.2-1.3V176.7z"/>
	<path class="st7" d="M99.7,172.5c-0.2-0.3-0.4-0.5-0.6-0.6s-0.5-0.2-0.8-0.3c-0.2,0-0.3-0.2-0.3-0.4c0,0,0-0.1,0-0.2
		c0-0.1,0-0.2,0.1-0.2c0.4,0,0.8,0.1,1.2,0.1c0.4,0,0.9,0,1.4,0c1,0,2,0,2.8-0.1c0,0.1,0,0.1,0.1,0.2c0,0.1,0,0.1,0,0.2
		c0,0.3-0.1,0.4-0.3,0.4c-0.4,0-0.7,0.1-0.9,0.2c-0.1,0.1-0.2,0.2-0.2,0.3c0,0.2,0.1,0.5,0.4,0.9l1.9,2.7l1.8-2.9
		c0.2-0.3,0.3-0.6,0.3-0.7c0-0.1-0.1-0.2-0.2-0.3c-0.1-0.1-0.3-0.1-0.7-0.2c-0.2,0-0.3-0.1-0.3-0.4c0,0,0-0.1,0-0.2
		c0-0.1,0-0.1,0.1-0.2c0.7,0.1,1.4,0.1,2.1,0.1c0.7,0,1.3,0,1.9-0.1c0.1,0.1,0.1,0.2,0.1,0.4c0,0.2-0.1,0.4-0.3,0.4
		c-0.4,0.1-0.7,0.2-1,0.3c-0.3,0.1-0.5,0.4-0.8,0.8l-2.4,3.8l3,4.4c0.4,0.5,0.7,0.8,0.9,1c0.3,0.2,0.6,0.3,0.9,0.4
		c0.1,0,0.2,0.2,0.2,0.4c0,0.1,0,0.3-0.1,0.5c-0.5,0-1-0.1-1.5-0.1c-0.5,0-1,0-1.4,0c-0.4,0-0.9,0-1.4,0c-0.5,0-1,0.1-1.5,0.1
		c0-0.2-0.1-0.3-0.1-0.5c0-0.2,0.1-0.4,0.3-0.4c0.4-0.1,0.7-0.2,0.9-0.2c0.2-0.1,0.3-0.2,0.3-0.4c0-0.1,0-0.2-0.1-0.3
		c-0.1-0.1-0.2-0.2-0.2-0.4l-2.1-3.1l-1.7,2.9c-0.1,0.2-0.2,0.3-0.2,0.4c-0.1,0.1-0.1,0.2-0.1,0.3c0,0.2,0.1,0.4,0.3,0.5
		c0.2,0.1,0.6,0.2,1,0.3c0.2,0,0.3,0.2,0.3,0.4c0,0.1,0,0.3-0.1,0.5c-0.4,0-0.8-0.1-1.2-0.1c-0.4,0-0.8,0-1.2,0c-0.4,0-0.8,0-1.2,0
		s-0.8,0.1-1.3,0.1c0-0.2-0.1-0.3-0.1-0.5c0-0.2,0.1-0.3,0.2-0.4c0.4-0.1,0.8-0.2,1.2-0.4c0.4-0.2,0.7-0.5,1-0.9l2.5-4L99.7,172.5z"
		/>
	<path class="st7" d="M127,182.3c0.2,0,0.3,0.2,0.3,0.6c-0.4,0.3-1,0.5-1.7,0.5c-0.4,0-0.7-0.1-1-0.2c-0.3-0.1-0.5-0.3-0.7-0.5
		c-0.2-0.2-0.3-0.4-0.4-0.7c-0.1-0.3-0.2-0.5-0.2-0.8c-0.4,0.9-0.9,1.4-1.5,1.8c-0.6,0.3-1.2,0.5-2,0.5c-0.3,0-0.7,0-1.1-0.1
		c-0.4-0.1-0.7-0.2-1.1-0.4c-0.3-0.2-0.6-0.5-0.8-0.9c-0.2-0.4-0.3-0.9-0.3-1.5c0-0.7,0.1-1.3,0.4-1.8c0.3-0.5,0.7-0.9,1.1-1.2
		c0.5-0.3,1-0.6,1.5-0.8c0.5-0.2,1.1-0.4,1.6-0.5c0.3-0.1,0.6-0.1,0.8-0.2s0.5-0.1,0.6-0.2c0.2-0.1,0.4-0.2,0.4-0.3
		c0.1-0.1,0.1-0.4,0.1-0.8c0-0.9-0.2-1.6-0.5-2.2c-0.3-0.6-0.8-0.9-1.6-0.9c-0.3,0-0.5,0-0.7,0.1c-0.2,0.1-0.4,0.2-0.5,0.4
		c-0.1,0.2-0.3,0.4-0.4,0.6c-0.1,0.3-0.2,0.6-0.3,0.9c-0.1,0.2-0.2,0.4-0.3,0.5c-0.2,0.1-0.5,0.2-0.9,0.3c-0.1,0-0.2,0.1-0.4,0.1
		c-0.2,0-0.3,0.1-0.4,0.1c-0.2,0-0.3-0.2-0.3-0.6c0-0.4,0.1-0.8,0.4-1.3c0.3-0.4,0.7-0.8,1.1-1.1c0.4-0.3,0.9-0.6,1.4-0.8
		c0.5-0.2,1-0.3,1.5-0.3c0.6,0,1.1,0.1,1.6,0.2c0.5,0.1,0.9,0.3,1.2,0.6s0.6,0.7,0.8,1.2c0.2,0.5,0.3,1.2,0.3,2v4.9
		c0,0.7,0,1.1,0.1,1.4c0,0.3,0.1,0.5,0.2,0.7c0.1,0.3,0.2,0.4,0.4,0.5c0.1,0.1,0.3,0.1,0.4,0.1c0.2,0,0.3,0,0.4-0.1
		C126.9,182.3,127,182.3,127,182.3z M123.2,176.7l-0.8,0.1c-0.4,0.1-0.9,0.2-1.3,0.3c-0.4,0.1-0.8,0.3-1.1,0.6
		c-0.3,0.2-0.6,0.5-0.8,0.9c-0.2,0.4-0.3,0.8-0.3,1.3c0,0.7,0.2,1.3,0.5,1.7c0.3,0.4,0.7,0.6,1.2,0.6c0.3,0,0.6-0.1,1-0.2
		c0.3-0.2,0.6-0.4,0.8-0.7c0.2-0.3,0.4-0.6,0.6-1c0.1-0.4,0.2-0.8,0.2-1.3V176.7z"/>
	<path class="st7" d="M139.5,181.4c0,0.3,0.2,0.5,0.5,0.6c0.3,0.1,0.6,0.3,1,0.3c0.2,0,0.2,0.2,0.2,0.3c0,0.1,0,0.3-0.1,0.5
		c-0.4,0-0.9-0.1-1.3-0.1c-0.4,0-0.9,0-1.4,0c-0.5,0-0.9,0-1.3,0s-0.9,0.1-1.3,0.1c0-0.2-0.1-0.3-0.1-0.5c0-0.2,0.1-0.3,0.2-0.3
		c0.4-0.1,0.7-0.2,1-0.3c0.3-0.1,0.4-0.4,0.4-0.6v-5.6c0-0.5,0-0.9-0.1-1.3c-0.1-0.4-0.1-0.7-0.3-1c-0.1-0.3-0.3-0.5-0.6-0.7
		c-0.2-0.2-0.6-0.2-0.9-0.2c-0.4,0-0.8,0.1-1.2,0.2c-0.4,0.2-0.8,0.4-1.1,0.7c-0.3,0.3-0.6,0.7-0.7,1.2c-0.2,0.5-0.3,1-0.3,1.6v5.2
		c0,0.3,0.1,0.5,0.4,0.6c0.3,0.1,0.6,0.3,0.9,0.3c0.2,0,0.2,0.2,0.2,0.3c0,0.1,0,0.3-0.1,0.5c-0.4,0-0.9-0.1-1.3-0.1
		c-0.4,0-0.9,0-1.3,0c-0.5,0-1,0-1.4,0s-0.9,0.1-1.3,0.1c0-0.2-0.1-0.3-0.1-0.5c0-0.2,0.1-0.3,0.2-0.3c0.4-0.1,0.7-0.2,1-0.3
		c0.3-0.1,0.5-0.4,0.5-0.7v-7.8c0-0.6-0.1-1-0.3-1.2c-0.2-0.2-0.6-0.4-1.1-0.5c-0.2,0-0.3-0.2-0.3-0.4c0-0.1,0-0.2,0.1-0.4
		c0.2,0,0.5,0,0.9,0c0.4,0,0.7-0.1,1-0.1c0.4-0.1,0.7-0.2,1-0.2c0.3-0.1,0.5-0.1,0.7-0.1c0.2,0,0.4,0.1,0.4,0.4c0,0.3,0,0.6-0.1,1
		c-0.1,0.4-0.1,0.9-0.1,1.5c0.7-0.9,1.4-1.6,2.1-2.1c0.7-0.5,1.4-0.7,2.2-0.7c1,0,1.8,0.3,2.3,1c0.5,0.7,0.8,1.6,0.8,2.8V181.4z"/>
	<path class="st7" d="M153.2,180.5c0,0.2,0,0.4,0.1,0.6c0,0.2,0.1,0.3,0.2,0.4c0.1,0.1,0.2,0.2,0.4,0.3s0.4,0.1,0.7,0.2
		c0.2,0,0.3,0.2,0.3,0.4c0,0.1,0,0.2-0.1,0.4c-0.2,0-0.5,0-0.9,0c-0.4,0-0.7,0.1-0.9,0.1c-0.4,0.1-0.7,0.2-1,0.2
		c-0.3,0.1-0.5,0.1-0.6,0.1c-0.2,0-0.4-0.1-0.4-0.4v-2.2c-0.2,0.4-0.5,0.7-0.7,1c-0.2,0.3-0.5,0.6-0.8,0.9c-0.3,0.3-0.7,0.5-1.1,0.6
		c-0.4,0.2-0.9,0.2-1.5,0.2s-1.1-0.1-1.6-0.4c-0.5-0.3-1-0.7-1.4-1.2c-0.4-0.5-0.7-1.2-1-1.9c-0.2-0.8-0.4-1.6-0.4-2.6
		c0-1,0.2-2,0.5-2.8s0.8-1.5,1.3-2.1c0.5-0.6,1.1-1,1.7-1.3c0.6-0.3,1.2-0.4,1.7-0.4c0.6,0,1.2,0.1,1.7,0.2c0.5,0.1,1,0.3,1.5,0.6
		V166c0-0.6-0.1-1-0.3-1.2s-0.6-0.4-1.1-0.4c-0.2,0-0.3-0.2-0.3-0.4c0-0.1,0-0.2,0.1-0.4c0.2,0,0.5,0,0.9,0c0.4,0,0.7-0.1,1-0.1
		c0.4-0.1,0.7-0.1,1-0.2c0.3-0.1,0.5-0.1,0.7-0.1c0.2,0,0.4,0.1,0.4,0.4c0,0.3,0,0.7-0.1,1.1c-0.1,0.4-0.1,0.9-0.1,1.5V180.5z
		 M151.1,173.2c-0.4-0.5-0.9-0.9-1.4-1.2c-0.5-0.3-1.1-0.4-1.7-0.4c-1,0-1.7,0.5-2.2,1.4c-0.5,0.9-0.7,2.1-0.7,3.5
		c0,0.7,0.1,1.4,0.2,2.1c0.1,0.7,0.4,1.2,0.6,1.7c0.3,0.5,0.6,0.9,1,1.2c0.4,0.3,0.8,0.4,1.3,0.4c0.3,0,0.7-0.1,1-0.3
		c0.3-0.2,0.6-0.5,0.9-0.9c0.3-0.4,0.5-0.8,0.7-1.2c0.2-0.4,0.3-0.9,0.3-1.3V173.2z"/>
	<path class="st7" d="M170.4,183.4c-1.4,0-2.6-0.2-3.7-0.7c-1.1-0.5-1.9-1.2-2.6-2c-0.7-0.9-1.2-1.9-1.6-3.1
		c-0.3-1.2-0.5-2.4-0.5-3.8c0-1.1,0.2-2.3,0.5-3.4c0.3-1.1,0.9-2.2,1.6-3.1c0.7-0.9,1.6-1.7,2.6-2.3c1.1-0.6,2.3-0.9,3.7-0.9
		c0.6,0,1.1,0,1.5,0c0.5,0,0.9,0.1,1.3,0.1c0.4,0.1,0.8,0.2,1.2,0.3c0.4,0.1,0.8,0.2,1.3,0.4c0,0.5,0.1,1.1,0.2,1.9
		c0.1,0.7,0.2,1.5,0.4,2.3c-0.1,0.1-0.3,0.1-0.4,0.1s-0.3,0-0.4-0.1c-0.1,0-0.2-0.1-0.2-0.3c-0.3-1.3-0.8-2.2-1.4-2.7
		c-0.7-0.5-1.6-0.8-2.8-0.8c-1,0-2,0.2-2.8,0.6c-0.8,0.4-1.5,0.9-2,1.6c-0.5,0.7-1,1.5-1.2,2.5c-0.3,1-0.4,2-0.4,3.2
		c0,1.3,0.2,2.5,0.5,3.6c0.4,1.1,0.8,2.1,1.4,2.9c0.6,0.8,1.3,1.4,2.1,1.9c0.8,0.4,1.7,0.7,2.6,0.7c0.7,0,1.3-0.1,1.8-0.2
		c0.5-0.2,0.9-0.4,1.2-0.7c0.3-0.3,0.6-0.7,0.8-1.1c0.2-0.4,0.4-1,0.6-1.5c0.1-0.3,0.3-0.4,0.6-0.4c0.1,0,0.2,0,0.3,0
		c0.1,0,0.2,0.1,0.2,0.1c-0.2,0.7-0.4,1.4-0.6,2.2c-0.2,0.8-0.4,1.6-0.5,2.4c-0.8,0.2-1.7,0.3-2.5,0.4
		C172.4,183.3,171.4,183.4,170.4,183.4z"/>
	<path class="st7" d="M179.5,173.6c0-0.6-0.1-1.1-0.2-1.3c-0.2-0.2-0.5-0.4-1.1-0.4c-0.2,0-0.3-0.2-0.3-0.4c0-0.1,0-0.2,0.1-0.4
		c0.2,0,0.5,0,0.9,0c0.4,0,0.7-0.1,0.9-0.1c0.4-0.1,0.7-0.1,1-0.2c0.3-0.1,0.5-0.1,0.6-0.1c0.2,0,0.4,0.1,0.4,0.4v7.2
		c0,0.5,0,0.9,0.1,1.3c0.1,0.4,0.1,0.7,0.3,1c0.1,0.3,0.3,0.5,0.6,0.7c0.3,0.2,0.6,0.2,1,0.2c0.4,0,0.8-0.1,1.2-0.2
		c0.4-0.2,0.8-0.4,1.1-0.7c0.3-0.3,0.6-0.7,0.7-1.2c0.2-0.5,0.3-1,0.3-1.6v-4.2c0-0.6-0.1-1-0.2-1.3c-0.2-0.2-0.5-0.4-1.1-0.4
		c-0.2,0-0.3-0.2-0.3-0.4c0-0.1,0-0.2,0.1-0.4c0.2,0,0.5,0,0.9,0c0.4,0,0.7-0.1,0.9-0.1c0.4-0.1,0.7-0.1,1-0.2
		c0.3-0.1,0.5-0.1,0.6-0.1c0.2,0,0.4,0.1,0.4,0.4v9.3c0,0.3,0,0.6,0.1,0.8c0,0.2,0.1,0.4,0.2,0.5c0.1,0.1,0.2,0.2,0.4,0.3
		s0.4,0.1,0.7,0.1c0.2,0,0.3,0.2,0.3,0.4c0,0.1,0,0.2-0.1,0.4c-0.3,0-0.7,0-1,0.1s-0.7,0.1-1,0.2c-0.3,0.1-0.6,0.1-0.9,0.2
		c-0.2,0.1-0.4,0.1-0.5,0.1c-0.2,0-0.4-0.1-0.4-0.4v-2.4c-0.1,0.1-0.2,0.2-0.4,0.5c-0.2,0.3-0.5,0.6-0.9,1c-0.4,0.3-0.8,0.7-1.3,0.9
		c-0.5,0.3-1,0.4-1.6,0.4c-1,0-1.8-0.3-2.3-1c-0.5-0.7-0.8-1.6-0.8-2.8V173.6z"/>
	<path class="st7" d="M209.5,177c0-0.9,0.1-1.7,0.4-2.5c0.3-0.8,0.7-1.5,1.2-2c0.5-0.6,1.1-1,1.8-1.4c0.7-0.3,1.4-0.5,2.2-0.5
		c0.8,0,1.6,0.2,2.3,0.5c0.7,0.3,1.3,0.7,1.8,1.3c0.5,0.6,0.9,1.2,1.2,2c0.3,0.8,0.4,1.7,0.4,2.6c0,0.9-0.1,1.7-0.4,2.5
		c-0.3,0.8-0.7,1.4-1.2,2c-0.5,0.6-1.1,1-1.8,1.4c-0.7,0.3-1.4,0.5-2.2,0.5c-0.8,0-1.6-0.2-2.3-0.5c-0.7-0.3-1.3-0.7-1.8-1.3
		c-0.5-0.6-0.9-1.2-1.2-2C209.6,178.8,209.5,177.9,209.5,177z M211.9,176.1c0,0.7,0.1,1.4,0.2,2.2c0.1,0.7,0.3,1.4,0.6,2
		c0.3,0.6,0.6,1.1,1.1,1.5c0.4,0.4,1,0.6,1.6,0.6c1,0,1.7-0.4,2.2-1.1c0.5-0.8,0.8-1.7,0.8-2.9c0-0.7-0.1-1.4-0.2-2.2
		c-0.1-0.8-0.3-1.5-0.6-2.1c-0.3-0.6-0.6-1.2-1.1-1.6c-0.4-0.4-1-0.6-1.7-0.6c-0.9,0-1.6,0.3-2.2,1
		C212.1,173.4,211.9,174.5,211.9,176.1z"/>
	<path class="st7" d="M233.2,173.5c0.1-0.1,0.2-0.2,0.5-0.5c0.2-0.3,0.5-0.6,0.9-1c0.4-0.3,0.8-0.7,1.3-0.9c0.5-0.3,1-0.4,1.6-0.4
		c1,0,1.7,0.3,2.1,1c0.4,0.7,0.6,1.6,0.6,2.8v7c0,0.3,0.2,0.5,0.5,0.6c0.3,0.1,0.6,0.3,1,0.3c0.2,0,0.2,0.2,0.2,0.3
		c0,0.1,0,0.3-0.1,0.5c-0.4,0-0.9-0.1-1.3-0.1c-0.4,0-0.9,0-1.4,0c-0.4,0-0.9,0-1.3,0c-0.5,0-0.9,0.1-1.3,0.1c0-0.2-0.1-0.3-0.1-0.5
		c0-0.2,0.1-0.3,0.2-0.3c0.2,0,0.3-0.1,0.5-0.1c0.2-0.1,0.3-0.1,0.4-0.2c0.1-0.1,0.2-0.2,0.3-0.3c0.1-0.1,0.1-0.2,0.1-0.4v-5.9
		c0-1.2-0.1-2-0.4-2.4c-0.3-0.4-0.7-0.6-1.2-0.6c-0.4,0-0.9,0.1-1.2,0.2c-0.4,0.2-0.7,0.4-1,0.7c-0.3,0.3-0.5,0.7-0.7,1.2
		c-0.2,0.5-0.3,1-0.3,1.6v5.2c0,0.3,0.1,0.5,0.4,0.6c0.3,0.1,0.6,0.3,1,0.3c0.2,0,0.2,0.2,0.2,0.3c0,0.1,0,0.3-0.1,0.5
		c-0.4,0-0.9-0.1-1.3-0.1c-0.4,0-0.8,0-1.3,0s-0.9,0-1.3,0c-0.4,0-0.9,0.1-1.3,0.1c0-0.2-0.1-0.3-0.1-0.5c0-0.2,0.1-0.3,0.2-0.3
		c0.3-0.1,0.6-0.2,0.9-0.3c0.3-0.1,0.5-0.4,0.5-0.7v-5.9c0-1.2-0.1-2-0.4-2.4c-0.2-0.4-0.6-0.6-1.2-0.6c-0.4,0-0.8,0.1-1.2,0.2
		c-0.4,0.2-0.7,0.4-1.1,0.7c-0.3,0.3-0.6,0.7-0.7,1.2c-0.2,0.5-0.3,1-0.3,1.6v5.2c0,0.3,0.1,0.5,0.4,0.6c0.3,0.1,0.6,0.3,0.9,0.3
		c0.2,0,0.2,0.2,0.2,0.3c0,0.1,0,0.3-0.1,0.5c-0.4,0-0.9-0.1-1.3-0.1c-0.4,0-0.9,0-1.3,0c-0.5,0-1,0-1.4,0s-0.9,0.1-1.3,0.1
		c0-0.2-0.1-0.3-0.1-0.5c0-0.2,0.1-0.3,0.2-0.3c0.4-0.1,0.7-0.2,1-0.3c0.3-0.1,0.5-0.4,0.5-0.7v-7.8c0-0.6-0.1-1-0.3-1.2
		c-0.2-0.2-0.6-0.4-1.1-0.5c-0.2,0-0.3-0.2-0.3-0.4c0-0.1,0-0.2,0.1-0.4c0.2,0,0.5,0,0.9,0c0.4,0,0.7-0.1,1-0.1
		c0.4-0.1,0.7-0.2,1-0.2c0.3-0.1,0.5-0.1,0.7-0.1c0.2,0,0.4,0.1,0.4,0.4c0,0.3,0,0.6-0.1,1c-0.1,0.4-0.1,0.9-0.1,1.5
		c0.1-0.1,0.2-0.2,0.4-0.5c0.2-0.3,0.5-0.6,0.9-1c0.4-0.3,0.8-0.7,1.3-0.9c0.5-0.3,1-0.4,1.6-0.4c0.9,0,1.5,0.3,1.9,0.8
		C232.9,171.9,233.1,172.6,233.2,173.5z"/>
	<path class="st7" d="M250.3,174.1c-0.1,0-0.2,0-0.3-0.1c-0.1-0.1-0.1-0.1-0.1-0.2c-0.1-0.8-0.4-1.3-0.8-1.7c-0.4-0.3-1-0.5-1.6-0.5
		c-0.5,0-0.9,0.2-1.3,0.5c-0.4,0.3-0.6,0.7-0.6,1.3c0,0.5,0.2,0.9,0.5,1.2c0.3,0.3,1,0.7,1.9,1c0.5,0.2,0.9,0.4,1.3,0.6
		c0.4,0.2,0.8,0.5,1.1,0.8c0.3,0.3,0.5,0.7,0.7,1.1c0.2,0.4,0.3,0.9,0.3,1.5c0,0.5-0.1,1-0.2,1.4c-0.2,0.5-0.4,0.9-0.7,1.2
		c-0.3,0.3-0.7,0.6-1.2,0.8c-0.5,0.2-1.1,0.3-1.8,0.3c-0.5,0-1.1-0.1-1.8-0.2c-0.7-0.1-1.3-0.4-1.8-0.7c0-0.5-0.1-1-0.1-1.6
		c0-0.5,0-1.1,0-1.6h0.3c0.2,0,0.3,0,0.4,0.1c0.1,0.1,0.2,0.2,0.2,0.3c0.1,0.8,0.3,1.4,0.8,1.9c0.5,0.5,1.1,0.7,2,0.7
		c0.7,0,1.2-0.2,1.6-0.5c0.4-0.4,0.6-0.8,0.6-1.4c0-0.6-0.2-1.1-0.6-1.4c-0.4-0.3-1-0.6-1.8-0.9c-1-0.3-1.8-0.8-2.3-1.3
		c-0.6-0.6-0.8-1.4-0.8-2.4c0-0.5,0.1-1,0.3-1.4c0.2-0.4,0.4-0.8,0.7-1.1c0.3-0.3,0.7-0.6,1.1-0.8c0.4-0.2,0.9-0.3,1.5-0.3
		c0.7,0,1.3,0.1,1.9,0.3c0.6,0.2,1.1,0.4,1.4,0.6c0,0.2,0,0.3,0.1,0.6c0,0.2,0,0.4,0,0.7c0,0.2,0,0.5,0,0.7c0,0.2,0,0.5,0,0.6
		L250.3,174.1z"/>
	<path class="st7" d="M199.1,174.1c-0.1,0-0.2,0-0.3-0.1c-0.1-0.1-0.1-0.1-0.1-0.2c-0.1-0.8-0.4-1.3-0.8-1.7c-0.4-0.3-1-0.5-1.6-0.5
		c-0.5,0-0.9,0.2-1.3,0.5c-0.4,0.3-0.6,0.7-0.6,1.3c0,0.5,0.2,0.9,0.5,1.2c0.3,0.3,1,0.7,1.9,1c0.5,0.2,0.9,0.4,1.3,0.6
		c0.4,0.2,0.8,0.5,1.1,0.8c0.3,0.3,0.5,0.7,0.7,1.1c0.2,0.4,0.3,0.9,0.3,1.5c0,0.5-0.1,1-0.2,1.4c-0.2,0.5-0.4,0.9-0.7,1.2
		c-0.3,0.3-0.7,0.6-1.2,0.8c-0.5,0.2-1.1,0.3-1.8,0.3c-0.5,0-1.1-0.1-1.8-0.2c-0.7-0.1-1.3-0.4-1.8-0.7c0-0.5-0.1-1-0.1-1.6
		c0-0.5,0-1.1,0-1.6h0.3c0.2,0,0.3,0,0.4,0.1c0.1,0.1,0.2,0.2,0.2,0.3c0.1,0.8,0.3,1.4,0.8,1.9c0.5,0.5,1.1,0.7,2,0.7
		c0.7,0,1.2-0.2,1.6-0.5c0.4-0.4,0.6-0.8,0.6-1.4c0-0.6-0.2-1.1-0.6-1.4c-0.4-0.3-1-0.6-1.8-0.9c-1-0.3-1.8-0.8-2.3-1.3
		c-0.6-0.6-0.8-1.4-0.8-2.4c0-0.5,0.1-1,0.3-1.4c0.2-0.4,0.4-0.8,0.7-1.1c0.3-0.3,0.7-0.6,1.1-0.8c0.4-0.2,0.9-0.3,1.5-0.3
		c0.7,0,1.3,0.1,1.9,0.3c0.6,0.2,1.1,0.4,1.4,0.6c0,0.2,0,0.3,0.1,0.6c0,0.2,0,0.4,0,0.7c0,0.2,0,0.5,0,0.7c0,0.2,0,0.5,0,0.6
		L199.1,174.1z"/>
	<path class="st7" d="M204.7,166.5c0.3,0.8,0.4,1.7,0.4,2.8v1.7h2.9c0,0.4,0,0.7-0.1,0.9c-0.1,0.2-0.2,0.3-0.4,0.3h-2.4v7.1
		c0,0.6,0,1.1,0.1,1.5c0.1,0.4,0.1,0.7,0.2,0.9c0.1,0.2,0.2,0.3,0.4,0.4c0.1,0.1,0.3,0.1,0.5,0.1c0.3,0,0.6-0.1,0.8-0.2
		c0.2-0.1,0.5-0.3,0.7-0.5c0.1-0.1,0.2-0.2,0.2-0.2c0.1,0,0.1,0,0.1,0c0.2,0,0.3,0.1,0.4,0.4c-0.4,0.6-0.9,1-1.4,1.3
		c-0.5,0.3-1,0.5-1.6,0.5c-0.3,0-0.7,0-1-0.1c-0.3-0.1-0.6-0.3-0.8-0.5c-0.2-0.2-0.4-0.6-0.5-1c-0.1-0.4-0.2-1-0.2-1.7v-7.9h-1.5
		v-0.3c0-0.1,0-0.3,0.1-0.4c0.1-0.2,0.2-0.2,0.4-0.2C201.9,171.2,204.4,170.6,204.7,166.5z"/>
</g>
</svg>
