<?xml version="1.0" encoding="utf-8"?>
<svg version="1.1" id="Layer_1" xmlns="http://www.w3.org/2000/svg" xmlns:xlink="http://www.w3.org/1999/xlink" x="0px" y="0px"
	 viewBox="0 0 315.5 90" style="enable-background:new 0 0 315.5 90;" xml:space="preserve">
<style type="text/css">
	.st0{fill:#B9BAC0;}
	.st1{fill:#76797C;}
	.st2{fill:#75767A;}
</style>
<g>
	<path class="st0" d="M34.4,39L34.4,39c-1.4,0.5-2.8,0.8-4.3,1.1c-1.5,0.2-3.2,0.4-5,0.4c-3.9,0-7.5-1.3-10.1-3.5s-4.3-5.4-4.3-9.3
		c0-4.3,1.5-7.9,4.2-10.5c2.7-2.5,6.5-4,11.1-4c1.7,0,3.3,0.2,4.6,0.4c1.4,0.3,2.6,0.7,3.8,1.2l-1.5,4.1c-0.4-0.3-1.2-0.8-2.4-1.3
		c-1.2-0.4-2.8-0.8-4.9-0.8c-3.2,0-5.6,1-7.3,2.7c-1.7,1.7-2.6,4.2-2.6,7.3c0,3.2,1.1,5.8,2.9,7.5c1.8,1.8,4.1,2.7,6.6,2.7
		c0.9,0,1.7,0,2.3-0.1c0.7-0.1,1.2-0.2,1.7-0.4c0.1-0.7,0.1-1.7,0.1-2.8c0-1,0-2,0-2.7c0-0.9,0-1.6,0-2.4c0-0.7-0.1-1.4-0.1-2h5.1
		c-0.1,0.8-0.1,1.6-0.1,2.5s0,1.8,0,2.7c0,1,0,2.2,0,3.5S34.2,37.9,34.4,39"/>
	<path class="st0" d="M52.1,13.1h-4.6c-1.7,4-3.9,9-6.1,13.9c-2.2,4.9-4.3,9.6-5.9,12.8h4.8c0.1-0.4,0.3-0.9,0.6-1.5
		c0.2-0.5,0.5-1.1,0.6-1.5c0.3-0.7,0.6-1.4,0.9-2.1c0.3-0.7,0.6-1.5,0.9-2.2h10.9c0.3,0.7,0.6,1.5,0.9,2.2c0.3,0.7,0.6,1.5,0.9,2.2
		c0.2,0.5,0.4,1,0.6,1.5c0.2,0.5,0.4,1,0.6,1.5h5.6C61,35.8,59,31,57.1,26.3C55.2,21.5,53.5,16.9,52.1,13.1 M44.9,28.8L44.9,28.8
		c0.3-0.7,0.6-1.4,0.9-2.1c0.3-0.7,0.6-1.4,0.9-2.1c0.5-1.2,1-2.4,1.4-3.5c0.5-1.1,0.9-2.2,1.2-3.2c0.6,1.7,1.1,3.4,1.8,5.2
		c0.7,1.8,1.4,3.7,2.2,5.6"/>
	<path class="st0" d="M89.4,39.5L89.4,39.5c0-3.5-0.1-7.1-0.2-10.5c-0.1-3.5-0.2-6.9-0.4-10c-0.2,0.6-0.5,1.3-0.8,2
		s-0.6,1.5-0.9,2.3c-0.9,2.5-1.9,5.4-3,8.3c-1,2.9-2,5.7-2.9,7.9h-4.5c-1.2-3.4-2.4-7.1-3.6-10.7s-2.3-7-3.2-9.8
		c-0.3,3.1-0.7,6.5-1,10s-0.5,7.1-0.6,10.5h-4.5c0.7-4.5,1.1-8.9,1.5-13.2c0.4-4.4,0.6-8.7,0.8-13.2h6.1c0.6,2.2,1.4,4.5,2.2,6.8
		c0.8,2.3,1.6,4.7,2.5,6.9c0.5,1.4,0.9,2.7,1.4,4c0.4,1.3,0.9,2.5,1.3,3.7c1.2-3.1,2.6-6.8,4-10.5c1.3-3.7,2.7-7.5,3.8-10.9h5.8
		c0,3.8,0.2,8.2,0.4,12.8c0.3,4.6,0.6,9.3,1,13.6"/>
	<path class="st0" d="M110.9,25.3L110.9,25.3c1.4-0.4,2.6-1.2,3.5-2.2s1.4-2.3,1.4-3.5c0-2-0.9-3.6-2.7-4.7
		c-1.8-1.1-4.3-1.7-7.5-1.7h-8.1c0.1,2.6,0.2,4.7,0.2,6.7c0,2.1,0,4.2,0,6.8c0,2.5,0,4.5,0,6.4c0,2-0.1,4-0.2,6.4h8.2
		c3.8,0,6.6-0.7,8.5-2s2.8-3.3,2.8-5.9c0-1.6-0.6-3-1.6-4.1C114.3,26.5,112.7,25.7,110.9,25.3 M102.4,16.6L102.4,16.6
		c0.3-0.1,0.8-0.1,1.2-0.1c0.4,0,0.9,0,1.3,0c2.2,0,3.7,0.3,4.7,1c1,0.6,1.4,1.6,1.4,2.8c0,1.3-0.5,2.2-1.5,2.9c-1,0.7-2.6,1-4.7,1
		h-2.5c0-1.3,0-2.7,0-3.9C102.3,18.9,102.4,17.7,102.4,16.6 M105.1,36h-2.6c-0.1-1.4-0.1-2.8-0.1-4.2c0-1.4,0-2.8,0-4.3h2.6
		c2.4,0,4.2,0.4,5.4,1.1c1.2,0.7,1.7,1.8,1.7,3.2c0,1.3-0.4,2.4-1.5,3.1C109.4,35.6,107.7,36,105.1,36"/>
	<path class="st0" d="M124.1,32.8L124.1,32.8c0,0.5,0,1,0,1.6c0,0.5,0,1,0,1.6c2,0,4.3,0,6.4,0s4.1-0.1,5.5-0.1l-1.4,3.7h-15.5
		c0.1-2.4,0.2-4.4,0.2-6.4s0-4,0-6.4c0-2.6,0-4.7,0-6.8s-0.1-4.2-0.2-6.7h5.1c0,0.9,0,1.7-0.1,2.5c0,0.8,0,1.5-0.1,2.2
		c0,1.3-0.1,2.7-0.1,4.1c0,1.5-0.1,3-0.1,4.7c0,1.2,0,2.2,0,3.2C124,30.9,124.1,31.8,124.1,32.8"/>
	<path class="st0" d="M138.9,39.5L138.9,39.5c0.1-2.4,0.2-4.4,0.2-6.4s0-4,0-6.4c0-2.6,0-4.7,0-6.8s-0.1-4.1-0.2-6.7h5.1
		c0,0.6,0,1.3,0,1.8c0,0.6,0,1.2,0,1.7c0,1.7-0.1,3.2-0.1,4.7c0,1.6-0.1,3.3-0.1,5.3c0,1.9,0,3.4,0.1,5c0,1.5,0.1,2.9,0.1,4.5
		c0,0.5,0,1,0,1.6s0,1.2,0,1.8"/>
	<path class="st0" d="M169.2,13.1L169.2,13.1c-0.1,2.6-0.1,4.7-0.1,6.7c0,2.1,0,4.2,0,6.8c0,2.5,0,4.5,0,6.4c0,2,0.1,4,0.1,6.4h-4.6
		c-2.4-3.7-4.9-7.5-7.3-11.1c-2.4-3.6-4.7-6.9-6.5-9.5c0,4.4,0,7.8,0,11s0.1,6.1,0.2,9.6h-4.6c0.1-2.4,0.2-4.4,0.2-6.4s0-4,0-6.4
		c0-2.6,0-4.7,0-6.8s-0.1-4.2-0.2-6.7h5.3c2.6,3.4,5.1,6.9,7.4,10.2c2.3,3.3,4.3,6.3,5.9,8.7c0-3.9,0-7.1,0-10c0-3-0.1-5.7-0.2-8.8"
		/>
	<path class="st0" d="M195.8,39L195.8,39c-1.4,0.5-2.8,0.8-4.3,1.1c-1.5,0.2-3.2,0.4-5,0.4c-3.9,0-7.5-1.3-10.1-3.5
		s-4.3-5.4-4.3-9.3c0-4.3,1.5-7.9,4.2-10.5c2.7-2.5,6.5-4,11.1-4c1.7,0,3.2,0.2,4.6,0.4c1.4,0.3,2.7,0.7,3.8,1.2l-1.5,4
		c-0.6-0.6-1.6-1.1-2.8-1.4c-1.3-0.4-2.7-0.6-4.2-0.6c-3.3,0-5.8,1-7.5,2.7s-2.6,4.2-2.6,7.3c0,3.2,1.1,5.8,2.9,7.5
		c1.7,1.8,4.1,2.7,6.6,2.7c0.9,0,1.6,0,2.3-0.1s1.2-0.2,1.7-0.4c0.1-0.7,0.1-1.7,0.1-2.8c0-1,0-2,0-2.7c0-0.9,0-1.6,0-2.4
		c0-0.7-0.1-1.4-0.1-2h5.2c-0.1,0.8-0.1,1.6-0.1,2.5s0,1.8,0,2.7c0,1,0,2.2,0,3.5C195.8,36.6,195.8,37.9,195.8,39"/>
	<path class="st1" d="M10.6,61.2L10.6,61.2c0-4.5,1.6-8.1,4.3-10.6c2.6-2.5,6.3-3.8,10.4-3.8c1.7,0,3.1,0.1,4.4,0.3s2.4,0.6,3.4,1.1
		l-1.6,4.3c-0.3-0.5-1.1-1-2.1-1.4c-1.1-0.4-2.4-0.7-4.1-0.7c-2.8,0-5.1,0.9-6.8,2.7c-1.7,1.7-2.7,4.3-2.7,7.4c0,3,1,5.5,2.7,7.3
		c1.7,1.8,4.1,2.8,6.8,2.8c1.3,0,2.4-0.1,3.5-0.4s2-0.7,3-1.4l1.4,3.4c-1.3,0.7-2.6,1.2-4,1.5s-2.9,0.4-4.7,0.4
		c-3.9,0-7.4-1.3-9.9-3.6C12.1,68.2,10.6,65,10.6,61.2"/>
	<path class="st1" d="M47.2,46.8L47.2,46.8c-4,0-7.5,1.4-10,3.8c-2.5,2.4-4,5.9-4,10.2c0,4,1.4,7.3,3.9,9.6s6,3.6,10.1,3.6
		c3.9,0,7.4-1.4,9.9-3.8s4.1-5.9,4.1-10.2c0-4-1.4-7.3-3.9-9.6C54.8,48.1,51.3,46.8,47.2,46.8 M47.2,70.6L47.2,70.6
		c-2.7,0-4.8-1-6.3-2.8s-2.4-4.3-2.4-7.4c0-3,0.8-5.5,2.3-7.3s3.7-2.8,6.4-2.8c2.6,0,4.7,1,6.3,2.8c1.5,1.8,2.4,4.3,2.4,7.3
		S55,66,53.5,67.8S49.8,70.6,47.2,70.6"/>
	<path class="st1" d="M88.4,73L88.4,73c0-3.5-0.1-7.1-0.1-10.5c-0.1-3.5-0.2-6.8-0.4-10c-0.2,0.6-0.4,1.3-0.7,2
		c-0.3,0.7-0.6,1.5-0.9,2.3c-0.9,2.5-2,5.5-3,8.3c-1,2.9-2,5.6-2.9,7.9h-4.5c-1.2-3.4-2.4-7.1-3.6-10.7c-1.2-3.6-2.3-7-3.2-9.8
		c-0.3,3.1-0.6,6.5-0.9,10s-0.5,7.1-0.7,10.5H63c0.7-4.5,1.1-8.9,1.5-13.2c0.4-4.4,0.6-8.7,0.8-13.2h6.1c0.6,2.2,1.4,4.5,2.2,6.8
		c0.8,2.3,1.6,4.7,2.5,7c0.5,1.4,1,2.7,1.4,4s0.8,2.5,1.2,3.7c1.2-3.1,2.6-6.8,4-10.5s2.7-7.5,3.8-10.9h5.8c0,3.8,0.2,8.2,0.4,12.8
		c0.3,4.6,0.6,9.3,1,13.6"/>
	<path class="st1" d="M120.6,73L120.6,73c0-3.5-0.1-7.1-0.2-10.5c-0.1-3.5-0.2-6.8-0.4-10c-0.2,0.6-0.5,1.3-0.8,2s-0.6,1.5-0.9,2.3
		c-0.9,2.5-2,5.5-3,8.3c-1,2.9-2,5.6-2.9,7.9h-4.5c-1.2-3.4-2.4-7.1-3.6-10.7c-1.2-3.6-2.3-7-3.2-9.8c-0.3,3.1-0.7,6.5-1,10
		s-0.5,7.1-0.7,10.5h-4.5c0.7-4.5,1.1-8.9,1.5-13.2c0.4-4.4,0.6-8.7,0.8-13.2h6.1c0.6,2.2,1.4,4.5,2.2,6.8c0.8,2.3,1.6,4.7,2.4,7
		c0.5,1.4,1,2.7,1.4,4c0.4,1.3,0.9,2.5,1.3,3.7c1.2-3.1,2.6-6.8,3.9-10.5s2.7-7.5,3.8-10.9h5.8c0,3.8,0.2,8.2,0.4,12.8
		c0.3,4.6,0.6,9.3,1,13.6"/>
	<path class="st1" d="M128.3,73L128.3,73c0.1-2.4,0.2-4.3,0.2-6.3s0-4,0-6.4c0-2.7,0-4.8,0-6.9c0-2.1-0.1-4.2-0.2-6.8h5.1
		c-0.1,2.6-0.2,4.7-0.2,6.8s0,4.2,0,6.9c0,2.4,0,4.5,0,6.4c0,2,0.1,3.9,0.2,6.3"/>
	<path class="st1" d="M152.4,52.1L152.4,52.1c-0.6-0.5-1.3-1-2.3-1.3c-0.9-0.4-2.1-0.6-3.4-0.6c-1.6,0-2.8,0.3-3.6,0.9
		c-0.8,0.6-1.2,1.4-1.2,2.3c0,0.8,0.2,1.5,0.8,2.1c0.6,0.7,1.7,1.3,3.4,2c0.4,0.2,0.9,0.4,1.3,0.6c0.4,0.2,0.9,0.4,1.3,0.6
		c2,0.9,3.5,1.9,4.4,3.1c0.9,1.2,1.3,2.6,1.3,4.4c0,2.6-1,4.5-2.8,5.8c-1.7,1.3-4.2,2-6.9,2c-1.6,0-3.2-0.1-4.6-0.4
		c-1.4-0.3-2.8-0.7-4.1-1.3l1.5-3.8c1,0.7,2.1,1.2,3.4,1.6c1.2,0.4,2.5,0.6,3.8,0.6c1.8,0,3-0.4,3.8-1.1s1.1-1.6,1.1-2.6
		c0-0.9-0.3-1.7-1-2.4c-0.7-0.7-1.7-1.3-3-1.9c-0.4-0.2-1-0.5-1.5-0.7s-1.1-0.5-1.5-0.7c-1.8-0.8-3.2-1.8-4.1-2.9
		c-0.9-1.1-1.4-2.5-1.4-4.2c0-2.1,1-4,2.7-5.3s4.1-2.1,7.1-2.1c1.6,0,3,0.1,4.2,0.4c1.2,0.2,2.2,0.6,3,1"/>
	<path class="st1" d="M172.1,52.1L172.1,52.1c-0.6-0.5-1.4-1-2.3-1.3c-0.9-0.4-2.1-0.6-3.4-0.6c-1.6,0-2.8,0.3-3.6,0.9
		c-0.8,0.6-1.2,1.4-1.2,2.3c0,0.8,0.2,1.5,0.8,2.1c0.6,0.7,1.7,1.3,3.4,2c0.4,0.2,0.9,0.4,1.3,0.6c0.4,0.2,0.9,0.4,1.3,0.6
		c2,0.9,3.5,1.9,4.4,3.1c0.9,1.2,1.3,2.6,1.3,4.4c0,2.6-1,4.5-2.8,5.8c-1.7,1.3-4.2,2-6.9,2c-1.7,0-3.2-0.1-4.6-0.4
		c-1.4-0.3-2.8-0.7-4.1-1.3l1.5-3.8c1,0.7,2.1,1.2,3.3,1.6s2.5,0.6,3.8,0.6c1.8,0,3-0.4,3.8-1.1s1.1-1.6,1.1-2.6
		c0-0.9-0.3-1.7-1-2.4c-0.7-0.7-1.7-1.3-3-1.9c-0.4-0.2-1-0.5-1.5-0.7s-1.1-0.5-1.5-0.7c-1.8-0.8-3.2-1.8-4.1-2.9
		c-0.9-1.1-1.4-2.5-1.4-4.2c0-2.1,1-4,2.7-5.3s4.1-2.1,7.1-2.1c1.6,0,3,0.1,4.2,0.4c1.2,0.2,2.2,0.6,3,1"/>
	<path class="st1" d="M176.8,73L176.8,73c0.1-2.4,0.2-4.3,0.2-6.3s0-4,0-6.4c0-2.7,0-4.8,0-6.9c0-2.1-0.1-4.2-0.2-6.8h5.1
		c-0.1,2.6-0.2,4.7-0.2,6.8s0,4.2,0,6.9c0,2.4,0,4.5,0,6.4c0,2,0.1,3.9,0.2,6.3"/>
	<path class="st1" d="M198.8,46.8L198.8,46.8c-4,0-7.5,1.4-10,3.8c-2.5,2.4-4,5.9-4,10.2c0,4,1.4,7.3,3.9,9.6
		c2.4,2.3,5.9,3.6,10.1,3.6c4,0,7.5-1.4,10-3.8s4-5.9,4-10.2c0-4-1.4-7.3-3.9-9.6C206.5,48.1,203,46.8,198.8,46.8 M198.8,70.6
		L198.8,70.6c-2.6,0-4.8-1-6.3-2.8s-2.4-4.3-2.4-7.4c0-3,0.8-5.5,2.3-7.3s3.7-2.8,6.4-2.8c2.6,0,4.8,1,6.3,2.8s2.4,4.3,2.4,7.3
		s-0.9,5.6-2.4,7.4C203.7,69.6,201.5,70.6,198.8,70.6"/>
	<path class="st1" d="M237.5,46.6L237.5,46.6c-0.1,2.6-0.1,4.7-0.1,6.8s0,4.2,0,6.9c0,2.4,0,4.4,0,6.4s0.1,3.9,0.1,6.3h-4.4
		c-2.5-3.7-5-7.5-7.4-11.1s-4.7-6.8-6.6-9.4c0,4.4,0,7.9,0,11c0,3.2,0.1,6.1,0.2,9.5h-4.5v-0.7c0-1.2,0.1-3.1,0.2-5.2
		c0.1-2.2,0.1-4.6,0.1-6.8c0-2.7,0-5.4-0.1-7.9c-0.1-2.4-0.1-4.5-0.2-5.8h5.2c2.6,3.5,5.1,7,7.4,10.3c2.3,3.3,4.3,6.3,5.8,8.7
		c0-3.8,0-7,0-10s-0.1-5.8-0.2-9"/>
</g>
<g>
	<path class="st2" d="M240.9,70.1h3V73h-3V70.1z"/>
	<path class="st2" d="M251.7,62.3c0.7,0.3,1.2,0.8,1.6,1.5v-1.5h2.7v10.1c0,1.4-0.2,2.4-0.7,3.1c-0.8,1.2-2.3,1.8-4.6,1.8
		c-1.4,0-2.5-0.3-3.3-0.8s-1.3-1.3-1.4-2.4h3c0.1,0.3,0.2,0.6,0.4,0.7c0.3,0.3,0.8,0.4,1.5,0.4c1,0,1.7-0.3,2-1
		c0.2-0.4,0.3-1.2,0.3-2.2v-0.7c-0.3,0.5-0.6,0.8-0.9,1c-0.6,0.4-1.3,0.6-2.2,0.6c-1.4,0-2.5-0.5-3.3-1.4s-1.2-2.3-1.2-3.9
		c0-1.6,0.4-2.9,1.2-4c0.8-1.1,1.9-1.6,3.3-1.6C250.9,62.1,251.3,62.2,251.7,62.3z M252.7,70c0.4-0.5,0.7-1.3,0.7-2.3
		c0-1-0.2-1.8-0.6-2.3c-0.4-0.5-1-0.8-1.7-0.8c-1,0-1.6,0.5-2,1.4c-0.2,0.5-0.3,1.1-0.3,1.8c0,0.6,0.1,1.2,0.3,1.7
		c0.4,0.9,1,1.3,2,1.3C251.7,70.7,252.2,70.5,252.7,70z"/>
	<path class="st2" d="M267.6,71.7c-0.9,1.1-2.3,1.7-4.1,1.7s-3.2-0.6-4.1-1.7c-0.9-1.1-1.3-2.4-1.3-4c0-1.5,0.4-2.9,1.3-4
		c0.9-1.1,2.3-1.7,4.1-1.7s3.2,0.6,4.1,1.7c0.9,1.1,1.3,2.5,1.3,4C268.9,69.2,268.5,70.6,267.6,71.7z M265.3,70.2
		c0.4-0.6,0.7-1.4,0.7-2.5s-0.2-1.9-0.7-2.5s-1.1-0.9-1.9-0.9s-1.4,0.3-1.9,0.9s-0.7,1.4-0.7,2.5s0.2,1.9,0.7,2.5
		c0.4,0.6,1.1,0.9,1.9,0.9S264.9,70.7,265.3,70.2z"/>
	<path class="st2" d="M277.5,62.4h3L276.6,73h-2.9l-3.8-10.6h3.1l2.2,7.9L277.5,62.4z"/>
	<path class="st2" d="M280.5,70.1h3V73h-3V70.1z"/>
	<path class="st2" d="M288.9,62.4v6.4c0,0.6,0.1,1.1,0.2,1.4c0.3,0.5,0.7,0.8,1.5,0.8c0.9,0,1.6-0.4,1.9-1.2c0.2-0.4,0.3-1,0.3-1.7
		v-5.8h2.8V73h-2.7v-1.5c0,0-0.1,0.1-0.2,0.3c-0.1,0.2-0.2,0.3-0.4,0.4c-0.4,0.4-0.9,0.7-1.3,0.8c-0.4,0.1-0.9,0.2-1.4,0.2
		c-1.6,0-2.6-0.6-3.2-1.7c-0.3-0.6-0.5-1.5-0.5-2.8v-6.4H288.9z"/>
	<path class="st2" d="M298.3,58.6h2.7v7.8l3.5-4h3.5l-3.8,4l4,6.6h-3.4l-2.6-4.5l-1.2,1.2V73h-2.7V58.6z"/>
</g>
</svg>
