<svg id="Layer_1" data-name="Layer 1" xmlns="http://www.w3.org/2000/svg" viewBox="0 0 72.91 72.91"><defs><style>.cls-1{fill:#b9b9c0;}</style></defs><title>gamblersanonymous</title><polygon class="cls-1" points="35.5 36.46 27.3 36.46 27.3 41.42 30.73 41.42 30.73 45.62 20.8 45.62 28.06 23.48 31.11 23.48 31.11 30.73 35.5 30.73 35.5 18.9 25 18.9 14.31 50.2 35.5 50.2 35.5 36.46"/><path class="cls-1" d="M60,32H49.52v31.3h4.39V50h8l5,13.36h5ZM54.1,45.58V36.8h2.67l3.44,8.78Z" transform="translate(-12.87 -13.13)"/><path class="cls-1" d="M49.33,13.13A36.46,36.46,0,1,0,85.79,49.59,36.46,36.46,0,0,0,49.33,13.13Zm0,68.71A32.26,32.26,0,1,1,81.59,49.59,32.26,32.26,0,0,1,49.33,81.85Z" transform="translate(-12.87 -13.13)"/></svg>