<?xml version="1.0" encoding="utf-8"?>
<!-- Generator: Adobe Illustrator 19.2.1, SVG Export Plug-In . SVG Version: 6.00 Build 0)  -->
<svg version="1.1" id="Layer_1" xmlns="http://www.w3.org/2000/svg" xmlns:xlink="http://www.w3.org/1999/xlink" x="0px" y="0px"
	 viewBox="0 0 352.7 45" style="enable-background:new 0 0 352.7 45;" xml:space="preserve">
<style type="text/css">
	.st0{fill:#878787;}
</style>
<g>
	<path class="st0" d="M27.1,21.9c0,3.8,1.6,5.9,4.7,6c2.9,0,4.9-2.5,4.9-6.1c0-3.4-1.9-5.9-4.5-5.9C29.1,15.8,27.1,18.2,27.1,21.9
		 M36.6,29c-0.8,1-2.7,3.1-6.4,3.1c-5,0-8.5-4.3-8.5-10.4c0-6.1,3.7-10.4,8.9-10.4c2,0,3.7,0.8,6.1,2.7l0-2.3l7.2,0l0,4.1l-1.9,0
		l0,16.3c0,5.1-3.8,8.1-10.2,8.1c-3.1,0-5.5-0.7-7.3-2.2c-1.3-1.1-1.9-2.1-2.5-4.6l5.1,0c0.7,1.9,2.1,2.8,4.6,2.8c3.1,0,5-1.6,5-4
		L36.6,29z"/>
	<path class="st0" d="M58.3,23.1c-5,0.5-8.2,0.9-8.2,3.8c0,1.7,1.4,2.9,3.5,2.9c2.7,0,4.8-2,4.8-4.7L58.3,23.1z M63.3,29h1.8l0,4.1
		l-6.6,0l0-2.5c-2.2,2.2-3.8,2.9-6.4,2.9c-4.2,0-7.5-2.9-7.5-6.6c0-6.2,7-6.9,13.8-7.5c0-3.2-0.8-4.1-3.9-4.1
		c-2.2,0-3.7,1.2-3.8,3.2l-5.2-0.2c0.3-4.2,3.7-7,8.7-7c5.9,0,9,2.7,9,7.5L63.3,29z"/>
	<path class="st0" d="M73.1,14.4c2.3-2.4,3.7-3,6.1-3c2.4,0,3.7,0.9,5.1,3.3c1-1.1,3-3.3,6.4-3.3c3.4,0,5.7,2.4,5.7,6l0,11.6l2,0
		l0,4.1l-7.2,0l0-14.3c0-1.9-0.9-3-2.3-3c-2.2,0-4.2,2.8-4.2,5.7l0,7.4l2.1,0l0,4.1l-7.3,0l0-14.1c0-2.1-0.7-3.2-2.2-3.2
		c-2.3,0-4.3,2.8-4.3,6.2l0,6.9h2.1l0,4.1l-9,0l0-4.1l1.8,0l0-13l-1.8,0l0-4.1l7,0L73.1,14.4z"/>
	<path class="st0" d="M106.7,22.7c0,4.3,1.8,6.7,5.1,6.7c2.9,0,4.8-2.6,4.8-6.8c0-4.2-1.8-6.8-4.8-6.8
		C108.5,15.8,106.7,18.3,106.7,22.7 M99.7,4l7.2,0l0,10.4c2.1-2.1,3.8-3,6-3c5.3,0,9.1,4.6,9.1,11c0,6.8-3.6,11.4-8.9,11.4
		c-2.6,0-4.1-0.6-6.5-2.8l0,2.3l-7.2,0l0-4.1l2.2,0l0-21h-2L99.7,4z"/>
	<polygon class="st0" points="122.8,4 130.1,4 130,29.1 132.1,29.1 132.1,33.3 122.8,33.2 122.8,29.1 124.9,29.1 124.9,8.1 
		122.8,8.1 	"/>
	<path class="st0" d="M147.8,20.1c-0.4-2.7-2-4.2-4.5-4.2c-2.3,0-4.1,1.5-4.8,4.1L147.8,20.1z M153.2,26.3c-1,4.6-4.8,7.4-10,7.4
		c-5.9,0-10.3-4.7-10.3-11.2c0-6.4,4.4-11.2,10.4-11.1c3.4,0,6.3,1.6,8.2,4.3c1.9,3,2,5.8,2.1,7.9l-15.3,0c0.5,5.5,4.1,5.8,5.1,5.8
		c2.1,0,3.5-1,4.3-3.2L153.2,26.3z"/>
	<path class="st0" d="M168.8,22.6l-1.9,0.3c-3.9,0.6-5.5,1.1-6.6,2.2c-0.6,0.6-0.9,1.4-0.9,2c0,2,1.7,3.6,3.7,3.6
		c2.9,0,5.7-2.6,5.7-5.3L168.8,22.6z M168.8,30.5c-1.9,1.7-3.7,3.3-7.1,3.3c-4,0-6.9-2.7-6.9-6.4c0-1.6,0.6-3,1.6-4.1
		c1.6-1.7,4-2.4,9.6-3l2.8-0.3v-1.3c0-2.5-1.6-3.8-4.5-3.8c-2.7,0-3.9,1-4.4,3.5l-4.4,0c0.3-2.3,0.8-3.4,2.1-4.5
		c1.6-1.5,4-2.2,7-2.2c5.3,0,8.4,2.6,8.3,7.1l0,11.3h2.5v3.4l-6.7,0L168.8,30.5z"/>
	<polygon class="st0" points="174.8,12.1 183,12.1 183,15.5 180.6,15.5 184,29.9 188.2,12.1 192.2,12.1 196.2,29.9 199.7,15.5 
		197.4,15.5 197.4,12.1 205.4,12.2 205.4,15.5 203.4,15.5 198.4,33.4 194,33.4 190.1,17.5 186.3,33.4 181.8,33.4 176.9,15.5 
		174.8,15.5 	"/>
	<path class="st0" d="M220,22.7l-1.9,0.3c-3.9,0.6-5.5,1.1-6.6,2.2c-0.6,0.6-0.9,1.4-0.9,2c0,2,1.7,3.6,3.7,3.6
		c2.9,0,5.7-2.6,5.7-5.3L220,22.7z M220,30.6c-1.9,1.7-3.7,3.3-7.1,3.3c-4,0-6.9-2.7-6.9-6.4c0-1.6,0.6-3,1.6-4.1
		c1.6-1.7,4-2.4,9.6-3l2.8-0.3v-1.3c0-2.5-1.6-3.8-4.5-3.8c-2.7,0-3.9,1-4.4,3.5l-4.4,0c0.3-2.3,0.8-3.4,2.1-4.5
		c1.6-1.5,4-2.2,7-2.2c5.3,0,8.4,2.6,8.3,7.1l0,11.3h2.5l0,3.4l-6.7,0L220,30.6z"/>
	<path class="st0" d="M235,17c1.2-2.5,2.5-5.2,6.2-5.2c0.7,0,1.1,0.1,2,0.3l0,4c-1-0.2-1.5-0.3-2.1-0.3c-4.8,0-6.2,4.7-6.2,6.3
		l0,8.1l2.4,0l0,3.4l-9,0l0-3.4l2.5,0l0-14.5l-2.4,0l0-3.4l6.5,0L235,17z"/>
	<path class="st0" d="M258.1,20.8c-0.2-3.5-1.8-5.4-4.8-5.4c-4.4,0-5.7,4.8-5.7,5.4L258.1,20.8z M262.5,27c-0.8,2.1-3.1,7-9.2,7
		c-6,0-10.1-4.6-10.1-11.4c0-6.3,4.3-10.9,10.2-10.9c3.4,0,9.4,2,9.4,12l-15.3,0c0.2,4.8,3.2,6.7,6,6.7c2.2,0,3.6-1.1,4.4-3.4
		L262.5,27z"/>
	
		<rect x="263.9" y="29" transform="matrix(1.095082e-03 -1 1 1.095082e-03 234.5575 297.399)" class="st0" width="4.5" height="4.5"/>
	<path class="st0" d="M282.6,29c-0.7,3.1-2.9,4.8-6,4.8c-3.6,0-6.1-2.7-6.1-6.6c0-3.8,2.3-6.5,5.7-6.5c1.4,0,2.4,0.5,3.5,1.7l0-1.3
		l2.6,0l0,4.6h-2.7c-0.3-0.8-0.7-1.4-1.2-1.8c-0.5-0.4-1.1-0.6-1.8-0.6c-1.8,0-3,1.5-3,3.7c0,2.5,1.2,4.1,3,4.1
		c1.3,0,2.3-0.7,2.8-2.2L282.6,29z"/>
	<path class="st0" d="M287.4,27.3c0,2.3,1.1,3.9,2.9,3.9c1.8,0,3-1.5,3-3.9c0-2.2-1.2-3.8-3-3.8C288.6,23.5,287.4,25.1,287.4,27.3
		 M296.5,27.4c0,3.7-2.6,6.5-6.1,6.5c-3.6,0-6.2-2.8-6.2-6.5c0-3.7,2.7-6.5,6.2-6.5C293.8,20.9,296.5,23.8,296.5,27.4"/>
	
		<rect x="298.7" y="30.3" transform="matrix(1.483872e-03 -1 1 1.483872e-03 267.9202 332.2328)" class="st0" width="3.3" height="3.3"/>
	<path class="st0" d="M304.3,21.3l4.2,0l0,8c0,1.4,0.6,2.2,1.8,2.2c1.5,0,2.8-1.6,2.8-3.2l0-4.5h-1.2v-2.4l4.2,0l0,10l1.1,0l0,2.4
		l-4.1,0l0-1.5c-1.1,0.9-2.2,1.8-4,1.8c-2.4,0-3.7-1.5-3.7-4l0-6.2l-1.2,0L304.3,21.3z"/>
	<polygon class="st0" points="319,16.6 323.1,16.6 323.1,25.6 327.5,21.3 330.2,21.3 330.2,23.7 329,23.7 326.9,25.6 330.3,31.3 
		331.3,31.3 331.3,33.7 328.4,33.7 324.8,27.6 323.1,29 323.1,31.3 324.3,31.3 324.3,33.7 319.1,33.6 319.1,31.1 320.1,31.1 
		320.1,18.9 318.9,19 	"/>
</g>
</svg>
