<svg id="Layer_1" data-name="Layer 1" xmlns="http://www.w3.org/2000/svg" viewBox="0 0 348.81 34.56"><defs><style>.cls-1{fill:#565656;}.cls-2{fill:#878787;}</style></defs><title>gambleaware_ie</title><path class="cls-1" d="M35.64,19.26c8.19,0,12.2,4.24,12.2,4.24l-3.48,4.43a14.3,14.3,0,0,0-8.57-3C30,25,25,29.53,25,36.31c0,7.3,5,11.77,11,11.77a12.11,12.11,0,0,0,8.48-3.48V42.1a.92.92,0,0,0-1-1h-2V35.84h5.42c2.26,0,3.2.94,3.2,3.16V53.26H44.77v-1.6c0-.71,0-1.41,0-1.41h-.09a14.61,14.61,0,0,1-9.84,3.58c-8.76,0-16.25-6.69-16.25-17.47A16.75,16.75,0,0,1,35.64,19.26Z" transform="translate(-18.64 -19.26)"/><path class="cls-1" d="M68.36,38.19h.75V38c0-3.44-1.37-4.71-4.43-4.71-1.08,0-3.2.28-3.2,1.6v1.27H55.93V33.63c0-4.47,6.31-4.94,8.81-4.94,8,0,10.36,4.19,10.36,9.56v8.95a.94.94,0,0,0,1,1H78v5H72.65c-2.21,0-3.06-1.22-3.06-2.64,0-.61,0-1,0-1h-.09a7.82,7.82,0,0,1-7.25,4.24c-4.29,0-8.19-2.68-8.19-7.49C54.09,38.81,64.45,38.19,68.36,38.19Zm-4.61,11c3.2,0,5.46-3.39,5.46-6.31v-.57h-1c-3.11,0-8.05.42-8.05,3.77C60.12,47.66,61.3,49.17,63.75,49.17Z" transform="translate(-18.64 -19.26)"/><path class="cls-1" d="M82.82,35.37a.92.92,0,0,0-1-1H79.9V29.25h5.51c2.12,0,3.16,1,3.16,2.68v.71c0,.52,0,1,0,1h.09a8.94,8.94,0,0,1,7.77-5c3.63,0,6,1.7,7,4.94h.09a9.28,9.28,0,0,1,8.19-4.94c5,0,7.86,2.83,7.86,9.14v9.37a.94.94,0,0,0,1,1h1.84v5h-5.65c-2.26,0-3.2-.94-3.2-3.2V38.95c0-2.73-.52-4.8-3.3-4.8-3,0-5.09,2.5-5.74,5.51a10.48,10.48,0,0,0-.38,3.06V53.26h-6V38.95c0-2.59-.38-4.8-3.25-4.8s-5,2.5-5.79,5.56a12.3,12.3,0,0,0-.38,3V53.26H82.82Z" transform="translate(-18.64 -19.26)"/><path class="cls-1" d="M127,26a.92.92,0,0,0-1-1h-1.88V19.83h5.7c2.21,0,3.2,1,3.2,3.2v7c0,1.18-.09,2-.09,2H133a8.54,8.54,0,0,1,7.21-3.34c6.5,0,10.64,5.13,10.64,12.57,0,7.63-4.66,12.57-11,12.57a8.57,8.57,0,0,1-7.16-3.39h-.09a12.54,12.54,0,0,1,.09,1.6v1.22H127Zm11.77,22.84c3.25,0,6-2.68,6-7.44,0-4.57-2.45-7.53-6-7.53-3.11,0-6,2.26-6,7.58C132.83,45.12,134.8,48.79,138.81,48.79Z" transform="translate(-18.64 -19.26)"/><path class="cls-1" d="M155.8,26a.92.92,0,0,0-1-1h-1.88V19.83h5.7c2.21,0,3.2,1,3.2,3.2V47.19a.94.94,0,0,0,1,1h1.84v5H159c-2.26,0-3.2-.94-3.2-3.2Z" transform="translate(-18.64 -19.26)"/><path class="cls-1" d="M179.44,28.68c6.87,0,10.64,5,10.64,11.4,0,.71-.14,2.21-.14,2.21H173.37a6.91,6.91,0,0,0,7.2,6.45,10.91,10.91,0,0,0,6.73-2.68l2.5,4.14a14.61,14.61,0,0,1-9.65,3.63c-8,0-12.9-5.74-12.9-12.57C167.25,33.86,172.24,28.68,179.44,28.68ZM184,38.15c-.09-2.87-2.07-4.85-4.52-4.85a5.75,5.75,0,0,0-5.89,4.85Z" transform="translate(-18.64 -19.26)"/><path class="cls-2" d="M192.48,48h.75a1.26,1.26,0,0,0,1.46-1l9.94-27.17h6.45L221,47a1.26,1.26,0,0,0,1.46,1h.75v5.23h-3.67c-2.35,0-3.2-.61-4-2.73l-2.07-5.84h-11.3l-2.07,5.84c-.75,2.12-1.55,2.73-3.91,2.73h-3.72Zm19.59-8.43-2.87-8.38c-.61-1.84-1.32-5-1.32-5h-.09s-.71,3.15-1.32,5l-2.87,8.38Z" transform="translate(-18.64 -19.26)"/><path class="cls-2" d="M227.09,35.18c-.24-.71-.61-.85-1.32-.85h-.66V29.25h4.1c2,0,2.92.61,3.39,2.45L236.13,45a20.64,20.64,0,0,1,.47,2.54h.09a21.07,21.07,0,0,1,.57-2.54l4.43-15.68H247L251.44,45a16.67,16.67,0,0,1,.52,2.54h.09a20.58,20.58,0,0,1,.47-2.54L256,31.7c.47-1.84,1.41-2.45,3.39-2.45h4.1v5.09h-.66a1.15,1.15,0,0,0-1.32.85l-5.74,18.08H249l-4.1-13.7a20.69,20.69,0,0,1-.57-2.59h-.09s-.24,1.32-.61,2.59l-4,13.7h-6.78Z" transform="translate(-18.64 -19.26)"/><path class="cls-2" d="M279.79,38.19h.75V38c0-3.44-1.37-4.71-4.43-4.71-1.08,0-3.2.28-3.2,1.6v1.27h-5.56V33.63c0-4.47,6.31-4.94,8.81-4.94,8,0,10.36,4.19,10.36,9.56v8.95a.94.94,0,0,0,1,1h1.88v5h-5.37c-2.21,0-3.06-1.22-3.06-2.64,0-.61,0-1,0-1H281a7.82,7.82,0,0,1-7.25,4.24c-4.29,0-8.19-2.68-8.19-7.49C265.52,38.81,275.88,38.19,279.79,38.19Zm-4.61,11c3.2,0,5.46-3.39,5.46-6.31v-.57h-1c-3.11,0-8.05.42-8.05,3.77C271.54,47.66,272.72,49.17,275.17,49.17Z" transform="translate(-18.64 -19.26)"/><path class="cls-2" d="M295.18,35.37a.92.92,0,0,0-1-1h-1.88V29.25h5.46c2.12,0,3.2.89,3.2,2.92v1.41a11,11,0,0,1-.09,1.51h.09c1.08-3.44,4-6.17,7.63-6.17a7.69,7.69,0,0,1,1.08.09V34.9a10.65,10.65,0,0,0-1.46-.09,6.76,6.76,0,0,0-6.55,5,14.54,14.54,0,0,0-.52,3.91v9.51h-5.93Z" transform="translate(-18.64 -19.26)"/><path class="cls-2" d="M323.43,28.68c6.87,0,10.64,5,10.64,11.4,0,.71-.14,2.21-.14,2.21H317.36a6.91,6.91,0,0,0,7.2,6.45,10.91,10.91,0,0,0,6.73-2.68l2.5,4.14a14.61,14.61,0,0,1-9.65,3.63c-8,0-12.9-5.74-12.9-12.57C311.24,33.86,316.23,28.68,323.43,28.68ZM328,38.15c-.09-2.87-2.07-4.85-4.52-4.85a5.75,5.75,0,0,0-5.89,4.85Z" transform="translate(-18.64 -19.26)"/><path class="cls-2" d="M339.13,49.7h3.45v3.56h-3.45Z" transform="translate(-18.64 -19.26)"/><path class="cls-2" d="M347,42.61a.55.55,0,0,0-.62-.62h-1.12V39h3.39c1.32,0,1.88.59,1.88,1.91v8.78a.56.56,0,0,0,.62.62h1.12v3h-3.39c-1.32,0-1.88-.56-1.88-1.91Zm.17-9.25h3.08v3.28h-3.08Z" transform="translate(-18.64 -19.26)"/><path class="cls-2" d="M361.11,38.63c4.09,0,6.34,3,6.34,6.78,0,.42-.08,1.32-.08,1.32h-9.87a4.11,4.11,0,0,0,4.29,3.84,6.5,6.5,0,0,0,4-1.6l1.49,2.47a8.7,8.7,0,0,1-5.75,2.16,7.33,7.33,0,0,1-7.68-7.49C353.85,41.71,356.82,38.63,361.11,38.63Zm2.69,5.64a2.78,2.78,0,0,0-2.69-2.89,3.43,3.43,0,0,0-3.5,2.89Z" transform="translate(-18.64 -19.26)"/></svg>