<svg id="Layer_1" data-name="Layer 1" xmlns="http://www.w3.org/2000/svg" viewBox="0 0 69.53 77.73"><defs><style>.cls-1{fill:#b9b9c0;}</style></defs><title>Game_care</title><path class="cls-1" d="M25.9,84.06c-.15,3.42-2.42,5.64-5.46,5.64a5.22,5.22,0,0,1-4-1.85A5.62,5.62,0,0,1,15,84a5.48,5.48,0,0,1,1.67-4,5.22,5.22,0,0,1,3.88-1.56,4.88,4.88,0,0,1,4.7,2.94H23.34a3.53,3.53,0,0,0-2.9-1.38,3.65,3.65,0,0,0-2.65,1.12A4.23,4.23,0,0,0,17.69,87a3.85,3.85,0,0,0,2.74,1.21,4,4,0,0,0,3.69-2.59H19.27V84.06Z" transform="translate(-15 -11.97)"/><path class="cls-1" d="M27.56,89.5H25.92L30.1,78.74h1.51L35.79,89.5h-1.7l-1.17-3.13H28.77Zm3.3-8.73-1.54,4.08h3Z" transform="translate(-15 -11.97)"/><path class="cls-1" d="M36.38,89.5V78.74h2.3l3.1,8.32,3.1-8.32h2.27V89.5H45.69l.11-9.34L42.32,89.5h-1.1l-3.46-9.34.11,9.34Z" transform="translate(-15 -11.97)"/><path class="cls-1" d="M54,89.71A5.27,5.27,0,0,1,50,88a5.62,5.62,0,0,1-1.52-4A5.49,5.49,0,0,1,54,78.53a5.48,5.48,0,0,1,5.33,4.3H56.49A2.76,2.76,0,0,0,54,81.2,2.8,2.8,0,0,0,51.17,84,2.94,2.94,0,0,0,54,87a2.82,2.82,0,0,0,2.47-1.54h2.84A5.37,5.37,0,0,1,54,89.71Z" transform="translate(-15 -11.97)"/><path class="cls-1" d="M61.92,89.5H59.06l4.11-10.76h2.14L69.42,89.5H66.53L66,87.94H62.46Zm2.32-7.23-1.07,3.45h2.12Z" transform="translate(-15 -11.97)"/><path class="cls-1" d="M69.62,89.5V78.74h3.55a4.44,4.44,0,0,1,2.71.59,3.46,3.46,0,0,1,1.44,3A3.35,3.35,0,0,1,74.9,85.8l2.62,3.69H74.29l-2-3.46V89.5Zm3.13-5.79c1.29,0,1.93-.33,1.93-1.3s-.56-1.26-1.72-1.26h-.72V83.7Z" transform="translate(-15 -11.97)"/><path class="cls-1" d="M78.71,89.5V78.74h5.81v2.38H81.33v1.74h3.19v2.39H81.33v1.88h3.19V89.5Z" transform="translate(-15 -11.97)"/><path class="cls-1" d="M82.62,49.19a2.64,2.64,0,0,0-.94-.32l-.24,0H59.94a2.7,2.7,0,0,0,0,5.39h8.13a.49.49,0,0,1,.49.49.48.48,0,0,1-.2.37A35.14,35.14,0,0,1,51.9,58.93a39.91,39.91,0,0,1-4.47-.25V64.8c1.27.09,2.55.15,3.85.15a45.1,45.1,0,0,0,22.62-5.65h0a.52.52,0,0,1,.25-.06.53.53,0,0,1,.53.53.5.5,0,0,1,0,.15l-1.24,3.39a3.44,3.44,0,0,0,2,4.41,3.38,3.38,0,0,0,1.18.21,3.42,3.42,0,0,0,3.21-2.25l4.49-12.24A3.43,3.43,0,0,0,82.62,49.19Z" transform="translate(-15 -11.97)"/><path class="cls-1" d="M51.9,26.07A35.13,35.13,0,0,1,68.48,30S71.32,32,72.67,30c1.55-2.26-1.55-3.67-1.55-3.67A46.84,46.84,0,0,0,51.28,22.2c-1.3,0-2.59.05-3.85.15v4A40,40,0,0,1,51.9,26.07Z" transform="translate(-15 -11.97)"/><path class="cls-1" d="M19.77,12A4.74,4.74,0,0,0,15,16.73V68.59a4.74,4.74,0,0,0,4.73,4.75H47.43V64.8C30.79,63.58,17.86,54.54,17.86,43.57s12.92-20,29.57-21.23V12Z" transform="translate(-15 -11.97)"/><path class="cls-1" d="M26.24,42.5c0,8.1,9.15,14.82,21.19,16.18V26.32C35.39,27.68,26.24,34.4,26.24,42.5Z" transform="translate(-15 -11.97)"/></svg>