<svg id="Layer_1" data-name="Layer 1" xmlns="http://www.w3.org/2000/svg" viewBox="0 0 481.89 87.21"><title>gamstop</title><path d="M47.58,60.72H276.71a4.08,4.08,0,0,1,4.08,4.08v39.7A41.47,41.47,0,0,1,239.32,146H47.58a4.08,4.08,0,0,1-4.08-4.08V64.79a4.08,4.08,0,0,1,4.08-4.08Z" transform="translate(281.77 146.95) rotate(180)" style="fill:#fff"/><path d="M276.71,147H47.58a5.07,5.07,0,0,1-5.06-5.06V102.18A42.5,42.5,0,0,1,85,59.73H276.71a5.07,5.07,0,0,1,5.06,5.06v77.1A5.07,5.07,0,0,1,276.71,147ZM85,61.7a40.54,40.54,0,0,0-40.49,40.48v39.71a3.1,3.1,0,0,0,3.1,3.09H276.71a3.1,3.1,0,0,0,3.1-3.09V64.79a3.1,3.1,0,0,0-3.1-3.09Z" transform="translate(-42.52 -59.73)" style="fill:#1d1d1b"/><path d="M123.52,100.25v31.83a.6.6,0,0,1-.6.61H110.46a.61.61,0,0,1-.61-.61h0a.6.6,0,0,0-.79-.57,25.07,25.07,0,0,1-3.83.9,31.29,31.29,0,0,1-4.7.36,30,30,0,0,1-11.18-2.17,28.88,28.88,0,0,1-9.8-6.51,28.38,28.38,0,0,1-6.48-9.77,30.27,30.27,0,0,1,0-22.31,28.35,28.35,0,0,1,6.48-9.81,28.88,28.88,0,0,1,9.8-6.51,29.86,29.86,0,0,1,22.35,0,28.58,28.58,0,0,1,9.37,6.08.61.61,0,0,1,0,.87l-8.8,8.79a.61.61,0,0,1-.84,0,15.41,15.41,0,0,0-4.88-3.09,16.25,16.25,0,0,0-12.06,0,15.44,15.44,0,0,0-5.31,3.5,16,16,0,0,0,10.09,27.29,16.58,16.58,0,0,0,5.51-.52,15.22,15.22,0,0,0,4.8-2.23.59.59,0,0,0,.26-.5v-2a.6.6,0,0,0-.6-.61H98.64a.6.6,0,0,1-.6-.6V100.25a.6.6,0,0,1,.6-.6h24.28A.6.6,0,0,1,123.52,100.25Z" transform="translate(-42.52 -59.73)" style="fill:#1d1d1b"/><path d="M170,132.35,168,126a.61.61,0,0,0-.58-.42H149.7a.6.6,0,0,0-.57.42L147,132.36a.63.63,0,0,1-.58.41H133.31a.61.61,0,0,1-.57-.8l19.69-57.8a.59.59,0,0,1,.57-.41h12a.6.6,0,0,1,.57.42L184.23,132a.61.61,0,0,1-.58.79h-13A.6.6,0,0,1,170,132.35ZM154.78,112h7.89a.6.6,0,0,0,.57-.79l-3.84-11.8a.61.61,0,0,0-1.15,0l-4,11.8A.6.6,0,0,0,154.78,112Z" transform="translate(-42.52 -59.73)" style="fill:#1d1d1b"/><path d="M236.37,73.68h13a.61.61,0,0,1,.61.57l3.38,57.88a.6.6,0,0,1-.6.64H240.37a.61.61,0,0,1-.61-.57l-1.23-20.47a.6.6,0,0,0-1.17-.16l-7.07,20.79a.61.61,0,0,1-.58.41H217a.59.59,0,0,1-.57-.41l-7.56-21.83a.6.6,0,0,0-1.17.16l-1.38,21.51a.61.61,0,0,1-.61.57H193.25a.61.61,0,0,1-.61-.64l3.7-57.88a.62.62,0,0,1,.61-.57h13a.6.6,0,0,1,.57.4L222.74,109a.6.6,0,0,0,1.14,0L235.8,74.09A.59.59,0,0,1,236.37,73.68Z" transform="translate(-42.52 -59.73)" style="fill:#1d1d1b"/><path d="M247.7,1H476.83a4.08,4.08,0,0,1,4.08,4.08v39.7a41.47,41.47,0,0,1-41.47,41.47H247.7a4.08,4.08,0,0,1-4.08-4.08V5.06A4.08,4.08,0,0,1,247.7,1Z" style="fill:#1d1d1b"/><path d="M482,147H290.22a5.07,5.07,0,0,1-5.06-5.06V64.79a5.07,5.07,0,0,1,5.06-5.06H519.35a5.07,5.07,0,0,1,5.06,5.06V104.5A42.5,42.5,0,0,1,482,147ZM290.22,61.7a3.1,3.1,0,0,0-3.1,3.09v77.1a3.1,3.1,0,0,0,3.1,3.09H482a40.54,40.54,0,0,0,40.49-40.48V64.79a3.1,3.1,0,0,0-3.1-3.09Z" transform="translate(-42.52 -59.73)" style="fill:#fff"/><path d="M324.08,132.77a20.92,20.92,0,0,1-5.59-.76,18.7,18.7,0,0,1-5.26-2.38,19.71,19.71,0,0,1-6.76-7.27,20.16,20.16,0,0,1-2.4-9.15.61.61,0,0,1,.61-.62h12.38a.61.61,0,0,1,.6.59,5.52,5.52,0,0,0,1,3.15,7.63,7.63,0,0,0,1.85,1.81,6.09,6.09,0,0,0,3.14,1,7,7,0,0,0,3.29-.64,5.17,5.17,0,0,0,1.81-1.21,6.46,6.46,0,0,0,1.05-1.4,4.07,4.07,0,0,0,.44-1.33,6.87,6.87,0,0,0,0-2.09,4.52,4.52,0,0,0-.44-1.37,5.29,5.29,0,0,0-1.05-1.4,6.84,6.84,0,0,0-1.81-1.25,16.14,16.14,0,0,0-1.89-.72c-.67-.22-1.38-.46-2.13-.73-1.34-.42-2.73-.91-4.18-1.44a24.08,24.08,0,0,1-4.34-2.17A16.85,16.85,0,0,1,309.69,99a17.46,17.46,0,0,1-3.34-12,16.72,16.72,0,0,1,1.81-6.23,17.26,17.26,0,0,1,14.15-9.32,19,19,0,0,1,6.19.56A18.08,18.08,0,0,1,334,74.28a17.66,17.66,0,0,1,4.28,3.78A16.43,16.43,0,0,1,341.06,83a17.17,17.17,0,0,1,.95,5.09.61.61,0,0,1-.61.62H329.07a.6.6,0,0,1-.6-.52,2.56,2.56,0,0,0-1.14-2,7.88,7.88,0,0,0-2-.94.58.58,0,0,0-.14,0,6.26,6.26,0,0,1-.69-.12,3.93,3.93,0,0,0-1.37,0,4.86,4.86,0,0,0-1.56.57A3.1,3.1,0,0,0,320.3,87a3.61,3.61,0,0,0-.24,2.7,3.83,3.83,0,0,0,1.61,2.21,16.88,16.88,0,0,0,2.49,1.16c.91.35,1.87.69,2.89,1s1.84.56,2.77.88,1.89.7,2.85,1.13a19.06,19.06,0,0,1,8.27,7.07,19.3,19.3,0,0,1,0,20.67,19,19,0,0,1-8.27,7.07,19.63,19.63,0,0,1-4.25,1.41A22,22,0,0,1,324.08,132.77Z" transform="translate(-42.52 -59.73)" style="fill:#fff"/><path d="M505.5,98.6a24.19,24.19,0,0,1-1.89,9.53,24.91,24.91,0,0,1-5.22,7.84,25.23,25.23,0,0,1-7.76,5.34,23.88,23.88,0,0,1-8.9,2,.6.6,0,0,0-.59.6v8.21a.6.6,0,0,1-.6.61H468.16a.61.61,0,0,1-.61-.61V74.36a.61.61,0,0,1,.61-.6h13a23.53,23.53,0,0,1,9.49,2.09,25.91,25.91,0,0,1,7.76,5.39,24.79,24.79,0,0,1,5.22,7.84A24.14,24.14,0,0,1,505.5,98.6Zm-24.36,10.53a.61.61,0,0,0,.65.61,10.63,10.63,0,0,0,3.57-1,11.83,11.83,0,0,0,3.42-2.42,11.34,11.34,0,0,0,2.29-3.51,11.23,11.23,0,0,0-2.29-12.06,11.46,11.46,0,0,0-3.42-2.42,10.4,10.4,0,0,0-3.57-1,.6.6,0,0,0-.65.6Z" transform="translate(-42.52 -59.73)" style="fill:#fff"/><path d="M425.49,73.76A28.6,28.6,0,0,1,437,76.09a30.52,30.52,0,0,1,9.4,6.31,29.72,29.72,0,0,1,6.34,9.37,29.52,29.52,0,0,1,0,23,29.72,29.72,0,0,1-6.34,9.37,30.34,30.34,0,0,1-9.4,6.31,29.45,29.45,0,0,1-23,0,29.77,29.77,0,0,1-9.35-6.31,30.14,30.14,0,0,1-6.31-9.37,29.64,29.64,0,0,1,0-23A29.54,29.54,0,0,1,414,76.09,28.63,28.63,0,0,1,425.49,73.76Zm0,45.42a15.49,15.49,0,0,0,6.19-1.24,16.08,16.08,0,0,0,5.07-3.42,16.29,16.29,0,0,0,3.41-5.06,16,16,0,0,0,0-12.39,16,16,0,0,0-8.48-8.48,16.07,16.07,0,0,0-12.38,0,16.08,16.08,0,0,0-8.48,8.48,16,16,0,0,0,0,12.39,16.15,16.15,0,0,0,3.42,5.06,15.92,15.92,0,0,0,5.06,3.42A15.49,15.49,0,0,0,425.53,119.18Z" transform="translate(-42.52 -59.73)" style="fill:#fff"/><rect x="322.22" y="26.97" width="13.7" height="46.06" rx="0.61" ry="0.61" style="fill:#fff"/><rect x="310.98" y="14.02" width="36.18" height="13.7" rx="0.61" ry="0.61" style="fill:#fff"/></svg>