<svg id="Layer_1" data-name="Layer 1" xmlns="http://www.w3.org/2000/svg" xmlns:xlink="http://www.w3.org/1999/xlink" viewBox="0 0 26.66 31"><defs><style>.cls-1{fill-rule:evenodd;fill:url(#linear-gradient);}</style><linearGradient id="linear-gradient" x1="22.43" y1="17.05" x2="22.43" y2="35.5" gradientUnits="userSpaceOnUse"><stop offset="0" stop-color="#ff1d25"/><stop offset="1" stop-color="#fbb03b"/></linearGradient></defs><title>Hot_number</title><path class="cls-1" d="M21.5,9.5C22,20-2,25,15.5,40.5c.92-.44-5.48-3.21-2-8,3.06-2.78,5.5.5,6,1-.43-.7,1.76-.61,0-5-.89-1.37-1.51-3.87,1-5s-1.5,2.5,7,5c10.5,3.5-2,12-2,12s12.2-2.74,10-13c-1.2-3.85-6-8-6-8S30,22,27,22c-1,0-3-1-2-5C26.19,12.18,24,10,21.5,9.5Z" transform="translate(-9.1 -9.5)"/></svg>