<svg id="Layer_1" data-name="Layer 1" xmlns="http://www.w3.org/2000/svg" viewBox="0 0 623.62 147.62"><defs><style>.cls-1{fill:#aeb2b9;}.cls-2{fill:#808184;}</style></defs><title>Incapsula</title><path id="_Path_" data-name="&lt;Path&gt;" class="cls-1" d="M164.44,50.94,56,20.27V63.72L99.9,79.85l47.79-11.74c13.22-3.7,16-12.16,16.75-17.17" transform="translate(-41.94 -20.27)"/><path id="_Path_2" data-name="&lt;Path&gt;" class="cls-1" d="M173.83,53.58l-3.6-1c-.27,3-.61,15.24-17.62,20L51.75,98.92l-9.82-5.05v69l9.82,5.06h0L160.5,119.23c4-2.14,17.08-8,17.08-22.4V65.22c0-3.74.53-9.77-3.74-11.64" transform="translate(-41.94 -20.27)"/><rect id="_Path_3" data-name="&lt;Path&gt;" class="cls-2" x="161.53" y="73.57" width="15.87" height="53.13"/><path id="_Path_4" data-name="&lt;Path&gt;" class="cls-2" d="M287.19,147h-20.7l-21.35-37.43h-.36q.76,8.84.76,13.48V147h-14V93.85h20.63l21.26,36.92h.24q-.56-8-.56-12.9v-24h14.07Z" transform="translate(-41.94 -20.27)"/><path id="_Path_5" data-name="&lt;Path&gt;" class="cls-2" d="M323.38,104.86a10.4,10.4,0,0,0-8.8,4.2q-3.15,4.19-3.16,11.57,0,15.33,12.83,15.34a28.71,28.71,0,0,0,7.52-1q3.63-1,7.31-2.37v12.14a44,44,0,0,1-16.55,2.95q-13.23,0-20.28-7t-7.06-20.17a29.73,29.73,0,0,1,3.42-14.5,23.23,23.23,0,0,1,9.84-9.61,32.1,32.1,0,0,1,15.09-3.36,45.12,45.12,0,0,1,18.11,3.74l-4.84,11.31a56.28,56.28,0,0,0-6.48-2.33,24.64,24.64,0,0,0-7-.95" transform="translate(-41.94 -20.27)"/><path class="cls-2" d="M386,147l-2.88-10h-19l-3,10H343.88l19.06-53.34H384L403.31,147Zm-6.15-21.73-2.52-8.72q-.88-2.91-2.14-7.52t-1.66-6.61q-.36,1.85-1.42,6.1t-4.7,16.75Z" transform="translate(-41.94 -20.27)"/><path class="cls-2" d="M451.63,110.75q0,8.9-5.78,13.75t-16.41,4.85H425V147H409.22V93.85h20.23q11.08,0,16.63,4.39t5.56,12.51m-26.55,6.9H428a8.34,8.34,0,0,0,5.66-1.81,6.28,6.28,0,0,0,2.1-5q0-5.37-6.56-5.37h-4.08Z" transform="translate(-41.94 -20.27)"/><path id="_Path_6" data-name="&lt;Path&gt;" class="cls-2" d="M498.74,130.84a14.64,14.64,0,0,1-2.76,8.77,17.75,17.75,0,0,1-8,6,32.08,32.08,0,0,1-12.2,2.13A54.4,54.4,0,0,1,466,147a38.71,38.71,0,0,1-8.23-2.6V131.57a50.12,50.12,0,0,0,9.39,3.28,38.35,38.35,0,0,0,9,1.18,9.37,9.37,0,0,0,5.16-1.11,3.33,3.33,0,0,0,1.64-2.85,3,3,0,0,0-.66-1.91,7.57,7.57,0,0,0-2.12-1.65q-1.46-.84-7.78-3.42a38.37,38.37,0,0,1-8.57-4.58,14.3,14.3,0,0,1-4.24-5.09,15.58,15.58,0,0,1-1.38-6.8,13.18,13.18,0,0,1,5.87-11.44q5.88-4.11,16.15-4.11a49.14,49.14,0,0,1,18.51,3.82L493.91,108q-8.2-3.41-14.15-3.42a8,8,0,0,0-4.48,1,2.9,2.9,0,0,0-1.4,2.43,3.44,3.44,0,0,0,1.78,2.8q1.77,1.24,9.65,4.51,7.55,3.09,10.49,6.63a13.5,13.5,0,0,1,2.94,8.92" transform="translate(-41.94 -20.27)"/><path id="_Path_7" data-name="&lt;Path&gt;" class="cls-2" d="M557.05,93.85v32q0,10.43-6.49,16.15t-18.73,5.72q-11.95,0-18.36-5.56t-6.42-16V93.85h15.87V125q0,5.63,2.32,8.18t6.83,2.54q4.84,0,7-2.53t2.18-8.27V93.85Z" transform="translate(-41.94 -20.27)"/><polygon id="_Path_8" data-name="&lt;Path&gt;" class="cls-2" points="526.04 126.7 526.04 73.58 541.83 73.58 541.83 115.11 564.33 115.11 564.33 126.7 526.04 126.7"/><path class="cls-2" d="M648.29,147l-2.88-10h-19l-3,10H606.13l19.06-53.34h21.07L665.56,147Zm-6.15-21.73-2.52-8.72q-.88-2.91-2.14-7.52t-1.66-6.61q-.36,1.85-1.42,6.1t-4.7,16.75Z" transform="translate(-41.94 -20.27)"/><rect id="_Path_9" data-name="&lt;Path&gt;" class="cls-2" x="161.51" y="21.07" width="11.18" height="34.99"/><path class="cls-2" d="M305.12,41.35H283.29v35H295V65.68h10.84c8,0,13.23-4.7,13.23-12.73,0-8.25-4.94-11.6-14-11.6M302.47,58H295v-9.4h7.43c3.79,0,4.81,2.7,4.81,4.67A4.5,4.5,0,0,1,302.47,58" transform="translate(-41.94 -20.27)"/><polygon id="_Path_10" data-name="&lt;Path&gt;" class="cls-2" points="294.13 48.42 294.13 48.41 294.13 48.42 294.13 42.12 314.41 42.12 314.41 35.18 294.13 35.18 294.13 28.64 294.13 28.64 294.13 28.64 314.41 28.64 314.41 21.07 282.48 21.07 282.48 56.06 314.41 56.06 314.41 48.42 294.13 48.42"/><polygon id="_Path_11" data-name="&lt;Path&gt;" class="cls-2" points="404.38 21.07 393.26 21.07 381.44 46.19 370.48 21.07 358.45 21.07 374.55 56.06 387.31 56.06 404.38 21.07"/><polygon id="_Path_12" data-name="&lt;Path&gt;" class="cls-2" points="411.53 21.07 425.12 21.07 441.43 56.06 428.92 56.06 426.33 49.63 410.98 49.63 414.77 42 423.32 42 418.33 30.22 405.57 56.06 394.95 56.06 411.53 21.07"/><path class="cls-2" d="M389.62,76.33h12.52l-8-14c3.37-1.65,5.34-4.49,5.34-9.42,0-8.26-4.95-11.6-14-11.6H363.63v35h11.74V64.63h7.93ZM375.37,57.51V48.64h7.43c3.79,0,4.81,2.46,4.81,4.44,0,3-2,4.43-4.81,4.43Z" transform="translate(-41.94 -20.27)"/><polygon id="_Path_13" data-name="&lt;Path&gt;" class="cls-2" points="205.9 40.97 197.22 21.08 180.16 21.08 180.16 56.06 190.81 56.06 190.81 33.48 200.05 53.55 205.9 40.97"/><polygon id="_Path_14" data-name="&lt;Path&gt;" class="cls-2" points="217.53 21.07 217.53 21.07 201.09 56.01 201.11 56.06 211.57 56.06 223.25 32.13 223.25 56.06 233.9 56.06 233.9 21.07 217.53 21.07"/><path class="cls-2" d="M474.85,44.06a3.59,3.59,0,0,1,3.59-3.59,3.61,3.61,0,0,1,1.77.46,3.59,3.59,0,0,1,0,6.24,3.5,3.5,0,0,1-1.8.48,3.58,3.58,0,0,1-3.59-3.59m.5,0a3.1,3.1,0,0,0,3.09,3.09,3,3,0,0,0,1.54-.41,3.17,3.17,0,0,0,1.13-1.13,3,3,0,0,0,.42-1.55,3,3,0,0,0-.42-1.54A3.12,3.12,0,0,0,480,41.38a3.07,3.07,0,0,0-3.09,0,3.08,3.08,0,0,0-1.13,1.13,3,3,0,0,0-.42,1.55m4.54-.88a1.1,1.1,0,0,1-.22.67,1.51,1.51,0,0,1-.64.47l1.09,1.84h-.71l-1-1.68h-.54v1.68h-.61V42h1.1a1.83,1.83,0,0,1,1.15.3,1.12,1.12,0,0,1,.37.92m-2,.73h.44c.62,0,.93-.24.93-.71a.56.56,0,0,0-.23-.51,1.34,1.34,0,0,0-.71-.15h-.43Z" transform="translate(-41.94 -20.27)"/></svg>