<svg id="Layer_1" data-name="Layer 1" xmlns="http://www.w3.org/2000/svg" xmlns:xlink="http://www.w3.org/1999/xlink" viewBox="0 0 135.93 137.26"><defs><style>.cls-1{fill:none;}.cls-2{fill:url(#radial-gradient);}.cls-3{fill:url(#radial-gradient-2);}.cls-4{isolation:isolate;}.cls-5{clip-path:url(#clip-path);}.cls-6{fill:#1d1d1b;}.cls-7{clip-path:url(#clip-path-2);}.cls-8{fill:#d2d2d2;}</style><radialGradient id="radial-gradient" cx="71.52" cy="962.23" r="67.97" gradientTransform="translate(-3.55 -87.05) scale(1 0.22)" gradientUnits="userSpaceOnUse"><stop offset="0" stop-color="#1d1d1b"/><stop offset="0.19" stop-color="#1d1d1b" stop-opacity="0.66"/><stop offset="0.58" stop-color="#1d1d1b" stop-opacity="0.17"/><stop offset="0.91" stop-color="#1d1d1b" stop-opacity="0"/></radialGradient><radialGradient id="radial-gradient-2" cx="82.97" cy="43.17" r="80.16" gradientUnits="userSpaceOnUse"><stop offset="0.12" stop-color="#fff"/><stop offset="0.18" stop-color="#fff"/><stop offset="0.47" stop-color="#f2f2f2"/><stop offset="0.65" stop-color="#e8e8e8"/><stop offset="0.76" stop-color="#e1e1e1"/><stop offset="0.91" stop-color="#cecece"/><stop offset="1" stop-color="silver"/></radialGradient><clipPath id="clip-path" transform="translate(-3.55 -5.11)"><path class="cls-1" d="M5.53,65.73a42,42,0,0,1,.25-5.51c.19-1.48.39-3.47.65-4.94S7.17,51.57,7.58,50C8,48.59,8.52,46.73,9,45.35s1.39-3.5,2-5a41.64,41.64,0,0,1,2.5-4.93c1.43-2.42,3.54-5.52,5.21-7.78a41.37,41.37,0,0,1,3.74-4.34c1-1,2.21-2.27,3.22-3.17,1.42-1.26,3.38-2.87,4.88-4a61.19,61.19,0,0,1,7-4.55A51,51,0,0,1,44,8.47c1.3-.51,3.05-1.17,4.38-1.6s3.17-.94,4.54-1.28a62,62,0,0,1,8-1.41A60.54,60.54,0,0,1,68,3.82a62.72,62.72,0,0,1,8.55.66c1.37.2,3,.5,3.7.66,1.26.27,2.92.69,4.17,1a60.31,60.31,0,0,1,7.31,2.58c2,.82,4.47,2.15,6.35,3.14,15.16,8.61,25.17,25.63,25.13,46.45-.06,32.85-25.09,62.93-55.79,67.06,30.7-4.13,55.73-34.21,55.79-67.06,0-20.83-10-37.84-25.13-46.45,1.48.86,3.45,2,4.82,3,1,.77,2.43,1.75,3.42,2.56a52.68,52.68,0,0,1,4,3.54c1,1,2.27,2.25,3.19,3.27,1.06,1.19,2.43,2.82,3.39,4.09a60.91,60.91,0,0,1,5.37,8.38,61.61,61.61,0,0,1,4,9.23,80.59,80.59,0,0,1,2.39,9.49c.31,1.6.53,3.77.67,5.39s.15,3.54.2,5.06a45.08,45.08,0,0,1-.32,6.2c-.18,1.48-.43,3.46-.7,4.92s-.78,3.7-1.21,5.26c-.39,1.4-1,3.26-1.48,4.62s-1.43,3.49-2.06,5a44.24,44.24,0,0,1-2.17,4.23c-.81,1.43-2,3.26-2.9,4.65a48.81,48.81,0,0,1-3.54,4.68,66,66,0,0,1-6.28,6.51c-1.44,1.26-3.44,2.86-5,4-1,.76-2.41,1.66-3.46,2.34a69,69,0,0,1-7,3.79,59.63,59.63,0,0,1-9.18,3.39,61.82,61.82,0,0,1-52.81-9.25c-1.31-1-3.11-2.27-4.32-3.39-1-.92-2.36-2.1-3.31-3.05-1.13-1.14-2.59-2.7-3.63-3.92a84.47,84.47,0,0,1-5.5-7.55,53.32,53.32,0,0,1-2.61-4.65A45.52,45.52,0,0,1,10,88.9a95,95,0,0,1-2.9-9.27,81.84,81.84,0,0,1-1.35-8.84C5.56,69.28,5.56,67.25,5.53,65.73Z"/></clipPath><clipPath id="clip-path-2" transform="translate(-3.55 -5.11)"><path class="cls-1" d="M37,119.77c-1.08-.62-2.51-1.46-3.53-2.17-1.63-1.12-3.76-2.68-5.31-3.92a77.46,77.46,0,0,1-6.53-6.22,41.68,41.68,0,0,1-3.78-4.57c-.94-1.35-2.22-3.14-3.09-4.54-.76-1.21-1.68-2.87-2.34-4.13a62.29,62.29,0,0,1-5.34-14.6A87.58,87.58,0,0,1,5.66,69.8a53.12,53.12,0,0,1,.09-9.13c.2-1.62.35-3.8.69-5.39.31-1.44.66-3.38,1-4.81A49.43,49.43,0,0,1,9,45.35c.53-1.34,1.18-3.16,1.77-4.47s1.59-3.38,2.36-4.79a62.77,62.77,0,0,1,5.58-8.45,81.4,81.4,0,0,1,6.12-6.73c1.19-1.12,2.84-2.54,4.1-3.57,1-.8,2.35-1.82,3.4-2.53,1.42-.95,3.35-2.16,4.82-3,.94-.55,2.22-1.22,3.2-1.68a60.48,60.48,0,0,1,10.5-4A61.51,61.51,0,0,1,75,4.27,62.46,62.46,0,0,1,87,6.95a57.74,57.74,0,0,1,6.3,2.48c1.48.66,3.39,1.68,4.81,2.46A48,48,0,0,0,67.67,6.26,48,48,0,0,1,98.1,11.89a80.21,80.21,0,0,1,7,4.66c1.38,1.08,3.17,2.58,4.47,3.76,1,.92,2.32,2.2,3.24,3.21,1.15,1.26,2.63,3,3.68,4.31.87,1.1,2,2.63,2.74,3.8.9,1.36,2,3.23,2.81,4.66.69,1.25,1.5,3,2.12,4.28.69,1.45,1.44,3.47,2,5s1,3.26,1.41,4.66a36.17,36.17,0,0,1,1.13,5.27c.19,1.48.51,3.45.63,4.94.14,1.65.23,3.85.23,5.51a76.06,76.06,0,0,1-.83,10,44.91,44.91,0,0,1-1.27,5.9,57.52,57.52,0,0,1-3.42,9.54c-.63,1.28-1.44,3-2.14,4.26s-1.86,3.19-2.74,4.51A60,60,0,0,1,113,108a61,61,0,0,1-7.34,6.73c-1,.78-2.35,1.78-3.41,2.48-1.43.94-3.39,2.12-4.88,3a69.2,69.2,0,0,1-7,3.31,63.33,63.33,0,0,1-9,2.78,61.77,61.77,0,0,1-33.26-1.56,57.61,57.61,0,0,1-6.3-2.48C40.33,121.58,38.41,120.59,37,119.77Z"/></clipPath></defs><title>Ball</title><ellipse class="cls-2" cx="67.97" cy="122.46" rx="67.97" ry="14.8"/><path class="cls-3" d="M67.35,5.11A61.51,61.51,0,1,1,5.84,66.63,61.52,61.52,0,0,1,67.35,5.11Z" transform="translate(-3.55 -5.11)"/><g class="cls-4"><g class="cls-4"><g class="cls-5"><path class="cls-6" d="M8.87,85.41c.54,1.68,1.3,3.9,2,5.53l-.68-1.59c-.82-2.23-1.86-5.22-2.53-7.49.36,1.07.85,2.49,1.24,3.55" transform="translate(-3.55 -5.11)"/><polyline class="cls-6" points="99.49 111.54 99.94 111.22 99.66 111.42 99.49 111.54"/></g></g><g class="cls-4"><g class="cls-7"><path class="cls-6" d="M118.12,45.52c-1,0-2.43.09-3.47.11a63.1,63.1,0,0,0-5.82-13c-2.38-3.92-2.56-4.07-4.94-4.09l-1.75-2.42c1.21-.66,1.37-1.45.64-3.15l1.56,0c6.33,7,9.82,12,13.78,22.59" transform="translate(-3.55 -5.11)"/><path class="cls-6" d="M118.11,36.62l-1,.12a51,51,0,0,0-5.44-9.56,61,61,0,0,1,6.45,9.45m1.84-.32a60.26,60.26,0,0,0-10.77-13.87c-.69.12-1.61.25-2.3.33,4.49,5.74,5.5,7.46,8.26,14.14l2,4.14c.92-.07,2.15-.18,3.07-.28.55,1.33,1.33,3.09,1.83,4.44.58-.09,1.35-.21,1.93-.33-.56-1.33-1.26-3.13-1.87-4.44l.41-.1-2.13-4.12-.4.1" transform="translate(-3.55 -5.11)"/><path class="cls-6" d="M36.5,23.7c-.34-.62-.79-1.44-1.07-2.09A97.89,97.89,0,0,1,47.3,13.77c4.29-2.33,4.29-2.33,4.55-3L54.7,9.65c.51.22,1.29.11,3.21-.44l-.23.52c-6.81,3.31-12,6.07-21.18,14" transform="translate(-3.55 -5.11)"/><path class="cls-6" d="M45.32,20.43l-.64-.76c4.3-2.95,5-3.4,8.65-5.72a89.43,89.43,0,0,0-8,6.48m1.8,1.71a92.51,92.51,0,0,1,11-10,7.46,7.46,0,0,1-.49-1.34c-6,3.08-7.66,4-13.76,7.63l-3.48,2.75c.52.7,1.24,1.61,1.83,2.25-1,1-2.25,2.27-3.18,3.27.71.63,1.66,1.46,2.4,2,.87-1,2-2.42,2.89-3.43l.69.53,2.75-3.18-.6-.49" transform="translate(-3.55 -5.11)"/><path class="cls-6" d="M16.5,95.38c.06,2.39.07,2.76,3.09,5.91l.33,1.59a20.21,20.21,0,0,0-3.38-2.7s-.09,0-.12,0a23.25,23.25,0,0,1-2-2.71c-2-5.5-2.35-8.75-.15-16,1.12,1.59,2.63,3.7,3.83,5.23-1,3.46-1.68,5.54-1.63,8.74" transform="translate(-3.55 -5.11)"/><path class="cls-6" d="M9.39,86.89a22.51,22.51,0,0,1-.61-7.15l1.11,2.4c-.67,2.52-.72,2.72-.5,4.76m2.72-.79.49-2.89c-1.08-1.91-2.47-4.49-3.4-6.48.25-1,.53-2.26.83-3.2-.63-1.69-1.46-3.94-2-5.67-.24,1-.62,2.27-.8,3.26L6.87,69.5l-.38,3.12.39,1.6c0,4.15,0,4.4.75,7.65.7,2.27,1.68,5.28,2.53,7.49l.68,1.59.55,1.19c-.67-2.36-.67-2.36.72-6" transform="translate(-3.55 -5.11)"/><path class="cls-6" d="M103,116.65a47.59,47.59,0,0,1-6.44,3.84c6.47-4.24,10.16-7.51,15-15.64,1-.49,2.29-1.15,3.25-1.69A45.74,45.74,0,0,1,107.2,113c-.87.83-1.84,1.55-2.66,2.44.19-.05.22-.06.89-.53l-1.95,1.47-.45.32" transform="translate(-3.55 -5.11)"/><path class="cls-6" d="M96.48,119.37a34.24,34.24,0,0,0,5.73-6.11l1.67-.59a51,51,0,0,1-7.4,6.7m-2.67,2.24c5.65-3.48,7.23-4.63,12.67-10l2.19-3c-1.35.55-3.16,1.24-4.53,1.73.53-1,1.28-2.27,1.76-3.27-1.38.43-3.22,1-4.61,1.39-.46,1-1,2.26-1.53,3.2l-1.34.35-1.6,2.82,1.26-.33c-2.74,3.76-3.77,5.16-8.16,8.3a29,29,0,0,0,3.88-1.19" transform="translate(-3.55 -5.11)"/><path class="cls-6" d="M58.08,85.21c-2.55-.72-5.93-1.72-8.46-2.5,1.47-6.73,2-9.07,4.42-18.09,1.66-6.16,1.66-6.16-3.44-7.94l1.24-3.77c4.18.25,6.49-.38,9.49-2.59,1.32.36,3.07.86,4.39,1.2-2.49,11.25-5.24,22.43-7.64,33.7" transform="translate(-3.55 -5.11)"/><path class="cls-6" d="M73.06,76.31l-3.85-.82c2.39-4.83,4.28-8.64,6.55-13.82-.71,4.23-1.39,8.23-2.7,14.64m8.76,1.6a189.54,189.54,0,0,0,3.06-22.53c-5.33-.86-6.15-1-10.6-1.89C70.43,61,68.71,64.08,62.75,74c-.39,1.75-.92,4.08-1.3,5.84,6,1.49,6.4,1.58,10.37,2.41-.39,1.78-.92,4.16-1.32,5.94,2.61.5,6.09,1.14,8.71,1.59.42-1.77,1-4.12,1.39-5.89l2.48.4c.37-1.78.88-4.15,1.23-5.94l-2.48-.39" transform="translate(-3.55 -5.11)"/><path class="cls-8" d="M99.11,71.71C98.8,85.63,86,102.81,62.64,98.85,33.89,90.91,33.11,57.45,55,44.64,75,33,99.56,51.37,99.11,71.71m1.86-.06c.26-15.26-12.79-29.49-29.71-32.39-28-2-44.41,31.41-25.42,51.87s54.65,8,55.13-19.48" transform="translate(-3.55 -5.11)"/></g></g></g></svg>