<svg id="Layer_1" data-name="Layer 1" xmlns="http://www.w3.org/2000/svg" viewBox="0 0 44.55 61.82"><defs><style>.cls-1{fill:#b3b3b3;}</style></defs><title>lock_icon</title><g id="Layer1_0_FILL" data-name="Layer1 0 FILL"><path class="cls-1" d="M12.89,23.81v9.66H8.2V68H52.75V33.48H48.12V23.81A17,17,0,0,0,43,11.35h0A16.93,16.93,0,0,0,30.51,6.2,17,17,0,0,0,18,11.35a17,17,0,0,0-5.15,12.46M30.48,40.13a5.13,5.13,0,0,1,5.06,5.06A4.9,4.9,0,0,1,34,48.79a4.57,4.57,0,0,1-1.2.92l2.88,10.06H25.26l2.88-10a5.51,5.51,0,0,1-1.26-1,5,5,0,0,1-1.47-3.59,4.85,4.85,0,0,1,1.47-3.56,4.9,4.9,0,0,1,3.59-1.5M19.64,33.48V23.81a10.46,10.46,0,0,1,3.19-7.67,10.46,10.46,0,0,1,7.67-3.19,10.42,10.42,0,0,1,7.67,3.16v0a10.46,10.46,0,0,1,3.19,7.67v9.66H19.64Z" transform="translate(-8.2 -6.2)"/></g></svg>