<svg id="Layer_1" data-name="Layer 1" xmlns="http://www.w3.org/2000/svg" viewBox="0 0 446.56 375.04"><defs><style>.cls-1{fill:#bbb;}</style></defs><title>lock_country_new</title><path class="cls-1" d="M211.5,178.87V126.56q0-38.3-27.1-65.4t-65.35-27q-38.3,0-65.4,27.1Q34,80.86,28.55,106.36a97.85,97.85,0,0,0-2,20.25v52.26l-26.5,3.19v181l119,14.4h0l119-14.4v-181Zm-156-52.31A61.18,61.18,0,0,1,74.05,81.71a63.49,63.49,0,0,1,89.79,0h0a61.18,61.18,0,0,1,18.6,44.9v48.78l-63.4-7.63h-0.1L55.5,175.39V126.56Zm52.65,139a14.81,14.81,0,0,1-4.45-10.8,14.48,14.48,0,0,1,4.45-10.7,14.76,14.76,0,0,1,10.8-4.5,15.45,15.45,0,0,1,15.25,15.25,14.73,14.73,0,0,1-4.5,10.8,12.84,12.84,0,0,1-3.6,2.8l7.74,27.12a68.24,68.24,0,0,1-29.67,0l7.78-27A15.56,15.56,0,0,1,108.15,265.56Z" transform="translate(-0.05 -2.42)"/><rect class="cls-1" x="250.3" y="-1.75" width="14.79" height="242" transform="translate(52.72 -79.72) rotate(18.97)"/><path class="cls-1" d="M250.05,127.93s27.22-75.85,40.31-117.26c77.91,32.41,62.91,88,156.24,65.35-30.17,87.74-30.24,98.32-37.71,109.7C310.27,194.08,348.33,140.08,250.05,127.93Z" transform="translate(-0.05 -2.42)"/></svg>