<svg id="Layer_1" data-name="Layer 1" xmlns="http://www.w3.org/2000/svg" viewBox="0 0 75.05 91.25"><defs><style>.cls-1{fill:#fff;}</style></defs><title>man_logged_in</title><g id="Layer1_0_FILL" data-name="Layer1 0 FILL"><path class="cls-1" d="M53.2,43A13.74,13.74,0,0,0,39.5,29.3a13.32,13.32,0,0,0-9.7,4,15.92,15.92,0,0,0-2.2,2.85,13.93,13.93,0,0,0,0,13.7,14.52,14.52,0,0,0,2.2,2.8,13.23,13.23,0,0,0,9.7,4,13.07,13.07,0,0,0,9.65-4,13.07,13.07,0,0,0,4-9.65M67.3,18.45a5.78,5.78,0,0,0-1.7.6,6.82,6.82,0,0,0-3.3,4L54,48.65a15.71,15.71,0,0,1-3.5,5.15,14.61,14.61,0,0,1-10.9,4.65A15,15,0,0,1,28.6,53.8q-0.55-.55-1-1.1a17.22,17.22,0,0,1-2.05-3.1L16.75,23a6.82,6.82,0,0,0-3.3-4,6,6,0,0,0-4.9-.4H8.5a6.07,6.07,0,0,0-3.75,3.2,6.59,6.59,0,0,0-.25,5.1l18.65,55a7,7,0,0,0,1.3,2.45A18.72,18.72,0,0,0,27.6,88.9q4.6,4.85,12.5,5.3,9.55-.2,15-10.55a7.61,7.61,0,0,0,.8-1.75l18.65-55a6.59,6.59,0,0,0-.25-5.1,10.42,10.42,0,0,0-.85-1.35l5.7-14-13-3.55Z" transform="translate(-4.1 -2.95)"/></g></svg>