<svg id="Layer_1" data-name="Layer 1" xmlns="http://www.w3.org/2000/svg" viewBox="0 0 187.09 112.77"><defs><style>.cls-1{fill:#0097d9;}.cls-1,.cls-2,.cls-3{fill-rule:evenodd;}.cls-2{fill:#e40520;}.cls-3{fill:#fff;}</style></defs><title>Visa_logo</title><path class="cls-1" d="M103.57,103a56.67,56.67,0,0,0,0-83.59A55.54,55.54,0,0,0,66,4.84c-30.91,0-56,25.25-56,56.39s25.06,56.39,56,56.39A55.54,55.54,0,0,0,103.57,103h0Z" transform="translate(-10.02 -4.84)"/><path class="cls-2" d="M141.14,4.84a55.54,55.54,0,0,0-37.57,14.59,56.68,56.68,0,0,0-5.65,6h11.3a56.7,56.7,0,0,1,4.27,6H93.65a56.43,56.43,0,0,0-3.23,6h26.28a56,56,0,0,1,2.37,6h-31a56.35,56.35,0,0,0-1.63,6h34.28a57.13,57.13,0,0,1-1.63,29.85h-31a56,56,0,0,0,2.37,6h26.28a56.61,56.61,0,0,1-3.22,6H93.65a56.6,56.6,0,0,0,4.27,6h11.3a56.66,56.66,0,0,1-5.65,6,55.54,55.54,0,0,0,37.57,14.59c30.91,0,56-25.25,56-56.39S172,4.84,141.14,4.84h0Z" transform="translate(-10.02 -4.84)"/><path class="cls-2" d="M189.66,92.66a1.81,1.81,0,1,1,1.81,1.82,1.81,1.81,0,0,1-1.81-1.82h0ZM191.46,94a1.38,1.38,0,1,0-1.37-1.38A1.38,1.38,0,0,0,191.46,94h0Zm-0.24-.58h-0.37v-1.6h0.67a0.72,0.72,0,0,1,.4.08,0.48,0.48,0,0,1,.2.4,0.44,0.44,0,0,1-.27.41l0.29,0.71h-0.41l-0.24-.63h-0.27V92.55h0.2a0.46,0.46,0,0,0,.23,0,0.22,0.22,0,0,0,.09-0.18,0.2,0.2,0,0,0-.09-0.16,0.5,0.5,0,0,0-.24,0h-0.2v1.31h0Z" transform="translate(-10.02 -4.84)"/><path class="cls-3" d="M177.82,73.45a1.81,1.81,0,1,1,1.81,1.82,1.82,1.82,0,0,1-1.81-1.82h0Zm1.81,1.38a1.38,1.38,0,1,0-1.37-1.38,1.38,1.38,0,0,0,1.37,1.38h0Zm-0.24-.59H179v-1.6h0.67a0.72,0.72,0,0,1,.4.08,0.48,0.48,0,0,1,.2.4,0.43,0.43,0,0,1-.27.41l0.29,0.71H179.9l-0.24-.63h-0.27V73.34h0.2a0.45,0.45,0,0,0,.23,0,0.22,0.22,0,0,0,.09-0.18,0.2,0.2,0,0,0-.09-0.16,0.49,0.49,0,0,0-.24,0h-0.2v1.31h0Z" transform="translate(-10.02 -4.84)"/><polygon class="cls-3" points="48.98 70.43 42.01 70.43 46.15 48.45 36.62 70.43 30.27 70.43 29.11 48.58 24.95 70.43 18.63 70.43 24.03 41.84 34.9 41.84 35.48 59.54 43.14 41.84 54.47 41.84 48.98 70.43 48.98 70.43"/><path class="cls-3" d="M136.85,75a17.92,17.92,0,0,1-5,.76c-3.57,0-5.51-1.8-5.51-5.11a11.68,11.68,0,0,1,.21-2.09L127,66.27l0.33-1.84,3.23-17.75h6.93l-1,5.34H140l-1,5.65h-3.57l-1.84,9.7a5.53,5.53,0,0,0-.12,1c0,1.2.72,1.72,2.38,1.72a6.52,6.52,0,0,0,1.88-.22L136.85,75h0Z" transform="translate(-10.02 -4.84)"/><path class="cls-3" d="M157.2,52.21a3.76,3.76,0,0,0-.79-0.25l-0.6-.14a3.9,3.9,0,0,0-.7-0.06c-2.29,0-3.93,1-6.07,3.78L149.65,52h-6.31L139.1,75.27h7c2.49-14.22,3.56-16.71,6.91-16.71a7.87,7.87,0,0,1,.88.06l0.82,0.17,2.52-6.57h0Z" transform="translate(-10.02 -4.84)"/><path class="cls-3" d="M109.24,59.37c0,2.94,1.64,5,5.37,6.48,2.85,1.17,3.29,1.51,3.29,2.57,0,1.45-1.26,2.1-4,2.1a22.54,22.54,0,0,1-6.32-.92l-1,5.36L106.88,75l1.29,0.24q0.62,0.11,1.84.2,2.51,0.19,3.89.19c7.44,0,10.87-2.45,10.87-7.76,0-3.19-1.44-5.06-5-6.47-3-1.18-3.3-1.44-3.3-2.52,0-1.25,1.17-1.9,3.45-1.9a45.27,45.27,0,0,1,5.06.35L126,52a55,55,0,0,0-6.2-.46c-7.88,0-10.61,3.57-10.59,7.86h0Z" transform="translate(-10.02 -4.84)"/><path class="cls-3" d="M81.65,75.27H75.86L76,72.86c-1.76,1.91-4.11,2.81-7.31,2.81a6.06,6.06,0,0,1-6.37-6.35c0-5.66,4.5-9,12.24-9a26.72,26.72,0,0,1,2.84.18A5.08,5.08,0,0,0,77.67,59c0-1.54-1.22-2.11-4.47-2.11a25.58,25.58,0,0,0-5.79.65l-1,.25L65.82,58l1-5.23a31.31,31.31,0,0,1,8.34-1.23c6,0,9.15,2.36,9.15,6.82a24.08,24.08,0,0,1-.57,4.61l-1.46,8.25L82,72.65l-0.18,1.18-0.12.81-0.07.63h0ZM76.56,64.91a12.78,12.78,0,0,0-1.56-.1c-3.95,0-5.95,1.19-5.95,3.54a2.28,2.28,0,0,0,2.5,2.37c2.84,0,4.88-2.38,5-5.81h0Z" transform="translate(-10.02 -4.84)"/><path class="cls-3" d="M104.5,74.77a27,27,0,0,1-7.14.94c-7.79,0-11.85-3.58-11.85-10.42,0-8,5.16-13.86,12.17-13.86,5.74,0,9.4,3.29,9.4,8.45a22.14,22.14,0,0,1-.86,5.74H92.38a4.48,4.48,0,0,0-.07.73c0,2.7,2.07,4.07,6.11,4.07A18.44,18.44,0,0,0,105.66,69l-1.16,5.81h0Zm-3.71-13.83q0.06-.73.06-1.19c0-1.89-1.22-3-3.3-3s-3.8,1.49-4.44,4.17h7.68Z" transform="translate(-10.02 -4.84)"/><path class="cls-3" d="M178.85,64.73c-1,7.73-6.4,11.17-13.53,11.17-7.88,0-11.07-4.82-11.07-10.72,0-8.24,5.39-13.82,13.72-13.82,7.23,0,11.06,4.59,11.06,10.49a14.8,14.8,0,0,1-.19,2.88h0Zm-7.17-3c0-2.43-1-4.73-3.84-4.73-3.55,0-5.76,4.23-5.76,8,0,3.15,1.51,5.27,4,5.22,1.51,0,4.73-2.07,5.37-5.69a16,16,0,0,0,.23-2.78h0Z" transform="translate(-10.02 -4.84)"/></svg>