<svg id="Layer_1" data-name="Layer 1" xmlns="http://www.w3.org/2000/svg" viewBox="0 0 187.09 111.98"><defs><style>.cls-1{fill:#fab51d;}.cls-1,.cls-2,.cls-3{fill-rule:evenodd;}.cls-2{fill:#e40520;}.cls-3{fill:#fff;}.cls-4{fill:none;stroke:#fff;stroke-miterlimit:2.61;stroke-width:0.22px;}</style></defs><title>Visa_logo</title><polygon class="cls-1" points="131 111.98 133.88 111.9 136.74 111.69 139.53 111.33 142.31 110.84 145.01 110.22 147.67 109.46 150.28 108.58 152.83 107.58 155.32 106.44 157.74 105.22 160.08 103.86 162.37 102.4 164.56 100.83 166.67 99.17 168.71 97.42 170.66 95.55 172.53 93.6 174.28 91.56 175.94 89.44 177.51 87.25 178.97 84.97 180.32 82.63 181.55 80.21 182.69 77.72 183.69 75.17 184.57 72.56 185.33 69.9 185.95 67.2 186.44 64.42 186.8 61.63 187.01 58.77 187.09 55.88 187.01 53.01 186.8 50.18 186.44 47.39 185.95 44.65 185.33 41.95 184.57 39.3 183.69 36.7 182.69 34.16 181.55 31.69 180.32 29.27 178.97 26.95 177.51 24.66 175.94 22.47 174.28 20.38 172.53 18.34 170.66 16.39 168.71 14.54 166.67 12.79 164.56 11.12 162.37 9.56 160.08 8.1 157.74 6.76 155.32 5.53 152.83 4.4 150.28 3.4 147.67 2.51 145.01 1.76 142.31 1.13 139.53 0.64 136.74 0.28 133.88 0.08 131 0 128.12 0.08 125.27 0.28 122.48 0.64 119.72 1.13 117.02 1.76 114.36 2.51 111.77 3.4 109.22 4.4 106.75 5.53 104.35 6.76 102 8.1 99.74 9.56 97.55 11.12 95.43 12.79 93.41 14.54 91.47 16.39 89.61 18.34 87.86 20.38 86.2 22.47 84.65 24.66 83.19 26.95 81.85 29.27 80.61 31.69 79.49 34.16 78.49 36.7 77.62 39.3 76.87 41.95 76.24 44.65 75.75 47.39 75.39 50.18 75.19 53.01 75.11 55.88 75.19 58.77 75.39 61.63 75.75 64.42 76.24 67.2 76.87 69.9 77.62 72.56 78.49 75.17 79.49 77.72 80.61 80.21 81.85 82.63 83.19 84.97 84.65 87.25 86.2 89.44 87.86 91.56 89.61 93.6 91.47 95.55 93.41 97.42 95.43 99.17 97.55 100.83 99.74 102.4 102 103.86 104.35 105.22 106.75 106.44 109.22 107.58 111.77 108.58 114.36 109.46 117.02 110.22 119.72 110.84 122.48 111.33 125.27 111.69 128.12 111.9 131 111.98 131 111.98 131 111.98"/><polygon class="cls-2" points="56.09 111.98 58.96 111.9 61.81 111.69 64.61 111.33 67.37 110.84 70.07 110.22 72.73 109.46 75.32 108.58 77.87 107.58 80.34 106.44 82.74 105.22 85.08 103.86 87.35 102.4 89.54 100.83 91.66 99.17 93.67 97.42 95.62 95.55 97.47 93.6 99.23 91.56 100.89 89.44 102.44 87.25 103.89 84.97 105.23 82.63 106.48 80.21 107.59 77.72 108.6 75.17 109.46 72.56 110.22 69.9 110.84 67.2 111.33 64.42 111.69 61.63 111.9 58.77 111.98 55.88 111.9 53.01 111.69 50.18 111.33 47.39 110.84 44.65 110.22 41.95 109.46 39.3 108.6 36.7 107.59 34.16 106.48 31.69 105.23 29.27 103.89 26.95 102.44 24.66 100.89 22.47 99.23 20.38 97.47 18.34 95.62 16.39 93.67 14.54 91.66 12.79 89.54 11.12 87.35 9.56 85.08 8.1 82.74 6.76 80.34 5.53 77.87 4.4 75.32 3.4 72.73 2.51 70.07 1.76 67.37 1.13 64.61 0.64 61.81 0.28 58.96 0.08 56.09 0 53.2 0.08 50.35 0.28 47.55 0.64 44.78 1.13 42.08 1.76 39.41 2.51 36.81 3.4 34.26 4.4 31.77 5.53 29.35 6.76 27.01 8.1 24.72 9.56 22.53 11.12 20.42 12.79 18.38 14.54 16.43 16.39 14.56 18.34 12.8 20.38 11.14 22.47 9.57 24.66 8.12 26.95 6.76 29.27 5.53 31.69 4.4 34.16 3.4 36.7 2.51 39.3 1.76 41.95 1.13 44.65 0.64 47.39 0.28 50.18 0.07 53.01 0 55.88 0.07 58.77 0.28 61.63 0.64 64.42 1.13 67.2 1.76 69.9 2.51 72.56 3.4 75.17 4.4 77.72 5.53 80.21 6.76 82.63 8.12 84.97 9.57 87.25 11.14 89.44 12.8 91.56 14.56 93.6 16.43 95.55 18.38 97.42 20.42 99.17 22.53 100.83 24.72 102.4 27.01 103.86 29.35 105.22 31.77 106.44 34.26 107.58 36.81 108.58 39.41 109.46 42.08 110.22 44.78 110.84 47.55 111.33 50.35 111.69 53.2 111.9 56.09 111.98 56.09 111.98 56.09 111.98"/><polygon class="cls-1" points="86.99 21.47 116.74 21.47 116.74 18.43 89.56 18.43 86.99 21.47 86.99 21.47 86.99 21.47"/><polygon class="cls-1" points="82.53 28.23 116.74 28.23 116.74 25.19 84.33 25.19 82.53 28.23 82.53 28.23 82.53 28.23"/><polygon class="cls-1" points="79.21 34.98 116.74 34.98 116.74 31.94 80.53 31.94 79.21 34.98 79.21 34.98 79.21 34.98"/><polygon class="cls-1" points="76.92 41.74 116.74 41.74 116.74 38.7 77.87 38.7 76.92 41.74 76.92 41.74 76.92 41.74"/><polygon class="cls-1" points="78.25 74.41 116.83 74.41 116.83 71.37 77.3 71.37 78.25 74.41 78.25 74.41 78.25 74.41"/><polygon class="cls-1" points="81.1 81.17 116.83 81.17 116.83 78.13 79.68 78.13 81.1 81.17 81.1 81.17 81.1 81.17"/><polygon class="cls-1" points="85.1 87.92 116.83 87.92 116.83 84.88 83.19 84.88 85.1 87.92 85.1 87.92 85.1 87.92"/><polygon class="cls-1" points="90.62 94.68 116.83 94.68 116.83 91.62 87.95 91.62 90.62 94.68 90.62 94.68 90.62 94.68"/><polygon class="cls-1" points="75.58 48.48 116.74 48.48 116.74 45.44 76.17 45.44 75.58 48.48 75.58 48.48 75.58 48.48"/><polygon class="cls-1" points="100.66 67.67 116.36 67.67 116.36 64.63 101.23 64.63 100.66 67.67 100.66 67.67 100.66 67.67"/><polygon class="cls-1" points="101.91 60.93 116.36 60.93 116.36 57.87 102.48 57.87 101.91 60.93 101.91 60.93 101.91 60.93"/><polygon class="cls-1" points="74.54 57.87 78.62 57.87 78.62 60.93 74.73 60.93 74.54 57.87 74.54 57.87 74.54 57.87"/><polygon class="cls-3" points="66.93 54.19 66.67 54.17 66.4 54.13 66.16 54.09 65.91 54.05 65.69 54.02 65.44 53.98 65.19 53.94 64.93 53.9 64.67 53.86 64.36 53.84 64.02 53.83 63.66 53.81 63.27 53.81 62.83 53.83 62.34 53.86 61.8 53.9 61.42 53.96 61.06 54.02 60.74 54.13 60.45 54.24 60.19 54.37 59.95 54.52 59.76 54.71 59.59 54.88 59.47 55.09 59.38 55.3 59.34 55.53 59.34 55.75 59.4 56 59.47 56.24 59.62 56.49 59.81 56.73 60.19 57.09 60.64 57.38 61.17 57.62 61.74 57.83 62.34 58.02 62.97 58.23 63.59 58.45 64.19 58.7 64.76 59.02 65.29 59.42 65.76 59.89 66.16 60.47 66.46 61.19 66.65 62.04 66.72 63.06 66.65 64.25 66.52 65.14 66.29 65.91 65.99 66.63 65.61 67.25 65.18 67.8 64.69 68.27 64.16 68.69 63.57 69.05 62.97 69.33 62.34 69.58 61.7 69.77 61.04 69.92 60.4 70.03 59.77 70.09 59.15 70.13 58.57 70.14 57.75 70.14 57 70.13 56.34 70.13 55.71 70.11 55.15 70.09 54.64 70.05 54.18 70.01 53.75 69.95 53.35 69.92 52.99 69.84 52.64 69.78 52.31 69.69 51.99 69.61 51.69 69.5 51.39 69.39 51.07 69.28 51.92 65.1 52.09 65.14 52.3 65.19 52.56 65.27 52.88 65.35 53.22 65.42 53.6 65.5 54.01 65.59 54.47 65.67 54.94 65.74 55.43 65.82 55.94 65.88 56.47 65.93 57.02 65.95 57.56 65.97 58.11 65.97 58.66 65.95 59.21 65.84 59.64 65.69 59.98 65.48 60.25 65.21 60.44 64.95 60.59 64.65 60.68 64.34 60.76 64.06 60.79 63.51 60.63 63.04 60.3 62.66 59.83 62.34 59.27 62.06 58.6 61.78 57.87 61.51 57.13 61.21 56.38 60.87 55.66 60.47 55 59.98 54.39 59.4 53.92 58.68 53.58 57.83 53.41 56.81 53.43 55.6 53.52 54.87 53.66 54.17 53.84 53.52 54.07 52.92 54.37 52.35 54.71 51.86 55.11 51.39 55.58 50.97 56.13 50.62 56.73 50.31 57.41 50.03 58.17 49.82 59.02 49.65 59.95 49.52 60.96 49.44 62.08 49.42 62.78 49.42 63.42 49.44 64 49.46 64.53 49.48 65.01 49.52 65.44 49.56 65.82 49.59 66.16 49.63 66.48 49.67 66.74 49.73 66.99 49.77 67.22 49.8 67.41 49.84 67.58 49.86 67.75 49.9 67.9 49.92 66.93 54.19 66.93 54.19 66.93 54.19"/><polyline class="cls-4" points="66.93 54.19 66.93 54.19 66.67 54.17 66.4 54.13 66.16 54.09 65.91 54.05 65.69 54.02 65.44 53.98 65.19 53.94 64.93 53.9 64.67 53.86 64.36 53.84 64.02 53.83 63.66 53.81 63.27 53.81 62.83 53.83 62.34 53.86 61.8 53.9 61.8 53.9 61.42 53.96 61.06 54.02 60.74 54.13 60.45 54.24 60.19 54.37 59.95 54.52 59.76 54.71 59.59 54.88 59.47 55.09 59.38 55.3 59.34 55.53 59.34 55.75 59.4 56 59.47 56.24 59.62 56.49 59.81 56.73 59.81 56.73 60.19 57.09 60.64 57.38 61.17 57.62 61.74 57.83 62.34 58.02 62.97 58.23 63.59 58.45 64.19 58.7 64.76 59.02 65.29 59.42 65.76 59.89 66.16 60.47 66.46 61.19 66.65 62.04 66.72 63.06 66.65 64.25 66.65 64.25 66.52 65.14 66.29 65.91 65.99 66.63 65.61 67.25 65.18 67.8 64.69 68.27 64.16 68.69 63.57 69.05 62.97 69.33 62.34 69.58 61.7 69.77 61.04 69.92 60.4 70.03 59.77 70.09 59.15 70.13 58.57 70.14 58.57 70.14 57.75 70.14 57 70.13 56.34 70.13 55.71 70.11 55.15 70.09 54.64 70.05 54.18 70.01 53.75 69.95 53.35 69.92 52.99 69.84 52.64 69.78 52.31 69.69 51.99 69.61 51.69 69.5 51.39 69.39 51.07 69.28 51.92 65.1 51.92 65.1 52.09 65.14 52.3 65.19 52.56 65.27 52.88 65.35 53.22 65.42 53.6 65.5 54.01 65.59 54.47 65.67 54.94 65.74 55.43 65.82 55.94 65.88 56.47 65.93 57.02 65.95 57.56 65.97 58.11 65.97 58.66 65.95 58.66 65.95 59.21 65.84 59.64 65.69 59.98 65.48 60.25 65.21 60.44 64.95 60.59 64.65 60.68 64.34 60.76 64.06 60.76 64.06 60.79 63.51 60.63 63.04 60.3 62.66 59.83 62.34 59.27 62.06 58.6 61.78 57.87 61.51 57.13 61.21 56.38 60.87 55.66 60.47 55 59.98 54.39 59.4 53.92 58.68 53.58 57.83 53.41 56.81 53.43 55.6 53.43 55.6 53.52 54.87 53.66 54.17 53.84 53.52 54.07 52.92 54.37 52.35 54.71 51.86 55.11 51.39 55.58 50.97 56.13 50.62 56.73 50.31 57.41 50.03 58.17 49.82 59.02 49.65 59.95 49.52 60.96 49.44 62.08 49.42 62.08 49.42 62.78 49.42 63.42 49.44 64 49.46 64.53 49.48 65.01 49.52 65.44 49.56 65.82 49.59 66.16 49.63 66.48 49.67 66.74 49.73 66.99 49.77 67.22 49.8 67.41 49.84 67.58 49.86 67.75 49.9 67.9 49.92 66.93 54.19"/><polygon class="cls-3" points="71.41 45.25 76.64 45.25 75.87 49.82 79.02 49.82 78.34 54.09 75.02 54 73.2 64.53 73.18 64.91 73.28 65.23 73.47 65.48 73.71 65.69 74.05 65.82 74.43 65.93 74.85 66.01 75.3 66.05 75.72 66.03 76.09 65.99 76.43 65.93 76.73 65.86 76.98 65.78 77.15 65.72 77.26 65.69 77.3 65.67 76.64 69.18 76.51 69.28 76.38 69.35 76.24 69.43 76.11 69.5 75.98 69.56 75.83 69.61 75.66 69.67 75.49 69.73 75.3 69.78 75.11 69.82 74.88 69.86 74.66 69.9 74.41 69.94 74.13 69.97 73.83 70.01 73.5 70.05 72.07 70.05 71.31 69.99 70.65 69.92 70.05 69.8 69.54 69.67 69.1 69.5 68.75 69.31 68.42 69.09 68.18 68.84 67.99 68.58 67.86 68.25 67.76 67.93 67.71 67.58 67.69 67.18 67.69 66.76 67.75 66.33 67.8 65.86 71.41 45.25 71.41 45.25 71.41 45.25"/><polyline class="cls-4" points="71.41 45.25 76.64 45.25 75.87 49.82 79.02 49.82 78.34 54.09 75.02 54 73.2 64.53 73.2 64.53 73.18 64.91 73.28 65.23 73.47 65.48 73.71 65.69 74.05 65.82 74.43 65.93 74.85 66.01 75.3 66.05 75.3 66.05 75.72 66.03 76.09 65.99 76.43 65.93 76.73 65.86 76.98 65.78 77.15 65.72 77.26 65.69 77.3 65.67 76.64 69.18 76.64 69.18 76.51 69.28 76.38 69.35 76.24 69.43 76.11 69.5 75.98 69.56 75.83 69.61 75.66 69.67 75.49 69.73 75.3 69.78 75.11 69.82 74.88 69.86 74.66 69.9 74.41 69.94 74.13 69.97 73.83 70.01 73.5 70.05 72.07 70.05 72.07 70.05 71.31 69.99 70.65 69.92 70.05 69.8 69.54 69.67 69.1 69.5 68.75 69.31 68.42 69.09 68.18 68.84 67.99 68.58 67.86 68.25 67.76 67.93 67.71 67.58 67.69 67.18 67.69 66.76 67.75 66.33 67.8 65.86 71.41 45.25"/><polygon class="cls-3" points="83.19 61.21 83.14 61.53 83.12 61.87 83.16 62.23 83.23 62.59 83.36 62.95 83.52 63.29 83.72 63.65 83.95 63.97 84.21 64.29 84.5 64.57 84.8 64.86 85.14 65.08 85.48 65.29 85.86 65.46 86.23 65.59 86.61 65.67 87.1 65.74 87.58 65.8 88.07 65.86 88.56 65.89 89.05 65.91 89.56 65.91 90.05 65.89 90.56 65.86 91.07 65.78 91.58 65.69 92.11 65.57 92.62 65.4 93.15 65.19 93.69 64.97 94.22 64.67 94.77 64.34 94.02 68.99 93.71 69.14 93.41 69.29 93.11 69.41 92.83 69.52 92.54 69.61 92.24 69.71 91.94 69.78 91.62 69.84 91.28 69.9 90.9 69.94 90.5 69.97 90.07 70.01 89.58 70.03 89.07 70.03 88.48 70.05 87.86 70.05 86.93 70.03 85.99 69.94 85.04 69.8 84.1 69.58 83.17 69.29 82.29 68.93 81.44 68.46 80.64 67.92 79.91 67.27 79.27 66.5 78.72 65.63 78.26 64.63 77.94 63.51 77.73 62.25 77.68 60.85 77.77 59.3 77.85 58.7 77.96 58 78.11 57.26 78.32 56.47 78.6 55.66 78.94 54.85 79.38 54.02 79.91 53.22 80.51 52.47 81.25 51.75 82.08 51.11 83.02 50.54 84.12 50.07 85.35 49.73 86.71 49.5 88.24 49.42 88.97 49.44 89.75 49.52 90.52 49.65 91.3 49.84 92.05 50.12 92.79 50.46 93.47 50.92 94.09 51.45 94.66 52.09 95.13 52.84 95.51 53.71 95.77 54.71 95.92 55.85 95.94 57.13 95.81 58.57 95.53 60.15 95.43 61.3 81.66 61.3 82.53 57.58 90.81 57.58 90.84 57.11 90.82 56.66 90.79 56.24 90.71 55.87 90.58 55.51 90.45 55.19 90.26 54.9 90.07 54.64 89.84 54.41 89.6 54.22 89.31 54.05 89.03 53.9 88.73 53.79 88.42 53.71 88.1 53.66 87.76 53.62 87.41 53.64 87.06 53.69 86.74 53.77 86.42 53.88 86.1 54.03 85.82 54.2 85.53 54.41 85.29 54.64 85.04 54.9 84.82 55.19 84.61 55.49 84.44 55.81 84.27 56.15 84.14 56.53 84.03 56.9 83.95 57.3 83.19 61.21 83.19 61.21 83.19 61.21"/><polyline class="cls-4" points="83.19 61.21 83.19 61.21 83.14 61.53 83.12 61.87 83.16 62.23 83.23 62.59 83.36 62.95 83.52 63.29 83.72 63.65 83.95 63.97 84.21 64.29 84.5 64.57 84.8 64.86 85.14 65.08 85.48 65.29 85.86 65.46 86.23 65.59 86.61 65.67 86.61 65.67 87.1 65.74 87.58 65.8 88.07 65.86 88.56 65.89 89.05 65.91 89.56 65.91 90.05 65.89 90.56 65.86 91.07 65.78 91.58 65.69 92.11 65.57 92.62 65.4 93.15 65.19 93.69 64.97 94.22 64.67 94.77 64.34 94.02 68.99 94.02 68.99 93.71 69.14 93.41 69.29 93.11 69.41 92.83 69.52 92.54 69.61 92.24 69.71 91.94 69.78 91.62 69.84 91.28 69.9 90.9 69.94 90.5 69.97 90.07 70.01 89.58 70.03 89.07 70.03 88.48 70.05 87.86 70.05 87.86 70.05 86.93 70.03 85.99 69.94 85.04 69.8 84.1 69.58 83.17 69.29 82.29 68.93 81.44 68.46 80.64 67.92 79.91 67.27 79.27 66.5 78.72 65.63 78.26 64.63 77.94 63.51 77.73 62.25 77.68 60.85 77.77 59.3 77.77 59.3 77.85 58.7 77.96 58 78.11 57.26 78.32 56.47 78.6 55.66 78.94 54.85 79.38 54.02 79.91 53.22 80.51 52.47 81.25 51.75 82.08 51.11 83.02 50.54 84.12 50.07 85.35 49.73 86.71 49.5 88.24 49.42 88.24 49.42 88.97 49.44 89.75 49.52 90.52 49.65 91.3 49.84 92.05 50.12 92.79 50.46 93.47 50.92 94.09 51.45 94.66 52.09 95.13 52.84 95.51 53.71 95.77 54.71 95.92 55.85 95.94 57.13 95.81 58.57 95.53 60.15 95.43 61.3 81.66 61.3 82.53 57.58 90.81 57.58 90.81 57.58 90.84 57.11 90.82 56.66 90.79 56.24 90.71 55.87 90.58 55.51 90.45 55.19 90.26 54.9 90.07 54.64 89.84 54.41 89.6 54.22 89.31 54.05 89.03 53.9 88.73 53.79 88.42 53.71 88.1 53.66 87.76 53.62 87.76 53.62 87.41 53.64 87.06 53.69 86.74 53.77 86.42 53.88 86.1 54.03 85.82 54.2 85.53 54.41 85.29 54.64 85.04 54.9 84.82 55.19 84.61 55.49 84.44 55.81 84.27 56.15 84.14 56.53 84.03 56.9 83.95 57.3 83.19 61.21"/><polygon class="cls-3" points="128.24 50.95 127.99 50.82 127.75 50.71 127.48 50.58 127.2 50.45 126.92 50.33 126.59 50.22 126.27 50.1 125.93 49.99 125.57 49.9 125.22 49.82 124.82 49.75 124.42 49.69 123.99 49.65 123.55 49.61 123.1 49.61 122.63 49.61 122.16 49.61 121.67 49.65 121.16 49.71 120.63 49.8 120.1 49.95 119.57 50.16 119.04 50.43 118.51 50.77 118 51.18 117.51 51.67 117.04 52.28 116.58 52.98 116.17 53.81 115.77 54.75 115.41 55.81 115.11 57.02 115 57.7 114.92 58.36 114.89 59.02 114.9 59.66 114.96 60.3 115.09 60.91 115.26 61.48 115.47 62.04 115.75 62.55 116.09 63.04 116.49 63.48 116.94 63.87 117.45 64.21 118.04 64.5 118.68 64.74 119.4 64.91 119.64 64.97 119.93 65.03 120.27 65.06 120.64 65.1 121.06 65.14 121.5 65.14 121.97 65.14 122.44 65.1 122.93 65.04 123.42 64.95 123.89 64.82 124.37 64.67 124.84 64.46 125.27 64.21 125.67 63.91 126.05 63.57 125.2 68.61 125.08 68.71 124.97 68.82 124.82 68.95 124.65 69.07 124.44 69.22 124.18 69.35 123.87 69.48 123.53 69.6 123.1 69.73 122.61 69.82 122.04 69.9 121.38 69.97 120.64 70.01 119.8 70.03 118.83 70.01 117.77 69.95 116.91 69.86 116.04 69.67 115.17 69.39 114.3 69.01 113.47 68.56 112.67 67.99 111.92 67.33 111.22 66.57 110.6 65.72 110.07 64.78 109.61 63.72 109.28 62.57 109.05 61.3 108.97 59.96 109.01 58.49 109.22 56.92 109.37 56.15 109.54 55.39 109.73 54.66 109.92 53.96 110.13 53.3 110.37 52.64 110.62 52.01 110.88 51.43 111.16 50.84 111.45 50.29 111.77 49.77 112.11 49.27 112.45 48.8 112.83 48.35 113.2 47.93 113.6 47.54 114.03 47.16 114.47 46.8 114.92 46.48 115.39 46.18 115.9 45.89 116.41 45.65 116.94 45.42 117.49 45.21 118.08 45.02 118.66 44.87 119.27 44.74 119.91 44.63 120.55 44.53 121.23 44.46 121.91 44.42 122.63 44.4 123.23 44.42 123.82 44.46 124.38 44.51 124.95 44.59 125.48 44.67 125.99 44.78 126.48 44.87 126.93 44.99 127.37 45.1 127.75 45.21 128.1 45.33 128.41 45.44 128.67 45.53 128.9 45.61 129.07 45.69 129.18 45.72 128.24 50.95 128.24 50.95 128.24 50.95"/><polyline class="cls-4" points="128.24 50.95 128.24 50.95 127.99 50.82 127.75 50.71 127.48 50.58 127.2 50.45 126.92 50.33 126.59 50.22 126.27 50.1 125.93 49.99 125.57 49.9 125.22 49.82 124.82 49.75 124.42 49.69 123.99 49.65 123.55 49.61 123.1 49.61 122.63 49.61 122.63 49.61 122.16 49.61 121.67 49.65 121.16 49.71 120.63 49.8 120.1 49.95 119.57 50.16 119.04 50.43 118.51 50.77 118 51.18 117.51 51.67 117.04 52.28 116.58 52.98 116.17 53.81 115.77 54.75 115.41 55.81 115.11 57.02 115.11 57.02 115 57.7 114.92 58.36 114.89 59.02 114.9 59.66 114.96 60.3 115.09 60.91 115.26 61.48 115.47 62.04 115.75 62.55 116.09 63.04 116.49 63.48 116.94 63.87 117.45 64.21 118.04 64.5 118.68 64.74 119.4 64.91 119.4 64.91 119.64 64.97 119.93 65.03 120.27 65.06 120.64 65.1 121.06 65.14 121.5 65.14 121.97 65.14 122.44 65.1 122.93 65.04 123.42 64.95 123.89 64.82 124.37 64.67 124.84 64.46 125.27 64.21 125.67 63.91 126.05 63.57 125.2 68.61 125.2 68.61 125.08 68.71 124.97 68.82 124.82 68.95 124.65 69.07 124.44 69.22 124.18 69.35 123.87 69.48 123.53 69.6 123.1 69.73 122.61 69.82 122.04 69.9 121.38 69.97 120.64 70.01 119.8 70.03 118.83 70.01 117.77 69.95 117.77 69.95 116.91 69.86 116.04 69.67 115.17 69.39 114.3 69.01 113.47 68.56 112.67 67.99 111.92 67.33 111.22 66.57 110.6 65.72 110.07 64.78 109.61 63.72 109.28 62.57 109.05 61.3 108.97 59.96 109.01 58.49 109.22 56.92 109.22 56.92 109.37 56.15 109.54 55.39 109.73 54.66 109.92 53.96 110.13 53.3 110.37 52.64 110.62 52.01 110.88 51.43 111.16 50.84 111.45 50.29 111.77 49.77 112.11 49.27 112.45 48.8 112.83 48.35 113.2 47.93 113.6 47.54 114.03 47.16 114.47 46.8 114.92 46.48 115.39 46.18 115.9 45.89 116.41 45.65 116.94 45.42 117.49 45.21 118.08 45.02 118.66 44.87 119.27 44.74 119.91 44.63 120.55 44.53 121.23 44.46 121.91 44.42 122.63 44.4 122.63 44.4 123.23 44.42 123.82 44.46 124.38 44.51 124.95 44.59 125.48 44.67 125.99 44.78 126.48 44.87 126.93 44.99 127.37 45.1 127.75 45.21 128.1 45.33 128.41 45.44 128.67 45.53 128.9 45.61 129.07 45.69 129.18 45.72 128.24 50.95"/><polygon class="cls-3" points="174.74 70.05 169.5 70.05 169.88 67.95 169.88 67.76 169.58 68.14 169.26 68.48 168.94 68.78 168.6 69.05 168.26 69.29 167.92 69.5 167.58 69.67 167.22 69.84 166.86 69.97 166.5 70.07 166.14 70.16 165.76 70.22 165.39 70.28 165.03 70.31 164.65 70.33 164.27 70.33 163.29 70.26 162.38 70.05 161.55 69.73 160.8 69.29 160.12 68.75 159.51 68.1 158.98 67.41 158.53 66.61 158.15 65.76 157.85 64.87 157.64 63.95 157.49 62.99 157.44 62.02 157.45 61.04 157.55 60.08 157.72 59.11 158 58 158.34 56.94 158.74 55.98 159.21 55.07 159.7 54.22 160.27 53.47 160.85 52.79 161.48 52.16 162.14 51.62 162.84 51.14 163.56 50.73 164.27 50.41 165.03 50.14 165.78 49.97 166.54 49.86 167.31 49.82 167.86 49.84 168.39 49.9 168.88 49.99 169.33 50.12 169.77 50.27 170.15 50.45 170.52 50.65 170.86 50.86 171.17 51.09 171.45 51.33 171.69 51.58 171.92 51.82 172.11 52.07 172.28 52.31 172.43 52.54 172.54 52.77 172.54 52.77 173.87 45.35 179 45.35 174.74 70.05 174.74 70.05 174.74 70.05"/><polyline class="cls-4" points="174.74 70.05 169.5 70.05 169.88 67.95 169.88 67.76 169.88 67.76 169.58 68.14 169.26 68.48 168.94 68.78 168.6 69.05 168.26 69.29 167.92 69.5 167.58 69.67 167.22 69.84 166.86 69.97 166.5 70.07 166.14 70.16 165.76 70.22 165.39 70.28 165.03 70.31 164.65 70.33 164.27 70.33 164.27 70.33 163.29 70.26 162.38 70.05 161.55 69.73 160.8 69.29 160.12 68.75 159.51 68.1 158.98 67.41 158.53 66.61 158.15 65.76 157.85 64.87 157.64 63.95 157.49 62.99 157.44 62.02 157.45 61.04 157.55 60.08 157.72 59.11 157.72 59.11 158 58 158.34 56.94 158.74 55.98 159.21 55.07 159.7 54.22 160.27 53.47 160.85 52.79 161.48 52.16 162.14 51.62 162.84 51.14 163.56 50.73 164.27 50.41 165.03 50.14 165.78 49.97 166.54 49.86 167.31 49.82 167.31 49.82 167.86 49.84 168.39 49.9 168.88 49.99 169.33 50.12 169.77 50.27 170.15 50.45 170.52 50.65 170.86 50.86 171.17 51.09 171.45 51.33 171.69 51.58 171.92 51.82 172.11 52.07 172.28 52.31 172.43 52.54 172.54 52.77 172.54 52.77 173.87 45.35 179 45.35 174.74 70.05"/><polygon class="cls-1" points="166.18 65.48 166.71 65.44 167.2 65.33 167.65 65.19 168.09 64.99 168.48 64.76 168.86 64.48 169.22 64.16 169.54 63.82 169.82 63.44 170.09 63.02 170.33 62.59 170.54 62.14 170.73 61.66 170.88 61.17 171.01 60.66 171.11 60.15 171.2 59.62 171.26 59.08 171.26 58.57 171.24 58.04 171.19 57.55 171.11 57.07 170.98 56.62 170.83 56.19 170.64 55.81 170.41 55.45 170.16 55.15 169.88 54.88 169.56 54.66 169.22 54.51 168.86 54.41 168.47 54.37 167.96 54.41 167.48 54.49 167.05 54.64 166.61 54.83 166.24 55.07 165.86 55.38 165.54 55.7 165.22 56.05 164.93 56.47 164.67 56.9 164.42 57.36 164.22 57.85 164.03 58.36 163.88 58.87 163.72 59.42 163.61 59.96 163.52 60.8 163.56 61.7 163.69 62.63 163.93 63.51 164.31 64.29 164.8 64.91 165.42 65.33 166.18 65.48 166.18 65.48 166.18 65.48"/><polygon class="cls-3" points="50.2 65.86 49.44 70.05 44.69 70.05 44.82 69.28 44.91 68.58 44.99 68.05 45.06 67.76 44.8 68.07 44.5 68.37 44.14 68.65 43.74 68.92 43.29 69.18 42.81 69.41 42.32 69.63 41.81 69.82 41.27 69.99 40.72 70.13 40.17 70.24 39.6 70.31 39.06 70.35 38.51 70.37 37.98 70.31 37.47 70.24 36.81 70.07 36.2 69.88 35.68 69.63 35.2 69.35 34.79 69.05 34.41 68.71 34.11 68.35 33.84 67.97 33.62 67.58 33.43 67.16 33.28 66.74 33.16 66.33 33.09 65.89 33.03 65.46 32.99 65.04 32.99 64.63 33.05 63.89 33.16 63.19 33.35 62.53 33.6 61.89 33.9 61.29 34.24 60.74 34.64 60.21 35.09 59.74 35.56 59.3 36.09 58.91 36.64 58.55 37.21 58.24 37.81 57.98 38.43 57.77 39.08 57.6 39.74 57.49 39.77 57.49 39.87 57.47 40 57.45 40.21 57.43 40.44 57.4 40.7 57.38 40.98 57.34 41.3 57.3 41.63 57.26 41.95 57.23 42.29 57.21 42.59 57.17 42.89 57.15 43.17 57.13 43.44 57.11 43.65 57.11 44.08 57.11 44.53 57.13 44.95 57.15 45.37 57.15 45.7 57.17 45.97 57.19 46.16 57.21 46.21 57.21 46.25 57.07 46.37 56.73 46.46 56.34 46.5 55.98 46.42 55.56 46.25 55.19 46.03 54.85 45.72 54.56 45.37 54.32 44.97 54.15 44.51 54.03 44.02 54 43.49 53.98 42.93 53.96 42.34 53.96 41.74 53.98 41.12 54.02 40.51 54.07 39.91 54.13 39.32 54.2 38.75 54.28 38.21 54.37 37.72 54.47 37.26 54.56 36.85 54.68 36.51 54.79 36.24 54.92 36.03 55.03 37.38 50.48 37.79 50.31 38.21 50.16 38.66 50.03 39.11 49.94 39.57 49.84 40.06 49.77 40.55 49.69 41.06 49.65 41.59 49.61 42.13 49.59 42.7 49.58 43.29 49.58 43.89 49.58 44.51 49.58 45.17 49.59 45.84 49.61 46.37 49.65 46.93 49.75 47.52 49.88 48.12 50.05 48.71 50.27 49.27 50.54 49.84 50.86 50.37 51.22 50.84 51.63 51.26 52.09 51.63 52.6 51.92 53.16 52.11 53.77 52.22 54.41 52.22 55.13 52.11 55.88 50.2 65.86 50.2 65.86 50.2 65.86"/><polyline class="cls-4" points="50.2 65.86 49.44 70.05 44.69 70.05 44.69 70.05 44.82 69.28 44.91 68.58 44.99 68.05 45.06 67.76 45.06 67.76 44.8 68.07 44.5 68.37 44.14 68.65 43.74 68.92 43.29 69.18 42.81 69.41 42.32 69.63 41.81 69.82 41.27 69.99 40.72 70.13 40.17 70.24 39.6 70.31 39.06 70.35 38.51 70.37 37.98 70.31 37.47 70.24 37.47 70.24 36.81 70.07 36.2 69.88 35.68 69.63 35.2 69.35 34.79 69.05 34.41 68.71 34.11 68.35 33.84 67.97 33.62 67.58 33.43 67.16 33.28 66.74 33.16 66.33 33.09 65.89 33.03 65.46 32.99 65.04 32.99 64.63 32.99 64.63 33.05 63.89 33.16 63.19 33.35 62.53 33.6 61.89 33.9 61.29 34.24 60.74 34.64 60.21 35.09 59.74 35.56 59.3 36.09 58.91 36.64 58.55 37.21 58.24 37.81 57.98 38.43 57.77 39.08 57.6 39.74 57.49 39.74 57.49 39.77 57.49 39.87 57.47 40 57.45 40.21 57.43 40.44 57.4 40.7 57.38 40.98 57.34 41.3 57.3 41.63 57.26 41.95 57.23 42.29 57.21 42.59 57.17 42.89 57.15 43.17 57.13 43.44 57.11 43.65 57.11 43.65 57.11 44.08 57.11 44.53 57.13 44.95 57.15 45.37 57.15 45.7 57.17 45.97 57.19 46.16 57.21 46.21 57.21 46.21 57.21 46.25 57.07 46.37 56.73 46.46 56.34 46.5 55.98 46.5 55.98 46.42 55.56 46.25 55.19 46.03 54.85 45.72 54.56 45.37 54.32 44.97 54.15 44.51 54.03 44.02 54 44.02 54 43.49 53.98 42.93 53.96 42.34 53.96 41.74 53.98 41.12 54.02 40.51 54.07 39.91 54.13 39.32 54.2 38.75 54.28 38.21 54.37 37.72 54.47 37.26 54.56 36.85 54.68 36.51 54.79 36.24 54.92 36.03 55.03 37.38 50.48 37.38 50.48 37.79 50.31 38.21 50.16 38.66 50.03 39.11 49.94 39.57 49.84 40.06 49.77 40.55 49.69 41.06 49.65 41.59 49.61 42.13 49.59 42.7 49.58 43.29 49.58 43.89 49.58 44.51 49.58 45.17 49.59 45.84 49.61 45.84 49.61 46.37 49.65 46.93 49.75 47.52 49.88 48.12 50.05 48.71 50.27 49.27 50.54 49.84 50.86 50.37 51.22 50.84 51.63 51.26 52.09 51.63 52.6 51.92 53.16 52.11 53.77 52.22 54.41 52.22 55.13 52.11 55.88 50.2 65.86"/><polygon class="cls-2" points="45.65 60.93 45.63 60.83 45.55 60.74 45.44 60.68 45.25 60.64 45.04 60.61 44.8 60.59 44.51 60.59 44.23 60.59 43.93 60.61 43.61 60.64 43.31 60.68 43 60.72 42.72 60.76 42.46 60.81 42.23 60.87 42.02 60.93 41.89 60.97 41.74 61.02 41.53 61.1 41.32 61.19 41.08 61.3 40.83 61.44 40.57 61.57 40.32 61.72 40.06 61.91 39.81 62.1 39.59 62.33 39.38 62.55 39.19 62.8 39.06 63.06 38.94 63.36 38.89 63.66 38.87 64.31 38.96 64.82 39.15 65.19 39.4 65.48 39.68 65.67 40 65.78 40.3 65.84 40.6 65.86 41.17 65.84 41.68 65.78 42.17 65.7 42.61 65.59 42.98 65.46 43.34 65.29 43.66 65.12 43.95 64.91 44.19 64.72 44.42 64.5 44.61 64.29 44.76 64.06 44.89 63.84 45.01 63.61 45.1 63.4 45.16 63.19 45.31 62.65 45.44 62.02 45.55 61.42 45.65 60.93 45.65 60.93 45.65 60.93"/><polygon class="cls-3" points="10.46 70.05 5.33 70.05 9.61 45.25 18.55 45.25 19.4 59.96 25.57 45.25 34.9 45.25 30.52 70.05 25.38 70.05 28.63 51.52 28.42 51.52 20.74 70.05 14.94 70.05 14.9 69.28 14.77 67.22 14.6 64.29 14.41 60.93 14.22 57.55 14.05 54.58 13.92 52.43 13.88 51.52 13.82 51.52 13.71 51.52 13.6 51.52 13.6 51.52 10.46 70.05 10.46 70.05 10.46 70.05"/><polyline class="cls-4" points="10.46 70.05 5.33 70.05 9.61 45.25 18.55 45.25 19.4 59.96 25.57 45.25 34.9 45.25 30.52 70.05 25.38 70.05 28.63 51.52 28.42 51.52 20.74 70.05 14.94 70.05 14.94 70.05 14.9 69.28 14.77 67.22 14.6 64.29 14.41 60.93 14.22 57.55 14.05 54.58 13.92 52.43 13.88 51.52 13.88 51.52 13.82 51.52 13.71 51.52 13.6 51.52 13.6 51.52 10.46 70.05"/><polygon class="cls-3" points="143.93 65.86 143.16 70.05 138.42 70.05 138.46 69.28 138.47 68.59 138.47 68.08 138.51 67.86 138.27 68.14 137.98 68.42 137.64 68.69 137.26 68.95 136.87 69.2 136.41 69.43 135.94 69.65 135.47 69.84 134.96 69.99 134.43 70.14 133.9 70.24 133.37 70.31 132.83 70.35 132.3 70.37 131.79 70.31 131.28 70.24 130.6 70.07 129.99 69.88 129.47 69.63 128.97 69.35 128.56 69.05 128.2 68.71 127.9 68.35 127.63 67.97 127.41 67.58 127.24 67.16 127.08 66.74 126.99 66.33 126.92 65.89 126.86 65.46 126.82 65.04 126.82 64.63 126.86 63.89 126.97 63.19 127.14 62.53 127.39 61.89 127.67 61.29 128.03 60.74 128.43 60.21 128.86 59.74 129.35 59.3 129.86 58.91 130.41 58.55 131 58.24 131.58 57.98 132.2 57.77 132.83 57.6 133.47 57.49 133.51 57.49 133.6 57.47 133.73 57.45 133.92 57.43 134.17 57.4 134.43 57.38 134.72 57.34 135.02 57.3 135.34 57.26 135.68 57.23 136 57.21 136.32 57.17 136.62 57.15 136.89 57.13 137.15 57.11 137.36 57.11 137.81 57.11 138.27 57.13 138.7 57.15 139.12 57.15 139.47 57.17 139.78 57.19 139.95 57.21 140.02 57.21 140.06 57.07 140.12 56.73 140.17 56.34 140.21 55.98 140.14 55.56 139.99 55.19 139.74 54.85 139.46 54.56 139.12 54.32 138.72 54.15 138.3 54.03 137.85 54 137.32 53.98 136.75 53.96 136.17 53.96 135.56 53.98 134.94 54.02 134.34 54.07 133.73 54.13 133.15 54.2 132.58 54.28 132.03 54.37 131.54 54.47 131.09 54.56 130.67 54.68 130.33 54.79 130.07 54.92 129.86 55.03 131.18 50.48 131.6 50.31 132.03 50.16 132.47 50.03 132.92 49.94 133.39 49.84 133.87 49.77 134.36 49.69 134.87 49.65 135.4 49.61 135.94 49.59 136.49 49.58 137.08 49.58 137.66 49.58 138.27 49.58 138.91 49.59 139.55 49.61 140.08 49.65 140.65 49.75 141.23 49.88 141.84 50.05 142.42 50.27 143.01 50.54 143.57 50.86 144.1 51.22 144.57 51.63 145.01 52.09 145.39 52.6 145.67 53.16 145.88 53.77 146.01 54.41 146.01 55.13 145.91 55.88 143.93 65.86 143.93 65.86 143.93 65.86"/><polygon class="cls-3" points="143.16 70.18 143.27 70.07 144.04 65.88 143.82 65.84 143.04 70.03 143.16 69.92 143.16 70.18 143.25 70.16 143.27 70.07 143.16 70.18 143.16 70.18 143.16 70.18"/><polygon class="cls-3" points="138.3 70.05 138.42 70.18 143.16 70.18 143.16 69.92 138.42 69.92 138.53 70.05 138.3 70.05 138.28 70.18 138.42 70.18 138.3 70.05 138.3 70.05 138.3 70.05"/><polygon class="cls-3" points="138.61 67.93 138.44 67.78 138.36 68.08 138.34 68.59 138.34 69.28 138.3 70.05 138.53 70.05 138.57 69.28 138.61 68.59 138.59 68.08 138.59 67.93 138.42 67.78 138.61 67.93 138.61 67.93 138.61 67.93"/><polygon class="cls-3" points="131.26 70.35 131.26 70.35 131.79 70.43 132.3 70.48 132.83 70.47 133.37 70.43 133.92 70.35 134.45 70.26 134.98 70.11 135.51 69.95 135.98 69.77 136.47 69.54 136.93 69.31 137.32 69.05 137.72 68.78 138.06 68.52 138.36 68.22 138.61 67.93 138.42 67.78 138.17 68.07 137.91 68.33 137.57 68.59 137.21 68.86 136.81 69.09 136.36 69.31 135.91 69.54 135.43 69.73 134.94 69.88 134.41 70.03 133.88 70.13 133.37 70.2 132.83 70.24 132.3 70.26 131.79 70.2 131.3 70.13 131.3 70.13 131.26 70.35 131.26 70.35 131.26 70.35"/><polygon class="cls-3" points="126.69 64.63 126.69 64.63 126.71 65.04 126.75 65.46 126.8 65.91 126.88 66.35 126.97 66.76 127.12 67.2 127.29 67.63 127.54 68.03 127.8 68.42 128.1 68.78 128.48 69.14 128.92 69.44 129.41 69.75 129.96 69.99 130.58 70.18 131.26 70.35 131.3 70.13 130.62 69.95 130.03 69.77 129.52 69.52 129.03 69.26 128.63 68.95 128.29 68.63 127.99 68.27 127.73 67.92 127.52 67.52 127.35 67.12 127.2 66.72 127.1 66.31 127.03 65.88 126.97 65.46 126.93 65.04 126.95 64.63 126.95 64.63 126.69 64.63 126.69 64.63 126.69 64.63"/><polygon class="cls-3" points="133.47 57.38 133.47 57.38 132.81 57.49 132.16 57.66 131.54 57.87 130.94 58.13 130.35 58.43 129.79 58.81 129.28 59.21 128.78 59.66 128.33 60.13 127.94 60.66 127.56 61.23 127.27 61.85 127.03 62.49 126.86 63.17 126.75 63.89 126.69 64.63 126.95 64.63 126.97 63.89 127.08 63.21 127.25 62.57 127.5 61.93 127.78 61.34 128.12 60.81 128.52 60.28 128.94 59.81 129.43 59.4 129.94 59 130.47 58.66 131.05 58.36 131.62 58.09 132.24 57.89 132.84 57.72 133.47 57.6 133.47 57.6 133.47 57.38 133.47 57.38 133.47 57.38"/><polygon class="cls-3" points="137.36 56.98 137.36 56.98 137.15 56.98 136.89 57.02 136.62 57.04 136.32 57.05 136 57.09 135.68 57.11 135.34 57.15 135.02 57.19 134.72 57.23 134.43 57.26 134.17 57.28 133.92 57.32 133.73 57.34 133.58 57.36 133.51 57.38 133.47 57.38 133.47 57.6 133.51 57.6 133.62 57.58 133.73 57.56 133.92 57.55 134.17 57.51 134.43 57.49 134.72 57.45 135.02 57.41 135.34 57.38 135.68 57.34 136 57.32 136.32 57.28 136.62 57.26 136.89 57.24 137.15 57.24 137.36 57.24 137.36 57.24 137.36 56.98 137.36 56.98 137.36 56.98"/><polygon class="cls-3" points="139.91 57.19 140.02 57.09 139.95 57.09 139.78 57.07 139.47 57.05 139.12 57.02 138.7 57.02 138.27 57.02 137.81 56.98 137.36 56.98 137.36 57.24 137.81 57.24 138.27 57.24 138.7 57.28 139.12 57.28 139.47 57.28 139.78 57.3 139.95 57.32 140.02 57.32 140.14 57.23 140.02 57.32 140.12 57.34 140.14 57.23 139.91 57.19 139.91 57.19 139.91 57.19"/><polygon class="cls-3" points="140.1 55.98 140.08 55.98 140.06 56.34 140 56.72 139.95 57.05 139.91 57.19 140.14 57.23 140.17 57.09 140.23 56.75 140.29 56.34 140.34 55.98 140.32 55.98 140.1 55.98 140.1 55.98 140.1 55.98"/><polygon class="cls-3" points="137.85 54.11 137.85 54.13 138.28 54.15 138.68 54.26 139.06 54.43 139.38 54.66 139.64 54.92 139.87 55.24 140.02 55.58 140.1 55.98 140.32 55.98 140.25 55.54 140.1 55.13 139.83 54.77 139.53 54.47 139.17 54.2 138.76 54.03 138.32 53.92 137.85 53.86 137.85 53.88 137.85 54.11 137.85 54.11 137.85 54.11"/><polygon class="cls-3" points="129.75 55.02 129.94 55.13 130.13 55.03 130.37 54.9 130.69 54.79 131.11 54.68 131.56 54.58 132.05 54.49 132.6 54.39 133.15 54.32 133.73 54.24 134.34 54.19 134.94 54.13 135.56 54.09 136.17 54.09 136.75 54.09 137.32 54.09 137.85 54.11 137.85 53.88 137.32 53.86 136.75 53.83 136.17 53.83 135.56 53.86 134.94 53.9 134.34 53.96 133.73 54.02 133.15 54.09 132.56 54.17 132.01 54.26 131.52 54.35 131.07 54.45 130.66 54.56 130.3 54.68 130.01 54.81 129.79 54.94 129.97 55.05 129.75 55.02 129.75 55.02 129.75 55.02"/><polygon class="cls-3" points="131.15 50.37 131.07 50.46 129.75 55.02 129.97 55.05 131.3 50.5 131.22 50.6 131.15 50.37 131.09 50.39 131.07 50.46 131.15 50.37 131.15 50.37 131.15 50.37"/><polygon class="cls-3" points="139.55 49.5 139.55 49.5 138.91 49.46 138.27 49.44 137.66 49.44 137.08 49.44 136.49 49.44 135.94 49.48 135.4 49.5 134.87 49.54 134.36 49.58 133.85 49.65 133.37 49.73 132.9 49.82 132.45 49.92 132 50.05 131.56 50.2 131.15 50.37 131.22 50.6 131.64 50.43 132.07 50.27 132.49 50.14 132.94 50.05 133.41 49.95 133.88 49.88 134.36 49.8 134.87 49.77 135.4 49.73 135.94 49.71 136.49 49.71 137.08 49.71 137.66 49.71 138.27 49.71 138.91 49.73 139.55 49.73 139.55 49.73 139.55 49.5 139.55 49.5 139.55 49.5"/><polygon class="cls-3" points="146.03 55.9 146.03 55.9 146.12 55.13 146.12 54.41 145.99 53.75 145.78 53.13 145.48 52.54 145.1 52.01 144.65 51.54 144.18 51.13 143.63 50.77 143.06 50.43 142.46 50.16 141.87 49.94 141.25 49.77 140.66 49.63 140.08 49.54 139.55 49.5 139.55 49.73 140.08 49.77 140.63 49.86 141.21 49.99 141.8 50.16 142.38 50.39 142.95 50.65 143.52 50.95 144.03 51.31 144.5 51.73 144.91 52.16 145.29 52.66 145.56 53.2 145.76 53.79 145.9 54.41 145.9 55.13 145.8 55.87 145.8 55.87 146.03 55.9 146.03 55.9 146.03 55.9"/><polygon class="cls-3" points="144.04 65.88 144.04 65.88 146.03 55.9 145.8 55.87 143.82 65.84 143.82 65.84 144.04 65.88 144.04 65.88 144.04 65.88"/><polygon class="cls-1" points="139.36 60.93 139.32 60.81 139.25 60.72 139.12 60.66 138.93 60.61 138.72 60.59 138.47 60.57 138.19 60.57 137.91 60.59 137.6 60.63 137.3 60.66 137 60.7 136.72 60.74 136.43 60.8 136.19 60.83 135.94 60.89 135.75 60.93 135.62 60.95 135.47 61 135.28 61.06 135.07 61.13 134.83 61.25 134.6 61.36 134.34 61.49 134.09 61.66 133.85 61.83 133.6 62.04 133.39 62.25 133.19 62.49 133.01 62.76 132.88 63.04 132.77 63.34 132.71 63.66 132.69 64.31 132.79 64.82 132.94 65.19 133.17 65.48 133.45 65.67 133.77 65.78 134.09 65.84 134.41 65.86 134.98 65.84 135.51 65.78 136 65.69 136.43 65.55 136.85 65.4 137.21 65.23 137.55 65.04 137.85 64.82 138.12 64.61 138.34 64.36 138.55 64.14 138.72 63.89 138.85 63.66 138.95 63.44 139.02 63.21 139.08 63.01 139.15 62.48 139.25 61.93 139.32 61.4 139.36 60.93 139.36 60.93 139.36 60.93"/><polygon class="cls-3" points="178.27 67.46 178.31 67.03 178.46 66.52 178.72 66.06 179.04 65.67 179.44 65.35 179.89 65.12 180.38 64.97 180.91 64.91 181.44 64.97 181.93 65.12 182.38 65.35 182.78 65.67 183.1 66.06 183.37 66.52 183.52 67.03 183.56 67.46 182.99 67.46 182.97 67.12 182.86 66.71 182.67 66.33 182.42 66.01 182.12 65.74 181.76 65.55 181.34 65.42 180.91 65.38 180.48 65.42 180.06 65.55 179.7 65.74 179.4 66.01 179.15 66.33 178.97 66.71 178.85 67.12 178.81 67.46 178.27 67.46 178.27 67.46 178.27 67.46"/><polygon class="cls-3" points="179.97 67.46 179.97 66.33 181 66.33 181.23 66.35 181.44 66.39 181.59 66.44 181.72 66.52 181.82 66.63 181.89 66.74 181.93 66.88 181.95 67.01 181.93 67.18 181.89 67.31 181.84 67.42 181.8 67.46 181 67.46 181.08 67.44 181.21 67.42 181.33 67.39 181.42 67.35 181.5 67.29 181.53 67.23 181.57 67.14 181.57 67.01 181.55 66.91 181.51 66.84 181.46 66.8 181.4 66.76 181.31 66.74 181.21 66.72 181.12 66.72 181 66.72 180.44 66.72 180.44 67.46 179.97 67.46 179.97 67.46 179.97 67.46"/><polygon class="cls-3" points="178.27 67.46 178.25 67.58 178.31 68.12 178.46 68.63 178.72 69.09 179.04 69.46 179.44 69.78 179.89 70.03 180.38 70.18 180.91 70.24 181.44 70.18 181.93 70.03 182.38 69.78 182.78 69.46 183.1 69.09 183.37 68.63 183.52 68.12 183.57 67.58 183.56 67.46 182.99 67.46 183.01 67.58 182.97 68.03 182.86 68.44 182.67 68.8 182.42 69.12 182.12 69.39 181.76 69.6 181.34 69.73 180.91 69.77 180.48 69.73 180.06 69.6 179.7 69.39 179.4 69.12 179.15 68.8 178.97 68.44 178.85 68.03 178.81 67.58 178.81 67.46 178.27 67.46 178.27 67.46 178.27 67.46"/><polygon class="cls-3" points="179.97 67.46 179.97 68.61 180.44 68.61 180.44 67.67 180.91 67.67 181.48 68.61 181.85 68.61 181.29 67.67 181.42 67.67 181.55 67.63 181.67 67.59 181.76 67.52 181.8 67.46 181 67.46 180.91 67.48 180.44 67.48 180.44 67.46 179.97 67.46 179.97 67.46 179.97 67.46"/><path class="cls-4" d="M188.27,72.81h0l0.06-.55,0.15-.51,0.26-.45,0.32-.4,0.4-.32,0.45-.23,0.49-.15,0.53-.06h0l0.53,0.06L192,70.36l0.45,0.23,0.4,0.32,0.32,0.4,0.26,0.45,0.15,0.51,0.06,0.55h0l-0.06.55-0.15.51-0.26.45-0.32.38-0.4.32-0.45.25-0.49.15-0.53.06h0l-0.53-.06-0.49-.15L189.46,75l-0.4-.32-0.32-.38-0.26-.45-0.15-.51-0.06-.55m2.19,1H190V71.57h1l0.23,0,0.21,0,0.15,0.06,0.13,0.08,0.09,0.11L191.92,72l0,0.13,0,0.13h0l0,0.17,0,0.13-0.06.11-0.08.09-0.09.08-0.11,0-0.13,0h-0.13l0.57,0.94H191.5l-0.57-.94h-0.47v0.94m0.47-1.13h0l0.17,0,0.13,0,0.11,0,0.09,0,0.08-.06,0-.06,0-.09V72.25h0l0-.09,0-.08-0.06,0-0.06,0-0.09,0-0.09,0h-0.77v0.76h0.47m0,2.29h0l0.43,0,0.42-.13,0.36-.21,0.3-.26,0.25-.32,0.19-.36,0.11-.42,0-.45h0l0-.45-0.11-.42-0.19-.38-0.25-.32-0.3-.26-0.36-.19-0.42-.13-0.43,0h0l-0.43,0-0.42.13-0.36.19-0.3.26-0.25.32-0.19.38-0.11.42,0,0.45h0l0,0.45L189,73.68,189.18,74l0.25,0.32,0.3,0.26,0.36,0.21L190.5,75l0.43,0" transform="translate(-10.02 -5.24)"/><polygon class="cls-3" points="145.35 70.05 150.67 70.05 150.67 70.05 152.58 59.3 152.66 58.89 152.77 58.47 152.88 58.06 153.03 57.64 153.22 57.23 153.45 56.83 153.7 56.45 154 56.09 154.34 55.77 154.72 55.47 155.15 55.19 155.64 54.96 156.19 54.77 156.79 54.62 157.45 54.51 158.19 54.47 158.46 54.47 158.61 54.47 158.66 54.47 158.66 54.47 159.51 49.61 158.98 49.65 158.47 49.71 158 49.8 157.55 49.94 157.13 50.09 156.74 50.27 156.36 50.48 156 50.71 155.66 50.97 155.34 51.24 155.04 51.54 154.74 51.84 154.45 52.16 154.17 52.52 153.88 52.86 153.62 53.24 154.19 49.82 148.88 49.82 145.35 70.05 145.35 70.05 145.35 70.05 145.35 70.05"/><polyline class="cls-4" points="145.35 70.05 150.67 70.05 150.67 70.05 152.58 59.3 152.58 59.3 152.66 58.89 152.77 58.47 152.88 58.06 153.03 57.64 153.22 57.23 153.45 56.83 153.7 56.45 154 56.09 154.34 55.77 154.72 55.47 155.15 55.19 155.64 54.96 156.19 54.77 156.79 54.62 157.45 54.51 158.19 54.47 158.19 54.47 158.46 54.47 158.61 54.47 158.66 54.47 158.66 54.47 159.51 49.61 159.51 49.61 158.98 49.65 158.47 49.71 158 49.8 157.55 49.94 157.13 50.09 156.74 50.27 156.36 50.48 156 50.71 155.66 50.97 155.34 51.24 155.04 51.54 154.74 51.84 154.45 52.16 154.17 52.52 153.88 52.86 153.62 53.24 154.19 49.82 148.88 49.82 145.35 70.05 145.35 70.05"/><polygon class="cls-3" points="95.34 70.05 100.66 70.05 100.76 70.05 102.57 59.3 102.65 58.89 102.74 58.49 102.83 58.09 102.97 57.72 103.12 57.34 103.31 56.98 103.53 56.64 103.8 56.32 104.1 56.03 104.44 55.75 104.86 55.53 105.31 55.32 105.84 55.15 106.42 55 107.07 54.9 107.8 54.85 107.86 54.85 107.94 54.87 108.03 54.88 108.12 54.88 108.22 54.9 108.29 54.92 108.35 54.94 108.37 54.94 108.39 54.87 108.44 54.64 108.52 54.3 108.61 53.88 108.75 53.39 108.88 52.86 109.05 52.33 109.22 51.8 109.37 51.45 109.56 51.09 109.75 50.73 109.94 50.41 110.11 50.12 110.24 49.9 110.33 49.77 110.37 49.71 110.35 49.71 110.28 49.69 110.18 49.67 110.05 49.65 109.92 49.65 109.77 49.63 109.63 49.61 109.5 49.61 108.92 49.65 108.39 49.71 107.9 49.8 107.44 49.92 107.01 50.07 106.61 50.26 106.25 50.45 105.91 50.67 105.59 50.92 105.29 51.2 105.01 51.48 104.72 51.8 104.44 52.13 104.18 52.48 103.89 52.86 103.61 53.24 104.29 49.82 98.87 49.82 95.34 70.05 95.34 70.05 95.34 70.05 95.34 70.05"/><polyline class="cls-4" points="95.34 70.05 100.66 70.05 100.76 70.05 102.57 59.3 102.57 59.3 102.65 58.89 102.74 58.49 102.83 58.09 102.97 57.72 103.12 57.34 103.31 56.98 103.53 56.64 103.8 56.32 104.1 56.03 104.44 55.75 104.86 55.53 105.31 55.32 105.84 55.15 106.42 55 107.07 54.9 107.8 54.85 107.8 54.85 107.86 54.85 107.94 54.87 108.03 54.88 108.12 54.88 108.22 54.9 108.29 54.92 108.35 54.94 108.37 54.94 108.37 54.94 108.39 54.87 108.44 54.64 108.52 54.3 108.61 53.88 108.75 53.39 108.88 52.86 109.05 52.33 109.22 51.8 109.22 51.8 109.37 51.45 109.56 51.09 109.75 50.73 109.94 50.41 110.11 50.12 110.24 49.9 110.33 49.77 110.37 49.71 110.37 49.71 110.35 49.71 110.28 49.69 110.18 49.67 110.05 49.65 109.92 49.65 109.77 49.63 109.63 49.61 109.5 49.61 109.5 49.61 108.92 49.65 108.39 49.71 107.9 49.8 107.44 49.92 107.01 50.07 106.61 50.26 106.25 50.45 105.91 50.67 105.59 50.92 105.29 51.2 105.01 51.48 104.72 51.8 104.44 52.13 104.18 52.48 103.89 52.86 103.61 53.24 104.29 49.82 98.87 49.82 95.34 70.05 95.34 70.05"/><polygon class="cls-1" points="178.31 89.92 178.31 89.84 178.46 89.35 178.72 88.92 179.04 88.54 179.44 88.24 179.89 88.01 180.38 87.88 180.91 87.82 181.44 87.88 181.93 88.01 182.38 88.24 182.78 88.54 183.1 88.92 183.37 89.35 183.52 89.84 183.52 89.92 182.97 89.92 182.86 89.52 182.67 89.16 182.42 88.84 182.12 88.58 181.76 88.37 181.34 88.24 180.91 88.2 180.48 88.24 180.06 88.37 179.7 88.58 179.4 88.84 179.15 89.16 178.97 89.52 178.85 89.92 178.31 89.92 178.31 89.92 178.31 89.92"/><polygon class="cls-1" points="179.97 89.92 179.97 89.26 181 89.26 181.23 89.26 181.44 89.29 181.59 89.33 181.72 89.41 181.82 89.5 181.89 89.61 181.93 89.75 181.95 89.92 181.57 89.92 181.57 89.82 181.55 89.73 181.51 89.65 181.46 89.61 181.4 89.58 181.31 89.56 181.21 89.54 181.12 89.54 181 89.54 180.44 89.54 180.44 89.92 179.97 89.92 179.97 89.92 179.97 89.92"/><polygon class="cls-1" points="178.25 90.33 178.31 89.92 178.85 89.92 178.85 89.94 178.81 90.33 178.25 90.33 178.25 90.33 178.25 90.33"/><polygon class="cls-1" points="179.97 90.33 179.97 89.92 180.44 89.92 180.44 90.3 180.91 90.3 181.08 90.26 181.21 90.24 181.33 90.2 181.42 90.16 181.5 90.11 181.53 90.05 181.57 89.95 181.57 89.92 181.95 89.92 181.95 89.92 181.93 90.05 181.89 90.16 181.84 90.26 181.76 90.33 179.97 90.33 179.97 90.33 179.97 90.33"/><polygon class="cls-1" points="183.01 90.33 182.97 89.94 182.97 89.92 183.52 89.92 183.57 90.33 183.01 90.33 183.01 90.33 183.01 90.33"/><polygon class="cls-1" points="178.25 90.33 178.25 90.39 178.31 90.94 178.46 91.45 178.72 91.9 179.04 92.3 179.44 92.62 179.89 92.84 180.38 93 180.91 93.05 181.44 93 181.93 92.84 182.38 92.62 182.78 92.3 183.1 91.9 183.37 91.45 183.52 90.94 183.57 90.39 183.57 90.33 183.01 90.33 183.01 90.39 182.97 90.84 182.86 91.26 182.67 91.62 182.42 91.94 182.12 92.2 181.76 92.41 181.34 92.54 180.91 92.58 180.48 92.54 180.06 92.41 179.7 92.2 179.4 91.94 179.15 91.62 178.97 91.26 178.85 90.84 178.81 90.39 178.81 90.33 178.25 90.33 178.25 90.33 178.25 90.33"/><polygon class="cls-1" points="179.97 90.33 179.97 91.43 180.44 91.43 180.44 90.48 180.91 90.48 181.48 91.43 181.85 91.43 181.29 90.48 181.42 90.48 181.55 90.45 181.67 90.41 181.76 90.33 181.76 90.33 179.97 90.33 179.97 90.33 179.97 90.33"/></svg>