<?xml version="1.0" encoding="utf-8"?>
<!-- Generator: Adobe Illustrator 19.2.1, SVG Export Plug-In . SVG Version: 6.00 Build 0)  -->
<svg version="1.1" id="Layer_1" xmlns="http://www.w3.org/2000/svg" xmlns:xlink="http://www.w3.org/1999/xlink" x="0px" y="0px"
	 viewBox="0 0 249.6 56.8" style="enable-background:new 0 0 249.6 56.8;" xml:space="preserve">
<style type="text/css">
	.st0{fill:#8FC045;}
</style>
<g>
	<path class="st0" d="M222.2,25.3c-1.3,0.9-3.1,1.3-5.7,1.3h-1.1h-1.4l1.9-10.4h1h0.9c2.1,0,3.6,0.3,4.7,1c0.8,0.5,1.8,1.6,1.8,3.6
		C224.3,23.3,223.2,24.6,222.2,25.3 M72.6,38.3H53.2l1.3-6.8h12.2l1.4-7.7H55.9l1.2-6.7h19.4L72.6,38.3z M232.7,11.3
		c-2.9-2-7.2-2.9-12.8-2.9H205l-5.5,29.9h-19.4l1.2-6.8H193l1.4-7.6l-11.7,0l1.3-6.8H196l1.6-8.8h-24.5l-5.2,28.4h-9l5.3-28.4h-12.8
		l-5.2,28.4h-8.8l5.3-28.4h-12.8l-5.5,29.9h-19.6l1.2-6.8h11.8l1.4-7.6l-11.7,0l1.2-6.8h12.2l1.6-8.8H46.2l-4.3,23.7L33.2,8.4H19.9
		l-7.1,38.7h12.7l4.3-24.4l8.4,24.4h45.5l5.5-29.9h7.1l-5.5,29.9h119.6l3.5-18.9l5.6,18.9h12.7l-5.8-15.4l1.3-0.3
		c2.9-0.6,5.2-2,6.8-4c1.6-2,2.4-4.7,2.4-7.8C236.8,15.9,235.5,13.2,232.7,11.3"/>
</g>
</svg>
