<?xml version="1.0" encoding="utf-8"?>
<!-- Generator: Adobe Illustrator 21.1.0, SVG Export Plug-In . SVG Version: 6.00 Build 0)  -->
<svg version="1.1" id="Layer_1" xmlns="http://www.w3.org/2000/svg" xmlns:xlink="http://www.w3.org/1999/xlink" x="0px" y="0px"
	 viewBox="0 0 337 188" style="enable-background:new 0 0 337 188;" xml:space="preserve">
<style type="text/css">
	.st0{fill:#FFFFFF;}
	.st1{fill:#CFCFCF;}
	.st2{fill:#1D1D1B;}
	.st3{fill:#B1B1B1;}
	.st4{fill:#FCC200;}
	.st5{fill:#A40344;}
</style>
<path class="st0" d="M67.4,30.3c-27,0-49,22-49,49c0,27,22,49,49,49h204.1c27,0,49-22,49-49c0-27-22-49-49-49H67.4z"/>
<path class="st1" d="M271.5,132.4H67.4c-29.3,0-53.1-23.8-53.1-53.1s23.8-53.1,53.1-53.1h204.1c29.3,0,53.1,23.8,53.1,53.1
	S300.8,132.4,271.5,132.4 M67.4,30.3c-27,0-49,22-49,49c0,27,22,49,49,49h204.1c27,0,49-22,49-49c0-27-22-49-49-49H67.4z"/>
<path class="st2" d="M247,49.5c-7.9,0-14.3,6.4-14.3,14.4c0,7.9,6.4,14.3,14.3,14.3c7.9,0,14.3-6.4,14.3-14.3
	C261.3,56,254.9,49.5,247,49.5 M247,71.2c-4.1,0-7.4-3.3-7.4-7.4c0-4.1,3.3-7.4,7.4-7.4c4.1,0,7.4,3.3,7.4,7.4
	C254.4,67.9,251.1,71.2,247,71.2"/>
<path class="st2" d="M181.2,49.5c-7.9,0-14.3,6.4-14.3,14.4c0,7.9,6.4,14.3,14.3,14.3c7.9,0,14.4-6.4,14.4-14.3
	C195.6,56,189.1,49.5,181.2,49.5 M181.2,71.2c-4.1,0-7.4-3.3-7.4-7.4c0-4.1,3.3-7.4,7.4-7.4c4.1,0,7.4,3.3,7.4,7.4
	C188.6,67.9,185.3,71.2,181.2,71.2"/>
<path class="st2" d="M231.7,71.6c-0.9,0.3-2.3,0.5-2.8,0.5c-2.5,0-3-0.8-3-3.2V55.7h5.9v-5.5h-5.9v-7.8h-6.6l-1.4,7.8h-4.6v0H213
	c-3.8,0-6.6,2.3-8.4,5.9l-2.3-5.9h-4.7v27.5h8.1v-12c0-6,3.6-9.9,7.8-10h4.4v13.7c0,6.4,3.3,8.8,8.7,8.8c2.8,0,4.9-0.6,6.2-1
	L231.7,71.6z"/>
<polyline class="st2" points="271.1,58.9 271.1,77.7 263.3,77.7 263.3,50.2 268.1,50.2 269.7,54.4 "/>
<path class="st2" d="M269.6,54.4c2.4-2.8,5.7-4.9,9.5-4.9c6.6,0,9.2,5.2,9.2,10.1v18.1h-8.1V59.8c0-2.4-2-3.6-4.1-3.6
	c-2.3,0-3.7,1.3-5,2.7"/>
<polygon class="st2" points="135.3,40.2 144.3,40.2 156.7,63.8 156.7,40.2 164.2,40.2 164.2,77.7 156,77.7 142.8,51.8 142.8,77.7 
	135.3,77.7 "/>
<polygon class="st3" points="312.3,26.1 312.3,27.5 310.3,27.5 310.3,34.1 308.8,34.1 308.8,27.5 306.8,27.5 306.8,26.1 "/>
<polygon class="st3" points="313.4,34.1 313.4,26.1 315.4,26.1 316.8,31.3 318.2,26.1 320.3,26.1 320.3,34.1 319,34.1 319,27.9 
	319,27.9 317.4,34.1 316.3,34.1 314.6,27.9 314.6,27.9 314.6,34.1 "/>
<path class="st3" d="M133.1,110.9l1.9-2.9c1.5,1.1,3.8,2.2,6.6,2.2c2.7,0,4.4-1.2,4.4-3.4c0-2.4-2.1-3.1-5.6-4.3
	c-3.1-1.1-6.2-2.7-6.2-7.1c0-4.1,3.3-6.4,7.6-6.4c2.9,0,5.1,0.6,6.8,1.6l-1.5,3.1c-1.4-0.8-3.2-1.3-5.2-1.3c-2.4,0-3.9,0.9-3.9,2.9
	c0,2.3,1.7,2.8,4.9,3.9c3.3,1.1,7,2.6,7,7.5c0,4.1-2.9,6.8-8.2,6.8C137.6,113.6,134.7,112.3,133.1,110.9"/>
<polygon class="st3" points="156.9,89.5 171.1,89.5 171.1,92.8 160.9,92.8 160.9,99.3 168.9,99.3 168.9,102.5 160.9,102.5 
	160.9,110 171.7,110 171.7,113.3 156.9,113.3 "/>
<path class="st3" d="M177.5,101.4c0-7,3.3-12.3,10-12.3c3,0,5.3,0.9,7,2.9l-2.4,2.7c-1.4-1.4-2.6-2.1-4.6-2.1
	c-3.9,0-5.7,3.2-5.7,9.1c0,5.5,1.9,8.3,5.7,8.3c2.1,0,3.6-1.1,4.9-2.5l2.4,2.6c-1.7,2-3.9,3.4-7.3,3.4
	C180.6,113.6,177.5,108.4,177.5,101.4"/>
<path class="st3" d="M201.4,104.2V89.5h4.1v15.4c0,3.3,0.8,5.4,4.3,5.4c3.4,0,4.3-2.1,4.3-5.4V89.5h4.1v14.7c0,5.9-2.3,9.4-8.4,9.4
	C203.7,113.6,201.4,110.1,201.4,104.2"/>
<path class="st3" d="M243,113.3h-4.4l-4.6-10.1h-3.8v10.1h-4V89.5h7.8c4.8,0,8.6,1.7,8.6,6.9c0,3.6-2.1,5.4-4.5,6.2L243,113.3z
	 M233.8,100.1c3,0,4.6-1,4.6-3.7c0-2.6-1.6-3.6-4.3-3.6h-3.8v7.3H233.8z"/>
<polygon class="st3" points="249.9,89.5 264.1,89.5 264.1,92.8 253.9,92.8 253.9,99.3 261.9,99.3 261.9,102.5 253.9,102.5 
	253.9,110 264.7,110 264.7,113.3 249.9,113.3 "/>
<path class="st3" d="M271.5,89.5h5.9c7.8,0,11.5,4.2,11.5,11.8c0,7.8-3.8,12-11.3,12h-6.2V89.5z M277.2,110c5.6,0,7.5-2.6,7.5-8.7
	c0-5.4-1.5-8.5-7-8.5h-2.2V110H277.2z"/>
<path class="st4" d="M67.2,136.6c-31.6,0-57.3-25.7-57.3-57.3c0-31.6,25.7-57.3,57.3-57.3c31.6,0,57.3,25.7,57.3,57.3
	C124.5,110.9,98.8,136.6,67.2,136.6 M67.2,40.1c-10.5,0-20.3,4.1-27.7,11.5C32,59,28,68.8,28,79.3C28,89.7,32,99.6,39.4,107
	c7.4,7.4,17.2,11.5,27.7,11.5c10.5,0,20.3-4.1,27.7-11.5c7.4-7.4,11.5-17.2,11.5-27.7c0-10.5-4.1-20.3-11.5-27.7
	C87.5,44.2,77.6,40.1,67.2,40.1"/>
<rect x="129.6" y="13.1" class="st4" width="4.5" height="4.5"/>
<rect x="129.6" y="4.2" class="st4" width="4.5" height="4.5"/>
<rect x="117" y="17.5" class="st4" width="4.2" height="4.4"/>
<rect x="108.8" y="26.1" class="st2" width="4.2" height="4.2"/>
<rect x="121.2" y="21.9" class="st2" width="4.7" height="4.2"/>
<rect x="104.6" y="22.1" class="st2" width="4.2" height="4"/>
<rect x="117" y="26.1" class="st2" width="4.2" height="4.2"/>
<rect x="125.2" y="8.7" class="st2" width="4.4" height="4.4"/>
<rect x="117" y="13.1" class="st2" width="8.2" height="4.4"/>
<rect x="113" y="17.5" class="st2" width="4.1" height="8.6"/>
<path class="st2" d="M113,30.3v4.2h-4.2v-4.2h-7v3H98v3.7h4.2v4.2H98v-4.2h-4.4v6.5h-4.2v4.2h-2.8V52h-3.1
	C80.1,57.1,71.5,73,68.9,79.5c-9.4-13.1-16.7-18.3-22.5-20.2c-3.1-0.9-6.8,2.4-1.7,7.8c11.8,13,15.6,23.8,19.2,32.4
	c1.9,4.5,10.4,5.2,12.1,0.6c3.6-9.8,8.9-20.7,15.2-29.7v-4.7h3.3v-4.2H98v-4.9h4.2V52H98v-4.3h4.2V52h4.1l0-4.2h3.3v-5.1h3.7v-3.5
	h3.6v-8.9H113z"/>
<path class="st3" d="M32.1,156.2h3.1v2.3c1-1.4,2.4-2.6,4.6-2.6c3.2,0,6.4,2.6,6.4,7.1v0.1c0,4.5-3.1,7.1-6.4,7.1
	c-2.3,0-3.7-1.1-4.6-2.4v6.3h-3.1V156.2z M43.1,163.1L43.1,163.1c0-2.7-1.8-4.4-3.9-4.4s-4,1.8-4,4.4v0.1c0,2.6,1.9,4.4,4,4.4
	C41.3,167.5,43.1,165.8,43.1,163.1"/>
<path class="st3" d="M48.8,163.2L48.8,163.2c0-4,3.1-7.2,7.3-7.2s7.3,3.2,7.3,7.1v0.1c0,3.9-3.1,7.1-7.3,7.1
	C51.9,170.3,48.8,167.1,48.8,163.2 M60.3,163.2L60.3,163.2c0-2.5-1.7-4.5-4.2-4.5c-2.5,0-4.1,2-4.1,4.4v0.1c0,2.4,1.7,4.4,4.2,4.4
	C58.7,167.5,60.3,165.5,60.3,163.2"/>
<polygon class="st3" points="64.9,156.2 68.2,156.2 70.9,165.6 73.9,156.2 76.6,156.2 79.7,165.6 82.5,156.2 85.6,156.2 81.1,170 
	78.3,170 75.3,160.7 72.2,170 69.4,170 "/>
<path class="st3" d="M87.2,163.1L87.2,163.1c0-4,2.8-7.2,6.7-7.2c4.4,0,6.6,3.4,6.6,7.4c0,0.3,0,0.6-0.1,0.9H90.4
	c0.3,2.2,1.9,3.5,3.9,3.5c1.5,0,2.6-0.6,3.7-1.6l1.8,1.6c-1.3,1.6-3.1,2.6-5.6,2.6C90.3,170.3,87.2,167.4,87.2,163.1 M97.4,162.1
	c-0.2-2-1.4-3.6-3.5-3.6c-1.9,0-3.3,1.5-3.6,3.6H97.4z"/>
<path class="st3" d="M103.7,156.2h3.1v3.1c0.9-2,2.4-3.4,4.8-3.3v3.3h-0.2c-2.8,0-4.7,1.8-4.7,5.4v5.2h-3.1V156.2z"/>
<path class="st3" d="M113.6,163.1L113.6,163.1c0-4,2.8-7.2,6.7-7.2c4.4,0,6.6,3.4,6.6,7.4c0,0.3,0,0.6-0.1,0.9h-10.1
	c0.3,2.2,1.9,3.5,3.9,3.5c1.5,0,2.6-0.6,3.7-1.6l1.8,1.6c-1.3,1.6-3.1,2.6-5.6,2.6C116.6,170.3,113.6,167.4,113.6,163.1
	 M123.7,162.1c-0.2-2-1.4-3.6-3.5-3.6c-1.9,0-3.3,1.5-3.6,3.6H123.7z"/>
<path class="st3" d="M129.4,163.1L129.4,163.1c0-4.6,3.1-7.2,6.4-7.2c2.3,0,3.7,1.1,4.7,2.4V151h3.1v18.9h-3.1v-2.3
	c-1,1.4-2.4,2.6-4.7,2.6C132.5,170.2,129.4,167.7,129.4,163.1 M140.4,163.1L140.4,163.1c0-2.7-1.9-4.4-4-4.4c-2.2,0-3.9,1.7-3.9,4.4
	v0.1c0,2.6,1.8,4.4,3.9,4.4C138.6,167.5,140.4,165.7,140.4,163.1"/>
<path class="st3" d="M158.3,167.8v2.1h-3.1V151h3.1v7.5c1-1.4,2.4-2.6,4.6-2.6c3.2,0,6.4,2.6,6.4,7.1v0.1c0,4.5-3.1,7.1-6.4,7.1
	C160.7,170.2,159.3,169.1,158.3,167.8 M166.2,163.1L166.2,163.1c0-2.7-1.8-4.4-3.9-4.4c-2.1,0-4,1.8-4,4.4v0.1c0,2.6,1.9,4.4,4,4.4
	C164.4,167.5,166.2,165.8,166.2,163.1"/>
<path class="st3" d="M171.5,173.3l1.1-2.3c0.6,0.3,1.2,0.5,1.8,0.5c0.9,0,1.4-0.4,1.9-1.6l-5.7-13.7h3.3l3.9,10.2l3.6-10.2h3.3
	l-5.4,14.1c-1.1,2.8-2.3,3.8-4.5,3.8C173.4,174.2,172.5,173.9,171.5,173.3"/>
<polygon class="st5" points="194,151.8 197.5,151.8 203,165.7 208.4,151.8 211.9,151.8 204.3,170.1 201.5,170.1 "/>
<path class="st5" d="M212.5,163.1L212.5,163.1c0-4,2.8-7.2,6.7-7.2c4.4,0,6.6,3.4,6.6,7.4c0,0.3,0,0.6-0.1,0.9h-10.1
	c0.3,2.2,1.9,3.5,3.9,3.5c1.5,0,2.6-0.6,3.7-1.6l1.8,1.6c-1.3,1.6-3.1,2.6-5.6,2.6C215.6,170.3,212.5,167.4,212.5,163.1
	 M222.7,162.1c-0.2-2-1.4-3.6-3.5-3.6c-1.9,0-3.3,1.5-3.6,3.6H222.7z"/>
<path class="st5" d="M229,156.2h3.1v3.1c0.9-2,2.4-3.4,4.9-3.3v3.3h-0.2c-2.8,0-4.7,1.8-4.7,5.4v5.2H229V156.2z"/>
<path class="st5" d="M239.6,151.2h3.4v3h-3.4V151.2z M239.7,156.2h3.1v13.7h-3.1V156.2z"/>
<path class="st5" d="M246.1,167.3l1.9-2.3c1.7,1.5,3.5,2.4,5.7,2.4c2,0,3.2-0.9,3.2-2.3V165c0-1.3-0.7-2-4.1-2.8
	c-3.9-0.9-6-2.1-6-5.4v-0.1c0-3.1,2.6-5.3,6.2-5.3c2.6,0,4.7,0.8,6.6,2.3l-1.7,2.4c-1.6-1.2-3.3-1.9-4.9-1.9c-1.9,0-3,1-3,2.2v0.1
	c0,1.4,0.8,2,4.3,2.9c3.8,0.9,5.8,2.3,5.8,5.3v0c0,3.4-2.7,5.4-6.5,5.4C250.9,170.2,248.3,169.2,246.1,167.3"/>
<path class="st5" d="M263.6,151.2h3.4v3h-3.4V151.2z M263.8,156.2h3.1v13.7h-3.1V156.2z"/>
<path class="st5" d="M270.9,172.5l1.2-2.4c1.5,0.9,3,1.4,4.9,1.4c2.8,0,4.3-1.4,4.3-4.2v-1.1c-1.1,1.5-2.6,2.5-4.8,2.5
	c-3.2,0-6.2-2.4-6.2-6.4v-0.1c0-4,3-6.4,6.2-6.4c2.3,0,3.7,1.1,4.8,2.3v-2h3.1v10.9c0,2.3-0.6,4-1.7,5.2c-1.2,1.2-3.2,1.8-5.6,1.8
	C274.7,174.1,272.6,173.6,270.9,172.5 M281.3,162.4L281.3,162.4c0-2.3-1.8-3.8-4-3.8c-2.2,0-3.9,1.5-3.9,3.8v0.1
	c0,2.3,1.7,3.8,3.9,3.8C279.4,166.2,281.3,164.6,281.3,162.4"/>
<path class="st5" d="M288.4,156.2h3.1v2.1c0.9-1.3,2.2-2.4,4.3-2.4c3.1,0,4.9,2.1,4.9,5.3v8.7h-3.1v-7.8c0-2.1-1.1-3.3-2.9-3.3
	c-1.8,0-3.1,1.3-3.1,3.4v7.7h-3.1V156.2z"/>
</svg>
