<?xml version="1.0" encoding="utf-8"?>
<!-- Generator: Adobe Illustrator 19.2.1, SVG Export Plug-In . SVG Version: 6.00 Build 0)  -->
<svg version="1.1" id="Layer_1" xmlns="http://www.w3.org/2000/svg" xmlns:xlink="http://www.w3.org/1999/xlink" x="0px" y="0px"
	 viewBox="0 0 325 183" style="enable-background:new 0 0 325 183;" xml:space="preserve">
<style type="text/css">
	.st0{fill:#FFFFFF;}
	.st1{fill:#D0D0D0;}
	.st2{fill:#B2B2B2;}
	.st3{fill:#B9BAC0;}
	.st4{fill:#8B8C8C;}
</style>
<path class="st0" d="M62.9,31.1c-27,0-49,22-49,49c0,27,22,49,49,49H267c27,0,49-22,49-49c0-27-22-49-49-49H62.9z"/>
<path class="st1" d="M267,133.2H62.9c-29.3,0-53.1-23.8-53.1-53.1s23.8-53.1,53.1-53.1H267c29.3,0,53.1,23.8,53.1,53.1
	S296.3,133.2,267,133.2 M62.9,31.1c-27,0-49,22-49,49c0,27,22,49,49,49H267c27,0,49-22,49-49c0-27-22-49-49-49H62.9z"/>
<path d="M242.5,50.3c-7.9,0-14.3,6.4-14.3,14.4c0,7.9,6.4,14.3,14.3,14.3c7.9,0,14.3-6.4,14.3-14.3
	C256.8,56.8,250.4,50.3,242.5,50.3 M242.5,72.1c-4.1,0-7.4-3.3-7.4-7.4c0-4.1,3.3-7.4,7.4-7.4s7.4,3.3,7.4,7.4
	C249.8,68.8,246.5,72.1,242.5,72.1"/>
<path d="M176.7,50.3c-7.9,0-14.3,6.4-14.3,14.4c0,7.9,6.4,14.3,14.3,14.3c7.9,0,14.4-6.4,14.4-14.3C191,56.8,184.6,50.3,176.7,50.3
	 M176.7,72.1c-4.1,0-7.4-3.3-7.4-7.4c0-4.1,3.3-7.4,7.4-7.4c4.1,0,7.4,3.3,7.4,7.4C184,68.8,180.7,72.1,176.7,72.1"/>
<path d="M227.2,72.5c-0.9,0.3-2.3,0.5-2.8,0.5c-2.5,0-3-0.8-3-3.2V56.5h5.9V51h-5.9v-7.8h-6.6l-1.4,7.8h-4.6v0h-0.4
	c-3.8,0-6.6,2.3-8.4,5.9l-2.3-5.9H193v27.5h8.1v-12c0-6,3.6-9.9,7.8-10h4.4v13.7c0,6.4,3.3,8.8,8.7,8.8c2.8,0,4.9-0.6,6.2-1
	L227.2,72.5z"/>
<polyline points="266.6,59.7 266.6,78.5 258.8,78.5 258.8,51 263.5,51 265.1,55.2 "/>
<path d="M265.1,55.2c2.4-2.8,5.7-4.9,9.5-4.9c6.6,0,9.2,5.2,9.2,10.1v18.1h-8.1V60.6c0-2.4-2-3.6-4.1-3.6c-2.3,0-3.7,1.3-5,2.7"/>
<polygon points="130.8,41 139.8,41 152.2,64.6 152.2,41 159.6,41 159.6,78.5 151.5,78.5 138.2,52.6 138.2,78.5 130.8,78.5 "/>
<polygon class="st2" points="307.7,26.9 307.7,28.3 305.8,28.3 305.8,34.9 304.2,34.9 304.2,28.3 302.3,28.3 302.3,26.9 "/>
<polygon class="st2" points="308.8,34.9 308.8,26.9 310.9,26.9 312.3,32.2 313.7,26.9 315.8,26.9 315.8,34.9 314.5,34.9 314.5,28.7 
	314.5,28.7 312.9,34.9 311.7,34.9 310.1,28.7 310.1,28.7 310.1,34.9 "/>
<path class="st2" d="M128.5,111.8l1.9-2.9c1.5,1.1,3.8,2.2,6.6,2.2c2.7,0,4.4-1.2,4.4-3.4c0-2.4-2.1-3.1-5.6-4.3
	c-3.1-1.1-6.2-2.7-6.2-7.1c0-4.1,3.3-6.4,7.6-6.4c2.9,0,5.1,0.6,6.8,1.6l-1.5,3.1c-1.4-0.8-3.2-1.3-5.2-1.3c-2.4,0-3.9,0.9-3.9,2.9
	c0,2.3,1.7,2.8,4.9,3.9c3.3,1.1,7,2.6,7,7.5c0,4.1-2.9,6.8-8.2,6.8C133.1,114.4,130.2,113.1,128.5,111.8"/>
<polygon class="st2" points="152.4,90.3 166.6,90.3 166.6,93.6 156.4,93.6 156.4,100.1 164.4,100.1 164.4,103.3 156.4,103.3 
	156.4,110.8 167.2,110.8 167.2,114.1 152.4,114.1 "/>
<path class="st2" d="M172.9,102.2c0-7,3.3-12.3,10-12.3c3,0,5.3,0.9,7,2.9l-2.4,2.7c-1.4-1.4-2.6-2.1-4.6-2.1
	c-3.9,0-5.7,3.2-5.7,9.1c0,5.5,1.9,8.3,5.7,8.3c2.1,0,3.6-1.1,4.9-2.5l2.4,2.6c-1.7,2-3.9,3.4-7.4,3.4
	C176.1,114.4,172.9,109.2,172.9,102.2"/>
<path class="st2" d="M196.9,105V90.3h4.1v15.4c0,3.3,0.8,5.4,4.3,5.4c3.4,0,4.3-2.1,4.3-5.4V90.3h4.1V105c0,5.9-2.3,9.4-8.4,9.4
	C199.2,114.4,196.9,110.9,196.9,105"/>
<path class="st2" d="M238.5,114.1h-4.4l-4.6-10.1h-3.8v10.1h-4V90.3h7.8c4.8,0,8.6,1.7,8.6,6.9c0,3.6-2.1,5.4-4.5,6.2L238.5,114.1z
	 M229.3,100.9c3,0,4.6-1,4.6-3.7c0-2.6-1.6-3.6-4.3-3.6h-3.8v7.3H229.3z"/>
<polygon class="st2" points="245.4,90.3 259.5,90.3 259.5,93.6 249.4,93.6 249.4,100.1 257.4,100.1 257.4,103.3 249.4,103.3 
	249.4,110.8 260.2,110.8 260.2,114.1 245.4,114.1 "/>
<path class="st2" d="M267,90.3h5.9c7.8,0,11.5,4.2,11.5,11.8c0,7.8-3.8,12-11.3,12H267V90.3z M272.7,110.8c5.6,0,7.5-2.6,7.5-8.7
	c0-5.4-1.5-8.5-7-8.5H271v17.2H272.7z"/>
<path class="st3" d="M62.6,137.4c-31.6,0-57.3-25.7-57.3-57.3c0-31.6,25.7-57.3,57.3-57.3c31.6,0,57.3,25.7,57.3,57.3
	C120,111.7,94.2,137.4,62.6,137.4 M62.6,40.9c-10.5,0-20.3,4.1-27.7,11.5c-7.4,7.4-11.5,17.2-11.5,27.7c0,10.5,4.1,20.3,11.5,27.7
	c7.4,7.4,17.2,11.5,27.7,11.5c10.5,0,20.3-4.1,27.7-11.5c7.4-7.4,11.5-17.2,11.5-27.7c0-10.5-4.1-20.3-11.5-27.7
	C82.9,45,73.1,40.9,62.6,40.9"/>
<rect x="125.1" y="13.9" class="st3" width="4.5" height="4.5"/>
<rect x="125.1" y="5" class="st3" width="4.5" height="4.5"/>
<rect x="112.5" y="18.4" class="st3" width="4.2" height="4.4"/>
<rect x="104.2" y="26.9" width="4.2" height="4.2"/>
<rect x="116.7" y="22.7" width="4.7" height="4.2"/>
<rect x="100" y="22.9" width="4.2" height="4"/>
<rect x="112.5" y="26.9" width="4.2" height="4.2"/>
<rect x="120.7" y="9.5" width="4.4" height="4.4"/>
<rect x="112.5" y="13.9" width="8.2" height="4.4"/>
<rect x="108.4" y="18.4" width="4.1" height="8.6"/>
<path d="M108.4,31.1v4.2h-4.2v-4.2h-7v3h-3.7v3.7h4.2V42h-4.2v-4.2h-4.4v6.5h-4.2v4.2h-2.8v4.2H79c-3.4,5.1-12.1,21.1-14.7,27.6
	c-9.4-13.1-16.7-18.3-22.5-20.1c-3.1-0.9-6.8,2.4-1.7,7.8C52,81,55.7,91.7,59.3,100.3c1.9,4.5,10.4,5.2,12.1,0.6
	c3.6-9.8,8.9-20.7,15.2-29.7v-4.7H90v-4.2h3.5v-4.9h4.2v-4.7h-4.2v-4.3h4.2v4.3h4.1l0-4.2h3.3v-5.1h3.7V40h3.6v-8.9H108.4z"/>
<path class="st2" d="M27.6,157.1h3.1v2.3c1-1.4,2.4-2.6,4.6-2.6c3.2,0,6.4,2.6,6.4,7.1v0.1c0,4.5-3.1,7.1-6.4,7.1
	c-2.3,0-3.7-1.1-4.6-2.4v6.3h-3.1V157.1z M38.5,163.9L38.5,163.9c0-2.7-1.8-4.4-3.9-4.4c-2.1,0-4,1.8-4,4.4v0.1c0,2.6,1.9,4.4,4,4.4
	C36.8,168.3,38.5,166.6,38.5,163.9"/>
<path class="st2" d="M44.3,164L44.3,164c0-4,3.1-7.2,7.3-7.2s7.3,3.2,7.3,7.1v0.1c0,3.9-3.1,7.1-7.3,7.1
	C47.4,171.1,44.3,167.9,44.3,164 M55.8,164L55.8,164c0-2.5-1.7-4.5-4.2-4.5c-2.5,0-4.1,2-4.1,4.4v0.1c0,2.4,1.7,4.4,4.2,4.4
	C54.1,168.3,55.8,166.3,55.8,164"/>
<polygon class="st2" points="60.4,157.1 63.6,157.1 66.4,166.5 69.4,157 72.1,157 75.1,166.5 77.9,157.1 81.1,157.1 76.6,170.9 
	73.8,170.9 70.7,161.5 67.6,170.9 64.8,170.9 "/>
<path class="st2" d="M82.7,164L82.7,164c0-4,2.8-7.2,6.7-7.2c4.4,0,6.6,3.4,6.6,7.4c0,0.3,0,0.6-0.1,0.9H85.8
	c0.3,2.2,1.9,3.5,3.9,3.5c1.5,0,2.6-0.6,3.7-1.6l1.8,1.6c-1.3,1.6-3.1,2.6-5.6,2.6C85.8,171.1,82.7,168.2,82.7,164 M92.8,162.9
	c-0.2-2-1.4-3.6-3.5-3.6c-1.9,0-3.3,1.5-3.6,3.6H92.8z"/>
<path class="st2" d="M99.2,157.1h3.1v3.1c0.9-2,2.4-3.4,4.8-3.3v3.3H107c-2.8,0-4.7,1.8-4.7,5.4v5.2h-3.1V157.1z"/>
<path class="st2" d="M109,164L109,164c0-4,2.8-7.2,6.7-7.2c4.4,0,6.6,3.4,6.6,7.4c0,0.3,0,0.6-0.1,0.9h-10.1
	c0.3,2.2,1.9,3.5,3.9,3.5c1.5,0,2.6-0.6,3.7-1.6l1.8,1.6c-1.3,1.6-3.1,2.6-5.6,2.6C112.1,171.1,109,168.2,109,164 M119.2,162.9
	c-0.2-2-1.4-3.6-3.5-3.6c-1.9,0-3.3,1.5-3.6,3.6H119.2z"/>
<path class="st2" d="M124.8,163.9L124.8,163.9c0-4.6,3.1-7.2,6.4-7.2c2.3,0,3.7,1.1,4.7,2.4v-7.4h3.1v18.9h-3.1v-2.3
	c-1,1.4-2.4,2.6-4.7,2.6C128,171,124.8,168.5,124.8,163.9 M135.9,163.9L135.9,163.9c0-2.7-1.9-4.4-4-4.4c-2.2,0-3.9,1.7-3.9,4.4v0.1
	c0,2.6,1.8,4.4,3.9,4.4C134,168.3,135.9,166.6,135.9,163.9"/>
<path class="st2" d="M153.8,168.6v2.1h-3.1v-18.9h3.1v7.5c1-1.4,2.4-2.6,4.6-2.6c3.2,0,6.4,2.6,6.4,7.1v0.1c0,4.5-3.1,7.1-6.4,7.1
	C156.2,171,154.8,169.9,153.8,168.6 M161.7,163.9L161.7,163.9c0-2.7-1.8-4.4-3.9-4.4c-2.1,0-4,1.8-4,4.4v0.1c0,2.6,1.9,4.4,4,4.4
	C159.9,168.3,161.7,166.6,161.7,163.9"/>
<path class="st2" d="M167,174.2l1.1-2.3c0.6,0.3,1.2,0.5,1.8,0.5c0.9,0,1.4-0.4,1.9-1.6l-5.7-13.7h3.3l3.9,10.2l3.6-10.2h3.3
	l-5.4,14.1c-1.1,2.8-2.3,3.8-4.5,3.8C168.9,175,167.9,174.7,167,174.2"/>
<polygon class="st4" points="189.5,152.6 193,152.6 198.5,166.6 203.9,152.6 207.4,152.6 199.8,170.9 197,170.9 "/>
<path class="st4" d="M208,164L208,164c0-4,2.8-7.2,6.7-7.2c4.4,0,6.6,3.4,6.6,7.4c0,0.3,0,0.6-0.1,0.9h-10.1
	c0.3,2.2,1.9,3.5,3.9,3.5c1.5,0,2.6-0.6,3.7-1.6l1.8,1.6c-1.3,1.6-3.1,2.6-5.6,2.6C211.1,171.1,208,168.2,208,164 M218.1,162.9
	c-0.2-2-1.4-3.6-3.5-3.6c-1.9,0-3.3,1.5-3.6,3.6H218.1z"/>
<path class="st4" d="M224.5,157.1h3.1v3.1c0.9-2,2.4-3.4,4.9-3.3v3.3h-0.2c-2.8,0-4.7,1.8-4.7,5.4v5.2h-3.1V157.1z"/>
<path class="st4" d="M235.1,152h3.4v3h-3.4V152z M235.2,157.1h3.1v13.7h-3.1V157.1z"/>
<path class="st4" d="M241.6,168.1l1.9-2.3c1.7,1.5,3.5,2.4,5.7,2.4c2,0,3.2-0.9,3.2-2.3v-0.1c0-1.3-0.7-2-4.1-2.8
	c-3.9-0.9-6-2.1-6-5.4v-0.1c0-3.1,2.6-5.3,6.2-5.3c2.6,0,4.7,0.8,6.6,2.3l-1.7,2.4c-1.6-1.2-3.3-1.9-4.9-1.9c-1.9,0-3,1-3,2.2v0.1
	c0,1.4,0.8,2,4.3,2.9c3.8,0.9,5.8,2.3,5.8,5.3v0c0,3.4-2.7,5.4-6.5,5.4C246.4,171,243.8,170.1,241.6,168.1"/>
<path class="st4" d="M259.1,152h3.4v3h-3.4V152z M259.3,157.1h3.1v13.7h-3.1V157.1z"/>
<path class="st4" d="M266.3,173.3l1.2-2.4c1.5,0.9,3,1.4,4.9,1.4c2.8,0,4.3-1.4,4.3-4.2v-1.1c-1.1,1.5-2.6,2.5-4.8,2.5
	c-3.2,0-6.2-2.4-6.2-6.4v-0.1c0-4,3-6.4,6.2-6.4c2.3,0,3.7,1.1,4.8,2.3v-2h3.1V168c0,2.3-0.6,4-1.7,5.2c-1.2,1.2-3.2,1.8-5.6,1.8
	C270.2,175,268.1,174.4,266.3,173.3 M276.7,163.3L276.7,163.3c0-2.3-1.8-3.8-4-3.8c-2.2,0-3.9,1.5-3.9,3.8v0.1
	c0,2.3,1.7,3.8,3.9,3.8C274.9,167,276.7,165.5,276.7,163.3"/>
<path class="st4" d="M283.9,157.1h3.1v2.1c0.9-1.3,2.2-2.4,4.3-2.4c3.1,0,4.9,2.1,4.9,5.3v8.7H293V163c0-2.1-1.1-3.3-2.9-3.3
	c-1.8,0-3.1,1.3-3.1,3.4v7.7h-3.1V157.1z"/>
</svg>
