<svg id="Layer_1" data-name="Layer 1" xmlns="http://www.w3.org/2000/svg" viewBox="0 0 48.2 66.75"><defs><style>.cls-1{fill:#fff;}</style></defs><title>man_not_logged_in</title><g id="Layer1_0_FILL" data-name="Layer1 0 FILL"><path class="cls-1" d="M43.15,53.95H43a8.61,8.61,0,0,1-1,0v0A15.1,15.1,0,0,1,31.85,49.3a0.58,0.58,0,0,1-.1-0.15A0.33,0.33,0,0,1,31.6,49l-0.1,0a4.21,4.21,0,0,0-1.45.6q-1.35.7-4.85,2.25T20.3,65.35q-1.4,12-1.35,13.55a27.08,27.08,0,0,0,.3,3.15q0.1,0.6.15,1.15,11.7,7,22.6,8v0.1q0.5,0,1-.05t1.1,0.05V91.2q10.85-1,22.6-8,0-.55.15-1.15a27.08,27.08,0,0,0,.3-3.15q0-1.55-1.35-13.55T60.9,51.8Q57.4,50.25,56,49.55a4.21,4.21,0,0,0-1.45-.6l-0.1,0a0.33,0.33,0,0,1-.15.15,0.58,0.58,0,0,1-.1.15A15.1,15.1,0,0,1,44.1,53.95v0a4.94,4.94,0,0,1-.7,0H43.15m13.7-15.7a13.23,13.23,0,0,0-4-9.7,13.15,13.15,0,0,0-9.65-4,13.66,13.66,0,0,0-13.7,13.7A13.07,13.07,0,0,0,32.3,46.6a13.41,13.41,0,0,0,1.15,1.3,13.23,13.23,0,0,0,9.7,4,13.07,13.07,0,0,0,9.65-4,2,2,0,0,1,.3-0.25A13.18,13.18,0,0,0,56.85,38.25Z" transform="translate(-18.95 -24.55)"/></g></svg>