<svg id="Layer_1" data-name="Layer 1" xmlns="http://www.w3.org/2000/svg" viewBox="0 0 107.5 209.05"><defs><style>.cls-1{fill:#b6b6b6;}</style></defs><title>magnifier</title><g id="Layer0_0_FILL" data-name="Layer0 0 FILL"><path class="cls-1" d="M61,4.42A55.05,55.05,0,0,0,45.1,6.67,52.31,52.31,0,0,0,23,20.17a51.78,51.78,0,0,0-15.75,38A51.78,51.78,0,0,0,23,96.17a51.56,51.56,0,0,0,29.45,15.15V121a17.67,17.67,0,0,0-6,4,17.3,17.3,0,0,0-5.25,12.7v57.8a17.3,17.3,0,0,0,5.25,12.7,17.52,17.52,0,0,0,12.7,5.25h3.65a17.92,17.92,0,0,0,17.95-18v-57.8A17.3,17.3,0,0,0,75.55,125a17.67,17.67,0,0,0-5.95-4v-9.7A51.72,51.72,0,0,0,99,96.17a51.78,51.78,0,0,0,15.75-38A51.78,51.78,0,0,0,99,20.17,52.31,52.31,0,0,0,76.9,6.67,55.05,55.05,0,0,0,61,4.42M40.7,37.87A27.66,27.66,0,0,1,61,29.47a27.66,27.66,0,0,1,20.3,8.4,27.66,27.66,0,0,1,8.4,20.3,27.66,27.66,0,0,1-8.4,20.3A27.66,27.66,0,0,1,61,86.87a27.66,27.66,0,0,1-20.3-8.4,27.66,27.66,0,0,1-8.4-20.3A27.66,27.66,0,0,1,40.7,37.87Z" transform="translate(-7.25 -4.42)"/></g></svg>