<?xml version="1.0" encoding="utf-8"?>
<!-- Generator: Adobe Illustrator 21.1.0, SVG Export Plug-In . SVG Version: 6.00 Build 0)  -->
<svg version="1.1" id="Layer_1" xmlns="http://www.w3.org/2000/svg" xmlns:xlink="http://www.w3.org/1999/xlink" x="0px" y="0px"
	 viewBox="0 0 142 167" style="enable-background:new 0 0 142 167;" xml:space="preserve">
<style type="text/css">
	.st0{fill:none;stroke:#676767;stroke-width:10;stroke-miterlimit:10;}
	.st1{fill:#2AA737;}
</style>
<path class="st0" d="M70.7,148.4c57-17.8,56.3-52.7,56.3-52.7V21.2c-25.7-16.4-90.5-14.9-112.7,0v74.6
	C14.4,95.7,13.8,130.7,70.7,148.4z"/>
<path class="st1" d="M103.6,60.1L67.2,96.4c-2,2-5.3,2-7.3,0L41.8,78.2c-2-2-2-5.3,0-7.3s5.3-2,7.3,0l14.6,14.6l32.8-32.7
	c2.1-1.9,5.3-1.8,7.3,0.3C105.5,55.1,105.4,58.1,103.6,60.1z"/>
</svg>
