<svg id="Layer_1" data-name="Layer 1" xmlns="http://www.w3.org/2000/svg" viewBox="0 0 89.76 107.95"><defs><style>.cls-1{fill:#b0b1b9;}.cls-2{fill:#6b6f71;}.cls-3{fill:none;stroke:#f6f6f6;stroke-miterlimit:10;stroke-width:2px;}</style></defs><title>Shield_Icon</title><path id="Layer0_0_1_STROKES" data-name="Layer0 0 1 STROKES" class="cls-1" d="M53.11,6.34C44.73,17.14,30,21.65,9,21.89q-6.43,63.77,44.15,92.4,50.6-28.65,44.15-92.4C76.2,21.66,61.48,17.14,53.11,6.34Z" transform="translate(-8.24 -6.34)"/><path id="Layer0_0_1_STROKES-2" data-name="Layer0 0 1 STROKES" class="cls-2" d="M53.12,6.34V114.29q50.6-28.65,44.15-92.4C76.2,21.66,61.48,17.14,53.12,6.34Z" transform="translate(-8.24 -6.34)"/><path id="Layer0_0_1_STROKES-3" data-name="Layer0 0 1 STROKES" class="cls-3" d="M53.11,14.15c-7.17,9.23-19.76,13.09-37.77,13.3q-5.5,54.55,37.77,79Q96.4,82,90.88,27.45C72.86,27.25,60.27,23.39,53.11,14.15Z" transform="translate(-8.24 -6.34)"/></svg>