<?xml version="1.0" encoding="utf-8"?>
<!-- Generator: Adobe Illustrator 19.2.1, SVG Export Plug-In . SVG Version: 6.00 Build 0)  -->
<svg version="1.1" id="Layer_1" xmlns="http://www.w3.org/2000/svg" xmlns:xlink="http://www.w3.org/1999/xlink" x="0px" y="0px"
	 viewBox="0 0 186.9 69.9" style="enable-background:new 0 0 186.9 69.9;" xml:space="preserve">
<style type="text/css">
	.st0{fill:#862165;}
</style>
<path class="st0" d="M143.1,11.3l14.3-2.6v55h-14.3V11.3z M164,11.3v52.5h14.3v-55L164,11.3z M122.7,63.8H137V23.5h-14.3V63.8z
	 M27.9,29.2c-1.8-0.1-6-0.4-6-4.2c0-4.6,6-4.6,8.3-4.6c4,0,9.1,1.2,12.8,2.3c0,0,2.1,0.7,3.8,1.5l0.2,0v-0.2V11.8l-0.2-0.1
	c-4.3-1.5-9.4-3-18.8-3c-16.2,0-21.9,9.4-21.9,17.5c0,4.7,2,15.6,20.5,16.9c1.6,0.1,5.7,0.3,5.7,4.2c0,3.2-3.4,5.1-9.1,5.1
	c-6.3,0-12.4-1.6-16.1-3.1v12.9c5.5,1.5,11.8,2.2,19.1,2.2c15.8,0,22.9-8.9,22.9-17.7C49.1,36.6,41.2,30.1,27.9,29.2z M114.6,23
	c-13.3,0.4-20,6.4-20,18.2v22.6h14.5V45.3c0-7.1,0.9-10.1,9.3-10.4V23.2C117,22.9,114.6,23,114.6,23z M75.7,23.5
	c-0.3,0.8-2.6,7.3-8.2,14V8.8l-14.8,2.9v52.1h14.8V47.7c4.3,6.4,6.4,16.1,6.4,16.1h17.7c-1.8-7.3-9.4-20.7-9.4-20.7
	c6.9-8.7,9.9-18,10.4-19.6H75.7z M129.8,19.7c3.9,0,7.1-3.2,7.1-7.1c0-3.9-3.2-7.1-7.1-7.1c-3.9,0-7.1,3.2-7.1,7.1
	C122.8,16.5,125.9,19.7,129.8,19.7z"/>
</svg>
