<?xml version="1.0" encoding="utf-8"?>
<!-- Generator: Adobe Illustrator 19.2.1, SVG Export Plug-In . SVG Version: 6.00 Build 0)  -->
<svg version="1.1" id="Layer_1" xmlns="http://www.w3.org/2000/svg" xmlns:xlink="http://www.w3.org/1999/xlink" x="0px" y="0px"
	 viewBox="0 0 186.9 69.9" style="enable-background:new 0 0 186.9 69.9;" xml:space="preserve">
<style type="text/css">
	.st0{fill:#005098;}
	.st1{fill:#F7A600;}
</style>
<g>
	<g>
		<polygon class="st0" points="67.5,61.1 76.4,8.9 90.6,8.9 81.7,61.1 		"/>
		<path class="st0" d="M133.3,10.2c-2.8-1.1-7.2-2.2-12.8-2.2c-14.1,0-24,7.1-24,17.2c-0.1,7.5,7.1,11.7,12.5,14.2
			c5.5,2.6,7.4,4.2,7.4,6.5c0,3.5-4.4,5.1-8.5,5.1c-5.7,0-8.7-0.8-13.4-2.7l-1.8-0.8l-2,11.7c3.3,1.5,9.5,2.7,15.9,2.8
			c15,0,24.7-7,24.8-17.8c0.1-5.9-3.7-10.5-11.9-14.2c-5-2.4-8-4-8-6.5c0-2.2,2.6-4.5,8.1-4.5c4.7-0.1,8,0.9,10.6,2l1.3,0.6
			L133.3,10.2"/>
		<path class="st0" d="M169.8,9h-11c-3.4,0-6,0.9-7.5,4.3l-21.1,47.8h14.9c0,0,2.4-6.4,3-7.8c1.6,0,16.1,0,18.2,0
			c0.4,1.8,1.7,7.8,1.7,7.8h13.2L169.8,9 M152.3,42.6c1.2-3,5.7-14.6,5.7-14.6c-0.1,0.1,1.2-3,1.9-5l1,4.5c0,0,2.7,12.5,3.3,15.1
			H152.3z"/>
		<path class="st0" d="M55.6,9L41.6,44.6l-1.5-7.2C37.6,29,29.5,20,20.4,15.4l12.7,45.7l15.1,0L70.6,9H55.6"/>
		<path class="st1" d="M28.7,8.9H5.8L5.6,10c17.9,4.3,29.7,14.8,34.6,27.3l-5-24C34.3,10,31.8,9.1,28.7,8.9"/>
	</g>
</g>
</svg>
