<svg data-name="Layer 1" xmlns="http://www.w3.org/2000/svg" viewBox="0 0 40.5 40.5"><circle cx="20.25" cy="20.25" r="19.62" fill="#4997cf"/><path d="M20.25 40.5A20.25 20.25 0 1 1 40.5 20.25 20.27 20.27 0 0 1 20.25 40.5zm0-39.25a19 19 0 1 0 19 19 19 19 0 0 0-19-19z" fill="#fff"/><g fill="#fff"><path d="M25.98 28.9H14.52a.47.47 0 0 1-.47-.47v-2.65a5.4 5.4 0 0 1 .93-3.1 4.59 4.59 0 0 1 2.58-1.82.45.45 0 0 1 .39.06 4.18 4.18 0 0 0 4.6 0 .45.45 0 0 1 .39-.06 4.59 4.59 0 0 1 2.58 1.82 5.4 5.4 0 0 1 .93 3.1v2.65a.47.47 0 0 1-.47.47z"/><path d="M20.25 21.05a3.88 3.88 0 1 1 3.88-3.87 3.88 3.88 0 0 1-3.88 3.87zM28.75 19.35a3.88 3.88 0 1 1 3.87-3.88 3.88 3.88 0 0 1-3.87 3.88z"/><path d="M34.04 20.98a4.67 4.67 0 0 0-2.57-1.83.52.52 0 0 0-.39.06 4.12 4.12 0 0 1-2.3.7 4.2 4.2 0 0 1-2.31-.66.48.48 0 0 0-.39-.07 4.74 4.74 0 0 0-1.83 1 5.78 5.78 0 0 1 .86.52c.52.37.66.77 1 .64.8.47.85 2.07 1.79 2.07s1.93 2.29 2.73 1.81c1.6.54 1.13-1.34 1.13.54l2.23.53-9.75-6.15a7.51 7.51 0 0 1 3.37 7.11h6.89a.48.48 0 0 0 .48-.47v-2.7a5.41 5.41 0 0 0-.94-3.1zM7.85 15.47a3.88 3.88 0 1 1 3.9 3.88 3.88 3.88 0 0 1-3.9-3.88z"/><path d="M6.46 20.98a4.67 4.67 0 0 1 2.57-1.83.52.52 0 0 1 .39.06 4.12 4.12 0 0 0 2.3.7 4.2 4.2 0 0 0 2.31-.66.48.48 0 0 1 .39-.07 4.74 4.74 0 0 1 1.83 1 5.78 5.78 0 0 0-.86.52c-.52.37-.66.77-1 .64-.8.47-.85 2.07-1.79 2.07s-1.93 2.29-2.73 1.81c-1.6.54-1.13-1.34-1.13.54l-2.27.49 9.75-6.15a7.51 7.51 0 0 0-3.33 7.15H6a.48.48 0 0 1-.48-.47v-2.7a5.41 5.41 0 0 1 .94-3.1z"/></g></svg>