<svg id="icons" xmlns="http://www.w3.org/2000/svg" viewBox="0 0 50.41 47.32"><defs><style>.cls-1{fill:none;}.cls-2{fill:#505050;}</style></defs><title>about_us_icon</title><polygon class="cls-1" points="2.4 44.43 15.09 39.39 4.91 38.1 2.4 44.43"/><polygon class="cls-1" points="23.65 26.31 10.38 24.63 10.44 24.18 7.98 30.38 30.04 33.45 30.58 33.24 23.65 26.31"/><polygon class="cls-1" points="5.33 37.05 17.2 38.55 27.98 34.27 7.56 31.42 5.33 37.05"/><polygon class="cls-1" points="13.59 16.25 10.68 23.57 22.39 25.05 13.59 16.25"/><path class="cls-1" d="M41.56,38h0a1,1,0,1,0-1.39,0A1,1,0,0,0,41.56,38Z" transform="translate(-8.76 -9.15)"/><path class="cls-2" d="M41.79,55.22a2.12,2.12,0,0,0,1.36-.75,5.15,5.15,0,0,0,.55-.81c.35-.6.57-.94,1.11-1s.85.19,1.35.67a5.14,5.14,0,0,0,.75.62,2.12,2.12,0,0,0,1.51.33l-.16-1.08c-.54.08-.85-.19-1.35-.67a2.38,2.38,0,0,0-4.17.6c-.35.6-.57.94-1.11,1s-.85-.19-1.36-.67a2.38,2.38,0,0,0-4.17.6c-.35.6-.57.94-1.11,1l.08.54.08.54a2.12,2.12,0,0,0,1.36-.75,5.15,5.15,0,0,0,.55-.81c.35-.6.57-.94,1.11-1s.85.19,1.36.67a5.14,5.14,0,0,0,.75.62A2.12,2.12,0,0,0,41.79,55.22Z" transform="translate(-8.76 -9.15)"/><path class="cls-2" d="M34.94,56.47l-.23-1.58.25,0c.41-.06.58-.29.93-.9a2.63,2.63,0,0,1,4.55-.67c.5.48.75.66,1.16.61s.58-.29.93-.9a2.62,2.62,0,0,1,4.56-.66c.51.48.74.66,1.15.6l.25,0,.23,1.58-.25,0a2.37,2.37,0,0,1-1.68-.37,5.44,5.44,0,0,1-.79-.65c-.51-.48-.74-.66-1.15-.6s-.58.29-.93.9a5.44,5.44,0,0,1-.57.85,2.37,2.37,0,0,1-1.51.83h0a2.38,2.38,0,0,1-1.68-.37,5.39,5.39,0,0,1-.79-.65c-.5-.47-.74-.66-1.15-.6s-.58.29-.93.9a5.44,5.44,0,0,1-.57.85,2.38,2.38,0,0,1-1.51.83Zm.33-1.18.09.6a1.88,1.88,0,0,0,1-.62,5,5,0,0,0,.52-.77c.32-.56.61-1,1.29-1.15s1.09.28,1.57.73a4.85,4.85,0,0,0,.72.59,1.87,1.87,0,0,0,1.34.3h0a1.87,1.87,0,0,0,1.2-.67,4.89,4.89,0,0,0,.52-.77c.33-.56.61-1,1.29-1.14s1.09.28,1.56.73a5,5,0,0,0,.72.59,1.79,1.79,0,0,0,1.09.32l-.09-.59a2,2,0,0,1-1.31-.75,2.14,2.14,0,0,0-3.78.55c-.33.56-.61,1-1.29,1.15s-1.09-.29-1.56-.73a2.14,2.14,0,0,0-3.78.55C36,54.69,35.79,55.12,35.27,55.29Z" transform="translate(-8.76 -9.15)"/><path class="cls-2" d="M53.75,37.85c.19-.67.32-1.06.82-1.27s.87,0,1.48.3a5.1,5.1,0,0,0,.89.41,2.12,2.12,0,0,0,1.55-.06l-.42-1c-.5.21-.87,0-1.48-.3a2.38,2.38,0,0,0-3.88,1.63c-.19.67-.32,1.06-.82,1.27s-.87,0-1.48-.3a2.38,2.38,0,0,0-3.88,1.63c-.19.67-.32,1.06-.82,1.27l.42,1a2.12,2.12,0,0,0,1.12-1.07,5.16,5.16,0,0,0,.33-.92c.19-.67.32-1.06.82-1.27s.87,0,1.48.3a5.14,5.14,0,0,0,.89.41,2.19,2.19,0,0,0,2.67-1.12A5.15,5.15,0,0,0,53.75,37.85Z" transform="translate(-8.76 -9.15)"/><path class="cls-2" d="M46,42.76l-.62-1.47.23-.1c.38-.16.49-.43.68-1.11a2.63,2.63,0,0,1,4.25-1.78c.61.34.88.45,1.26.29s.49-.43.68-1.11a2.62,2.62,0,0,1,4.24-1.78c.61.34.88.45,1.26.29l.23-.1.62,1.47-.23.1a2.38,2.38,0,0,1-1.72.06,5.45,5.45,0,0,1-.93-.43c-.61-.34-.88-.45-1.26-.29s-.49.43-.67,1.11h0a5.37,5.37,0,0,1-.34,1,2.44,2.44,0,0,1-3,1.25,5.28,5.28,0,0,1-.93-.43c-.62-.34-.88-.45-1.26-.29s-.49.43-.68,1.11a5.39,5.39,0,0,1-.34,1,2.37,2.37,0,0,1-1.25,1.18Zm0-1.22.23.55a1.87,1.87,0,0,0,.77-.84,4.86,4.86,0,0,0,.31-.87c.17-.63.32-1.17,1-1.43a1.81,1.81,0,0,1,1.7.31,4.85,4.85,0,0,0,.84.39,1.94,1.94,0,0,0,2.37-1,4.87,4.87,0,0,0,.31-.88c.17-.62.32-1.16,1-1.43a1.81,1.81,0,0,1,1.7.32,5,5,0,0,0,.84.39,1.88,1.88,0,0,0,1.14,0l-.23-.55a2,2,0,0,1-1.46-.39,2.14,2.14,0,0,0-3.52,1.48c-.17.62-.32,1.16-1,1.43a1.8,1.8,0,0,1-1.7-.31,2.14,2.14,0,0,0-3.52,1.48A2,2,0,0,1,46,41.54Z" transform="translate(-8.76 -9.15)"/><path class="cls-2" d="M20.44,9.5a2.12,2.12,0,0,0-.63,1.42,5.13,5.13,0,0,0,.05,1c.09.69.12,1.1-.27,1.49s-.79.37-1.48.29a5.14,5.14,0,0,0-1,0,2.19,2.19,0,0,0-2,2.07,5.13,5.13,0,0,0,.05,1c.09.69.12,1.1-.27,1.49s-.79.37-1.48.29a5.15,5.15,0,0,0-1,0,2.12,2.12,0,0,0-1.4.65l.78.77c.38-.39.79-.37,1.48-.29a2.59,2.59,0,0,0,2.38-.61,2.59,2.59,0,0,0,.57-2.39c-.09-.69-.12-1.1.27-1.49s.79-.37,1.48-.29a2.59,2.59,0,0,0,2.38-.61A2.59,2.59,0,0,0,21,11.76c-.09-.69-.12-1.1.27-1.49Z" transform="translate(-8.76 -9.15)"/><path class="cls-2" d="M11.82,20.19l-1.14-1.12.18-.18a2.37,2.37,0,0,1,1.56-.72,5.16,5.16,0,0,1,1,0c.7.07,1,.08,1.28-.22s.28-.58.2-1.28a5.35,5.35,0,0,1-.06-1,2.44,2.44,0,0,1,2.26-2.3,5.08,5.08,0,0,1,1,0c.7.08,1,.08,1.28-.22s.28-.59.2-1.28a5.38,5.38,0,0,1-.06-1,2.37,2.37,0,0,1,.7-1.58l.18-.18,1.14,1.12-.17.18c-.29.3-.28.59-.2,1.28a2.83,2.83,0,0,1-.64,2.6A2.84,2.84,0,0,1,18,15c-.7-.08-1-.08-1.28.22s-.28.59-.2,1.28a2.83,2.83,0,0,1-.64,2.6,2.82,2.82,0,0,1-2.59.69c-.7-.08-1-.08-1.28.22Zm-.42-1.11.43.42a2,2,0,0,1,1.5-.2,2.35,2.35,0,0,0,2.17-.54,2.35,2.35,0,0,0,.5-2.18,1.81,1.81,0,0,1,.34-1.69A1.8,1.8,0,0,1,18,14.51,2.36,2.36,0,0,0,20.2,14a2.36,2.36,0,0,0,.5-2.18,2,2,0,0,1,.18-1.5l-.43-.42a1.87,1.87,0,0,0-.39,1.07,4.93,4.93,0,0,0,.05.93,1.81,1.81,0,0,1-.33,1.69,1.8,1.8,0,0,1-1.69.37,5.1,5.1,0,0,0-.93,0,1.94,1.94,0,0,0-1.8,1.83,4.88,4.88,0,0,0,.05.93,1.81,1.81,0,0,1-.33,1.69,1.81,1.81,0,0,1-1.69.37,4.93,4.93,0,0,0-.93,0A1.87,1.87,0,0,0,11.4,19.08Z" transform="translate(-8.76 -9.15)"/><path class="cls-2" d="M21.94,23.44,9.2,55.53,41.29,42.79Zm.4,2,8.8,8.8-11.7-1.48ZM11.16,53.57l2.51-6.32,10.18,1.29ZM26,47.7,14.08,46.2l2.23-5.63,20.42,2.85Zm-9.22-8.18,2.46-6.2-.06.45,13.27,1.68,6.93,6.93-.54.22Z" transform="translate(-8.76 -9.15)"/><path class="cls-2" d="M8.76,56,21.85,23,41.73,42.88ZM22,23.89,9.65,55.08,40.84,42.7ZM10.71,54l2.8-7,11.33,1.43Zm3.12-6.5-2.22,5.6,11.25-4.46ZM26,48h-.06L13.73,46.41l2.43-6.11.19,0,21.35,3ZM14.44,46l11.48,1.45,9.84-3.91L16.48,40.84Zm24.39-3.13h-.07L16.39,39.73l3.3-8.32h0l2.56-6.46,9.58,9.58L19.49,33l-.07.59,13.1,1.66,7.26,7.26ZM17.08,39.32l21.68,3,.13-.05-6.6-6.6L19.18,34Zm2.71-6.81,10.66,1.35-8-8Z" transform="translate(-8.76 -9.15)"/><path class="cls-2" d="M42.61,19l.13-.14a5,5,0,1,0-8.06-1.4l1-.47a3.92,3.92,0,0,1,.77-4.43A3.91,3.91,0,0,1,42,18.11L31.43,28.65l.77.77Z" transform="translate(-8.76 -9.15)"/><path class="cls-2" d="M32.2,29.78l-1.13-1.13L41.79,17.94a3.66,3.66,0,1,0-5.17-5.17,3.67,3.67,0,0,0-.73,4.15l.11.23-1.44.68-.11-.23a5.27,5.27,0,0,1,1-6,5.25,5.25,0,0,1,7.42,7.42Zm-.42-1.13.42.42L42.57,18.71A4.75,4.75,0,0,0,35.85,12a4.77,4.77,0,0,0-1,5.16l.54-.25a4.17,4.17,0,0,1,.92-4.48,4.16,4.16,0,0,1,5.88,5.88Z" transform="translate(-8.76 -9.15)"/><path class="cls-2" d="M53.92,12.43h0a5,5,0,0,0-3.53,1.46L32.23,32l.77.77L51.15,14.67a3.88,3.88,0,0,1,2.76-1.14h0A3.91,3.91,0,1,1,52.25,21l-.47,1a5,5,0,1,0,2.14-9.52Z" transform="translate(-8.76 -9.15)"/><path class="cls-2" d="M33,33.17,31.87,32,50.2,13.71a5.21,5.21,0,0,1,3.71-1.54h0a5.25,5.25,0,1,1-2.24,10l-.23-.11.68-1.44.23.11a3.66,3.66,0,0,0,5.22-3.31,3.66,3.66,0,0,0-6.24-2.59ZM32.58,32l.42.42,18-18a4.16,4.16,0,1,1,5.88,5.88,4.18,4.18,0,0,1-4.48.92l-.25.54a4.77,4.77,0,0,0,5.16-1,4.75,4.75,0,0,0-3.36-8.11h0a4.71,4.71,0,0,0-3.36,1.39Z" transform="translate(-8.76 -9.15)"/><path class="cls-2" d="M49.63,32.34a5,5,0,0,0-7.07-7.07L35.3,32.53l.77.77L43.33,26a3.88,3.88,0,0,1,2.76-1.14h0a3.91,3.91,0,1,1-1.67,7.44l-.47,1A5,5,0,0,0,49.63,32.34Z" transform="translate(-8.76 -9.15)"/><path class="cls-2" d="M46.08,34.06a5.23,5.23,0,0,1-2.23-.5l-.23-.11L44.3,32l.23.11a3.66,3.66,0,0,0,4.15-5.89,3.66,3.66,0,0,0-5.17,0l-7.43,7.43-1.13-1.13,7.43-7.43a5.21,5.21,0,0,1,3.71-1.53h0a5.25,5.25,0,0,1,3.71,9h0A5.27,5.27,0,0,1,46.08,34.06Zm-1.79-.85a4.77,4.77,0,0,0,5.16-1,4.75,4.75,0,0,0-3.36-8.1h0a4.71,4.71,0,0,0-3.36,1.39l-7.08,7.08.42.42,7.08-7.08A4.16,4.16,0,0,1,49,31.75a4.17,4.17,0,0,1-4.48.92Z" transform="translate(-8.76 -9.15)"/><path class="cls-2" d="M40.57,17.17A2.17,2.17,0,1,0,39,17.8,2.17,2.17,0,0,0,40.57,17.17Zm-2.29-2.29a1.07,1.07,0,1,1,0,1.52A1.07,1.07,0,0,1,38.28,14.88Z" transform="translate(-8.76 -9.15)"/><path class="cls-2" d="M39,18.05a2.42,2.42,0,0,1-1.71-4.12,2.48,2.48,0,0,1,3.42,0,2.42,2.42,0,0,1,0,3.42h0A2.4,2.4,0,0,1,39,18.05Zm0-4.33A1.92,1.92,0,0,0,37.69,17a2,2,0,0,0,2.71,0h0A1.92,1.92,0,0,0,39,13.72ZM39,17a1.32,1.32,0,0,1-.93-2.26,1.36,1.36,0,0,1,1.87,0A1.32,1.32,0,0,1,39,17Zm0-2.14a.82.82,0,0,0-.58,1.4.84.84,0,0,0,1.16,0,.82.82,0,0,0-.58-1.4Z" transform="translate(-8.76 -9.15)"/><path class="cls-2" d="M46.13,31.29a2.19,2.19,0,1,0-1.55-.64A2.18,2.18,0,0,0,46.13,31.29Zm-.77-3a1.09,1.09,0,0,1,1.55,1.55,1.12,1.12,0,0,1-1.55,0,1.09,1.09,0,0,1,0-1.55Z" transform="translate(-8.76 -9.15)"/><path class="cls-2" d="M46.13,31.54a2.44,2.44,0,0,1-1.72-4.16,2.5,2.5,0,0,1,3.45,0,2.44,2.44,0,0,1-1.72,4.16Zm0-4.38a1.94,1.94,0,0,0-1.37,3.31,2,2,0,0,0,2.74,0,1.94,1.94,0,0,0-1.37-3.31Zm0,3.28a1.34,1.34,0,0,1-1-2.29h0a1.38,1.38,0,0,1,1.9,0,1.34,1.34,0,0,1-1,2.29Zm-.6-1.93a.84.84,0,0,0,0,1.19.87.87,0,0,0,1.19,0,.85.85,0,0,0,0-1.19A.87.87,0,0,0,45.54,28.5Z" transform="translate(-8.76 -9.15)"/><path class="cls-2" d="M53.82,19.71a2.19,2.19,0,1,0-1.55-.64A2.17,2.17,0,0,0,53.82,19.71Zm-.77-3a1.09,1.09,0,1,1,1.55,1.55,1.12,1.12,0,0,1-1.55,0A1.1,1.1,0,0,1,53,16.75Z" transform="translate(-8.76 -9.15)"/><path class="cls-2" d="M53.82,20a2.44,2.44,0,1,1,1.72-.71A2.42,2.42,0,0,1,53.82,20Zm0-4.38a1.94,1.94,0,0,0-1.37,3.31,2,2,0,0,0,2.74,0,1.94,1.94,0,0,0-1.37-3.31Zm0,3.28a1.34,1.34,0,0,1-1-2.29h0a1.38,1.38,0,0,1,1.9,0,1.34,1.34,0,0,1-1,2.29Zm-.6-1.93a.85.85,0,0,0,0,1.19.87.87,0,0,0,1.19,0,.84.84,0,0,0,0-1.19A.87.87,0,0,0,53.22,16.92Z" transform="translate(-8.76 -9.15)"/><path class="cls-2" d="M31.67,20.61a2.55,2.55,0,1,0,.75,1.8A2.53,2.53,0,0,0,31.67,20.61Zm-.77,2.83h0a1.49,1.49,0,0,1-2.06,0,1.45,1.45,0,1,1,2.06,0Z" transform="translate(-8.76 -9.15)"/><path class="cls-2" d="M29.87,25.21a2.8,2.8,0,1,1,2-4.78h0a2.8,2.8,0,0,1-2,4.78Zm0-5.1A2.3,2.3,0,0,0,28.25,24a2.36,2.36,0,0,0,3.25,0,2.3,2.3,0,0,0,0-3.25h0A2.28,2.28,0,0,0,29.87,20.11Zm0,4h0a1.71,1.71,0,0,1-1.2-.49,1.7,1.7,0,0,1,0-2.41,1.74,1.74,0,0,1,2.41,0,1.7,1.7,0,0,1,0,2.41A1.71,1.71,0,0,1,29.87,24.1Zm0-2.89A1.2,1.2,0,0,0,29,23.26a1.21,1.21,0,0,0,.85.34h0a1.21,1.21,0,0,0,.85-.34h0a1.2,1.2,0,0,0-.85-2.06Z" transform="translate(-8.76 -9.15)"/><path class="cls-2" d="M40.87,39.37a2.08,2.08,0,0,0,1.47-3.55,2.13,2.13,0,0,0-2.94,0,2.08,2.08,0,0,0,1.47,3.55Zm-.7-2.78A1,1,0,1,1,41.56,38h0a1,1,0,0,1-1.39,0,1,1,0,0,1,0-1.39Z" transform="translate(-8.76 -9.15)"/><path class="cls-2" d="M40.87,39.62a2.33,2.33,0,0,1-1.65-4,2.38,2.38,0,0,1,3.29,0,2.33,2.33,0,0,1-1.65,4Zm0-4.14a1.82,1.82,0,0,0-1.29,3.1,1.87,1.87,0,0,0,2.59,0,1.81,1.81,0,0,0-1.29-3.1Zm0,3a1.24,1.24,0,0,1-.87-.35,1.23,1.23,0,0,1,0-1.75h0a1.27,1.27,0,0,1,1.75,0,1.23,1.23,0,0,1,0,1.75A1.24,1.24,0,0,1,40.87,38.51Zm0-2a.73.73,0,0,0-.52.21h0a.73.73,0,0,0,0,1,.79.79,0,0,0,1,0,.73.73,0,0,0-.52-1.25Z" transform="translate(-8.76 -9.15)"/></svg>