<svg id="icons" xmlns="http://www.w3.org/2000/svg" viewBox="0 0 37.15 32.51"><defs><style>.cls-1{fill:#505050;}</style></defs><title>faq_icon</title><path class="cls-1" d="M22.85,51.12a2.12,2.12,0,0,1-.87-.19A2.07,2.07,0,0,1,20.74,49V44.77H19.56a4.32,4.32,0,0,1-4.31-4.31V22.9a4.3,4.3,0,0,1,4.3-4.3H48.11a4.3,4.3,0,0,1,4.3,4.3V40.53a4.24,4.24,0,0,1-4.24,4.24H30.77l-6.54,5.81A2.08,2.08,0,0,1,22.85,51.12ZM19.55,20.6a2.3,2.3,0,0,0-2.3,2.3V40.46a2.32,2.32,0,0,0,2.31,2.31h3.18V49a.1.1,0,0,0,.16.07L30,42.77H48.16a2.24,2.24,0,0,0,2.24-2.24V22.9a2.3,2.3,0,0,0-2.3-2.3Z" transform="translate(-15.25 -18.6)"/><path class="cls-1" d="M32.42,33.21a15.5,15.5,0,0,0,2.64-2.8,5,5,0,0,0,.9-2.88A2.36,2.36,0,0,0,35.46,26a2,2,0,0,0-2.66-.15A1.55,1.55,0,0,0,32.34,27a5,5,0,0,0,.14,1l-2,.38a3.69,3.69,0,0,1-.22-1.24,3.48,3.48,0,0,1,1-2.59,3.77,3.77,0,0,1,2.77-1A3.91,3.91,0,0,1,37,24.6a4.08,4.08,0,0,1,1,3,5.6,5.6,0,0,1-.47,2.32,7.44,7.44,0,0,1-1.26,1.94,21.18,21.18,0,0,1-2,1.91v1.92H32.42Zm-.1,4.29h2.11v2.17H32.32Z" transform="translate(-15.25 -18.6)"/></svg>