<svg id="icons" xmlns="http://www.w3.org/2000/svg" viewBox="0 0 43 47.41"><defs><style>.cls-1{fill:#505050;}</style></defs><title>licenses_icon</title><path class="cls-1" d="M20,43H18V14a4,4,0,0,1,4-4H51v2H22a2,2,0,0,0-2,2Z" transform="translate(-12 -10)"/><path class="cls-1" d="M49,28H47V14a4,4,0,0,1,8,0v4H50V16h3V14a2,2,0,0,0-4,0Z" transform="translate(-12 -10)"/><path class="cls-1" d="M39,49H17a5,5,0,0,1-5-5V42H35v2H14a3,3,0,0,0,3,3H39Z" transform="translate(-12 -10)"/><path class="cls-1" d="M46,46a3.18,3.18,0,0,1-1.48-.36,1.17,1.17,0,0,0-1.09,0A3.18,3.18,0,0,1,39,44a1.2,1.2,0,0,0-.84-.72,3.21,3.21,0,0,1-2.06-1.52,3.24,3.24,0,0,1-.29-2.58,1.24,1.24,0,0,0-.19-1.11,3.23,3.23,0,0,1,.81-4.66,1.22,1.22,0,0,0,.55-1,3.23,3.23,0,0,1,1.14-2.33,3.17,3.17,0,0,1,2.45-.71,1.17,1.17,0,0,0,1-.38A3.18,3.18,0,0,1,44,28h0a3.19,3.19,0,0,1,2.35,1,1.18,1.18,0,0,0,1,.38,3.18,3.18,0,0,1,2.45.71A3.23,3.23,0,0,1,51,32.47a1.22,1.22,0,0,0,.55,1,3.23,3.23,0,0,1,.82,4.66,1.23,1.23,0,0,0-.19,1.11,3.24,3.24,0,0,1-.28,2.58,3.2,3.2,0,0,1-2.06,1.52A1.19,1.19,0,0,0,49,44a3.2,3.2,0,0,1-1.86,1.79A3.15,3.15,0,0,1,46,46Zm-2-2.5a3.17,3.17,0,0,1,1.47.36,1.15,1.15,0,0,0,.94.06,1.18,1.18,0,0,0,.7-.67,3.19,3.19,0,0,1,2.25-1.91,1.18,1.18,0,0,0,.77-.57,1.22,1.22,0,0,0,.11-1,3.24,3.24,0,0,1,.51-2.91,1.22,1.22,0,0,0,.23-1,1.2,1.2,0,0,0-.54-.81A3.22,3.22,0,0,1,49,32.56a1.21,1.21,0,0,0-.43-.88,1.16,1.16,0,0,0-.91-.27,3.18,3.18,0,0,1-2.77-1h0A1.17,1.17,0,0,0,44,30h0a1.16,1.16,0,0,0-.87.39,3.16,3.16,0,0,1-2.77,1,1.17,1.17,0,0,0-.91.26,1.21,1.21,0,0,0-.43.88,3.22,3.22,0,0,1-1.46,2.57,1.2,1.2,0,0,0-.53.81,1.22,1.22,0,0,0,.23,1,3.24,3.24,0,0,1,.51,2.91,1.22,1.22,0,0,0,.11,1,1.18,1.18,0,0,0,.77.57,3.2,3.2,0,0,1,2.25,1.91,1.19,1.19,0,0,0,.7.67,1.15,1.15,0,0,0,.94-.06A3.17,3.17,0,0,1,44,43.5Z" transform="translate(-12 -10)"/><path class="cls-1" d="M44,41a4,4,0,1,1,4-4A4,4,0,0,1,44,41Zm0-6a2,2,0,1,0,2,2A2,2,0,0,0,44,35Z" transform="translate(-12 -10)"/><polygon class="cls-1" points="36 47.41 32 43.41 28 47.41 28 34 30 34 30 42.59 32 40.59 34 42.59 34 34 36 34 36 47.41"/></svg>