<svg id="icons" xmlns="http://www.w3.org/2000/svg" viewBox="0 0 48 46"><defs><style>.cls-1{fill:none;stroke:#2aa737;stroke-miterlimit:10;stroke-width:2px;}</style></defs><title>Whats_next_icon1</title><line class="cls-1" x1="5" y1="17" x2="20" y2="17"/><line class="cls-1" y1="25" x2="17" y2="25"/><line class="cls-1" x1="3" y1="33" x2="18" y2="33"/><polyline class="cls-1" points="28 5 24 5 24 1 34 1 34 5 30 5"/><path class="cls-1" d="M36,12.5v2.12A18,18,0,0,1,34,50.5H18" transform="translate(-5 -5.5)"/><path class="cls-1" d="M18.41,41.5A18.09,18.09,0,0,0,23,46.75" transform="translate(-5 -5.5)"/><path class="cls-1" d="M16,33.5a17.93,17.93,0,0,0,1,4.93" transform="translate(-5 -5.5)"/><path class="cls-1" d="M17.41,25.5a17.87,17.87,0,0,0-1.3,5" transform="translate(-5 -5.5)"/><path class="cls-1" d="M32,12.5v2.12a18,18,0,0,0-13,7.93" transform="translate(-5 -5.5)"/><circle class="cls-1" cx="29" cy="27" r="3"/><line class="cls-1" x1="31" y1="25" x2="39" y2="17"/><line class="cls-1" x1="46" y1="12" x2="43" y2="9"/><line class="cls-1" x1="41" y1="14" x2="44" y2="11"/><path class="cls-1" d="M46.13,25.5A14,14,0,0,1,34,46.5H30" transform="translate(-5 -5.5)"/></svg>
