<svg id="icons" xmlns="http://www.w3.org/2000/svg" viewBox="0 0 47 35.93"><defs><style>.cls-1,.cls-2{fill:none;stroke:#2aa737;stroke-linejoin:round;stroke-width:2px;}.cls-1{stroke-linecap:round;}</style></defs><title>Whats_next_icon2</title><path class="cls-1" d="M35.5,25c-7.86,1.59-13.5.39-18-1.55v19c5.13,2.63,11.1,3.28,19,1.63,10.86-2.27,11.73-3.16,18,1.38v-20C48.43,21.07,43.82,23.33,35.5,25Z" transform="translate(-8.5 -10.54)"/><path class="cls-1" d="M50.5,19.46c-6-3.42-9.69-2-15,0-7.69,2.94-17.08.58-22-2v19" transform="translate(-8.5 -10.54)"/><path class="cls-1" d="M46.5,13.5c-5.5-2.14-8.87-.81-14,.94-7.79,2.66-18.08-.32-23-2.91V30.46" transform="translate(-8.5 -10.54)"/><path class="cls-1" d="M31.69,28.93A10.59,10.59,0,0,0,28.5,36.2c0,2.55,1.18,4.44,3,5.22" transform="translate(-8.5 -10.54)"/><path class="cls-1" d="M33,37.32h0c-.14.75.41,1.18,1.18.87l1.39-.57a3,3,0,0,0,1.61-2l.18-1.1c.11-.59-.19-1-.72-.92l-2.14.17c-.53,0-.83-.32-.72-.91l0-.47a3,3,0,0,1,1.61-2l1.39-.57c.77-.31,1.33.17,1.19.92h0" transform="translate(-8.5 -10.54)"/><line class="cls-1" x1="27.71" y1="19.53" x2="28.04" y2="17.7"/><line class="cls-1" x1="26.15" y1="27.86" x2="25.77" y2="29.94"/><line class="cls-2" x1="14" y1="25.93" x2="16" y2="25.93"/><line class="cls-2" x1="38" y1="21.93" x2="40" y2="21.93"/><path class="cls-1" d="M38.5,40.27a10.66,10.66,0,0,0,4.27-8.2,5.66,5.66,0,0,0-2.1-4.71" transform="translate(-8.5 -10.54)"/></svg>
