<svg id="icons" xmlns="http://www.w3.org/2000/svg" viewBox="0 0 48 34"><defs><style>.cls-1,.cls-2{fill:none;stroke:#2aa737;stroke-width:2px;}.cls-1{stroke-linecap:round;stroke-linejoin:round;}.cls-2{stroke-miterlimit:10;}</style></defs><title>Whats_next_icon3</title><path class="cls-1" d="M54.5,40.5v2a2,2,0,0,1-2,2h-41a2,2,0,0,1-2-2v-27a2,2,0,0,1,2-2h16" transform="translate(-8.5 -11.5)"/><path class="cls-1" d="M35.5,13.5h17a2,2,0,0,1,2,2v17" transform="translate(-8.5 -11.5)"/><polyline class="cls-1" points="32 7 26 1 18 1 28 11"/><polyline class="cls-1" points="36 19 47 30 47 22 40 15"/><polygon class="cls-2" points="34 6 36 8 39 8 39 11 41 13 39 15 39 18 36 18 34 20 32 18 29 18 29 15 27 13 29 11 29 8 32 8 34 6"/><rect class="cls-1" x="7" y="12" width="5" height="6" rx="2" ry="2"/><rect class="cls-1" x="16" y="21" width="5" height="6" rx="2" ry="2"/><line class="cls-1" x1="20" y1="12" x2="8" y2="27"/></svg>
