<svg id="Layer_1" data-name="Layer 1" xmlns="http://www.w3.org/2000/svg" viewBox="0 0 45.06 47.71"><defs><style>.cls-1,.cls-2{fill:none;stroke:#2aa737;stroke-width:2px;}.cls-1{stroke-miterlimit:10;}.cls-2{stroke-linejoin:round;}</style></defs><title>Notifications_icons</title><path class="cls-1" d="M56,28l-.17-.18c-.86-.91-1.11-2.09-.54-2.62L57.7,23a2.23,2.23,0,0,1,3.14.15l.17.18a2.23,2.23,0,0,1,0,3.14L58.6,28.72C58,29.25,56.87,28.95,56,28Z" transform="translate(-17.59 -14.42)"/><path class="cls-1" d="M36,61.42s1.95-2,3-3c8.15.6,11.19-5,12-6" transform="translate(-17.59 -14.42)"/><path class="cls-1" d="M56.64,46.76l-.17-.15c-.86-.75-1.19-1.8-.71-2.35l2-2.31a2.05,2.05,0,0,1,2.89-.17l.17.15a2.05,2.05,0,0,1,.25,2.88l-2,2.31C58.59,47.67,57.5,47.5,56.64,46.76Z" transform="translate(-17.59 -14.42)"/><path class="cls-1" d="M37,54.42a15.51,15.51,0,0,0-1.92-14.25A28.6,28.6,0,0,0,36.52,33a6.19,6.19,0,0,0-1.29-4.15,1.74,1.74,0,0,0-3,.37c-1.64,5.23-1.94,6.66-3,9.28-1.13,2.94-.48,7.06-1,8.27C28.14,47,26,50.42,26,50.42" transform="translate(-17.59 -14.42)"/><path class="cls-1" d="M56.65,40.47l-.17-.15c-.88-.76-1.21-1.83-.73-2.39l2-2.35a2.09,2.09,0,0,1,2.94-.18l.17.15a2.09,2.09,0,0,1,.26,2.93l-2,2.35C58.64,41.39,57.53,41.23,56.65,40.47Z" transform="translate(-17.59 -14.42)"/><path class="cls-1" d="M56.65,34.34l-.17-.15c-.88-.76-1.21-1.83-.73-2.39l2-2.35a2.09,2.09,0,0,1,2.94-.18l.17.15a2.09,2.09,0,0,1,.26,2.93l-2,2.35C58.64,35.27,57.53,35.1,56.65,34.34Z" transform="translate(-17.59 -14.42)"/><line class="cls-1" x1="26.41" y1="35" x2="29.41" y2="35"/><path class="cls-1" d="M57,23.42v-5a3,3,0,0,0-3-3H37a3,3,0,0,0-3,3v10" transform="translate(-17.59 -14.42)"/><path class="cls-1" d="M37,52.42H54a3,3,0,0,0,3-3h0v-2" transform="translate(-17.59 -14.42)"/><polyline class="cls-1" points="19.41 47 6.41 34 1.41 39 9.41 47"/><line class="cls-1" x1="6.41" y1="39" x2="7.41" y2="40"/><line class="cls-1" x1="20.41" y1="32" x2="38.41" y2="32"/><line class="cls-1" x1="16.41" y1="6" x2="39.41" y2="6"/><polygon class="cls-2" points="28.41 11.57 30.48 15.17 34.33 15.87 31.75 19.3 32.07 23.03 28.41 21.88 24.76 23.08 25.08 19.29 22.5 15.87 26.35 15.17 28.41 11.57"/></svg>
