<svg id="Layer_1" data-name="Layer 1" xmlns="http://www.w3.org/2000/svg" viewBox="0 0 36.24 47.33"><defs><style>.cls-1,.cls-2{fill:none;stroke:#2aa737;stroke-width:2px;}.cls-1{stroke-miterlimit:10;}.cls-2{stroke-linejoin:round;}</style></defs><title>Subscription_Icon</title><path class="cls-1" d="M41,58.58v-2c0-.86-2.83-3.31-3.53-4.41C37,51.5,34,42.81,34,42.81c0-1,2.45-2.2,4.05,0l2.61,4.05L42,45.58v-15a2,2,0,0,1,2-2h0a2,2,0,0,1,2,2v7h2a2.7,2.7,0,0,1,2,1h2a2.1,2.1,0,0,1,2,2h2a2.1,2.1,0,0,1,2,2v10c0,2-2,3.65-2,5v1" transform="translate(-22.76 -14.25)"/><line class="cls-1" x1="27.24" y1="24.33" x2="27.24" y2="29.33"/><line class="cls-1" x1="31.24" y1="26.33" x2="31.24" y2="30.33"/><polyline class="cls-1" points="35.24 47.33 35.24 44.33 16.24 44.33 16.24 47.33"/><path class="cls-2" d="M40,38.06l-3-1.51-7.5,3.74a.65.65,0,0,1-.93-.71l1.54-7.93-6.17-6.12a.65.65,0,0,1,.4-1.11l8.4-.75,3.66-8a.65.65,0,0,1,1.18,0l3.66,8,8.4.75a.65.65,0,0,1,.4,1.11l-2,2" transform="translate(-22.76 -14.25)"/></svg>
