<svg xmlns="http://www.w3.org/2000/svg" viewBox="0 0 25.49 25.49"><defs><style>.cls-1{fill:#505050;}</style></defs><title>deposit_withdraw</title><path class="cls-1" d="M14.75,24.5a1.91,1.91,0,0,0,3.81,0A8.94,8.94,0,0,1,33.3,17.69l.07.06L32.11,19a1.18,1.18,0,0,0,.83,2h5a1.18,1.18,0,0,0,1.18-1.18v-5a1.18,1.18,0,0,0-2-.83l-1.07,1.07L36,15a12.94,12.94,0,0,0-8.5-3.26A12.76,12.76,0,0,0,14.75,24.5Zm12.75-12a12.14,12.14,0,0,1,8.31,3.35l.26.25,1.58-1.58a.43.43,0,0,1,.73.3v5a.43.43,0,0,1-.43.43h-5a.43.43,0,0,1-.3-.73l1.8-1.8-.28-.26a9.69,9.69,0,0,0-16.35,7,1.16,1.16,0,1,1-2.31,0,12,12,0,0,1,12-12Z" transform="translate(-14.75 -11.75)"/><path class="cls-1" d="M38.34,22.6a1.91,1.91,0,0,0-1.91,1.9A8.94,8.94,0,0,1,21.7,31.31l-.07-.06L22.89,30a1.18,1.18,0,0,0-.83-2H17a1.18,1.18,0,0,0-1.18,1.18v5a1.18,1.18,0,0,0,2,.83l1.07-1.07L19,34a13,13,0,0,0,8.5,3.26A12.76,12.76,0,0,0,40.25,24.5,1.91,1.91,0,0,0,38.34,22.6ZM36,33A11.92,11.92,0,0,1,27.5,36.5a12.13,12.13,0,0,1-8.31-3.35l-.26-.25-1.58,1.58a.44.44,0,0,1-.47.09.43.43,0,0,1-.26-.4v-5a.43.43,0,0,1,.43-.43h5a.43.43,0,0,1,.4.26.44.44,0,0,1-.09.47l-1.8,1.8.28.26a9.69,9.69,0,0,0,16.35-7,1.16,1.16,0,1,1,2.31,0A11.92,11.92,0,0,1,36,33Z" transform="translate(-14.75 -11.75)"/><path class="cls-1" d="M28.19,29.08H26.81A1.82,1.82,0,0,1,25,27.26v-.69h.89v.69a.94.94,0,0,0,.94.94h1.38a.94.94,0,0,0,.94-.94V26.18a.93.93,0,0,0-.64-.89l-2.25-.75A1.82,1.82,0,0,1,25,22.82V21.74a1.82,1.82,0,0,1,1.82-1.82h1.38A1.82,1.82,0,0,1,30,21.74v.69h-.89v-.69a.94.94,0,0,0-.94-.94H26.81a.94.94,0,0,0-.94.94v1.08a.93.93,0,0,0,.64.89l2.25.75A1.82,1.82,0,0,1,30,26.18v1.08A1.82,1.82,0,0,1,28.19,29.08Z" transform="translate(-14.75 -11.75)"/><rect class="cls-1" x="12.3" y="6.54" width="0.89" height="2.07"/><rect class="cls-1" x="12.3" y="16.88" width="0.89" height="2.07"/></svg>