<svg xmlns="http://www.w3.org/2000/svg" viewBox="0 0 28.94 28.94"><defs><style>.cls-1{fill:#daebf9;}.cls-2{fill:#469ae1;}</style></defs><title>logout</title><circle class="cls-1" cx="14.47" cy="14.47" r="14.07"/><path class="cls-2" d="M27.5,38.67A14.17,14.17,0,1,1,41.67,24.5,14.18,14.18,0,0,1,27.5,38.67Zm0-28.13a14,14,0,1,0,14,14A14,14,0,0,0,27.5,10.53Z" transform="translate(-13.03 -10.03)"/><path class="cls-2" d="M27.5,38.87A14.37,14.37,0,1,1,41.87,24.5,14.39,14.39,0,0,1,27.5,38.87Zm0-28.13A13.76,13.76,0,1,0,41.26,24.5,13.78,13.78,0,0,0,27.5,10.74Z" transform="translate(-13.03 -10.03)"/><path class="cls-2" d="M27.5,39A14.47,14.47,0,1,1,42,24.5,14.49,14.49,0,0,1,27.5,39Zm0-28.74A14.27,14.27,0,1,0,41.77,24.5,14.29,14.29,0,0,0,27.5,10.23Zm0,28.13A13.86,13.86,0,1,1,41.36,24.5,13.88,13.88,0,0,1,27.5,38.36Zm0-27.53A13.66,13.66,0,1,0,41.16,24.5,13.68,13.68,0,0,0,27.5,10.84Z" transform="translate(-13.03 -10.03)"/><path class="cls-2" d="M32.54,25.92c-.31-.09-.63-.18-1-.29-1.66-.55-2.18-.86-2.18-1.68a2.6,2.6,0,0,1,.67-1.53,5,5,0,0,0,1.15-3.26,3.75,3.75,0,0,0-3.94-4,3.75,3.75,0,0,0-3.94,4,5,5,0,0,0,1.15,3.26A2.6,2.6,0,0,1,25.17,24c0,.82-.52,1.12-2.18,1.68-.32.11-.64.2-1,.29-2.12.61-4.13,1.19-4.13,5.91v.3H36.67v-.3C36.67,27.11,34.67,26.53,32.54,25.92Zm3.53,5.61H18.5v-.31c.14-3.69,1.7-4.14,3.68-4.71.32-.09.65-.19,1-.3,1.34-.45,2.6-.87,2.6-2.25A3.13,3.13,0,0,0,25,22.07a4.5,4.5,0,0,1-1-2.91,3.14,3.14,0,0,1,3.33-3.38,3.14,3.14,0,0,1,3.33,3.38,4.5,4.5,0,0,1-1,2.91A3.13,3.13,0,0,0,28.8,24c0,1.39,1.26,1.81,2.6,2.25.33.11.66.2,1,.3,2,.57,3.54,1,3.68,4.71Z" transform="translate(-13.03 -10.03)"/><path class="cls-2" d="M31,25.95S29.05,25,29.1,24.11a15.11,15.11,0,0,1,1.56-3.53s1-4-1.57-4.69-4.14-.35-4.94,1.46-1,2.47,0,4.09S26,23.28,25.27,24.5s-3.68,1.83-3.68,1.83S19.26,27.34,19,28a30.7,30.7,0,0,0-.81,3.48l18.22.2s.15-3.33-1.11-4.19S31.44,25.65,31,25.95Z" transform="translate(-13.03 -10.03)"/></svg>