<svg xmlns="http://www.w3.org/2000/svg" viewBox="0 0 24.56 31.26"><defs><style>.cls-1{fill:#505050;}</style></defs><title>my_games</title><path class="cls-1" d="M37.57,18.84a1.6,1.6,0,0,0-1.13.35,1.42,1.42,0,0,1-1.1.48,1.36,1.36,0,0,1-1.42-1,18,18,0,0,1,.34-4.95,40.4,40.4,0,0,1-6.65.89,5.49,5.49,0,0,1-1.36-.13,1.7,1.7,0,0,1-1.35-1.32,1.19,1.19,0,0,1,.51-1.2,1.66,1.66,0,0,0,.45-1.62C25.69,9.53,25,9,23.81,8.9l-.55,0a2.25,2.25,0,0,0-2.38,1.37,2.09,2.09,0,0,0,.2,2,1.55,1.55,0,0,1,.4,1.59,1.24,1.24,0,0,1-.92.94,6.92,6.92,0,0,1-1.09.08,23.22,23.22,0,0,1-3.87-.43c-.11.91-.61,5.48-.24,7.24a.93.93,0,0,0,.94.64,1.11,1.11,0,0,0,1.07-.83,2.38,2.38,0,0,1,2.22-1.07c.77,0,3.26.3,3.26,4.23,0,2.51-1.57,3.87-3,3.87a2.64,2.64,0,0,1-2.14-1.14,2.26,2.26,0,0,0-1.37-.56c-.5,0-.78.28-.88.85-.24,1.44.39,5.67.52,6.47.59,0,3-.14,4.79-.14a15.83,15.83,0,0,1,1.79.07,1.12,1.12,0,0,1,1,.81,1.27,1.27,0,0,1-.55,1.33,1.75,1.75,0,0,0-.5,2,2.9,2.9,0,0,0,2.71,2,2.31,2.31,0,0,0,2.58-1.67,1.53,1.53,0,0,0-.42-1.72,2,2,0,0,1-.94-2,1,1,0,0,1,1-.8,47.8,47.8,0,0,1,6.76.59c-.06-1.25-.4-8.2.1-10.1a1.61,1.61,0,0,1,1.5-1.38,1.15,1.15,0,0,1,1,.53,1.48,1.48,0,0,0,1.2.5c.48,0,1.63-.21,1.83-2.13a3.08,3.08,0,0,0-.58-2.46A2.14,2.14,0,0,0,37.57,18.84Zm1.52,3.06c-.13,1.28-.71,1.54-1.17,1.54a1.33,1.33,0,0,1-.56-.13l-.06,0,0,0a1.8,1.8,0,0,0-1.55-.84,2.27,2.27,0,0,0-2.14,1.86c-.45,1.71-.27,7.09-.17,9.33v.18l-.18,0a40.1,40.1,0,0,0-5.92-.46,1.7,1.7,0,0,0-1.63,1.3,2.58,2.58,0,0,0,1.24,2.7A1.12,1.12,0,0,1,27,38.42a1.64,1.64,0,0,1-1.7,1.06h-.16A2.22,2.22,0,0,1,23,38a1.16,1.16,0,0,1,.27-1.26,1.92,1.92,0,0,0,.79-2,1.77,1.77,0,0,0-1.5-1.29,16.2,16.2,0,0,0-1.88-.08c-1.42,0-3.18.07-4.1.11h-.14l0-.13a27.49,27.49,0,0,1-.41-5.55,1.43,1.43,0,0,1,0-.16v-.14h.2a1.77,1.77,0,0,1,.85.32l0,0a3.32,3.32,0,0,0,2.63,1.35c1.8,0,3.71-1.59,3.71-4.52,0-3.6-2.11-4.88-3.92-4.89a3,3,0,0,0-2.84,1.51c-.14.4-.37.4-.45.4a.47.47,0,0,1-.24-.07l-.06,0v-.06a30.57,30.57,0,0,1,.17-6.13l0-.16.16,0a21.12,21.12,0,0,0,3.14.29,7.58,7.58,0,0,0,1.2-.08A1.88,1.88,0,0,0,22.1,14a2.22,2.22,0,0,0-.57-2.24l0,0a1.71,1.71,0,0,1,.05-1.42c.32-.62,1.06-.88,2.18-.76.79.08,1.29.36,1.46.81a1.19,1.19,0,0,1-.12,1l0,0a1.86,1.86,0,0,0-.78,1.83,2.33,2.33,0,0,0,1.83,1.85,6,6,0,0,0,1.53.16,34.45,34.45,0,0,0,5.63-.67l.21,0,0,.21a15.12,15.12,0,0,0-.15,4,2,2,0,0,0,2.07,1.55,2.07,2.07,0,0,0,1.57-.67l0,0a1.38,1.38,0,0,1,.62-.12,1.49,1.49,0,0,1,1.11.45A2.52,2.52,0,0,1,39.1,21.89Z" transform="translate(-15.22 -8.87)"/></svg>