<svg xmlns="http://www.w3.org/2000/svg" viewBox="0 0 25.85 32.75"><defs><style>.cls-1{fill:#505050;}</style></defs><title>my_lucky_numbers</title><path class="cls-1" d="M39,38.76h-.72l.72,0Zm0,0L38.28,38a3.36,3.36,0,0,1,.66-1.61,4,4,0,0,0,.77-2V27.28a1.15,1.15,0,0,0-1.07-1.07H36.85v-.36a1.15,1.15,0,0,0-1.07-1.07H34.15L34,24.61a1.59,1.59,0,0,0-1.13-.55H31.84V28h-.72V18.7a1.07,1.07,0,0,0-2.15,0V29.58L27.6,30.91l-2.1-3.26A1.45,1.45,0,0,0,23.82,27a.88.88,0,0,0-.56.42c.83,2.39,2.21,6.21,2.42,6.54a11.17,11.17,0,0,0,1,1.18c1,1,1.55,1.67,1.55,2.16v1.43h-.72V37.3a7.69,7.69,0,0,0-1.36-1.67,11.16,11.16,0,0,1-1.11-1.29c-.32-.5-2.15-5.73-2.52-6.77l0-.12a1.37,1.37,0,0,1,1.06-1.14,2.18,2.18,0,0,1,2.49.93l1.65,2.55.53-.51V18.7a1.79,1.79,0,0,1,3.58,0v4.65h1.07a2.36,2.36,0,0,1,1.61.72h1.25a1.89,1.89,0,0,1,1.75,1.43h1.11a1.86,1.86,0,0,1,1.79,1.79v7.15a4.56,4.56,0,0,1-.88,2.33A3,3,0,0,0,39,38Z" transform="translate(-14.58 -8.13)"/><rect class="cls-1" x="19.41" y="16.3" width="0.72" height="3.58"/><rect class="cls-1" x="22.27" y="17.73" width="0.72" height="2.86"/><polygon class="cls-1" points="25.85 32.75 25.13 32.75 25.13 30.96 12.26 30.96 12.26 32.75 11.54 32.75 11.54 30.25 25.85 30.25 25.85 32.75"/><path class="cls-1" d="M24.27,24.88l-.21-.15c-6.15-4.48-8.9-6.79-9.41-10.12a5.76,5.76,0,0,1,1.91-5.42,5.75,5.75,0,0,1,4.41-1,5.29,5.29,0,0,1,3.29,2,5.29,5.29,0,0,1,3.29-2,5.74,5.74,0,0,1,4.41,1,5.75,5.75,0,0,1,1.91,5.42,6.76,6.76,0,0,1-.66,2.06l-.64-.32a6,6,0,0,0,.59-1.85,5,5,0,0,0-1.64-4.74,5,5,0,0,0-3.85-.83A4.53,4.53,0,0,0,24.58,11l-.3.49L24,11a4.53,4.53,0,0,0-3.12-2.12A5,5,0,0,0,17,9.76a5,5,0,0,0-1.64,4.74C15.8,17.36,18,19.4,24.27,24c1-.72,1.89-1.39,2.69-2l.43.57c-.87.66-1.84,1.38-2.92,2.17Z" transform="translate(-14.58 -8.13)"/></svg>