<svg xmlns="http://www.w3.org/2000/svg" viewBox="0 0 30.16 31"><defs><style>.cls-1{fill:#505050;}</style></defs><title>my_transctions</title><path class="cls-1" d="M28.26,38.65H18.15V38H28.26c1.56,0,7.88-2.05,8.44-2.45a68.6,68.6,0,0,0,5.11-5.77,2.13,2.13,0,0,0-2-.67c-.43.05-1.41.48-3.07,2.78a1,1,0,0,1-.13.16l-.07.06-4.66,1.05-.07,0L31.31,33c-.6-.18-1.71-.52-2.78-.79a3.51,3.51,0,0,1-1.63-1.73c0-.66.3-.81.9-1.11l.42-.21a5.5,5.5,0,0,1,.59-.24,3.92,3.92,0,0,0,2.48-1.81c.28-.64.3-1.22.06-1.47s-1-.25-1.93.13c-.44.18-1.46.5-2.65.87-1.64.52-3.68,1.16-4.8,1.61a8.33,8.33,0,0,0-1.53,1.48c-.26.29-.5.56-.71.76l-.1.09H18.15v-.67h1.21c.17-.18.37-.4.58-.63a8.42,8.42,0,0,1,1.74-1.64c1.19-.49,3.25-1.13,4.9-1.65,1.17-.37,2.18-.69,2.6-.85,1.26-.5,2.16-.49,2.66,0a2,2,0,0,1,.07,2.21A4.53,4.53,0,0,1,29,29.53a4.88,4.88,0,0,0-.51.2l-.43.22c-.46.23-.51.25-.52.43.16.27.82,1.07,1.13,1.15,1.08.28,2.2.62,2.8.8l.37.11,4.3-1c1.38-1.91,2.57-2.94,3.54-3.05a2.6,2.6,0,0,1,2.79,1.24l.07.17-.11.15a65.5,65.5,0,0,1-5.39,6.09A37.43,37.43,0,0,1,28.26,38.65Z" transform="translate(-12.42 -9)"/><path class="cls-1" d="M37.69,15.07a3,3,0,1,1,3-3A3,3,0,0,1,37.69,15.07Zm0-5.39A2.36,2.36,0,1,0,40,12,2.36,2.36,0,0,0,37.69,9.68Z" transform="translate(-12.42 -9)"/><path class="cls-1" d="M28.93,21.13a3,3,0,1,1,3-3A3,3,0,0,1,28.93,21.13Zm0-5.39a2.36,2.36,0,1,0,2.36,2.36A2.36,2.36,0,0,0,28.93,15.74Z" transform="translate(-12.42 -9)"/><path class="cls-1" d="M37,25.85a3,3,0,1,1,3-3A3,3,0,0,1,37,25.85Zm0-5.39a2.36,2.36,0,1,0,2.36,2.36A2.36,2.36,0,0,0,37,20.46Z" transform="translate(-12.42 -9)"/><path class="cls-1" d="M18.48,40H12.42V27.87h6.06Zm-5.39-.67h4.72V28.54H13.09Z" transform="translate(-12.42 -9)"/><rect class="cls-1" x="2.7" y="21.23" width="0.67" height="2.02"/></svg>