<svg xmlns="http://www.w3.org/2000/svg" viewBox="0 0 31.01 31.01"><defs><style>.cls-1{fill:#505050;}</style></defs><title>personal_details</title><path class="cls-1" d="M41.42,9H23.07a1.58,1.58,0,0,0-1.58,1.58v9.82h.63V10.58a1,1,0,0,1,.95-.95H41.42a1,1,0,0,1,.95.95V23.87a1,1,0,0,1-.95.95h-7a.32.32,0,0,0-.22.09L30.35,28.8V25.13a.32.32,0,0,0-.32-.32H27.62c.05.21.09.42.12.63h2v4.11a.32.32,0,0,0,.54.22l4.34-4.34h6.83A1.58,1.58,0,0,0,43,23.87V10.58A1.58,1.58,0,0,0,41.42,9Z" transform="translate(-12 -9)"/><path class="cls-1" d="M27.3,33.51c-.33-.09-.66-.19-1-.3-1.74-.58-2.28-.9-2.28-1.75a2.72,2.72,0,0,1,.7-1.6,5.24,5.24,0,0,0,1.2-3.41,3.92,3.92,0,0,0-4.11-4.17,3.92,3.92,0,0,0-4.11,4.17,5.24,5.24,0,0,0,1.2,3.41,2.72,2.72,0,0,1,.7,1.6c0,.85-.54,1.17-2.28,1.75-.34.11-.67.21-1,.3-2.22.64-4.32,1.24-4.32,6.17V40H31.61v-.32C31.61,34.75,29.52,34.15,27.3,33.51ZM31,39.37H12.63V39c.15-3.86,1.78-4.33,3.85-4.92.34-.1.68-.19,1-.31,1.4-.47,2.71-.9,2.71-2.35a3.28,3.28,0,0,0-.82-2,4.7,4.7,0,0,1-1.08-3,3.29,3.29,0,0,1,3.48-3.53,3.29,3.29,0,0,1,3.48,3.53,4.7,4.7,0,0,1-1.08,3,3.28,3.28,0,0,0-.82,2c0,1.45,1.32,1.89,2.71,2.35.35.11.69.21,1,.31,2.06.59,3.7,1.06,3.85,4.92Z" transform="translate(-12 -9)"/><rect class="cls-1" x="14.55" y="4.43" width="11.39" height="0.63"/><rect class="cls-1" x="14.55" y="7.59" width="11.39" height="0.63"/><rect class="cls-1" x="14.55" y="10.76" width="11.39" height="0.63"/></svg>