<svg id="Layer_1" data-name="Layer 1" xmlns="http://www.w3.org/2000/svg" xmlns:xlink="http://www.w3.org/1999/xlink" viewBox="0 0 84.25 80.2"><defs><style>.cls-1{filter:url(#AI_Shadow_1);}.cls-2{fill:#fff;}.cls-3{fill:url(#linear-gradient);}</style><filter id="AI_Shadow_1" name="AI_Shadow_1"><feGaussianBlur result="blur" stdDeviation="2" in="SourceAlpha"/><feOffset result="offsetBlurredAlpha" in="blur"/><feMerge><feMergeNode in="offsetBlurredAlpha"/><feMergeNode in="SourceGraphic"/></feMerge></filter><linearGradient id="linear-gradient" x1="-185.95" y1="285.43" x2="-185.95" y2="227.88" gradientTransform="translate(228 -211.25)" gradientUnits="userSpaceOnUse"><stop offset="0.22" stop-color="#f7c00f"/><stop offset="0.83" stop-color="#fcea10"/><stop offset="1" stop-color="#fef6b8"/></linearGradient></defs><title>Artboard 1</title><g class="cls-1"><path class="cls-2" d="M42.45.06a1.23,1.23,0,0,0-.75,0,1,1,0,0,0-.5.5L28.7,25.85l-27.85,4a1.14,1.14,0,0,0-.65.35,1.09,1.09,0,0,0-.2.7.92.92,0,0,0,.3.65l20.15,19.7L15.7,79a1.15,1.15,0,0,0,.15.75.9.9,0,0,0,.6.4.79.79,0,0,0,.7-.1L42.1,67l25,13.1a.92.92,0,0,0,.75.1.9.9,0,0,0,.6-.4,1,1,0,0,0,.1-.75l-4.8-27.75L84,31.56a.91.91,0,0,0,.3-.65,1,1,0,0,0-.25-.7.91.91,0,0,0-.6-.35l-28-4L43,.56a1.09,1.09,0,0,0-.55-.5M54.2,27.56a1.13,1.13,0,0,0,.45.2L81,31.56,62,50.16a1.27,1.27,0,0,0-.25.45,1.14,1.14,0,0,0,0,.45l4.5,26.3L42.55,65a1.09,1.09,0,0,0-.45-.1,1.49,1.49,0,0,0-.5.1L18,77.36l4.5-26.3a.72.72,0,0,0,0-.45,1.28,1.28,0,0,0-.25-.45L3.15,31.56l26.4-3.8a.79.79,0,0,0,.4-.2.93.93,0,0,0,.35-.35l11.8-24,11.8,24A1.09,1.09,0,0,0,54.2,27.56Z"/><path class="cls-3" d="M54.6,27.76a1.13,1.13,0,0,1-.45-.2,1.09,1.09,0,0,1-.3-.35l-11.8-24-11.8,24a.93.93,0,0,1-.35.35.79.79,0,0,1-.4.2L3.1,31.56l19.1,18.6a1.28,1.28,0,0,1,.25.45.72.72,0,0,1,0,.45L18,77.36,41.6,65a1.49,1.49,0,0,1,.5-.1,1.09,1.09,0,0,1,.45.1L66.2,77.36l-4.5-26.3a1.14,1.14,0,0,1,0-.45,1.27,1.27,0,0,1,.25-.45l19-18.6Z"/></g></svg>