<svg xmlns="http://www.w3.org/2000/svg" viewBox="0 0 122.62 177.41"><defs><style>.cls-1{fill:#25A836;}</style></defs><path class="cls-1" d="M104.42,99.93a9.69,9.69,0,0,0-9.64-8.74v4.63a5,5,0,0,1,5,5v12.11a5,5,0,0,1-5,5v4.63a9.57,9.57,0,0,0,5-1.42v11.19c0,19.6-4.22,24.38-7.94,28.59a34,34,0,0,0-2.76,3.42,2.31,2.31,0,0,0-.4,1.3V177.3h4.64V166.39c.6-.81,1.29-1.58,2-2.39,4.05-4.59,9.1-10.29,9.1-31.65Z" transform="translate(0.09 0.1)"/><path class="cls-1" d="M81,83A10.73,10.73,0,0,0,74,85.46a9.13,9.13,0,0,0-2.8,4.19l-2-5.09L75,66.29c2.22-6.65-1.53-11.35-6-12.9a10.35,10.35,0,0,0-11,2.54L56.7,52.45c-2.28-6.06-8.28-7.46-13-5.71s-8.34,6.66-6.17,12.73L46.9,83.93l-8.18,22.45-.45.06C28,108,24,116.07,24.27,126.65a43.94,43.94,0,0,0,.38,4.73,50.65,50.65,0,0,0,2.17,9.12c4.57,13.41,11.7,22.54,16.81,26.35v10.46h4.59V165.65a2.34,2.34,0,0,0-1-1.94h0c-7.61-4.95-18-22.69-18.27-37.14a28.66,28.66,0,0,1,.2-4.13c1-7.9,6.18-11.14,10.45-11.57H68.1a4.66,4.66,0,0,1,3.6,1.78,4.43,4.43,0,0,1,.39,5,10.16,10.16,0,0,1-5.35,3.64,20.72,20.72,0,0,1-7.24,1.05,15.12,15.12,0,0,1-3.51-.5,7.55,7.55,0,0,1-2.75-1.34h0a2.31,2.31,0,0,0-2.21-.41l-4.61,1.5h-.08a2.3,2.3,0,0,0,.41,4.45c9.7,1.42,15.19,8.2,18.08,17.68l2.69-.6c-1.49-6.19-3.72-11.89-8.91-16.19h.73a25.3,25.3,0,0,0,8.89-1.3,18.47,18.47,0,0,0,4.21-2A11.9,11.9,0,0,0,76,120a8.82,8.82,0,0,0,1.05-2.56,9,9,0,0,0-1.75-7.65V92.93c0-4.13,3.53-5.23,5.62-5.23A6.2,6.2,0,0,1,85,89a4.84,4.84,0,0,1,1.63,3.89v19.8a5.22,5.22,0,0,1-5.21,5.2h-2v4.63h2a9.86,9.86,0,0,0,9.85-9.85V92.93C91.21,86.42,86.06,83,81,83ZM41.88,57.87c-1.37-3.84,1.54-6.07,3.44-6.79s5.63-.89,7.15,3l2.72,7L49.31,77.32Zm15.6,48.34H43.71l16.2-44.45c1.48-4.06,5-4.92,7.67-4,2.26.79,4.42,3.11,3.09,7.09Zm13.24.41-.2-.07a19.4,19.4,0,0,0-4.57-.34H62.34L67,91.59l3.72,9.56Z" transform="translate(0.09 0.1)"/><path class="cls-1" d="M61.21,20.62a1,1,0,0,1-1-1V1a1,1,0,1,1,2,0V19.62A1,1,0,0,1,61.21,20.62Z" transform="translate(0.09 0.1)"/><path class="cls-1" d="M61.21,20.72a1.1,1.1,0,0,1-1.1-1.1V1a1.1,1.1,0,1,1,2.2,0V19.62A1.1,1.1,0,0,1,61.21,20.72ZM61.21.1a.9.9,0,0,0-.9.9V19.62a.9.9,0,0,0,1.8,0V1A.9.9,0,0,0,61.21.1Z" transform="translate(0.09 0.1)"/><path class="cls-1" d="M61.21,20.62a1,1,0,0,1-1-1V10.31a1,1,0,0,1,2,0v9.31A1,1,0,0,1,61.21,20.62Z" transform="translate(0.09 0.1)"/><path class="cls-1" d="M61.21,20.72a1.1,1.1,0,0,1-1.1-1.1V10.31a1.1,1.1,0,1,1,2.2,0v9.31A1.1,1.1,0,0,1,61.21,20.72Zm0-11.31a.9.9,0,0,0-.9.9v9.31a.9.9,0,0,0,1.8,0V10.31A.9.9,0,0,0,61.21,9.41Z" transform="translate(0.09 0.1)"/><path class="cls-1" d="M39.83,24.87a1,1,0,0,1-.92-.62l-3.56-8.6a1,1,0,0,1,1.84-.72l3.56,8.6a1,1,0,0,1-.92,1.38Z" transform="translate(0.09 0.1)"/><path class="cls-1" d="M39.73,25v0a1.1,1.1,0,0,1-.91-.68l-3.56-8.6a1.1,1.1,0,0,1,2-.81l3.57,8.61a1.1,1.1,0,0,1-.6,1.44,1.09,1.09,0,0,1-.41.08Zm-3.4-10.48-.2,0a.9.9,0,0,0-.68,1.07L39,24.21a.9.9,0,0,0,.83.56h.1v0a.87.87,0,0,0,.24-.06.9.9,0,0,0,.49-1.17L37.1,15A.89.89,0,0,0,36.33,14.53Z" transform="translate(0.09 0.1)"/><path class="cls-1" d="M21.71,36.93a1,1,0,0,1-.71-.29L7.84,23.52a1,1,0,0,1,1.41-1.41L22.42,35.27a1,1,0,0,1-.71,1.66Z" transform="translate(0.09 0.1)"/><path class="cls-1" d="M21.7,37a1.1,1.1,0,0,1-.77-.32L7.77,23.59A1.1,1.1,0,0,1,9.31,22L22.49,35.2A1.1,1.1,0,0,1,21.71,37h0ZM8.6,22a.9.9,0,0,0-.69,1.49L21.07,36.57a.9.9,0,0,0,.63.26h0a.9.9,0,0,0,.64-1.49L9.18,22.18A.89.89,0,0,0,8.6,22Z" transform="translate(0.09 0.1)"/><path class="cls-1" d="M21.71,36.93a1,1,0,0,1-.71-.29L14.42,30.1a1,1,0,0,1,1.41-1.41l6.59,6.58a1,1,0,0,1-.71,1.66Z" transform="translate(0.09 0.1)"/><path class="cls-1" d="M21.7,37a1.1,1.1,0,0,1-.77-.32l-6.58-6.54a1.1,1.1,0,0,1,1.55-1.56l6.6,6.59A1.1,1.1,0,0,1,21.71,37h0Zm-6.52-8.48A.9.9,0,0,0,14.5,30l6.57,6.53a.9.9,0,0,0,.63.26h0a.9.9,0,0,0,.64-1.49l-6.59-6.58A.89.89,0,0,0,15.18,28.55Z" transform="translate(0.09 0.1)"/><path class="cls-1" d="M9.6,55.1A1,1,0,0,1,9.22,55L.62,51.46a1,1,0,1,1,.8-1.85L10,53.17a1,1,0,0,1-.38,1.92Z" transform="translate(0.09 0.1)"/><path class="cls-1" d="M9.61,55.2h0a1.1,1.1,0,0,1-.42-.09L.58,51.55a1.11,1.11,0,0,1,0-2,1.1,1.1,0,0,1,.85,0l8.6,3.56a1.1,1.1,0,0,1-.42,2.11ZM1,49.63a.91.91,0,0,0-.36,1.74l8.6,3.56a.91.91,0,0,0,.33.07h0a.92.92,0,0,0,.84-.55A.9.9,0,0,0,10,53.26L1.38,49.7A.91.91,0,0,0,1,49.63Z" transform="translate(0.09 0.1)"/><path class="cls-1" d="M112.82,55.1a1,1,0,0,1-.38-1.92l8.6-3.56a1,1,0,0,1,.77,1.85L113.21,55A1,1,0,0,1,112.82,55.1Z" transform="translate(0.09 0.1)"/><path class="cls-1" d="M112.84,55.2h0a1.1,1.1,0,0,1-.42-2.11l8.6-3.56a1.1,1.1,0,1,1,.85,2l-8.6,3.56A1.09,1.09,0,0,1,112.84,55.2Zm8.58-5.56a.91.91,0,0,0-.35.07l-8.6,3.56a.9.9,0,0,0-.55.82.9.9,0,0,0,.89.91h0a.74.74,0,0,0,.35-.06l8.6-3.56a.9.9,0,0,0,0-1.67A.91.91,0,0,0,121.43,49.64Z" transform="translate(0.09 0.1)"/><path class="cls-1" d="M100.71,36.93a1,1,0,0,1-.71-1.71L113.17,22a1,1,0,0,1,1.41,1.41L101.42,36.68A1,1,0,0,1,100.71,36.93Z" transform="translate(0.09 0.1)"/><path class="cls-1" d="M100.76,37h-.06a1.1,1.1,0,0,1-1.1-1.09,1.11,1.11,0,0,1,.33-.79L113.1,22a1.1,1.1,0,0,1,1.56,1.55L101.49,36.75A1.1,1.1,0,0,1,100.76,37Zm0-.2h0a.86.86,0,0,0,.64-.22l13.16-13.22a.9.9,0,0,0-1.27-1.26L100.07,35.29a.92.92,0,0,0-.27.64.9.9,0,0,0,.27.63.87.87,0,0,0,.64.26Z" transform="translate(0.09 0.1)"/><path class="cls-1" d="M100.71,36.93a1,1,0,0,1-.71-1.71l6.58-6.58A1,1,0,0,1,108,30l-6.57,6.63A1,1,0,0,1,100.71,36.93Z" transform="translate(0.09 0.1)"/><path class="cls-1" d="M100.76,37h-.06a1.1,1.1,0,0,1-1.1-1.09,1.11,1.11,0,0,1,.33-.79l6.58-6.58a1.1,1.1,0,0,1,1.56,1.55l-6.58,6.64A1.1,1.1,0,0,1,100.76,37Zm0-.2h0a.86.86,0,0,0,.64-.22L107.92,30a.9.9,0,0,0-1.27-1.26l-6.58,6.57a.92.92,0,0,0-.27.64.9.9,0,0,0,.9.89h0Z" transform="translate(0.09 0.1)"/><path class="cls-1" d="M82.59,24.87a1,1,0,0,1-.92-1.38l3.56-8.56a1,1,0,0,1,1.85.77h0l-3.56,8.6A1,1,0,0,1,82.59,24.87Z" transform="translate(0.09 0.1)"/><path class="cls-1" d="M82.62,25h0a1.1,1.1,0,0,1-1-1.52l3.56-8.56a1.1,1.1,0,0,1,2,.85l-3.56,8.6A1.1,1.1,0,0,1,82.62,25Zm3.54-10.56a.9.9,0,0,0-.83.56l-3.56,8.56a.9.9,0,0,0,.83,1.24h0a.9.9,0,0,0,.81-.51L87,15.66a.9.9,0,0,0-.83-1.25Z" transform="translate(0.09 0.1)"/></svg>