<svg xmlns="http://www.w3.org/2000/svg" viewBox="0 0 130.85 108.16"><defs><style>.cls-1{fill:#25A836;}</style></defs><path class="cls-1" d="M30.81,45.69V41.81a9.11,9.11,0,0,0,3.81-1.91,7.49,7.49,0,0,0,0-11.58,9.41,9.41,0,0,0-6.17-2.23A4.7,4.7,0,0,1,25.36,25a2.78,2.78,0,0,1,0-4.43,5.08,5.08,0,0,1,6.17,0,2.94,2.94,0,0,1,1.1,2.21h4.72A7.59,7.59,0,0,0,34.62,17a8.88,8.88,0,0,0-3.81-1.86V11.21H26.08v3.94A8.85,8.85,0,0,0,22.27,17a7.49,7.49,0,0,0,0,11.58,9.42,9.42,0,0,0,6.18,2.23,4.7,4.7,0,0,1,3,1.08,2.78,2.78,0,0,1,0,4.43,5.08,5.08,0,0,1-6.17,0,2.94,2.94,0,0,1-1.1-2.21H19.5a7.59,7.59,0,0,0,2.73,5.79A9.13,9.13,0,0,0,26,41.81v3.88Z" transform="translate(0 -0.03)"/><path class="cls-1" d="M93.74,86.4l4.41-14.63h.13L113.5,21.38h-.11L118,6.1h12.85V1.37H114.5l-6,20H56A28.42,28.42,0,1,0,17.87,54.84c.79.32,1.6.59,2.41.84L25,71.76H93.22L89.22,85c-.33,0-.65-.1-1-.1H37.61a11.72,11.72,0,1,0,9.29,4.73h32A11.59,11.59,0,1,0,93.74,86.4Zm7.76-42.19H85.28L88,26.1h19ZM48.11,48.93h11.2V67h-13L44.13,52.15a28.16,28.16,0,0,0,4-3.22Zm15.89,0H79.79L77.07,67h-13Zm0-4.72V26.1H83.23L80.5,44.21ZM59.31,26.1V44.21H52A28.61,28.61,0,0,0,54.85,39a28.23,28.23,0,0,0,1.9-12.9ZM6.43,19.63A23.73,23.73,0,1,1,19.66,50.47h0A23.62,23.62,0,0,1,6.36,19.81ZM25.5,56.74a27.73,27.73,0,0,0,14.15-2.2L41.5,67H28.58ZM81.85,67l2.73-18.1h15.53L94.65,67ZM44.5,96.54a6.87,6.87,0,1,1-6.87-6.87h0A6.88,6.88,0,0,1,44.5,96.54Zm43.75,6.87a6.87,6.87,0,1,1,6.87-6.87h0a6.88,6.88,0,0,1-6.89,6.87h0Z" transform="translate(0 -0.03)"/></svg>