<svg xmlns="http://www.w3.org/2000/svg" viewBox="0 0 92.47 143.68"><defs><style>.cls-1{fill:#25A836;}</style></defs><path class="cls-1" d="M82.4,67a10.14,10.14,0,0,0-6.32,2.2,10.07,10.07,0,0,0-16.43-6.34A10,10,0,0,0,49.72,54a10.34,10.34,0,0,0-6.38,2.3V33.7a9.91,9.91,0,0,0-10-9.85h-.1a9.92,9.92,0,0,0-10,9.84q0,.08,0,.16V99.4l-6.41-6.46a9.79,9.79,0,0,0-7-2.92A10.2,10.2,0,0,0,.39,97.21a9.85,9.85,0,0,0,2.49,9.55c3.19,3.23,27.87,29.06,27.87,29.06a25.66,25.66,0,0,0,18.47,7.88H66.5a26,26,0,0,0,26-25.82V77A10.1,10.1,0,0,0,82.4,67Zm5.81,50.89A21.71,21.71,0,0,1,66.5,139.4H49.22a21.33,21.33,0,0,1-15.35-6.55S9.17,107,6,103.7a5.62,5.62,0,0,1-1.59-4A5.11,5.11,0,0,1,6,96l.49-.46a5.43,5.43,0,0,1,7.31.43l9.67,9.81a2.44,2.44,0,0,0,4.16-1.68V33.85a5.64,5.64,0,0,1,5.6-5.68h.16A5.63,5.63,0,0,1,39,33.7V94.81a2.46,2.46,0,0,0,.71,1.78,2.43,2.43,0,0,0,1.72.71,5.75,5.75,0,0,0,.87-.14A2.52,2.52,0,0,0,44,94.82V64.1A5.73,5.73,0,1,1,55.5,64h0V93.7a2.51,2.51,0,0,0,5,0V70.56a5.73,5.73,0,0,1,11.46,0V95a2.3,2.3,0,0,0,1.63,2.28s.55.1.72.1A2.42,2.42,0,0,0,76.73,95V77.08A5.73,5.73,0,0,1,88.19,77Z" transform="translate(-0.03 -0.02)"/><path class="cls-1" d="M47.62,45.94A20.24,20.24,0,0,0,53.7,31.33,20.5,20.5,0,1,0,19,46V38.89a16.16,16.16,0,1,1,30.41-7.56,15.37,15.37,0,0,1-1.77,7.37Z" transform="translate(-0.03 -0.02)"/><path class="cls-1" d="M19,59.22v-5a27,27,0,1,1,33.74-4.28A31.35,31.35,0,0,1,57,51.7a31.31,31.31,0,1,0-38,7.53Z" transform="translate(-0.03 -0.02)"/></svg>